<?xml version="1.0" encoding="UTF-8" standalone="no"?>
<svg
   width="119.9999"
   height="179.99985"
   version="1.1"
   viewBox="0 0 119.9999 179.99985"
   preserveAspectRatio="none"
   id="svg495"
   xmlns:xlink="http://www.w3.org/1999/xlink"
   xmlns="http://www.w3.org/2000/svg"
   xmlns:svg="http://www.w3.org/2000/svg">
  <defs
     id="defs495" />
  <path
     id="2"
     d="m 9.5540504,-81.080169 c -0.07,0.07 -0.04,0.12 0.04,0.12 H 15.29405 c 0.12,0 0.24,0.12 0.24,0.24 v 1.51 c 0,0.09 -0.06,0.24 -0.24,0.24 H 6.6940504 c -0.07,0 -0.24,-0.02 -0.24,-0.24 v -1.43 c 0,-0.12 0.04,-0.22 0.12,-0.3 1.54,-1.63 2.99,-3.35 4.4599996,-5.06 1.22,-1.42 1.84,-2.5 1.84,-3.23 0,-1.09 -0.84,-1.85 -2.08,-1.85 -1.1799996,0 -2.0599996,0.68 -2.0599996,1.89 v 0.52 c 0,0.08 -0.06,0.24 -0.24,0.24 h -1.86 c -0.15,0 -0.24,-0.09 -0.24,-0.24 v -0.86 c 0.08,-2.24 2.03,-3.54 4.3999996,-3.54 2.85,0 4.42,1.77 4.42,3.8 0,1.09 -0.58,2.34 -1.74,3.76 -1.25,1.53 -2.6,2.96 -3.9199996,4.42 z" />
  <g
     id="club_2"
     transform="translate(-119.99595,-1.6909403e-4)">
    <use
       transform="translate(120)"
       xlink:href="#card"
       id="use28" />
    <use
       transform="translate(120)"
       xlink:href="#fr"
       id="use29" />
    <use
       transform="translate(120)"
       xlink:href="#u3938"
       id="use30" />
    <use
       id="u1410"
       transform="translate(120,-63.5)"
       xlink:href="#pip_club" />
    <use
       id="u1780"
       transform="matrix(1,0,0,-1,120,243.5)"
       xlink:href="#pip_club" />
    <use
       transform="translate(120)"
       xlink:href="#nump"
       id="use31" />
    <use
       transform="translate(120)"
       xlink:href="#pip_club_S"
       id="use32" />
    <use
       transform="translate(120)"
       xlink:href="#u2940"
       id="use33" />
    <use
       transform="translate(119.99595,100.00017)"
       style="fill:#332e2e"
       xlink:href="#2"
       id="use34" />
    <use
       transform="rotate(180,120.00203,39.999915)"
       style="fill:#332e2e"
       xlink:href="#2"
       id="use35" />
  </g>
  <g
     id="club_1"
     transform="translate(-119.99595,-1.6909403e-4)">
    <g
       id="card"
       transform="matrix(0.83103,0,0,0.83565,-1641.87,-580.266)">
      <rect
         id="card_face"
         x="1976.6"
         y="695.289"
         width="142.599"
         height="213.601"
         rx="9.5"
         ry="9.5"
         fill="#ffffff"
         stroke="#332e2e"
         stroke-linejoin="round"
         stroke-width="1.8" />
    </g>
    <rect
       id="fr"
       x="7"
       y="7"
       width="106"
       height="166"
       rx="3"
       ry="3"
       fill="none"
       stroke="#a68c59" />
    <use
       id="u3938"
       transform="rotate(180,60,90)"
       xlink:href="#nump" />
    <use
       id="u2940"
       transform="rotate(180,60.044,90)"
       xlink:href="#pip_club_S" />
    <path
       id="nump"
       d="m 5.004,6.004 v 33 h 14 v -33 z"
       fill="#ffffff" />
    <path
       id="pip_club"
       d="m 60,75 a 5.5,5.5 0 0 0 -3.889,9.389 c 1,1 2.889,1.81 2.889,3.81 0,1.201 -0.472,1.5 -1.3,1.5 -2.1,0 -1.723,-1.574 -3.311,-3.088 C 53.369,85.641 52.019,85 50.5,85 a 5.5,5.5 0 1 0 0,11 c 1.519,0 2.87,-0.64 3.889,-1.611 1.588,-1.514 1.21,-2.69 3.31,-2.69 0.828,0 1.301,0.1 1.301,1.1 0,7.4 -2,9.2 -4.2,10.9 L 56,105 c 0,0 1.6,-1.3 4,-1.3 2.4,0 4,1.3 4,1.3 l 1.2,-1.3 C 63,102 61,100.199 61,92.799 c 0,-1 0.473,-1.1 1.3,-1.1 2.1,0 1.723,1.176 3.311,2.69 1.02,0.97 2.37,1.611 3.889,1.611 a 5.5,5.5 0 1 0 0,-11 c -1.519,0 -2.87,0.64 -3.889,1.611 -1.588,1.514 -1.21,3.088 -3.31,3.088 -0.829,0 -1.301,-0.299 -1.301,-1.5 0,-2 1.889,-2.81 2.889,-3.81 A 5.5,5.5 0 0 0 60,75 Z"
       fill="#332e2e" />
    <use
       id="pip_club_S"
       transform="matrix(0.367,0,0,0.367,-11.04,-3.24)"
       xlink:href="#pip_club" />
  </g>
</svg>
