<?xml version="1.0" encoding="UTF-8" standalone="no"?>
<svg
   width="119.9999"
   height="179.99982"
   version="1.1"
   viewBox="0 0 119.9999 179.99982"
   preserveAspectRatio="none"
   id="svg495"
   xmlns:xlink="http://www.w3.org/1999/xlink"
   xmlns="http://www.w3.org/2000/svg"
   xmlns:svg="http://www.w3.org/2000/svg">
  <defs
     id="defs495" />
  <path
     id="2"
     d="m 9.5540504,-441.08017 c -0.07,0.07 -0.04,0.12 0.04,0.12 H 15.29405 c 0.12,0 0.24,0.12 0.24,0.24 v 1.51 c 0,0.09 -0.06,0.24 -0.24,0.24 H 6.6940504 c -0.07,0 -0.24,-0.02 -0.24,-0.24 v -1.43 c 0,-0.12 0.04,-0.22 0.12,-0.3 1.54,-1.63 2.99,-3.35 4.4599996,-5.06 1.22,-1.42 1.84,-2.5 1.84,-3.23 0,-1.09 -0.84,-1.85 -2.08,-1.85 -1.1799996,0 -2.0599996,0.68 -2.0599996,1.89 v 0.52 c 0,0.08 -0.06,0.24 -0.24,0.24 h -1.86 c -0.15,0 -0.24,-0.09 -0.24,-0.24 v -0.86 c 0.08,-2.24 2.03,-3.54 4.3999996,-3.54 2.85,0 4.42,1.77 4.42,3.8 0,1.09 -0.58,2.34 -1.74,3.76 -1.25,1.53 -2.6,2.96 -3.9199996,4.42 z" />
  <g
     id="club_1"
     transform="translate(-119.99595,-360.00017)">
    <g
       id="card"
       transform="matrix(0.83103,0,0,0.83565,-1641.87,-580.266)">
      <rect
         id="card_face"
         x="1976.6"
         y="695.289"
         width="142.599"
         height="213.601"
         rx="9.5"
         ry="9.5"
         fill="#ffffff"
         stroke="#332e2e"
         stroke-linejoin="round"
         stroke-width="1.8" />
    </g>
    <rect
       id="fr"
       x="7"
       y="7"
       width="106"
       height="166"
       rx="3"
       ry="3"
       fill="none"
       stroke="#a68c59" />
    <use
       id="u3938"
       transform="rotate(180,60,90)"
       xlink:href="#nump" />
    <path
       id="nump"
       d="m 5.004,6.004 v 33 h 14 v -33 z"
       fill="#ffffff" />
  </g>
  <g
     id="heart_2"
     transform="translate(-119.99595,-360.00017)">
    <use
       transform="translate(120,360)"
       xlink:href="#card"
       id="use264" />
    <use
       transform="translate(120,360)"
       xlink:href="#fr"
       id="use265" />
    <use
       id="u21397"
       transform="translate(120,-66.5)"
       xlink:href="#pip_heart" />
    <use
       id="u21762"
       transform="rotate(180,180,450)"
       xlink:href="#u21397" />
    <use
       transform="translate(120,360)"
       xlink:href="#nump"
       id="use266" />
    <use
       transform="translate(120,-0.1)"
       xlink:href="#pip_heart_S"
       id="use267" />
    <use
       transform="translate(120,360)"
       xlink:href="#u3938"
       id="use268" />
    <use
       transform="translate(120)"
       xlink:href="#u9338"
       id="use269" />
    <use
       transform="translate(119.99595,820.00017)"
       style="fill:#f23131"
       xlink:href="#2"
       id="use270" />
    <use
       transform="rotate(180,120.00203,39.999911)"
       style="fill:#f23131"
       xlink:href="#2"
       id="use271" />
  </g>
  <g
     id="heart_1"
     transform="translate(-119.99595,-360.00017)">
    <use
       id="pip_heart_S"
       transform="matrix(0.386,0,0,0.37,-12.38,223)"
       xlink:href="#pip_heart" />
    <use
       id="u9338"
       transform="rotate(180,60.044,450.054)"
       xlink:href="#pip_heart_S" />
    <path
       id="pip_heart"
       d="m 53,438 c -3.866,0 -6.998,2.858 -7,7 -0.004,8 8,10 14,20 6.113,-10.188 13.904,-11.932 14,-20 -0.038,-4.142 -3.134,-7 -7,-7 -3.684,0 -5.7,2.3 -7,5 -1.3,-2.7 -3.316,-4.999 -7,-5 z"
       fill="#f23131" />
  </g>
</svg>
