<?xml version="1.0" encoding="UTF-8" standalone="no"?>
<svg
   width="119.9999"
   height="179.99982"
   version="1.1"
   viewBox="0 0 119.9999 179.99982"
   preserveAspectRatio="none"
   id="svg495"
   xmlns:xlink="http://www.w3.org/1999/xlink"
   xmlns="http://www.w3.org/2000/svg"
   xmlns:svg="http://www.w3.org/2000/svg">
  <defs
     id="defs495" />
  <path
     id="2"
     d="m 9.5540504,-621.08017 c -0.07,0.07 -0.04,0.12 0.04,0.12 H 15.29405 c 0.12,0 0.24,0.12 0.24,0.24 v 1.51 c 0,0.09 -0.06,0.24 -0.24,0.24 H 6.6940504 c -0.07,0 -0.24,-0.02 -0.24,-0.24 v -1.43 c 0,-0.12 0.04,-0.22 0.12,-0.3 1.54,-1.63 2.99,-3.35 4.4599996,-5.06 1.22,-1.42 1.84,-2.5 1.84,-3.23 0,-1.09 -0.84,-1.85 -2.08,-1.85 -1.1799996,0 -2.0599996,0.68 -2.0599996,1.89 v 0.52 c 0,0.08 -0.06,0.24 -0.24,0.24 h -1.86 c -0.15,0 -0.24,-0.09 -0.24,-0.24 v -0.86 c 0.08,-2.24 2.03,-3.54 4.3999996,-3.54 2.85,0 4.42,1.77 4.42,3.8 0,1.09 -0.58,2.34 -1.74,3.76 -1.25,1.53 -2.6,2.96 -3.9199996,4.42 z" />
  <g
     id="club_1"
     transform="translate(-119.99595,-540.00017)">
    <g
       id="card"
       transform="matrix(0.83103,0,0,0.83565,-1641.87,-580.266)">
      <rect
         id="card_face"
         x="1976.6"
         y="695.289"
         width="142.599"
         height="213.601"
         rx="9.5"
         ry="9.5"
         fill="#ffffff"
         stroke="#332e2e"
         stroke-linejoin="round"
         stroke-width="1.8" />
    </g>
    <rect
       id="fr"
       x="7"
       y="7"
       width="106"
       height="166"
       rx="3"
       ry="3"
       fill="none"
       stroke="#a68c59" />
    <use
       id="u3938"
       transform="rotate(180,60,90)"
       xlink:href="#nump" />
    <path
       id="nump"
       d="m 5.004,6.004 v 33 h 14 v -33 z"
       fill="#ffffff" />
  </g>
  <g
     id="spade_2"
     transform="translate(-119.99595,-540.00017)">
    <use
       transform="translate(120,540)"
       xlink:href="#card"
       id="use388" />
    <use
       transform="translate(120,540)"
       xlink:href="#fr"
       id="use389" />
    <use
       transform="translate(120,540)"
       xlink:href="#nump"
       id="use390" />
    <use
       transform="translate(120,540)"
       xlink:href="#u3938"
       id="use391" />
    <use
       id="u28846"
       transform="translate(120,-63.25)"
       xlink:href="#pip_spade" />
    <use
       id="u29400"
       transform="rotate(180,180.044,630)"
       xlink:href="#u28846" />
    <use
       transform="translate(120)"
       xlink:href="#pip_spade_S"
       id="use392" />
    <use
       transform="translate(120)"
       xlink:href="#u10961"
       id="use393" />
    <use
       transform="translate(119.99595,1180.0002)"
       style="fill:#332e2e"
       xlink:href="#2"
       id="use394" />
    <use
       transform="rotate(180,120.00203,39.999913)"
       style="fill:#332e2e"
       xlink:href="#2"
       id="use395" />
  </g>
  <g
     id="spade_1"
     transform="translate(-119.99595,-540.00017)">
    <use
       id="u10961"
       transform="rotate(180,60.044,630.004)"
       xlink:href="#pip_spade_S" />
    <path
       id="pip_spade"
       d="m 60,614.25 c 0,0 -2.116,3.992 -6.5,7.75 -3.5,3 -7.25,6.3 -7.25,11 0,3.59 2.298,6.75 5.75,6.75 4.035,0 6.125,-3.45 6.125,-6.1 0,-0.2 0.178,-0.35 0.375,-0.35 0.197,0 0.361,0.153 0.375,0.35 V 635 c 0,4.075 -0.443,7.143 -3.625,9.5 l 1.2,1.25 c 0,0 1.55,-1.2 3.55,-1.2 2,0 3.55,1.2 3.55,1.2 l 1.2,-1.25 c -3.182,-2.357 -3.625,-5.425 -3.625,-9.5 v -1.35 c 0.014,-0.197 0.178,-0.35 0.375,-0.35 0.197,0 0.375,0.15 0.375,0.35 0,2.65 2.09,6.1 6.125,6.1 3.452,0 5.75,-3.16 5.75,-6.75 0,-4.7 -3.75,-8 -7.25,-11 -4.384,-3.758 -6.5,-7.75 -6.5,-7.75 z"
       fill="#332e2e" />
    <use
       id="pip_spade_S"
       transform="matrix(0.4,0,0,0.4,-13.24,318.3)"
       xlink:href="#pip_spade" />
  </g>
</svg>
