<?xml version="1.0" encoding="UTF-8" standalone="no"?>
<svg
   width="119.99989"
   height="179.99985"
   version="1.1"
   viewBox="0 0 119.99989 179.99985"
   preserveAspectRatio="none"
   id="svg495"
   xmlns:xlink="http://www.w3.org/1999/xlink"
   xmlns="http://www.w3.org/2000/svg"
   xmlns:svg="http://www.w3.org/2000/svg">
  <defs
     id="defs495" />
  <path
     id="3"
     d="m 15.374038,-83.480169 c 0,2.43 -1.34,4.59 -4.42,4.59 -1.9900008,0 -4.2700008,-1.14 -4.4000008,-4.37 0,-0.16 0.08,-0.24 0.24,-0.24 h 1.86 c 0.16,0 0.24,0.08 0.24,0.24 0.06,0.97 0.43,2.38 2.0600008,2.38 1.82,0 2.08,-1.72 2.08,-2.69 0,-1.7 -0.66,-2.78 -2.1,-2.78 -0.23,0 -0.53,0.13 -0.92,0.4 -0.1200008,0.06 -0.2200008,0.07 -0.3400008,-0.08 l -0.92,-1.27 c -0.11,-0.15 -0.05,-0.27 0.02,-0.34 l 3.3000008,-3.22 c 0.05,-0.05 0.02,-0.12 -0.06,-0.12 H 7.0140372 c -0.06,0 -0.24,-0.02 -0.24,-0.24 v -1.51 c 0,-0.17 0.15,-0.24 0.24,-0.24 h 7.9800008 c 0.12,0 0.24,0.12 0.24,0.24 v 1.73 c 0,0.12 -0.04,0.22 -0.12,0.3 l -2.86,2.86 c -0.05,0.05 -0.03,0.09 0.08,0.12 2.31,0.32 3.04,2.4 3.04,4.24 z" />
  <g
     id="club_2"
     transform="translate(-239.99597,-1.6909403e-4)">
    <use
       id="u1410"
       transform="translate(120,-63.5)"
       xlink:href="#pip_club" />
    <use
       id="u1780"
       transform="matrix(1,0,0,-1,120,243.5)"
       xlink:href="#pip_club" />
  </g>
  <g
     id="club_3"
     transform="translate(-239.99597,-1.6909403e-4)">
    <use
       transform="translate(240)"
       xlink:href="#card"
       id="use36" />
    <use
       id="u1782"
       transform="translate(120.008)"
       xlink:href="#u1410" />
    <use
       transform="translate(240)"
       xlink:href="#fr"
       id="use37" />
    <use
       id="u1784"
       transform="translate(120.008)"
       xlink:href="#u1780" />
    <use
       id="u1904"
       transform="translate(240)"
       xlink:href="#pip_club" />
    <use
       transform="translate(240)"
       xlink:href="#nump"
       id="use38" />
    <use
       transform="translate(240)"
       xlink:href="#pip_club_S"
       id="use39" />
    <use
       transform="translate(240)"
       xlink:href="#u3938"
       id="use40" />
    <use
       transform="translate(240)"
       xlink:href="#u2940"
       id="use41" />
    <use
       transform="translate(239.99597,100.00017)"
       style="fill:#332e2e"
       xlink:href="#3"
       id="use42" />
    <use
       transform="rotate(180,180.00202,39.999915)"
       style="fill:#332e2e"
       xlink:href="#3"
       id="use43" />
  </g>
  <g
     id="club_1"
     transform="translate(-239.99597,-1.6909403e-4)">
    <g
       id="card"
       transform="matrix(0.83103,0,0,0.83565,-1641.87,-580.266)">
      <rect
         id="card_face"
         x="1976.6"
         y="695.289"
         width="142.599"
         height="213.601"
         rx="9.5"
         ry="9.5"
         fill="#ffffff"
         stroke="#332e2e"
         stroke-linejoin="round"
         stroke-width="1.8" />
    </g>
    <rect
       id="fr"
       x="7"
       y="7"
       width="106"
       height="166"
       rx="3"
       ry="3"
       fill="none"
       stroke="#a68c59" />
    <use
       id="u3938"
       transform="rotate(180,60,90)"
       xlink:href="#nump" />
    <use
       id="u2940"
       transform="rotate(180,60.044,90)"
       xlink:href="#pip_club_S" />
    <path
       id="nump"
       d="m 5.004,6.004 v 33 h 14 v -33 z"
       fill="#ffffff" />
    <path
       id="pip_club"
       d="m 60,75 a 5.5,5.5 0 0 0 -3.889,9.389 c 1,1 2.889,1.81 2.889,3.81 0,1.201 -0.472,1.5 -1.3,1.5 -2.1,0 -1.723,-1.574 -3.311,-3.088 C 53.369,85.641 52.019,85 50.5,85 a 5.5,5.5 0 1 0 0,11 c 1.519,0 2.87,-0.64 3.889,-1.611 1.588,-1.514 1.21,-2.69 3.31,-2.69 0.828,0 1.301,0.1 1.301,1.1 0,7.4 -2,9.2 -4.2,10.9 L 56,105 c 0,0 1.6,-1.3 4,-1.3 2.4,0 4,1.3 4,1.3 l 1.2,-1.3 C 63,102 61,100.199 61,92.799 c 0,-1 0.473,-1.1 1.3,-1.1 2.1,0 1.723,1.176 3.311,2.69 1.02,0.97 2.37,1.611 3.889,1.611 a 5.5,5.5 0 1 0 0,-11 c -1.519,0 -2.87,0.64 -3.889,1.611 -1.588,1.514 -1.21,3.088 -3.31,3.088 -0.829,0 -1.301,-0.299 -1.301,-1.5 0,-2 1.889,-2.81 2.889,-3.81 A 5.5,5.5 0 0 0 60,75 Z"
       fill="#332e2e" />
    <use
       id="pip_club_S"
       transform="matrix(0.367,0,0,0.367,-11.04,-3.24)"
       xlink:href="#pip_club" />
  </g>
</svg>
