<?xml version="1.0" encoding="UTF-8" standalone="no"?>
<svg
   width="119.99989"
   height="179.99983"
   version="1.1"
   viewBox="0 0 119.99989 179.99983"
   preserveAspectRatio="none"
   id="svg495"
   xmlns:xlink="http://www.w3.org/1999/xlink"
   xmlns="http://www.w3.org/2000/svg"
   xmlns:svg="http://www.w3.org/2000/svg">
  <defs
     id="defs495" />
  <path
     id="3"
     d="m 15.374038,-263.48017 c 0,2.43 -1.34,4.59 -4.42,4.59 -1.9900008,0 -4.2700008,-1.14 -4.4000008,-4.37 0,-0.16 0.08,-0.24 0.24,-0.24 h 1.86 c 0.16,0 0.24,0.08 0.24,0.24 0.06,0.97 0.43,2.38 2.0600008,2.38 1.82,0 2.08,-1.72 2.08,-2.69 0,-1.7 -0.66,-2.78 -2.1,-2.78 -0.23,0 -0.53,0.13 -0.92,0.4 -0.1200008,0.06 -0.2200008,0.07 -0.3400008,-0.08 l -0.92,-1.27 c -0.11,-0.15 -0.05,-0.27 0.02,-0.34 l 3.3000008,-3.22 c 0.05,-0.05 0.02,-0.12 -0.06,-0.12 H 7.0140372 c -0.06,0 -0.24,-0.02 -0.24,-0.24 v -1.51 c 0,-0.17 0.15,-0.24 0.24,-0.24 h 7.9800008 c 0.12,0 0.24,0.12 0.24,0.24 v 1.73 c 0,0.12 -0.04,0.22 -0.12,0.3 l -2.86,2.86 c -0.05,0.05 -0.03,0.09 0.08,0.12 2.31,0.32 3.04,2.4 3.04,4.24 z" />
  <g
     id="club_1"
     transform="translate(-239.99597,-180.00017)">
    <g
       id="card"
       transform="matrix(0.83103,0,0,0.83565,-1641.87,-580.266)">
      <rect
         id="card_face"
         x="1976.6"
         y="695.289"
         width="142.599"
         height="213.601"
         rx="9.5"
         ry="9.5"
         fill="#ffffff"
         stroke="#332e2e"
         stroke-linejoin="round"
         stroke-width="1.8" />
    </g>
    <rect
       id="fr"
       x="7"
       y="7"
       width="106"
       height="166"
       rx="3"
       ry="3"
       fill="none"
       stroke="#a68c59" />
    <use
       id="u3938"
       transform="rotate(180,60,90)"
       xlink:href="#nump" />
    <path
       id="nump"
       d="m 5.004,6.004 v 33 h 14 v -33 z"
       fill="#ffffff" />
  </g>
  <g
     id="diamond_2"
     transform="translate(-239.99597,-180.00017)">
    <use
       id="u14700"
       transform="translate(120,-63)"
       xlink:href="#pip_diam" />
    <use
       id="u15110"
       transform="rotate(180,180,270)"
       xlink:href="#u14700" />
  </g>
  <g
     id="diamond_3"
     transform="translate(-239.99597,-180.00017)">
    <use
       transform="translate(240,180)"
       xlink:href="#card"
       id="use153" />
    <use
       transform="translate(240,180)"
       xlink:href="#fr"
       id="use154" />
    <use
       transform="translate(240,180)"
       xlink:href="#nump"
       id="use155" />
    <use
       id="u15200"
       transform="translate(120)"
       xlink:href="#u14700" />
    <use
       id="u15202"
       transform="translate(120)"
       xlink:href="#u15110" />
    <use
       id="u15204"
       transform="translate(240)"
       xlink:href="#pip_diam" />
    <use
       transform="translate(240)"
       xlink:href="#pip_diam_S"
       id="use156" />
    <use
       transform="translate(240,180)"
       xlink:href="#u3938"
       id="use157" />
    <use
       transform="translate(240)"
       xlink:href="#u5381"
       id="use158" />
    <use
       transform="translate(239.99597,460.00017)"
       style="fill:#f23131"
       xlink:href="#3"
       id="use159" />
    <use
       transform="rotate(180,180.00202,39.999915)"
       style="fill:#f23131"
       xlink:href="#3"
       id="use160" />
  </g>
  <g
     id="diamond_1"
     transform="translate(-239.99597,-180.00017)">
    <use
       id="u5381"
       transform="rotate(180,60.044,270.004)"
       xlink:href="#pip_diam_S" />
    <path
       id="pip_diam"
       d="m 60,254 c 3,8 8,13 16,16 -7.606,3.17 -13,8 -16,16 -3.09,-7.896 -8.213,-12.853 -16,-16 8,-3 13.298,-8.058 16,-16 z"
       fill="#f23131" />
    <use
       id="pip_diam_S"
       transform="matrix(0.375,0,0,0.375,-11.74,109.1)"
       xlink:href="#pip_diam" />
  </g>
</svg>
