<?xml version="1.0" encoding="UTF-8" standalone="no"?>
<svg
   width="119.99991"
   height="179.99983"
   version="1.1"
   viewBox="0 0 119.99991 179.99983"
   preserveAspectRatio="none"
   id="svg495"
   xmlns:xlink="http://www.w3.org/1999/xlink"
   xmlns="http://www.w3.org/2000/svg"
   xmlns:svg="http://www.w3.org/2000/svg">
  <defs
     id="defs495" />
  <path
     id="4"
     d="m 15.684064,-264.73017 c 0.12,0 0.24,0.12 0.24,0.24 v 1.64 c 0,0.09 -0.06,0.24 -0.24,0.24 h -0.84 c -0.07,0 -0.1,0.03 -0.1,0.1 v 3.41 c 0,0.09 -0.06,0.24 -0.24,0.24 h -1.84 c -0.16,0 -0.24,-0.09 -0.24,-0.24 v -3.41 c 0,-0.07 -0.03,-0.1 -0.1,-0.1 H 6.2440635 c -0.16,0 -0.24,-0.09 -0.24,-0.24 v -1.31 c 0,-0.08 0.02,-0.18 0.06,-0.31 l 3.78,-8.5 c 0.05,-0.12 0.15,-0.18 0.2800005,-0.18 h 1.96 c 0.13,0 0.27,0.07 0.18,0.29 l -3.5600005,8.01 c -0.01,0.04 -0.01,0.12 0.06,0.12 h 3.5600005 c 0.07,0 0.1,-0.03 0.1,-0.1 v -2.78 c 0,-0.18 0.15,-0.24 0.24,-0.24 h 1.84 c 0.12,0 0.24,0.12 0.24,0.24 v 2.78 c 0,0.07 0.03,0.1 0.1,0.1 z" />
  <g
     id="club_1"
     transform="translate(-359.99594,-180.00017)">
    <g
       id="card"
       transform="matrix(0.83103,0,0,0.83565,-1641.87,-580.266)">
      <rect
         id="card_face"
         x="1976.6"
         y="695.289"
         width="142.599"
         height="213.601"
         rx="9.5"
         ry="9.5"
         fill="#ffffff"
         stroke="#332e2e"
         stroke-linejoin="round"
         stroke-width="1.8" />
    </g>
    <rect
       id="fr"
       x="7"
       y="7"
       width="106"
       height="166"
       rx="3"
       ry="3"
       fill="none"
       stroke="#a68c59" />
    <use
       id="u3938"
       transform="rotate(180,60,90)"
       xlink:href="#nump" />
    <path
       id="nump"
       d="m 5.004,6.004 v 33 h 14 v -33 z"
       fill="#ffffff" />
  </g>
  <g
     id="diamond_2"
     transform="translate(-359.99594,-180.00017)">
    <use
       id="u14700"
       transform="translate(120,-63)"
       xlink:href="#pip_diam" />
    <use
       id="u15110"
       transform="rotate(180,180,270)"
       xlink:href="#u14700" />
  </g>
  <g
     id="diamond_3"
     transform="translate(-359.99594,-180.00017)">
    <use
       id="u15200"
       transform="translate(120)"
       xlink:href="#u14700" />
    <use
       id="u15202"
       transform="translate(120)"
       xlink:href="#u15110" />
  </g>
  <g
     id="diamond_4"
     transform="translate(-359.99594,-180.00017)">
    <use
       transform="translate(360,180)"
       xlink:href="#card"
       id="use161" />
    <use
       transform="translate(360,180)"
       xlink:href="#fr"
       id="use162" />
    <use
       transform="translate(360,180)"
       xlink:href="#nump"
       id="use163" />
    <use
       id="u15206"
       transform="translate(95)"
       xlink:href="#u15200" />
    <use
       id="u15208"
       transform="translate(95.02)"
       xlink:href="#u15202" />
    <use
       id="u15210"
       transform="translate(50)"
       xlink:href="#u15206" />
    <use
       id="u15212"
       transform="translate(50)"
       xlink:href="#u15208" />
    <use
       transform="translate(360)"
       xlink:href="#pip_diam_S"
       id="use164" />
    <use
       transform="translate(360,180)"
       xlink:href="#u3938"
       id="use165" />
    <use
       transform="translate(360)"
       xlink:href="#u5381"
       id="use166" />
    <use
       transform="translate(359.99594,460.00017)"
       style="fill:#f23131"
       xlink:href="#4"
       id="use167" />
    <use
       transform="rotate(180,240.00203,39.999915)"
       style="fill:#f23131"
       xlink:href="#4"
       id="use168" />
  </g>
  <g
     id="diamond_1"
     transform="translate(-359.99594,-180.00017)">
    <use
       id="u5381"
       transform="rotate(180,60.044,270.004)"
       xlink:href="#pip_diam_S" />
    <path
       id="pip_diam"
       d="m 60,254 c 3,8 8,13 16,16 -7.606,3.17 -13,8 -16,16 -3.09,-7.896 -8.213,-12.853 -16,-16 8,-3 13.298,-8.058 16,-16 z"
       fill="#f23131" />
    <use
       id="pip_diam_S"
       transform="matrix(0.375,0,0,0.375,-11.74,109.1)"
       xlink:href="#pip_diam" />
  </g>
</svg>
