<?xml version="1.0" encoding="UTF-8" standalone="no"?>
<svg
   width="119.99991"
   height="179.99982"
   version="1.1"
   viewBox="0 0 119.99991 179.99982"
   preserveAspectRatio="none"
   id="svg495"
   xmlns:xlink="http://www.w3.org/1999/xlink"
   xmlns="http://www.w3.org/2000/svg"
   xmlns:svg="http://www.w3.org/2000/svg">
  <defs
     id="defs495" />
  <path
     id="4"
     d="m 15.684064,-444.73017 c 0.12,0 0.24,0.12 0.24,0.24 v 1.64 c 0,0.09 -0.06,0.24 -0.24,0.24 h -0.84 c -0.07,0 -0.1,0.03 -0.1,0.1 v 3.41 c 0,0.09 -0.06,0.24 -0.24,0.24 h -1.84 c -0.16,0 -0.24,-0.09 -0.24,-0.24 v -3.41 c 0,-0.07 -0.03,-0.1 -0.1,-0.1 H 6.2440635 c -0.16,0 -0.24,-0.09 -0.24,-0.24 v -1.31 c 0,-0.08 0.02,-0.18 0.06,-0.31 l 3.78,-8.5 c 0.05,-0.12 0.15,-0.18 0.2800005,-0.18 h 1.96 c 0.13,0 0.27,0.07 0.18,0.29 l -3.5600005,8.01 c -0.01,0.04 -0.01,0.12 0.06,0.12 h 3.5600005 c 0.07,0 0.1,-0.03 0.1,-0.1 v -2.78 c 0,-0.18 0.15,-0.24 0.24,-0.24 h 1.84 c 0.12,0 0.24,0.12 0.24,0.24 v 2.78 c 0,0.07 0.03,0.1 0.1,0.1 z" />
  <g
     id="club_1"
     transform="translate(-359.99594,-360.00017)">
    <g
       id="card"
       transform="matrix(0.83103,0,0,0.83565,-1641.87,-580.266)">
      <rect
         id="card_face"
         x="1976.6"
         y="695.289"
         width="142.599"
         height="213.601"
         rx="9.5"
         ry="9.5"
         fill="#ffffff"
         stroke="#332e2e"
         stroke-linejoin="round"
         stroke-width="1.8" />
    </g>
    <rect
       id="fr"
       x="7"
       y="7"
       width="106"
       height="166"
       rx="3"
       ry="3"
       fill="none"
       stroke="#a68c59" />
    <use
       id="u3938"
       transform="rotate(180,60,90)"
       xlink:href="#nump" />
    <path
       id="nump"
       d="m 5.004,6.004 v 33 h 14 v -33 z"
       fill="#ffffff" />
  </g>
  <g
     id="heart_2"
     transform="translate(-359.99594,-360.00017)">
    <use
       id="u21397"
       transform="translate(120,-66.5)"
       xlink:href="#pip_heart" />
    <use
       id="u21762"
       transform="rotate(180,180,450)"
       xlink:href="#u21397" />
  </g>
  <g
     id="heart_3"
     transform="translate(-359.99594,-360.00017)">
    <use
       id="u21852"
       transform="translate(120)"
       xlink:href="#u21397" />
    <use
       id="u21854"
       transform="translate(120)"
       xlink:href="#u21762" />
  </g>
  <g
     id="heart_4"
     transform="translate(-359.99594,-360.00017)">
    <use
       transform="translate(360,360)"
       xlink:href="#card"
       id="use280" />
    <use
       transform="translate(360,360)"
       xlink:href="#fr"
       id="use281" />
    <use
       id="u21858"
       transform="translate(95)"
       xlink:href="#u21852" />
    <use
       id="u21860"
       transform="translate(95)"
       xlink:href="#u21854" />
    <use
       id="u21961"
       transform="translate(50)"
       xlink:href="#u21858" />
    <use
       id="u21963"
       transform="translate(50)"
       xlink:href="#u21860" />
    <use
       transform="translate(360,360)"
       xlink:href="#nump"
       id="use282" />
    <use
       transform="translate(360,-0.1)"
       xlink:href="#pip_heart_S"
       id="use283" />
    <use
       transform="translate(360,360)"
       xlink:href="#u3938"
       id="use284" />
    <use
       transform="translate(360)"
       xlink:href="#u9338"
       id="use285" />
    <use
       transform="translate(359.99594,820.00017)"
       style="fill:#f23131"
       xlink:href="#4"
       id="use286" />
    <use
       transform="rotate(180,240.00203,39.999911)"
       style="fill:#f23131"
       xlink:href="#4"
       id="use287" />
  </g>
  <g
     id="heart_1"
     transform="translate(-359.99594,-360.00017)">
    <use
       id="pip_heart_S"
       transform="matrix(0.386,0,0,0.37,-12.38,223)"
       xlink:href="#pip_heart" />
    <use
       id="u9338"
       transform="rotate(180,60.044,450.054)"
       xlink:href="#pip_heart_S" />
    <path
       id="pip_heart"
       d="m 53,438 c -3.866,0 -6.998,2.858 -7,7 -0.004,8 8,10 14,20 6.113,-10.188 13.904,-11.932 14,-20 -0.038,-4.142 -3.134,-7 -7,-7 -3.684,0 -5.7,2.3 -7,5 -1.3,-2.7 -3.316,-4.999 -7,-5 z"
       fill="#f23131" />
  </g>
</svg>
