<?xml version="1.0" encoding="UTF-8" standalone="no"?>
<svg
   width="119.99991"
   height="179.99985"
   version="1.1"
   viewBox="0 0 119.99991 179.99985"
   preserveAspectRatio="none"
   id="svg495"
   xmlns:xlink="http://www.w3.org/1999/xlink"
   xmlns="http://www.w3.org/2000/svg"
   xmlns:svg="http://www.w3.org/2000/svg">
  <defs
     id="defs495" />
  <path
     id="5"
     d="m 15.364065,-83.400169 c 0,3.22 -2.2,4.53 -4.42,4.53 -2.13,0 -3.57,-1.14 -4.12,-2.68 -0.11,-0.29 -0.19,-0.62 -0.26,-0.99 v -0.04 c 0,-0.15 0.08,-0.22 0.24,-0.22 h 1.9 c 0.13,0 0.22,0.07 0.26,0.22 0.01,0.08 0.05,0.2 0.1,0.36 0.28,0.82 0.9,1.37 1.86,1.37 1.67,0 2.08,-1.59 2.08,-2.54 0,-1.11 -0.34,-2.48 -2.02,-2.48 -0.81,0 -1.71,0.39 -1.94,1.11 -0.05,0.13 -0.15,0.2 -0.28,0.2 h -1.94 c -0.16,0 -0.24,-0.09 -0.24,-0.24 v -7.87 c 0,-0.18 0.15,-0.24 0.24,-0.24 h 7.78 c 0.12,0 0.24,0.12 0.24,0.24 v 1.51 c 0,0.09 -0.07,0.24 -0.24,0.24 h -5.6 c -0.07,0 -0.1,0.03 -0.1,0.1 l -0.02,3.58 c 0,0.11 0.06,0.12 0.12,0.06 0.63,-0.46 1.38,-0.69 2.26,-0.69 1.72,0 4.1,0.93 4.1,4.49 z" />
  <g
     id="club_2"
     transform="translate(-479.99593,-1.6909403e-4)">
    <use
       id="u1410"
       transform="translate(120,-63.5)"
       xlink:href="#pip_club" />
    <use
       id="u1780"
       transform="matrix(1,0,0,-1,120,243.5)"
       xlink:href="#pip_club" />
  </g>
  <g
     id="club_3"
     transform="translate(-479.99593,-1.6909403e-4)">
    <use
       id="u1782"
       transform="translate(120.008)"
       xlink:href="#u1410" />
    <use
       id="u1784"
       transform="translate(120.008)"
       xlink:href="#u1780" />
    <use
       id="u1904"
       transform="translate(240)"
       xlink:href="#pip_club" />
  </g>
  <g
     id="club_4"
     transform="translate(-479.99593,-1.6909403e-4)">
    <use
       id="u2414"
       transform="translate(95)"
       xlink:href="#u1782" />
    <use
       id="u2416"
       transform="translate(95)"
       xlink:href="#u1784" />
    <use
       id="u2538"
       transform="translate(50)"
       xlink:href="#u2414" />
    <use
       id="u2540"
       transform="translate(50)"
       xlink:href="#u2416" />
  </g>
  <g
     id="club_5"
     transform="translate(-479.99593,-1.6909403e-4)">
    <use
       transform="translate(480)"
       xlink:href="#card"
       id="use53" />
    <use
       id="u2622"
       transform="translate(120)"
       xlink:href="#u2414" />
    <use
       id="u2624"
       transform="translate(120)"
       xlink:href="#u2416" />
    <use
       id="u2626"
       transform="translate(120)"
       xlink:href="#u2538" />
    <use
       transform="translate(480)"
       xlink:href="#fr"
       id="use54" />
    <use
       id="u2628"
       transform="translate(120)"
       xlink:href="#u2540" />
    <use
       transform="translate(240)"
       xlink:href="#u1904"
       id="use55" />
    <use
       transform="translate(480)"
       xlink:href="#nump"
       id="use56" />
    <use
       transform="translate(480)"
       xlink:href="#pip_club_S"
       id="use57" />
    <use
       transform="translate(480)"
       xlink:href="#u3938"
       id="use58" />
    <use
       transform="translate(480)"
       xlink:href="#u2940"
       id="use59" />
    <use
       transform="translate(479.99593,100.00017)"
       style="fill:#332e2e"
       xlink:href="#5"
       id="use60" />
    <use
       transform="rotate(180,300.00203,39.999915)"
       style="fill:#332e2e"
       xlink:href="#5"
       id="use61" />
  </g>
  <g
     id="club_1"
     transform="translate(-479.99593,-1.6909403e-4)">
    <g
       id="card"
       transform="matrix(0.83103,0,0,0.83565,-1641.87,-580.266)">
      <rect
         id="card_face"
         x="1976.6"
         y="695.289"
         width="142.599"
         height="213.601"
         rx="9.5"
         ry="9.5"
         fill="#ffffff"
         stroke="#332e2e"
         stroke-linejoin="round"
         stroke-width="1.8" />
    </g>
    <rect
       id="fr"
       x="7"
       y="7"
       width="106"
       height="166"
       rx="3"
       ry="3"
       fill="none"
       stroke="#a68c59" />
    <use
       id="u3938"
       transform="rotate(180,60,90)"
       xlink:href="#nump" />
    <use
       id="u2940"
       transform="rotate(180,60.044,90)"
       xlink:href="#pip_club_S" />
    <path
       id="nump"
       d="m 5.004,6.004 v 33 h 14 v -33 z"
       fill="#ffffff" />
    <path
       id="pip_club"
       d="m 60,75 a 5.5,5.5 0 0 0 -3.889,9.389 c 1,1 2.889,1.81 2.889,3.81 0,1.201 -0.472,1.5 -1.3,1.5 -2.1,0 -1.723,-1.574 -3.311,-3.088 C 53.369,85.641 52.019,85 50.5,85 a 5.5,5.5 0 1 0 0,11 c 1.519,0 2.87,-0.64 3.889,-1.611 1.588,-1.514 1.21,-2.69 3.31,-2.69 0.828,0 1.301,0.1 1.301,1.1 0,7.4 -2,9.2 -4.2,10.9 L 56,105 c 0,0 1.6,-1.3 4,-1.3 2.4,0 4,1.3 4,1.3 l 1.2,-1.3 C 63,102 61,100.199 61,92.799 c 0,-1 0.473,-1.1 1.3,-1.1 2.1,0 1.723,1.176 3.311,2.69 1.02,0.97 2.37,1.611 3.889,1.611 a 5.5,5.5 0 1 0 0,-11 c -1.519,0 -2.87,0.64 -3.889,1.611 -1.588,1.514 -1.21,3.088 -3.31,3.088 -0.829,0 -1.301,-0.299 -1.301,-1.5 0,-2 1.889,-2.81 2.889,-3.81 A 5.5,5.5 0 0 0 60,75 Z"
       fill="#332e2e" />
    <use
       id="pip_club_S"
       transform="matrix(0.367,0,0,0.367,-11.04,-3.24)"
       xlink:href="#pip_club" />
  </g>
</svg>
