<?xml version="1.0" encoding="UTF-8" standalone="no"?>
<svg
   width="119.99991"
   height="179.99982"
   version="1.1"
   viewBox="0 0 119.99991 179.99982"
   preserveAspectRatio="none"
   id="svg495"
   xmlns:xlink="http://www.w3.org/1999/xlink"
   xmlns="http://www.w3.org/2000/svg"
   xmlns:svg="http://www.w3.org/2000/svg">
  <defs
     id="defs495" />
  <path
     id="5"
     d="m 15.364065,-443.40017 c 0,3.22 -2.2,4.53 -4.42,4.53 -2.13,0 -3.57,-1.14 -4.12,-2.68 -0.11,-0.29 -0.19,-0.62 -0.26,-0.99 v -0.04 c 0,-0.15 0.08,-0.22 0.24,-0.22 h 1.9 c 0.13,0 0.22,0.07 0.26,0.22 0.01,0.08 0.05,0.2 0.1,0.36 0.28,0.82 0.9,1.37 1.86,1.37 1.67,0 2.08,-1.59 2.08,-2.54 0,-1.11 -0.34,-2.48 -2.02,-2.48 -0.81,0 -1.71,0.39 -1.94,1.11 -0.05,0.13 -0.15,0.2 -0.28,0.2 h -1.94 c -0.16,0 -0.24,-0.09 -0.24,-0.24 v -7.87 c 0,-0.18 0.15,-0.24 0.24,-0.24 h 7.78 c 0.12,0 0.24,0.12 0.24,0.24 v 1.51 c 0,0.09 -0.07,0.24 -0.24,0.24 h -5.6 c -0.07,0 -0.1,0.03 -0.1,0.1 l -0.02,3.58 c 0,0.11 0.06,0.12 0.12,0.06 0.63,-0.46 1.38,-0.69 2.26,-0.69 1.72,0 4.1,0.93 4.1,4.49 z" />
  <g
     id="club_1"
     transform="translate(-479.99593,-360.00017)">
    <g
       id="card"
       transform="matrix(0.83103,0,0,0.83565,-1641.87,-580.266)">
      <rect
         id="card_face"
         x="1976.6"
         y="695.289"
         width="142.599"
         height="213.601"
         rx="9.5"
         ry="9.5"
         fill="#ffffff"
         stroke="#332e2e"
         stroke-linejoin="round"
         stroke-width="1.8" />
    </g>
    <rect
       id="fr"
       x="7"
       y="7"
       width="106"
       height="166"
       rx="3"
       ry="3"
       fill="none"
       stroke="#a68c59" />
    <use
       id="u3938"
       transform="rotate(180,60,90)"
       xlink:href="#nump" />
    <path
       id="nump"
       d="m 5.004,6.004 v 33 h 14 v -33 z"
       fill="#ffffff" />
  </g>
  <g
     id="heart_2"
     transform="translate(-479.99593,-360.00017)">
    <use
       id="u21397"
       transform="translate(120,-66.5)"
       xlink:href="#pip_heart" />
    <use
       id="u21762"
       transform="rotate(180,180,450)"
       xlink:href="#u21397" />
  </g>
  <g
     id="heart_3"
     transform="translate(-479.99593,-360.00017)">
    <use
       id="u21852"
       transform="translate(120)"
       xlink:href="#u21397" />
    <use
       id="u21854"
       transform="translate(120)"
       xlink:href="#u21762" />
    <use
       id="u21856"
       transform="translate(0,66.5)"
       xlink:href="#u21852" />
  </g>
  <g
     id="heart_4"
     transform="translate(-479.99593,-360.00017)">
    <use
       id="u21858"
       transform="translate(95)"
       xlink:href="#u21852" />
    <use
       id="u21860"
       transform="translate(95)"
       xlink:href="#u21854" />
    <use
       id="u21961"
       transform="translate(50)"
       xlink:href="#u21858" />
    <use
       id="u21963"
       transform="translate(50)"
       xlink:href="#u21860" />
  </g>
  <g
     id="heart_5"
     transform="translate(-479.99593,-360.00017)">
    <use
       transform="translate(480,360)"
       xlink:href="#card"
       id="use288" />
    <use
       transform="translate(480,360)"
       xlink:href="#fr"
       id="use289" />
    <use
       transform="translate(120)"
       xlink:href="#u21858"
       id="use290" />
    <use
       transform="translate(120)"
       xlink:href="#u21860"
       id="use291" />
    <use
       transform="translate(120)"
       xlink:href="#u21961"
       id="use292" />
    <use
       transform="translate(120)"
       xlink:href="#u21963"
       id="use293" />
    <use
       transform="translate(240)"
       xlink:href="#u21856"
       id="use294" />
    <use
       transform="translate(480,360)"
       xlink:href="#nump"
       id="use295" />
    <use
       transform="translate(480,-0.1)"
       xlink:href="#pip_heart_S"
       id="use296" />
    <use
       transform="translate(480,360)"
       xlink:href="#u3938"
       id="use297" />
    <use
       transform="translate(480)"
       xlink:href="#u9338"
       id="use298" />
    <use
       transform="translate(479.99593,820.00017)"
       style="fill:#f23131"
       xlink:href="#5"
       id="use299" />
    <use
       transform="rotate(180,300.00203,39.999911)"
       style="fill:#f23131"
       xlink:href="#5"
       id="use300" />
  </g>
  <g
     id="heart_1"
     transform="translate(-479.99593,-360.00017)">
    <use
       id="pip_heart_S"
       transform="matrix(0.386,0,0,0.37,-12.38,223)"
       xlink:href="#pip_heart" />
    <use
       id="u9338"
       transform="rotate(180,60.044,450.054)"
       xlink:href="#pip_heart_S" />
    <path
       id="pip_heart"
       d="m 53,438 c -3.866,0 -6.998,2.858 -7,7 -0.004,8 8,10 14,20 6.113,-10.188 13.904,-11.932 14,-20 -0.038,-4.142 -3.134,-7 -7,-7 -3.684,0 -5.7,2.3 -7,5 -1.3,-2.7 -3.316,-4.999 -7,-5 z"
       fill="#f23131" />
  </g>
</svg>
