<?xml version="1.0" encoding="UTF-8" standalone="no"?>
<svg
   width="119.99988"
   height="179.99985"
   version="1.1"
   viewBox="0 0 119.99988 179.99985"
   preserveAspectRatio="none"
   id="svg495"
   xmlns:xlink="http://www.w3.org/1999/xlink"
   xmlns="http://www.w3.org/2000/svg"
   xmlns:svg="http://www.w3.org/2000/svg">
  <defs
     id="defs495" />
  <path
     id="6"
     d="m 6.5640387,-83.430169 v -6.1 c 0,-2.11 1.64,-3.62 4.2799993,-3.62 2.41,0 4.18,1.34 4.18,3.52 v 0.44 c 0,0.17 -0.15,0.24 -0.24,0.24 h -1.84 c -0.12,0 -0.24,-0.12 -0.24,-0.24 v -0.14 c 0,-1.04 -0.71,-1.82 -1.86,-1.82 -1.1999993,0 -1.9599993,0.82 -1.9599993,1.9 v 2.2 c 0,0.08 0.07,0.11 0.12,0.06 0.57,-0.56 1.3499993,-0.84 2.3399993,-0.84 2.43,0 4.02,1.64 4.02,4.42 0,2.99 -1.88,4.56 -4.38,4.56 -2.2399993,0 -4.4199993,-1.3 -4.4199993,-4.58 z m 2.32,0.12 c 0,0.74 0.2,2.44 2.0599993,2.44 1.97,0 2.1,-1.99 2.1,-2.5 0,-1.29 -0.6,-2.5 -2.08,-2.5 -1.8299993,0 -2.0799993,1.65 -2.0799993,2.56 z" />
  <g
     id="club_6"
     transform="translate(-599.99596,-1.6909403e-4)">
    <use
       transform="translate(600)"
       xlink:href="#card"
       id="use20" />
    <use
       id="u3337"
       transform="translate(120)"
       xlink:href="#u2622" />
    <use
       id="u3339"
       transform="translate(120)"
       xlink:href="#u2624" />
    <use
       id="u3341"
       transform="translate(120)"
       xlink:href="#u2626" />
    <use
       id="u3343"
       transform="translate(120)"
       xlink:href="#u2628" />
    <use
       transform="translate(600)"
       xlink:href="#fr"
       id="use21" />
    <use
       id="u3345"
       transform="translate(0,63.5)"
       xlink:href="#u3337" />
    <use
       id="u3347"
       transform="translate(0,63.5)"
       xlink:href="#u3341" />
    <use
       transform="translate(600)"
       xlink:href="#nump"
       id="use22" />
    <use
       transform="translate(600)"
       xlink:href="#pip_club_S"
       id="use23" />
    <use
       transform="translate(600)"
       xlink:href="#u3938"
       id="use24" />
    <use
       transform="translate(600)"
       xlink:href="#u2940"
       id="use25" />
    <use
       transform="translate(599.99596,100.00017)"
       style="fill:#332e2e"
       xlink:href="#6"
       id="use26" />
    <use
       transform="rotate(180,360.00202,39.999915)"
       style="fill:#332e2e"
       xlink:href="#6"
       id="use27" />
  </g>
  <g
     id="club_2"
     transform="translate(-599.99596,-1.6909403e-4)">
    <use
       id="u1410"
       transform="translate(120,-63.5)"
       xlink:href="#pip_club" />
    <use
       id="u1780"
       transform="matrix(1,0,0,-1,120,243.5)"
       xlink:href="#pip_club" />
  </g>
  <g
     id="club_3"
     transform="translate(-599.99596,-1.6909403e-4)">
    <use
       id="u1782"
       transform="translate(120.008)"
       xlink:href="#u1410" />
    <use
       id="u1784"
       transform="translate(120.008)"
       xlink:href="#u1780" />
  </g>
  <g
     id="club_4"
     transform="translate(-599.99596,-1.6909403e-4)">
    <use
       id="u2414"
       transform="translate(95)"
       xlink:href="#u1782" />
    <use
       id="u2416"
       transform="translate(95)"
       xlink:href="#u1784" />
    <use
       id="u2538"
       transform="translate(50)"
       xlink:href="#u2414" />
    <use
       id="u2540"
       transform="translate(50)"
       xlink:href="#u2416" />
  </g>
  <g
     id="club_5"
     transform="translate(-599.99596,-1.6909403e-4)">
    <use
       id="u2622"
       transform="translate(120)"
       xlink:href="#u2414" />
    <use
       id="u2624"
       transform="translate(120)"
       xlink:href="#u2416" />
    <use
       id="u2626"
       transform="translate(120)"
       xlink:href="#u2538" />
    <use
       id="u2628"
       transform="translate(120)"
       xlink:href="#u2540" />
  </g>
  <g
     id="club_1"
     transform="translate(-599.99596,-1.6909403e-4)">
    <g
       id="card"
       transform="matrix(0.83103,0,0,0.83565,-1641.87,-580.266)">
      <rect
         id="card_face"
         x="1976.6"
         y="695.289"
         width="142.599"
         height="213.601"
         rx="9.5"
         ry="9.5"
         fill="#ffffff"
         stroke="#332e2e"
         stroke-linejoin="round"
         stroke-width="1.8" />
    </g>
    <rect
       id="fr"
       x="7"
       y="7"
       width="106"
       height="166"
       rx="3"
       ry="3"
       fill="none"
       stroke="#a68c59" />
    <use
       id="u3938"
       transform="rotate(180,60,90)"
       xlink:href="#nump" />
    <use
       id="u2940"
       transform="rotate(180,60.044,90)"
       xlink:href="#pip_club_S" />
    <path
       id="nump"
       d="m 5.004,6.004 v 33 h 14 v -33 z"
       fill="#ffffff" />
    <path
       id="pip_club"
       d="m 60,75 a 5.5,5.5 0 0 0 -3.889,9.389 c 1,1 2.889,1.81 2.889,3.81 0,1.201 -0.472,1.5 -1.3,1.5 -2.1,0 -1.723,-1.574 -3.311,-3.088 C 53.369,85.641 52.019,85 50.5,85 a 5.5,5.5 0 1 0 0,11 c 1.519,0 2.87,-0.64 3.889,-1.611 1.588,-1.514 1.21,-2.69 3.31,-2.69 0.828,0 1.301,0.1 1.301,1.1 0,7.4 -2,9.2 -4.2,10.9 L 56,105 c 0,0 1.6,-1.3 4,-1.3 2.4,0 4,1.3 4,1.3 l 1.2,-1.3 C 63,102 61,100.199 61,92.799 c 0,-1 0.473,-1.1 1.3,-1.1 2.1,0 1.723,1.176 3.311,2.69 1.02,0.97 2.37,1.611 3.889,1.611 a 5.5,5.5 0 1 0 0,-11 c -1.519,0 -2.87,0.64 -3.889,1.611 -1.588,1.514 -1.21,3.088 -3.31,3.088 -0.829,0 -1.301,-0.299 -1.301,-1.5 0,-2 1.889,-2.81 2.889,-3.81 A 5.5,5.5 0 0 0 60,75 Z"
       fill="#332e2e" />
    <use
       id="pip_club_S"
       transform="matrix(0.367,0,0,0.367,-11.04,-3.24)"
       xlink:href="#pip_club" />
  </g>
</svg>
