<?xml version="1.0" encoding="UTF-8" standalone="no"?>
<svg
   width="119.99988"
   height="179.99983"
   version="1.1"
   viewBox="0 0 119.99988 179.99983"
   preserveAspectRatio="none"
   id="svg495"
   xmlns:xlink="http://www.w3.org/1999/xlink"
   xmlns="http://www.w3.org/2000/svg"
   xmlns:svg="http://www.w3.org/2000/svg">
  <defs
     id="defs495" />
  <path
     id="6"
     d="m 6.5640387,-263.43017 v -6.1 c 0,-2.11 1.64,-3.62 4.2799993,-3.62 2.41,0 4.18,1.34 4.18,3.52 v 0.44 c 0,0.17 -0.15,0.24 -0.24,0.24 h -1.84 c -0.12,0 -0.24,-0.12 -0.24,-0.24 v -0.14 c 0,-1.04 -0.71,-1.82 -1.86,-1.82 -1.1999993,0 -1.9599993,0.82 -1.9599993,1.9 v 2.2 c 0,0.08 0.07,0.11 0.12,0.06 0.57,-0.56 1.3499993,-0.84 2.3399993,-0.84 2.43,0 4.02,1.64 4.02,4.42 0,2.99 -1.88,4.56 -4.38,4.56 -2.2399993,0 -4.4199993,-1.3 -4.4199993,-4.58 z m 2.32,0.12 c 0,0.74 0.2,2.44 2.0599993,2.44 1.97,0 2.1,-1.99 2.1,-2.5 0,-1.29 -0.6,-2.5 -2.08,-2.5 -1.8299993,0 -2.0799993,1.65 -2.0799993,2.56 z" />
  <g
     id="club_1"
     transform="translate(-599.99596,-180.00017)">
    <g
       id="card"
       transform="matrix(0.83103,0,0,0.83565,-1641.87,-580.266)">
      <rect
         id="card_face"
         x="1976.6"
         y="695.289"
         width="142.599"
         height="213.601"
         rx="9.5"
         ry="9.5"
         fill="#ffffff"
         stroke="#332e2e"
         stroke-linejoin="round"
         stroke-width="1.8" />
    </g>
    <rect
       id="fr"
       x="7"
       y="7"
       width="106"
       height="166"
       rx="3"
       ry="3"
       fill="none"
       stroke="#a68c59" />
    <use
       id="u3938"
       transform="rotate(180,60,90)"
       xlink:href="#nump" />
    <path
       id="nump"
       d="m 5.004,6.004 v 33 h 14 v -33 z"
       fill="#ffffff" />
  </g>
  <g
     id="diamond_6"
     transform="translate(-599.99596,-180.00017)">
    <use
       transform="translate(600,180)"
       xlink:href="#card"
       id="use137" />
    <use
       transform="translate(600,180)"
       xlink:href="#fr"
       id="use138" />
    <use
       transform="translate(600,180)"
       xlink:href="#nump"
       id="use139" />
    <use
       id="u15224"
       transform="translate(120)"
       xlink:href="#u15214" />
    <use
       id="u15226"
       transform="translate(120)"
       xlink:href="#u15216" />
    <use
       id="u15228"
       transform="translate(120)"
       xlink:href="#u15218" />
    <use
       id="u15230"
       transform="translate(120)"
       xlink:href="#u15220" />
    <use
       id="u15232"
       transform="translate(0,63)"
       xlink:href="#u15224" />
    <use
       id="u15234"
       transform="translate(0,63)"
       xlink:href="#u15228" />
    <use
       transform="translate(600)"
       xlink:href="#pip_diam_S"
       id="use140" />
    <use
       transform="translate(600,180)"
       xlink:href="#u3938"
       id="use141" />
    <use
       transform="translate(600)"
       xlink:href="#u5381"
       id="use142" />
    <use
       transform="translate(599.99596,460.00017)"
       style="fill:#f23131"
       xlink:href="#6"
       id="use143" />
    <use
       transform="rotate(180,360.00202,39.999915)"
       style="fill:#f23131"
       xlink:href="#6"
       id="use144" />
  </g>
  <g
     id="diamond_2"
     transform="translate(-599.99596,-180.00017)">
    <use
       id="u14700"
       transform="translate(120,-63)"
       xlink:href="#pip_diam" />
    <use
       id="u15110"
       transform="rotate(180,180,270)"
       xlink:href="#u14700" />
  </g>
  <g
     id="diamond_3"
     transform="translate(-599.99596,-180.00017)">
    <use
       id="u15200"
       transform="translate(120)"
       xlink:href="#u14700" />
    <use
       id="u15202"
       transform="translate(120)"
       xlink:href="#u15110" />
  </g>
  <g
     id="diamond_4"
     transform="translate(-599.99596,-180.00017)">
    <use
       id="u15206"
       transform="translate(95)"
       xlink:href="#u15200" />
    <use
       id="u15208"
       transform="translate(95.02)"
       xlink:href="#u15202" />
    <use
       id="u15210"
       transform="translate(50)"
       xlink:href="#u15206" />
    <use
       id="u15212"
       transform="translate(50)"
       xlink:href="#u15208" />
  </g>
  <g
     id="diamond_5"
     transform="translate(-599.99596,-180.00017)">
    <use
       id="u15214"
       transform="translate(120)"
       xlink:href="#u15206" />
    <use
       id="u15216"
       transform="translate(120)"
       xlink:href="#u15208" />
    <use
       id="u15218"
       transform="translate(120)"
       xlink:href="#u15210" />
    <use
       id="u15220"
       transform="translate(120)"
       xlink:href="#u15212" />
  </g>
  <g
     id="diamond_1"
     transform="translate(-599.99596,-180.00017)">
    <use
       id="u5381"
       transform="rotate(180,60.044,270.004)"
       xlink:href="#pip_diam_S" />
    <path
       id="pip_diam"
       d="m 60,254 c 3,8 8,13 16,16 -7.606,3.17 -13,8 -16,16 -3.09,-7.896 -8.213,-12.853 -16,-16 8,-3 13.298,-8.058 16,-16 z"
       fill="#f23131" />
    <use
       id="pip_diam_S"
       transform="matrix(0.375,0,0,0.375,-11.74,109.1)"
       xlink:href="#pip_diam" />
  </g>
</svg>
