<?xml version="1.0" encoding="UTF-8" standalone="no"?>
<svg
   width="119.99988"
   height="179.99985"
   version="1.1"
   viewBox="0 0 119.99988 179.99985"
   preserveAspectRatio="none"
   id="svg495"
   xmlns:xlink="http://www.w3.org/1999/xlink"
   xmlns="http://www.w3.org/2000/svg"
   xmlns:svg="http://www.w3.org/2000/svg">
  <defs
     id="defs495" />
  <path
     id="8"
     d="m 15.394042,-83.020169 c 0,2.44 -1.63,4.17 -4.4,4.17 -3.1799992,0 -4.4599992,-2.12 -4.4599992,-4.19 0,-0.43 0.09,-2.4 1.6,-3.26 0.07,-0.04 0.07,-0.09 0.02,-0.14 -0.21,-0.15 -1.42,-1.09 -1.42,-2.84 0,-2.05 1.6,-3.87 4.2599992,-3.87 2.76,0 4.2,1.89 4.2,3.87 0,0.73 -0.2,1.95 -1.42,2.82 -0.05,0.05 -0.05,0.1 0,0.14 1.08,0.62 1.62,1.9 1.62,3.3 z m -6.3599992,-6.21 c 0,0.22 0.06,2.02 1.9399992,2.02 0.73,0 1.94,-0.36 1.94,-2.04 0,-0.98 -0.75,-1.91 -1.96,-1.91 -1.3499992,0 -1.9199992,1.2 -1.9199992,1.93 z m 4.0199992,6.02 c 0,-0.58 -0.09,-2.34 -2.08,-2.34 -1.7799992,0 -2.0599992,1.45 -2.0599992,2.36 0,1.38 0.66,2.36 2.0799992,2.36 1.46,0 2.06,-1.09 2.06,-2.38 z" />
  <g
     id="club_6"
     transform="translate(-839.99596,-1.6909403e-4)">
    <use
       id="u3337"
       transform="translate(120)"
       xlink:href="#u2622" />
    <use
       id="u3339"
       transform="translate(120)"
       xlink:href="#u2624" />
    <use
       id="u3341"
       transform="translate(120)"
       xlink:href="#u2626" />
    <use
       id="u3343"
       transform="translate(120)"
       xlink:href="#u2628" />
    <use
       id="u3345"
       transform="translate(0,63.5)"
       xlink:href="#u3337" />
    <use
       id="u3347"
       transform="translate(0,63.5)"
       xlink:href="#u3341" />
  </g>
  <g
     id="club_2"
     transform="translate(-839.99596,-1.6909403e-4)">
    <use
       id="u1410"
       transform="translate(120,-63.5)"
       xlink:href="#pip_club" />
    <use
       id="u1780"
       transform="matrix(1,0,0,-1,120,243.5)"
       xlink:href="#pip_club" />
  </g>
  <g
     id="club_3"
     transform="translate(-839.99596,-1.6909403e-4)">
    <use
       id="u1782"
       transform="translate(120.008)"
       xlink:href="#u1410" />
    <use
       id="u1784"
       transform="translate(120.008)"
       xlink:href="#u1780" />
  </g>
  <g
     id="club_4"
     transform="translate(-839.99596,-1.6909403e-4)">
    <use
       id="u2414"
       transform="translate(95)"
       xlink:href="#u1782" />
    <use
       id="u2416"
       transform="translate(95)"
       xlink:href="#u1784" />
    <use
       id="u2538"
       transform="translate(50)"
       xlink:href="#u2414" />
    <use
       id="u2540"
       transform="translate(50)"
       xlink:href="#u2416" />
  </g>
  <g
     id="club_5"
     transform="translate(-839.99596,-1.6909403e-4)">
    <use
       id="u2622"
       transform="translate(120)"
       xlink:href="#u2414" />
    <use
       id="u2624"
       transform="translate(120)"
       xlink:href="#u2416" />
    <use
       id="u2626"
       transform="translate(120)"
       xlink:href="#u2538" />
    <use
       id="u2628"
       transform="translate(120)"
       xlink:href="#u2540" />
  </g>
  <g
     id="club_7"
     transform="translate(-839.99596,-1.6909403e-4)">
    <use
       id="u3961"
       transform="translate(120)"
       xlink:href="#u3337" />
    <use
       id="u3963"
       transform="translate(120)"
       xlink:href="#u3339" />
    <use
       id="u3965"
       transform="translate(120)"
       xlink:href="#u3341" />
    <use
       id="u3967"
       transform="translate(120)"
       xlink:href="#u3343" />
    <use
       id="u3969"
       transform="translate(120)"
       xlink:href="#u3345" />
    <use
       id="u3971"
       transform="translate(120)"
       xlink:href="#u3347" />
    <use
       id="u3973"
       transform="translate(25,31.75)"
       xlink:href="#u3961" />
  </g>
  <g
     id="club_8"
     transform="translate(-839.99596,-1.6909403e-4)">
    <use
       transform="translate(840)"
       xlink:href="#card"
       id="use70" />
    <use
       id="u3975"
       transform="translate(120)"
       xlink:href="#u3961" />
    <use
       id="u3977"
       transform="translate(120)"
       xlink:href="#u3963" />
    <use
       id="u3979"
       transform="translate(120)"
       xlink:href="#u3965" />
    <use
       id="u3981"
       transform="translate(120)"
       xlink:href="#u3967" />
    <use
       id="u3983"
       transform="translate(120)"
       xlink:href="#u3969" />
    <use
       transform="translate(120)"
       xlink:href="#u3971"
       id="use71" />
    <use
       transform="translate(840)"
       xlink:href="#fr"
       id="use72" />
    <use
       transform="translate(120)"
       xlink:href="#u3973"
       id="use73" />
    <use
       transform="matrix(1,0,0,-1,25,211.75)"
       xlink:href="#u3983"
       id="use74" />
    <use
       transform="translate(840)"
       xlink:href="#nump"
       id="use75" />
    <use
       transform="translate(840)"
       xlink:href="#pip_club_S"
       id="use76" />
    <use
       transform="translate(840)"
       xlink:href="#u3938"
       id="use77" />
    <use
       transform="translate(840)"
       xlink:href="#u2940"
       id="use78" />
    <use
       transform="translate(839.99596,100.00017)"
       style="fill:#332e2e"
       xlink:href="#8"
       id="use79" />
    <use
       transform="rotate(180,480.00202,39.999915)"
       style="fill:#332e2e"
       xlink:href="#8"
       id="use80" />
  </g>
  <g
     id="club_1"
     transform="translate(-839.99596,-1.6909403e-4)">
    <g
       id="card"
       transform="matrix(0.83103,0,0,0.83565,-1641.87,-580.266)">
      <rect
         id="card_face"
         x="1976.6"
         y="695.289"
         width="142.599"
         height="213.601"
         rx="9.5"
         ry="9.5"
         fill="#ffffff"
         stroke="#332e2e"
         stroke-linejoin="round"
         stroke-width="1.8" />
    </g>
    <rect
       id="fr"
       x="7"
       y="7"
       width="106"
       height="166"
       rx="3"
       ry="3"
       fill="none"
       stroke="#a68c59" />
    <use
       id="u3938"
       transform="rotate(180,60,90)"
       xlink:href="#nump" />
    <use
       id="u2940"
       transform="rotate(180,60.044,90)"
       xlink:href="#pip_club_S" />
    <path
       id="nump"
       d="m 5.004,6.004 v 33 h 14 v -33 z"
       fill="#ffffff" />
    <path
       id="pip_club"
       d="m 60,75 a 5.5,5.5 0 0 0 -3.889,9.389 c 1,1 2.889,1.81 2.889,3.81 0,1.201 -0.472,1.5 -1.3,1.5 -2.1,0 -1.723,-1.574 -3.311,-3.088 C 53.369,85.641 52.019,85 50.5,85 a 5.5,5.5 0 1 0 0,11 c 1.519,0 2.87,-0.64 3.889,-1.611 1.588,-1.514 1.21,-2.69 3.31,-2.69 0.828,0 1.301,0.1 1.301,1.1 0,7.4 -2,9.2 -4.2,10.9 L 56,105 c 0,0 1.6,-1.3 4,-1.3 2.4,0 4,1.3 4,1.3 l 1.2,-1.3 C 63,102 61,100.199 61,92.799 c 0,-1 0.473,-1.1 1.3,-1.1 2.1,0 1.723,1.176 3.311,2.69 1.02,0.97 2.37,1.611 3.889,1.611 a 5.5,5.5 0 1 0 0,-11 c -1.519,0 -2.87,0.64 -3.889,1.611 -1.588,1.514 -1.21,3.088 -3.31,3.088 -0.829,0 -1.301,-0.299 -1.301,-1.5 0,-2 1.889,-2.81 2.889,-3.81 A 5.5,5.5 0 0 0 60,75 Z"
       fill="#332e2e" />
    <use
       id="pip_club_S"
       transform="matrix(0.367,0,0,0.367,-11.04,-3.24)"
       xlink:href="#pip_club" />
  </g>
</svg>
