<?xml version="1.0" encoding="UTF-8" standalone="no"?>
<svg
   width="119.99988"
   height="179.99983"
   version="1.1"
   viewBox="0 0 119.99988 179.99983"
   preserveAspectRatio="none"
   id="svg495"
   xmlns:xlink="http://www.w3.org/1999/xlink"
   xmlns="http://www.w3.org/2000/svg"
   xmlns:svg="http://www.w3.org/2000/svg">
  <defs
     id="defs495" />
  <path
     id="8"
     d="m 15.394042,-263.02017 c 0,2.44 -1.63,4.17 -4.4,4.17 -3.1799992,0 -4.4599992,-2.12 -4.4599992,-4.19 0,-0.43 0.09,-2.4 1.6,-3.26 0.07,-0.04 0.07,-0.09 0.02,-0.14 -0.21,-0.15 -1.42,-1.09 -1.42,-2.84 0,-2.05 1.6,-3.87 4.2599992,-3.87 2.76,0 4.2,1.89 4.2,3.87 0,0.73 -0.2,1.95 -1.42,2.82 -0.05,0.05 -0.05,0.1 0,0.14 1.08,0.62 1.62,1.9 1.62,3.3 z m -6.3599992,-6.21 c 0,0.22 0.06,2.02 1.9399992,2.02 0.73,0 1.94,-0.36 1.94,-2.04 0,-0.98 -0.75,-1.91 -1.96,-1.91 -1.3499992,0 -1.9199992,1.2 -1.9199992,1.93 z m 4.0199992,6.02 c 0,-0.58 -0.09,-2.34 -2.08,-2.34 -1.7799992,0 -2.0599992,1.45 -2.0599992,2.36 0,1.38 0.66,2.36 2.0799992,2.36 1.46,0 2.06,-1.09 2.06,-2.38 z" />
  <g
     id="club_1"
     transform="translate(-839.99596,-180.00017)">
    <g
       id="card"
       transform="matrix(0.83103,0,0,0.83565,-1641.87,-580.266)">
      <rect
         id="card_face"
         x="1976.6"
         y="695.289"
         width="142.599"
         height="213.601"
         rx="9.5"
         ry="9.5"
         fill="#ffffff"
         stroke="#332e2e"
         stroke-linejoin="round"
         stroke-width="1.8" />
    </g>
    <rect
       id="fr"
       x="7"
       y="7"
       width="106"
       height="166"
       rx="3"
       ry="3"
       fill="none"
       stroke="#a68c59" />
    <use
       id="u3938"
       transform="rotate(180,60,90)"
       xlink:href="#nump" />
    <path
       id="nump"
       d="m 5.004,6.004 v 33 h 14 v -33 z"
       fill="#ffffff" />
  </g>
  <g
     id="diamond_6"
     transform="translate(-839.99596,-180.00017)">
    <use
       id="u15224"
       transform="translate(120)"
       xlink:href="#u15214" />
    <use
       id="u15226"
       transform="translate(120)"
       xlink:href="#u15216" />
    <use
       id="u15228"
       transform="translate(120)"
       xlink:href="#u15218" />
    <use
       id="u15230"
       transform="translate(120)"
       xlink:href="#u15220" />
    <use
       id="u15232"
       transform="translate(0,63)"
       xlink:href="#u15224" />
    <use
       id="u15234"
       transform="translate(0,63)"
       xlink:href="#u15228" />
  </g>
  <g
     id="diamond_2"
     transform="translate(-839.99596,-180.00017)">
    <use
       id="u14700"
       transform="translate(120,-63)"
       xlink:href="#pip_diam" />
    <use
       id="u15110"
       transform="rotate(180,180,270)"
       xlink:href="#u14700" />
  </g>
  <g
     id="diamond_3"
     transform="translate(-839.99596,-180.00017)">
    <use
       id="u15200"
       transform="translate(120)"
       xlink:href="#u14700" />
    <use
       id="u15202"
       transform="translate(120)"
       xlink:href="#u15110" />
  </g>
  <g
     id="diamond_4"
     transform="translate(-839.99596,-180.00017)">
    <use
       id="u15206"
       transform="translate(95)"
       xlink:href="#u15200" />
    <use
       id="u15208"
       transform="translate(95.02)"
       xlink:href="#u15202" />
    <use
       id="u15210"
       transform="translate(50)"
       xlink:href="#u15206" />
    <use
       id="u15212"
       transform="translate(50)"
       xlink:href="#u15208" />
  </g>
  <g
     id="diamond_5"
     transform="translate(-839.99596,-180.00017)">
    <use
       id="u15214"
       transform="translate(120)"
       xlink:href="#u15206" />
    <use
       id="u15216"
       transform="translate(120)"
       xlink:href="#u15208" />
    <use
       id="u15218"
       transform="translate(120)"
       xlink:href="#u15210" />
    <use
       id="u15220"
       transform="translate(120)"
       xlink:href="#u15212" />
  </g>
  <g
     id="diamond_7"
     transform="translate(-839.99596,-180.00017)">
    <use
       id="u15236"
       transform="translate(120)"
       xlink:href="#u15224" />
    <use
       id="u15238"
       transform="translate(120)"
       xlink:href="#u15226" />
    <use
       id="u15240"
       transform="translate(120)"
       xlink:href="#u15228" />
    <use
       id="u15242"
       transform="translate(120)"
       xlink:href="#u15230" />
    <use
       id="u15244"
       transform="translate(120)"
       xlink:href="#u15232" />
    <use
       id="u15246"
       transform="translate(120)"
       xlink:href="#u15234" />
    <use
       id="u15248"
       transform="translate(25,31.5)"
       xlink:href="#u15236" />
  </g>
  <g
     id="diamond_8"
     transform="translate(-839.99596,-180.00017)">
    <use
       transform="translate(840,180)"
       xlink:href="#card"
       id="use186" />
    <use
       transform="translate(840,180)"
       xlink:href="#fr"
       id="use187" />
    <use
       transform="translate(840,180)"
       xlink:href="#nump"
       id="use188" />
    <use
       id="u15936"
       transform="translate(120)"
       xlink:href="#u15236" />
    <use
       id="u15938"
       transform="translate(120)"
       xlink:href="#u15238" />
    <use
       id="u15940"
       transform="translate(120)"
       xlink:href="#u15240" />
    <use
       id="u15942"
       transform="translate(120)"
       xlink:href="#u15242" />
    <use
       id="u15944"
       transform="translate(120)"
       xlink:href="#u15244" />
    <use
       id="u15946"
       transform="translate(120)"
       xlink:href="#u15246" />
    <use
       id="u15948"
       transform="translate(120)"
       xlink:href="#u15248" />
    <use
       transform="translate(0,63)"
       xlink:href="#u15948"
       id="use189" />
    <use
       transform="translate(840)"
       xlink:href="#pip_diam_S"
       id="use190" />
    <use
       transform="translate(840,180)"
       xlink:href="#u3938"
       id="use191" />
    <use
       transform="translate(840)"
       xlink:href="#u5381"
       id="use192" />
    <use
       transform="translate(839.99596,460.00017)"
       style="fill:#f23131"
       xlink:href="#8"
       id="use193" />
    <use
       transform="rotate(180,480.00202,39.999915)"
       style="fill:#f23131"
       xlink:href="#8"
       id="use194" />
  </g>
  <g
     id="diamond_1"
     transform="translate(-839.99596,-180.00017)">
    <use
       id="u5381"
       transform="rotate(180,60.044,270.004)"
       xlink:href="#pip_diam_S" />
    <path
       id="pip_diam"
       d="m 60,254 c 3,8 8,13 16,16 -7.606,3.17 -13,8 -16,16 -3.09,-7.896 -8.213,-12.853 -16,-16 8,-3 13.298,-8.058 16,-16 z"
       fill="#f23131" />
    <use
       id="pip_diam_S"
       transform="matrix(0.375,0,0,0.375,-11.74,109.1)"
       xlink:href="#pip_diam" />
  </g>
</svg>
