<?xml version="1.0" encoding="UTF-8" standalone="no"?>
<svg
   width="119.99988"
   height="179.99982"
   version="1.1"
   viewBox="0 0 119.99988 179.99982"
   preserveAspectRatio="none"
   id="svg495"
   xmlns:xlink="http://www.w3.org/1999/xlink"
   xmlns="http://www.w3.org/2000/svg"
   xmlns:svg="http://www.w3.org/2000/svg">
  <defs
     id="defs495" />
  <path
     id="8"
     d="m 15.394042,-443.02017 c 0,2.44 -1.63,4.17 -4.4,4.17 -3.1799992,0 -4.4599992,-2.12 -4.4599992,-4.19 0,-0.43 0.09,-2.4 1.6,-3.26 0.07,-0.04 0.07,-0.09 0.02,-0.14 -0.21,-0.15 -1.42,-1.09 -1.42,-2.84 0,-2.05 1.6,-3.87 4.2599992,-3.87 2.76,0 4.2,1.89 4.2,3.87 0,0.73 -0.2,1.95 -1.42,2.82 -0.05,0.05 -0.05,0.1 0,0.14 1.08,0.62 1.62,1.9 1.62,3.3 z m -6.3599992,-6.21 c 0,0.22 0.06,2.02 1.9399992,2.02 0.73,0 1.94,-0.36 1.94,-2.04 0,-0.98 -0.75,-1.91 -1.96,-1.91 -1.3499992,0 -1.9199992,1.2 -1.9199992,1.93 z m 4.0199992,6.02 c 0,-0.58 -0.09,-2.34 -2.08,-2.34 -1.7799992,0 -2.0599992,1.45 -2.0599992,2.36 0,1.38 0.66,2.36 2.0799992,2.36 1.46,0 2.06,-1.09 2.06,-2.38 z" />
  <g
     id="club_1"
     transform="translate(-839.99596,-360.00017)">
    <g
       id="card"
       transform="matrix(0.83103,0,0,0.83565,-1641.87,-580.266)">
      <rect
         id="card_face"
         x="1976.6"
         y="695.289"
         width="142.599"
         height="213.601"
         rx="9.5"
         ry="9.5"
         fill="#ffffff"
         stroke="#332e2e"
         stroke-linejoin="round"
         stroke-width="1.8" />
    </g>
    <rect
       id="fr"
       x="7"
       y="7"
       width="106"
       height="166"
       rx="3"
       ry="3"
       fill="none"
       stroke="#a68c59" />
    <use
       id="u3938"
       transform="rotate(180,60,90)"
       xlink:href="#nump" />
    <path
       id="nump"
       d="m 5.004,6.004 v 33 h 14 v -33 z"
       fill="#ffffff" />
  </g>
  <g
     id="heart_6"
     transform="translate(-839.99596,-360.00017)">
    <use
       id="u21975"
       transform="translate(335.03)"
       xlink:href="#u21852" />
    <use
       id="u21977"
       transform="translate(334.97)"
       xlink:href="#u21854" />
    <use
       id="u21979"
       transform="translate(334.97)"
       xlink:href="#u21856" />
    <use
       id="u21981"
       transform="translate(49.97)"
       xlink:href="#u21975" />
    <use
       id="u21983"
       transform="translate(50.03)"
       xlink:href="#u21977" />
    <use
       id="u21985"
       transform="translate(50.03)"
       xlink:href="#u21979" />
  </g>
  <g
     id="heart_2"
     transform="translate(-839.99596,-360.00017)">
    <use
       id="u21397"
       transform="translate(120,-66.5)"
       xlink:href="#pip_heart" />
    <use
       id="u21762"
       transform="rotate(180,180,450)"
       xlink:href="#u21397" />
  </g>
  <g
     id="heart_3"
     transform="translate(-839.99596,-360.00017)">
    <use
       id="u21852"
       transform="translate(120)"
       xlink:href="#u21397" />
    <use
       id="u21854"
       transform="translate(120)"
       xlink:href="#u21762" />
    <use
       id="u21856"
       transform="translate(0,66.5)"
       xlink:href="#u21852" />
  </g>
  <g
     id="heart_7"
     transform="translate(-839.99596,-360.00017)">
    <use
       id="u21987"
       transform="translate(119.97)"
       xlink:href="#u21975" />
    <use
       id="u21989"
       transform="translate(120.03)"
       xlink:href="#u21977" />
    <use
       id="u21991"
       transform="translate(120.03)"
       xlink:href="#u21979" />
    <use
       id="u21993"
       transform="translate(120)"
       xlink:href="#u21981" />
    <use
       id="u21995"
       transform="translate(120)"
       xlink:href="#u21983" />
    <use
       id="u21997"
       transform="translate(120)"
       xlink:href="#u21985" />
    <use
       id="u21999"
       transform="translate(24.97,-33.25)"
       xlink:href="#u21991" />
  </g>
  <g
     id="heart_8"
     transform="translate(-839.99596,-360.00017)">
    <use
       transform="translate(840,360)"
       xlink:href="#card"
       id="use309" />
    <use
       transform="translate(840,360)"
       xlink:href="#fr"
       id="use310" />
    <use
       id="u22001"
       transform="translate(120)"
       xlink:href="#u21987" />
    <use
       id="u22003"
       transform="translate(120)"
       xlink:href="#u21989" />
    <use
       transform="translate(120)"
       xlink:href="#u21991"
       id="use311" />
    <use
       id="u22007"
       transform="translate(120)"
       xlink:href="#u21993" />
    <use
       id="u22009"
       transform="translate(120)"
       xlink:href="#u21995" />
    <use
       id="u22011"
       transform="translate(120)"
       xlink:href="#u21997" />
    <use
       id="u22013"
       transform="translate(120)"
       xlink:href="#u21999" />
    <use
       transform="matrix(1,0,0,-1,0,901.508)"
       xlink:href="#u22013"
       id="use312" />
    <use
       transform="translate(840,360)"
       xlink:href="#nump"
       id="use313" />
    <use
       transform="translate(840,-0.1)"
       xlink:href="#pip_heart_S"
       id="use314" />
    <use
       transform="translate(840,360)"
       xlink:href="#u3938"
       id="use315" />
    <use
       transform="translate(840)"
       xlink:href="#u9338"
       id="use316" />
    <use
       transform="translate(839.99596,820.00017)"
       style="fill:#f23131"
       xlink:href="#8"
       id="use317" />
    <use
       transform="rotate(180,480.00202,39.999911)"
       style="fill:#f23131"
       xlink:href="#8"
       id="use318" />
  </g>
  <g
     id="heart_1"
     transform="translate(-839.99596,-360.00017)">
    <use
       id="pip_heart_S"
       transform="matrix(0.386,0,0,0.37,-12.38,223)"
       xlink:href="#pip_heart" />
    <use
       id="u9338"
       transform="rotate(180,60.044,450.054)"
       xlink:href="#pip_heart_S" />
    <path
       id="pip_heart"
       d="m 53,438 c -3.866,0 -6.998,2.858 -7,7 -0.004,8 8,10 14,20 6.113,-10.188 13.904,-11.932 14,-20 -0.038,-4.142 -3.134,-7 -7,-7 -3.684,0 -5.7,2.3 -7,5 -1.3,-2.7 -3.316,-4.999 -7,-5 z"
       fill="#f23131" />
  </g>
</svg>
