<?xml version="1.0" encoding="UTF-8" standalone="no"?>
<svg
   width="119.99988"
   height="179.99982"
   version="1.1"
   viewBox="0 0 119.99988 179.99982"
   preserveAspectRatio="none"
   id="svg495"
   xmlns:xlink="http://www.w3.org/1999/xlink"
   xmlns="http://www.w3.org/2000/svg"
   xmlns:svg="http://www.w3.org/2000/svg">
  <defs
     id="defs495" />
  <path
     id="8"
     d="m 15.394042,-623.02017 c 0,2.44 -1.63,4.17 -4.4,4.17 -3.1799992,0 -4.4599992,-2.12 -4.4599992,-4.19 0,-0.43 0.09,-2.4 1.6,-3.26 0.07,-0.04 0.07,-0.09 0.02,-0.14 -0.21,-0.15 -1.42,-1.09 -1.42,-2.84 0,-2.05 1.6,-3.87 4.2599992,-3.87 2.76,0 4.2,1.89 4.2,3.87 0,0.73 -0.2,1.95 -1.42,2.82 -0.05,0.05 -0.05,0.1 0,0.14 1.08,0.62 1.62,1.9 1.62,3.3 z m -6.3599992,-6.21 c 0,0.22 0.06,2.02 1.9399992,2.02 0.73,0 1.94,-0.36 1.94,-2.04 0,-0.98 -0.75,-1.91 -1.96,-1.91 -1.3499992,0 -1.9199992,1.2 -1.9199992,1.93 z m 4.0199992,6.02 c 0,-0.58 -0.09,-2.34 -2.08,-2.34 -1.7799992,0 -2.0599992,1.45 -2.0599992,2.36 0,1.38 0.66,2.36 2.0799992,2.36 1.46,0 2.06,-1.09 2.06,-2.38 z" />
  <g
     id="club_1"
     transform="translate(-839.99596,-540.00017)">
    <g
       id="card"
       transform="matrix(0.83103,0,0,0.83565,-1641.87,-580.266)">
      <rect
         id="card_face"
         x="1976.6"
         y="695.289"
         width="142.599"
         height="213.601"
         rx="9.5"
         ry="9.5"
         fill="#ffffff"
         stroke="#332e2e"
         stroke-linejoin="round"
         stroke-width="1.8" />
    </g>
    <rect
       id="fr"
       x="7"
       y="7"
       width="106"
       height="166"
       rx="3"
       ry="3"
       fill="none"
       stroke="#a68c59" />
    <use
       id="u3938"
       transform="rotate(180,60,90)"
       xlink:href="#nump" />
    <path
       id="nump"
       d="m 5.004,6.004 v 33 h 14 v -33 z"
       fill="#ffffff" />
  </g>
  <g
     id="spade_6"
     transform="translate(-839.99596,-540.00017)">
    <use
       id="u32996"
       transform="translate(334.94)"
       xlink:href="#u32170" />
    <use
       id="u32998"
       transform="translate(334.94)"
       xlink:href="#u32172" />
    <use
       id="u33000"
       transform="translate(334.94)"
       xlink:href="#u32174" />
    <use
       id="u33002"
       transform="translate(50)"
       xlink:href="#u32996" />
    <use
       id="u33004"
       transform="translate(50)"
       xlink:href="#u32998" />
    <use
       id="u33006"
       transform="translate(50)"
       xlink:href="#u33000" />
  </g>
  <g
     id="spade_2"
     transform="translate(-839.99596,-540.00017)">
    <use
       id="u28846"
       transform="translate(120,-63.25)"
       xlink:href="#pip_spade" />
    <use
       id="u29400"
       transform="rotate(180,180.044,630)"
       xlink:href="#u28846" />
  </g>
  <g
     id="spade_3"
     transform="translate(-839.99596,-540.00017)">
    <use
       id="u32170"
       transform="translate(120)"
       xlink:href="#u28846" />
    <use
       id="u32172"
       transform="translate(120)"
       xlink:href="#u29400" />
    <use
       id="u32174"
       transform="translate(240)"
       xlink:href="#pip_spade" />
  </g>
  <g
     id="spade_7"
     transform="translate(-839.99596,-540.00017)">
    <use
       id="u33008"
       transform="translate(120)"
       xlink:href="#u32996" />
    <use
       id="u33010"
       transform="translate(120)"
       xlink:href="#u32998" />
    <use
       id="u33012"
       transform="translate(120)"
       xlink:href="#u33000" />
    <use
       id="u33014"
       transform="translate(120)"
       xlink:href="#u33002" />
    <use
       id="u33016"
       transform="translate(120)"
       xlink:href="#u33004" />
    <use
       id="u33018"
       transform="translate(120)"
       xlink:href="#u33006" />
    <use
       id="u33020"
       transform="translate(25,31.63)"
       xlink:href="#u33008" />
  </g>
  <g
     id="spade_8"
     transform="translate(-839.99596,-540.00017)">
    <use
       transform="translate(840,540)"
       xlink:href="#card"
       id="use433" />
    <use
       transform="translate(840,540)"
       xlink:href="#fr"
       id="use434" />
    <use
       transform="translate(840,540)"
       xlink:href="#nump"
       id="use435" />
    <use
       transform="translate(840,540)"
       xlink:href="#u3938"
       id="use436" />
    <use
       id="u33022"
       transform="translate(120)"
       xlink:href="#u33008" />
    <use
       id="u33024"
       transform="translate(120)"
       xlink:href="#u33010" />
    <use
       id="u33026"
       transform="translate(120)"
       xlink:href="#u33012" />
    <use
       id="u33028"
       transform="translate(120.06)"
       xlink:href="#u33014" />
    <use
       id="u33030"
       transform="translate(120)"
       xlink:href="#u33016" />
    <use
       id="u33032"
       transform="translate(120.06)"
       xlink:href="#u33018" />
    <use
       transform="translate(120)"
       xlink:href="#u33020"
       id="use437" />
    <use
       transform="translate(25,-31.63)"
       xlink:href="#u33024"
       id="use438" />
    <use
       transform="translate(840)"
       xlink:href="#pip_spade_S"
       id="use439" />
    <use
       transform="translate(840)"
       xlink:href="#u10961"
       id="use440" />
    <use
       transform="translate(839.99596,1180.0002)"
       style="fill:#332e2e"
       xlink:href="#8"
       id="use441" />
    <use
       transform="rotate(180,480.00202,39.999913)"
       style="fill:#332e2e"
       xlink:href="#8"
       id="use442" />
  </g>
  <g
     id="spade_1"
     transform="translate(-839.99596,-540.00017)">
    <use
       id="u10961"
       transform="rotate(180,60.044,630.004)"
       xlink:href="#pip_spade_S" />
    <path
       id="pip_spade"
       d="m 60,614.25 c 0,0 -2.116,3.992 -6.5,7.75 -3.5,3 -7.25,6.3 -7.25,11 0,3.59 2.298,6.75 5.75,6.75 4.035,0 6.125,-3.45 6.125,-6.1 0,-0.2 0.178,-0.35 0.375,-0.35 0.197,0 0.361,0.153 0.375,0.35 V 635 c 0,4.075 -0.443,7.143 -3.625,9.5 l 1.2,1.25 c 0,0 1.55,-1.2 3.55,-1.2 2,0 3.55,1.2 3.55,1.2 l 1.2,-1.25 c -3.182,-2.357 -3.625,-5.425 -3.625,-9.5 v -1.35 c 0.014,-0.197 0.178,-0.35 0.375,-0.35 0.197,0 0.375,0.15 0.375,0.35 0,2.65 2.09,6.1 6.125,6.1 3.452,0 5.75,-3.16 5.75,-6.75 0,-4.7 -3.75,-8 -7.25,-11 -4.384,-3.758 -6.5,-7.75 -6.5,-7.75 z"
       fill="#332e2e" />
    <use
       id="pip_spade_S"
       transform="matrix(0.4,0,0,0.4,-13.24,318.3)"
       xlink:href="#pip_spade" />
  </g>
</svg>
