<?xml version="1.0" encoding="UTF-8" standalone="no"?>
<svg
   width="119.99988"
   height="179.99985"
   version="1.1"
   viewBox="0 0 119.99988 179.99985"
   preserveAspectRatio="none"
   id="svg495"
   xmlns:xlink="http://www.w3.org/1999/xlink"
   xmlns="http://www.w3.org/2000/svg"
   xmlns:svg="http://www.w3.org/2000/svg">
  <defs
     id="defs495" />
  <path
     id="10"
     d="m 12.714047,-93.000169 c -2.22,0 -3.7400001,1.53 -3.7400001,4.23 v 5.49 c 0,2.65 1.4200001,4.28 3.7300001,4.29 2.33,0 3.77,-1.69 3.77,-4.29 v -5.49 c 0,-2.7 -1.58,-4.22 -3.77,-4.22 z m -7.0900001,0.3 c -0.12,0 -0.2,0.12 -0.2,0.23 v 12.94 c 0,0.13 0.06,0.23 0.2,0.23 h 1.51 c 0.12,0.01 0.2,-0.12 0.2,-0.23 v -12.94 c 0,-0.1 -0.09,-0.23 -0.2,-0.23 z m 7.0900001,1.65 c 1.05,0 1.86,0.76 1.86,2.2 v 5.69 c 0,1.36 -0.72,2.2 -1.86,2.2 -1.1,0 -1.83,-0.78 -1.83,-2.2 v -5.69 c 0,-1.48 0.83,-2.2 1.83,-2.2 z" />
  <g
     id="club_10"
     transform="translate(-1079.996,-1.6909403e-4)">
    <use
       transform="translate(1080)"
       xlink:href="#card"
       id="use5" />
    <use
       transform="translate(120)"
       xlink:href="#u3991"
       id="use6" />
    <use
       transform="translate(120)"
       xlink:href="#u3993"
       id="use7" />
    <use
       id="u4093"
       transform="translate(120)"
       xlink:href="#u3995" />
    <use
       transform="translate(120)"
       xlink:href="#u3997"
       id="use8" />
    <use
       id="u4097"
       transform="translate(120)"
       xlink:href="#u3999" />
    <use
       transform="translate(120)"
       xlink:href="#u4001"
       id="use9" />
    <use
       transform="translate(120)"
       xlink:href="#u4003"
       id="use10" />
    <use
       transform="translate(120)"
       xlink:href="#u4005"
       id="use11" />
    <use
       transform="translate(1080)"
       xlink:href="#fr"
       id="use12" />
    <use
       id="u4105"
       transform="translate(25,-21.167)"
       xlink:href="#u4097" />
    <use
       transform="matrix(1,0,0,-1,0,180)"
       xlink:href="#u4105"
       id="use13" />
    <use
       transform="translate(1080)"
       xlink:href="#nump"
       id="use14" />
    <use
       transform="translate(1080)"
       xlink:href="#pip_club_S"
       id="use15" />
    <use
       transform="translate(1080)"
       xlink:href="#u3938"
       id="use16" />
    <use
       transform="translate(1080)"
       xlink:href="#u2940"
       id="use17" />
    <use
       transform="translate(1079.996,100.00017)"
       style="fill:#332e2e"
       xlink:href="#10"
       id="use18" />
    <use
       transform="rotate(180,600.00202,39.999915)"
       style="fill:#332e2e"
       xlink:href="#10"
       id="use19" />
  </g>
  <g
     id="club_6"
     transform="translate(-1079.996,-1.6909403e-4)">
    <use
       id="u3337"
       transform="translate(120)"
       xlink:href="#u2622" />
    <use
       id="u3339"
       transform="translate(120)"
       xlink:href="#u2624" />
    <use
       id="u3341"
       transform="translate(120)"
       xlink:href="#u2626" />
    <use
       id="u3343"
       transform="translate(120)"
       xlink:href="#u2628" />
  </g>
  <g
     id="club_2"
     transform="translate(-1079.996,-1.6909403e-4)">
    <use
       id="u1410"
       transform="translate(120,-63.5)"
       xlink:href="#pip_club" />
    <use
       id="u1780"
       transform="matrix(1,0,0,-1,120,243.5)"
       xlink:href="#pip_club" />
  </g>
  <g
     id="club_3"
     transform="translate(-1079.996,-1.6909403e-4)">
    <use
       id="u1782"
       transform="translate(120.008)"
       xlink:href="#u1410" />
    <use
       id="u1784"
       transform="translate(120.008)"
       xlink:href="#u1780" />
  </g>
  <g
     id="club_4"
     transform="translate(-1079.996,-1.6909403e-4)">
    <use
       id="u2414"
       transform="translate(95)"
       xlink:href="#u1782" />
    <use
       id="u2416"
       transform="translate(95)"
       xlink:href="#u1784" />
    <use
       id="u2538"
       transform="translate(50)"
       xlink:href="#u2414" />
    <use
       id="u2540"
       transform="translate(50)"
       xlink:href="#u2416" />
  </g>
  <g
     id="club_5"
     transform="translate(-1079.996,-1.6909403e-4)">
    <use
       id="u2622"
       transform="translate(120)"
       xlink:href="#u2414" />
    <use
       id="u2624"
       transform="translate(120)"
       xlink:href="#u2416" />
    <use
       id="u2626"
       transform="translate(120)"
       xlink:href="#u2538" />
    <use
       id="u2628"
       transform="translate(120)"
       xlink:href="#u2540" />
  </g>
  <g
     id="club_7"
     transform="translate(-1079.996,-1.6909403e-4)">
    <use
       id="u3961"
       transform="translate(120)"
       xlink:href="#u3337" />
    <use
       id="u3963"
       transform="translate(120)"
       xlink:href="#u3339" />
    <use
       id="u3965"
       transform="translate(120)"
       xlink:href="#u3341" />
    <use
       id="u3967"
       transform="translate(120)"
       xlink:href="#u3343" />
  </g>
  <g
     id="club_8"
     transform="translate(-1079.996,-1.6909403e-4)">
    <use
       id="u3975"
       transform="translate(120)"
       xlink:href="#u3961" />
    <use
       id="u3977"
       transform="translate(120)"
       xlink:href="#u3963" />
    <use
       id="u3979"
       transform="translate(120)"
       xlink:href="#u3965" />
    <use
       id="u3981"
       transform="translate(120)"
       xlink:href="#u3967" />
  </g>
  <g
     id="club_9"
     transform="translate(-1079.996,-1.6909403e-4)">
    <use
       id="u3991"
       transform="translate(120)"
       xlink:href="#u3975" />
    <use
       id="u3993"
       transform="translate(120)"
       xlink:href="#u3977" />
    <use
       id="u3995"
       transform="translate(120)"
       xlink:href="#u3979" />
    <use
       id="u3997"
       transform="translate(120)"
       xlink:href="#u3981" />
    <use
       id="u3999"
       transform="translate(0,42.333)"
       xlink:href="#u3991" />
    <use
       id="u4001"
       transform="translate(0,42.333)"
       xlink:href="#u3995" />
    <use
       id="u4003"
       transform="matrix(1,0,0,-1,0,180)"
       xlink:href="#u3999" />
    <use
       id="u4005"
       transform="matrix(1,0,0,-1,0,180)"
       xlink:href="#u4001" />
  </g>
  <g
     id="club_1"
     transform="translate(-1079.996,-1.6909403e-4)">
    <g
       id="card"
       transform="matrix(0.83103,0,0,0.83565,-1641.87,-580.266)">
      <rect
         id="card_face"
         x="1976.6"
         y="695.289"
         width="142.599"
         height="213.601"
         rx="9.5"
         ry="9.5"
         fill="#ffffff"
         stroke="#332e2e"
         stroke-linejoin="round"
         stroke-width="1.8" />
    </g>
    <rect
       id="fr"
       x="7"
       y="7"
       width="106"
       height="166"
       rx="3"
       ry="3"
       fill="none"
       stroke="#a68c59" />
    <use
       id="u3938"
       transform="rotate(180,60,90)"
       xlink:href="#nump" />
    <use
       id="u2940"
       transform="rotate(180,60.044,90)"
       xlink:href="#pip_club_S" />
    <path
       id="nump"
       d="m 5.004,6.004 v 33 h 14 v -33 z"
       fill="#ffffff" />
    <path
       id="pip_club"
       d="m 60,75 a 5.5,5.5 0 0 0 -3.889,9.389 c 1,1 2.889,1.81 2.889,3.81 0,1.201 -0.472,1.5 -1.3,1.5 -2.1,0 -1.723,-1.574 -3.311,-3.088 C 53.369,85.641 52.019,85 50.5,85 a 5.5,5.5 0 1 0 0,11 c 1.519,0 2.87,-0.64 3.889,-1.611 1.588,-1.514 1.21,-2.69 3.31,-2.69 0.828,0 1.301,0.1 1.301,1.1 0,7.4 -2,9.2 -4.2,10.9 L 56,105 c 0,0 1.6,-1.3 4,-1.3 2.4,0 4,1.3 4,1.3 l 1.2,-1.3 C 63,102 61,100.199 61,92.799 c 0,-1 0.473,-1.1 1.3,-1.1 2.1,0 1.723,1.176 3.311,2.69 1.02,0.97 2.37,1.611 3.889,1.611 a 5.5,5.5 0 1 0 0,-11 c -1.519,0 -2.87,0.64 -3.889,1.611 -1.588,1.514 -1.21,3.088 -3.31,3.088 -0.829,0 -1.301,-0.299 -1.301,-1.5 0,-2 1.889,-2.81 2.889,-3.81 A 5.5,5.5 0 0 0 60,75 Z"
       fill="#332e2e" />
    <use
       id="pip_club_S"
       transform="matrix(0.367,0,0,0.367,-11.04,-3.24)"
       xlink:href="#pip_club" />
  </g>
</svg>
