<?xml version="1.0" encoding="UTF-8" standalone="no"?>
<svg
   width="119.99988"
   height="179.99983"
   version="1.1"
   viewBox="0 0 119.99988 179.99983"
   preserveAspectRatio="none"
   id="svg495"
   xmlns:xlink="http://www.w3.org/1999/xlink"
   xmlns="http://www.w3.org/2000/svg"
   xmlns:svg="http://www.w3.org/2000/svg">
  <defs
     id="defs495" />
  <path
     id="10"
     d="m 12.714047,-273.00017 c -2.22,0 -3.7400001,1.53 -3.7400001,4.23 v 5.49 c 0,2.65 1.4200001,4.28 3.7300001,4.29 2.33,0 3.77,-1.69 3.77,-4.29 v -5.49 c 0,-2.7 -1.58,-4.22 -3.77,-4.22 z m -7.0900001,0.3 c -0.12,0 -0.2,0.12 -0.2,0.23 v 12.94 c 0,0.13 0.06,0.23 0.2,0.23 h 1.51 c 0.12,0.01 0.2,-0.12 0.2,-0.23 v -12.94 c 0,-0.1 -0.09,-0.23 -0.2,-0.23 z m 7.0900001,1.65 c 1.05,0 1.86,0.76 1.86,2.2 v 5.69 c 0,1.36 -0.72,2.2 -1.86,2.2 -1.1,0 -1.83,-0.78 -1.83,-2.2 v -5.69 c 0,-1.48 0.83,-2.2 1.83,-2.2 z" />
  <g
     id="club_1"
     transform="translate(-1079.996,-180.00017)">
    <g
       id="card"
       transform="matrix(0.83103,0,0,0.83565,-1641.87,-580.266)">
      <rect
         id="card_face"
         x="1976.6"
         y="695.289"
         width="142.599"
         height="213.601"
         rx="9.5"
         ry="9.5"
         fill="#ffffff"
         stroke="#332e2e"
         stroke-linejoin="round"
         stroke-width="1.8" />
    </g>
    <rect
       id="fr"
       x="7"
       y="7"
       width="106"
       height="166"
       rx="3"
       ry="3"
       fill="none"
       stroke="#a68c59" />
    <use
       id="u3938"
       transform="rotate(180,60,90)"
       xlink:href="#nump" />
    <path
       id="nump"
       d="m 5.004,6.004 v 33 h 14 v -33 z"
       fill="#ffffff" />
  </g>
  <g
     id="diamond_10"
     transform="translate(-1079.996,-180.00017)">
    <use
       transform="translate(1080,180)"
       xlink:href="#card"
       id="use122" />
    <use
       transform="translate(1080,180)"
       xlink:href="#fr"
       id="use123" />
    <use
       transform="translate(1080,180)"
       xlink:href="#u3938"
       id="use124" />
    <use
       transform="translate(120)"
       xlink:href="#u16089"
       id="use125" />
    <use
       transform="translate(120)"
       xlink:href="#u16091"
       id="use126" />
    <use
       id="u16109"
       transform="translate(120)"
       xlink:href="#u16093" />
    <use
       transform="translate(120)"
       xlink:href="#u16095"
       id="use127" />
    <use
       id="u16113"
       transform="translate(120)"
       xlink:href="#u16097" />
    <use
       transform="translate(120)"
       xlink:href="#u16099"
       id="use128" />
    <use
       id="u16117"
       transform="translate(120)"
       xlink:href="#u16101" />
    <use
       transform="translate(120)"
       xlink:href="#u16103"
       id="use129" />
    <use
       transform="translate(25,21)"
       xlink:href="#u16113"
       id="use130" />
    <use
       transform="translate(25,-21)"
       xlink:href="#u16117"
       id="use131" />
    <use
       transform="translate(1080,180)"
       xlink:href="#nump"
       id="use132" />
    <use
       transform="translate(1080)"
       xlink:href="#pip_diam_S"
       id="use133" />
    <use
       transform="translate(1080)"
       xlink:href="#u5381"
       id="use134" />
    <use
       transform="translate(1079.996,460.00017)"
       style="fill:#f23131"
       xlink:href="#10"
       id="use135" />
    <use
       transform="rotate(180,600.00202,39.999915)"
       style="fill:#f23131"
       xlink:href="#10"
       id="use136" />
  </g>
  <g
     id="diamond_6"
     transform="translate(-1079.996,-180.00017)">
    <use
       id="u15224"
       transform="translate(120)"
       xlink:href="#u15214" />
    <use
       id="u15226"
       transform="translate(120)"
       xlink:href="#u15216" />
    <use
       id="u15228"
       transform="translate(120)"
       xlink:href="#u15218" />
    <use
       id="u15230"
       transform="translate(120)"
       xlink:href="#u15220" />
    <use
       id="u15232"
       transform="translate(0,63)"
       xlink:href="#u15224" />
    <use
       id="u15234"
       transform="translate(0,63)"
       xlink:href="#u15228" />
  </g>
  <g
     id="diamond_2"
     transform="translate(-1079.996,-180.00017)">
    <use
       id="u14700"
       transform="translate(120,-63)"
       xlink:href="#pip_diam" />
    <use
       id="u15110"
       transform="rotate(180,180,270)"
       xlink:href="#u14700" />
  </g>
  <g
     id="diamond_3"
     transform="translate(-1079.996,-180.00017)">
    <use
       id="u15200"
       transform="translate(120)"
       xlink:href="#u14700" />
    <use
       id="u15202"
       transform="translate(120)"
       xlink:href="#u15110" />
  </g>
  <g
     id="diamond_4"
     transform="translate(-1079.996,-180.00017)">
    <use
       id="u15206"
       transform="translate(95)"
       xlink:href="#u15200" />
    <use
       id="u15208"
       transform="translate(95.02)"
       xlink:href="#u15202" />
    <use
       id="u15210"
       transform="translate(50)"
       xlink:href="#u15206" />
    <use
       id="u15212"
       transform="translate(50)"
       xlink:href="#u15208" />
  </g>
  <g
     id="diamond_5"
     transform="translate(-1079.996,-180.00017)">
    <use
       id="u15214"
       transform="translate(120)"
       xlink:href="#u15206" />
    <use
       id="u15216"
       transform="translate(120)"
       xlink:href="#u15208" />
    <use
       id="u15218"
       transform="translate(120)"
       xlink:href="#u15210" />
    <use
       id="u15220"
       transform="translate(120)"
       xlink:href="#u15212" />
  </g>
  <g
     id="diamond_7"
     transform="translate(-1079.996,-180.00017)">
    <use
       id="u15236"
       transform="translate(120)"
       xlink:href="#u15224" />
    <use
       id="u15238"
       transform="translate(120)"
       xlink:href="#u15226" />
    <use
       id="u15240"
       transform="translate(120)"
       xlink:href="#u15228" />
    <use
       id="u15242"
       transform="translate(120)"
       xlink:href="#u15230" />
    <use
       id="u15244"
       transform="translate(120)"
       xlink:href="#u15232" />
    <use
       id="u15246"
       transform="translate(120)"
       xlink:href="#u15234" />
  </g>
  <g
     id="diamond_8"
     transform="translate(-1079.996,-180.00017)">
    <use
       id="u15936"
       transform="translate(120)"
       xlink:href="#u15236" />
    <use
       id="u15938"
       transform="translate(120)"
       xlink:href="#u15238" />
    <use
       id="u15940"
       transform="translate(120)"
       xlink:href="#u15240" />
    <use
       id="u15942"
       transform="translate(120)"
       xlink:href="#u15242" />
    <use
       id="u15944"
       transform="translate(120)"
       xlink:href="#u15244" />
    <use
       id="u15946"
       transform="translate(120)"
       xlink:href="#u15246" />
  </g>
  <g
     id="diamond_9"
     transform="translate(-1079.996,-180.00017)">
    <use
       id="u16089"
       transform="translate(120)"
       xlink:href="#u15936" />
    <use
       id="u16091"
       transform="translate(120)"
       xlink:href="#u15938" />
    <use
       id="u16093"
       transform="translate(120)"
       xlink:href="#u15940" />
    <use
       id="u16095"
       transform="translate(120)"
       xlink:href="#u15942" />
    <use
       id="u16097"
       transform="translate(120,21)"
       xlink:href="#u15944" />
    <use
       id="u16099"
       transform="translate(120,21)"
       xlink:href="#u15946" />
    <use
       id="u16101"
       transform="translate(0,42)"
       xlink:href="#u16089" />
    <use
       id="u16103"
       transform="translate(0,42)"
       xlink:href="#u16093" />
  </g>
  <g
     id="diamond_1"
     transform="translate(-1079.996,-180.00017)">
    <use
       id="u5381"
       transform="rotate(180,60.044,270.004)"
       xlink:href="#pip_diam_S" />
    <path
       id="pip_diam"
       d="m 60,254 c 3,8 8,13 16,16 -7.606,3.17 -13,8 -16,16 -3.09,-7.896 -8.213,-12.853 -16,-16 8,-3 13.298,-8.058 16,-16 z"
       fill="#f23131" />
    <use
       id="pip_diam_S"
       transform="matrix(0.375,0,0,0.375,-11.74,109.1)"
       xlink:href="#pip_diam" />
  </g>
</svg>
