<?xml version="1.0" encoding="UTF-8" standalone="no"?>
<svg
   width="119.99988"
   height="179.99982"
   version="1.1"
   viewBox="0 0 119.99988 179.99982"
   preserveAspectRatio="none"
   id="svg495"
   xmlns:xlink="http://www.w3.org/1999/xlink"
   xmlns="http://www.w3.org/2000/svg"
   xmlns:svg="http://www.w3.org/2000/svg">
  <defs
     id="defs495" />
  <path
     id="10"
     d="m 12.714047,-453.00017 c -2.22,0 -3.7400001,1.53 -3.7400001,4.23 v 5.49 c 0,2.65 1.4200001,4.28 3.7300001,4.29 2.33,0 3.77,-1.69 3.77,-4.29 v -5.49 c 0,-2.7 -1.58,-4.22 -3.77,-4.22 z m -7.0900001,0.3 c -0.12,0 -0.2,0.12 -0.2,0.23 v 12.94 c 0,0.13 0.06,0.23 0.2,0.23 h 1.51 c 0.12,0.01 0.2,-0.12 0.2,-0.23 v -12.94 c 0,-0.1 -0.09,-0.23 -0.2,-0.23 z m 7.0900001,1.65 c 1.05,0 1.86,0.76 1.86,2.2 v 5.69 c 0,1.36 -0.72,2.2 -1.86,2.2 -1.1,0 -1.83,-0.78 -1.83,-2.2 v -5.69 c 0,-1.48 0.83,-2.2 1.83,-2.2 z" />
  <g
     id="club_1"
     transform="translate(-1079.996,-360.00017)">
    <g
       id="card"
       transform="matrix(0.83103,0,0,0.83565,-1641.87,-580.266)">
      <rect
         id="card_face"
         x="1976.6"
         y="695.289"
         width="142.599"
         height="213.601"
         rx="9.5"
         ry="9.5"
         fill="#ffffff"
         stroke="#332e2e"
         stroke-linejoin="round"
         stroke-width="1.8" />
    </g>
    <rect
       id="fr"
       x="7"
       y="7"
       width="106"
       height="166"
       rx="3"
       ry="3"
       fill="none"
       stroke="#a68c59" />
    <use
       id="u3938"
       transform="rotate(180,60,90)"
       xlink:href="#nump" />
    <path
       id="nump"
       d="m 5.004,6.004 v 33 h 14 v -33 z"
       fill="#ffffff" />
  </g>
  <g
     id="heart_10"
     transform="translate(-1079.996,-360.00017)">
    <use
       transform="translate(1080,360)"
       fill="#f23131"
       stroke="#f23131"
       xlink:href="#card"
       id="use241" />
    <use
       transform="translate(1080,360)"
       xlink:href="#fr"
       id="use242" />
    <use
       id="u22972"
       transform="translate(120)"
       xlink:href="#u22788" />
    <use
       id="u22974"
       transform="translate(120)"
       xlink:href="#u22790" />
    <use
       id="u22976"
       transform="translate(120)"
       xlink:href="#u22794" />
    <use
       transform="translate(120)"
       xlink:href="#u22796"
       id="use243" />
    <use
       id="u22980"
       transform="translate(120)"
       xlink:href="#u22798" />
    <use
       transform="translate(120)"
       xlink:href="#u22804"
       id="use244" />
    <use
       transform="translate(120)"
       xlink:href="#u22806"
       id="use245" />
    <use
       transform="translate(25,21.67)"
       xlink:href="#u22972"
       id="use246" />
    <use
       transform="translate(25,-21.66)"
       xlink:href="#u22974"
       id="use247" />
    <use
       transform="translate(-50)"
       xlink:href="#u22980"
       id="use248" />
    <use
       transform="translate(1080,360)"
       xlink:href="#nump"
       id="use249" />
    <use
       transform="translate(1080,-0.1)"
       xlink:href="#pip_heart_S"
       id="use250" />
    <use
       transform="translate(1080,360)"
       xlink:href="#u3938"
       id="use251" />
    <use
       transform="translate(1080)"
       xlink:href="#u9338"
       id="use252" />
    <use
       transform="translate(1079.996,820.00017)"
       style="fill:#f23131"
       xlink:href="#10"
       id="use253" />
    <use
       transform="rotate(180,600.00202,39.999911)"
       style="fill:#f23131"
       xlink:href="#10"
       id="use254" />
  </g>
  <g
     id="heart_6"
     transform="translate(-1079.996,-360.00017)">
    <use
       id="u21975"
       transform="translate(335.03)"
       xlink:href="#u21852" />
    <use
       id="u21977"
       transform="translate(334.97)"
       xlink:href="#u21854" />
    <use
       id="u21979"
       transform="translate(334.97)"
       xlink:href="#u21856" />
    <use
       id="u21981"
       transform="translate(49.97)"
       xlink:href="#u21975" />
    <use
       id="u21983"
       transform="translate(50.03)"
       xlink:href="#u21977" />
    <use
       id="u21985"
       transform="translate(50.03)"
       xlink:href="#u21979" />
  </g>
  <g
     id="heart_2"
     transform="translate(-1079.996,-360.00017)">
    <use
       id="u21397"
       transform="translate(120,-66.5)"
       xlink:href="#pip_heart" />
    <use
       id="u21762"
       transform="rotate(180,180,450)"
       xlink:href="#u21397" />
  </g>
  <g
     id="heart_3"
     transform="translate(-1079.996,-360.00017)">
    <use
       id="u21852"
       transform="translate(120)"
       xlink:href="#u21397" />
    <use
       id="u21854"
       transform="translate(120)"
       xlink:href="#u21762" />
    <use
       id="u21856"
       transform="translate(0,66.5)"
       xlink:href="#u21852" />
  </g>
  <g
     id="heart_7"
     transform="translate(-1079.996,-360.00017)">
    <use
       id="u21987"
       transform="translate(119.97)"
       xlink:href="#u21975" />
    <use
       id="u21989"
       transform="translate(120.03)"
       xlink:href="#u21977" />
    <use
       id="u21993"
       transform="translate(120)"
       xlink:href="#u21981" />
    <use
       id="u21995"
       transform="translate(120)"
       xlink:href="#u21983" />
    <use
       id="u21997"
       transform="translate(120)"
       xlink:href="#u21985" />
  </g>
  <g
     id="heart_8"
     transform="translate(-1079.996,-360.00017)">
    <use
       id="u22001"
       transform="translate(120)"
       xlink:href="#u21987" />
    <use
       id="u22003"
       transform="translate(120)"
       xlink:href="#u21989" />
    <use
       id="u22007"
       transform="translate(120)"
       xlink:href="#u21993" />
    <use
       id="u22009"
       transform="translate(120)"
       xlink:href="#u21995" />
    <use
       id="u22011"
       transform="translate(120)"
       xlink:href="#u21997" />
  </g>
  <g
     id="heart_9"
     transform="translate(-1079.996,-360.00017)">
    <use
       id="u22788"
       transform="translate(120)"
       xlink:href="#u22001" />
    <use
       id="u22790"
       transform="translate(120)"
       xlink:href="#u22003" />
    <use
       id="u22794"
       transform="translate(120)"
       xlink:href="#u22007" />
    <use
       id="u22796"
       transform="translate(120)"
       xlink:href="#u22009" />
    <use
       id="u22798"
       transform="translate(120,-23.17)"
       xlink:href="#u22011" />
    <use
       id="u22804"
       transform="translate(0,-43.33)"
       xlink:href="#u22790" />
    <use
       id="u22806"
       transform="translate(0,-43.33)"
       xlink:href="#u22796" />
  </g>
  <g
     id="heart_1"
     transform="translate(-1079.996,-360.00017)">
    <use
       id="pip_heart_S"
       transform="matrix(0.386,0,0,0.37,-12.38,223)"
       xlink:href="#pip_heart" />
    <use
       id="u9338"
       transform="rotate(180,60.044,450.054)"
       xlink:href="#pip_heart_S" />
    <path
       id="pip_heart"
       d="m 53,438 c -3.866,0 -6.998,2.858 -7,7 -0.004,8 8,10 14,20 6.113,-10.188 13.904,-11.932 14,-20 -0.038,-4.142 -3.134,-7 -7,-7 -3.684,0 -5.7,2.3 -7,5 -1.3,-2.7 -3.316,-4.999 -7,-5 z"
       fill="#f23131" />
  </g>
</svg>
