<?xml version="1.0" encoding="UTF-8" standalone="no"?>
<svg
   width="120.00073"
   height="179.99902"
   version="1.1"
   viewBox="0 0 120.00073 179.99902"
   preserveAspectRatio="none"
   id="svg462"
   xmlns:xlink="http://www.w3.org/1999/xlink"
   xmlns="http://www.w3.org/2000/svg"
   xmlns:svg="http://www.w3.org/2000/svg">
  <defs
     id="defs462" />
  <g
     id="heart_2"
     transform="translate(-119.99922,-360.00117)">
    <use
       transform="translate(120,360)"
       xlink:href="#card"
       id="use204" />
    <use
       transform="translate(120,360)"
       xlink:href="#fr"
       id="use205" />
    <use
       id="u21397"
       transform="translate(120,-65.5)"
       xlink:href="#pip_heart" />
    <use
       id="u21762"
       transform="rotate(180,180,450)"
       xlink:href="#u21397" />
    <use
       transform="translate(120,-0.1)"
       xlink:href="#pip_heart_S"
       id="use206" />
    <use
       transform="translate(120)"
       xlink:href="#u9338"
       id="use207" />
    <use
       transform="translate(119.99922,820.00117)"
       style="fill:#ee3333;stroke:#ee3333"
       xlink:href="#2"
       id="use208" />
    <use
       transform="rotate(180,120.00039,39.999417)"
       style="fill:#ee3333;stroke:#ee3333"
       xlink:href="#2"
       id="use209" />
  </g>
  <g
     id="heart_1"
     transform="translate(-119.99922,-360.00117)">
    <use
       id="pip_heart_S"
       transform="matrix(0.386,0,0,0.37,-12.38,225)"
       xlink:href="#pip_heart" />
    <use
       id="u9338"
       transform="rotate(180,60.044,450.05)"
       xlink:href="#pip_heart_S" />
    <path
       id="pip_heart"
       d="m 53,438 c -3.87,0 -7.25,2.5 -7.25,7 0,8.5 8.25,8.5 14.25,20 6,-11.5 14.25,-11.5 14.25,-20 0,-4.5 -3.38,-7 -7.25,-7 -3.5,0 -6,2 -7,5.25 C 59,440 56.5,438 53,438 Z"
       fill="#ee3333" />
  </g>
  <path
     id="2"
     d="m 12.720776,-449.06117 c 0,-1.52 -0.8,-3.06 -2.17,-3.06 -0.7900002,0 -1.3800002,0.32 -1.7500002,0.97 0.79,0.2 1.2600002,0.85 1.2600002,1.46 0,0.76 -0.5300002,1.46 -1.5400002,1.46 -0.94,0 -1.54,-0.91 -1.54,-1.81 0,-2.08 2.02,-3.13 3.7800002,-3.13 1.94,0 4.13,1.31 4.13,4.11 0,1.02 -0.17,1.99 -1.4,3.48 -1.7,1.9 -3.9000002,3.23 -4.9400002,5.78 h 2.8600002 c 1.71,0 2.43,-0.81 3.07,-2.23 l 0.7,0.14 -0.54,4.52 h -0.7 c -0.07,-0.29 -0.14,-0.42 -0.94,-0.42 H 6.7807758 v -1.18 c 0,-3.36 4.1900002,-5.2 5.5900002,-8.21 0.23,-0.6 0.35,-1.23 0.35,-1.88 z"
     stroke-width="0.3" />
  <g
     id="club_1"
     transform="translate(-119.99922,-360.00117)">
    <g
       id="card"
       transform="matrix(0.83103,0,0,0.83565,-1641.9,-580.27)">
      <rect
         id="card_face"
         x="1976.64"
         y="695.29498"
         width="142.60001"
         height="213.60001"
         rx="9.5"
         ry="9.5"
         fill="#ffffff"
         stroke="#333333"
         stroke-linejoin="round"
         stroke-width="1.8" />
    </g>
    <g
       id="fr">
      <rect
         x="7"
         y="7"
         width="106"
         height="166"
         rx="3"
         ry="3"
         fill="none"
         style="fill:#eeeedd"
         id="rect460" />
      <path
         d="M 18.5,7 H 110 c 1.66,0 3,1.34 3,3 v 129 m -12,34 H 10 c -1.66,0 -3,-1.34 -3,-3 V 41"
         style="fill:none;stroke:#aa8855"
         id="path460" />
    </g>
  </g>
</svg>
