<?xml version="1.0" encoding="UTF-8" standalone="no"?>
<svg
   width="120.00073"
   height="179.99902"
   version="1.1"
   viewBox="0 0 120.00073 179.99902"
   preserveAspectRatio="none"
   id="svg462"
   xmlns:xlink="http://www.w3.org/1999/xlink"
   xmlns="http://www.w3.org/2000/svg"
   xmlns:svg="http://www.w3.org/2000/svg">
  <defs
     id="defs462" />
  <g
     id="spade_2"
     transform="translate(-119.99922,-540.00117)">
    <use
       transform="translate(120,540)"
       xlink:href="#card"
       id="use303" />
    <use
       transform="translate(120,540)"
       xlink:href="#fr"
       id="use304" />
    <use
       id="u28846"
       transform="translate(120,-62.75)"
       xlink:href="#pip_spade" />
    <use
       id="u29400"
       transform="rotate(180,180.04,630)"
       xlink:href="#u28846" />
    <use
       transform="translate(120)"
       xlink:href="#pip_spade_S"
       id="use305" />
    <use
       transform="translate(120)"
       xlink:href="#u10961"
       id="use306" />
    <use
       transform="translate(119.99922,1180.0012)"
       style="fill:#333333;stroke:#333333"
       xlink:href="#2"
       id="use307" />
    <use
       transform="rotate(180,120.00039,39.999415)"
       style="fill:#333333;stroke:#333333"
       xlink:href="#2"
       id="use308" />
  </g>
  <path
     id="2"
     d="m 12.720776,-629.06117 c 0,-1.52 -0.8,-3.06 -2.17,-3.06 -0.7900002,0 -1.3800002,0.32 -1.7500002,0.97 0.79,0.2 1.2600002,0.85 1.2600002,1.46 0,0.76 -0.5300002,1.46 -1.5400002,1.46 -0.94,0 -1.54,-0.91 -1.54,-1.81 0,-2.08 2.02,-3.13 3.7800002,-3.13 1.94,0 4.13,1.31 4.13,4.11 0,1.02 -0.17,1.99 -1.4,3.48 -1.7,1.9 -3.9000002,3.23 -4.9400002,5.78 h 2.8600002 c 1.71,0 2.43,-0.81 3.07,-2.23 l 0.7,0.14 -0.54,4.52 h -0.7 c -0.07,-0.29 -0.14,-0.42 -0.94,-0.42 H 6.7807758 v -1.18 c 0,-3.36 4.1900002,-5.2 5.5900002,-8.21 0.23,-0.6 0.35,-1.23 0.35,-1.88 z"
     stroke-width="0.3" />
  <g
     id="spade_1"
     transform="translate(-119.99922,-540.00117)">
    <use
       id="u10961"
       transform="rotate(180,60.044,630)"
       xlink:href="#pip_spade_S" />
    <use
       id="pip_spade_S"
       transform="matrix(0.4,0,0,0.4,-13.24,320.3)"
       xlink:href="#pip_spade" />
    <path
       id="pip_spade"
       d="M 60,614.25 C 55,624.75 46,624 46,632 c 0,4 2.5,6.75 6.5,6.75 3.5,0 5.5,-1.75 6.37,-3.5 -0.03,5.4 -0.7,7.74 -3.62,9.2 l 1.2,1.3 c 0,0 1.55,-1.25 3.55,-1.25 2,0 3.55,1.25 3.55,1.25 l 1.2,-1.3 c -2.92,-1.46 -3.59,-3.8 -3.62,-9.2 0.87,1.75 2.87,3.5 6.37,3.5 4,0 6.5,-2.75 6.5,-6.75 0,-8 -9,-7.25 -14,-17.75 z"
       style="fill:#333333" />
  </g>
  <g
     id="club_1"
     transform="translate(-119.99922,-540.00117)">
    <g
       id="card"
       transform="matrix(0.83103,0,0,0.83565,-1641.9,-580.27)">
      <rect
         id="card_face"
         x="1976.64"
         y="695.29498"
         width="142.60001"
         height="213.60001"
         rx="9.5"
         ry="9.5"
         fill="#ffffff"
         stroke="#333333"
         stroke-linejoin="round"
         stroke-width="1.8" />
    </g>
    <g
       id="fr">
      <rect
         x="7"
         y="7"
         width="106"
         height="166"
         rx="3"
         ry="3"
         fill="none"
         style="fill:#eeeedd"
         id="rect460" />
      <path
         d="M 18.5,7 H 110 c 1.66,0 3,1.34 3,3 v 129 m -12,34 H 10 c -1.66,0 -3,-1.34 -3,-3 V 41"
         style="fill:none;stroke:#aa8855"
         id="path460" />
    </g>
  </g>
</svg>
