<?xml version="1.0" encoding="UTF-8" standalone="no"?>
<svg
   width="120.00075"
   height="179.99902"
   version="1.1"
   viewBox="0 0 120.00075 179.99902"
   preserveAspectRatio="none"
   id="svg462"
   xmlns:xlink="http://www.w3.org/1999/xlink"
   xmlns="http://www.w3.org/2000/svg"
   xmlns:svg="http://www.w3.org/2000/svg">
  <defs
     id="defs462" />
  <g
     id="club_2"
     transform="translate(-239.99922,-0.00116749)">
    <use
       id="u1410"
       transform="translate(120,-62.5)"
       xlink:href="#pip_club" />
    <use
       id="u1780"
       transform="matrix(1,0,0,-1,120,242.5)"
       xlink:href="#pip_club" />
  </g>
  <g
     id="club_3"
     transform="translate(-239.99922,-0.00116749)">
    <use
       transform="translate(240)"
       xlink:href="#card"
       id="use26" />
    <use
       transform="translate(240)"
       xlink:href="#fr"
       id="use27" />
    <use
       id="u1782"
       transform="translate(120.01)"
       xlink:href="#u1410" />
    <use
       id="u1784"
       transform="translate(120.01)"
       xlink:href="#u1780" />
    <use
       id="u1904"
       transform="translate(240)"
       xlink:href="#pip_club" />
    <use
       transform="translate(240)"
       xlink:href="#pip_club_S"
       id="use28" />
    <use
       transform="translate(240)"
       xlink:href="#u2940"
       id="use29" />
    <use
       transform="translate(239.99922,100.00117)"
       style="fill:#333333;stroke:#333333"
       xlink:href="#3"
       id="use30" />
    <use
       transform="rotate(180,180.00039,39.999416)"
       style="fill:#333333;stroke:#333333"
       xlink:href="#3"
       id="use31" />
  </g>
  <path
     id="3"
     d="m 10.530783,-92.291167 c -0.8900002,0 -1.5100002,0.59 -1.7100002,0.97 0.39,0.14 1.2800002,0.7 1.2800002,1.6 0,0.75 -0.5800002,1.46 -1.5700002,1.46 -0.93,0 -1.57,-0.81 -1.57,-1.81 0,-1.83 1.57,-3.2 3.8400002,-3.2 3.08,0 3.92,2.1 3.92,3.69 0,0.94 -0.28,2.51 -1.99,3.41 0.63,0.33 2.42,1.47 2.42,3.83 0,2.52 -0.96,4.87 -4.56,4.87 -0.7100002,0 -1.3800002,-0.14 -1.9900002,-0.42 -0.84,-0.41 -1.85,-1.36 -1.85,-2.78 0,-0.94 0.71,-1.81 1.64,-1.81 0.86,0 1.57,0.67 1.57,1.46 0,0.66 -0.68,1.29 -1.35,1.53 0.38,0.65 1,0.97 1.8500002,0.97 1.61,0 2.42,-1.18 2.42,-3.55 0,-2.13 -0.69,-3.2 -2.06,-3.2 l -0.57,-0.84 c 1.48,-0.68 2.42,-2.07 2.42,-3.48 0,-2.04 -1.04,-2.71 -2.14,-2.71 z"
     stroke-width="0.2" />
  <g
     id="club_1"
     transform="translate(-239.99922,-0.00116749)">
    <g
       id="card"
       transform="matrix(0.83103,0,0,0.83565,-1641.9,-580.27)">
      <rect
         id="card_face"
         x="1976.64"
         y="695.29498"
         width="142.60001"
         height="213.60001"
         rx="9.5"
         ry="9.5"
         fill="#ffffff"
         stroke="#333333"
         stroke-linejoin="round"
         stroke-width="1.8" />
    </g>
    <g
       id="fr">
      <rect
         x="7"
         y="7"
         width="106"
         height="166"
         rx="3"
         ry="3"
         fill="none"
         style="fill:#eeeedd"
         id="rect460" />
      <path
         d="M 18.5,7 H 110 c 1.66,0 3,1.34 3,3 v 129 m -12,34 H 10 c -1.66,0 -3,-1.34 -3,-3 V 41"
         style="fill:none;stroke:#aa8855"
         id="path460" />
    </g>
    <use
       id="u2940"
       transform="rotate(180,60.044,90)"
       xlink:href="#pip_club_S" />
    <use
       id="pip_club_S"
       transform="matrix(0.367,0,0,0.367,-11.04,-1.24)"
       xlink:href="#pip_club" />
    <path
       id="pip_club"
       d="m 60,75 c -4.9,0 -7.35,5.92 -3.89,9.39 1,1 2.89,1.81 2.89,3.81 0,1.2 -0.97,2 -1.8,2 -2.76,0 -2.34,-4.7 -7.2,-4.7 -3.04,0 -5.5,2.46 -5.5,5.5 0,3.04 2.46,5.5 5.5,5.5 4.65,0 4.3,-4.3 7.2,-4.3 0.83,0 1.8,0.6 1.8,1.6 0,7.7 -2,8.2 -4.2,9.9 L 56,105 c 0,0 1.6,-1.5 4,-1.5 2.4,0 4,1.5 4,1.5 l 1.2,-1.3 C 63,102 61,101.5 61,93.8 c 0,-1 0.97,-1.6 1.8,-1.6 2.9,0 2.56,4.3 7.2,4.3 3.04,0 5.5,-2.46 5.5,-5.5 0,-3.04 -2.46,-5.5 -5.5,-5.5 -4.86,0 -4.44,4.7 -7.2,4.7 -0.83,0 -1.8,-0.8 -1.8,-2 0,-2 1.89,-2.81 2.89,-3.81 C 67.35,80.92 64.9,75 60,75 Z m 0,15.1 1,1 -1,1 -1,-1 z"
       style="fill:#333333" />
  </g>
</svg>
