<?xml version="1.0" encoding="UTF-8" standalone="no"?>
<svg
   width="120.00075"
   height="179.99901"
   version="1.1"
   viewBox="0 0 120.00075 179.99901"
   preserveAspectRatio="none"
   id="svg462"
   xmlns:xlink="http://www.w3.org/1999/xlink"
   xmlns="http://www.w3.org/2000/svg"
   xmlns:svg="http://www.w3.org/2000/svg">
  <defs
     id="defs462" />
  <g
     id="diamond_2"
     transform="translate(-239.99922,-180.00117)">
    <use
       id="u14700"
       transform="translate(120,-62.5)"
       xlink:href="#pip_diam" />
    <use
       id="u15110"
       transform="rotate(180,180,270)"
       xlink:href="#u14700" />
  </g>
  <g
     id="diamond_3"
     transform="translate(-239.99922,-180.00117)">
    <use
       transform="translate(240,180)"
       xlink:href="#card"
       id="use117" />
    <use
       transform="translate(240,180)"
       xlink:href="#fr"
       id="use118" />
    <use
       id="u15200"
       transform="translate(120)"
       xlink:href="#u14700" />
    <use
       id="u15202"
       transform="translate(120)"
       xlink:href="#u15110" />
    <use
       id="u15204"
       transform="translate(240)"
       xlink:href="#pip_diam" />
    <use
       transform="translate(240)"
       xlink:href="#pip_diam_S"
       id="use119" />
    <use
       transform="translate(240)"
       xlink:href="#u5381"
       id="use120" />
    <use
       transform="translate(239.99922,460.00117)"
       style="fill:#ee3333;stroke:#ee3333"
       xlink:href="#3"
       id="use121" />
    <use
       transform="rotate(180,180.00039,39.999414)"
       style="fill:#ee3333;stroke:#ee3333"
       xlink:href="#3"
       id="use122" />
  </g>
  <g
     id="diamond_1"
     transform="translate(-239.99922,-180.00117)">
    <use
       id="u5381"
       transform="rotate(180,60.044,270)"
       xlink:href="#pip_diam_S" />
    <path
       id="pip_diam"
       d="m 60,254 c 3,8 8,13 16,16 -7.606,3.17 -13,8 -16,16 -3.09,-7.896 -8.213,-12.853 -16,-16 8,-3 13.298,-8.058 16,-16 z"
       fill="#ee3333" />
    <use
       id="pip_diam_S"
       transform="matrix(0.375,0,0,0.375,-11.74,111.1)"
       xlink:href="#pip_diam" />
  </g>
  <path
     id="3"
     d="m 10.530783,-272.29117 c -0.8900002,0 -1.5100002,0.59 -1.7100002,0.97 0.39,0.14 1.2800002,0.7 1.2800002,1.6 0,0.75 -0.5800002,1.46 -1.5700002,1.46 -0.93,0 -1.57,-0.81 -1.57,-1.81 0,-1.83 1.57,-3.2 3.8400002,-3.2 3.08,0 3.92,2.1 3.92,3.69 0,0.94 -0.28,2.51 -1.99,3.41 0.63,0.33 2.42,1.47 2.42,3.83 0,2.52 -0.96,4.87 -4.56,4.87 -0.7100002,0 -1.3800002,-0.14 -1.9900002,-0.42 -0.84,-0.41 -1.85,-1.36 -1.85,-2.78 0,-0.94 0.71,-1.81 1.64,-1.81 0.86,0 1.57,0.67 1.57,1.46 0,0.66 -0.68,1.29 -1.35,1.53 0.38,0.65 1,0.97 1.8500002,0.97 1.61,0 2.42,-1.18 2.42,-3.55 0,-2.13 -0.69,-3.2 -2.06,-3.2 l -0.57,-0.84 c 1.48,-0.68 2.42,-2.07 2.42,-3.48 0,-2.04 -1.04,-2.71 -2.14,-2.71 z"
     stroke-width="0.2" />
  <g
     id="club_1"
     transform="translate(-239.99922,-180.00117)">
    <g
       id="card"
       transform="matrix(0.83103,0,0,0.83565,-1641.9,-580.27)">
      <rect
         id="card_face"
         x="1976.64"
         y="695.29498"
         width="142.60001"
         height="213.60001"
         rx="9.5"
         ry="9.5"
         fill="#ffffff"
         stroke="#333333"
         stroke-linejoin="round"
         stroke-width="1.8" />
    </g>
    <g
       id="fr">
      <rect
         x="7"
         y="7"
         width="106"
         height="166"
         rx="3"
         ry="3"
         fill="none"
         style="fill:#eeeedd"
         id="rect460" />
      <path
         d="M 18.5,7 H 110 c 1.66,0 3,1.34 3,3 v 129 m -12,34 H 10 c -1.66,0 -3,-1.34 -3,-3 V 41"
         style="fill:none;stroke:#aa8855"
         id="path460" />
    </g>
  </g>
</svg>
