<?xml version="1.0" encoding="UTF-8" standalone="no"?>
<svg
   width="120.00075"
   height="179.99902"
   version="1.1"
   viewBox="0 0 120.00075 179.99902"
   preserveAspectRatio="none"
   id="svg462"
   xmlns:xlink="http://www.w3.org/1999/xlink"
   xmlns="http://www.w3.org/2000/svg"
   xmlns:svg="http://www.w3.org/2000/svg">
  <defs
     id="defs462" />
  <g
     id="heart_2"
     transform="translate(-239.99922,-360.00117)">
    <use
       id="u21397"
       transform="translate(120,-65.5)"
       xlink:href="#pip_heart" />
    <use
       id="u21762"
       transform="rotate(180,180,450)"
       xlink:href="#u21397" />
  </g>
  <g
     id="heart_3"
     transform="translate(-239.99922,-360.00117)">
    <use
       transform="translate(240,360)"
       xlink:href="#card"
       id="use210" />
    <use
       transform="translate(240,360)"
       xlink:href="#fr"
       id="use211" />
    <use
       id="u21852"
       transform="translate(120)"
       xlink:href="#u21397" />
    <use
       id="u21854"
       transform="translate(120)"
       xlink:href="#u21762" />
    <use
       id="u21856"
       transform="translate(0,65.5)"
       xlink:href="#u21852" />
    <use
       transform="translate(240,-0.1)"
       xlink:href="#pip_heart_S"
       id="use212" />
    <use
       transform="translate(240)"
       xlink:href="#u9338"
       id="use213" />
    <use
       transform="translate(239.99922,820.00117)"
       style="fill:#ee3333;stroke:#ee3333"
       xlink:href="#3"
       id="use214" />
    <use
       transform="rotate(180,180.00039,39.999417)"
       style="fill:#ee3333;stroke:#ee3333"
       xlink:href="#3"
       id="use215" />
  </g>
  <g
     id="heart_1"
     transform="translate(-239.99922,-360.00117)">
    <use
       id="pip_heart_S"
       transform="matrix(0.386,0,0,0.37,-12.38,225)"
       xlink:href="#pip_heart" />
    <use
       id="u9338"
       transform="rotate(180,60.044,450.05)"
       xlink:href="#pip_heart_S" />
    <path
       id="pip_heart"
       d="m 53,438 c -3.87,0 -7.25,2.5 -7.25,7 0,8.5 8.25,8.5 14.25,20 6,-11.5 14.25,-11.5 14.25,-20 0,-4.5 -3.38,-7 -7.25,-7 -3.5,0 -6,2 -7,5.25 C 59,440 56.5,438 53,438 Z"
       fill="#ee3333" />
  </g>
  <path
     id="3"
     d="m 10.530783,-452.29117 c -0.8900002,0 -1.5100002,0.59 -1.7100002,0.97 0.39,0.14 1.2800002,0.7 1.2800002,1.6 0,0.75 -0.5800002,1.46 -1.5700002,1.46 -0.93,0 -1.57,-0.81 -1.57,-1.81 0,-1.83 1.57,-3.2 3.8400002,-3.2 3.08,0 3.92,2.1 3.92,3.69 0,0.94 -0.28,2.51 -1.99,3.41 0.63,0.33 2.42,1.47 2.42,3.83 0,2.52 -0.96,4.87 -4.56,4.87 -0.7100002,0 -1.3800002,-0.14 -1.9900002,-0.42 -0.84,-0.41 -1.85,-1.36 -1.85,-2.78 0,-0.94 0.71,-1.81 1.64,-1.81 0.86,0 1.57,0.67 1.57,1.46 0,0.66 -0.68,1.29 -1.35,1.53 0.38,0.65 1,0.97 1.8500002,0.97 1.61,0 2.42,-1.18 2.42,-3.55 0,-2.13 -0.69,-3.2 -2.06,-3.2 l -0.57,-0.84 c 1.48,-0.68 2.42,-2.07 2.42,-3.48 0,-2.04 -1.04,-2.71 -2.14,-2.71 z"
     stroke-width="0.2" />
  <g
     id="club_1"
     transform="translate(-239.99922,-360.00117)">
    <g
       id="card"
       transform="matrix(0.83103,0,0,0.83565,-1641.9,-580.27)">
      <rect
         id="card_face"
         x="1976.64"
         y="695.29498"
         width="142.60001"
         height="213.60001"
         rx="9.5"
         ry="9.5"
         fill="#ffffff"
         stroke="#333333"
         stroke-linejoin="round"
         stroke-width="1.8" />
    </g>
    <g
       id="fr">
      <rect
         x="7"
         y="7"
         width="106"
         height="166"
         rx="3"
         ry="3"
         fill="none"
         style="fill:#eeeedd"
         id="rect460" />
      <path
         d="M 18.5,7 H 110 c 1.66,0 3,1.34 3,3 v 129 m -12,34 H 10 c -1.66,0 -3,-1.34 -3,-3 V 41"
         style="fill:none;stroke:#aa8855"
         id="path460" />
    </g>
  </g>
</svg>
