<?xml version="1.0" encoding="UTF-8" standalone="no"?>
<svg
   width="120.00075"
   height="179.99902"
   version="1.1"
   viewBox="0 0 120.00075 179.99902"
   preserveAspectRatio="none"
   id="svg462"
   xmlns:xlink="http://www.w3.org/1999/xlink"
   xmlns="http://www.w3.org/2000/svg"
   xmlns:svg="http://www.w3.org/2000/svg">
  <defs
     id="defs462" />
  <g
     id="spade_2"
     transform="translate(-239.99922,-540.00117)">
    <use
       id="u28846"
       transform="translate(120,-62.75)"
       xlink:href="#pip_spade" />
    <use
       id="u29400"
       transform="rotate(180,180.04,630)"
       xlink:href="#u28846" />
  </g>
  <g
     id="spade_3"
     transform="translate(-239.99922,-540.00117)">
    <use
       transform="translate(240,540)"
       xlink:href="#card"
       id="use309" />
    <use
       transform="translate(240,540)"
       xlink:href="#fr"
       id="use310" />
    <use
       id="u32170"
       transform="translate(120)"
       xlink:href="#u28846" />
    <use
       id="u32172"
       transform="translate(120)"
       xlink:href="#u29400" />
    <use
       id="u32174"
       transform="translate(240)"
       xlink:href="#pip_spade" />
    <use
       transform="translate(240)"
       xlink:href="#pip_spade_S"
       id="use311" />
    <use
       transform="translate(240)"
       xlink:href="#u10961"
       id="use312" />
    <use
       transform="translate(239.99922,1180.0012)"
       style="fill:#333333;stroke:#333333"
       xlink:href="#3"
       id="use313" />
    <use
       transform="rotate(180,180.00039,39.999415)"
       style="fill:#333333;stroke:#333333"
       xlink:href="#3"
       id="use314" />
  </g>
  <path
     id="3"
     d="m 10.530783,-632.29117 c -0.8900002,0 -1.5100002,0.59 -1.7100002,0.97 0.39,0.14 1.2800002,0.7 1.2800002,1.6 0,0.75 -0.5800002,1.46 -1.5700002,1.46 -0.93,0 -1.57,-0.81 -1.57,-1.81 0,-1.83 1.57,-3.2 3.8400002,-3.2 3.08,0 3.92,2.1 3.92,3.69 0,0.94 -0.28,2.51 -1.99,3.41 0.63,0.33 2.42,1.47 2.42,3.83 0,2.52 -0.96,4.87 -4.56,4.87 -0.7100002,0 -1.3800002,-0.14 -1.9900002,-0.42 -0.84,-0.41 -1.85,-1.36 -1.85,-2.78 0,-0.94 0.71,-1.81 1.64,-1.81 0.86,0 1.57,0.67 1.57,1.46 0,0.66 -0.68,1.29 -1.35,1.53 0.38,0.65 1,0.97 1.8500002,0.97 1.61,0 2.42,-1.18 2.42,-3.55 0,-2.13 -0.69,-3.2 -2.06,-3.2 l -0.57,-0.84 c 1.48,-0.68 2.42,-2.07 2.42,-3.48 0,-2.04 -1.04,-2.71 -2.14,-2.71 z"
     stroke-width="0.2" />
  <g
     id="spade_1"
     transform="translate(-239.99922,-540.00117)">
    <use
       id="u10961"
       transform="rotate(180,60.044,630)"
       xlink:href="#pip_spade_S" />
    <use
       id="pip_spade_S"
       transform="matrix(0.4,0,0,0.4,-13.24,320.3)"
       xlink:href="#pip_spade" />
    <path
       id="pip_spade"
       d="M 60,614.25 C 55,624.75 46,624 46,632 c 0,4 2.5,6.75 6.5,6.75 3.5,0 5.5,-1.75 6.37,-3.5 -0.03,5.4 -0.7,7.74 -3.62,9.2 l 1.2,1.3 c 0,0 1.55,-1.25 3.55,-1.25 2,0 3.55,1.25 3.55,1.25 l 1.2,-1.3 c -2.92,-1.46 -3.59,-3.8 -3.62,-9.2 0.87,1.75 2.87,3.5 6.37,3.5 4,0 6.5,-2.75 6.5,-6.75 0,-8 -9,-7.25 -14,-17.75 z"
       style="fill:#333333" />
  </g>
  <g
     id="club_1"
     transform="translate(-239.99922,-540.00117)">
    <g
       id="card"
       transform="matrix(0.83103,0,0,0.83565,-1641.9,-580.27)">
      <rect
         id="card_face"
         x="1976.64"
         y="695.29498"
         width="142.60001"
         height="213.60001"
         rx="9.5"
         ry="9.5"
         fill="#ffffff"
         stroke="#333333"
         stroke-linejoin="round"
         stroke-width="1.8" />
    </g>
    <g
       id="fr">
      <rect
         x="7"
         y="7"
         width="106"
         height="166"
         rx="3"
         ry="3"
         fill="none"
         style="fill:#eeeedd"
         id="rect460" />
      <path
         d="M 18.5,7 H 110 c 1.66,0 3,1.34 3,3 v 129 m -12,34 H 10 c -1.66,0 -3,-1.34 -3,-3 V 41"
         style="fill:none;stroke:#aa8855"
         id="path460" />
    </g>
  </g>
</svg>
