<?xml version="1.0" encoding="UTF-8" standalone="no"?>
<svg
   width="120.00073"
   height="179.99902"
   version="1.1"
   viewBox="0 0 120.00073 179.99902"
   preserveAspectRatio="none"
   id="svg462"
   xmlns:xlink="http://www.w3.org/1999/xlink"
   xmlns="http://www.w3.org/2000/svg"
   xmlns:svg="http://www.w3.org/2000/svg">
  <defs
     id="defs462" />
  <g
     id="heart_2"
     transform="translate(-359.99925,-360.00117)">
    <use
       id="u21397"
       transform="translate(120,-65.5)"
       xlink:href="#pip_heart" />
    <use
       id="u21762"
       transform="rotate(180,180,450)"
       xlink:href="#u21397" />
  </g>
  <g
     id="heart_3"
     transform="translate(-359.99925,-360.00117)">
    <use
       id="u21852"
       transform="translate(120)"
       xlink:href="#u21397" />
    <use
       id="u21854"
       transform="translate(120)"
       xlink:href="#u21762" />
  </g>
  <g
     id="heart_4"
     transform="translate(-359.99925,-360.00117)">
    <use
       transform="translate(360,360)"
       xlink:href="#card"
       id="use216" />
    <use
       transform="translate(360,360)"
       xlink:href="#fr"
       id="use217" />
    <use
       id="u21858"
       transform="translate(95)"
       xlink:href="#u21852" />
    <use
       id="u21860"
       transform="translate(95)"
       xlink:href="#u21854" />
    <use
       id="u21961"
       transform="translate(50)"
       xlink:href="#u21858" />
    <use
       id="u21963"
       transform="translate(50)"
       xlink:href="#u21860" />
    <use
       transform="translate(360,-0.1)"
       xlink:href="#pip_heart_S"
       id="use218" />
    <use
       transform="translate(360)"
       xlink:href="#u9338"
       id="use219" />
    <use
       transform="translate(359.99925,820.00117)"
       style="fill:#ee3333;stroke:#ee3333"
       xlink:href="#4"
       id="use220" />
    <use
       transform="rotate(180,240.00038,39.999417)"
       style="fill:#ee3333;stroke:#ee3333"
       xlink:href="#4"
       id="use221" />
  </g>
  <g
     id="heart_1"
     transform="translate(-359.99925,-360.00117)">
    <use
       id="pip_heart_S"
       transform="matrix(0.386,0,0,0.37,-12.38,225)"
       xlink:href="#pip_heart" />
    <use
       id="u9338"
       transform="rotate(180,60.044,450.05)"
       xlink:href="#pip_heart_S" />
    <path
       id="pip_heart"
       d="m 53,438 c -3.87,0 -7.25,2.5 -7.25,7 0,8.5 8.25,8.5 14.25,20 6,-11.5 14.25,-11.5 14.25,-20 0,-4.5 -3.38,-7 -7.25,-7 -3.5,0 -6,2 -7,5.25 C 59,440 56.5,438 53,438 Z"
       fill="#ee3333" />
  </g>
  <path
     id="4"
     d="m 8.2507556,-451.90117 c -0.06,4.46 -1.28,7.58 -2.34,10.85 2.16,-0.46 3.12,-0.63 4.9200004,-0.64 v 2.52 c 0,1.04 -0.8700004,1.12 -1.5100004,1.12 v 0.7 h 4.9600004 v -0.7 c -0.88,-0.07 -1.58,-0.15 -1.58,-1.12 v -2.52 c 1.13,0 1.8,-0.11 2.96,-0.56 l -0.77,-1.1 c -0.62,0.32 -1.38,0.39 -2.11,0.37 v -5.38 l -1.94,2.42 v 2.96 c -1.2800004,0.06 -1.8200004,0.08 -3.0500004,0.46 0.97,-2.79 2.5300004,-5.29 2.6400004,-9.38 0.01,-0.41 -0.13,-1.25 -1.0400004,-1.25 -0.91,0 -1.13,0.77 -1.13,1.25 z"
     stroke-width="0.25" />
  <g
     id="club_1"
     transform="translate(-359.99925,-360.00117)">
    <g
       id="card"
       transform="matrix(0.83103,0,0,0.83565,-1641.9,-580.27)">
      <rect
         id="card_face"
         x="1976.64"
         y="695.29498"
         width="142.60001"
         height="213.60001"
         rx="9.5"
         ry="9.5"
         fill="#ffffff"
         stroke="#333333"
         stroke-linejoin="round"
         stroke-width="1.8" />
    </g>
    <g
       id="fr">
      <rect
         x="7"
         y="7"
         width="106"
         height="166"
         rx="3"
         ry="3"
         fill="none"
         style="fill:#eeeedd"
         id="rect460" />
      <path
         d="M 18.5,7 H 110 c 1.66,0 3,1.34 3,3 v 129 m -12,34 H 10 c -1.66,0 -3,-1.34 -3,-3 V 41"
         style="fill:none;stroke:#aa8855"
         id="path460" />
    </g>
  </g>
</svg>
