<?xml version="1.0" encoding="UTF-8" standalone="no"?>
<svg
   width="120.00073"
   height="179.99902"
   version="1.1"
   viewBox="0 0 120.00073 179.99902"
   preserveAspectRatio="none"
   id="svg462"
   xmlns:xlink="http://www.w3.org/1999/xlink"
   xmlns="http://www.w3.org/2000/svg"
   xmlns:svg="http://www.w3.org/2000/svg">
  <defs
     id="defs462" />
  <g
     id="spade_2"
     transform="translate(-359.99925,-540.00117)">
    <use
       id="u28846"
       transform="translate(120,-62.75)"
       xlink:href="#pip_spade" />
    <use
       id="u29400"
       transform="rotate(180,180.04,630)"
       xlink:href="#u28846" />
  </g>
  <g
     id="spade_4"
     transform="translate(-359.99925,-540.00117)">
    <use
       transform="translate(360,540)"
       xlink:href="#card"
       id="use315" />
    <use
       transform="translate(360,540)"
       xlink:href="#fr"
       id="use316" />
    <use
       id="u32978"
       transform="translate(214.94)"
       xlink:href="#u28846" />
    <use
       id="u32980"
       transform="translate(214.94)"
       xlink:href="#u29400" />
    <use
       id="u32982"
       transform="translate(50)"
       xlink:href="#u32978" />
    <use
       id="u32984"
       transform="translate(50)"
       xlink:href="#u32980" />
    <use
       transform="translate(360)"
       xlink:href="#pip_spade_S"
       id="use317" />
    <use
       transform="translate(360)"
       xlink:href="#u10961"
       id="use318" />
    <use
       transform="translate(359.99925,1180.0012)"
       style="fill:#333333;stroke:#333333"
       xlink:href="#4"
       id="use319" />
    <use
       transform="rotate(180,240.00038,39.999415)"
       style="fill:#333333;stroke:#333333"
       xlink:href="#4"
       id="use320" />
  </g>
  <path
     id="4"
     d="m 8.2507556,-631.90117 c -0.06,4.46 -1.28,7.58 -2.34,10.85 2.16,-0.46 3.12,-0.63 4.9200004,-0.64 v 2.52 c 0,1.04 -0.8700004,1.12 -1.5100004,1.12 v 0.7 h 4.9600004 v -0.7 c -0.88,-0.07 -1.58,-0.15 -1.58,-1.12 v -2.52 c 1.13,0 1.8,-0.11 2.96,-0.56 l -0.77,-1.1 c -0.62,0.32 -1.38,0.39 -2.11,0.37 v -5.38 l -1.94,2.42 v 2.96 c -1.2800004,0.06 -1.8200004,0.08 -3.0500004,0.46 0.97,-2.79 2.5300004,-5.29 2.6400004,-9.38 0.01,-0.41 -0.13,-1.25 -1.0400004,-1.25 -0.91,0 -1.13,0.77 -1.13,1.25 z"
     stroke-width="0.25" />
  <g
     id="spade_1"
     transform="translate(-359.99925,-540.00117)">
    <use
       id="u10961"
       transform="rotate(180,60.044,630)"
       xlink:href="#pip_spade_S" />
    <use
       id="pip_spade_S"
       transform="matrix(0.4,0,0,0.4,-13.24,320.3)"
       xlink:href="#pip_spade" />
    <path
       id="pip_spade"
       d="M 60,614.25 C 55,624.75 46,624 46,632 c 0,4 2.5,6.75 6.5,6.75 3.5,0 5.5,-1.75 6.37,-3.5 -0.03,5.4 -0.7,7.74 -3.62,9.2 l 1.2,1.3 c 0,0 1.55,-1.25 3.55,-1.25 2,0 3.55,1.25 3.55,1.25 l 1.2,-1.3 c -2.92,-1.46 -3.59,-3.8 -3.62,-9.2 0.87,1.75 2.87,3.5 6.37,3.5 4,0 6.5,-2.75 6.5,-6.75 0,-8 -9,-7.25 -14,-17.75 z"
       style="fill:#333333" />
  </g>
  <g
     id="club_1"
     transform="translate(-359.99925,-540.00117)">
    <g
       id="card"
       transform="matrix(0.83103,0,0,0.83565,-1641.9,-580.27)">
      <rect
         id="card_face"
         x="1976.64"
         y="695.29498"
         width="142.60001"
         height="213.60001"
         rx="9.5"
         ry="9.5"
         fill="#ffffff"
         stroke="#333333"
         stroke-linejoin="round"
         stroke-width="1.8" />
    </g>
    <g
       id="fr">
      <rect
         x="7"
         y="7"
         width="106"
         height="166"
         rx="3"
         ry="3"
         fill="none"
         style="fill:#eeeedd"
         id="rect460" />
      <path
         d="M 18.5,7 H 110 c 1.66,0 3,1.34 3,3 v 129 m -12,34 H 10 c -1.66,0 -3,-1.34 -3,-3 V 41"
         style="fill:none;stroke:#aa8855"
         id="path460" />
    </g>
  </g>
</svg>
