<?xml version="1.0" encoding="UTF-8" standalone="no"?>
<svg
   width="120.0007"
   height="179.99902"
   version="1.1"
   viewBox="0 0 120.0007 179.99902"
   preserveAspectRatio="none"
   id="svg462"
   xmlns:xlink="http://www.w3.org/1999/xlink"
   xmlns="http://www.w3.org/2000/svg"
   xmlns:svg="http://www.w3.org/2000/svg">
  <defs
     id="defs462" />
  <g
     id="club_2"
     transform="translate(-479.99925,-0.00116749)">
    <use
       id="u1410"
       transform="translate(120,-62.5)"
       xlink:href="#pip_club" />
    <use
       id="u1780"
       transform="matrix(1,0,0,-1,120,242.5)"
       xlink:href="#pip_club" />
  </g>
  <g
     id="club_3"
     transform="translate(-479.99925,-0.00116749)">
    <use
       id="u1782"
       transform="translate(120.01)"
       xlink:href="#u1410" />
    <use
       id="u1784"
       transform="translate(120.01)"
       xlink:href="#u1780" />
    <use
       id="u1904"
       transform="translate(240)"
       xlink:href="#pip_club" />
  </g>
  <g
     id="club_4"
     transform="translate(-479.99925,-0.00116749)">
    <use
       id="u2414"
       transform="translate(95)"
       xlink:href="#u1782" />
    <use
       id="u2416"
       transform="translate(95)"
       xlink:href="#u1784" />
    <use
       id="u2538"
       transform="translate(50)"
       xlink:href="#u2414" />
    <use
       id="u2540"
       transform="translate(50)"
       xlink:href="#u2416" />
  </g>
  <g
     id="club_5"
     transform="translate(-479.99925,-0.00116749)">
    <use
       transform="translate(480)"
       xlink:href="#card"
       id="use39" />
    <use
       transform="translate(480)"
       xlink:href="#fr"
       id="use40" />
    <use
       id="u2622"
       transform="translate(120)"
       xlink:href="#u2414" />
    <use
       id="u2624"
       transform="translate(120)"
       xlink:href="#u2416" />
    <use
       id="u2626"
       transform="translate(120)"
       xlink:href="#u2538" />
    <use
       id="u2628"
       transform="translate(120)"
       xlink:href="#u2540" />
    <use
       transform="translate(240)"
       xlink:href="#u1904"
       id="use41" />
    <use
       transform="translate(480)"
       xlink:href="#pip_club_S"
       id="use42" />
    <use
       transform="translate(480)"
       xlink:href="#u2940"
       id="use43" />
    <use
       transform="translate(479.99925,100.00117)"
       style="fill:#333333;stroke:#333333"
       xlink:href="#5"
       id="use44" />
    <use
       transform="rotate(180,300.00038,39.999416)"
       style="fill:#333333;stroke:#333333"
       xlink:href="#5"
       id="use45" />
  </g>
  <path
     id="5"
     d="m 7.9107553,-85.541167 -0.7,-0.83 0.62,-6.44 h 5.1099997 c 0.26,0 0.39,-0.41 0.39,-0.41 h 0.7 l 0.34,4.12 -0.63,0.11 c -0.53,-2.09 -1.15,-2.15 -4.9999997,-2.05 l -0.34,3.78 c 1.4,-0.55 3.0499997,-0.81 4.1699997,0.01 4.24,3.09 2.22,10.31 -2.35,10.26 -1.8699997,-0.02 -3.7699997,-1.42 -3.7299997,-3.4 0,-1.26 0.92,-1.83 1.54,-1.86 0.8,-0.03 1.41,0.55 1.41,1.45 0,0.69 -0.36,1.17 -1.13,1.52 0.49,0.69 1.07,1.1 1.7699997,1.1 4.58,-0.1 2.47,-11.41 -2.1699997,-7.35 z"
     stroke-width="0.2" />
  <g
     id="club_1"
     transform="translate(-479.99925,-0.00116749)">
    <g
       id="card"
       transform="matrix(0.83103,0,0,0.83565,-1641.9,-580.27)">
      <rect
         id="card_face"
         x="1976.64"
         y="695.29498"
         width="142.60001"
         height="213.60001"
         rx="9.5"
         ry="9.5"
         fill="#ffffff"
         stroke="#333333"
         stroke-linejoin="round"
         stroke-width="1.8" />
    </g>
    <g
       id="fr">
      <rect
         x="7"
         y="7"
         width="106"
         height="166"
         rx="3"
         ry="3"
         fill="none"
         style="fill:#eeeedd"
         id="rect460" />
      <path
         d="M 18.5,7 H 110 c 1.66,0 3,1.34 3,3 v 129 m -12,34 H 10 c -1.66,0 -3,-1.34 -3,-3 V 41"
         style="fill:none;stroke:#aa8855"
         id="path460" />
    </g>
    <use
       id="u2940"
       transform="rotate(180,60.044,90)"
       xlink:href="#pip_club_S" />
    <use
       id="pip_club_S"
       transform="matrix(0.367,0,0,0.367,-11.04,-1.24)"
       xlink:href="#pip_club" />
    <path
       id="pip_club"
       d="m 60,75 c -4.9,0 -7.35,5.92 -3.89,9.39 1,1 2.89,1.81 2.89,3.81 0,1.2 -0.97,2 -1.8,2 -2.76,0 -2.34,-4.7 -7.2,-4.7 -3.04,0 -5.5,2.46 -5.5,5.5 0,3.04 2.46,5.5 5.5,5.5 4.65,0 4.3,-4.3 7.2,-4.3 0.83,0 1.8,0.6 1.8,1.6 0,7.7 -2,8.2 -4.2,9.9 L 56,105 c 0,0 1.6,-1.5 4,-1.5 2.4,0 4,1.5 4,1.5 l 1.2,-1.3 C 63,102 61,101.5 61,93.8 c 0,-1 0.97,-1.6 1.8,-1.6 2.9,0 2.56,4.3 7.2,4.3 3.04,0 5.5,-2.46 5.5,-5.5 0,-3.04 -2.46,-5.5 -5.5,-5.5 -4.86,0 -4.44,4.7 -7.2,4.7 -0.83,0 -1.8,-0.8 -1.8,-2 0,-2 1.89,-2.81 2.89,-3.81 C 67.35,80.92 64.9,75 60,75 Z m 0,15.1 1,1 -1,1 -1,-1 z"
       style="fill:#333333" />
  </g>
</svg>
