<?xml version="1.0" encoding="UTF-8" standalone="no"?>
<svg
   width="120.0007"
   height="179.99901"
   version="1.1"
   viewBox="0 0 120.0007 179.99901"
   preserveAspectRatio="none"
   id="svg462"
   xmlns:xlink="http://www.w3.org/1999/xlink"
   xmlns="http://www.w3.org/2000/svg"
   xmlns:svg="http://www.w3.org/2000/svg">
  <defs
     id="defs462" />
  <g
     id="diamond_2"
     transform="translate(-479.99925,-180.00117)">
    <use
       id="u14700"
       transform="translate(120,-62.5)"
       xlink:href="#pip_diam" />
    <use
       id="u15110"
       transform="rotate(180,180,270)"
       xlink:href="#u14700" />
  </g>
  <g
     id="diamond_3"
     transform="translate(-479.99925,-180.00117)">
    <use
       id="u15200"
       transform="translate(120)"
       xlink:href="#u14700" />
    <use
       id="u15202"
       transform="translate(120)"
       xlink:href="#u15110" />
    <use
       id="u15204"
       transform="translate(240)"
       xlink:href="#pip_diam" />
  </g>
  <g
     id="diamond_4"
     transform="translate(-479.99925,-180.00117)">
    <use
       id="u15206"
       transform="translate(95)"
       xlink:href="#u15200" />
    <use
       id="u15208"
       transform="translate(95.02)"
       xlink:href="#u15202" />
    <use
       id="u15210"
       transform="translate(50)"
       xlink:href="#u15206" />
    <use
       id="u15212"
       transform="translate(50)"
       xlink:href="#u15208" />
  </g>
  <g
     id="diamond_5"
     transform="translate(-479.99925,-180.00117)">
    <use
       transform="translate(480,180)"
       xlink:href="#card"
       id="use129" />
    <use
       transform="translate(480,180)"
       xlink:href="#fr"
       id="use130" />
    <use
       id="u15214"
       transform="translate(120)"
       xlink:href="#u15206" />
    <use
       id="u15216"
       transform="translate(120)"
       xlink:href="#u15208" />
    <use
       id="u15218"
       transform="translate(120)"
       xlink:href="#u15210" />
    <use
       id="u15220"
       transform="translate(120)"
       xlink:href="#u15212" />
    <use
       transform="translate(240)"
       xlink:href="#u15204"
       id="use131" />
    <use
       transform="translate(480)"
       xlink:href="#pip_diam_S"
       id="use132" />
    <use
       transform="translate(480)"
       xlink:href="#u5381"
       id="use133" />
    <use
       transform="translate(479.99925,460.00117)"
       style="fill:#ee3333;stroke:#ee3333"
       xlink:href="#5"
       id="use134" />
    <use
       transform="rotate(180,300.00038,39.999414)"
       style="fill:#ee3333;stroke:#ee3333"
       xlink:href="#5"
       id="use135" />
  </g>
  <g
     id="diamond_1"
     transform="translate(-479.99925,-180.00117)">
    <use
       id="u5381"
       transform="rotate(180,60.044,270)"
       xlink:href="#pip_diam_S" />
    <path
       id="pip_diam"
       d="m 60,254 c 3,8 8,13 16,16 -7.606,3.17 -13,8 -16,16 -3.09,-7.896 -8.213,-12.853 -16,-16 8,-3 13.298,-8.058 16,-16 z"
       fill="#ee3333" />
    <use
       id="pip_diam_S"
       transform="matrix(0.375,0,0,0.375,-11.74,111.1)"
       xlink:href="#pip_diam" />
  </g>
  <path
     id="5"
     d="m 7.9107553,-265.54117 -0.7,-0.83 0.62,-6.44 h 5.1099997 c 0.26,0 0.39,-0.41 0.39,-0.41 h 0.7 l 0.34,4.12 -0.63,0.11 c -0.53,-2.09 -1.15,-2.15 -4.9999997,-2.05 l -0.34,3.78 c 1.4,-0.55 3.0499997,-0.81 4.1699997,0.01 4.24,3.09 2.22,10.31 -2.35,10.26 -1.8699997,-0.02 -3.7699997,-1.42 -3.7299997,-3.4 0,-1.26 0.92,-1.83 1.54,-1.86 0.8,-0.03 1.41,0.55 1.41,1.45 0,0.69 -0.36,1.17 -1.13,1.52 0.49,0.69 1.07,1.1 1.7699997,1.1 4.58,-0.1 2.47,-11.41 -2.1699997,-7.35 z"
     stroke-width="0.2" />
  <g
     id="club_1"
     transform="translate(-479.99925,-180.00117)">
    <g
       id="card"
       transform="matrix(0.83103,0,0,0.83565,-1641.9,-580.27)">
      <rect
         id="card_face"
         x="1976.64"
         y="695.29498"
         width="142.60001"
         height="213.60001"
         rx="9.5"
         ry="9.5"
         fill="#ffffff"
         stroke="#333333"
         stroke-linejoin="round"
         stroke-width="1.8" />
    </g>
    <g
       id="fr">
      <rect
         x="7"
         y="7"
         width="106"
         height="166"
         rx="3"
         ry="3"
         fill="none"
         style="fill:#eeeedd"
         id="rect460" />
      <path
         d="M 18.5,7 H 110 c 1.66,0 3,1.34 3,3 v 129 m -12,34 H 10 c -1.66,0 -3,-1.34 -3,-3 V 41"
         style="fill:none;stroke:#aa8855"
         id="path460" />
    </g>
  </g>
</svg>
