<?xml version="1.0" encoding="UTF-8" standalone="no"?>
<svg
   width="120.0007"
   height="179.99902"
   version="1.1"
   viewBox="0 0 120.0007 179.99902"
   preserveAspectRatio="none"
   id="svg462"
   xmlns:xlink="http://www.w3.org/1999/xlink"
   xmlns="http://www.w3.org/2000/svg"
   xmlns:svg="http://www.w3.org/2000/svg">
  <defs
     id="defs462" />
  <g
     id="heart_2"
     transform="translate(-479.99925,-360.00117)">
    <use
       id="u21397"
       transform="translate(120,-65.5)"
       xlink:href="#pip_heart" />
    <use
       id="u21762"
       transform="rotate(180,180,450)"
       xlink:href="#u21397" />
  </g>
  <g
     id="heart_3"
     transform="translate(-479.99925,-360.00117)">
    <use
       id="u21852"
       transform="translate(120)"
       xlink:href="#u21397" />
    <use
       id="u21854"
       transform="translate(120)"
       xlink:href="#u21762" />
    <use
       id="u21856"
       transform="translate(0,65.5)"
       xlink:href="#u21852" />
  </g>
  <g
     id="heart_4"
     transform="translate(-479.99925,-360.00117)">
    <use
       id="u21858"
       transform="translate(95)"
       xlink:href="#u21852" />
    <use
       id="u21860"
       transform="translate(95)"
       xlink:href="#u21854" />
    <use
       id="u21961"
       transform="translate(50)"
       xlink:href="#u21858" />
    <use
       id="u21963"
       transform="translate(50)"
       xlink:href="#u21860" />
  </g>
  <g
     id="heart_5"
     transform="translate(-479.99925,-360.00117)">
    <use
       transform="translate(480,360)"
       xlink:href="#card"
       id="use222" />
    <use
       transform="translate(480,360)"
       xlink:href="#fr"
       id="use223" />
    <use
       transform="translate(120)"
       xlink:href="#u21858"
       id="use224" />
    <use
       transform="translate(120)"
       xlink:href="#u21860"
       id="use225" />
    <use
       transform="translate(120)"
       xlink:href="#u21961"
       id="use226" />
    <use
       transform="translate(120)"
       xlink:href="#u21963"
       id="use227" />
    <use
       transform="translate(240)"
       xlink:href="#u21856"
       id="use228" />
    <use
       transform="translate(480,-0.1)"
       xlink:href="#pip_heart_S"
       id="use229" />
    <use
       transform="translate(480)"
       xlink:href="#u9338"
       id="use230" />
    <use
       transform="translate(479.99925,820.00117)"
       style="fill:#ee3333;stroke:#ee3333"
       xlink:href="#5"
       id="use231" />
    <use
       transform="rotate(180,300.00038,39.999417)"
       style="fill:#ee3333;stroke:#ee3333"
       xlink:href="#5"
       id="use232" />
  </g>
  <g
     id="heart_1"
     transform="translate(-479.99925,-360.00117)">
    <use
       id="pip_heart_S"
       transform="matrix(0.386,0,0,0.37,-12.38,225)"
       xlink:href="#pip_heart" />
    <use
       id="u9338"
       transform="rotate(180,60.044,450.05)"
       xlink:href="#pip_heart_S" />
    <path
       id="pip_heart"
       d="m 53,438 c -3.87,0 -7.25,2.5 -7.25,7 0,8.5 8.25,8.5 14.25,20 6,-11.5 14.25,-11.5 14.25,-20 0,-4.5 -3.38,-7 -7.25,-7 -3.5,0 -6,2 -7,5.25 C 59,440 56.5,438 53,438 Z"
       fill="#ee3333" />
  </g>
  <path
     id="5"
     d="m 7.9107553,-445.54117 -0.7,-0.83 0.62,-6.44 h 5.1099997 c 0.26,0 0.39,-0.41 0.39,-0.41 h 0.7 l 0.34,4.12 -0.63,0.11 c -0.53,-2.09 -1.15,-2.15 -4.9999997,-2.05 l -0.34,3.78 c 1.4,-0.55 3.0499997,-0.81 4.1699997,0.01 4.24,3.09 2.22,10.31 -2.35,10.26 -1.8699997,-0.02 -3.7699997,-1.42 -3.7299997,-3.4 0,-1.26 0.92,-1.83 1.54,-1.86 0.8,-0.03 1.41,0.55 1.41,1.45 0,0.69 -0.36,1.17 -1.13,1.52 0.49,0.69 1.07,1.1 1.7699997,1.1 4.58,-0.1 2.47,-11.41 -2.1699997,-7.35 z"
     stroke-width="0.2" />
  <g
     id="club_1"
     transform="translate(-479.99925,-360.00117)">
    <g
       id="card"
       transform="matrix(0.83103,0,0,0.83565,-1641.9,-580.27)">
      <rect
         id="card_face"
         x="1976.64"
         y="695.29498"
         width="142.60001"
         height="213.60001"
         rx="9.5"
         ry="9.5"
         fill="#ffffff"
         stroke="#333333"
         stroke-linejoin="round"
         stroke-width="1.8" />
    </g>
    <g
       id="fr">
      <rect
         x="7"
         y="7"
         width="106"
         height="166"
         rx="3"
         ry="3"
         fill="none"
         style="fill:#eeeedd"
         id="rect460" />
      <path
         d="M 18.5,7 H 110 c 1.66,0 3,1.34 3,3 v 129 m -12,34 H 10 c -1.66,0 -3,-1.34 -3,-3 V 41"
         style="fill:none;stroke:#aa8855"
         id="path460" />
    </g>
  </g>
</svg>
