<?xml version="1.0" encoding="UTF-8" standalone="no"?>
<svg
   width="120.0007"
   height="179.99902"
   version="1.1"
   viewBox="0 0 120.0007 179.99902"
   preserveAspectRatio="none"
   id="svg462"
   xmlns:xlink="http://www.w3.org/1999/xlink"
   xmlns="http://www.w3.org/2000/svg"
   xmlns:svg="http://www.w3.org/2000/svg">
  <defs
     id="defs462" />
  <g
     id="spade_2"
     transform="translate(-479.99925,-540.00117)">
    <use
       id="u28846"
       transform="translate(120,-62.75)"
       xlink:href="#pip_spade" />
    <use
       id="u29400"
       transform="rotate(180,180.04,630)"
       xlink:href="#u28846" />
  </g>
  <g
     id="spade_3"
     transform="translate(-479.99925,-540.00117)">
    <use
       id="u32174"
       transform="translate(240)"
       xlink:href="#pip_spade" />
  </g>
  <g
     id="spade_4"
     transform="translate(-479.99925,-540.00117)">
    <use
       id="u32978"
       transform="translate(214.94)"
       xlink:href="#u28846" />
    <use
       id="u32980"
       transform="translate(214.94)"
       xlink:href="#u29400" />
    <use
       id="u32982"
       transform="translate(50)"
       xlink:href="#u32978" />
    <use
       id="u32984"
       transform="translate(50)"
       xlink:href="#u32980" />
  </g>
  <g
     id="spade_5"
     transform="translate(-479.99925,-540.00117)">
    <use
       transform="translate(480,540)"
       xlink:href="#card"
       id="use321" />
    <use
       transform="translate(480,540)"
       xlink:href="#fr"
       id="use322" />
    <use
       transform="translate(120)"
       xlink:href="#u32978"
       id="use323" />
    <use
       transform="translate(120)"
       xlink:href="#u32980"
       id="use324" />
    <use
       transform="translate(120)"
       xlink:href="#u32982"
       id="use325" />
    <use
       transform="translate(120)"
       xlink:href="#u32984"
       id="use326" />
    <use
       transform="translate(240)"
       xlink:href="#u32174"
       id="use327" />
    <use
       transform="translate(480)"
       xlink:href="#pip_spade_S"
       id="use328" />
    <use
       transform="translate(480)"
       xlink:href="#u10961"
       id="use329" />
    <use
       transform="translate(479.99925,1180.0012)"
       style="fill:#333333;stroke:#333333"
       xlink:href="#5"
       id="use330" />
    <use
       transform="rotate(180,300.00038,39.999415)"
       style="fill:#333333;stroke:#333333"
       xlink:href="#5"
       id="use331" />
  </g>
  <path
     id="5"
     d="m 7.9107553,-625.54117 -0.7,-0.83 0.62,-6.44 h 5.1099997 c 0.26,0 0.39,-0.41 0.39,-0.41 h 0.7 l 0.34,4.12 -0.63,0.11 c -0.53,-2.09 -1.15,-2.15 -4.9999997,-2.05 l -0.34,3.78 c 1.4,-0.55 3.0499997,-0.81 4.1699997,0.01 4.24,3.09 2.22,10.31 -2.35,10.26 -1.8699997,-0.02 -3.7699997,-1.42 -3.7299997,-3.4 0,-1.26 0.92,-1.83 1.54,-1.86 0.8,-0.03 1.41,0.55 1.41,1.45 0,0.69 -0.36,1.17 -1.13,1.52 0.49,0.69 1.07,1.1 1.7699997,1.1 4.58,-0.1 2.47,-11.41 -2.1699997,-7.35 z"
     stroke-width="0.2" />
  <g
     id="spade_1"
     transform="translate(-479.99925,-540.00117)">
    <use
       id="u10961"
       transform="rotate(180,60.044,630)"
       xlink:href="#pip_spade_S" />
    <use
       id="pip_spade_S"
       transform="matrix(0.4,0,0,0.4,-13.24,320.3)"
       xlink:href="#pip_spade" />
    <path
       id="pip_spade"
       d="M 60,614.25 C 55,624.75 46,624 46,632 c 0,4 2.5,6.75 6.5,6.75 3.5,0 5.5,-1.75 6.37,-3.5 -0.03,5.4 -0.7,7.74 -3.62,9.2 l 1.2,1.3 c 0,0 1.55,-1.25 3.55,-1.25 2,0 3.55,1.25 3.55,1.25 l 1.2,-1.3 c -2.92,-1.46 -3.59,-3.8 -3.62,-9.2 0.87,1.75 2.87,3.5 6.37,3.5 4,0 6.5,-2.75 6.5,-6.75 0,-8 -9,-7.25 -14,-17.75 z"
       style="fill:#333333" />
  </g>
  <g
     id="club_1"
     transform="translate(-479.99925,-540.00117)">
    <g
       id="card"
       transform="matrix(0.83103,0,0,0.83565,-1641.9,-580.27)">
      <rect
         id="card_face"
         x="1976.64"
         y="695.29498"
         width="142.60001"
         height="213.60001"
         rx="9.5"
         ry="9.5"
         fill="#ffffff"
         stroke="#333333"
         stroke-linejoin="round"
         stroke-width="1.8" />
    </g>
    <g
       id="fr">
      <rect
         x="7"
         y="7"
         width="106"
         height="166"
         rx="3"
         ry="3"
         fill="none"
         style="fill:#eeeedd"
         id="rect460" />
      <path
         d="M 18.5,7 H 110 c 1.66,0 3,1.34 3,3 v 129 m -12,34 H 10 c -1.66,0 -3,-1.34 -3,-3 V 41"
         style="fill:none;stroke:#aa8855"
         id="path460" />
    </g>
  </g>
</svg>
