<?xml version="1.0" encoding="UTF-8" standalone="no"?>
<svg
   width="120.00073"
   height="179.99901"
   version="1.1"
   viewBox="0 0 120.00073 179.99901"
   preserveAspectRatio="none"
   id="svg462"
   xmlns:xlink="http://www.w3.org/1999/xlink"
   xmlns="http://www.w3.org/2000/svg"
   xmlns:svg="http://www.w3.org/2000/svg">
  <defs
     id="defs462" />
  <g
     id="diamond_6"
     transform="translate(-599.99922,-180.00117)">
    <use
       transform="translate(600,180)"
       xlink:href="#card"
       id="use105" />
    <use
       transform="translate(600,180)"
       xlink:href="#fr"
       id="use106" />
    <use
       id="u15224"
       transform="translate(120)"
       xlink:href="#u15214" />
    <use
       id="u15226"
       transform="translate(120)"
       xlink:href="#u15216" />
    <use
       id="u15228"
       transform="translate(120)"
       xlink:href="#u15218" />
    <use
       id="u15230"
       transform="translate(120)"
       xlink:href="#u15220" />
    <use
       id="u15232"
       transform="translate(0,62.5)"
       xlink:href="#u15224" />
    <use
       id="u15234"
       transform="translate(0,62.5)"
       xlink:href="#u15228" />
    <use
       transform="translate(600)"
       xlink:href="#pip_diam_S"
       id="use107" />
    <use
       transform="translate(600)"
       xlink:href="#u5381"
       id="use108" />
    <use
       transform="translate(599.99922,460.00117)"
       style="fill:#ee3333;stroke:#ee3333"
       xlink:href="#6"
       id="use109" />
    <use
       transform="rotate(180,360.00039,39.999414)"
       style="fill:#ee3333"
       xlink:href="#6"
       id="use110" />
  </g>
  <g
     id="diamond_2"
     transform="translate(-599.99922,-180.00117)">
    <use
       id="u14700"
       transform="translate(120,-62.5)"
       xlink:href="#pip_diam" />
    <use
       id="u15110"
       transform="rotate(180,180,270)"
       xlink:href="#u14700" />
  </g>
  <g
     id="diamond_3"
     transform="translate(-599.99922,-180.00117)">
    <use
       id="u15200"
       transform="translate(120)"
       xlink:href="#u14700" />
    <use
       id="u15202"
       transform="translate(120)"
       xlink:href="#u15110" />
  </g>
  <g
     id="diamond_4"
     transform="translate(-599.99922,-180.00117)">
    <use
       id="u15206"
       transform="translate(95)"
       xlink:href="#u15200" />
    <use
       id="u15208"
       transform="translate(95.02)"
       xlink:href="#u15202" />
    <use
       id="u15210"
       transform="translate(50)"
       xlink:href="#u15206" />
    <use
       id="u15212"
       transform="translate(50)"
       xlink:href="#u15208" />
  </g>
  <g
     id="diamond_5"
     transform="translate(-599.99922,-180.00117)">
    <use
       id="u15214"
       transform="translate(120)"
       xlink:href="#u15206" />
    <use
       id="u15216"
       transform="translate(120)"
       xlink:href="#u15208" />
    <use
       id="u15218"
       transform="translate(120)"
       xlink:href="#u15210" />
    <use
       id="u15220"
       transform="translate(120)"
       xlink:href="#u15212" />
  </g>
  <g
     id="diamond_1"
     transform="translate(-599.99922,-180.00117)">
    <use
       id="u5381"
       transform="rotate(180,60.044,270)"
       xlink:href="#pip_diam_S" />
    <path
       id="pip_diam"
       d="m 60,254 c 3,8 8,13 16,16 -7.606,3.17 -13,8 -16,16 -3.09,-7.896 -8.213,-12.853 -16,-16 8,-3 13.298,-8.058 16,-16 z"
       fill="#ee3333" />
    <use
       id="pip_diam_S"
       transform="matrix(0.375,0,0,0.375,-11.74,111.1)"
       xlink:href="#pip_diam" />
  </g>
  <path
     id="6"
     d="m 11.280781,-272.36117 c -2.2199996,0.05 -2.4299996,4.02 -2.4599996,6.19 0.52,-0.53 1.3099996,-0.99 2.1899996,-0.98 2.62,0.03 4.27,2.11 4.27,4.96 0,1.66 -0.59,4.73 -4.21,4.73 -2.3699996,0 -4.2799996,-1.53 -4.3799996,-6.57 0,-5.13 0.68,-9.33 4.5299996,-9.33 1.95,0 3.61,1.19 3.61,3.18 0,0.95 -0.52,1.74 -1.52,1.74 -0.73,0 -1.35,-0.48 -1.35,-1.38 0,-0.47 0.25,-1.27 1.13,-1.48 -0.32,-0.74 -1.13,-1.07 -1.81,-1.06 z m -2.3599996,10.11 c 0.01,1.26 0.38,3.81 2.0699996,3.79 1.54,-0.02 2.21,-1.2 2.21,-3.79 0,-1.12 -0.14,-3.53 -2.21,-3.53 -2.0799996,0 -2.0799996,3 -2.0699996,3.53 z"
     stroke-width="0.2" />
  <g
     id="club_1"
     transform="translate(-599.99922,-180.00117)">
    <g
       id="card"
       transform="matrix(0.83103,0,0,0.83565,-1641.9,-580.27)">
      <rect
         id="card_face"
         x="1976.64"
         y="695.29498"
         width="142.60001"
         height="213.60001"
         rx="9.5"
         ry="9.5"
         fill="#ffffff"
         stroke="#333333"
         stroke-linejoin="round"
         stroke-width="1.8" />
    </g>
    <g
       id="fr">
      <rect
         x="7"
         y="7"
         width="106"
         height="166"
         rx="3"
         ry="3"
         fill="none"
         style="fill:#eeeedd"
         id="rect460" />
      <path
         d="M 18.5,7 H 110 c 1.66,0 3,1.34 3,3 v 129 m -12,34 H 10 c -1.66,0 -3,-1.34 -3,-3 V 41"
         style="fill:none;stroke:#aa8855"
         id="path460" />
    </g>
  </g>
</svg>
