<?xml version="1.0" encoding="UTF-8" standalone="no"?>
<svg
   width="120.00073"
   height="179.99902"
   version="1.1"
   viewBox="0 0 120.00073 179.99902"
   preserveAspectRatio="none"
   id="svg462"
   xmlns:xlink="http://www.w3.org/1999/xlink"
   xmlns="http://www.w3.org/2000/svg"
   xmlns:svg="http://www.w3.org/2000/svg">
  <defs
     id="defs462" />
  <g
     id="heart_6"
     transform="translate(-599.99922,-360.00117)">
    <use
       transform="translate(600,360)"
       xlink:href="#card"
       id="use197" />
    <use
       transform="translate(600,360)"
       xlink:href="#fr"
       id="use198" />
    <use
       transform="translate(600,-0.1)"
       xlink:href="#pip_heart_S"
       id="use199" />
    <use
       id="u21975"
       transform="translate(335)"
       xlink:href="#u21852" />
    <use
       id="u21977"
       transform="translate(335)"
       xlink:href="#u21854" />
    <use
       id="u21979"
       transform="translate(335)"
       xlink:href="#u21856" />
    <use
       id="u21981"
       transform="translate(50)"
       xlink:href="#u21975" />
    <use
       id="u21983"
       transform="translate(50)"
       xlink:href="#u21977" />
    <use
       id="u21985"
       transform="translate(50)"
       xlink:href="#u21979" />
    <use
       transform="translate(600,-0.1)"
       xlink:href="#pip_heart_S"
       id="use200" />
    <use
       transform="translate(600)"
       xlink:href="#u9338"
       id="use201" />
    <use
       transform="translate(599.99922,820.00117)"
       style="fill:#ee3333;stroke:#ee3333"
       xlink:href="#6"
       id="use202" />
    <use
       transform="rotate(180,360.00039,39.999417)"
       style="fill:#ee3333;stroke:#ee3333"
       xlink:href="#6"
       id="use203" />
  </g>
  <g
     id="heart_2"
     transform="translate(-599.99922,-360.00117)">
    <use
       id="u21397"
       transform="translate(120,-65.5)"
       xlink:href="#pip_heart" />
    <use
       id="u21762"
       transform="rotate(180,180,450)"
       xlink:href="#u21397" />
  </g>
  <g
     id="heart_3"
     transform="translate(-599.99922,-360.00117)">
    <use
       id="u21852"
       transform="translate(120)"
       xlink:href="#u21397" />
    <use
       id="u21854"
       transform="translate(120)"
       xlink:href="#u21762" />
    <use
       id="u21856"
       transform="translate(0,65.5)"
       xlink:href="#u21852" />
  </g>
  <g
     id="heart_1"
     transform="translate(-599.99922,-360.00117)">
    <use
       id="pip_heart_S"
       transform="matrix(0.386,0,0,0.37,-12.38,225)"
       xlink:href="#pip_heart" />
    <use
       id="u9338"
       transform="rotate(180,60.044,450.05)"
       xlink:href="#pip_heart_S" />
    <path
       id="pip_heart"
       d="m 53,438 c -3.87,0 -7.25,2.5 -7.25,7 0,8.5 8.25,8.5 14.25,20 6,-11.5 14.25,-11.5 14.25,-20 0,-4.5 -3.38,-7 -7.25,-7 -3.5,0 -6,2 -7,5.25 C 59,440 56.5,438 53,438 Z"
       fill="#ee3333" />
  </g>
  <path
     id="6"
     d="m 11.280781,-452.36117 c -2.2199996,0.05 -2.4299996,4.02 -2.4599996,6.19 0.52,-0.53 1.3099996,-0.99 2.1899996,-0.98 2.62,0.03 4.27,2.11 4.27,4.96 0,1.66 -0.59,4.73 -4.21,4.73 -2.3699996,0 -4.2799996,-1.53 -4.3799996,-6.57 0,-5.13 0.68,-9.33 4.5299996,-9.33 1.95,0 3.61,1.19 3.61,3.18 0,0.95 -0.52,1.74 -1.52,1.74 -0.73,0 -1.35,-0.48 -1.35,-1.38 0,-0.47 0.25,-1.27 1.13,-1.48 -0.32,-0.74 -1.13,-1.07 -1.81,-1.06 z m -2.3599996,10.11 c 0.01,1.26 0.38,3.81 2.0699996,3.79 1.54,-0.02 2.21,-1.2 2.21,-3.79 0,-1.12 -0.14,-3.53 -2.21,-3.53 -2.0799996,0 -2.0799996,3 -2.0699996,3.53 z"
     stroke-width="0.2" />
  <g
     id="club_1"
     transform="translate(-599.99922,-360.00117)">
    <g
       id="card"
       transform="matrix(0.83103,0,0,0.83565,-1641.9,-580.27)">
      <rect
         id="card_face"
         x="1976.64"
         y="695.29498"
         width="142.60001"
         height="213.60001"
         rx="9.5"
         ry="9.5"
         fill="#ffffff"
         stroke="#333333"
         stroke-linejoin="round"
         stroke-width="1.8" />
    </g>
    <g
       id="fr">
      <rect
         x="7"
         y="7"
         width="106"
         height="166"
         rx="3"
         ry="3"
         fill="none"
         style="fill:#eeeedd"
         id="rect460" />
      <path
         d="M 18.5,7 H 110 c 1.66,0 3,1.34 3,3 v 129 m -12,34 H 10 c -1.66,0 -3,-1.34 -3,-3 V 41"
         style="fill:none;stroke:#aa8855"
         id="path460" />
    </g>
  </g>
</svg>
