<?xml version="1.0" encoding="UTF-8" standalone="no"?>
<svg
   width="120.00073"
   height="179.99902"
   version="1.1"
   viewBox="0 0 120.00073 179.99902"
   preserveAspectRatio="none"
   id="svg462"
   xmlns:xlink="http://www.w3.org/1999/xlink"
   xmlns="http://www.w3.org/2000/svg"
   xmlns:svg="http://www.w3.org/2000/svg">
  <defs
     id="defs462" />
  <g
     id="spade_6"
     transform="translate(-599.99922,-540.00117)">
    <use
       transform="translate(600,540)"
       xlink:href="#card"
       id="use297" />
    <use
       transform="translate(600,540)"
       xlink:href="#fr"
       id="use298" />
    <use
       id="u32996"
       transform="translate(334.94)"
       xlink:href="#u32170" />
    <use
       id="u32998"
       transform="translate(334.94)"
       xlink:href="#u32172" />
    <use
       id="u33000"
       transform="translate(334.94)"
       xlink:href="#u32174" />
    <use
       id="u33002"
       transform="translate(50)"
       xlink:href="#u32996" />
    <use
       id="u33004"
       transform="translate(50)"
       xlink:href="#u32998" />
    <use
       id="u33006"
       transform="translate(50)"
       xlink:href="#u33000" />
    <use
       transform="translate(600)"
       xlink:href="#pip_spade_S"
       id="use299" />
    <use
       transform="translate(600)"
       xlink:href="#u10961"
       id="use300" />
    <use
       transform="translate(599.99922,1180.0012)"
       style="fill:#333333;stroke:#333333"
       xlink:href="#6"
       id="use301" />
    <use
       transform="rotate(180,360.00039,39.999415)"
       style="fill:#333333;stroke:#333333"
       xlink:href="#6"
       id="use302" />
  </g>
  <g
     id="spade_2"
     transform="translate(-599.99922,-540.00117)">
    <use
       id="u28846"
       transform="translate(120,-62.75)"
       xlink:href="#pip_spade" />
    <use
       id="u29400"
       transform="rotate(180,180.04,630)"
       xlink:href="#u28846" />
  </g>
  <g
     id="spade_3"
     transform="translate(-599.99922,-540.00117)">
    <use
       id="u32170"
       transform="translate(120)"
       xlink:href="#u28846" />
    <use
       id="u32172"
       transform="translate(120)"
       xlink:href="#u29400" />
    <use
       id="u32174"
       transform="translate(240)"
       xlink:href="#pip_spade" />
  </g>
  <path
     id="6"
     d="m 11.280781,-632.36117 c -2.2199996,0.05 -2.4299996,4.02 -2.4599996,6.19 0.52,-0.53 1.3099996,-0.99 2.1899996,-0.98 2.62,0.03 4.27,2.11 4.27,4.96 0,1.66 -0.59,4.73 -4.21,4.73 -2.3699996,0 -4.2799996,-1.53 -4.3799996,-6.57 0,-5.13 0.68,-9.33 4.5299996,-9.33 1.95,0 3.61,1.19 3.61,3.18 0,0.95 -0.52,1.74 -1.52,1.74 -0.73,0 -1.35,-0.48 -1.35,-1.38 0,-0.47 0.25,-1.27 1.13,-1.48 -0.32,-0.74 -1.13,-1.07 -1.81,-1.06 z m -2.3599996,10.11 c 0.01,1.26 0.38,3.81 2.0699996,3.79 1.54,-0.02 2.21,-1.2 2.21,-3.79 0,-1.12 -0.14,-3.53 -2.21,-3.53 -2.0799996,0 -2.0799996,3 -2.0699996,3.53 z"
     stroke-width="0.2" />
  <g
     id="spade_1"
     transform="translate(-599.99922,-540.00117)">
    <use
       id="u10961"
       transform="rotate(180,60.044,630)"
       xlink:href="#pip_spade_S" />
    <use
       id="pip_spade_S"
       transform="matrix(0.4,0,0,0.4,-13.24,320.3)"
       xlink:href="#pip_spade" />
    <path
       id="pip_spade"
       d="M 60,614.25 C 55,624.75 46,624 46,632 c 0,4 2.5,6.75 6.5,6.75 3.5,0 5.5,-1.75 6.37,-3.5 -0.03,5.4 -0.7,7.74 -3.62,9.2 l 1.2,1.3 c 0,0 1.55,-1.25 3.55,-1.25 2,0 3.55,1.25 3.55,1.25 l 1.2,-1.3 c -2.92,-1.46 -3.59,-3.8 -3.62,-9.2 0.87,1.75 2.87,3.5 6.37,3.5 4,0 6.5,-2.75 6.5,-6.75 0,-8 -9,-7.25 -14,-17.75 z"
       style="fill:#333333" />
  </g>
  <g
     id="club_1"
     transform="translate(-599.99922,-540.00117)">
    <g
       id="card"
       transform="matrix(0.83103,0,0,0.83565,-1641.9,-580.27)">
      <rect
         id="card_face"
         x="1976.64"
         y="695.29498"
         width="142.60001"
         height="213.60001"
         rx="9.5"
         ry="9.5"
         fill="#ffffff"
         stroke="#333333"
         stroke-linejoin="round"
         stroke-width="1.8" />
    </g>
    <g
       id="fr">
      <rect
         x="7"
         y="7"
         width="106"
         height="166"
         rx="3"
         ry="3"
         fill="none"
         style="fill:#eeeedd"
         id="rect460" />
      <path
         d="M 18.5,7 H 110 c 1.66,0 3,1.34 3,3 v 129 m -12,34 H 10 c -1.66,0 -3,-1.34 -3,-3 V 41"
         style="fill:none;stroke:#aa8855"
         id="path460" />
    </g>
  </g>
</svg>
