<?xml version="1.0" encoding="UTF-8" standalone="no"?>
<svg
   width="120.00073"
   height="179.99901"
   version="1.1"
   viewBox="0 0 120.00073 179.99901"
   preserveAspectRatio="none"
   id="svg462"
   xmlns:xlink="http://www.w3.org/1999/xlink"
   xmlns="http://www.w3.org/2000/svg"
   xmlns:svg="http://www.w3.org/2000/svg">
  <defs
     id="defs462" />
  <g
     id="diamond_6"
     transform="translate(-719.99922,-180.00117)">
    <use
       id="u15224"
       transform="translate(120)"
       xlink:href="#u15214" />
    <use
       id="u15226"
       transform="translate(120)"
       xlink:href="#u15216" />
    <use
       id="u15228"
       transform="translate(120)"
       xlink:href="#u15218" />
    <use
       id="u15230"
       transform="translate(120)"
       xlink:href="#u15220" />
    <use
       id="u15232"
       transform="translate(0,62.5)"
       xlink:href="#u15224" />
    <use
       id="u15234"
       transform="translate(0,62.5)"
       xlink:href="#u15228" />
  </g>
  <g
     id="diamond_2"
     transform="translate(-719.99922,-180.00117)">
    <use
       id="u14700"
       transform="translate(120,-62.5)"
       xlink:href="#pip_diam" />
    <use
       id="u15110"
       transform="rotate(180,180,270)"
       xlink:href="#u14700" />
  </g>
  <g
     id="diamond_3"
     transform="translate(-719.99922,-180.00117)">
    <use
       id="u15200"
       transform="translate(120)"
       xlink:href="#u14700" />
    <use
       id="u15202"
       transform="translate(120)"
       xlink:href="#u15110" />
  </g>
  <g
     id="diamond_4"
     transform="translate(-719.99922,-180.00117)">
    <use
       id="u15206"
       transform="translate(95)"
       xlink:href="#u15200" />
    <use
       id="u15208"
       transform="translate(95.02)"
       xlink:href="#u15202" />
    <use
       id="u15210"
       transform="translate(50)"
       xlink:href="#u15206" />
    <use
       id="u15212"
       transform="translate(50)"
       xlink:href="#u15208" />
  </g>
  <g
     id="diamond_5"
     transform="translate(-719.99922,-180.00117)">
    <use
       id="u15214"
       transform="translate(120)"
       xlink:href="#u15206" />
    <use
       id="u15216"
       transform="translate(120)"
       xlink:href="#u15208" />
    <use
       id="u15218"
       transform="translate(120)"
       xlink:href="#u15210" />
    <use
       id="u15220"
       transform="translate(120)"
       xlink:href="#u15212" />
  </g>
  <g
     id="diamond_7"
     transform="translate(-719.99922,-180.00117)">
    <use
       transform="translate(720,180)"
       xlink:href="#card"
       id="use136" />
    <use
       transform="translate(720,180)"
       xlink:href="#fr"
       id="use137" />
    <use
       id="u15236"
       transform="translate(120)"
       xlink:href="#u15224" />
    <use
       id="u15238"
       transform="translate(120)"
       xlink:href="#u15226" />
    <use
       id="u15240"
       transform="translate(120)"
       xlink:href="#u15228" />
    <use
       id="u15242"
       transform="translate(120)"
       xlink:href="#u15230" />
    <use
       id="u15244"
       transform="translate(120)"
       xlink:href="#u15232" />
    <use
       id="u15246"
       transform="translate(120)"
       xlink:href="#u15234" />
    <use
       id="u15248"
       transform="translate(25,31.25)"
       xlink:href="#u15236" />
    <use
       transform="translate(720)"
       xlink:href="#pip_diam_S"
       id="use138" />
    <use
       transform="translate(720)"
       xlink:href="#u5381"
       id="use139" />
    <use
       transform="translate(719.99922,460.00117)"
       style="fill:#ee3333;stroke:#ee3333"
       xlink:href="#7"
       id="use140" />
    <use
       transform="rotate(180,420.00039,39.999414)"
       style="fill:#ee3333;stroke:#ee3333"
       xlink:href="#7"
       id="use141" />
  </g>
  <g
     id="diamond_1"
     transform="translate(-719.99922,-180.00117)">
    <use
       id="u5381"
       transform="rotate(180,60.044,270)"
       xlink:href="#pip_diam_S" />
    <path
       id="pip_diam"
       d="m 60,254 c 3,8 8,13 16,16 -7.606,3.17 -13,8 -16,16 -3.09,-7.896 -8.213,-12.853 -16,-16 8,-3 13.298,-8.058 16,-16 z"
       fill="#ee3333" />
    <use
       id="pip_diam_S"
       transform="matrix(0.375,0,0,0.375,-11.74,111.1)"
       xlink:href="#pip_diam" />
  </g>
  <path
     id="7"
     d="m 7.380779,-273.30117 -0.63,4.33 0.69,0.14 c 0.66,-1.69 1.01,-2.01 2.989999,-2.01 h 2.81 c -2.58,4.02 -4.479999,7.86 -4.659999,13.54 h 2.569999 c -0.17,-5.2 0.75,-9.9 4.29,-14.74 l 0.07,-0.91 H 8.470779 c -0.22,0 -0.4,-0.21 -0.41,-0.35 z"
     stroke-width="0.25" />
  <g
     id="club_1"
     transform="translate(-719.99922,-180.00117)">
    <g
       id="card"
       transform="matrix(0.83103,0,0,0.83565,-1641.9,-580.27)">
      <rect
         id="card_face"
         x="1976.64"
         y="695.29498"
         width="142.60001"
         height="213.60001"
         rx="9.5"
         ry="9.5"
         fill="#ffffff"
         stroke="#333333"
         stroke-linejoin="round"
         stroke-width="1.8" />
    </g>
    <g
       id="fr">
      <rect
         x="7"
         y="7"
         width="106"
         height="166"
         rx="3"
         ry="3"
         fill="none"
         style="fill:#eeeedd"
         id="rect460" />
      <path
         d="M 18.5,7 H 110 c 1.66,0 3,1.34 3,3 v 129 m -12,34 H 10 c -1.66,0 -3,-1.34 -3,-3 V 41"
         style="fill:none;stroke:#aa8855"
         id="path460" />
    </g>
  </g>
</svg>
