<?xml version="1.0" encoding="UTF-8" standalone="no"?>
<svg
   width="120.00073"
   height="179.99902"
   version="1.1"
   viewBox="0 0 120.00073 179.99902"
   preserveAspectRatio="none"
   id="svg462"
   xmlns:xlink="http://www.w3.org/1999/xlink"
   xmlns="http://www.w3.org/2000/svg"
   xmlns:svg="http://www.w3.org/2000/svg">
  <defs
     id="defs462" />
  <g
     id="heart_6"
     transform="translate(-719.99922,-360.00117)">
    <use
       id="u21975"
       transform="translate(335)"
       xlink:href="#u21852" />
    <use
       id="u21977"
       transform="translate(335)"
       xlink:href="#u21854" />
    <use
       id="u21979"
       transform="translate(335)"
       xlink:href="#u21856" />
    <use
       id="u21981"
       transform="translate(50)"
       xlink:href="#u21975" />
    <use
       id="u21983"
       transform="translate(50)"
       xlink:href="#u21977" />
    <use
       id="u21985"
       transform="translate(50)"
       xlink:href="#u21979" />
  </g>
  <g
     id="heart_2"
     transform="translate(-719.99922,-360.00117)">
    <use
       id="u21397"
       transform="translate(120,-65.5)"
       xlink:href="#pip_heart" />
    <use
       id="u21762"
       transform="rotate(180,180,450)"
       xlink:href="#u21397" />
  </g>
  <g
     id="heart_3"
     transform="translate(-719.99922,-360.00117)">
    <use
       id="u21852"
       transform="translate(120)"
       xlink:href="#u21397" />
    <use
       id="u21854"
       transform="translate(120)"
       xlink:href="#u21762" />
    <use
       id="u21856"
       transform="translate(0,65.5)"
       xlink:href="#u21852" />
  </g>
  <g
     id="heart_7"
     transform="translate(-719.99922,-360.00117)">
    <use
       transform="translate(720,360)"
       xlink:href="#card"
       id="use233" />
    <use
       transform="translate(720,360)"
       xlink:href="#fr"
       id="use234" />
    <use
       id="u21987"
       transform="translate(120)"
       xlink:href="#u21975" />
    <use
       id="u21989"
       transform="translate(120)"
       xlink:href="#u21977" />
    <use
       id="u21991"
       transform="translate(120)"
       xlink:href="#u21979" />
    <use
       id="u21993"
       transform="translate(120)"
       xlink:href="#u21981" />
    <use
       id="u21995"
       transform="translate(120)"
       xlink:href="#u21983" />
    <use
       id="u21997"
       transform="translate(120)"
       xlink:href="#u21985" />
    <use
       id="u21999"
       transform="translate(25,-32.75)"
       xlink:href="#u21991" />
    <use
       transform="translate(720,-0.1)"
       xlink:href="#pip_heart_S"
       id="use235" />
    <use
       transform="translate(720)"
       xlink:href="#u9338"
       id="use236" />
    <use
       transform="translate(719.99922,820.00117)"
       style="fill:#ee3333;stroke:#ee3333"
       xlink:href="#7"
       id="use237" />
    <use
       transform="rotate(180,420.00039,39.999417)"
       style="fill:#ee3333;stroke:#ee3333"
       xlink:href="#7"
       id="use238" />
  </g>
  <g
     id="heart_1"
     transform="translate(-719.99922,-360.00117)">
    <use
       id="pip_heart_S"
       transform="matrix(0.386,0,0,0.37,-12.38,225)"
       xlink:href="#pip_heart" />
    <use
       id="u9338"
       transform="rotate(180,60.044,450.05)"
       xlink:href="#pip_heart_S" />
    <path
       id="pip_heart"
       d="m 53,438 c -3.87,0 -7.25,2.5 -7.25,7 0,8.5 8.25,8.5 14.25,20 6,-11.5 14.25,-11.5 14.25,-20 0,-4.5 -3.38,-7 -7.25,-7 -3.5,0 -6,2 -7,5.25 C 59,440 56.5,438 53,438 Z"
       fill="#ee3333" />
  </g>
  <path
     id="7"
     d="m 7.380779,-453.30117 -0.63,4.33 0.69,0.14 c 0.66,-1.69 1.01,-2.01 2.989999,-2.01 h 2.81 c -2.58,4.02 -4.479999,7.86 -4.659999,13.54 h 2.569999 c -0.17,-5.2 0.75,-9.9 4.29,-14.74 l 0.07,-0.91 H 8.470779 c -0.22,0 -0.4,-0.21 -0.41,-0.35 z"
     stroke-width="0.25" />
  <g
     id="club_1"
     transform="translate(-719.99922,-360.00117)">
    <g
       id="card"
       transform="matrix(0.83103,0,0,0.83565,-1641.9,-580.27)">
      <rect
         id="card_face"
         x="1976.64"
         y="695.29498"
         width="142.60001"
         height="213.60001"
         rx="9.5"
         ry="9.5"
         fill="#ffffff"
         stroke="#333333"
         stroke-linejoin="round"
         stroke-width="1.8" />
    </g>
    <g
       id="fr">
      <rect
         x="7"
         y="7"
         width="106"
         height="166"
         rx="3"
         ry="3"
         fill="none"
         style="fill:#eeeedd"
         id="rect460" />
      <path
         d="M 18.5,7 H 110 c 1.66,0 3,1.34 3,3 v 129 m -12,34 H 10 c -1.66,0 -3,-1.34 -3,-3 V 41"
         style="fill:none;stroke:#aa8855"
         id="path460" />
    </g>
  </g>
</svg>
