<?xml version="1.0" encoding="UTF-8" standalone="no"?>
<svg
   width="120.00073"
   height="179.99901"
   version="1.1"
   viewBox="0 0 120.00073 179.99901"
   preserveAspectRatio="none"
   id="svg462"
   xmlns:xlink="http://www.w3.org/1999/xlink"
   xmlns="http://www.w3.org/2000/svg"
   xmlns:svg="http://www.w3.org/2000/svg">
  <defs
     id="defs462" />
  <g
     id="diamond_6"
     transform="translate(-839.99923,-180.00117)">
    <use
       id="u15224"
       transform="translate(120)"
       xlink:href="#u15214" />
    <use
       id="u15226"
       transform="translate(120)"
       xlink:href="#u15216" />
    <use
       id="u15228"
       transform="translate(120)"
       xlink:href="#u15218" />
    <use
       id="u15230"
       transform="translate(120)"
       xlink:href="#u15220" />
    <use
       id="u15232"
       transform="translate(0,62.5)"
       xlink:href="#u15224" />
    <use
       id="u15234"
       transform="translate(0,62.5)"
       xlink:href="#u15228" />
  </g>
  <g
     id="diamond_2"
     transform="translate(-839.99923,-180.00117)">
    <use
       id="u14700"
       transform="translate(120,-62.5)"
       xlink:href="#pip_diam" />
    <use
       id="u15110"
       transform="rotate(180,180,270)"
       xlink:href="#u14700" />
  </g>
  <g
     id="diamond_3"
     transform="translate(-839.99923,-180.00117)">
    <use
       id="u15200"
       transform="translate(120)"
       xlink:href="#u14700" />
    <use
       id="u15202"
       transform="translate(120)"
       xlink:href="#u15110" />
  </g>
  <g
     id="diamond_4"
     transform="translate(-839.99923,-180.00117)">
    <use
       id="u15206"
       transform="translate(95)"
       xlink:href="#u15200" />
    <use
       id="u15208"
       transform="translate(95.02)"
       xlink:href="#u15202" />
    <use
       id="u15210"
       transform="translate(50)"
       xlink:href="#u15206" />
    <use
       id="u15212"
       transform="translate(50)"
       xlink:href="#u15208" />
  </g>
  <g
     id="diamond_5"
     transform="translate(-839.99923,-180.00117)">
    <use
       id="u15214"
       transform="translate(120)"
       xlink:href="#u15206" />
    <use
       id="u15216"
       transform="translate(120)"
       xlink:href="#u15208" />
    <use
       id="u15218"
       transform="translate(120)"
       xlink:href="#u15210" />
    <use
       id="u15220"
       transform="translate(120)"
       xlink:href="#u15212" />
  </g>
  <g
     id="diamond_7"
     transform="translate(-839.99923,-180.00117)">
    <use
       id="u15236"
       transform="translate(120)"
       xlink:href="#u15224" />
    <use
       id="u15238"
       transform="translate(120)"
       xlink:href="#u15226" />
    <use
       id="u15240"
       transform="translate(120)"
       xlink:href="#u15228" />
    <use
       id="u15242"
       transform="translate(120)"
       xlink:href="#u15230" />
    <use
       id="u15244"
       transform="translate(120)"
       xlink:href="#u15232" />
    <use
       id="u15246"
       transform="translate(120)"
       xlink:href="#u15234" />
    <use
       id="u15248"
       transform="translate(25,31.25)"
       xlink:href="#u15236" />
  </g>
  <g
     id="diamond_8"
     transform="translate(-839.99923,-180.00117)">
    <use
       transform="translate(840,180)"
       xlink:href="#card"
       id="use142" />
    <use
       transform="translate(840,180)"
       xlink:href="#fr"
       id="use143" />
    <use
       id="u15936"
       transform="translate(120)"
       xlink:href="#u15236" />
    <use
       id="u15938"
       transform="translate(120)"
       xlink:href="#u15238" />
    <use
       id="u15940"
       transform="translate(120)"
       xlink:href="#u15240" />
    <use
       id="u15942"
       transform="translate(120)"
       xlink:href="#u15242" />
    <use
       id="u15944"
       transform="translate(120)"
       xlink:href="#u15244" />
    <use
       id="u15946"
       transform="translate(120)"
       xlink:href="#u15246" />
    <use
       id="u15948"
       transform="translate(120)"
       xlink:href="#u15248" />
    <use
       transform="translate(0,62.5)"
       xlink:href="#u15948"
       id="use144" />
    <use
       transform="translate(840)"
       xlink:href="#pip_diam_S"
       id="use145" />
    <use
       transform="translate(840)"
       xlink:href="#u5381"
       id="use146" />
    <use
       transform="translate(839.99923,460.00117)"
       style="fill:#ee3333;stroke:#ee3333"
       xlink:href="#8"
       id="use147" />
    <use
       transform="rotate(180,480.00039,39.999414)"
       style="fill:#ee3333;stroke:#ee3333"
       xlink:href="#8"
       id="use148" />
  </g>
  <g
     id="diamond_1"
     transform="translate(-839.99923,-180.00117)">
    <use
       id="u5381"
       transform="rotate(180,60.044,270)"
       xlink:href="#pip_diam_S" />
    <path
       id="pip_diam"
       d="m 60,254 c 3,8 8,13 16,16 -7.606,3.17 -13,8 -16,16 -3.09,-7.896 -8.213,-12.853 -16,-16 8,-3 13.298,-8.058 16,-16 z"
       fill="#ee3333" />
    <use
       id="pip_diam_S"
       transform="matrix(0.375,0,0,0.375,-11.74,111.1)"
       xlink:href="#pip_diam" />
  </g>
  <path
     id="8"
     d="m 10.960776,-273.35117 c -2.5499995,0 -3.8499995,1.66 -3.8399995,3.79 0.01,1.62 0.97,2.72 1.95,3.3 -2.12,1.05 -2.33,3.09 -2.32,4.21 0.03,2.24 0.78,4.7 4.1999995,4.7 2.78,0 4.2,-1.65 4.2,-4.63 0,-2.24 -0.41,-3.49 -2.32,-4.28 0.91,-0.54 1.95,-1.54 1.95,-3.3 0,-2.65 -1.8,-3.79 -3.83,-3.79 z m 0,0.91 c 1.44,-0.02 1.67,1.65 1.74,2.95 0,0.97 -0.29,2.88 -1.74,2.88 -1.3199995,0 -1.7399995,-1.55 -1.7399995,-2.95 0,-0.89 0.17,-2.86 1.7399995,-2.88 z m 0,6.6 c 1.91,-0.04 2.03,3.13 2.03,3.86 0,0.81 -0.12,3.79 -2.03,3.79 -1.9099995,0 -2.0299995,-2.97 -2.0299995,-3.79 0.04,-1.65 0.26,-3.83 2.0299995,-3.86 z"
     stroke-width="0.2" />
  <g
     id="club_1"
     transform="translate(-839.99923,-180.00117)">
    <g
       id="card"
       transform="matrix(0.83103,0,0,0.83565,-1641.9,-580.27)">
      <rect
         id="card_face"
         x="1976.64"
         y="695.29498"
         width="142.60001"
         height="213.60001"
         rx="9.5"
         ry="9.5"
         fill="#ffffff"
         stroke="#333333"
         stroke-linejoin="round"
         stroke-width="1.8" />
    </g>
    <g
       id="fr">
      <rect
         x="7"
         y="7"
         width="106"
         height="166"
         rx="3"
         ry="3"
         fill="none"
         style="fill:#eeeedd"
         id="rect460" />
      <path
         d="M 18.5,7 H 110 c 1.66,0 3,1.34 3,3 v 129 m -12,34 H 10 c -1.66,0 -3,-1.34 -3,-3 V 41"
         style="fill:none;stroke:#aa8855"
         id="path460" />
    </g>
  </g>
</svg>
