<?xml version="1.0" encoding="UTF-8" standalone="no"?>
<svg
   width="120.00073"
   height="179.99902"
   version="1.1"
   viewBox="0 0 120.00073 179.99902"
   preserveAspectRatio="none"
   id="svg462"
   xmlns:xlink="http://www.w3.org/1999/xlink"
   xmlns="http://www.w3.org/2000/svg"
   xmlns:svg="http://www.w3.org/2000/svg">
  <defs
     id="defs462" />
  <g
     id="heart_6"
     transform="translate(-839.99923,-360.00117)">
    <use
       id="u21975"
       transform="translate(335)"
       xlink:href="#u21852" />
    <use
       id="u21977"
       transform="translate(335)"
       xlink:href="#u21854" />
    <use
       id="u21979"
       transform="translate(335)"
       xlink:href="#u21856" />
    <use
       id="u21981"
       transform="translate(50)"
       xlink:href="#u21975" />
    <use
       id="u21983"
       transform="translate(50)"
       xlink:href="#u21977" />
    <use
       id="u21985"
       transform="translate(50)"
       xlink:href="#u21979" />
  </g>
  <g
     id="heart_2"
     transform="translate(-839.99923,-360.00117)">
    <use
       id="u21397"
       transform="translate(120,-65.5)"
       xlink:href="#pip_heart" />
    <use
       id="u21762"
       transform="rotate(180,180,450)"
       xlink:href="#u21397" />
  </g>
  <g
     id="heart_3"
     transform="translate(-839.99923,-360.00117)">
    <use
       id="u21852"
       transform="translate(120)"
       xlink:href="#u21397" />
    <use
       id="u21854"
       transform="translate(120)"
       xlink:href="#u21762" />
    <use
       id="u21856"
       transform="translate(0,65.5)"
       xlink:href="#u21852" />
  </g>
  <g
     id="heart_7"
     transform="translate(-839.99923,-360.00117)">
    <use
       id="u21987"
       transform="translate(120)"
       xlink:href="#u21975" />
    <use
       id="u21989"
       transform="translate(120)"
       xlink:href="#u21977" />
    <use
       id="u21991"
       transform="translate(120)"
       xlink:href="#u21979" />
    <use
       id="u21993"
       transform="translate(120)"
       xlink:href="#u21981" />
    <use
       id="u21995"
       transform="translate(120)"
       xlink:href="#u21983" />
    <use
       id="u21997"
       transform="translate(120)"
       xlink:href="#u21985" />
    <use
       id="u21999"
       transform="translate(25,-32.75)"
       xlink:href="#u21991" />
  </g>
  <g
     id="heart_8"
     transform="translate(-839.99923,-360.00117)">
    <use
       transform="translate(840,360)"
       xlink:href="#card"
       id="use239" />
    <use
       transform="translate(840,360)"
       xlink:href="#fr"
       id="use240" />
    <use
       id="u22001"
       transform="translate(120)"
       xlink:href="#u21987" />
    <use
       id="u22003"
       transform="translate(120)"
       xlink:href="#u21989" />
    <use
       transform="translate(120)"
       xlink:href="#u21991"
       id="use241" />
    <use
       id="u22007"
       transform="translate(120)"
       xlink:href="#u21993" />
    <use
       id="u22009"
       transform="translate(120)"
       xlink:href="#u21995" />
    <use
       id="u22011"
       transform="translate(120)"
       xlink:href="#u21997" />
    <use
       id="u22013"
       transform="translate(120)"
       xlink:href="#u21999" />
    <use
       transform="matrix(1,0,0,-1,0,901.5)"
       xlink:href="#u22013"
       id="use242" />
    <use
       transform="translate(840,-0.1)"
       xlink:href="#pip_heart_S"
       id="use243" />
    <use
       transform="translate(840)"
       xlink:href="#u9338"
       id="use244" />
    <use
       transform="translate(839.99923,820.00117)"
       style="fill:#ee3333;stroke:#ee3333"
       xlink:href="#8"
       id="use245" />
    <use
       transform="rotate(180,480.00039,39.999417)"
       style="fill:#ee3333"
       xlink:href="#8"
       id="use246" />
  </g>
  <g
     id="heart_1"
     transform="translate(-839.99923,-360.00117)">
    <use
       id="pip_heart_S"
       transform="matrix(0.386,0,0,0.37,-12.38,225)"
       xlink:href="#pip_heart" />
    <use
       id="u9338"
       transform="rotate(180,60.044,450.05)"
       xlink:href="#pip_heart_S" />
    <path
       id="pip_heart"
       d="m 53,438 c -3.87,0 -7.25,2.5 -7.25,7 0,8.5 8.25,8.5 14.25,20 6,-11.5 14.25,-11.5 14.25,-20 0,-4.5 -3.38,-7 -7.25,-7 -3.5,0 -6,2 -7,5.25 C 59,440 56.5,438 53,438 Z"
       fill="#ee3333" />
  </g>
  <path
     id="8"
     d="m 10.960776,-453.35117 c -2.5499995,0 -3.8499995,1.66 -3.8399995,3.79 0.01,1.62 0.97,2.72 1.95,3.3 -2.12,1.05 -2.33,3.09 -2.32,4.21 0.03,2.24 0.78,4.7 4.1999995,4.7 2.78,0 4.2,-1.65 4.2,-4.63 0,-2.24 -0.41,-3.49 -2.32,-4.28 0.91,-0.54 1.95,-1.54 1.95,-3.3 0,-2.65 -1.8,-3.79 -3.83,-3.79 z m 0,0.91 c 1.44,-0.02 1.67,1.65 1.74,2.95 0,0.97 -0.29,2.88 -1.74,2.88 -1.3199995,0 -1.7399995,-1.55 -1.7399995,-2.95 0,-0.89 0.17,-2.86 1.7399995,-2.88 z m 0,6.6 c 1.91,-0.04 2.03,3.13 2.03,3.86 0,0.81 -0.12,3.79 -2.03,3.79 -1.9099995,0 -2.0299995,-2.97 -2.0299995,-3.79 0.04,-1.65 0.26,-3.83 2.0299995,-3.86 z"
     stroke-width="0.2" />
  <g
     id="club_1"
     transform="translate(-839.99923,-360.00117)">
    <g
       id="card"
       transform="matrix(0.83103,0,0,0.83565,-1641.9,-580.27)">
      <rect
         id="card_face"
         x="1976.64"
         y="695.29498"
         width="142.60001"
         height="213.60001"
         rx="9.5"
         ry="9.5"
         fill="#ffffff"
         stroke="#333333"
         stroke-linejoin="round"
         stroke-width="1.8" />
    </g>
    <g
       id="fr">
      <rect
         x="7"
         y="7"
         width="106"
         height="166"
         rx="3"
         ry="3"
         fill="none"
         style="fill:#eeeedd"
         id="rect460" />
      <path
         d="M 18.5,7 H 110 c 1.66,0 3,1.34 3,3 v 129 m -12,34 H 10 c -1.66,0 -3,-1.34 -3,-3 V 41"
         style="fill:none;stroke:#aa8855"
         id="path460" />
    </g>
  </g>
</svg>
