<?xml version="1.0" encoding="UTF-8" standalone="no"?>
<svg
   width="120.00073"
   height="179.99902"
   version="1.1"
   viewBox="0 0 120.00073 179.99902"
   preserveAspectRatio="none"
   id="svg462"
   xmlns:xlink="http://www.w3.org/1999/xlink"
   xmlns="http://www.w3.org/2000/svg"
   xmlns:svg="http://www.w3.org/2000/svg">
  <defs
     id="defs462" />
  <g
     id="spade_6"
     transform="translate(-839.99923,-540.00117)">
    <use
       id="u32996"
       transform="translate(334.94)"
       xlink:href="#u32170" />
    <use
       id="u32998"
       transform="translate(334.94)"
       xlink:href="#u32172" />
    <use
       id="u33000"
       transform="translate(334.94)"
       xlink:href="#u32174" />
    <use
       id="u33002"
       transform="translate(50)"
       xlink:href="#u32996" />
    <use
       id="u33004"
       transform="translate(50)"
       xlink:href="#u32998" />
    <use
       id="u33006"
       transform="translate(50)"
       xlink:href="#u33000" />
  </g>
  <g
     id="spade_2"
     transform="translate(-839.99923,-540.00117)">
    <use
       id="u28846"
       transform="translate(120,-62.75)"
       xlink:href="#pip_spade" />
    <use
       id="u29400"
       transform="rotate(180,180.04,630)"
       xlink:href="#u28846" />
  </g>
  <g
     id="spade_3"
     transform="translate(-839.99923,-540.00117)">
    <use
       id="u32170"
       transform="translate(120)"
       xlink:href="#u28846" />
    <use
       id="u32172"
       transform="translate(120)"
       xlink:href="#u29400" />
    <use
       id="u32174"
       transform="translate(240)"
       xlink:href="#pip_spade" />
  </g>
  <g
     id="spade_7"
     transform="translate(-839.99923,-540.00117)">
    <use
       id="u33008"
       transform="translate(120)"
       xlink:href="#u32996" />
    <use
       id="u33010"
       transform="translate(120)"
       xlink:href="#u32998" />
    <use
       id="u33012"
       transform="translate(120)"
       xlink:href="#u33000" />
    <use
       id="u33014"
       transform="translate(120)"
       xlink:href="#u33002" />
    <use
       id="u33016"
       transform="translate(120)"
       xlink:href="#u33004" />
    <use
       id="u33018"
       transform="translate(120)"
       xlink:href="#u33006" />
    <use
       id="u33020"
       transform="translate(25,31.375)"
       xlink:href="#u33008" />
  </g>
  <g
     id="spade_8"
     transform="translate(-839.99923,-540.00117)">
    <use
       transform="translate(840,540)"
       xlink:href="#card"
       id="use338" />
    <use
       transform="translate(840,540)"
       xlink:href="#fr"
       id="use339" />
    <use
       id="u33022"
       transform="translate(120)"
       xlink:href="#u33008" />
    <use
       id="u33024"
       transform="translate(120)"
       xlink:href="#u33010" />
    <use
       id="u33026"
       transform="translate(120)"
       xlink:href="#u33012" />
    <use
       id="u33028"
       transform="translate(120)"
       xlink:href="#u33014" />
    <use
       id="u33030"
       transform="translate(120)"
       xlink:href="#u33016" />
    <use
       id="u33032"
       transform="translate(120)"
       xlink:href="#u33018" />
    <use
       transform="translate(120)"
       xlink:href="#u33020"
       id="use340" />
    <use
       transform="translate(25,-31.375)"
       xlink:href="#u33024"
       id="use341" />
    <use
       transform="translate(840)"
       xlink:href="#pip_spade_S"
       id="use342" />
    <use
       transform="translate(840)"
       xlink:href="#u10961"
       id="use343" />
    <use
       transform="translate(839.99923,1180.0012)"
       style="fill:#333333;stroke:#333333"
       xlink:href="#8"
       id="use344" />
    <use
       transform="rotate(180,480.00039,39.999415)"
       style="fill:#333333;stroke:#333333"
       xlink:href="#8"
       id="use345" />
  </g>
  <path
     id="8"
     d="m 10.960776,-633.35117 c -2.5499995,0 -3.8499995,1.66 -3.8399995,3.79 0.01,1.62 0.97,2.72 1.95,3.3 -2.12,1.05 -2.33,3.09 -2.32,4.21 0.03,2.24 0.78,4.7 4.1999995,4.7 2.78,0 4.2,-1.65 4.2,-4.63 0,-2.24 -0.41,-3.49 -2.32,-4.28 0.91,-0.54 1.95,-1.54 1.95,-3.3 0,-2.65 -1.8,-3.79 -3.83,-3.79 z m 0,0.91 c 1.44,-0.02 1.67,1.65 1.74,2.95 0,0.97 -0.29,2.88 -1.74,2.88 -1.3199995,0 -1.7399995,-1.55 -1.7399995,-2.95 0,-0.89 0.17,-2.86 1.7399995,-2.88 z m 0,6.6 c 1.91,-0.04 2.03,3.13 2.03,3.86 0,0.81 -0.12,3.79 -2.03,3.79 -1.9099995,0 -2.0299995,-2.97 -2.0299995,-3.79 0.04,-1.65 0.26,-3.83 2.0299995,-3.86 z"
     stroke-width="0.2" />
  <g
     id="spade_1"
     transform="translate(-839.99923,-540.00117)">
    <use
       id="u10961"
       transform="rotate(180,60.044,630)"
       xlink:href="#pip_spade_S" />
    <use
       id="pip_spade_S"
       transform="matrix(0.4,0,0,0.4,-13.24,320.3)"
       xlink:href="#pip_spade" />
    <path
       id="pip_spade"
       d="M 60,614.25 C 55,624.75 46,624 46,632 c 0,4 2.5,6.75 6.5,6.75 3.5,0 5.5,-1.75 6.37,-3.5 -0.03,5.4 -0.7,7.74 -3.62,9.2 l 1.2,1.3 c 0,0 1.55,-1.25 3.55,-1.25 2,0 3.55,1.25 3.55,1.25 l 1.2,-1.3 c -2.92,-1.46 -3.59,-3.8 -3.62,-9.2 0.87,1.75 2.87,3.5 6.37,3.5 4,0 6.5,-2.75 6.5,-6.75 0,-8 -9,-7.25 -14,-17.75 z"
       style="fill:#333333" />
  </g>
  <g
     id="club_1"
     transform="translate(-839.99923,-540.00117)">
    <g
       id="card"
       transform="matrix(0.83103,0,0,0.83565,-1641.9,-580.27)">
      <rect
         id="card_face"
         x="1976.64"
         y="695.29498"
         width="142.60001"
         height="213.60001"
         rx="9.5"
         ry="9.5"
         fill="#ffffff"
         stroke="#333333"
         stroke-linejoin="round"
         stroke-width="1.8" />
    </g>
    <g
       id="fr">
      <rect
         x="7"
         y="7"
         width="106"
         height="166"
         rx="3"
         ry="3"
         fill="none"
         style="fill:#eeeedd"
         id="rect460" />
      <path
         d="M 18.5,7 H 110 c 1.66,0 3,1.34 3,3 v 129 m -12,34 H 10 c -1.66,0 -3,-1.34 -3,-3 V 41"
         style="fill:none;stroke:#aa8855"
         id="path460" />
    </g>
  </g>
</svg>
