<?xml version="1.0" encoding="UTF-8" standalone="no"?>
<svg
   width="120.00079"
   height="179.99901"
   version="1.1"
   viewBox="0 0 120.00079 179.99901"
   preserveAspectRatio="none"
   id="svg462"
   xmlns:xlink="http://www.w3.org/1999/xlink"
   xmlns="http://www.w3.org/2000/svg"
   xmlns:svg="http://www.w3.org/2000/svg">
  <defs
     id="defs462" />
  <g
     id="diamond_6"
     transform="translate(-959.99924,-180.00117)">
    <use
       id="u15224"
       transform="translate(120)"
       xlink:href="#u15214" />
    <use
       id="u15226"
       transform="translate(120)"
       xlink:href="#u15216" />
    <use
       id="u15228"
       transform="translate(120)"
       xlink:href="#u15218" />
    <use
       id="u15230"
       transform="translate(120)"
       xlink:href="#u15220" />
    <use
       id="u15232"
       transform="translate(0,62.5)"
       xlink:href="#u15224" />
    <use
       id="u15234"
       transform="translate(0,62.5)"
       xlink:href="#u15228" />
  </g>
  <g
     id="diamond_2"
     transform="translate(-959.99924,-180.00117)">
    <use
       id="u14700"
       transform="translate(120,-62.5)"
       xlink:href="#pip_diam" />
    <use
       id="u15110"
       transform="rotate(180,180,270)"
       xlink:href="#u14700" />
  </g>
  <g
     id="diamond_3"
     transform="translate(-959.99924,-180.00117)">
    <use
       id="u15200"
       transform="translate(120)"
       xlink:href="#u14700" />
    <use
       id="u15202"
       transform="translate(120)"
       xlink:href="#u15110" />
  </g>
  <g
     id="diamond_4"
     transform="translate(-959.99924,-180.00117)">
    <use
       id="u15206"
       transform="translate(95)"
       xlink:href="#u15200" />
    <use
       id="u15208"
       transform="translate(95.02)"
       xlink:href="#u15202" />
    <use
       id="u15210"
       transform="translate(50)"
       xlink:href="#u15206" />
    <use
       id="u15212"
       transform="translate(50)"
       xlink:href="#u15208" />
  </g>
  <g
     id="diamond_5"
     transform="translate(-959.99924,-180.00117)">
    <use
       id="u15214"
       transform="translate(120)"
       xlink:href="#u15206" />
    <use
       id="u15216"
       transform="translate(120)"
       xlink:href="#u15208" />
    <use
       id="u15218"
       transform="translate(120)"
       xlink:href="#u15210" />
    <use
       id="u15220"
       transform="translate(120)"
       xlink:href="#u15212" />
  </g>
  <g
     id="diamond_7"
     transform="translate(-959.99924,-180.00117)">
    <use
       id="u15236"
       transform="translate(120)"
       xlink:href="#u15224" />
    <use
       id="u15238"
       transform="translate(120)"
       xlink:href="#u15226" />
    <use
       id="u15240"
       transform="translate(120)"
       xlink:href="#u15228" />
    <use
       id="u15242"
       transform="translate(120)"
       xlink:href="#u15230" />
    <use
       id="u15244"
       transform="translate(120)"
       xlink:href="#u15232" />
    <use
       id="u15246"
       transform="translate(120)"
       xlink:href="#u15234" />
  </g>
  <g
     id="diamond_8"
     transform="translate(-959.99924,-180.00117)">
    <use
       id="u15936"
       transform="translate(120)"
       xlink:href="#u15236" />
    <use
       id="u15938"
       transform="translate(120)"
       xlink:href="#u15238" />
    <use
       id="u15940"
       transform="translate(120)"
       xlink:href="#u15240" />
    <use
       id="u15942"
       transform="translate(120)"
       xlink:href="#u15242" />
    <use
       id="u15944"
       transform="translate(120)"
       xlink:href="#u15244" />
    <use
       id="u15946"
       transform="translate(120)"
       xlink:href="#u15246" />
  </g>
  <g
     id="diamond_9"
     transform="translate(-959.99924,-180.00117)">
    <use
       transform="translate(960,180)"
       xlink:href="#card"
       id="use149" />
    <use
       transform="translate(960,180)"
       xlink:href="#fr"
       id="use150" />
    <use
       id="u16089"
       transform="translate(120)"
       xlink:href="#u15936" />
    <use
       id="u16091"
       transform="translate(120)"
       xlink:href="#u15938" />
    <use
       id="u16093"
       transform="translate(120)"
       xlink:href="#u15940" />
    <use
       id="u16095"
       transform="translate(120)"
       xlink:href="#u15942" />
    <use
       id="u16097"
       transform="translate(120,20.833)"
       xlink:href="#u15944" />
    <use
       id="u16099"
       transform="translate(120,20.833)"
       xlink:href="#u15946" />
    <use
       id="u16101"
       transform="translate(0,41.667)"
       xlink:href="#u16089" />
    <use
       id="u16103"
       transform="translate(0,41.667)"
       xlink:href="#u16093" />
    <use
       transform="translate(25,-20.833)"
       xlink:href="#u16097"
       id="use151" />
    <use
       transform="translate(960)"
       xlink:href="#pip_diam_S"
       id="use152" />
    <use
       transform="translate(960)"
       xlink:href="#u5381"
       id="use153" />
    <use
       transform="translate(959.99924,460.00117)"
       style="fill:#ee3333;stroke:#ee3333"
       xlink:href="#9"
       id="use154" />
    <use
       transform="rotate(180,540.00039,39.999414)"
       style="fill:#ee3333;stroke:#ee3333"
       xlink:href="#9"
       id="use155" />
  </g>
  <g
     id="diamond_1"
     transform="translate(-959.99924,-180.00117)">
    <use
       id="u5381"
       transform="rotate(180,60.044,270)"
       xlink:href="#pip_diam_S" />
    <path
       id="pip_diam"
       d="m 60,254 c 3,8 8,13 16,16 -7.606,3.17 -13,8 -16,16 -3.09,-7.896 -8.213,-12.853 -16,-16 8,-3 13.298,-8.058 16,-16 z"
       fill="#ee3333" />
    <use
       id="pip_diam_S"
       transform="matrix(0.375,0,0,0.375,-11.74,111.1)"
       xlink:href="#pip_diam" />
  </g>
  <path
     id="9"
     d="m 10.660765,-258.39117 c 2.22,-0.05 2.43,-4.02 2.46,-6.19 -0.52,0.53 -1.31,0.99 -2.19,0.98 -2.6199992,-0.03 -4.2699992,-2.11 -4.2699992,-4.96 0,-1.66 0.59,-4.73 4.2099992,-4.73 2.37,0 4.28,1.53 4.38,6.57 0,5.13 -0.68,9.33 -4.53,9.33 -1.9499992,0 -3.6099992,-1.19 -3.6099992,-3.18 0,-0.95 0.52,-1.74 1.52,-1.74 0.73,0 1.35,0.48 1.35,1.38 0,0.47 -0.25,1.27 -1.13,1.48 0.32,0.73 1.13,1.07 1.8099992,1.06 z m 2.36,-10.11 c -0.01,-1.26 -0.38,-3.81 -2.07,-3.79 -1.5399992,0.02 -2.2099992,1.2 -2.2099992,3.79 0,1.12 0.14,3.53 2.2099992,3.53 2.08,0 2.08,-3 2.07,-3.53 z"
     stroke-width="0.2" />
  <g
     id="club_1"
     transform="translate(-959.99924,-180.00117)">
    <g
       id="card"
       transform="matrix(0.83103,0,0,0.83565,-1641.9,-580.27)">
      <rect
         id="card_face"
         x="1976.64"
         y="695.29498"
         width="142.60001"
         height="213.60001"
         rx="9.5"
         ry="9.5"
         fill="#ffffff"
         stroke="#333333"
         stroke-linejoin="round"
         stroke-width="1.8" />
    </g>
    <g
       id="fr">
      <rect
         x="7"
         y="7"
         width="106"
         height="166"
         rx="3"
         ry="3"
         fill="none"
         style="fill:#eeeedd"
         id="rect460" />
      <path
         d="M 18.5,7 H 110 c 1.66,0 3,1.34 3,3 v 129 m -12,34 H 10 c -1.66,0 -3,-1.34 -3,-3 V 41"
         style="fill:none;stroke:#aa8855"
         id="path460" />
    </g>
  </g>
</svg>
