<?xml version="1.0" encoding="UTF-8" standalone="no"?>
<svg
   width="120.00079"
   height="179.99902"
   version="1.1"
   viewBox="0 0 120.00079 179.99902"
   preserveAspectRatio="none"
   id="svg462"
   xmlns:xlink="http://www.w3.org/1999/xlink"
   xmlns="http://www.w3.org/2000/svg"
   xmlns:svg="http://www.w3.org/2000/svg">
  <defs
     id="defs462" />
  <g
     id="heart_6"
     transform="translate(-959.99924,-360.00117)">
    <use
       id="u21975"
       transform="translate(335)"
       xlink:href="#u21852" />
    <use
       id="u21977"
       transform="translate(335)"
       xlink:href="#u21854" />
    <use
       id="u21979"
       transform="translate(335)"
       xlink:href="#u21856" />
    <use
       id="u21981"
       transform="translate(50)"
       xlink:href="#u21975" />
    <use
       id="u21983"
       transform="translate(50)"
       xlink:href="#u21977" />
    <use
       id="u21985"
       transform="translate(50)"
       xlink:href="#u21979" />
  </g>
  <g
     id="heart_2"
     transform="translate(-959.99924,-360.00117)">
    <use
       id="u21397"
       transform="translate(120,-65.5)"
       xlink:href="#pip_heart" />
    <use
       id="u21762"
       transform="rotate(180,180,450)"
       xlink:href="#u21397" />
  </g>
  <g
     id="heart_3"
     transform="translate(-959.99924,-360.00117)">
    <use
       id="u21852"
       transform="translate(120)"
       xlink:href="#u21397" />
    <use
       id="u21854"
       transform="translate(120)"
       xlink:href="#u21762" />
    <use
       id="u21856"
       transform="translate(0,65.5)"
       xlink:href="#u21852" />
  </g>
  <g
     id="heart_7"
     transform="translate(-959.99924,-360.00117)">
    <use
       id="u21987"
       transform="translate(120)"
       xlink:href="#u21975" />
    <use
       id="u21989"
       transform="translate(120)"
       xlink:href="#u21977" />
    <use
       id="u21993"
       transform="translate(120)"
       xlink:href="#u21981" />
    <use
       id="u21995"
       transform="translate(120)"
       xlink:href="#u21983" />
    <use
       id="u21997"
       transform="translate(120)"
       xlink:href="#u21985" />
  </g>
  <g
     id="heart_8"
     transform="translate(-959.99924,-360.00117)">
    <use
       id="u22001"
       transform="translate(120)"
       xlink:href="#u21987" />
    <use
       id="u22003"
       transform="translate(120)"
       xlink:href="#u21989" />
    <use
       id="u22007"
       transform="translate(120)"
       xlink:href="#u21993" />
    <use
       id="u22009"
       transform="translate(120)"
       xlink:href="#u21995" />
    <use
       id="u22011"
       transform="translate(120)"
       xlink:href="#u21997" />
  </g>
  <g
     id="heart_9"
     transform="translate(-959.99924,-360.00117)">
    <use
       transform="translate(960,360)"
       xlink:href="#card"
       id="use247" />
    <use
       transform="translate(960,360)"
       xlink:href="#fr"
       id="use248" />
    <use
       id="u22788"
       transform="translate(120)"
       xlink:href="#u22001" />
    <use
       id="u22790"
       transform="translate(120)"
       xlink:href="#u22003" />
    <use
       id="u22794"
       transform="translate(120)"
       xlink:href="#u22007" />
    <use
       id="u22796"
       transform="translate(120)"
       xlink:href="#u22009" />
    <use
       id="u22798"
       transform="translate(120,-22.833)"
       xlink:href="#u22011" />
    <use
       id="u22804"
       transform="translate(0,-42.667)"
       xlink:href="#u22790" />
    <use
       id="u22806"
       transform="translate(0,-42.667)"
       xlink:href="#u22796" />
    <use
       id="u73669"
       transform="translate(70,-22.833)"
       xlink:href="#u22011" />
    <use
       transform="translate(24.97,24.333)"
       xlink:href="#u73669"
       id="use249" />
    <use
       transform="translate(960,-0.1)"
       xlink:href="#pip_heart_S"
       id="use250" />
    <use
       transform="translate(960)"
       xlink:href="#u9338"
       id="use251" />
    <use
       transform="translate(959.99924,820.00117)"
       style="fill:#ee3333;stroke:#ee3333"
       xlink:href="#9"
       id="use252" />
    <use
       transform="rotate(180,540.00039,39.999417)"
       style="fill:#ee3333;stroke:#ee3333"
       xlink:href="#9"
       id="use253" />
  </g>
  <g
     id="heart_1"
     transform="translate(-959.99924,-360.00117)">
    <use
       id="pip_heart_S"
       transform="matrix(0.386,0,0,0.37,-12.38,225)"
       xlink:href="#pip_heart" />
    <use
       id="u9338"
       transform="rotate(180,60.044,450.05)"
       xlink:href="#pip_heart_S" />
    <path
       id="pip_heart"
       d="m 53,438 c -3.87,0 -7.25,2.5 -7.25,7 0,8.5 8.25,8.5 14.25,20 6,-11.5 14.25,-11.5 14.25,-20 0,-4.5 -3.38,-7 -7.25,-7 -3.5,0 -6,2 -7,5.25 C 59,440 56.5,438 53,438 Z"
       fill="#ee3333" />
  </g>
  <path
     id="9"
     d="m 10.660765,-438.39117 c 2.22,-0.05 2.43,-4.02 2.46,-6.19 -0.52,0.53 -1.31,0.99 -2.19,0.98 -2.6199992,-0.03 -4.2699992,-2.11 -4.2699992,-4.96 0,-1.66 0.59,-4.73 4.2099992,-4.73 2.37,0 4.28,1.53 4.38,6.57 0,5.13 -0.68,9.33 -4.53,9.33 -1.9499992,0 -3.6099992,-1.19 -3.6099992,-3.18 0,-0.95 0.52,-1.74 1.52,-1.74 0.73,0 1.35,0.48 1.35,1.38 0,0.47 -0.25,1.27 -1.13,1.48 0.32,0.73 1.13,1.07 1.8099992,1.06 z m 2.36,-10.11 c -0.01,-1.26 -0.38,-3.81 -2.07,-3.79 -1.5399992,0.02 -2.2099992,1.2 -2.2099992,3.79 0,1.12 0.14,3.53 2.2099992,3.53 2.08,0 2.08,-3 2.07,-3.53 z"
     stroke-width="0.2" />
  <g
     id="club_1"
     transform="translate(-959.99924,-360.00117)">
    <g
       id="card"
       transform="matrix(0.83103,0,0,0.83565,-1641.9,-580.27)">
      <rect
         id="card_face"
         x="1976.64"
         y="695.29498"
         width="142.60001"
         height="213.60001"
         rx="9.5"
         ry="9.5"
         fill="#ffffff"
         stroke="#333333"
         stroke-linejoin="round"
         stroke-width="1.8" />
    </g>
    <g
       id="fr">
      <rect
         x="7"
         y="7"
         width="106"
         height="166"
         rx="3"
         ry="3"
         fill="none"
         style="fill:#eeeedd"
         id="rect460" />
      <path
         d="M 18.5,7 H 110 c 1.66,0 3,1.34 3,3 v 129 m -12,34 H 10 c -1.66,0 -3,-1.34 -3,-3 V 41"
         style="fill:none;stroke:#aa8855"
         id="path460" />
    </g>
  </g>
</svg>
