<?xml version="1.0" encoding="UTF-8" standalone="no"?>
<svg
   width="120.00074"
   height="179.99902"
   version="1.1"
   viewBox="0 0 120.00074 179.99902"
   preserveAspectRatio="none"
   id="svg462"
   xmlns:xlink="http://www.w3.org/1999/xlink"
   xmlns="http://www.w3.org/2000/svg"
   xmlns:svg="http://www.w3.org/2000/svg">
  <defs
     id="defs462" />
  <path
     id="A"
     d="m 10.770776,-90.801167 -3.7200004,14.29 c -0.25,0.8 -0.66,0.93 -1.49,1 v 0.71 h 4.05 v -0.78 c -1.49,0 -1.64,-0.34 -1.49,-0.93 l 0.71,-2.79 h 3.4700004 l 0.7,2.87 c 0.21,0.85 -0.58,0.83 -1.41,0.92 v 0.71 h 5.46 v -0.78 c -0.89,-0.04 -1.22,-0.12 -1.41,-0.85 l -3.72,-14.37 z m -0.17,4.55 1.45,5.95 H 9.0807756 Z"
     stroke-width="0.2" />
  <g
     id="club_1"
     transform="translate(7.756069e-4,-0.00116749)">
    <g
       id="card"
       transform="matrix(0.83103,0,0,0.83565,-1641.9,-580.27)">
      <rect
         id="card_face"
         x="1976.64"
         y="695.29498"
         width="142.60001"
         height="213.60001"
         rx="9.5"
         ry="9.5"
         fill="#ffffff"
         stroke="#333333"
         stroke-linejoin="round"
         stroke-width="1.8" />
    </g>
    <g
       id="fr">
      <rect
         x="7"
         y="7"
         width="106"
         height="166"
         rx="3"
         ry="3"
         fill="none"
         style="fill:#eeeedd"
         id="rect460" />
      <path
         d="M 18.5,7 H 110 c 1.66,0 3,1.34 3,3 v 129 m -12,34 H 10 c -1.66,0 -3,-1.34 -3,-3 V 41"
         style="fill:none;stroke:#aa8855"
         id="path460" />
    </g>
    <use
       id="u2940"
       transform="rotate(180,60.044,90)"
       xlink:href="#pip_club_S" />
    <use
       id="pip_club_S"
       transform="matrix(0.367,0,0,0.367,-11.04,-1.24)"
       xlink:href="#pip_club" />
    <use
       transform="translate(-7.756069e-4,97.501167)"
       style="fill:#333333;stroke:#333333"
       xlink:href="#A"
       id="use461" />
    <use
       transform="rotate(180,60.000388,41.249416)"
       style="fill:#333333;stroke:#333333"
       xlink:href="#A"
       id="use462" />
    <path
       id="pip_club"
       d="m 60,75 c -4.9,0 -7.35,5.92 -3.89,9.39 1,1 2.89,1.81 2.89,3.81 0,1.2 -0.97,2 -1.8,2 -2.76,0 -2.34,-4.7 -7.2,-4.7 -3.04,0 -5.5,2.46 -5.5,5.5 0,3.04 2.46,5.5 5.5,5.5 4.65,0 4.3,-4.3 7.2,-4.3 0.83,0 1.8,0.6 1.8,1.6 0,7.7 -2,8.2 -4.2,9.9 L 56,105 c 0,0 1.6,-1.5 4,-1.5 2.4,0 4,1.5 4,1.5 l 1.2,-1.3 C 63,102 61,101.5 61,93.8 c 0,-1 0.97,-1.6 1.8,-1.6 2.9,0 2.56,4.3 7.2,4.3 3.04,0 5.5,-2.46 5.5,-5.5 0,-3.04 -2.46,-5.5 -5.5,-5.5 -4.86,0 -4.44,4.7 -7.2,4.7 -0.83,0 -1.8,-0.8 -1.8,-2 0,-2 1.89,-2.81 2.89,-3.81 C 67.35,80.92 64.9,75 60,75 Z m 0,15.1 1,1 -1,1 -1,-1 z"
       style="fill:#333333" />
  </g>
</svg>
