<?xml version="1.0" encoding="UTF-8" standalone="no"?>
<svg
   width="120.00074"
   height="179.99902"
   version="1.1"
   viewBox="0 0 120.00074 179.99902"
   preserveAspectRatio="none"
   id="svg462"
   xmlns:xlink="http://www.w3.org/1999/xlink"
   xmlns="http://www.w3.org/2000/svg"
   xmlns:svg="http://www.w3.org/2000/svg">
  <defs
     id="defs462" />
  <path
     id="A"
     d="m 10.770776,-630.80117 -3.7200004,14.29 c -0.25,0.8 -0.66,0.93 -1.49,1 v 0.71 h 4.05 v -0.78 c -1.49,0 -1.64,-0.34 -1.49,-0.93 l 0.71,-2.79 h 3.4700004 l 0.7,2.87 c 0.21,0.85 -0.58,0.83 -1.41,0.92 v 0.71 h 5.46 v -0.78 c -0.89,-0.04 -1.22,-0.12 -1.41,-0.85 l -3.72,-14.37 z m -0.17,4.55 1.45,5.95 H 9.0807756 Z"
     stroke-width="0.2" />
  <g
     id="spade_1"
     transform="translate(7.756069e-4,-540.00117)">
    <use
       transform="translate(0,540)"
       xlink:href="#card"
       id="use457" />
    <use
       transform="translate(0,540)"
       xlink:href="#fr"
       id="use458" />
    <use
       id="u10961"
       transform="rotate(180,60.044,630)"
       xlink:href="#pip_spade_S" />
    <use
       id="pip_spade_S"
       transform="matrix(0.4,0,0,0.4,-13.24,320.3)"
       xlink:href="#pip_spade" />
    <use
       transform="translate(-7.756069e-4,1177.5012)"
       style="fill:#333333;stroke:#333333"
       xlink:href="#A"
       id="use459" />
    <use
       transform="rotate(180,60.000388,41.249415)"
       style="fill:#333333;stroke:#333333"
       xlink:href="#A"
       id="use460" />
    <path
       id="pip_spade"
       d="M 60,614.25 C 55,624.75 46,624 46,632 c 0,4 2.5,6.75 6.5,6.75 3.5,0 5.5,-1.75 6.37,-3.5 -0.03,5.4 -0.7,7.74 -3.62,9.2 l 1.2,1.3 c 0,0 1.55,-1.25 3.55,-1.25 2,0 3.55,1.25 3.55,1.25 l 1.2,-1.3 c -2.92,-1.46 -3.59,-3.8 -3.62,-9.2 0.87,1.75 2.87,3.5 6.37,3.5 4,0 6.5,-2.75 6.5,-6.75 0,-8 -9,-7.25 -14,-17.75 z"
       style="fill:#333333" />
  </g>
  <g
     id="club_1"
     transform="translate(7.756069e-4,-540.00117)">
    <g
       id="card"
       transform="matrix(0.83103,0,0,0.83565,-1641.9,-580.27)">
      <rect
         id="card_face"
         x="1976.64"
         y="695.29498"
         width="142.60001"
         height="213.60001"
         rx="9.5"
         ry="9.5"
         fill="#ffffff"
         stroke="#333333"
         stroke-linejoin="round"
         stroke-width="1.8" />
    </g>
    <g
       id="fr">
      <rect
         x="7"
         y="7"
         width="106"
         height="166"
         rx="3"
         ry="3"
         fill="none"
         style="fill:#eeeedd"
         id="rect460" />
      <path
         d="M 18.5,7 H 110 c 1.66,0 3,1.34 3,3 v 129 m -12,34 H 10 c -1.66,0 -3,-1.34 -3,-3 V 41"
         style="fill:none;stroke:#aa8855"
         id="path460" />
    </g>
  </g>
</svg>
