<?xml version="1.0" encoding="UTF-8" standalone="no"?>
<svg
   width="120.00075"
   height="179.99902"
   version="1.1"
   viewBox="0 0 120.00075 179.99902"
   preserveAspectRatio="none"
   id="svg462"
   xmlns:xlink="http://www.w3.org/1999/xlink"
   xmlns="http://www.w3.org/2000/svg"
   xmlns:svg="http://www.w3.org/2000/svg">
  <defs
     id="defs462" />
  <g
     id="joker_black"
     transform="translate(-239.99922,-720.00117)">
    <use
       id="u6031"
       transform="translate(0,720)"
       xlink:href="#card" />
  </g>
  <g
     id="joker_red"
     transform="translate(-239.99922,-720.00117)">
    <use
       id="u6035"
       transform="translate(120)"
       xlink:href="#u6031" />
  </g>
  <g
     id="back"
     transform="translate(-239.99922,-720.00117)">
    <use
       transform="translate(120)"
       xlink:href="#u6035"
       id="use387" />
    <rect
       x="247"
       y="727"
       width="106"
       height="166"
       rx="3"
       ry="3"
       stroke="#226644"
       style="fill:#eeeedd"
       id="rect387" />
    <use
       transform="translate(0,-39.875)"
       xlink:href="#b0"
       id="use388" />
    <use
       transform="translate(13.214,-39.875)"
       xlink:href="#b0"
       id="use389" />
    <use
       transform="translate(26.429,-39.875)"
       xlink:href="#b0"
       id="use390" />
    <use
       transform="translate(0,-39.875)"
       xlink:href="#b4"
       id="use391" />
    <use
       transform="translate(13.214,-39.875)"
       xlink:href="#b4"
       id="use392" />
    <use
       transform="translate(26.429,-39.875)"
       xlink:href="#b4"
       id="use393" />
    <g
       id="bg">
      <path
         id="b3"
         d="m 251.8,886.8 h 4 c 0.6,0 1,0.4 1,1 v 0.5 c 0,0.6 -0.4,1 -1,1 h -4 c -0.6,0 -1,-0.4 -1,-1 v -0.5 c 0,-0.6 0.4,-1 1,-1 z"
         style="fill:#aaaa77" />
      <path
         id="b2"
         d="m 250.5,884.5 c -1.1,0 -2,0.9 -2,2 v 3 c 0,1.1 0.9,2 2,2 h 6.5 c 1.1,0 2,-0.9 2,-2 v -3 c 0,-1.1 -0.9,-2 -2,-2 z m 0,1 h 6.5 c 0.6,0 1,0.4 1,1 v 3 c 0,0.6 -0.4,1 -1,1 h -6.5 c -0.6,0 -1,-0.4 -1,-1 v -3 c 0,-0.6 0.4,-1 1,-1 z"
         style="fill:#226644;stroke:#226644;stroke-width:0.2" />
      <path
         id="b0"
         d="m 250.5,844.6 c -1.1,0 -2,0.9 -2,2 v 6.5 c 0,1.1 0.9,2 2,2 h 6.5 c 1.1,0 2,-0.9 2,-2 v -6.5 c 0,-1.1 -0.9,-2 -2,-2 z m 0,1 h 6.5 c 0.6,0 1,0.4 1,1 v 6.5 c 0,0.6 -0.4,1 -1,1 h -6.5 c -0.6,0 -1,-0.4 -1,-1 v -6.5 c 0,-0.6 0.4,-1 1,-1 z"
         style="fill:#226644;stroke:#226644;stroke-width:0.2" />
      <path
         id="b4"
         d="m 251.8,846.9 h 4 c 0.6,0 1,0.4 1,1 v 4 c 0,0.6 -0.4,1 -1,1 h -4 c -0.6,0 -1,-0.4 -1,-1 v -4 c 0,-0.6 0.4,-1 1,-1 z"
         style="fill:#aaaa77" />
      <path
         id="b1"
         d="m 249,853.1 c 0,4.5 2.5,10.5 2.5,16.7 0,6.2 -2.5,12.2 -2.5,16.7"
         style="fill:none;stroke:#226644;stroke-width:1.2" />
      <path
         id="b6"
         d="m 257.5,869.8 c 0,4.3 0.8,8.4 2.9,12.2 2.2,-3.7 2.8,-7.9 2.8,-12.2 0,-4.2 -0.9,-8.4 -2.8,-12.2 -2.1,3.8 -2.9,8 -2.9,12.2 z m 2.9,-10 c 1.3,3.2 1.85,6.55 1.9,10 0.05,3.45 -0.6,7 -1.9,10.2 -1.4,-3.2 -1.85,-6.75 -1.9,-10.2 -0.05,-3.45 0.6,-6.8 1.9,-10 z"
         style="fill:#226644;stroke:#226644;stroke-width:0.2" />
      <use
         transform="matrix(-1,0,0,1,507.5,0)"
         xlink:href="#b1"
         id="use394" />
      <g
         id="g394">
        <path
           id="b5"
           d="m 260.4,863.4 c -0.6,2 -0.9,4.2 -0.9,6.4 0,2.2 0.3,4.5 0.9,6.6 0.5,-2.1 0.8,-4.3 0.8,-6.6 0,-2.2 -0.3,-4.4 -0.8,-6.4 z"
           style="fill:#aaaa77" />
      </g>
      <path
         d="m 287.1,810 c 0,10 3.5,10.7 3.5,20.1 0,7.9 -2.5,11.4 -2.5,16.5 h 1 c 0,-4.8 2.5,-8.6 2.5,-16.5 0,-9.1 -3.5,-10.1 -3.5,-20.1 l -0.5,-0.5 z m 2,0 c 0,12 4.4,15 4.4,18 v 2.1 c 0,9.1 4.18,6.9 4.18,16.5 h 1 c 0,-9.8 -4.18,-7.7 -4.18,-16.5 V 828 c 0,-3.5 -4.4,-6 -4.4,-18 l -0.5,-0.5 z"
         style="fill:#226644;stroke:#226644;stroke-width:0.1"
         id="path394" />
      <use
         transform="translate(13.214)"
         xlink:href="#b3"
         id="use395" />
      <use
         transform="translate(26.429)"
         xlink:href="#b3"
         id="use396" />
      <use
         transform="translate(39.643)"
         xlink:href="#b3"
         id="use397" />
      <use
         transform="translate(13.214)"
         xlink:href="#b2"
         id="use398" />
      <use
         transform="translate(26.429)"
         xlink:href="#b2"
         id="use399" />
      <use
         transform="translate(39.643)"
         xlink:href="#b2"
         id="use400" />
      <use
         transform="translate(13.214)"
         xlink:href="#b0"
         id="use401" />
      <use
         transform="translate(26.429)"
         xlink:href="#b0"
         id="use402" />
      <use
         transform="translate(39.643)"
         xlink:href="#b0"
         id="use403" />
      <use
         transform="translate(13.214)"
         xlink:href="#b4"
         id="use404" />
      <use
         transform="translate(26.429)"
         xlink:href="#b4"
         id="use405" />
      <use
         transform="translate(39.643)"
         xlink:href="#b4"
         id="use406" />
      <use
         transform="translate(13.214)"
         xlink:href="#b1"
         id="use407" />
      <use
         transform="matrix(-1,0,0,1,520.714,0)"
         xlink:href="#b1"
         id="use408" />
      <use
         transform="translate(26.43)"
         xlink:href="#b1"
         id="use409" />
      <use
         transform="matrix(-1,0,0,1,533.929,0)"
         xlink:href="#b1"
         id="use410" />
      <use
         transform="translate(39.643)"
         xlink:href="#b1"
         id="use411" />
      <use
         transform="matrix(-1,0,0,1,547.143,0)"
         xlink:href="#b1"
         id="use412" />
      <use
         transform="translate(26.43,-39.875)"
         xlink:href="#b1"
         id="use413" />
      <use
         transform="matrix(-1,0,0,1,533.929,-39.875)"
         xlink:href="#b1"
         id="use414" />
      <use
         transform="translate(13.214,-39.875)"
         xlink:href="#b1"
         id="use415" />
      <use
         transform="matrix(-1,0,0,1,520.714,-39.875)"
         xlink:href="#b1"
         id="use416" />
      <use
         transform="translate(0,-39.875)"
         xlink:href="#b1"
         id="use417" />
      <use
         transform="matrix(-1,0,0,1,507.5,-39.875)"
         xlink:href="#b1"
         id="use418" />
      <use
         transform="translate(26.429)"
         xlink:href="#b5"
         id="use419" />
      <use
         transform="translate(26.429)"
         xlink:href="#b6"
         id="use420" />
      <use
         transform="translate(13.214)"
         xlink:href="#b5"
         id="use421" />
      <use
         transform="translate(13.214)"
         xlink:href="#b6"
         id="use422" />
      <use
         transform="translate(0,-39.875)"
         xlink:href="#b5"
         id="use423" />
      <use
         transform="translate(26.429,-39.875)"
         xlink:href="#b5"
         id="use424" />
      <use
         transform="translate(26.429,-39.875)"
         xlink:href="#b6"
         id="use425" />
      <use
         transform="translate(13.214,-39.875)"
         xlink:href="#b5"
         id="use426" />
      <use
         transform="translate(13.214,-39.875)"
         xlink:href="#b6"
         id="use427" />
      <use
         transform="translate(0,-39.875)"
         xlink:href="#b6"
         id="use428" />
      <path
         id="b7"
         d="m 251.5,870.15 v 0.5 h 4.5 v -0.5 z m 0,1.15 v 0.5 h 5 v -0.5 z m 0,1.15 v 0.5 h 5 v -0.5 z m -0.5,1.15 v 0.5 h 5.5 v -0.5 z m 0,1.15 v 0.5 h 5.5 v -0.5 z m -0.2,1.15 v 0.5 h 6 v -0.5 z m -0.3,1.1 v 0.5 H 257 V 877 Z m -0.5,1.15 v 0.5 h 7.5 v -0.5 z m 0,1.15 v 0.5 h 7.5 v -0.5 z m 0,1.2 v 0.5 h 7.5 v -0.5 z m -0.5,1.3 v 1.4 h 8.5 v -1.4 z"
         style="fill:#226644;stroke:#226644;stroke-width:0.2" />
      <use
         transform="rotate(180,253.75,869.812)"
         xlink:href="#b7"
         id="use429" />
      <use
         transform="translate(13.214)"
         xlink:href="#b7"
         id="use430" />
      <use
         transform="rotate(180,260.357,869.812)"
         xlink:href="#b7"
         id="use431" />
      <use
         transform="translate(26.429)"
         xlink:href="#b7"
         id="use432" />
      <use
         transform="rotate(180,266.964,869.812)"
         xlink:href="#b7"
         id="use433" />
      <use
         transform="translate(39.643)"
         xlink:href="#b7"
         id="use434" />
      <use
         transform="rotate(180,273.572,869.812)"
         xlink:href="#b7"
         id="use435" />
      <use
         transform="translate(13.214,-39.875)"
         xlink:href="#b7"
         id="use436" />
      <use
         transform="rotate(180,260.357,849.875)"
         xlink:href="#b7"
         id="use437" />
      <use
         transform="translate(26.429,-39.875)"
         xlink:href="#b7"
         id="use438" />
      <use
         transform="rotate(180,266.964,849.875)"
         xlink:href="#b7"
         id="use439" />
      <use
         transform="translate(0,-39.875)"
         xlink:href="#b7"
         id="use440" />
      <use
         transform="rotate(180,253.75,849.875)"
         xlink:href="#b7"
         id="use441" />
      <path
         d="m 287.5,810.4 v 0.59 h 2 v -0.59 z m 0,1.34 v 0.5 h 2 v -0.5 z m 0,1.25 v 0.5 h 2 v -0.5 z m 0.5,1.15 v 0.5 h 2 v -0.5 z m 0,1.16 v 0.5 h 2 v -0.5 z m 0,1.15 v 0.5 h 2 v -0.5 z m 0.5,1.15 v 0.5 h 1.5 v -0.5 z m 0.5,1.15 v 0.5 h 1.5 v -0.5 z m 0,1.15 v 0.5 h 2 v -0.5 z m 0.5,1.15 v 0.5 h 1.5 v -0.5 z m 0.5,1.15 v 0.5 h 1.5 v -0.5 z m 0.5,1.16 v 0.5 h 2 v -0.5 z m 0,1.15 v 0.5 h 2.5 v -0.5 z m 0,1.15 v 0.5 h 3 v -0.5 z m 0.5,1.15 v 0.5 h 3 v -0.5 z m 0,1.15 v 0.5 h 3 v -0.5 z m 0,1.15 v 0.5 h 3 v -0.5 z m 0,1.15 v 0.5 h 3 v -0.5 z m 0,1.15 v 0.5 h 3 v -0.5 z m 0,1.16 v 0.5 h 3 v -0.5 z m 0,1.15 v 0.5 h 3 v -0.5 z m -0.5,1.15 v 0.5 h 4 v -0.5 z m 0,1.15 v 0.5 h 4.5 v -0.5 z m -0.5,1.15 v 0.5 h 5.5 v -0.5 z m 0,1.15 v 0.5 h 6 v -0.5 z m -0.5,1.15 v 0.5 h 7.5 v -0.5 z m 0,1.15 v 0.5 h 7.5 v -0.5 z m -0.5,1.26 v 1.5 h 9 v -1.5 z"
         style="fill:#226644;stroke:#226644;stroke-width:0.2"
         id="path441" />
    </g>
    <use
       transform="matrix(-1,0,0,1,600,0)"
       xlink:href="#bg"
       id="use442" />
    <use
       transform="rotate(180,300,809.999)"
       xlink:href="#bg"
       id="use443" />
    <use
       transform="matrix(1,0,0,-1,0,1620)"
       xlink:href="#bg"
       id="use444" />
    <use
       transform="translate(39.642)"
       xlink:href="#b5"
       id="use445" />
    <use
       transform="translate(39.643)"
       xlink:href="#b6"
       id="use446" />
    <use
       transform="matrix(1,0,0,-1,39.642,1620)"
       xlink:href="#b5"
       id="use447" />
    <use
       transform="matrix(1,0,0,-1,39.643,1620)"
       xlink:href="#b6"
       id="use448" />
    <use
       transform="matrix(-1,0,0,1,600,-39.875)"
       xlink:href="#b0"
       id="use449" />
    <use
       transform="matrix(-1,0,0,1,586.786,-39.875)"
       xlink:href="#b0"
       id="use450" />
    <use
       transform="matrix(-1,0,0,1,573.571,-39.875)"
       xlink:href="#b0"
       id="use451" />
    <use
       transform="matrix(-1,0,0,1,600,-39.875)"
       xlink:href="#b4"
       id="use452" />
    <use
       transform="matrix(-1,0,0,1,586.786,-39.875)"
       xlink:href="#b4"
       id="use453" />
    <use
       transform="matrix(-1,0,0,1,573.571,-39.875)"
       xlink:href="#b4"
       id="use454" />
    <path
       id="b9"
       d="m 293,803 c -1,2 -1.5,4 -1.5,7 0,3 0.5,5 1.5,7 0,-6 4,-7 4,-7 0,0 -4,-1 -4,-7 z m 4,7 c 1.5,0.5 2.5,1.5 3,4 l 1,-4 -1,-4 c -0.5,2.5 -1.5,3.5 -3,4 z"
       style="fill:#aaaa77" />
    <path
       id="path551"
       d="m 297,813 c -2,0 -3,2 -3,5 0,6 4,12 6,19 2,-7 6,-13 6,-19 0,-3 -1,-5 -3,-5 -1.5,0 -3,2 -3,5 0,-3 -1.5,-5 -3,-5 z"
       style="fill:#aaaa77" />
    <use
       transform="matrix(1,0,0,-1,0,1620)"
       xlink:href="#path551"
       id="use455" />
    <use
       transform="matrix(-1,0,0,1,600,0)"
       xlink:href="#b9"
       id="use456" />
  </g>
  <g
     id="club_1"
     transform="translate(-239.99922,-720.00117)">
    <g
       id="card"
       transform="matrix(0.83103,0,0,0.83565,-1641.9,-580.27)">
      <rect
         id="card_face"
         x="1976.64"
         y="695.29498"
         width="142.60001"
         height="213.60001"
         rx="9.5"
         ry="9.5"
         fill="#ffffff"
         stroke="#333333"
         stroke-linejoin="round"
         stroke-width="1.8" />
    </g>
  </g>
</svg>
