<?xml version="1.0" encoding="UTF-8" standalone="no"?>
<svg
   width="120.00074"
   height="179.99902"
   version="1.1"
   viewBox="0 0 120.00074 179.99902"
   preserveAspectRatio="none"
   id="svg462"
   xmlns:xlink="http://www.w3.org/1999/xlink"
   xmlns="http://www.w3.org/2000/svg"
   xmlns:svg="http://www.w3.org/2000/svg">
  <defs
     id="defs462" />
  <path
     id="tJ"
     d="m -13.619224,6.5988265 c 0,0.66 -0.54,1.04 -1.28,1.04 h -0.17 c -1.24,0 -1.98,0.41 -2.48,1.28 -0.45,-0.84 -1.09,-1.36 -2.51,-1.36 -1.85,0 -2.85,0.89 -2.85,2.6699995 v 3.55 h 0.54 c 0,-0.62 0.18,-0.85 0.55,-0.85 h 7.63 c 0.4,0 0.55,0.26 0.55,0.85 h 0.55 v -3.29 h -0.54 c 0,0.59 -0.15,0.85 -0.55,0.85 h -3.14 v -1.03 c 0,-0.6199995 0.55,-1.0399995 1.3,-1.0399995 h 0.36 c 1.78,0 2.59,-0.88 2.59,-2.67 z m -7.47,2.56 h 1.98 c 0.73,0 1.27,0.39 1.27,1.0599995 v 1.11 h -4.49 v -1.11 c 0,-0.6899995 0.51,-1.0599995 1.24,-1.0599995 z m 5.73,5.1799995 v 0.5 c 1.4,0.17 1.69,0.52 1.69,1.76 v 1.54 h -4.34 v -0.37 c 0,-0.66 0.27,-0.98 0.93,-0.98 v -0.53 h -2.38 v 0.53 c 0.62,0 0.93,0.32 0.93,0.98 v 0.37 h -3.8 v -0.95 c 0,-1.21 0.2,-1.59 1.45,-2.07 l -0.12,-0.48 -2.4,0.63 v 0.48 c 0.39,0.06 0.48,0.25 0.48,0.66 v 4.18 h 0.54 c 0,-0.62 0.17,-0.85 0.55,-0.85 h 7.63 c 0.39,0 0.55,0.24 0.55,0.85 v 0.28 c 0,0.66 -0.53,1.04 -1.24,1.04 h -0.59 c -1.48,0 -2.8,0.99 -2.8,2.42 l -3.54,-1.76 c -0.39,-0.19 -0.57,-0.44 -0.57,-1.04 h -0.54 v 2.37 h 0.54 c 0,-0.52 0.23,-0.8 0.47,-0.67 l 3.65,1.83 v 0.57 h -3.55 c -0.39,0 -0.55,-0.24 -0.55,-0.85 h -0.55 v 3.29 h 0.54 c 0,-0.61 0.16,-0.85 0.55,-0.85 h 7.63 c 0.39,0 0.55,0.24 0.55,0.85 h 0.54 v -3.29 h -0.54 c 0,0.61 -0.16,0.85 -0.55,0.85 h -3.55 v -0.95 c 0,-0.65 0.54,-1.15 1.3,-1.15 h 0.77 c 1.63,0.01 2.59,-0.72 2.59,-2.67 v -5.01 c 0,-0.59 0.1,-0.9 0.4,-0.98 v -0.53 z m -4.85,14.82 c -1.79,0 -2.77,1.07 -2.77,2.74 0,2.35 1.58,2.8 2.77,2.8 h 4.42 c 1.7,0 2.77,-0.91 2.77,-2.8 0,-2.3 -1.57,-2.74 -2.77,-2.74 z m -1.01,1.57 h 6.44 c 0.72,0 1.24,0.48 1.24,1.18 0,0.73 -0.51,1.18 -1.24,1.18 h -6.44 c -0.74,0 -1.24,-0.54 -1.24,-1.18 0,-0.69 0.53,-1.18 1.24,-1.18 z m -1.7,4.81 v 3.29 h 0.54 c 0,-0.61 0.16,-0.85 0.55,-0.85 h 6.39 c 1.18,0 1.89,0.52 1.89,1.39 0,0.35 -0.1,0.73 -0.41,0.98 l -0.14,0.08 -0.03,-0.15 c -0.04,-0.23 -0.2,-0.94 -0.92,-0.94 -0.57,0 -1.04,0.51 -1.02,1.11 0.02,0.63 0.5,1.13 1.16,1.13 0.97,0 1.89,-0.91 1.89,-2.38 0,-2.32 -1.65,-2.81 -3.03,-2.81 h -5.77 c -0.39,0 -0.55,-0.24 -0.55,-0.85 z"
     stroke-width="0.2" />
  <path
     id="jok2"
     d="m -60.799224,48.798826 c 3.6,1.1 7.8,2.4 9.1,6.1 1.4,3.8 4.6,7.8 4.5,15.8 l 2.7,-2.4 c 4.1,-5.2 -1.9,-8.4 1.2,-7.6 1.3,6.3 4.3,0 2.5,-1.2 -0.9,-0.7 -2.8,-2.4 -0.4,-1.6 1.5,1.1 1.2,4.3 3.1,1.7 l 8.8,-7.7 c 0.4,-1.1 -9.9,-8.4 -15.6,-8.1 -5.9,0.9 -11,2.8 -16,5 z m 19.4,0.8 c 1.4,1.5 3.6,5.9 3.1,6.5 -1.1,-2 -2.8,-4.5 -3.1,-6.5 z m 7.6,22 -7.9,4.9 -5.1,-5.1 c 0,0 -1.6,15.5 -4,21 2.5,1.8 -0.7,3.6 -0.7,3.6 l -4,8.000004 -5.2,22 12.5,-9 6.7,11.6 4.8,-8.4 c 5,0.8 6.5,6.4 9.6,9.7 l -1.3,-8 c 0,0 9.5,-3.6 11.6,-4.7 l -17.6,-19.800004 c -3,-3.4 -1,4.100004 -0.2,5.200004 0.9,0.9 2.4,6.5 0.6,3 -1.2,-2.7 -2.3,-5.700004 -2.8,-8.500004 -1.2,-0.1 -2.4,3.000004 -2.3,0.3 2,-0.6 3.4,-2.5 0.3,-2.3 -1.3,0.1 -6.8,0 -3.2,-0.5 2.3,-0.5 6.1,1.6 5,-2 -0.1,-1.6 1.9,-3.1 -0.9,-2 -1.1,0.4 -5.2,2 -4.4,0.4 2.6,-0.5 5.3,-1.2 7.7,-2.5 2.3,-1.7 5,-6 5,-6.7 -0.1,-2.2 -4.2,3.3 -6.2,4.6 -1,1.3 -4.6,2.7 -2.8,-0.1 1,-2.3 2.7,-6.2 1.9,-7.3 -1.1,-1.3 -2.2,4.1 -3.9,5.7 -0.8,1.3 -3.1,4.5 -4.2,3.6 2.8,-2.1 4.4,-5.3 5.4,-8.5 0.5,-3.9 6.2,-2.2 4,1.3 -0.5,1.6 -3.7,7 -0.3,4 1.8,-1.7 5.4,-6.4 6.8,-4.5 0.9,1.4 -2,5.8 -3.9,7.9 -0.7,1.3 -5.8,1.6 -3.8,2.5 4.5,2.9 7.4,7.7 11.1,11.600004 l 4.7,-0.2 -2.6,-2.600004 -2.5,-11.6 c -0.4,-8.4 0,-16.8 -0.2,-25.1 z m -12.7,32.100004 c -0.9,2.6 -1.3,5.4 -2.5,7.9 0.3,-4.6 3.4,-13.500004 2.4,-14.200004 -1.3,-1 -4.7,6.300004 -2.5,1.6 4.1,-8.6 3.9,0.8 2.6,4.700004 z m -3.7,-1.7 c -0.5,3.5 -1.7,6.9 -2.7,10.3 -0.4,-1.2 0.7,-4.5 1.2,-6.4 0.5,-1.3 0.7,-2.7 1.5,-3.9 z m 18.5,7.4 c 1.9,1.4 1.9,4.2 2.8,6.3 0.4,1.2 1.1,2.5 1,3.8 -1.9,-3 -2.5,-6.7 -3.8,-10 z" />
  <path
     id="jok1"
     d="m -50.089224,145.04883 c -0.38,-3.34 3.15,-5.29 4.02,-5.14 0.21,0.04 0.23,0.02 0.27,-0.23 0.43,-2.65 -0.3,-4.39 -0.78,-6.77 -0.02,-0.13 -0.3,-1.56 -0.93,-0.95 -2.7,2.48 -5.19,3.34 -8.72,3.12 -2.3,-0.17 -5.58,-0.19 -6.22,-0.05 -0.39,0.09 -0.45,0.12 -0.45,0.28 0,0.21 0.29,0.65 0.74,1.14 2.55,2.75 0.05,8.28 -4.27,7.21 -4.02,-0.99 -4.87,-5.98 -1.35,-7.85 0.57,-0.31 3.09,-0.88 3.13,-0.92 7.4,-22.05 6.35,-30.22 11.65,-38.320004 0.74,-1.12 1.45,-1.72 2.03,-1.72 0.7,0 1.08,-0.81 0.6,-1.26 -0.4,-0.38 -1.4,-0.46 -3.26,-0.24 -1.63,0.19 -1.87,0.11 -2.19,-0.76 -0.31,-0.85 -0.66,-0.91 -2.64,-0.96 -2.34,-0.07 -2.6,-0.13 -3.05,-1.07 -1.07,-2.22 3.06,-4.54 1.34,-6.41 -0.75,-0.82 -0.69,-2.06 -0.85,-4.39 -0.14,-2.09 -0.42,-2.17 -2.65,-0.72 -3.98,2.56 -5.27,1.52 -5.09,-2.99 0.12,-3.06 0.77,-7.1 3.02,-9.97 0.92,-1.09 0.92,-1.08 0.26,-2.36 -1.78,-3.52 0.74,-5.53 -0.7,-7.15 -0.43,-0.49 -0.63,-1.55 -0.57,-3.1 0.09,-2.58 1.08,-3.9 3.94,-4.82 1.13,-0.36 1.29,-0.45 1.44,-0.74 0.4,-0.76 -0.95,-2.33 -1.21,-4.94 -0.17,-1.78 -0.7,-1.68 -1.86,0.21 -0.81,1.31 -1.12,1.44 -1.88,0.79 -1.35,-1.09 -1.75,-3.1 -1.15,-4.72 0.33,-0.92 6.18,-3.68 15.04,1.25 0.12,-0.29 0.01,-1.95 0.54,-3.98 0.17,-0.81 0.62,-1.41 -0.56,-0.88 -0.64,0.3 -0.99,0.3 -1.33,0.01 -1.09,-0.95 -1.55,-4.16 0.68,-5.21 2.47,-1.16 6.17,0.05 9.29,3.03 2.34,2.03 3.41,4.87 4.38,7.71 0.76,-1.14 1.76,-2.14 2.43,-3.34 0.52,-1.03 -0.67,-2.63 -0.75,-3.77 -0.33,-3.67 5.98,-1.76 8.25,6.89 0.98,3.74 -0.29,5.28 0.23,5.72 0.21,0.18 1.85,-0.46 2.77,-0.46 0.43,0 0.51,0.02 0.71,0.22 0.63,0.63 0.43,2.95 0.62,3.13 0.19,0.26 8.02,-2.08 9.51,4.04 0.68,2.72 1.88,1.79 3.37,3.33 1,1 1.3,2.37 0.81,3.64 -2.18,4.11 -6.23,4.22 -7.76,-0.67 -0.49,-1.58 1.83,-2.86 1.83,-3.58 -2.01,-3.13 -4.1,-1.94 -5.86,0.99 -1.44,2.39 -2.14,3.91 -1.9,6.17 0.6,4.34 -0.97,9.06 -0.65,16.8 0.25,6.1 1.17,13.32 2.78,18.85 0.45,0.890004 2.35,2.230004 3.3,2.310004 1.08,0.11 2.78,-1.650004 4.94,-0.57 1.38,0.68 2.27,2.44 2.1,4.19 -0.36,3.65 -3,4.22 -5.9,2.89 -0.73,-0.27 -1.99,-1.79 -1.99,-3.55 0,-0.54 -0.11,-0.79 -0.38,-0.92 -0.51,-0.24 -4.09,0 -5.59,-0.77 -1.71,-0.88 -5.91,-7.900004 -8.61,-10.500004 -0.75,-0.71 -0.78,-0.6 -0.85,-0.16 -0.09,0.51 -0.06,2.27 0.04,2.51 0.36,0.87 0.23,-1.32 7.5,8.260004 4.99,6.57 9.19,11.06 12.3,13.15 2.86,1.93 3.31,0.92 4.66,1.47 0.52,0.21 0.87,0.17 1.47,-0.16 3.7199996,-1.99 5.4899996,0.19 5.9999996,0.82 0.75,0.96 1.95,6.04 -3.51,6.47 -2.29,0.19 -3.8399996,-1.86 -4.1599996,-3.48 -0.03,-0.23 -0.1,-0.43 -0.16,-0.45 -1.09,0.28 -6.47,5.36 -6.77,5.98 -0.33,1.27 1.75,3.95 1.75,6.36 0,0.57 0.13,1.21 0.28,1.37 0.07,0.08 0.26,0.16 0.4,0.18 1.71,0.25 2.8,0.83 3.24,1.72 0.72,2.2 0.49,4.35 -1.5,5.56 -2.68,1.49 -5.57,0.24 -6.05,-2.48 -0.43,-2.37 0.93,-2.73 1.08,-4.95 -1.38,-1.36 -2.86,-2.68 -4.6,-3.53 -0.04,0.01 -1.71,4.67 -4.79,7.96 -0.53,0.65 -0.49,0.73 0.64,1.29 6.32,2.9 -0.12,12.86 -5.73,6.26 -1.69,-2.21 -0.68,-4.32 0.56,-6.36 0.16,-0.83 -0.16,-2.45 -1.33,-6.68 -0.38,-1.39 -0.71,-2.53 -0.72,-2.55 -1.99,3.48 -5.8,5.84 -7.41,9.57 3.45,2.1 4.14,6.36 -0.11,9.11 -1.06,0.69 -6.43,1.58 -7.15,-4.42 z m 6.67,3.27 c 0.52,-0.23 2.06,-1.7 1.8,-2.28 -0.55,-0.78 -0.88,0.24 -1.16,0.59 -0.44,0.47 -2.01,0.94 -2.62,0.78 -0.23,-0.06 -2.51,-0.71 1.2,-1.32 0.77,-0.12 0.85,-0.24 0.88,-1.3 0.05,-2.48 1.38,-0.67 1.38,-1.86 0,-0.5 -1.06,-1.09 -2.58,-1.44 -2.1,-0.47 -3.56,0.42 -3.98,2.43 -0.99,4.79 3.88,4.91 5.07,4.39 z m 14.55,-1.07 c 1.68,-0.8 2.18,-2.79 2.03,-3.97 -0.09,-0.71 -0.88,-1.55 -1.86,-2.02 -1.99,-0.94 -4.56,-0.6 -4.69,2.28 -0.16,3.93 3.83,4.01 4.52,3.7 z m -1.42,-0.64 c -0.28,-0.28 0.13,-0.8 0.82,-1.02 0.93,-0.31 0.88,-0.73 0.64,-1.97 -0.52,-1.48 0.2,-0.75 0.5,-0.62 0.89,0.39 0.89,1.4 0.46,2.17 -0.26,0.47 -0.73,0.85 -1.51,1.26 -0.55,0.29 -0.75,0.33 -0.91,0.18 z m -34.31,-4.25 c 0.57,-0.19 3.67,-1.78 1.77,-4.73 -0.98,-1.51 -1.89,-1.85 -3.49,-1.3 -1.68,0.57 -2.18,1.13 -2.32,2.52 -0.35,3.3 2.5,4.03 4.04,3.51 z m -1.44,-0.88 c -1.04,-0.4 -0.5,-0.81 0.73,-0.81 0.84,-0.01 1.32,-0.29 1.32,-0.78 0,-0.5 0.65,-0.95 0.88,-0.19 0.29,0.95 -1.42,2.34 -2.93,1.78 z m 51.92,-2.01 c 0.05,-0.32 0.03,-0.36 -0.1,-0.36 -0.16,0 -1.5,1.33 -1.85,1.84 -0.12,0.18 -0.2,0.38 -0.18,0.44 0.12,0.3 1.85,0.05 2.13,-1.92 z m -2.06,0.8 c 0.68,-0.29 0.89,-0.43 1.04,-0.73 0.14,-0.28 0.14,-0.36 0.05,-0.97 -0.13,-0.95 -0.03,-1.16 0.57,-1.16 0.33,0 0.39,-0.09 0.24,-0.36 -1.01,-1.94 -5.82,-1.7 -5.07,1.91 0.38,1.82 1.68,2.18 1.89,2.18 0.26,0 0.88,-0.71 1.27,-0.86 z m -27.28,-1.69 c 1.99,-3.14 3.81,-3.38 7.13,-8.82 1.71,-2.82 1.13,-3.68 1.88,-3.49 0.98,0.25 3.93,5.18 4.79,7.98 0.23,0.81 0.23,1.66 0.26,2.5 1.54,-1.54 2.96,-3.07 3.45,-5.22 0.12,-0.79 0.08,-0.86 -0.65,-0.99 -1.86,-0.57 -3.27,-2.93 -4.31,-4.43 -1.92,-2.81 -3.9,-4.97 -4.99,-5.43 -0.68,-0.29 -1.34,0.62 -1.51,1.16 -0.3,1.23 -2.07,4.74 -3.27,6.49 -0.9,1.18 -1.37,2.17 -1.99,0.45 -0.45,-1.98 -2.96,-7.29 -4.45,-9.59 -1.17,-1.87 -1.73,-1.8 -3.05,-0.32 -1.88,2.12 -7.13,6.26 -9.2,7.26 -0.61,0.29 -1.13,0.81 -1.41,1.43 -0.26,0.55 -1.26,3.7 -1.26,3.97 0,0.16 0.02,0.16 0.48,0.12 4.53,-0.43 9.45,-6.33 11.38,-8.88 0.87,-1.16 1.75,-1.6 2.49,1.32 1.49,5.91 3.54,9.57 3.41,14.22 -0.07,1.76 0.16,1.78 0.81,0.29 z m 11.99,0.06 c -0.09,-0.44 -0.58,-1.69 -0.72,-1.82 -0.05,-0.05 -0.06,0.19 -0.03,0.7 0.05,0.87 0.25,1.54 0.57,1.97 0.3,0.68 0.27,-0.4 0.18,-0.85 z m -0.95,-2.93 c -0.04,-0.24 -0.27,-1.13 -0.53,-1.96 -0.57,-1.91 -0.6,-1.99 -0.7,-2.82 -0.12,-0.96 -0.32,-1.29 -0.78,-1.29 -0.16,0 -0.17,0.02 -0.12,0.45 0.12,1.26 1.94,6.49 2.14,6.16 0.03,-0.05 0.03,-0.3 -0.01,-0.54 z m 1.4,-0.77 c -0.16,-1.3 -0.3,-1.9 -0.56,-2.48 -0.26,-0.58 -0.66,-0.73 -0.66,-0.25 0,0.29 0.33,1.39 0.74,2.42 0.24,0.61 0.47,1.19 0.5,1.28 0.04,0.09 0.08,0.17 0.09,0.17 0.02,0 -0.04,-0.51 -0.12,-1.15 z m -31.23,-1.04 c 0.18,-0.23 0.13,-0.58 -0.08,-0.67 -0.26,-0.1 -0.71,0.66 -0.51,0.86 0.12,0.12 0.44,0 0.59,-0.19 z m 4.52,-0.25 c 0.11,-0.09 0.16,-0.23 0.18,-0.64 0.04,-0.58 -0.12,-1.87 -0.22,-1.76 -0.03,0.04 -0.16,0.34 -0.28,0.68 -0.41,1.18 -0.24,2.12 0.32,1.71 z m 2.79,-0.65 c 0.41,-1.21 0.74,-3.79 0.5,-3.93 -0.16,-0.09 -0.39,0.2 -0.51,0.66 -0.33,1.2 -0.61,3.57 -0.47,3.92 0.09,0.23 0.26,-0.02 0.47,-0.65 z m 2.74,0.49 c 0.51,-1.12 0.95,-6.81 0.51,-6.74 -0.19,0.03 -0.63,2.73 -0.81,5.07 -0.12,1.48 0.02,2.28 0.3,1.68 z m -8.24,-0.5 c 0.2,-0.38 0.17,-0.56 -0.1,-0.56 -0.37,0 -0.77,0.67 -0.62,1.06 0.08,0.2 0.5,-0.1 0.71,-0.5 z m 1.3,-0.56 c -0.37,0 -0.78,0.68 -0.63,1.06 0.04,0.11 0.07,0.11 0.3,-0.02 0.29,-0.16 0.91,-1.03 0.33,-1.03 z m 5.55,0.28 c 0.39,-1.17 0.78,-3.72 0.67,-4.34 -0.13,-0.71 -0.33,-0.31 -0.67,1.32 -0.29,1.42 -0.51,3.18 -0.43,3.47 0.08,0.31 0.23,0.15 0.43,-0.45 z m 3.3,-0.23 c 0.35,-0.54 0.54,-2.92 0.43,-5.53 -0.02,-0.72 -0.05,-1.44 -0.19,-2.14 -0.02,-0.12 -0.08,-0.22 -0.12,-0.22 -0.34,0 -0.26,3.31 -0.51,5.43 -0.15,1.21 -0.23,2.36 -0.16,2.51 0.07,0.19 0.42,0.15 0.56,-0.06 z m 30.02,-1.61 c -0.19,-0.8 -0.42,-1.46 -0.78,-2.17 -0.61,-1.2 -1.2,-1.66 -0.92,-0.69 0.31,1.03 1.1,2.81 1.48,3.32 0.27,0.36 0.36,0.18 0.21,-0.46 z m -27.35,-0.34 c -0.09,-0.43 -0.15,-0.71 -0.24,-1.24 -0.17,-1.02 -0.36,-1.67 -0.47,-1.67 -0.12,0 -0.04,2.93 0.09,3.2 0.11,0.24 0.77,0.47 0.62,-0.29 z m 28.38,-1.05 c -0.1,-0.88 -0.91,-2.81 -1.41,-3.4 -0.52,-0.61 -0.81,-0.26 -0.81,-0.17 0,0.09 0.36,0.88 0.81,1.78 1.02,2.05 1.51,2.67 1.41,1.79 z m -3.04,-5.25 c 2.1,-0.46 4.87,-1.82 7.68,-3.79 1,-0.7 1.75,-1.09 2.3,-1.21 0.75,-0.16 0.56,-0.49 -0.45,-0.75 -1.4,-0.37 -3.48,-0.61 -4.38,-0.47 -2.13,0.29 -4.77,2.47 -8.56,3.31 -1.32,0.29 -2.18,0.89 -2.18,1.37 0,0.12 0.12,0.31 0.31,0.5 1.19,1.22 0.95,4.83 1.33,5.98 3.59,2.48 -0.16,-4.04 3.96,-4.93 z m -5.53,4.24 c -0.18,-0.31 0.45,-2.75 -0.79,-4.14 -1.23,-1.37 -0.72,-3.39 1.89,-3.99 4.35,-0.99 7.58,-3.45 9.02,-3.45 0.31,0 -0.4,-0.12 -3.46,-3.14 -2.76,-2.72 -4.88,-5.18 -8.28,-9.62 -3.45,-4.510004 -5.7,-7.130004 -6.6,-7.680004 -1.31,-0.81 -1.6,-0.99 -1.61,-3.1 -0.02,-4.09 2.03,-3.38 2.67,-3.05 1.03,0.51 2.72,2.5 5.68,6.66 0.92,1.04 2.55,4.040004 3.93,4.450004 0.81,0.23 1.62,0.29 2.62,0.29 -0.88,-0.64 -1.58,-1.47 -1.96,-2.510004 -1.37,-6.18 -2.57,-12.31 -2.6,-18.65 -0.02,-7.56 1.55,-12.89 0.6,-16.4 -1.44,2.09 -2.92,4.15 -4.53,6.11 -3.16,3.75 -2.03,0.92 -7.53,5.35 -2.15,1.74 -3.08,2.2 -4.35,0.99 -1.39,-1.33 -1.73,-3.01 -3.38,-4.62 -0.48,6.5 -0.07,13.95 -3.36,19.71 -0.59,0.56 1.28,0.43 1.32,2.34 0.02,0.93 -0.64,1.79 -1.96,2.34 -1.8,0.75 -2.56,3.34 -3.31,5.080004 -1.89,4.79 -3.87,14.5 -4.4,17 -1.04,4.96 -1.66,6.32 -1.57,6.46 0.24,0.24 7.22,-5.21 8.43,-6.8 0.98,-1.26 1.47,-1.59 2.38,-1.58 2.85,0.02 5.32,6.03 7.2,11.06 1.18,-1.71 2.51,-4.64 2.79,-5.49 0.4,-1.22 1.6,-3.76 4.19,-1.98 3.33,2.3 6.74,8.48 6.98,8.48 0.02,0 0.01,-0.05 -0.02,-0.09 z m 21.0799996,-5.02 c 1.92,-0.58 2.44,-0.79 2.44,-2.79 0.32,-2.81 -3.2,-3.64 -5.32,-2.56 -0.5799996,0.39 -1.1499996,1.99 -1.0399996,2.91 0.23,1.89 1.8899996,2.92 3.9099996,2.44 z m -1.65,-0.63 c -0.03,-0.03 -0.05,-0.16 -0.05,-0.28 0,-0.27 0.3,-0.47 0.88,-0.61 0.8,-0.19 1.4,-0.68 1.83,-1.54 0.26,-0.52 0.47,-0.62 0.47,-0.22 0,0.97 -0.68,1.76 -1.99,2.34 -0.69,0.3 -1.04,0.4 -1.13,0.31 z m -7.0399996,-15.64 c 0.42,-0.19 1.28,-0.83 1.22,-0.89 -0.16,0.84 -2.76,0.3 -1.28,-0.19 0.61,-0.16 0.99,-1.13 0.42,-2.21 -0.28,-0.53 -0.29,-0.56 -0.23,-1.13 0.07,-0.81 0.07,-0.81 -1.27,-0.81 -1.28,0 -2.32,0.09 -2.59,1.9 -0.35,2.35 1.44,4.25 3.75,3.33 z m -37.32,-14.920004 c 0.9,-0.46 1.92,-1.71 2.45,-3.03 1.39,-3.45 2.57,-12.87 2.41,-19.28 0.29,-5.63 -1.74,-9.27 -3.92,-14.28 -1.16,-2.75 -2.89,-4.09 -7.04,-5.47 -1.78,-0.59 -6.73,-0.54 -6.53,3.11 0.05,1.02 0.1,1.36 0.21,1.36 0.1,0 0.14,-0.89 0.89,-1.69 1.89,-2.03 6.22,-0.89 9.63,2.51 2.86,2.86 4.24,8.91 4.46,10.79 0.4,3.48 0.19,13.8 -1.05,20.95 -0.21,2.01 -1.06,3.21 -2.94,3.95 -1.16,0.24 -0.33,2.08 1.42,1.09 z m -5.32,-1.82 c 1.47,-0.4 4.6,-1.78 5.07,-2.25 0.49,-0.49 0.99,-2.98 1.4,-7.06 0.76,-7.44 0.69,-13.92 -0.17,-15.45 -0.32,-0.57 -0.83,-0.41 -1.35,-0.93 -0.4,-0.41 -0.08,-0.59 0.76,-0.42 0.24,0.05 0.29,0.03 0.37,-0.11 0.16,-0.3 -0.29,-2.12 -0.64,-2.83 -0.23,-0.45 -0.37,-0.27 -0.79,-0.26 -1.72,0.03 -4.07,1.21 -5.94,1.53 -0.63,0.12 -0.88,0.24 -1.37,0.7 -1.36,1.29 -1.89,0.44 -1.89,0.12 0,-0.39 -0.21,-0.74 -0.47,-0.79 -0.74,-0.15 -0.57,-1.17 0.42,-2.37 1.19,-1.46 1.75,-0.79 0.79,0.43 -0.35,0.44 -0.55,0.8 -0.7,1.23 -0.43,1.21 0.95,0.4 1.46,0.21 3.97,-1.54 3.19,-0.45 5.53,-1.56 1.66,-0.8 2.56,-1.69 0.92,-2.45 -0.64,-0.29 -0.85,-0.53 -0.77,-0.88 0.16,-0.72 -1.13,-2.02 -3.38,-3.38 -1.82,-1.24 -3.66,-1.28 -4.83,0.64 -0.75,1.61 -1.83,6.85 -0.56,8.71 0.96,1.44 0.53,2.45 -0.67,3.5 -1.41,1.42 -2.65,6.2 -2.67,10.27 -0.01,1.79 0.05,2.7 2.27,1.67 1.19,-0.56 2.03,-1.26 2.18,-1.85 0.24,-0.92 2.49,-1.83 2.79,-1.25 0.14,0.26 0.23,1.51 0.23,3.07 0,1.79 0.04,1.92 0.48,1.96 1.55,-0.09 3.09,-0.83 4.17,-1.92 0.96,-0.99 1.16,-1.09 1.16,-0.62 0,0.4 -0.24,1 -0.55,1.4 -1.23,1.55 -4.56,2.31 -4.96,3.27 -0.18,0.38 0.28,0.6 0.57,0.74 0.55,0.28 0.7,0.56 0.65,1.24 -0.15,2.11 -3.2,4.92 -1.6,5.77 0.34,0.18 1.16,0.16 2.06,-0.08 z m 3.27,-6.11 c -0.21,-0.21 0.16,-0.89 0.69,-1.3 0.71,-0.54 0.65,0.26 -0.09,1.02 -0.3,0.32 -0.49,0.4 -0.61,0.28 z m 1.3,-3.1 c 0.19,-0.93 0.12,-2.27 -0.2,-3.45 -0.39,-1.61 -2.17,-1.85 -3.41,-2.79 -0.74,-0.59 -0.81,-0.54 -1.11,-0.1 -0.78,1.23 -0.74,0.57 -0.92,-0.4 -0.15,-1.3 -0.4,-1.52 -1.71,-1.38 -2.37,0.34 -1.21,-1.06 0.05,-1.06 1.06,0 1.97,0.36 3.17,1.26 2.03,1.65 3.94,1.59 4.8,4.35 0.51,1.77 0.45,3.65 -0.15,4.28 -0.61,0.53 -0.71,0.5 -0.52,-0.72 z m -11.47,-5.84 c -0.17,-0.19 -0.39,-1.15 -0.33,-1.46 0.07,-0.39 0.29,-0.53 0.71,-0.48 0.92,0.1 1.08,1.14 0.29,1.84 -0.3,0.26 -0.49,0.29 -0.68,0.09 z m 0.18,-2.56 c -0.35,-0.18 -0.54,-0.5 -0.4,-0.68 0.57,-0.68 2.02,0.48 0.73,0.81 -0.03,0.01 -0.19,-0.06 -0.33,-0.14 z m 0.16,-1.86 c -0.29,-0.15 -0.4,-0.47 -0.23,-0.68 0.39,-0.47 1.54,0.5 0.88,0.74 -0.27,0.1 -0.34,0.09 -0.65,-0.06 z m -0.1,-1.68 c -0.39,-0.38 0.23,-0.97 1.02,-0.97 0.57,0.29 0.45,0.21 -0.08,0.86 -0.32,0.23 -0.78,0.28 -0.95,0.12 z m 4.94,-1.23 c -0.81,-0.16 -0.87,-0.39 -0.52,-1.99 -0.1,-1.9 0.15,-2.26 2.03,-2.48 1.09,-0.12 2.94,-0.18 3.05,-0.09 0.28,0.19 -0.31,0.88 -0.84,0.99 -0.61,0.12 -0.7,0.46 -0.89,1.26 -0.16,0.62 -1.35,0.92 -2.28,1.2 -0.57,0.16 -0.46,0.27 0.3,0.28 0.61,0 1.1,0.09 1.23,0.23 0.12,0.12 -0.67,0.9 -2.09,0.61 z m 1.63,-2.55 c 0.06,-0.43 0.42,-0.95 -0.61,-0.91 -0.45,0.02 -0.69,0.46 -0.32,1.04 0.27,0.43 0.86,0.4 0.93,-0.13 z m 3.95,2.2 c -0.85,-0.55 -1.18,-1.02 -0.75,-1.08 0.46,-0.06 1.42,0.79 1.42,1.26 0,0.19 -0.16,0.14 -0.67,-0.19 z m 0.47,-1.68 c -1.06,-0.35 0.1,-0.36 0.14,-0.5 0.34,0 0.48,0.03 0.61,0.16 0.24,0.24 0.21,0.85 -0.74,0.35 z m -2.5,-6.25 c -0.26,-0.26 0.05,-0.93 0.56,-1.18 0.58,-0.28 1.13,0.21 0.41,0.93 -0.32,0.46 -0.59,0.22 -0.97,0.25 z m 20.71,11.54 c 1.65,-0.55 2.96,-1.86 6.01,-6.05 1.11,-1.52 3.65,-5.34 4.35,-6.52 1.33,-2.27 1.52,-3 0.47,-1.9 -1.61,1.68 -1.91,3.86 -5.21,7.34 -3.1,3.27 -7.08,5.09 -7.92,3.81 -0.4,-0.64 6.46,-9.49 9.19,-12.25 1.46,-1.47 7.22,-5.07 9.66,-3.21 0.6,0.46 1.61,1.97 2.48,3.71 0.63,1.26 0.64,1.62 -0.4,1.92 -2.1,0.58 -0.23,4.46 1.74,3.97 0.5,-0.14 0.67,-0.31 0.71,-0.79 0.09,-0.99 2.58,-0.78 1.74,-2.01 -0.51,-1.24 -0.69,-2.41 -2.27,-2.68 -0.78,-0.1 -1.05,-0.45 -1.45,-1.89 -1.13,-4.03 -4.13,-4.35 -5.04,-4.35 -3.55,0 -8.26,2.25 -12.53,6 -4.57,3.95 -7.6,9.37 -11.01,14.28 1.31,1.4 2.01,3.31 3.41,4.63 0.78,0 3.6,-3.17 6.06,-4 z m -5.59,1.4 c -0.13,-0.12 -0.29,-0.3 -0.36,-0.43 -0.12,-0.25 -0.16,-1.16 -0.05,-1.16 0.13,0 0.99,0.92 1.13,1.21 0.17,0.35 0.09,0.52 -0.25,0.56 -0.16,0.02 -0.31,-0.04 -0.48,-0.19 z m 1.16,-0.85 c -0.4,-0.18 -0.7,-0.49 -0.7,-0.74 0,-0.19 0.03,-0.22 0.23,-0.22 0.5,0 1.47,0.69 1.37,0.96 -0.06,0.16 -0.54,0.16 -0.91,0 z m 1.39,-0.89 c -0.5,-0.08 -0.71,-0.2 -0.68,-0.4 0.04,-0.26 0.36,-0.44 0.99,-0.57 0.87,-0.18 1.32,-0.08 1.55,0.35 0.09,0.17 0.08,0.2 -0.07,0.33 -0.31,0.25 -1.18,0.4 -1.8,0.29 z m 1.25,-13.2 c 2.12,-2.27 4.31,-4.03 6.94,-5.66 0.52,-0.37 -6.73,-7.08 -14.03,-7.17 -5.11,-0.06 -10.7,1.8 -14.95,3.78 -0.44,0.23 3.99,1 6.74,3.68 2.12,2.26 2.96,5.47 4.33,8.24 1.5,2.86 1.73,6.16 1.76,9.34 2.95,-4.06 5.13,-8.08 9.21,-12.21 z m 2.36,9.08 c 3.97,-1.85 7.17,-6.84 7.46,-7.31 1.3,-2.07 1.88,-2.88 2.48,-3.49 0.76,-0.77 1.26,-1.1 2.9,-1.92 1.63,-0.81 2.15,-1.3 1.49,-1.36 -0.74,-0.07 -3.3,1.19 -4.86,2.4 -0.75,0.58 -0.99,0.71 -1.26,0.68 -0.78,-0.08 -0.1,1.21 -0.86,1.05 -0.29,-0.06 -0.43,0.16 -0.5,0.78 -0.07,0.71 -1.83,1.64 -1.83,1.94 0,0.36 -0.16,0.61 -0.48,0.76 -0.34,0.16 -0.36,0.18 -0.45,0.69 -0.09,0.47 -0.18,0.55 -0.49,0.49 -1.17,1.1 -2.27,2.35 -3.23,3.66 -1.02,1.07 -1.82,1.96 -0.38,1.63 z m 6.93,-15.71 c 1.06,-0.5 1.31,-0.95 1.31,-2.34 0.04,-0.48 0,-0.91 -0.26,-1.3 -1.87,0.72 -4.14,0.54 -4.35,0.43 -0.29,-0.15 -0.25,-0.64 0.12,-1.47 1.82,-4.25 -0.76,-8.81 -3.49,-12.07 -0.93,-0.95 -1.25,-0.88 -1.19,0.27 0.13,2.46 2.55,4.7 3.39,7.22 0.9,2.68 -1.37,2.23 -1.96,0.38 -0.42,-1.33 -0.65,-3.34 -1.43,-3.18 -0.48,0.1 -1.51,1.25 -2.2,2.18 -0.96,1.28 -2.86,3.38 -3.04,0.28 -0.26,-4.36 -2.72,-6.91 -4.55,-8.21 -2.23,-1.6 -5.32,-2.32 -6.77,-1.58 -0.96,0.5 -1.45,2.65 0.02,2.27 1.37,-0.36 3.82,-0.92 6.95,1.23 0.54,0.36 2.41,2.1 2.41,2.23 0,0.11 -1.57,0.85 -1.8,0.85 -0.58,0 -1.02,-1.28 -1.85,-1.12 -0.15,0.03 -0.29,0 -0.42,-0.08 -0.83,-0.54 -0.25,-1.76 -1.2,-1.94 -1.04,-0.19 -2.03,0.77 -2.42,2.36 -0.44,1.86 0.27,4.04 -0.62,4.42 -0.26,0.11 -1.25,0.38 -2.62,-0.82 -1.55,-1.36 -5.1,-2.51 -9.19,-2.51 -1.65,0 -2.26,0.4 -2.83,0.74 -1.16,0.67 -0.84,4.33 1.03,2.59 2.16,-1.68 5.25,-1.65 7.87,-1.4 0.54,0.14 0.92,0.47 0.99,0.85 0.03,0.49 0.33,0.68 0.73,0.82 -0.37,0.64 -3.18,3.54 -2.69,1.45 0.1,-0.48 0.09,-0.52 -0.27,-0.39 -0.4,0.14 -0.85,-0.02 -1.31,-0.49 -0.46,-0.58 -0.36,-1.74 -1.54,-0.85 -0.63,0.63 0.63,4.94 2.06,4.93 0.56,-0.01 1.08,-0.12 3.18,-1.01 9.94,-4.22 17.88,-2.65 25.22,3.94 1.77,1.73 1.86,1.73 2.72,1.33 z m -28.82,-6.28 c -0.07,-0.19 0.13,-0.51 0.4,-0.64 0.33,-0.16 1.2,-0.21 1.2,-0.07 0,0.16 -0.88,0.68 -1.34,0.8 -0.16,0.04 -0.23,0.02 -0.26,-0.08 z"
     style="fill:#333333" />
  <g
     id="joker_black"
     transform="translate(7.756069e-4,-720.00117)">
    <use
       id="u6031"
       transform="translate(0,720)"
       xlink:href="#card" />
    <use
       transform="translate(0,720)"
       xlink:href="#fr"
       id="use377" />
    <use
       transform="translate(99.999224,720.00117)"
       style="fill:#333333"
       xlink:href="#jok2"
       id="use378" />
    <use
       transform="translate(99.999224,720.00117)"
       xlink:href="#jok1"
       id="use379" />
    <use
       transform="translate(29.999224,720.00117)"
       style="fill:#333333;stroke:#333333"
       xlink:href="#tJ"
       id="use380" />
    <use
       transform="rotate(180,45.000388,449.99941)"
       style="fill:#333333;stroke:#333333"
       xlink:href="#tJ"
       id="use381" />
  </g>
  <g
     id="club_1"
     transform="translate(7.756069e-4,-720.00117)">
    <g
       id="card"
       transform="matrix(0.83103,0,0,0.83565,-1641.9,-580.27)">
      <rect
         id="card_face"
         x="1976.64"
         y="695.29498"
         width="142.60001"
         height="213.60001"
         rx="9.5"
         ry="9.5"
         fill="#ffffff"
         stroke="#333333"
         stroke-linejoin="round"
         stroke-width="1.8" />
    </g>
    <g
       id="fr">
      <rect
         x="7"
         y="7"
         width="106"
         height="166"
         rx="3"
         ry="3"
         fill="none"
         style="fill:#eeeedd"
         id="rect460" />
      <path
         d="M 18.5,7 H 110 c 1.66,0 3,1.34 3,3 v 129 m -12,34 H 10 c -1.66,0 -3,-1.34 -3,-3 V 41"
         style="fill:none;stroke:#aa8855"
         id="path460" />
    </g>
  </g>
</svg>
