<?xml version="1.0" encoding="UTF-8" standalone="no"?>
<svg
   width="120.00073"
   height="179.99901"
   version="1.1"
   viewBox="0 0 120.00073 179.99901"
   preserveAspectRatio="none"
   id="svg462"
   xmlns:xlink="http://www.w3.org/1999/xlink"
   xmlns="http://www.w3.org/2000/svg"
   xmlns:svg="http://www.w3.org/2000/svg">
  <defs
     id="defs462" />
  <g
     id="diamond_10"
     transform="translate(-1079.9993,-180.00117)">
    <use
       transform="translate(1080,180)"
       xlink:href="#card"
       id="use92" />
    <use
       transform="translate(1080,180)"
       xlink:href="#fr"
       id="use93" />
    <use
       transform="translate(120)"
       xlink:href="#u16089"
       id="use94" />
    <use
       transform="translate(120)"
       xlink:href="#u16091"
       id="use95" />
    <use
       id="u16109"
       transform="translate(120)"
       xlink:href="#u16093" />
    <use
       transform="translate(120)"
       xlink:href="#u16095"
       id="use96" />
    <use
       id="u16113"
       transform="translate(120)"
       xlink:href="#u16097" />
    <use
       transform="translate(120)"
       xlink:href="#u16099"
       id="use97" />
    <use
       id="u16117"
       transform="translate(120)"
       xlink:href="#u16101" />
    <use
       transform="translate(120)"
       xlink:href="#u16103"
       id="use98" />
    <use
       transform="translate(25,20.833)"
       xlink:href="#u16113"
       id="use99" />
    <use
       transform="translate(25,-20.833)"
       xlink:href="#u16117"
       id="use100" />
    <use
       transform="translate(1080)"
       xlink:href="#pip_diam_S"
       id="use101" />
    <use
       transform="translate(1080)"
       xlink:href="#u5381"
       id="use102" />
    <use
       transform="translate(1079.9993,460.00117)"
       style="fill:#ee3333;stroke:#ee3333"
       xlink:href="#10"
       id="use103" />
    <use
       transform="rotate(180,600.00036,39.999414)"
       style="fill:#ee3333;stroke:#ee3333"
       xlink:href="#10"
       id="use104" />
  </g>
  <g
     id="diamond_6"
     transform="translate(-1079.9993,-180.00117)">
    <use
       id="u15224"
       transform="translate(120)"
       xlink:href="#u15214" />
    <use
       id="u15226"
       transform="translate(120)"
       xlink:href="#u15216" />
    <use
       id="u15228"
       transform="translate(120)"
       xlink:href="#u15218" />
    <use
       id="u15230"
       transform="translate(120)"
       xlink:href="#u15220" />
    <use
       id="u15232"
       transform="translate(0,62.5)"
       xlink:href="#u15224" />
    <use
       id="u15234"
       transform="translate(0,62.5)"
       xlink:href="#u15228" />
  </g>
  <g
     id="diamond_2"
     transform="translate(-1079.9993,-180.00117)">
    <use
       id="u14700"
       transform="translate(120,-62.5)"
       xlink:href="#pip_diam" />
    <use
       id="u15110"
       transform="rotate(180,180,270)"
       xlink:href="#u14700" />
  </g>
  <g
     id="diamond_3"
     transform="translate(-1079.9993,-180.00117)">
    <use
       id="u15200"
       transform="translate(120)"
       xlink:href="#u14700" />
    <use
       id="u15202"
       transform="translate(120)"
       xlink:href="#u15110" />
  </g>
  <g
     id="diamond_4"
     transform="translate(-1079.9993,-180.00117)">
    <use
       id="u15206"
       transform="translate(95)"
       xlink:href="#u15200" />
    <use
       id="u15208"
       transform="translate(95.02)"
       xlink:href="#u15202" />
    <use
       id="u15210"
       transform="translate(50)"
       xlink:href="#u15206" />
    <use
       id="u15212"
       transform="translate(50)"
       xlink:href="#u15208" />
  </g>
  <g
     id="diamond_5"
     transform="translate(-1079.9993,-180.00117)">
    <use
       id="u15214"
       transform="translate(120)"
       xlink:href="#u15206" />
    <use
       id="u15216"
       transform="translate(120)"
       xlink:href="#u15208" />
    <use
       id="u15218"
       transform="translate(120)"
       xlink:href="#u15210" />
    <use
       id="u15220"
       transform="translate(120)"
       xlink:href="#u15212" />
  </g>
  <g
     id="diamond_7"
     transform="translate(-1079.9993,-180.00117)">
    <use
       id="u15236"
       transform="translate(120)"
       xlink:href="#u15224" />
    <use
       id="u15238"
       transform="translate(120)"
       xlink:href="#u15226" />
    <use
       id="u15240"
       transform="translate(120)"
       xlink:href="#u15228" />
    <use
       id="u15242"
       transform="translate(120)"
       xlink:href="#u15230" />
    <use
       id="u15244"
       transform="translate(120)"
       xlink:href="#u15232" />
    <use
       id="u15246"
       transform="translate(120)"
       xlink:href="#u15234" />
  </g>
  <g
     id="diamond_8"
     transform="translate(-1079.9993,-180.00117)">
    <use
       id="u15936"
       transform="translate(120)"
       xlink:href="#u15236" />
    <use
       id="u15938"
       transform="translate(120)"
       xlink:href="#u15238" />
    <use
       id="u15940"
       transform="translate(120)"
       xlink:href="#u15240" />
    <use
       id="u15942"
       transform="translate(120)"
       xlink:href="#u15242" />
    <use
       id="u15944"
       transform="translate(120)"
       xlink:href="#u15244" />
    <use
       id="u15946"
       transform="translate(120)"
       xlink:href="#u15246" />
  </g>
  <g
     id="diamond_9"
     transform="translate(-1079.9993,-180.00117)">
    <use
       id="u16089"
       transform="translate(120)"
       xlink:href="#u15936" />
    <use
       id="u16091"
       transform="translate(120)"
       xlink:href="#u15938" />
    <use
       id="u16093"
       transform="translate(120)"
       xlink:href="#u15940" />
    <use
       id="u16095"
       transform="translate(120)"
       xlink:href="#u15942" />
    <use
       id="u16097"
       transform="translate(120,20.833)"
       xlink:href="#u15944" />
    <use
       id="u16099"
       transform="translate(120,20.833)"
       xlink:href="#u15946" />
    <use
       id="u16101"
       transform="translate(0,41.667)"
       xlink:href="#u16089" />
    <use
       id="u16103"
       transform="translate(0,41.667)"
       xlink:href="#u16093" />
  </g>
  <g
     id="diamond_1"
     transform="translate(-1079.9993,-180.00117)">
    <use
       id="u5381"
       transform="rotate(180,60.044,270)"
       xlink:href="#pip_diam_S" />
    <path
       id="pip_diam"
       d="m 60,254 c 3,8 8,13 16,16 -7.606,3.17 -13,8 -16,16 -3.09,-7.896 -8.213,-12.853 -16,-16 8,-3 13.298,-8.058 16,-16 z"
       fill="#ee3333" />
    <use
       id="pip_diam_S"
       transform="matrix(0.375,0,0,0.375,-11.74,111.1)"
       xlink:href="#pip_diam" />
  </g>
  <path
     id="10"
     d="m 7.6007106,-273.29117 c -0.54,1.12 -0.95,2.17 -2.48,2.65 v 0.77 h 1.48 v 10.47 c 0,0.78 -0.26,1.12 -1.48,1.12 v 0.84 h 4.75 v -0.77 c -0.82,0 -1.48,-0.25 -1.48,-1.12 v -13.97 z m 5.6999994,0 c -2.05,0.01 -2.83,1.92 -3.22,3.71 -0.6799994,3.15 -0.5899994,5.4 0,8.57 0.5,2.72 1.97,3.7 3.22,3.71 1.25,-0.02 2.72,-0.99 3.22,-3.71 0.59,-3.17 0.68,-5.42 0,-8.57 -0.39,-1.8 -1.17,-3.7 -3.22,-3.71 z m 0,0.84 c 0.54,0 0.94,0.57 1.2,1.68 0.23,0.97 0.97,6.26 0,10.89 -0.23,1.12 -0.59,1.68 -1.2,1.68 -0.61,0 -0.97,-0.56 -1.2,-1.68 -0.97,-4.63 -0.24,-9.91 0,-10.89 0.27,-1.11 0.67,-1.68 1.2,-1.68 z"
     stroke-width="0.25" />
  <g
     id="club_1"
     transform="translate(-1079.9993,-180.00117)">
    <g
       id="card"
       transform="matrix(0.83103,0,0,0.83565,-1641.9,-580.27)">
      <rect
         id="card_face"
         x="1976.64"
         y="695.29498"
         width="142.60001"
         height="213.60001"
         rx="9.5"
         ry="9.5"
         fill="#ffffff"
         stroke="#333333"
         stroke-linejoin="round"
         stroke-width="1.8" />
    </g>
    <g
       id="fr">
      <rect
         x="7"
         y="7"
         width="106"
         height="166"
         rx="3"
         ry="3"
         fill="none"
         style="fill:#eeeedd"
         id="rect460" />
      <path
         d="M 18.5,7 H 110 c 1.66,0 3,1.34 3,3 v 129 m -12,34 H 10 c -1.66,0 -3,-1.34 -3,-3 V 41"
         style="fill:none;stroke:#aa8855"
         id="path460" />
    </g>
  </g>
</svg>
