<?xml version="1.0" encoding="UTF-8" standalone="no"?>
<svg
   width="120.00073"
   height="179.99902"
   version="1.1"
   viewBox="0 0 120.00073 179.99902"
   preserveAspectRatio="none"
   id="svg462"
   xmlns:xlink="http://www.w3.org/1999/xlink"
   xmlns="http://www.w3.org/2000/svg"
   xmlns:svg="http://www.w3.org/2000/svg">
  <defs
     id="defs462" />
  <g
     id="spade_10"
     transform="translate(-1079.9993,-540.00117)">
    <use
       transform="translate(1080,540)"
       xlink:href="#card"
       id="use283" />
    <use
       transform="translate(1080,540)"
       xlink:href="#fr"
       id="use284" />
    <use
       transform="translate(120)"
       xlink:href="#u1649"
       id="use285" />
    <use
       transform="translate(120)"
       xlink:href="#u1651"
       id="use286" />
    <use
       id="u1669"
       transform="translate(120)"
       xlink:href="#u1653" />
    <use
       transform="translate(120)"
       xlink:href="#u1655"
       id="use287" />
    <use
       transform="translate(120)"
       xlink:href="#u1657"
       id="use288" />
    <use
       transform="translate(120)"
       xlink:href="#u1659"
       id="use289" />
    <use
       id="u1677"
       transform="translate(120)"
       xlink:href="#u1661" />
    <use
       transform="translate(120)"
       xlink:href="#u1663"
       id="use290" />
    <use
       transform="translate(25,-21)"
       xlink:href="#u1669"
       id="use291" />
    <use
       transform="translate(25,21)"
       xlink:href="#u1677"
       id="use292" />
    <use
       transform="translate(1080)"
       xlink:href="#pip_spade_S"
       id="use293" />
    <use
       transform="translate(1080)"
       xlink:href="#u10961"
       id="use294" />
    <use
       transform="translate(1079.9993,1180.0012)"
       style="fill:#333333;stroke:#333333"
       xlink:href="#10"
       id="use295" />
    <use
       transform="rotate(180,600.00036,39.999415)"
       style="fill:#333333;stroke:#333333"
       xlink:href="#10"
       id="use296" />
  </g>
  <g
     id="spade_6"
     transform="translate(-1079.9993,-540.00117)">
    <use
       id="u32996"
       transform="translate(334.94)"
       xlink:href="#u32170" />
    <use
       id="u32998"
       transform="translate(334.94)"
       xlink:href="#u32172" />
    <use
       id="u33000"
       transform="translate(334.94)"
       xlink:href="#u32174" />
    <use
       id="u33002"
       transform="translate(50)"
       xlink:href="#u32996" />
    <use
       id="u33004"
       transform="translate(50)"
       xlink:href="#u32998" />
    <use
       id="u33006"
       transform="translate(50)"
       xlink:href="#u33000" />
  </g>
  <g
     id="spade_2"
     transform="translate(-1079.9993,-540.00117)">
    <use
       id="u28846"
       transform="translate(120,-62.75)"
       xlink:href="#pip_spade" />
    <use
       id="u29400"
       transform="rotate(180,180.04,630)"
       xlink:href="#u28846" />
  </g>
  <g
     id="spade_3"
     transform="translate(-1079.9993,-540.00117)">
    <use
       id="u32170"
       transform="translate(120)"
       xlink:href="#u28846" />
    <use
       id="u32172"
       transform="translate(120)"
       xlink:href="#u29400" />
    <use
       id="u32174"
       transform="translate(240)"
       xlink:href="#pip_spade" />
  </g>
  <g
     id="spade_7"
     transform="translate(-1079.9993,-540.00117)">
    <use
       id="u33008"
       transform="translate(120)"
       xlink:href="#u32996" />
    <use
       id="u33010"
       transform="translate(120)"
       xlink:href="#u32998" />
    <use
       id="u33012"
       transform="translate(120)"
       xlink:href="#u33000" />
    <use
       id="u33014"
       transform="translate(120)"
       xlink:href="#u33002" />
    <use
       id="u33016"
       transform="translate(120)"
       xlink:href="#u33004" />
    <use
       id="u33018"
       transform="translate(120)"
       xlink:href="#u33006" />
  </g>
  <g
     id="spade_8"
     transform="translate(-1079.9993,-540.00117)">
    <use
       id="u33022"
       transform="translate(120)"
       xlink:href="#u33008" />
    <use
       id="u33024"
       transform="translate(120)"
       xlink:href="#u33010" />
    <use
       id="u33026"
       transform="translate(120)"
       xlink:href="#u33012" />
    <use
       id="u33028"
       transform="translate(120)"
       xlink:href="#u33014" />
    <use
       id="u33030"
       transform="translate(120)"
       xlink:href="#u33016" />
    <use
       id="u33032"
       transform="translate(120)"
       xlink:href="#u33018" />
  </g>
  <g
     id="spade_9"
     transform="translate(-1079.9993,-540.00117)">
    <use
       id="u1649"
       transform="translate(120)"
       xlink:href="#u33022" />
    <use
       id="u1651"
       transform="translate(120)"
       xlink:href="#u33024" />
    <use
       id="u1653"
       transform="translate(120,-21)"
       xlink:href="#u33026" />
    <use
       id="u1655"
       transform="translate(120)"
       xlink:href="#u33028" />
    <use
       id="u1657"
       transform="translate(120)"
       xlink:href="#u33030" />
    <use
       id="u1659"
       transform="translate(120,-21)"
       xlink:href="#u33032" />
    <use
       id="u1661"
       transform="translate(0,-41.833)"
       xlink:href="#u1651" />
    <use
       id="u1663"
       transform="translate(0,-41.833)"
       xlink:href="#u1657" />
  </g>
  <path
     id="10"
     d="m 7.6007106,-633.29117 c -0.54,1.12 -0.95,2.17 -2.48,2.65 v 0.77 h 1.48 v 10.47 c 0,0.78 -0.26,1.12 -1.48,1.12 v 0.84 h 4.75 v -0.77 c -0.82,0 -1.48,-0.25 -1.48,-1.12 v -13.97 z m 5.6999994,0 c -2.05,0.01 -2.83,1.92 -3.22,3.71 -0.6799994,3.15 -0.5899994,5.4 0,8.57 0.5,2.72 1.97,3.7 3.22,3.71 1.25,-0.02 2.72,-0.99 3.22,-3.71 0.59,-3.17 0.68,-5.42 0,-8.57 -0.39,-1.8 -1.17,-3.7 -3.22,-3.71 z m 0,0.84 c 0.54,0 0.94,0.57 1.2,1.68 0.23,0.97 0.97,6.26 0,10.89 -0.23,1.12 -0.59,1.68 -1.2,1.68 -0.61,0 -0.97,-0.56 -1.2,-1.68 -0.97,-4.63 -0.24,-9.91 0,-10.89 0.27,-1.11 0.67,-1.68 1.2,-1.68 z"
     stroke-width="0.25" />
  <g
     id="spade_1"
     transform="translate(-1079.9993,-540.00117)">
    <use
       id="u10961"
       transform="rotate(180,60.044,630)"
       xlink:href="#pip_spade_S" />
    <use
       id="pip_spade_S"
       transform="matrix(0.4,0,0,0.4,-13.24,320.3)"
       xlink:href="#pip_spade" />
    <path
       id="pip_spade"
       d="M 60,614.25 C 55,624.75 46,624 46,632 c 0,4 2.5,6.75 6.5,6.75 3.5,0 5.5,-1.75 6.37,-3.5 -0.03,5.4 -0.7,7.74 -3.62,9.2 l 1.2,1.3 c 0,0 1.55,-1.25 3.55,-1.25 2,0 3.55,1.25 3.55,1.25 l 1.2,-1.3 c -2.92,-1.46 -3.59,-3.8 -3.62,-9.2 0.87,1.75 2.87,3.5 6.37,3.5 4,0 6.5,-2.75 6.5,-6.75 0,-8 -9,-7.25 -14,-17.75 z"
       style="fill:#333333" />
  </g>
  <g
     id="club_1"
     transform="translate(-1079.9993,-540.00117)">
    <g
       id="card"
       transform="matrix(0.83103,0,0,0.83565,-1641.9,-580.27)">
      <rect
         id="card_face"
         x="1976.64"
         y="695.29498"
         width="142.60001"
         height="213.60001"
         rx="9.5"
         ry="9.5"
         fill="#ffffff"
         stroke="#333333"
         stroke-linejoin="round"
         stroke-width="1.8" />
    </g>
    <g
       id="fr">
      <rect
         x="7"
         y="7"
         width="106"
         height="166"
         rx="3"
         ry="3"
         fill="none"
         style="fill:#eeeedd"
         id="rect460" />
      <path
         d="M 18.5,7 H 110 c 1.66,0 3,1.34 3,3 v 129 m -12,34 H 10 c -1.66,0 -3,-1.34 -3,-3 V 41"
         style="fill:none;stroke:#aa8855"
         id="path460" />
    </g>
  </g>
</svg>
