<?xml version="1.0" encoding="UTF-8" standalone="no"?>
<svg
   width="119.99989"
   height="179.99985"
   version="1.1"
   viewBox="0 0 119.99989 179.99985"
   preserveAspectRatio="none"
   id="svg381"
   xmlns:xlink="http://www.w3.org/1999/xlink"
   xmlns="http://www.w3.org/2000/svg"
   xmlns:svg="http://www.w3.org/2000/svg">
  <defs
     id="defs20" />
  <path
     id="3"
     d="m 15.364038,-83.490169 c 0,2.36 -1.27,4.59 -4.42,4.59 -2.1000008,0 -4.2700008,-1.23 -4.4000008,-4.36 0,-0.17 0.08,-0.25 0.24,-0.25 h 1.86 c 0.16,0 0.24,0.08 0.24,0.24 0.06,1.02 0.45,2.38 2.0600008,2.38 1.48,0 2.08,-1.16 2.08,-2.68 0,-1.22 -0.35,-2.77 -2.1,-2.77 -0.23,0 -0.53,0.13 -0.92,0.39 -0.1200008,0.06 -0.2200008,0.07 -0.3400008,-0.08 l -0.92,-1.27 c -0.11,-0.15 -0.05,-0.28 0.02,-0.34 l 3.3000008,-3.22 c 0.05,-0.05 0.02,-0.12 -0.06,-0.12 H 7.0040372 c -0.06,0 -0.24,-0.02 -0.24,-0.23 v -1.51 c 0,-0.17 0.15,-0.24 0.24,-0.24 h 7.9800008 c 0.12,0 0.24,0.12 0.24,0.24 v 1.72 c 0,0.11 -0.04,0.21 -0.12,0.3 l -2.86,2.85 c -0.05,0.05 -0.03,0.09 0.08,0.12 2.3,0.32 3.04,2.4 3.04,4.24 z" />
  <g
     id="club_1"
     transform="translate(-239.99597,-1.6909403e-4)">
    <g
       id="card"
       transform="matrix(0.83103,0,0,0.83565,-1641.87,-580.266)">
      <rect
         id="card_face"
         x="1976.6"
         y="695.289"
         width="142.599"
         height="213.601"
         rx="9.6000004"
         ry="9.6000004"
         fill="#ffffff"
         stroke="#333333"
         stroke-width="1.8" />
    </g>
    <use
       id="u2940"
       transform="rotate(180,60.034,90)"
       xlink:href="#pip_club_S" />
    <path
       id="pip_club"
       d="m 60,75 a 5,5 0 0 0 -3,9 c 1.35,1 2,1.5 2,4 0,0.83 -0.67,1.5 -1.5,1.5 -2.25,0 -2.5,-0.65 -3.5,-2 a 5,5 0 0 0 -4,-2 c -3.33,0 -5,2.5 -5,5 0,2.5 1.67,5 5,5 a 5,5 0 0 0 4,-2 c 1,-1.35 1.25,-2 3.5,-2 0.83,0 1.5,0.67 1.5,1.5 0.1,7.16 -2.13,9 -3.88,11 l 0.75,1 c 0,0 1.83,-0.85 4.13,-0.85 2.3,0 4.25,0.85 4.25,0.85 L 65,104 c -1.91,-1.9 -4,-4 -4,-11 0,-0.83 0.67,-1.5 1.5,-1.5 2.25,0 2.5,0.65 3.5,2 a 5,5 0 1 0 0,-6 c -1,1.35 -1.25,2 -3.5,2 A 1.5,1.5 0 0 1 61,88 c 0,-2.5 0.65,-3 2,-4 a 5,5 0 0 0 -3,-9 z"
       fill="#333333" />
    <use
       id="pip_club_S"
       transform="matrix(0.367,0,0,0.367,-11.05,-3.25)"
       xlink:href="#pip_club" />
  </g>
  <g
     id="club_2"
     transform="translate(-239.99597,-1.6909403e-4)">
    <use
       id="u1410"
       transform="translate(120,-62.76)"
       xlink:href="#pip_club" />
    <use
       id="u1780"
       transform="matrix(1,0,0,-1,120,242.758)"
       xlink:href="#pip_club" />
  </g>
  <g
     id="club_3"
     transform="translate(-239.99597,-1.6909403e-4)">
    <use
       transform="translate(240)"
       xlink:href="#card"
       id="use66" />
    <use
       id="u1782"
       transform="translate(120)"
       xlink:href="#u1410" />
    <use
       id="u1784"
       transform="translate(120)"
       xlink:href="#u1780" />
    <use
       id="u1904"
       transform="translate(240)"
       xlink:href="#pip_club" />
    <use
       transform="translate(240)"
       xlink:href="#pip_club_S"
       id="use67" />
    <use
       transform="translate(240)"
       xlink:href="#u2940"
       id="use68" />
    <use
       transform="translate(239.99597,100.00017)"
       style="fill:#333333"
       xlink:href="#3"
       id="use69" />
    <use
       transform="rotate(180,180.00202,39.999915)"
       style="fill:#333333"
       xlink:href="#3"
       id="use70" />
  </g>
</svg>
