<?xml version="1.0" encoding="UTF-8" standalone="no"?>
<svg
   width="119.99989"
   height="179.99982"
   version="1.1"
   viewBox="0 0 119.99989 179.99982"
   preserveAspectRatio="none"
   id="svg381"
   xmlns:xlink="http://www.w3.org/1999/xlink"
   xmlns="http://www.w3.org/2000/svg"
   xmlns:svg="http://www.w3.org/2000/svg">
  <defs
     id="defs20" />
  <path
     id="3"
     d="m 15.364038,-443.49017 c 0,2.36 -1.27,4.59 -4.42,4.59 -2.1000008,0 -4.2700008,-1.23 -4.4000008,-4.36 0,-0.17 0.08,-0.25 0.24,-0.25 h 1.86 c 0.16,0 0.24,0.08 0.24,0.24 0.06,1.02 0.45,2.38 2.0600008,2.38 1.48,0 2.08,-1.16 2.08,-2.68 0,-1.22 -0.35,-2.77 -2.1,-2.77 -0.23,0 -0.53,0.13 -0.92,0.39 -0.1200008,0.06 -0.2200008,0.07 -0.3400008,-0.08 l -0.92,-1.27 c -0.11,-0.15 -0.05,-0.28 0.02,-0.34 l 3.3000008,-3.22 c 0.05,-0.05 0.02,-0.12 -0.06,-0.12 H 7.0040372 c -0.06,0 -0.24,-0.02 -0.24,-0.23 v -1.51 c 0,-0.17 0.15,-0.24 0.24,-0.24 h 7.9800008 c 0.12,0 0.24,0.12 0.24,0.24 v 1.72 c 0,0.11 -0.04,0.21 -0.12,0.3 l -2.86,2.85 c -0.05,0.05 -0.03,0.09 0.08,0.12 2.3,0.32 3.04,2.4 3.04,4.24 z" />
  <g
     id="club_1"
     transform="translate(-239.99597,-360.00017)">
    <g
       id="card"
       transform="matrix(0.83103,0,0,0.83565,-1641.87,-580.266)">
      <rect
         id="card_face"
         x="1976.6"
         y="695.289"
         width="142.599"
         height="213.601"
         rx="9.6000004"
         ry="9.6000004"
         fill="#ffffff"
         stroke="#333333"
         stroke-width="1.8" />
    </g>
  </g>
  <g
     id="heart_1"
     transform="translate(-239.99597,-360.00017)">
    <use
       id="pip_heart_S"
       transform="matrix(0.386,0,0,0.37,-12.4,222.9)"
       xlink:href="#pip_heart" />
    <use
       id="u9338"
       transform="rotate(180,60.034,450)"
       xlink:href="#pip_heart_S" />
    <path
       id="pip_heart"
       d="m 53,438 c -3.87,0 -7,2.86 -7,7 0,7.5 8,10 14,20 6.11,-10.19 14,-12.5 14,-20 a 6.85,6.85 0 0 0 -7,-7 c -3.68,0 -5.7,2.3 -7,5 -1.3,-2.7 -3.32,-5 -7,-5 z"
       fill="#ee3333" />
  </g>
  <g
     id="heart_2"
     transform="translate(-239.99597,-360.00017)">
    <use
       id="u21397"
       transform="translate(120,-66.5)"
       xlink:href="#pip_heart" />
    <use
       id="u21762"
       transform="rotate(180,180.004,450)"
       xlink:href="#u21397" />
  </g>
  <g
     id="heart_3"
     transform="translate(-239.99597,-360.00017)">
    <use
       transform="translate(240,360)"
       xlink:href="#card"
       id="use249" />
    <use
       id="u21852"
       transform="translate(120)"
       xlink:href="#u21397" />
    <use
       id="u21854"
       transform="translate(120)"
       xlink:href="#u21762" />
    <use
       id="u21856"
       transform="translate(0,66.5)"
       xlink:href="#u21852" />
    <use
       transform="translate(240)"
       xlink:href="#pip_heart_S"
       id="use250" />
    <use
       transform="translate(240)"
       xlink:href="#u9338"
       id="use251" />
    <use
       transform="translate(239.99597,820.00017)"
       style="fill:#ee3333"
       xlink:href="#3"
       id="use252" />
    <use
       transform="rotate(180,180.00202,39.999911)"
       style="fill:#ee3333"
       xlink:href="#3"
       id="use253" />
  </g>
</svg>
