<?xml version="1.0" encoding="UTF-8" standalone="no"?>
<svg
   width="119.99989"
   height="179.99982"
   version="1.1"
   viewBox="0 0 119.99989 179.99982"
   preserveAspectRatio="none"
   id="svg381"
   xmlns:xlink="http://www.w3.org/1999/xlink"
   xmlns="http://www.w3.org/2000/svg"
   xmlns:svg="http://www.w3.org/2000/svg">
  <defs
     id="defs20" />
  <path
     id="3"
     d="m 15.364038,-623.49017 c 0,2.36 -1.27,4.59 -4.42,4.59 -2.1000008,0 -4.2700008,-1.23 -4.4000008,-4.36 0,-0.17 0.08,-0.25 0.24,-0.25 h 1.86 c 0.16,0 0.24,0.08 0.24,0.24 0.06,1.02 0.45,2.38 2.0600008,2.38 1.48,0 2.08,-1.16 2.08,-2.68 0,-1.22 -0.35,-2.77 -2.1,-2.77 -0.23,0 -0.53,0.13 -0.92,0.39 -0.1200008,0.06 -0.2200008,0.07 -0.3400008,-0.08 l -0.92,-1.27 c -0.11,-0.15 -0.05,-0.28 0.02,-0.34 l 3.3000008,-3.22 c 0.05,-0.05 0.02,-0.12 -0.06,-0.12 H 7.0040372 c -0.06,0 -0.24,-0.02 -0.24,-0.23 v -1.51 c 0,-0.17 0.15,-0.24 0.24,-0.24 h 7.9800008 c 0.12,0 0.24,0.12 0.24,0.24 v 1.72 c 0,0.11 -0.04,0.21 -0.12,0.3 l -2.86,2.85 c -0.05,0.05 -0.03,0.09 0.08,0.12 2.3,0.32 3.04,2.4 3.04,4.24 z" />
  <g
     id="club_1"
     transform="translate(-239.99597,-540.00017)">
    <g
       id="card"
       transform="matrix(0.83103,0,0,0.83565,-1641.87,-580.266)">
      <rect
         id="card_face"
         x="1976.6"
         y="695.289"
         width="142.599"
         height="213.601"
         rx="9.6000004"
         ry="9.6000004"
         fill="#ffffff"
         stroke="#333333"
         stroke-width="1.8" />
    </g>
  </g>
  <g
     id="spade_1"
     transform="translate(-239.99597,-540.00017)">
    <use
       id="u10961"
       transform="rotate(180,60.034,630)"
       xlink:href="#pip_spade_S" />
    <path
       id="pip_spade"
       d="m 60,614.25 c 0,0 -2.12,4 -6.5,7.75 -3.5,3 -7.25,6.3 -7.25,11 0,3.59 2.3,6.2 5.75,6.2 3.7,0 6,-2.9 6,-5.55 0,-0.2 0.18,-0.35 0.38,-0.35 0.2,0 0.36,0.15 0.37,0.35 V 635 c 0,4.08 -1.5,7.95 -3.5,9.5 l 1.25,1.25 c 0,0 1.5,-1 3.5,-1 2,0 3.5,1 3.5,1 l 1.25,-1.25 c -2,-1.55 -3.5,-5.5 -3.5,-9.5 v -1.35 a 0.38,0.38 0 0 1 0.38,-0.35 c 0.2,0 0.37,0.15 0.37,0.35 a 5.8,5.8 0 0 0 6,5.55 c 3.45,0 5.75,-2.61 5.75,-6.2 0,-4.7 -3.75,-8 -7.25,-11 -4.43,-3.8 -6.5,-7.75 -6.5,-7.75 z"
       fill="#333333" />
    <use
       id="pip_spade_S"
       transform="matrix(0.393,0,0,0.397,-12.8,320.25)"
       xlink:href="#pip_spade" />
  </g>
  <g
     id="spade_2"
     transform="translate(-239.99597,-540.00017)">
    <use
       id="u28846"
       transform="translate(120,-63.5)"
       xlink:href="#pip_spade" />
    <use
       id="u29400"
       transform="rotate(180,180.034,630)"
       xlink:href="#u28846" />
  </g>
  <g
     id="spade_3"
     transform="translate(-239.99597,-540.00017)">
    <use
       transform="translate(240,540)"
       xlink:href="#card"
       id="use157" />
    <use
       id="u32170"
       transform="translate(120)"
       xlink:href="#u28846" />
    <use
       id="u32172"
       transform="translate(120)"
       xlink:href="#u29400" />
    <use
       id="u32174"
       transform="translate(240)"
       xlink:href="#pip_spade" />
    <use
       transform="translate(240)"
       xlink:href="#pip_spade_S"
       id="use158" />
    <use
       transform="translate(240)"
       xlink:href="#u10961"
       id="use159" />
    <use
       transform="translate(239.99597,1180.0002)"
       style="fill:#333333"
       xlink:href="#3"
       id="use160" />
    <use
       transform="rotate(180,180.00202,39.999913)"
       style="fill:#333333"
       xlink:href="#3"
       id="use161" />
  </g>
</svg>
