<?xml version="1.0" encoding="UTF-8" standalone="no"?>
<svg
   width="119.99991"
   height="179.99982"
   version="1.1"
   viewBox="0 0 119.99991 179.99982"
   preserveAspectRatio="none"
   id="svg381"
   xmlns:xlink="http://www.w3.org/1999/xlink"
   xmlns="http://www.w3.org/2000/svg"
   xmlns:svg="http://www.w3.org/2000/svg">
  <defs
     id="defs20" />
  <path
     id="5"
     d="m 15.354065,-623.41017 c 0,3.28 -2.27,4.53 -4.42,4.53 -3.35,0 -4.18,-2.55 -4.38,-3.68 v -0.03 c 0,-0.15 0.08,-0.22 0.24,-0.22 h 1.9 c 0.13,0 0.22,0.07 0.26,0.22 0.03,0.18 0.33,1.72 1.96,1.72 1.77,0 2.08,-1.74 2.08,-2.54 0,-1.17 -0.37,-2.48 -2.02,-2.48 -0.81,0 -1.71,0.39 -1.94,1.12 -0.05,0.13 -0.15,0.19 -0.28,0.19 h -1.94 c -0.22,0 -0.24,-0.17 -0.24,-0.24 v -7.86 c 0,-0.17 0.15,-0.24 0.24,-0.24 h 7.78 c 0.12,0 0.24,0.12 0.24,0.24 v 1.5 c 0,0.09 -0.07,0.24 -0.24,0.24 h -5.6 c -0.07,0 -0.1,0.03 -0.1,0.1 l -0.02,3.58 c 0,0.05 0.01,0.09 0.04,0.1 0.03,0 0.05,-0.01 0.08,-0.04 0.63,-0.47 1.38,-0.7 2.26,-0.7 1.66,0 4.1,0.89 4.1,4.49 z" />
  <g
     id="club_1"
     transform="translate(-479.99593,-540.00017)">
    <g
       id="card"
       transform="matrix(0.83103,0,0,0.83565,-1641.87,-580.266)">
      <rect
         id="card_face"
         x="1976.6"
         y="695.289"
         width="142.599"
         height="213.601"
         rx="9.6000004"
         ry="9.6000004"
         fill="#ffffff"
         stroke="#333333"
         stroke-width="1.8" />
    </g>
  </g>
  <g
     id="spade_1"
     transform="translate(-479.99593,-540.00017)">
    <use
       id="u10961"
       transform="rotate(180,60.034,630)"
       xlink:href="#pip_spade_S" />
    <path
       id="pip_spade"
       d="m 60,614.25 c 0,0 -2.12,4 -6.5,7.75 -3.5,3 -7.25,6.3 -7.25,11 0,3.59 2.3,6.2 5.75,6.2 3.7,0 6,-2.9 6,-5.55 0,-0.2 0.18,-0.35 0.38,-0.35 0.2,0 0.36,0.15 0.37,0.35 V 635 c 0,4.08 -1.5,7.95 -3.5,9.5 l 1.25,1.25 c 0,0 1.5,-1 3.5,-1 2,0 3.5,1 3.5,1 l 1.25,-1.25 c -2,-1.55 -3.5,-5.5 -3.5,-9.5 v -1.35 a 0.38,0.38 0 0 1 0.38,-0.35 c 0.2,0 0.37,0.15 0.37,0.35 a 5.8,5.8 0 0 0 6,5.55 c 3.45,0 5.75,-2.61 5.75,-6.2 0,-4.7 -3.75,-8 -7.25,-11 -4.43,-3.8 -6.5,-7.75 -6.5,-7.75 z"
       fill="#333333" />
    <use
       id="pip_spade_S"
       transform="matrix(0.393,0,0,0.397,-12.8,320.25)"
       xlink:href="#pip_spade" />
  </g>
  <g
     id="spade_2"
     transform="translate(-479.99593,-540.00017)">
    <use
       id="u28846"
       transform="translate(120,-63.5)"
       xlink:href="#pip_spade" />
    <use
       id="u29400"
       transform="rotate(180,180.034,630)"
       xlink:href="#u28846" />
  </g>
  <g
     id="spade_3"
     transform="translate(-479.99593,-540.00017)">
    <use
       id="u32174"
       transform="translate(240)"
       xlink:href="#pip_spade" />
  </g>
  <g
     id="spade_4"
     transform="translate(-479.99593,-540.00017)">
    <use
       id="u32978"
       transform="translate(214.94)"
       xlink:href="#u28846" />
    <use
       id="u32980"
       transform="translate(214.94)"
       xlink:href="#u29400" />
    <use
       id="u32982"
       transform="translate(50)"
       xlink:href="#u32978" />
    <use
       id="u32984"
       transform="translate(50)"
       xlink:href="#u32980" />
  </g>
  <g
     id="spade_5"
     transform="translate(-479.99593,-540.00017)">
    <use
       transform="translate(480,540)"
       xlink:href="#card"
       id="use167" />
    <use
       transform="translate(120)"
       xlink:href="#u32978"
       id="use168" />
    <use
       transform="translate(120)"
       xlink:href="#u32980"
       id="use169" />
    <use
       transform="translate(120)"
       xlink:href="#u32982"
       id="use170" />
    <use
       transform="translate(120)"
       xlink:href="#u32984"
       id="use171" />
    <use
       transform="translate(239.94)"
       xlink:href="#u32174"
       id="use172" />
    <use
       transform="translate(480)"
       xlink:href="#pip_spade_S"
       id="use173" />
    <use
       transform="translate(480)"
       xlink:href="#u10961"
       id="use174" />
    <use
       transform="translate(479.99593,1180.0002)"
       style="fill:#333333"
       xlink:href="#5"
       id="use175" />
    <use
       transform="rotate(180,300.00203,39.999913)"
       style="fill:#333333"
       xlink:href="#5"
       id="use176" />
  </g>
</svg>
