<?xml version="1.0" encoding="UTF-8" standalone="no"?>
<svg
   width="119.99988"
   height="179.99983"
   version="1.1"
   viewBox="0 0 119.99988 179.99983"
   preserveAspectRatio="none"
   id="svg381"
   xmlns:xlink="http://www.w3.org/1999/xlink"
   xmlns="http://www.w3.org/2000/svg"
   xmlns:svg="http://www.w3.org/2000/svg">
  <defs
     id="defs20" />
  <path
     id="7"
     d="m 8.6840407,-258.90017 c -0.2,0 -0.27,-0.09 -0.2,-0.28 l 4.4199993,-11.6 c 0.03,-0.08 0,-0.12 -0.08,-0.12 H 8.5240407 c -0.07,0 -0.1,0.03 -0.1,0.1 v 0.9 c 0,0.09 -0.07,0.24 -0.24,0.24 h -1.44 c -0.22,0 -0.24,-0.17 -0.24,-0.24 v -2.76 c 0,-0.17 0.15,-0.24 0.24,-0.24 H 15.16404 c 0.12,0 0.24,0.12 0.24,0.24 v 1.6 c 0,0.08 -0.02,0.18 -0.06,0.3 l -4.4,11.66 c -0.04,0.13 -0.13,0.2 -0.28,0.2 z" />
  <g
     id="club_1"
     transform="translate(-719.99596,-180.00017)">
    <g
       id="card"
       transform="matrix(0.83103,0,0,0.83565,-1641.87,-580.266)">
      <rect
         id="card_face"
         x="1976.6"
         y="695.289"
         width="142.599"
         height="213.601"
         rx="9.6000004"
         ry="9.6000004"
         fill="#ffffff"
         stroke="#333333"
         stroke-width="1.8" />
    </g>
  </g>
  <g
     id="diamond_6"
     transform="translate(-719.99596,-180.00017)">
    <use
       id="u15224"
       transform="translate(120)"
       xlink:href="#u15214" />
    <use
       id="u15226"
       transform="translate(120)"
       xlink:href="#u15216" />
    <use
       id="u15228"
       transform="translate(120)"
       xlink:href="#u15218" />
    <use
       id="u15230"
       transform="translate(120)"
       xlink:href="#u15220" />
    <use
       id="u15232"
       transform="translate(0,63.25)"
       xlink:href="#u15224" />
    <use
       id="u15234"
       transform="translate(0,63.25)"
       xlink:href="#u15228" />
  </g>
  <g
     id="diamond_1"
     transform="translate(-719.99596,-180.00017)">
    <use
       id="u5381"
       transform="rotate(180,60.034,270)"
       xlink:href="#pip_diam_S" />
    <path
       id="pip_diam"
       d="m 60,254.8 c 3,5.8 9.7,12.2 14,15.2 -4.3,3 -11,9.5 -14,15.2 -3,-5.8 -9.7,-12.2 -14,-15.2 4.3,-3 11,-9.5 14,-15.2 z"
       fill="#ee3333" />
    <use
       id="pip_diam_S"
       transform="matrix(0.393,0,0,0.393,-12.82,104.12)"
       xlink:href="#pip_diam" />
  </g>
  <g
     id="diamond_2"
     transform="translate(-719.99596,-180.00017)">
    <use
       id="u14700"
       transform="translate(119.996,-63.25)"
       xlink:href="#pip_diam" />
    <use
       id="u15110"
       transform="rotate(180,180,270)"
       xlink:href="#u14700" />
  </g>
  <g
     id="diamond_3"
     transform="translate(-719.99596,-180.00017)">
    <use
       id="u15200"
       transform="translate(120)"
       xlink:href="#u14700" />
    <use
       id="u15202"
       transform="translate(120)"
       xlink:href="#u15110" />
  </g>
  <g
     id="diamond_4"
     transform="translate(-719.99596,-180.00017)">
    <use
       id="u15206"
       transform="translate(95)"
       xlink:href="#u15200" />
    <use
       id="u15208"
       transform="translate(95)"
       xlink:href="#u15202" />
    <use
       id="u15210"
       transform="translate(50)"
       xlink:href="#u15206" />
    <use
       id="u15212"
       transform="translate(50)"
       xlink:href="#u15208" />
  </g>
  <g
     id="diamond_5"
     transform="translate(-719.99596,-180.00017)">
    <use
       id="u15214"
       transform="translate(120)"
       xlink:href="#u15206" />
    <use
       id="u15216"
       transform="translate(120)"
       xlink:href="#u15208" />
    <use
       id="u15218"
       transform="translate(120)"
       xlink:href="#u15210" />
    <use
       id="u15220"
       transform="translate(120)"
       xlink:href="#u15212" />
  </g>
  <g
     id="diamond_7"
     transform="translate(-719.99596,-180.00017)">
    <use
       transform="translate(720,180)"
       xlink:href="#card"
       id="use360" />
    <use
       id="u15236"
       transform="translate(120)"
       xlink:href="#u15224" />
    <use
       id="u15238"
       transform="translate(120)"
       xlink:href="#u15226" />
    <use
       id="u15240"
       transform="translate(120)"
       xlink:href="#u15228" />
    <use
       id="u15242"
       transform="translate(120)"
       xlink:href="#u15230" />
    <use
       id="u15244"
       transform="translate(120)"
       xlink:href="#u15232" />
    <use
       id="u15246"
       transform="translate(120)"
       xlink:href="#u15234" />
    <use
       id="u15248"
       transform="translate(25,31.63)"
       xlink:href="#u15236" />
    <use
       transform="translate(720)"
       xlink:href="#pip_diam_S"
       id="use361" />
    <use
       transform="translate(720)"
       xlink:href="#u5381"
       id="use362" />
    <use
       transform="translate(719.99596,460.00017)"
       style="fill:#ee3333"
       xlink:href="#7"
       id="use363" />
    <use
       transform="rotate(180,420.00202,39.999915)"
       style="fill:#ee3333"
       xlink:href="#7"
       id="use364" />
  </g>
</svg>
