<?xml version="1.0" encoding="UTF-8" standalone="no"?>
<svg
   width="119.99988"
   height="179.99982"
   version="1.1"
   viewBox="0 0 119.99988 179.99982"
   preserveAspectRatio="none"
   id="svg381"
   xmlns:xlink="http://www.w3.org/1999/xlink"
   xmlns="http://www.w3.org/2000/svg"
   xmlns:svg="http://www.w3.org/2000/svg">
  <defs
     id="defs20" />
  <path
     id="7"
     d="m 8.6840407,-438.90017 c -0.2,0 -0.27,-0.09 -0.2,-0.28 l 4.4199993,-11.6 c 0.03,-0.08 0,-0.12 -0.08,-0.12 H 8.5240407 c -0.07,0 -0.1,0.03 -0.1,0.1 v 0.9 c 0,0.09 -0.07,0.24 -0.24,0.24 h -1.44 c -0.22,0 -0.24,-0.17 -0.24,-0.24 v -2.76 c 0,-0.17 0.15,-0.24 0.24,-0.24 H 15.16404 c 0.12,0 0.24,0.12 0.24,0.24 v 1.6 c 0,0.08 -0.02,0.18 -0.06,0.3 l -4.4,11.66 c -0.04,0.13 -0.13,0.2 -0.28,0.2 z" />
  <g
     id="club_1"
     transform="translate(-719.99596,-360.00017)">
    <g
       id="card"
       transform="matrix(0.83103,0,0,0.83565,-1641.87,-580.266)">
      <rect
         id="card_face"
         x="1976.6"
         y="695.289"
         width="142.599"
         height="213.601"
         rx="9.6000004"
         ry="9.6000004"
         fill="#ffffff"
         stroke="#333333"
         stroke-width="1.8" />
    </g>
  </g>
  <g
     id="heart_6"
     transform="translate(-719.99596,-360.00017)">
    <use
       id="u21975"
       transform="translate(335.03)"
       xlink:href="#u21852" />
    <use
       id="u21977"
       transform="translate(334.97)"
       xlink:href="#u21854" />
    <use
       id="u21979"
       transform="translate(334.97)"
       xlink:href="#u21856" />
    <use
       id="u21981"
       transform="translate(49.97)"
       xlink:href="#u21975" />
    <use
       id="u21983"
       transform="translate(50.03)"
       xlink:href="#u21977" />
    <use
       id="u21985"
       transform="translate(50.03)"
       xlink:href="#u21979" />
  </g>
  <g
     id="heart_1"
     transform="translate(-719.99596,-360.00017)">
    <use
       id="pip_heart_S"
       transform="matrix(0.386,0,0,0.37,-12.4,222.9)"
       xlink:href="#pip_heart" />
    <use
       id="u9338"
       transform="rotate(180,60.034,450)"
       xlink:href="#pip_heart_S" />
    <path
       id="pip_heart"
       d="m 53,438 c -3.87,0 -7,2.86 -7,7 0,7.5 8,10 14,20 6.11,-10.19 14,-12.5 14,-20 a 6.85,6.85 0 0 0 -7,-7 c -3.68,0 -5.7,2.3 -7,5 -1.3,-2.7 -3.32,-5 -7,-5 z"
       fill="#ee3333" />
  </g>
  <g
     id="heart_2"
     transform="translate(-719.99596,-360.00017)">
    <use
       id="u21397"
       transform="translate(120,-66.5)"
       xlink:href="#pip_heart" />
    <use
       id="u21762"
       transform="rotate(180,180.004,450)"
       xlink:href="#u21397" />
  </g>
  <g
     id="heart_3"
     transform="translate(-719.99596,-360.00017)">
    <use
       id="u21852"
       transform="translate(120)"
       xlink:href="#u21397" />
    <use
       id="u21854"
       transform="translate(120)"
       xlink:href="#u21762" />
    <use
       id="u21856"
       transform="translate(0,66.5)"
       xlink:href="#u21852" />
  </g>
  <g
     id="heart_7"
     transform="translate(-719.99596,-360.00017)">
    <use
       transform="translate(720,360)"
       xlink:href="#card"
       id="use269" />
    <use
       id="u21987"
       transform="translate(119.97)"
       xlink:href="#u21975" />
    <use
       id="u21989"
       transform="translate(120.03)"
       xlink:href="#u21977" />
    <use
       id="u21991"
       transform="translate(120.03)"
       xlink:href="#u21979" />
    <use
       id="u21993"
       transform="translate(120)"
       xlink:href="#u21981" />
    <use
       id="u21995"
       transform="translate(120)"
       xlink:href="#u21983" />
    <use
       id="u21997"
       transform="translate(120)"
       xlink:href="#u21985" />
    <use
       id="u21999"
       transform="translate(24.97,-33.25)"
       xlink:href="#u21991" />
    <use
       transform="translate(720)"
       xlink:href="#pip_heart_S"
       id="use270" />
    <use
       transform="translate(720)"
       xlink:href="#u9338"
       id="use271" />
    <use
       transform="translate(719.99596,820.00017)"
       style="fill:#ee3333"
       xlink:href="#7"
       id="use272" />
    <use
       transform="rotate(180,420.00202,39.999911)"
       style="fill:#ee3333"
       xlink:href="#7"
       id="use273" />
  </g>
</svg>
