<?xml version="1.0" encoding="UTF-8" standalone="no"?>
<svg
   width="119.99988"
   height="179.99982"
   version="1.1"
   viewBox="0 0 119.99988 179.99982"
   preserveAspectRatio="none"
   id="svg381"
   xmlns:xlink="http://www.w3.org/1999/xlink"
   xmlns="http://www.w3.org/2000/svg"
   xmlns:svg="http://www.w3.org/2000/svg">
  <defs
     id="defs20" />
  <path
     id="8"
     d="m 15.384042,-623.03017 c 0,2.41 -1.58,4.16 -4.4,4.18 -3.1399992,0 -4.4599992,-2.08 -4.4599992,-4.19 0,-0.46 0.09,-2.4 1.6,-3.26 0.07,-0.04 0.07,-0.09 0.02,-0.14 -0.18,-0.13 -1.42,-1.06 -1.42,-2.84 0,-1.96 1.51,-3.87 4.2599992,-3.87 2.73,0 4.2,1.86 4.2,3.87 0,1.59 -0.89,2.45 -1.42,2.82 -0.05,0.05 -0.05,0.1 0,0.14 0.98,0.57 1.62,1.77 1.62,3.29 z m -6.3599992,-6.21 c 0,0.32 0.11,2.03 1.9399992,2.03 0.79,0 1.94,-0.42 1.94,-2.04 0,-0.94 -0.68,-1.91 -1.96,-1.91 -1.4199992,0 -1.9199992,1.27 -1.9199992,1.92 z m 4.0199992,6.02 c 0,-1.39 -0.62,-2.34 -2.08,-2.34 -1.7599992,0 -2.0599992,1.41 -2.0599992,2.37 0,1.31 0.61,2.35 2.0799992,2.35 1.47,0 2.06,-1.11 2.06,-2.38 z" />
  <g
     id="club_1"
     transform="translate(-839.99596,-540.00017)">
    <g
       id="card"
       transform="matrix(0.83103,0,0,0.83565,-1641.87,-580.266)">
      <rect
         id="card_face"
         x="1976.6"
         y="695.289"
         width="142.599"
         height="213.601"
         rx="9.6000004"
         ry="9.6000004"
         fill="#ffffff"
         stroke="#333333"
         stroke-width="1.8" />
    </g>
  </g>
  <g
     id="spade_6"
     transform="translate(-839.99596,-540.00017)">
    <use
       id="u32996"
       transform="translate(334.94)"
       xlink:href="#u32170" />
    <use
       id="u32998"
       transform="translate(334.94)"
       xlink:href="#u32172" />
    <use
       id="u33000"
       transform="translate(334.94)"
       xlink:href="#u32174" />
    <use
       id="u33002"
       transform="translate(50)"
       xlink:href="#u32996" />
    <use
       id="u33004"
       transform="translate(50)"
       xlink:href="#u32998" />
    <use
       id="u33006"
       transform="translate(50)"
       xlink:href="#u33000" />
  </g>
  <g
     id="spade_1"
     transform="translate(-839.99596,-540.00017)">
    <use
       id="u10961"
       transform="rotate(180,60.034,630)"
       xlink:href="#pip_spade_S" />
    <path
       id="pip_spade"
       d="m 60,614.25 c 0,0 -2.12,4 -6.5,7.75 -3.5,3 -7.25,6.3 -7.25,11 0,3.59 2.3,6.2 5.75,6.2 3.7,0 6,-2.9 6,-5.55 0,-0.2 0.18,-0.35 0.38,-0.35 0.2,0 0.36,0.15 0.37,0.35 V 635 c 0,4.08 -1.5,7.95 -3.5,9.5 l 1.25,1.25 c 0,0 1.5,-1 3.5,-1 2,0 3.5,1 3.5,1 l 1.25,-1.25 c -2,-1.55 -3.5,-5.5 -3.5,-9.5 v -1.35 a 0.38,0.38 0 0 1 0.38,-0.35 c 0.2,0 0.37,0.15 0.37,0.35 a 5.8,5.8 0 0 0 6,5.55 c 3.45,0 5.75,-2.61 5.75,-6.2 0,-4.7 -3.75,-8 -7.25,-11 -4.43,-3.8 -6.5,-7.75 -6.5,-7.75 z"
       fill="#333333" />
    <use
       id="pip_spade_S"
       transform="matrix(0.393,0,0,0.397,-12.8,320.25)"
       xlink:href="#pip_spade" />
  </g>
  <g
     id="spade_2"
     transform="translate(-839.99596,-540.00017)">
    <use
       id="u28846"
       transform="translate(120,-63.5)"
       xlink:href="#pip_spade" />
    <use
       id="u29400"
       transform="rotate(180,180.034,630)"
       xlink:href="#u28846" />
  </g>
  <g
     id="spade_3"
     transform="translate(-839.99596,-540.00017)">
    <use
       id="u32170"
       transform="translate(120)"
       xlink:href="#u28846" />
    <use
       id="u32172"
       transform="translate(120)"
       xlink:href="#u29400" />
    <use
       id="u32174"
       transform="translate(240)"
       xlink:href="#pip_spade" />
  </g>
  <g
     id="spade_7"
     transform="translate(-839.99596,-540.00017)">
    <use
       id="u33008"
       transform="translate(120)"
       xlink:href="#u32996" />
    <use
       id="u33010"
       transform="translate(120)"
       xlink:href="#u32998" />
    <use
       id="u33012"
       transform="translate(120)"
       xlink:href="#u33000" />
    <use
       id="u33014"
       transform="translate(120)"
       xlink:href="#u33002" />
    <use
       id="u33016"
       transform="translate(120)"
       xlink:href="#u33004" />
    <use
       id="u33018"
       transform="translate(120)"
       xlink:href="#u33006" />
    <use
       id="u33020"
       transform="translate(25,31.75)"
       xlink:href="#u33008" />
  </g>
  <g
     id="spade_8"
     transform="translate(-839.99596,-540.00017)">
    <use
       transform="translate(840,540)"
       xlink:href="#card"
       id="use182" />
    <use
       id="u33022"
       transform="translate(120)"
       xlink:href="#u33008" />
    <use
       id="u33024"
       transform="translate(120)"
       xlink:href="#u33010" />
    <use
       id="u33026"
       transform="translate(120)"
       xlink:href="#u33012" />
    <use
       id="u33028"
       transform="translate(120.06)"
       xlink:href="#u33014" />
    <use
       id="u33030"
       transform="translate(120)"
       xlink:href="#u33016" />
    <use
       id="u33032"
       transform="translate(120.06)"
       xlink:href="#u33018" />
    <use
       transform="translate(120)"
       xlink:href="#u33020"
       id="use183" />
    <use
       transform="translate(25,-31.75)"
       xlink:href="#u33024"
       id="use184" />
    <use
       transform="translate(840)"
       xlink:href="#pip_spade_S"
       id="use185" />
    <use
       transform="translate(840)"
       xlink:href="#u10961"
       id="use186" />
    <use
       transform="translate(839.99596,1180.0002)"
       style="fill:#333333"
       xlink:href="#8"
       id="use187" />
    <use
       transform="rotate(180,480.00202,39.999913)"
       style="fill:#333333"
       xlink:href="#8"
       id="use188" />
  </g>
</svg>
