<?xml version="1.0" encoding="UTF-8" standalone="no"?>
<svg
   width="119.99988"
   height="179.99982"
   version="1.1"
   viewBox="0 0 119.99988 179.99982"
   preserveAspectRatio="none"
   id="svg381"
   xmlns:xlink="http://www.w3.org/1999/xlink"
   xmlns="http://www.w3.org/2000/svg"
   xmlns:svg="http://www.w3.org/2000/svg">
  <defs
     id="defs20" />
  <path
     id="9"
     d="m 15.354045,-628.57017 v 6.1 c 0,2.11 -1.64,3.62 -4.28,3.62 -2.4100001,0 -4.1800001,-1.34 -4.1800001,-3.52 v -0.44 c 0,-0.17 0.15,-0.24 0.24,-0.24 h 1.84 c 0.12,0 0.24,0.12 0.24,0.24 v 0.14 c 0,1.04 0.71,1.82 1.8600001,1.82 1.2,0 1.96,-0.82 1.96,-1.9 v -2.2 c 0,-0.04 -0.01,-0.07 -0.04,-0.08 -0.03,-0.01 -0.05,-0.01 -0.08,0.02 -0.57,0.56 -1.35,0.84 -2.34,0.84 -2.4300001,0 -4.0200001,-1.64 -4.0200001,-4.42 0,-2.99 1.88,-4.56 4.3800001,-4.56 2.24,0 4.42,1.3 4.42,4.58 z m -2.32,-0.12 c 0,-0.74 -0.2,-2.44 -2.06,-2.44 -1.9700001,0 -2.1000001,1.99 -2.1000001,2.5 0,1.29 0.6,2.5 2.0800001,2.5 1.83,0 2.08,-1.65 2.08,-2.56 z" />
  <g
     id="club_1"
     transform="translate(-959.99595,-540.00017)">
    <g
       id="card"
       transform="matrix(0.83103,0,0,0.83565,-1641.87,-580.266)">
      <rect
         id="card_face"
         x="1976.6"
         y="695.289"
         width="142.599"
         height="213.601"
         rx="9.6000004"
         ry="9.6000004"
         fill="#ffffff"
         stroke="#333333"
         stroke-width="1.8" />
    </g>
  </g>
  <g
     id="spade_6"
     transform="translate(-959.99595,-540.00017)">
    <use
       id="u32996"
       transform="translate(334.94)"
       xlink:href="#u32170" />
    <use
       id="u32998"
       transform="translate(334.94)"
       xlink:href="#u32172" />
    <use
       id="u33000"
       transform="translate(334.94)"
       xlink:href="#u32174" />
    <use
       id="u33002"
       transform="translate(50)"
       xlink:href="#u32996" />
    <use
       id="u33004"
       transform="translate(50)"
       xlink:href="#u32998" />
    <use
       id="u33006"
       transform="translate(50)"
       xlink:href="#u33000" />
  </g>
  <g
     id="spade_1"
     transform="translate(-959.99595,-540.00017)">
    <use
       id="u10961"
       transform="rotate(180,60.034,630)"
       xlink:href="#pip_spade_S" />
    <path
       id="pip_spade"
       d="m 60,614.25 c 0,0 -2.12,4 -6.5,7.75 -3.5,3 -7.25,6.3 -7.25,11 0,3.59 2.3,6.2 5.75,6.2 3.7,0 6,-2.9 6,-5.55 0,-0.2 0.18,-0.35 0.38,-0.35 0.2,0 0.36,0.15 0.37,0.35 V 635 c 0,4.08 -1.5,7.95 -3.5,9.5 l 1.25,1.25 c 0,0 1.5,-1 3.5,-1 2,0 3.5,1 3.5,1 l 1.25,-1.25 c -2,-1.55 -3.5,-5.5 -3.5,-9.5 v -1.35 a 0.38,0.38 0 0 1 0.38,-0.35 c 0.2,0 0.37,0.15 0.37,0.35 a 5.8,5.8 0 0 0 6,5.55 c 3.45,0 5.75,-2.61 5.75,-6.2 0,-4.7 -3.75,-8 -7.25,-11 -4.43,-3.8 -6.5,-7.75 -6.5,-7.75 z"
       fill="#333333" />
    <use
       id="pip_spade_S"
       transform="matrix(0.393,0,0,0.397,-12.8,320.25)"
       xlink:href="#pip_spade" />
  </g>
  <g
     id="spade_2"
     transform="translate(-959.99595,-540.00017)">
    <use
       id="u28846"
       transform="translate(120,-63.5)"
       xlink:href="#pip_spade" />
    <use
       id="u29400"
       transform="rotate(180,180.034,630)"
       xlink:href="#u28846" />
  </g>
  <g
     id="spade_3"
     transform="translate(-959.99595,-540.00017)">
    <use
       id="u32170"
       transform="translate(120)"
       xlink:href="#u28846" />
    <use
       id="u32172"
       transform="translate(120)"
       xlink:href="#u29400" />
    <use
       id="u32174"
       transform="translate(240)"
       xlink:href="#pip_spade" />
  </g>
  <g
     id="spade_7"
     transform="translate(-959.99595,-540.00017)">
    <use
       id="u33008"
       transform="translate(120)"
       xlink:href="#u32996" />
    <use
       id="u33010"
       transform="translate(120)"
       xlink:href="#u32998" />
    <use
       id="u33012"
       transform="translate(120)"
       xlink:href="#u33000" />
    <use
       id="u33014"
       transform="translate(120)"
       xlink:href="#u33002" />
    <use
       id="u33016"
       transform="translate(120)"
       xlink:href="#u33004" />
    <use
       id="u33018"
       transform="translate(120)"
       xlink:href="#u33006" />
  </g>
  <g
     id="spade_8"
     transform="translate(-959.99595,-540.00017)">
    <use
       id="u33022"
       transform="translate(120)"
       xlink:href="#u33008" />
    <use
       id="u33024"
       transform="translate(120)"
       xlink:href="#u33010" />
    <use
       id="u33026"
       transform="translate(120)"
       xlink:href="#u33012" />
    <use
       id="u33028"
       transform="translate(120.06)"
       xlink:href="#u33014" />
    <use
       id="u33030"
       transform="translate(120)"
       xlink:href="#u33016" />
    <use
       id="u33032"
       transform="translate(120.06)"
       xlink:href="#u33018" />
  </g>
  <g
     id="spade_9"
     transform="translate(-959.99595,-540.00017)">
    <use
       transform="translate(960,540)"
       xlink:href="#card"
       id="use189" />
    <use
       id="u1649"
       transform="translate(120)"
       xlink:href="#u33022" />
    <use
       id="u1651"
       transform="translate(120)"
       xlink:href="#u33024" />
    <use
       id="u1653"
       transform="translate(120,-21.17)"
       xlink:href="#u33026" />
    <use
       id="u1655"
       transform="translate(119.94)"
       xlink:href="#u33028" />
    <use
       id="u1657"
       transform="translate(120)"
       xlink:href="#u33030" />
    <use
       id="u1659"
       transform="translate(119.94,-21.17)"
       xlink:href="#u33032" />
    <use
       id="u1661"
       transform="translate(0,-42.33)"
       xlink:href="#u1651" />
    <use
       id="u1663"
       transform="translate(0,-42.33)"
       xlink:href="#u1657" />
    <use
       transform="translate(25,21.17)"
       xlink:href="#u1653"
       id="use190" />
    <use
       transform="translate(960)"
       xlink:href="#pip_spade_S"
       id="use191" />
    <use
       transform="translate(960)"
       xlink:href="#u10961"
       id="use192" />
    <use
       transform="translate(959.99595,1180.0002)"
       style="fill:#333333"
       xlink:href="#9"
       id="use193" />
    <use
       transform="rotate(180,540.00202,39.999913)"
       style="fill:#333333"
       xlink:href="#9"
       id="use194" />
  </g>
</svg>
