<?xml version="1.0" encoding="UTF-8" standalone="no"?>
<svg
   width="119.9999"
   height="179.99985"
   version="1.1"
   viewBox="0 0 119.9999 179.99985"
   preserveAspectRatio="none"
   id="svg381"
   xmlns:xlink="http://www.w3.org/1999/xlink"
   xmlns="http://www.w3.org/2000/svg"
   xmlns:svg="http://www.w3.org/2000/svg">
  <defs
     id="defs20" />
  <path
     id="A"
     d="m 14.314049,-79.000169 c -0.12,0 -0.2,-0.07 -0.24,-0.2 l -0.8,-2.74 c -0.03,-0.05 -0.06,-0.08 -0.1,-0.08 H 8.7240493 c -0.03,0 -0.07,0.03 -0.09,0.08 l -0.8,2.74 c -0.04,0.13 -0.12,0.2 -0.25,0.2 h -1.83 c -0.26,0 -0.2,-0.24 -0.19,-0.28 l 4,-13.52 c 0.03,-0.13 0.1,-0.2 0.23,-0.2 h 2.2999997 c 0.12,0 0.2,0.07 0.24,0.2 l 4,13.52 c 0.03,0.06 0.07,0.28 -0.18,0.28 z m -5.1099997,-5.06 c -0.01,0.08 0.01,0.12 0.07,0.12 h 3.3299997 c 0.08,0 0.1,-0.04 0.08,-0.12 l -1.7,-6 c 0,-0.04 -0.05,-0.16 -0.11,0 z" />
  <g
     id="club_1"
     transform="translate(0.00404927,-1.6909403e-4)">
    <g
       id="card"
       transform="matrix(0.83103,0,0,0.83565,-1641.87,-580.266)">
      <rect
         id="card_face"
         x="1976.6"
         y="695.289"
         width="142.599"
         height="213.601"
         rx="9.6000004"
         ry="9.6000004"
         fill="#ffffff"
         stroke="#333333"
         stroke-width="1.8" />
    </g>
    <use
       id="u2940"
       transform="rotate(180,60.034,90)"
       xlink:href="#pip_club_S" />
    <path
       id="pip_club"
       d="m 60,75 a 5,5 0 0 0 -3,9 c 1.35,1 2,1.5 2,4 0,0.83 -0.67,1.5 -1.5,1.5 -2.25,0 -2.5,-0.65 -3.5,-2 a 5,5 0 0 0 -4,-2 c -3.33,0 -5,2.5 -5,5 0,2.5 1.67,5 5,5 a 5,5 0 0 0 4,-2 c 1,-1.35 1.25,-2 3.5,-2 0.83,0 1.5,0.67 1.5,1.5 0.1,7.16 -2.13,9 -3.88,11 l 0.75,1 c 0,0 1.83,-0.85 4.13,-0.85 2.3,0 4.25,0.85 4.25,0.85 L 65,104 c -1.91,-1.9 -4,-4 -4,-11 0,-0.83 0.67,-1.5 1.5,-1.5 2.25,0 2.5,0.65 3.5,2 a 5,5 0 1 0 0,-6 c -1,1.35 -1.25,2 -3.5,2 A 1.5,1.5 0 0 1 61,88 c 0,-2.5 0.65,-3 2,-4 a 5,5 0 0 0 -3,-9 z"
       fill="#333333" />
    <use
       id="pip_club_S"
       transform="matrix(0.367,0,0,0.367,-11.05,-3.25)"
       xlink:href="#pip_club" />
    <use
       transform="translate(-0.00404927,100.00017)"
       style="fill:#333333"
       xlink:href="#A"
       id="use49" />
    <use
       transform="rotate(180,60.002025,39.999915)"
       style="fill:#333333"
       xlink:href="#A"
       id="use50" />
  </g>
</svg>
