<?xml version="1.0" encoding="UTF-8" standalone="no"?>
<svg
   width="119.9999"
   height="179.99983"
   version="1.1"
   viewBox="0 0 119.9999 179.99983"
   preserveAspectRatio="none"
   id="svg381"
   xmlns:xlink="http://www.w3.org/1999/xlink"
   xmlns="http://www.w3.org/2000/svg"
   xmlns:svg="http://www.w3.org/2000/svg">
  <defs
     id="defs20" />
  <path
     id="A"
     d="m 14.314049,-259.00017 c -0.12,0 -0.2,-0.07 -0.24,-0.2 l -0.8,-2.74 c -0.03,-0.05 -0.06,-0.08 -0.1,-0.08 H 8.7240493 c -0.03,0 -0.07,0.03 -0.09,0.08 l -0.8,2.74 c -0.04,0.13 -0.12,0.2 -0.25,0.2 h -1.83 c -0.26,0 -0.2,-0.24 -0.19,-0.28 l 4,-13.52 c 0.03,-0.13 0.1,-0.2 0.23,-0.2 h 2.2999997 c 0.12,0 0.2,0.07 0.24,0.2 l 4,13.52 c 0.03,0.06 0.07,0.28 -0.18,0.28 z m -5.1099997,-5.06 c -0.01,0.08 0.01,0.12 0.07,0.12 h 3.3299997 c 0.08,0 0.1,-0.04 0.08,-0.12 l -1.7,-6 c 0,-0.04 -0.05,-0.16 -0.11,0 z" />
  <g
     id="club_1"
     transform="translate(0.00404927,-180.00017)">
    <g
       id="card"
       transform="matrix(0.83103,0,0,0.83565,-1641.87,-580.266)">
      <rect
         id="card_face"
         x="1976.6"
         y="695.289"
         width="142.599"
         height="213.601"
         rx="9.6000004"
         ry="9.6000004"
         fill="#ffffff"
         stroke="#333333"
         stroke-width="1.8" />
    </g>
  </g>
  <g
     id="diamond_1"
     transform="translate(0.00404927,-180.00017)">
    <use
       transform="translate(0,180)"
       xlink:href="#card"
       id="use336" />
    <use
       id="u5381"
       transform="rotate(180,60.034,270)"
       xlink:href="#pip_diam_S" />
    <path
       id="pip_diam"
       d="m 60,254.8 c 3,5.8 9.7,12.2 14,15.2 -4.3,3 -11,9.5 -14,15.2 -3,-5.8 -9.7,-12.2 -14,-15.2 4.3,-3 11,-9.5 14,-15.2 z"
       fill="#ee3333" />
    <use
       id="pip_diam_S"
       transform="matrix(0.393,0,0,0.393,-12.82,104.12)"
       xlink:href="#pip_diam" />
    <use
       transform="translate(-0.00404927,460.00017)"
       style="fill:#ee3333"
       xlink:href="#A"
       id="use337" />
    <use
       transform="rotate(180,60.002025,39.999915)"
       style="fill:#ee3333"
       xlink:href="#A"
       id="use338" />
  </g>
</svg>
