<?xml version="1.0" encoding="UTF-8" standalone="no"?>
<svg
   width="119.9999"
   height="179.99982"
   version="1.1"
   viewBox="0 0 119.9999 179.99982"
   preserveAspectRatio="none"
   id="svg381"
   xmlns:xlink="http://www.w3.org/1999/xlink"
   xmlns="http://www.w3.org/2000/svg"
   xmlns:svg="http://www.w3.org/2000/svg">
  <defs
     id="defs20" />
  <path
     id="A"
     d="m 14.314049,-439.00017 c -0.12,0 -0.2,-0.07 -0.24,-0.2 l -0.8,-2.74 c -0.03,-0.05 -0.06,-0.08 -0.1,-0.08 H 8.7240493 c -0.03,0 -0.07,0.03 -0.09,0.08 l -0.8,2.74 c -0.04,0.13 -0.12,0.2 -0.25,0.2 h -1.83 c -0.26,0 -0.2,-0.24 -0.19,-0.28 l 4,-13.52 c 0.03,-0.13 0.1,-0.2 0.23,-0.2 h 2.2999997 c 0.12,0 0.2,0.07 0.24,0.2 l 4,13.52 c 0.03,0.06 0.07,0.28 -0.18,0.28 z m -5.1099997,-5.06 c -0.01,0.08 0.01,0.12 0.07,0.12 h 3.3299997 c 0.08,0 0.1,-0.04 0.08,-0.12 l -1.7,-6 c 0,-0.04 -0.05,-0.16 -0.11,0 z" />
  <g
     id="club_1"
     transform="translate(0.00404927,-360.00017)">
    <g
       id="card"
       transform="matrix(0.83103,0,0,0.83565,-1641.87,-580.266)">
      <rect
         id="card_face"
         x="1976.6"
         y="695.289"
         width="142.599"
         height="213.601"
         rx="9.6000004"
         ry="9.6000004"
         fill="#ffffff"
         stroke="#333333"
         stroke-width="1.8" />
    </g>
  </g>
  <g
     id="heart_1"
     transform="translate(0.00404927,-360.00017)">
    <use
       transform="translate(0,360)"
       xlink:href="#card"
       id="use221" />
    <use
       id="pip_heart_S"
       transform="matrix(0.386,0,0,0.37,-12.4,222.9)"
       xlink:href="#pip_heart" />
    <use
       id="u9338"
       transform="rotate(180,60.034,450)"
       xlink:href="#pip_heart_S" />
    <path
       id="pip_heart"
       d="m 53,438 c -3.87,0 -7,2.86 -7,7 0,7.5 8,10 14,20 6.11,-10.19 14,-12.5 14,-20 a 6.85,6.85 0 0 0 -7,-7 c -3.68,0 -5.7,2.3 -7,5 -1.3,-2.7 -3.32,-5 -7,-5 z"
       fill="#ee3333" />
    <use
       transform="translate(-0.00404927,820.00017)"
       style="fill:#ee3333"
       xlink:href="#A"
       id="use222" />
    <use
       transform="rotate(180,60.002025,39.999911)"
       style="fill:#ee3333"
       xlink:href="#A"
       id="use223" />
  </g>
</svg>
