<?xml version="1.0" encoding="UTF-8" standalone="no"?>
<svg
   width="119.9999"
   height="179.99982"
   version="1.1"
   viewBox="0 0 119.9999 179.99982"
   preserveAspectRatio="none"
   id="svg381"
   xmlns:xlink="http://www.w3.org/1999/xlink"
   xmlns="http://www.w3.org/2000/svg"
   xmlns:svg="http://www.w3.org/2000/svg">
  <defs
     id="defs20" />
  <path
     id="A"
     d="m 14.314049,-619.00017 c -0.12,0 -0.2,-0.07 -0.24,-0.2 l -0.8,-2.74 c -0.03,-0.05 -0.06,-0.08 -0.1,-0.08 H 8.7240493 c -0.03,0 -0.07,0.03 -0.09,0.08 l -0.8,2.74 c -0.04,0.13 -0.12,0.2 -0.25,0.2 h -1.83 c -0.26,0 -0.2,-0.24 -0.19,-0.28 l 4,-13.52 c 0.03,-0.13 0.1,-0.2 0.23,-0.2 h 2.2999997 c 0.12,0 0.2,0.07 0.24,0.2 l 4,13.52 c 0.03,0.06 0.07,0.28 -0.18,0.28 z m -5.1099997,-5.06 c -0.01,0.08 0.01,0.12 0.07,0.12 h 3.3299997 c 0.08,0 0.1,-0.04 0.08,-0.12 l -1.7,-6 c 0,-0.04 -0.05,-0.16 -0.11,0 z" />
  <g
     id="club_1"
     transform="translate(0.00404927,-540.00017)">
    <g
       id="card"
       transform="matrix(0.83103,0,0,0.83565,-1641.87,-580.266)">
      <rect
         id="card_face"
         x="1976.6"
         y="695.289"
         width="142.599"
         height="213.601"
         rx="9.6000004"
         ry="9.6000004"
         fill="#ffffff"
         stroke="#333333"
         stroke-width="1.8" />
    </g>
  </g>
  <g
     id="spade_1"
     transform="translate(0.00404927,-540.00017)">
    <use
       transform="translate(0,540)"
       xlink:href="#card"
       id="use140" />
    <use
       id="u10961"
       transform="rotate(180,60.034,630)"
       xlink:href="#pip_spade_S" />
    <path
       id="pip_spade"
       d="m 60,614.25 c 0,0 -2.12,4 -6.5,7.75 -3.5,3 -7.25,6.3 -7.25,11 0,3.59 2.3,6.2 5.75,6.2 3.7,0 6,-2.9 6,-5.55 0,-0.2 0.18,-0.35 0.38,-0.35 0.2,0 0.36,0.15 0.37,0.35 V 635 c 0,4.08 -1.5,7.95 -3.5,9.5 l 1.25,1.25 c 0,0 1.5,-1 3.5,-1 2,0 3.5,1 3.5,1 l 1.25,-1.25 c -2,-1.55 -3.5,-5.5 -3.5,-9.5 v -1.35 a 0.38,0.38 0 0 1 0.38,-0.35 c 0.2,0 0.37,0.15 0.37,0.35 a 5.8,5.8 0 0 0 6,5.55 c 3.45,0 5.75,-2.61 5.75,-6.2 0,-4.7 -3.75,-8 -7.25,-11 -4.43,-3.8 -6.5,-7.75 -6.5,-7.75 z"
       fill="#333333" />
    <use
       id="pip_spade_S"
       transform="matrix(0.393,0,0,0.397,-12.8,320.25)"
       xlink:href="#pip_spade" />
    <use
       transform="translate(-0.00404927,1180.0002)"
       style="fill:#333333"
       xlink:href="#A"
       id="use141" />
    <use
       transform="rotate(180,60.002025,39.999913)"
       style="fill:#333333"
       xlink:href="#A"
       id="use142" />
  </g>
</svg>
