<?xml version="1.0" encoding="UTF-8" standalone="no"?>
<svg
   width="119.99988"
   height="179.99985"
   version="1.1"
   viewBox="0 0 119.99988 179.99985"
   preserveAspectRatio="none"
   id="svg381"
   xmlns:xlink="http://www.w3.org/1999/xlink"
   xmlns="http://www.w3.org/2000/svg"
   xmlns:svg="http://www.w3.org/2000/svg">
  <defs
     id="defs20" />
  <path
     id="10"
     d="m 12.714047,-93.000169 c -3.0200001,0 -3.7400001,2.69 -3.7400001,4.22 v 5.5 c 0,2.51 1.3200001,4.28 3.7400001,4.28 3.01,0 3.77,-2.74 3.77,-4.28 v -5.5 c 0,-3.17 -2.17,-4.22 -3.77,-4.22 z m -7.0900001,0.3 a 0.22,0.22 0 0 0 -0.2,0.23 v 12.94 c 0,0.05 0.01,0.23 0.2,0.23 h 1.5 c 0.12,0.01 0.21,-0.12 0.21,-0.23 v -12.94 c 0,-0.1 -0.1,-0.22 -0.2,-0.23 z m 7.0900001,1.65 c 1.02,0 1.86,0.7 1.86,2.2 v 5.68 c 0,1.51 -0.82,2.2 -1.86,2.2 -1.07,0 -1.84,-0.77 -1.84,-2.2 v -5.68 c 0,-1.42 0.78,-2.2 1.84,-2.2 z" />
  <g
     id="club_10"
     transform="translate(-1079.996,-1.6909403e-4)">
    <use
       transform="translate(1080)"
       xlink:href="#card"
       id="use21" />
    <use
       transform="translate(120)"
       xlink:href="#u391"
       id="use22" />
    <use
       transform="translate(120)"
       xlink:href="#u393"
       id="use23" />
    <use
       id="u4093"
       transform="translate(120)"
       xlink:href="#u395" />
    <use
       transform="translate(120)"
       xlink:href="#u397"
       id="use24" />
    <use
       id="u4097"
       transform="translate(120)"
       xlink:href="#u399" />
    <use
       transform="translate(120)"
       xlink:href="#u4001"
       id="use25" />
    <use
       transform="translate(120)"
       xlink:href="#u4003"
       id="use26" />
    <use
       transform="translate(120)"
       xlink:href="#u4005"
       id="use27" />
    <use
       id="u4105"
       transform="translate(25,-20.92)"
       xlink:href="#u4097" />
    <use
       transform="matrix(1,0,0,-1,0,180)"
       xlink:href="#u4105"
       id="use28" />
    <use
       transform="translate(1080)"
       xlink:href="#pip_club_S"
       id="use29" />
    <use
       transform="translate(1080)"
       xlink:href="#u2940"
       id="use30" />
    <use
       transform="translate(1079.996,100.00017)"
       style="fill:#333333"
       xlink:href="#10"
       id="use31" />
    <use
       transform="rotate(180,600.00202,39.999915)"
       style="fill:#333333"
       xlink:href="#10"
       id="use32" />
  </g>
  <g
     id="club_6"
     transform="translate(-1079.996,-1.6909403e-4)">
    <use
       id="u3337"
       transform="translate(120)"
       xlink:href="#u2622" />
    <use
       id="u3339"
       transform="translate(120)"
       xlink:href="#u2624" />
    <use
       id="u3341"
       transform="translate(120)"
       xlink:href="#u2626" />
    <use
       id="u3343"
       transform="translate(120)"
       xlink:href="#u2628" />
  </g>
  <g
     id="club_1"
     transform="translate(-1079.996,-1.6909403e-4)">
    <g
       id="card"
       transform="matrix(0.83103,0,0,0.83565,-1641.87,-580.266)">
      <rect
         id="card_face"
         x="1976.6"
         y="695.289"
         width="142.599"
         height="213.601"
         rx="9.6000004"
         ry="9.6000004"
         fill="#ffffff"
         stroke="#333333"
         stroke-width="1.8" />
    </g>
    <use
       id="u2940"
       transform="rotate(180,60.034,90)"
       xlink:href="#pip_club_S" />
    <path
       id="pip_club"
       d="m 60,75 a 5,5 0 0 0 -3,9 c 1.35,1 2,1.5 2,4 0,0.83 -0.67,1.5 -1.5,1.5 -2.25,0 -2.5,-0.65 -3.5,-2 a 5,5 0 0 0 -4,-2 c -3.33,0 -5,2.5 -5,5 0,2.5 1.67,5 5,5 a 5,5 0 0 0 4,-2 c 1,-1.35 1.25,-2 3.5,-2 0.83,0 1.5,0.67 1.5,1.5 0.1,7.16 -2.13,9 -3.88,11 l 0.75,1 c 0,0 1.83,-0.85 4.13,-0.85 2.3,0 4.25,0.85 4.25,0.85 L 65,104 c -1.91,-1.9 -4,-4 -4,-11 0,-0.83 0.67,-1.5 1.5,-1.5 2.25,0 2.5,0.65 3.5,2 a 5,5 0 1 0 0,-6 c -1,1.35 -1.25,2 -3.5,2 A 1.5,1.5 0 0 1 61,88 c 0,-2.5 0.65,-3 2,-4 a 5,5 0 0 0 -3,-9 z"
       fill="#333333" />
    <use
       id="pip_club_S"
       transform="matrix(0.367,0,0,0.367,-11.05,-3.25)"
       xlink:href="#pip_club" />
  </g>
  <g
     id="club_2"
     transform="translate(-1079.996,-1.6909403e-4)">
    <use
       id="u1410"
       transform="translate(120,-62.76)"
       xlink:href="#pip_club" />
    <use
       id="u1780"
       transform="matrix(1,0,0,-1,120,242.758)"
       xlink:href="#pip_club" />
  </g>
  <g
     id="club_3"
     transform="translate(-1079.996,-1.6909403e-4)">
    <use
       id="u1782"
       transform="translate(120)"
       xlink:href="#u1410" />
    <use
       id="u1784"
       transform="translate(120)"
       xlink:href="#u1780" />
  </g>
  <g
     id="club_4"
     transform="translate(-1079.996,-1.6909403e-4)">
    <use
       id="u2414"
       transform="translate(95,0.01)"
       xlink:href="#u1782" />
    <use
       id="u2416"
       transform="translate(95)"
       xlink:href="#u1784" />
    <use
       id="u2538"
       transform="translate(50)"
       xlink:href="#u2414" />
    <use
       id="u2540"
       transform="translate(50)"
       xlink:href="#u2416" />
  </g>
  <g
     id="club_5"
     transform="translate(-1079.996,-1.6909403e-4)">
    <use
       id="u2622"
       transform="translate(120)"
       xlink:href="#u2414" />
    <use
       id="u2624"
       transform="translate(120)"
       xlink:href="#u2416" />
    <use
       id="u2626"
       transform="translate(120)"
       xlink:href="#u2538" />
    <use
       id="u2628"
       transform="translate(120)"
       xlink:href="#u2540" />
  </g>
  <g
     id="club_7"
     transform="translate(-1079.996,-1.6909403e-4)">
    <use
       id="u3961"
       transform="translate(120)"
       xlink:href="#u3337" />
    <use
       id="u3963"
       transform="translate(120)"
       xlink:href="#u3339" />
    <use
       id="u3965"
       transform="translate(120)"
       xlink:href="#u3341" />
    <use
       id="u3967"
       transform="translate(120)"
       xlink:href="#u3343" />
  </g>
  <g
     id="club_8"
     transform="translate(-1079.996,-1.6909403e-4)">
    <use
       id="u3975"
       transform="translate(120)"
       xlink:href="#u3961" />
    <use
       id="u3977"
       transform="translate(120)"
       xlink:href="#u3963" />
    <use
       id="u3979"
       transform="translate(120)"
       xlink:href="#u3965" />
    <use
       id="u3981"
       transform="translate(120)"
       xlink:href="#u3967" />
  </g>
  <g
     id="club_9"
     transform="translate(-1079.996,-1.6909403e-4)">
    <use
       id="u391"
       transform="translate(120)"
       xlink:href="#u3975" />
    <use
       id="u393"
       transform="translate(120)"
       xlink:href="#u3977" />
    <use
       id="u395"
       transform="translate(120)"
       xlink:href="#u3979" />
    <use
       id="u397"
       transform="translate(120)"
       xlink:href="#u3981" />
    <use
       id="u399"
       transform="translate(0,41.84)"
       xlink:href="#u391" />
    <use
       id="u4001"
       transform="translate(0,41.84)"
       xlink:href="#u395" />
    <use
       id="u4003"
       transform="matrix(1,0,0,-1,0,180)"
       xlink:href="#u399" />
    <use
       id="u4005"
       transform="matrix(1,0,0,-1,0,180)"
       xlink:href="#u4001" />
  </g>
</svg>
