<?xml version="1.0" encoding="UTF-8" standalone="no"?>
<svg
   width="139"
   height="189"
   version="1.1"
   id="svg543"
   xmlns:xlink="http://www.w3.org/1999/xlink"
   xmlns="http://www.w3.org/2000/svg"
   xmlns:svg="http://www.w3.org/2000/svg">
  <defs
     id="defs24">
    <linearGradient
       id="G1734"
       x1="2"
       x2="109"
       y1="62"
       y2="127.7"
       gradientUnits="userSpaceOnUse">
      <stop
         stop-color="#ebf0d0"
         offset="0"
         id="stop1" />
      <stop
         stop-color="#ffffeb"
         offset="1"
         id="stop2" />
    </linearGradient>
    <g
       id="cb"
       transform="translate(-1,-1)">
      <g
         id="g23">
        <path
           d="m 21,5 h 103 a 16,16 0 0 1 16,16 v 153 a 16,16 0 0 1 -16,16 H 21 A 16,16 0 0 1 5,174 V 21 A 16,16 0 0 1 21,5 Z"
           opacity="0.5"
           id="path20" />
        <path
           d="m 17,1 h 103 a 16,16 0 0 1 16,16 v 153 a 16,16 0 0 1 -16,16 H 17 A 16,16 0 0 1 1,170 V 17 A 16,16 0 0 1 17,1 Z"
           fill="#ffffff"
           id="path21" />
        <path
           d="m 19,3 h 103 a 16,16 0 0 1 16,16 v 153 a 16,16 0 0 1 -16,16 H 19 A 16,16 0 0 1 3,172 V 19 A 16,16 0 0 1 19,3 Z"
           fill="#c7891f"
           id="path22" />
        <path
           d="m 18,2 h 103 a 16,16 0 0 1 16,16 v 153 a 16,16 0 0 1 -16,16 H 18 A 16,16 0 0 1 2,171 V 18 A 16,16 0 0 1 18,2 Z"
           fill="url(#G1734)"
           id="path23" />
      </g>
      <path
         d="m 106.6,14 c -0.2,0.7 -0.1,1.4 0.2,2 0.3,0.6 0.9,1.1 1.8,1.1 0.8,0 1.5,-0.7 1.5,-1.2 0,-0.3 -0.2,-0.6 -0.5,-0.8 -1,2 -2.1,0.1 -1.8,-1 0.9,-3.7 7.7,-1 5.5,3.9 a 5,5 0 0 1 -4.5,2.9 l -71.3,0.4 v 1 l 71.6,-0.5 c 2.2,0 4.2,-1.4 5.1,-3.4 2.7,-6.2 -6.2,-9.6 -7.6,-4.4 z m 14.8,5.4 c -2.1,0.7 -3.4,2.9 -3.4,5.1 -0.3,22.9 0.1,74 0.1,74 h 1 l -0.2,-73.7 a 5,5 0 0 1 2.9,-4.5 c 2,-0.9 4.6,-0.2 5.4,1.9 0.9,2 -1,4.4 -2.8,3.5 -1,-0.9 -0.4,-1.2 0.3,-1.7 -0.2,-0.3 -0.5,-0.5 -0.8,-0.5 -0.3,0 -0.6,0.2 -0.7,0.3 -0.3,0.3 -0.5,0.7 -0.5,1.2 0,0.8 0.5,1.4 1.1,1.8 1.2,0.8 6,-0.8 4.3,-5 -1.3,-3.5 -4.8,-3.1 -6.7,-2.4 z m -100.7,70.4 0.2,74.5 c 0,1.9 -1.2,3.7 -2.9,4.5 -2,0.9 -4.6,0.2 -5.4,-1.9 -0.4,-1 -0.2,-3.1 1.5,-3.6 1.4,-0.4 3,0.5 1,1.8 0.2,0.3 0.5,0.5 0.8,0.5 0.6,0 1.2,-0.6 1.2,-1.5 0,-1.5 -1.8,-2.4 -3.1,-2 -0.9,0.2 -3.5,1.4 -2.5,5.1 0.8,2.8 4.6,3.9 7.1,2.7 1.9,-1 3.4,-2.9 3.4,-5.9 L 21.8,89.9 Z m 81.8,77.1 -71.5,0.3 c -2.5,0 -4.4,1.2 -5.3,3 -1.6,2.9 -0.6,6.5 2.5,7.7 2.6,1 6.4,-1.6 5,-4.7 a 2,2 0 0 0 -1.8,-1.1 c -0.8,0 -1.5,0.7 -1.5,1.2 0,0.3 0.2,0.6 0.5,0.8 1,-1.9 2.1,-0.3 1.8,1 -0.4,1.7 -2.5,1.9 -3.6,1.5 -2.1,-0.9 -2.8,-3.4 -1.9,-5.4 a 5,5 0 0 1 4.5,-2.9 l 71.3,-0.4 z"
         stroke="#000000"
         stroke-width="0.7"
         id="path24" />
    </g>
  </defs>
  <path
     id="6"
     d="m 21.9,-39 3.9,3.9 a 17.6,17.6 0 0 0 -8.3,8.9 c 2.5,-0.5 4,-0.5 4.5,0 a 37,37 0 0 1 5.1,5.1 c 2.5,3.9 -1,10.1 -4.6,12 -1.3,0.7 -2.4,0.8 -3.3,0.3 -3,-1.7 -5.5,-3.8 -7.5,-6.3 -0.5,-0.7 -0.9,-1.8 -1,-3.2 -0.3,-3.5 1,-10.3 5.8,-16.2 1.5,-1.8 3.3,-3.3 5.2,-4.4 z m -5.1,25.5 c 2.4,2.1 6.2,-1.6 7.2,-5 0.5,-1.9 0.1,-3.1 -1.2,-3.7 -1.4,-0.6 -3.7,-0.3 -6.8,0.8 -0.4,1.9 -0.4,3.5 -0.4,5 a 6,6 0 0 0 1.2,2.9 z" />
  <g
     id="club_1"
     transform="translate(-695)">
    <path
       id="p908"
       d="m 20.1,47.7 c -2.6,0 -5.1,3.2 -5.1,7.2 0,3.5 4.7,8 4.5,10.7 -1.4,0.8 -5.8,-6.5 -8,-6.5 -2.7,0 -4.8,3.3 -4.8,7.3 0,4 2.1,7.3 4.8,7.3 2.3,0 6.4,-7.2 8.1,-6.5 0,4.5 -4.5,14.1 -4.5,14.1 h 10 c 0,0 -4.5,-9.6 -4.5,-14.1 1.7,-0.7 5.8,6.7 8,6.7 2.8,0 5,-3.3 5,-7.3 0,-4 -2.2,-7.3 -5,-7.3 -2.1,0 -6.2,7 -8,6.4 0,-2.9 4.7,-7.3 4.7,-10.7 0,-4 -2.5,-7.3 -5.2,-7.3 z"
       stroke="#000000" />
  </g>
  <g
     id="club_2"
     transform="translate(-695)">
    <use
       id="u1874"
       transform="translate(139)"
       xlink:href="#p908" />
    <use
       id="u1878"
       transform="matrix(0.718,0,0,0.725,93,-5.6)"
       xlink:href="#u1874" />
  </g>
  <g
     id="club_3"
     transform="translate(-695)">
    <use
       id="u2320"
       transform="translate(139)"
       xlink:href="#u1878" />
    <use
       id="u2324"
       transform="rotate(180,346.3,92)"
       xlink:href="#u2320" />
    <use
       id="u2318"
       transform="translate(139)"
       xlink:href="#u1874" />
    <use
       id="u2326"
       transform="rotate(180,346.5,93.2)"
       xlink:href="#u2318" />
  </g>
  <g
     id="club_4"
     transform="translate(-695)">
    <use
       id="u2789"
       transform="translate(139)"
       xlink:href="#u2318" />
    <use
       id="u2797"
       transform="translate(120.7)"
       xlink:href="#u2324" />
    <use
       id="u2791"
       transform="translate(139)"
       xlink:href="#u2326" />
    <use
       id="u2793"
       transform="translate(120.7)"
       xlink:href="#u2320" />
  </g>
  <g
     id="club_5"
     transform="translate(-695)">
    <use
       id="u3298"
       transform="translate(139)"
       xlink:href="#u2789" />
    <use
       id="u3300"
       transform="translate(139)"
       xlink:href="#u2791" />
    <use
       id="u3302"
       transform="translate(139)"
       xlink:href="#u2793" />
    <use
       id="u3308"
       transform="translate(139)"
       xlink:href="#u2797" />
    <use
       id="u3310"
       transform="translate(36.7)"
       xlink:href="#u3308" />
  </g>
  <g
     id="club_6"
     transform="translate(-695)">
    <use
       transform="translate(695)"
       xlink:href="#cb"
       id="use53" />
    <use
       id="u3827"
       transform="translate(139)"
       xlink:href="#u3298" />
    <use
       id="u3831"
       transform="translate(139)"
       xlink:href="#u3302" />
    <use
       transform="translate(0,50.9)"
       xlink:href="#u3831"
       id="use54" />
    <use
       id="u3837"
       transform="translate(102.3)"
       xlink:href="#u3310" />
    <use
       id="u3829"
       transform="translate(139)"
       xlink:href="#u3300" />
    <use
       transform="translate(36.7)"
       xlink:href="#u3831"
       id="use55" />
    <use
       id="u3839"
       transform="translate(36.7,-50.9)"
       xlink:href="#u3837" />
    <use
       transform="translate(0,50.9)"
       xlink:href="#u3839"
       id="use56" />
    <use
       transform="translate(695,50)"
       stroke="#000000"
       xlink:href="#6"
       id="use57" />
    <use
       transform="rotate(180,415.5,68)"
       stroke="#000000"
       xlink:href="#6"
       id="use58" />
  </g>
</svg>
