<?xml version="1.0" encoding="UTF-8" standalone="no"?>
<svg
   width="139"
   height="189"
   version="1.1"
   id="svg543"
   xmlns:xlink="http://www.w3.org/1999/xlink"
   xmlns="http://www.w3.org/2000/svg"
   xmlns:svg="http://www.w3.org/2000/svg">
  <defs
     id="defs24">
    <linearGradient
       id="G1734"
       x1="2"
       x2="109"
       y1="62"
       y2="127.7"
       gradientUnits="userSpaceOnUse">
      <stop
         stop-color="#ebf0d0"
         offset="0"
         id="stop1" />
      <stop
         stop-color="#ffffeb"
         offset="1"
         id="stop2" />
    </linearGradient>
    <g
       id="cb"
       transform="translate(-1,-1)">
      <g
         id="g23">
        <path
           d="m 21,5 h 103 a 16,16 0 0 1 16,16 v 153 a 16,16 0 0 1 -16,16 H 21 A 16,16 0 0 1 5,174 V 21 A 16,16 0 0 1 21,5 Z"
           opacity="0.5"
           id="path20" />
        <path
           d="m 17,1 h 103 a 16,16 0 0 1 16,16 v 153 a 16,16 0 0 1 -16,16 H 17 A 16,16 0 0 1 1,170 V 17 A 16,16 0 0 1 17,1 Z"
           fill="#ffffff"
           id="path21" />
        <path
           d="m 19,3 h 103 a 16,16 0 0 1 16,16 v 153 a 16,16 0 0 1 -16,16 H 19 A 16,16 0 0 1 3,172 V 19 A 16,16 0 0 1 19,3 Z"
           fill="#c7891f"
           id="path22" />
        <path
           d="m 18,2 h 103 a 16,16 0 0 1 16,16 v 153 a 16,16 0 0 1 -16,16 H 18 A 16,16 0 0 1 2,171 V 18 A 16,16 0 0 1 18,2 Z"
           fill="url(#G1734)"
           id="path23" />
      </g>
      <path
         d="m 106.6,14 c -0.2,0.7 -0.1,1.4 0.2,2 0.3,0.6 0.9,1.1 1.8,1.1 0.8,0 1.5,-0.7 1.5,-1.2 0,-0.3 -0.2,-0.6 -0.5,-0.8 -1,2 -2.1,0.1 -1.8,-1 0.9,-3.7 7.7,-1 5.5,3.9 a 5,5 0 0 1 -4.5,2.9 l -71.3,0.4 v 1 l 71.6,-0.5 c 2.2,0 4.2,-1.4 5.1,-3.4 2.7,-6.2 -6.2,-9.6 -7.6,-4.4 z m 14.8,5.4 c -2.1,0.7 -3.4,2.9 -3.4,5.1 -0.3,22.9 0.1,74 0.1,74 h 1 l -0.2,-73.7 a 5,5 0 0 1 2.9,-4.5 c 2,-0.9 4.6,-0.2 5.4,1.9 0.9,2 -1,4.4 -2.8,3.5 -1,-0.9 -0.4,-1.2 0.3,-1.7 -0.2,-0.3 -0.5,-0.5 -0.8,-0.5 -0.3,0 -0.6,0.2 -0.7,0.3 -0.3,0.3 -0.5,0.7 -0.5,1.2 0,0.8 0.5,1.4 1.1,1.8 1.2,0.8 6,-0.8 4.3,-5 -1.3,-3.5 -4.8,-3.1 -6.7,-2.4 z m -100.7,70.4 0.2,74.5 c 0,1.9 -1.2,3.7 -2.9,4.5 -2,0.9 -4.6,0.2 -5.4,-1.9 -0.4,-1 -0.2,-3.1 1.5,-3.6 1.4,-0.4 3,0.5 1,1.8 0.2,0.3 0.5,0.5 0.8,0.5 0.6,0 1.2,-0.6 1.2,-1.5 0,-1.5 -1.8,-2.4 -3.1,-2 -0.9,0.2 -3.5,1.4 -2.5,5.1 0.8,2.8 4.6,3.9 7.1,2.7 1.9,-1 3.4,-2.9 3.4,-5.9 L 21.8,89.9 Z m 81.8,77.1 -71.5,0.3 c -2.5,0 -4.4,1.2 -5.3,3 -1.6,2.9 -0.6,6.5 2.5,7.7 2.6,1 6.4,-1.6 5,-4.7 a 2,2 0 0 0 -1.8,-1.1 c -0.8,0 -1.5,0.7 -1.5,1.2 0,0.3 0.2,0.6 0.5,0.8 1,-1.9 2.1,-0.3 1.8,1 -0.4,1.7 -2.5,1.9 -3.6,1.5 -2.1,-0.9 -2.8,-3.4 -1.9,-5.4 a 5,5 0 0 1 4.5,-2.9 l 71.3,-0.4 z"
         stroke="#000000"
         stroke-width="0.7"
         id="path24" />
    </g>
  </defs>
  <path
     id="7"
     d="m 25,-416.7 3.3,4.6 -7.4,25.2 -5.2,-1.3 7,-23.9 h -9.3 l -3.3,-4.6 z" />
  <g
     id="heart_1"
     transform="translate(-834,-378)">
    <g
       id="g1605"
       transform="matrix(0.28639,0,0,0.38877,-30,367.5)"
       fill="#ff0000">
      <path
         d="m 199.1,149.4 c -17,0.4 -23.3,23.2 -23.5,24 -5,-21.1 -25,-27.2 -34.9,-21.7 -37.6,20.6 13.7,55 34.8,84.3 23.3,-32 69.9,-69 34.3,-84.3 a 24.6,24 0 0 0 -10.7,-2.4 z"
         stroke="#ff0000"
         stroke-width="1.6"
         id="path273" />
    </g>
  </g>
  <g
     id="heart_2"
     transform="translate(-834,-378)">
    <use
       id="u1898"
       transform="translate(139)"
       xlink:href="#g1605" />
    <use
       id="u1904"
       transform="matrix(0.717,0,0,0.729,93.3,97.6)"
       xlink:href="#u1898" />
  </g>
  <g
     id="heart_3"
     transform="translate(-834,-378)">
    <use
       id="u2346"
       transform="translate(139)"
       xlink:href="#u1898" />
    <use
       id="u2354"
       transform="rotate(180,346.5,471.4)"
       xlink:href="#u2346" />
    <use
       id="u2348"
       transform="translate(139)"
       xlink:href="#u1904" />
    <use
       id="u2350"
       transform="translate(0,50.4)"
       xlink:href="#u2348" />
    <use
       id="u2352"
       transform="rotate(180,346.3,495.8)"
       xlink:href="#u2350" />
  </g>
  <g
     id="heart_4"
     transform="translate(-834,-378)">
    <use
       id="u2819"
       transform="translate(139)"
       xlink:href="#u2346" />
    <use
       id="u2821"
       transform="translate(139)"
       xlink:href="#u2354" />
    <use
       id="u2823"
       transform="translate(120.7)"
       xlink:href="#u2348" />
    <use
       id="u2827"
       transform="translate(120.7)"
       xlink:href="#u2352" />
  </g>
  <g
     id="heart_5"
     transform="translate(-834,-378)">
    <use
       id="u3334"
       transform="translate(139)"
       xlink:href="#u2819" />
    <use
       id="u3338"
       transform="translate(139)"
       xlink:href="#u2821" />
    <use
       id="u3340"
       transform="translate(139)"
       xlink:href="#u2823" />
    <use
       id="u3346"
       transform="translate(139)"
       xlink:href="#u2827" />
    <use
       id="u3348"
       transform="translate(36.7)"
       xlink:href="#u3346" />
  </g>
  <g
     id="heart_6"
     transform="translate(-834,-378)">
    <use
       id="u3863"
       transform="translate(139)"
       xlink:href="#u3334" />
    <use
       id="u3867"
       transform="translate(139)"
       xlink:href="#u3340" />
    <use
       id="u3873"
       transform="translate(102.3)"
       xlink:href="#u3348" />
    <use
       id="u3865"
       transform="translate(139)"
       xlink:href="#u3338" />
  </g>
  <g
     id="heart_7"
     transform="translate(-834,-378)">
    <use
       transform="translate(834,378)"
       xlink:href="#cb"
       id="use301" />
    <use
       id="u6660"
       transform="translate(139)"
       xlink:href="#u3863" />
    <use
       id="u6664"
       transform="translate(139)"
       xlink:href="#u3867" />
    <use
       id="u6668"
       transform="translate(18.4,19.7)"
       xlink:href="#u6664" />
    <use
       transform="translate(0,30.7)"
       xlink:href="#u6668"
       id="use302" />
    <use
       id="u6672"
       transform="translate(157.3,-19.7)"
       xlink:href="#u3873" />
    <use
       id="u6674"
       transform="translate(-18.4,19.7)"
       xlink:href="#u6672" />
    <use
       id="u6662"
       transform="translate(139)"
       xlink:href="#u3865" />
    <use
       id="u6666"
       transform="translate(36.7)"
       xlink:href="#u6664" />
    <use
       transform="translate(18.4,19.7)"
       xlink:href="#u6672"
       id="use303" />
    <use
       transform="translate(834,806)"
       fill="#ff0000"
       stroke="#ff0000"
       xlink:href="#7"
       id="use304" />
    <use
       transform="rotate(180,485,68)"
       fill="#ff0000"
       stroke="#ff0000"
       xlink:href="#7"
       id="use305" />
  </g>
</svg>
