<?xml version="1.0" encoding="UTF-8" standalone="no"?>
<svg
   width="139"
   height="189"
   version="1.1"
   id="svg543"
   xmlns:xlink="http://www.w3.org/1999/xlink"
   xmlns="http://www.w3.org/2000/svg"
   xmlns:svg="http://www.w3.org/2000/svg">
  <defs
     id="defs24">
    <linearGradient
       id="G1734"
       x1="2"
       x2="109"
       y1="62"
       y2="127.7"
       gradientUnits="userSpaceOnUse">
      <stop
         stop-color="#ebf0d0"
         offset="0"
         id="stop1" />
      <stop
         stop-color="#ffffeb"
         offset="1"
         id="stop2" />
    </linearGradient>
    <g
       id="cb"
       transform="translate(-1,-1)">
      <g
         id="g23">
        <path
           d="m 21,5 h 103 a 16,16 0 0 1 16,16 v 153 a 16,16 0 0 1 -16,16 H 21 A 16,16 0 0 1 5,174 V 21 A 16,16 0 0 1 21,5 Z"
           opacity="0.5"
           id="path20" />
        <path
           d="m 17,1 h 103 a 16,16 0 0 1 16,16 v 153 a 16,16 0 0 1 -16,16 H 17 A 16,16 0 0 1 1,170 V 17 A 16,16 0 0 1 17,1 Z"
           fill="#ffffff"
           id="path21" />
        <path
           d="m 19,3 h 103 a 16,16 0 0 1 16,16 v 153 a 16,16 0 0 1 -16,16 H 19 A 16,16 0 0 1 3,172 V 19 A 16,16 0 0 1 19,3 Z"
           fill="#c7891f"
           id="path22" />
        <path
           d="m 18,2 h 103 a 16,16 0 0 1 16,16 v 153 a 16,16 0 0 1 -16,16 H 18 A 16,16 0 0 1 2,171 V 18 A 16,16 0 0 1 18,2 Z"
           fill="url(#G1734)"
           id="path23" />
      </g>
      <path
         d="m 106.6,14 c -0.2,0.7 -0.1,1.4 0.2,2 0.3,0.6 0.9,1.1 1.8,1.1 0.8,0 1.5,-0.7 1.5,-1.2 0,-0.3 -0.2,-0.6 -0.5,-0.8 -1,2 -2.1,0.1 -1.8,-1 0.9,-3.7 7.7,-1 5.5,3.9 a 5,5 0 0 1 -4.5,2.9 l -71.3,0.4 v 1 l 71.6,-0.5 c 2.2,0 4.2,-1.4 5.1,-3.4 2.7,-6.2 -6.2,-9.6 -7.6,-4.4 z m 14.8,5.4 c -2.1,0.7 -3.4,2.9 -3.4,5.1 -0.3,22.9 0.1,74 0.1,74 h 1 l -0.2,-73.7 a 5,5 0 0 1 2.9,-4.5 c 2,-0.9 4.6,-0.2 5.4,1.9 0.9,2 -1,4.4 -2.8,3.5 -1,-0.9 -0.4,-1.2 0.3,-1.7 -0.2,-0.3 -0.5,-0.5 -0.8,-0.5 -0.3,0 -0.6,0.2 -0.7,0.3 -0.3,0.3 -0.5,0.7 -0.5,1.2 0,0.8 0.5,1.4 1.1,1.8 1.2,0.8 6,-0.8 4.3,-5 -1.3,-3.5 -4.8,-3.1 -6.7,-2.4 z m -100.7,70.4 0.2,74.5 c 0,1.9 -1.2,3.7 -2.9,4.5 -2,0.9 -4.6,0.2 -5.4,-1.9 -0.4,-1 -0.2,-3.1 1.5,-3.6 1.4,-0.4 3,0.5 1,1.8 0.2,0.3 0.5,0.5 0.8,0.5 0.6,0 1.2,-0.6 1.2,-1.5 0,-1.5 -1.8,-2.4 -3.1,-2 -0.9,0.2 -3.5,1.4 -2.5,5.1 0.8,2.8 4.6,3.9 7.1,2.7 1.9,-1 3.4,-2.9 3.4,-5.9 L 21.8,89.9 Z m 81.8,77.1 -71.5,0.3 c -2.5,0 -4.4,1.2 -5.3,3 -1.6,2.9 -0.6,6.5 2.5,7.7 2.6,1 6.4,-1.6 5,-4.7 a 2,2 0 0 0 -1.8,-1.1 c -0.8,0 -1.5,0.7 -1.5,1.2 0,0.3 0.2,0.6 0.5,0.8 1,-1.9 2.1,-0.3 1.8,1 -0.4,1.7 -2.5,1.9 -3.6,1.5 -2.1,-0.9 -2.8,-3.4 -1.9,-5.4 a 5,5 0 0 1 4.5,-2.9 l 71.3,-0.4 z"
         stroke="#000000"
         stroke-width="0.7"
         id="path24" />
    </g>
  </defs>
  <path
     id="8"
     d="m 18.6,-215.5 c 1.5,-1.1 2.8,-2.4 3.7,-3.9 1,-1.5 1.1,-2.8 0.2,-3.7 -1.1,-1.2 -2.4,-1.4 -3.9,-0.6 -1.2,0.7 -2,1.7 -2.4,3 -0.5,1.9 0,3.5 1.7,4.8 z m -1.7,14.1 c 0.4,0.1 0.9,0.3 1.5,0.3 1.6,0 7,-3.2 4.4,-8 a 7.9,7.9 0 0 0 -2.2,-2.3 c -6.9,3.2 -6,9.2 -3.7,10 z m 10,-19.7 c 0.7,1.1 0.6,2.4 -0.1,3.7 -0.7,1.3 -2.2,2.9 -4.3,4.6 l 3.3,3 c 2.4,2.5 2.4,3.1 2.2,4 -0.3,3.3 -2.2,6.7 -5.2,7.9 -0.9,0.4 -1.7,0.6 -2.6,0.5 a 29,29 0 0 1 -8.5,-5.6 c -1.1,-1.9 -1.1,-4 0,-6.2 1.1,-2.2 2.7,-3.8 5,-4.9 -3,-2.2 -4.7,-3.9 -5,-5 -0.4,-1.3 1,-5.9 4.7,-7.9 1.2,-0.7 2.5,-1 3.8,-0.9 2.7,1.7 4.6,4.4 6.7,6.8 z" />
  <g
     id="diamond_1"
     transform="translate(-973,-189)">
    <path
       id="p1608"
       d="m 20,236.7 c -2.8,6.7 -7.5,12.5 -13.4,16.8 5.9,4 10,9.3 13.5,16.8 2.6,-6.8 7.3,-12.7 13.4,-16.8 -6.6,-3.3 -10.4,-8.7 -13.5,-16.8 z"
       fill="#ff0000"
       stroke="#ff0000"
       stroke-width="1.3" />
  </g>
  <g
     id="diamond_2"
     transform="translate(-973,-189)">
    <use
       id="u1886"
       transform="translate(139)"
       xlink:href="#p1608" />
    <use
       id="u1890"
       transform="matrix(0.718,0,0,0.725,93,46.5)"
       xlink:href="#u1886" />
  </g>
  <g
     id="diamond_3"
     transform="translate(-973,-189)">
    <use
       id="u2332"
       transform="translate(139)"
       xlink:href="#u1886" />
    <use
       id="u2336"
       transform="translate(139)"
       xlink:href="#u1890" />
  </g>
  <g
     id="diamond_4"
     transform="translate(-973,-189)">
    <use
       id="u2803"
       transform="translate(139)"
       xlink:href="#u2332" />
    <use
       id="u2807"
       transform="translate(120.7)"
       xlink:href="#u2336" />
  </g>
  <g
     id="diamond_5"
     transform="translate(-973,-189)">
    <use
       id="u3316"
       transform="translate(139)"
       xlink:href="#u2803" />
    <use
       id="u3320"
       transform="translate(139)"
       xlink:href="#u2807" />
  </g>
  <g
     id="diamond_6"
     transform="translate(-973,-189)">
    <use
       id="u3843"
       transform="translate(139)"
       xlink:href="#u3316" />
    <use
       id="u3847"
       transform="translate(139)"
       xlink:href="#u3320" />
  </g>
  <g
     id="diamond_7"
     transform="translate(-973,-189)">
    <use
       id="u6640"
       transform="translate(139)"
       xlink:href="#u3843" />
    <use
       id="u6644"
       transform="translate(139)"
       xlink:href="#u3847" />
    <use
       id="u6646"
       transform="translate(36.7)"
       xlink:href="#u6644" />
    <use
       id="u6642"
       transform="translate(96.8,57.6)"
       xlink:href="#u6640" />
  </g>
  <g
     id="diamond_8"
     transform="translate(-973,-189)">
    <use
       transform="translate(973,189)"
       xlink:href="#cb"
       id="use192" />
    <use
       id="u3246"
       transform="translate(42.2,-57.6)"
       xlink:href="#u6642" />
    <use
       transform="translate(96.8,57.6)"
       xlink:href="#u3246"
       id="use193" />
    <use
       id="u3258"
       transform="translate(102.3)"
       fill="#ff0000"
       stroke="#ff0000"
       xlink:href="#u6646" />
    <use
       id="u3260"
       transform="translate(36.7)"
       fill="#ff0000"
       stroke="#ff0000"
       xlink:href="#u3258" />
    <use
       id="u3262"
       transform="translate(-36.7,34)"
       xlink:href="#u3260" />
    <use
       id="u3264"
       transform="translate(36.7)"
       xlink:href="#u3262" />
    <use
       id="u3266"
       transform="translate(-36.7,34)"
       xlink:href="#u3264" />
    <use
       id="u3268"
       transform="translate(36.7)"
       xlink:href="#u3266" />
    <use
       id="u3270"
       transform="translate(-36.7,34)"
       xlink:href="#u3268" />
    <use
       transform="translate(36.7)"
       xlink:href="#u3270"
       id="use194" />
    <use
       transform="translate(973,428)"
       fill="#ff0000"
       stroke="#ff0000"
       xlink:href="#8"
       id="use195" />
    <use
       transform="rotate(180,554.5,68.1)"
       fill="#ff0000"
       stroke="#ff0000"
       xlink:href="#8"
       id="use196" />
  </g>
</svg>
