<?xml version="1.0" encoding="UTF-8" standalone="no"?>
<svg
   width="139"
   height="189"
   version="1.1"
   id="svg543"
   xmlns:xlink="http://www.w3.org/1999/xlink"
   xmlns="http://www.w3.org/2000/svg"
   xmlns:svg="http://www.w3.org/2000/svg">
  <defs
     id="defs24">
    <linearGradient
       id="G1734"
       x1="2"
       x2="109"
       y1="62"
       y2="127.7"
       gradientUnits="userSpaceOnUse">
      <stop
         stop-color="#ebf0d0"
         offset="0"
         id="stop1" />
      <stop
         stop-color="#ffffeb"
         offset="1"
         id="stop2" />
    </linearGradient>
    <linearGradient
       id="G8308">
      <stop
         stop-color="#830007"
         offset="0"
         id="stop3" />
      <stop
         stop-color="red"
         offset="1"
         id="stop4" />
    </linearGradient>
    <linearGradient
       id="G4049"
       x1="24.299999"
       x2="128.39999"
       y1="31.299999"
       y2="135"
       gradientTransform="matrix(0.89,0,0,1.13,277,755)"
       gradientUnits="userSpaceOnUse"
       xlink:href="#G8308" />
    <linearGradient
       id="G4052"
       x1="22"
       x2="146.39999"
       y1="17.1"
       y2="140.39999"
       gradientTransform="matrix(0.86,0,0,1.17,277,755)"
       gradientUnits="userSpaceOnUse"
       xlink:href="#G8308" />
    <linearGradient
       id="G4055"
       x1="138.2"
       x2="36.5"
       y1="146.60001"
       y2="18.700001"
       gradientTransform="matrix(0.854,0,0,1.17,277,755)"
       gradientUnits="userSpaceOnUse"
       xlink:href="#G8308" />
    <g
       id="cb"
       transform="translate(-1,-1)">
      <g
         id="g23">
        <path
           d="m 21,5 h 103 a 16,16 0 0 1 16,16 v 153 a 16,16 0 0 1 -16,16 H 21 A 16,16 0 0 1 5,174 V 21 A 16,16 0 0 1 21,5 Z"
           opacity="0.5"
           id="path20" />
        <path
           d="m 17,1 h 103 a 16,16 0 0 1 16,16 v 153 a 16,16 0 0 1 -16,16 H 17 A 16,16 0 0 1 1,170 V 17 A 16,16 0 0 1 17,1 Z"
           fill="#ffffff"
           id="path21" />
        <path
           d="m 19,3 h 103 a 16,16 0 0 1 16,16 v 153 a 16,16 0 0 1 -16,16 H 19 A 16,16 0 0 1 3,172 V 19 A 16,16 0 0 1 19,3 Z"
           fill="#c7891f"
           id="path22" />
        <path
           d="m 18,2 h 103 a 16,16 0 0 1 16,16 v 153 a 16,16 0 0 1 -16,16 H 18 A 16,16 0 0 1 2,171 V 18 A 16,16 0 0 1 18,2 Z"
           fill="url(#G1734)"
           id="path23" />
      </g>
      <path
         d="m 106.6,14 c -0.2,0.7 -0.1,1.4 0.2,2 0.3,0.6 0.9,1.1 1.8,1.1 0.8,0 1.5,-0.7 1.5,-1.2 0,-0.3 -0.2,-0.6 -0.5,-0.8 -1,2 -2.1,0.1 -1.8,-1 0.9,-3.7 7.7,-1 5.5,3.9 a 5,5 0 0 1 -4.5,2.9 l -71.3,0.4 v 1 l 71.6,-0.5 c 2.2,0 4.2,-1.4 5.1,-3.4 2.7,-6.2 -6.2,-9.6 -7.6,-4.4 z m 14.8,5.4 c -2.1,0.7 -3.4,2.9 -3.4,5.1 -0.3,22.9 0.1,74 0.1,74 h 1 l -0.2,-73.7 a 5,5 0 0 1 2.9,-4.5 c 2,-0.9 4.6,-0.2 5.4,1.9 0.9,2 -1,4.4 -2.8,3.5 -1,-0.9 -0.4,-1.2 0.3,-1.7 -0.2,-0.3 -0.5,-0.5 -0.8,-0.5 -0.3,0 -0.6,0.2 -0.7,0.3 -0.3,0.3 -0.5,0.7 -0.5,1.2 0,0.8 0.5,1.4 1.1,1.8 1.2,0.8 6,-0.8 4.3,-5 -1.3,-3.5 -4.8,-3.1 -6.7,-2.4 z m -100.7,70.4 0.2,74.5 c 0,1.9 -1.2,3.7 -2.9,4.5 -2,0.9 -4.6,0.2 -5.4,-1.9 -0.4,-1 -0.2,-3.1 1.5,-3.6 1.4,-0.4 3,0.5 1,1.8 0.2,0.3 0.5,0.5 0.8,0.5 0.6,0 1.2,-0.6 1.2,-1.5 0,-1.5 -1.8,-2.4 -3.1,-2 -0.9,0.2 -3.5,1.4 -2.5,5.1 0.8,2.8 4.6,3.9 7.1,2.7 1.9,-1 3.4,-2.9 3.4,-5.9 L 21.8,89.9 Z m 81.8,77.1 -71.5,0.3 c -2.5,0 -4.4,1.2 -5.3,3 -1.6,2.9 -0.6,6.5 2.5,7.7 2.6,1 6.4,-1.6 5,-4.7 a 2,2 0 0 0 -1.8,-1.1 c -0.8,0 -1.5,0.7 -1.5,1.2 0,0.3 0.2,0.6 0.5,0.8 1,-1.9 2.1,-0.3 1.8,1 -0.4,1.7 -2.5,1.9 -3.6,1.5 -2.1,-0.9 -2.8,-3.4 -1.9,-5.4 a 5,5 0 0 1 4.5,-2.9 l 71.3,-0.4 z"
         stroke="#000000"
         stroke-width="0.7"
         id="path24" />
    </g>
  </defs>
  <g
     id="back"
     transform="translate(-278,-756)">
    <use
       transform="translate(278,756)"
       xlink:href="#cb"
       id="use24" />
    <path
       d="m 299,765 h 94 c 8,0 15,7 15,15 v 140 c 0,8 -7,15 -15,15 H 299 A 15,15 0 0 1 284,920 V 780 c 0,-8 7,-15 15,-15 z"
       fill="url(#G4055)"
       id="path25"
       style="fill:url(#G4055)" />
    <path
       d="m 299.2,764.4 a 15.3,15.3 0 0 0 -15.3,15.3 v 140.2 c 0,8.5 6.8,15.3 15.3,15.3 h 94.4 c 8.5,0 15.3,-6.8 15.3,-15.3 V 779.7 c 0,-8.5 -6.8,-15.3 -15.3,-15.3 z m 0,1.2 h 94.4 a 14,14 0 0 1 14,14 V 920 a 14,14 0 0 1 -14,14 h -94.4 a 14,14 0 0 1 -14,-14 V 779.7 a 14,14 0 0 1 14,-14 z"
       fill="url(#G4052)"
       id="path26"
       style="fill:url(#G4052)" />
    <path
       d="m 315.9,776.2 c -5.7,0 -10.9,7 -10.9,15.7 0,7.4 9.9,17.2 9.6,23.1 -3,1.7 -12.4,-13.8 -17.2,-13.8 -5.7,0 -10.4,7 -10.4,15.7 0,8.6 4.7,15.7 10.4,15.7 5,0 13.5,-15.5 17.2,-14.1 l -6.8,30.2 16.1,-0.1 c 0,0 -7.1,-29.3 -7.1,-30 h 0.1 v 0.3 c 3.7,-1.4 12.5,14.2 17.4,14.2 5.7,0 10.4,-7 10.4,-15.7 0,-8.7 -4.7,-15.7 -10.4,-15.7 -4.8,0 -13.5,15.3 -17.4,13.7 0.5,-6 9.9,-15.9 9.9,-23.3 0,-8.7 -5.2,-15.7 -10.9,-15.7 z m 59.6,3.9 c -8.9,17.7 -15.3,26.9 -28.7,36.6 a 88,88 0 0 1 28.9,35.7 77,77 0 0 1 28.8,-36.2 c -14.1,-7.2 -22.3,-18.6 -29,-36.1 z m -73.4,73.6 c -1.7,0.1 -3.6,0.5 -5.7,1.4 -22.8,17.7 7.9,46.3 20.9,70.8 l 0.4,0.1 c 14.3,-26.8 41.4,-56.3 20.6,-70.9 -16.4,-7.5 -20.8,17.4 -21,18.3 -0.1,-0.8 -3.5,-19.8 -15.3,-19.7 z m 73.9,0.2 c -10.6,16.8 -43,45.5 -22.5,54.3 12.5,4.1 18.4,-4.3 20.9,-9.8 h 0.5 l -8.3,27.8 19.2,-0.1 c 0,0 -8.3,-26.7 -8.3,-27.7 h 0.2 c 2,4.5 9.7,13.8 18.2,10.3 24.8,-10 -11.7,-38.3 -20,-54.8 z"
       fill="url(#G4049)"
       id="path27"
       style="fill:url(#G4049)" />
  </g>
</svg>
