<?xml version="1.0" encoding="UTF-8" standalone="no"?>
<svg
   width="139"
   height="189"
   version="1.1"
   id="svg543"
   xmlns:xlink="http://www.w3.org/1999/xlink"
   xmlns="http://www.w3.org/2000/svg"
   xmlns:svg="http://www.w3.org/2000/svg">
  <defs
     id="defs24">
    <linearGradient
       id="G1734"
       x1="2"
       x2="109"
       y1="62"
       y2="127.7"
       gradientUnits="userSpaceOnUse">
      <stop
         stop-color="#ebf0d0"
         offset="0"
         id="stop1" />
      <stop
         stop-color="#ffffeb"
         offset="1"
         id="stop2" />
    </linearGradient>
    <linearGradient
       id="G4408">
      <stop
         stop-color="#ff44ab"
         offset="0"
         id="stop7" />
      <stop
         stop-color="#f6c"
         offset="1"
         id="stop8" />
    </linearGradient>
    <linearGradient
       id="G2580">
      <stop
         stop-color="#fff"
         offset="0"
         id="stop11" />
      <stop
         stop-color="#fff"
         stop-opacity="0"
         offset="1"
         id="stop12" />
    </linearGradient>
    <linearGradient
       id="G3865">
      <stop
         stop-color="#0083cc"
         offset="0"
         id="stop13" />
      <stop
         stop-color="#24a4cc"
         offset="1"
         id="stop14" />
    </linearGradient>
    <linearGradient
       id="G7499"
       x1="51.900002"
       x2="74.300003"
       y1="154.60001"
       y2="129.5"
       gradientTransform="matrix(-1.311,0,0,1.0086,1541.4,-15.6)"
       gradientUnits="userSpaceOnUse"
       xlink:href="#G4408" />
    <linearGradient
       id="G7477"
       x1="98.800003"
       x2="112.9"
       y1="108.8"
       y2="103.3"
       gradientTransform="matrix(-1.15,0,0,1.15,1587.5,-11.6)"
       gradientUnits="userSpaceOnUse"
       xlink:href="#G3865" />
    <linearGradient
       id="G7471"
       x1="93.5"
       x2="117.1"
       y1="62.900002"
       y2="57.700001"
       gradientTransform="matrix(-1.15,0,0,1.15,1582.8,-12.8)"
       gradientUnits="userSpaceOnUse"
       xlink:href="#G4408" />
    <linearGradient
       id="G7467"
       x1="652.29999"
       x2="410.89999"
       y1="77.400002"
       y2="344.39999"
       gradientTransform="matrix(-0.215,0,0,0.167,1547.6,28.4)"
       gradientUnits="userSpaceOnUse"
       xlink:href="#G2580" />
    <g
       id="cb"
       transform="translate(-1,-1)">
      <g
         id="g23">
        <path
           d="m 21,5 h 103 a 16,16 0 0 1 16,16 v 153 a 16,16 0 0 1 -16,16 H 21 A 16,16 0 0 1 5,174 V 21 A 16,16 0 0 1 21,5 Z"
           opacity="0.5"
           id="path20" />
        <path
           d="m 17,1 h 103 a 16,16 0 0 1 16,16 v 153 a 16,16 0 0 1 -16,16 H 17 A 16,16 0 0 1 1,170 V 17 A 16,16 0 0 1 17,1 Z"
           fill="#ffffff"
           id="path21" />
        <path
           d="m 19,3 h 103 a 16,16 0 0 1 16,16 v 153 a 16,16 0 0 1 -16,16 H 19 A 16,16 0 0 1 3,172 V 19 A 16,16 0 0 1 19,3 Z"
           fill="#c7891f"
           id="path22" />
        <path
           d="m 18,2 h 103 a 16,16 0 0 1 16,16 v 153 a 16,16 0 0 1 -16,16 H 18 A 16,16 0 0 1 2,171 V 18 A 16,16 0 0 1 18,2 Z"
           fill="url(#G1734)"
           id="path23" />
      </g>
      <path
         d="m 106.6,14 c -0.2,0.7 -0.1,1.4 0.2,2 0.3,0.6 0.9,1.1 1.8,1.1 0.8,0 1.5,-0.7 1.5,-1.2 0,-0.3 -0.2,-0.6 -0.5,-0.8 -1,2 -2.1,0.1 -1.8,-1 0.9,-3.7 7.7,-1 5.5,3.9 a 5,5 0 0 1 -4.5,2.9 l -71.3,0.4 v 1 l 71.6,-0.5 c 2.2,0 4.2,-1.4 5.1,-3.4 2.7,-6.2 -6.2,-9.6 -7.6,-4.4 z m 14.8,5.4 c -2.1,0.7 -3.4,2.9 -3.4,5.1 -0.3,22.9 0.1,74 0.1,74 h 1 l -0.2,-73.7 a 5,5 0 0 1 2.9,-4.5 c 2,-0.9 4.6,-0.2 5.4,1.9 0.9,2 -1,4.4 -2.8,3.5 -1,-0.9 -0.4,-1.2 0.3,-1.7 -0.2,-0.3 -0.5,-0.5 -0.8,-0.5 -0.3,0 -0.6,0.2 -0.7,0.3 -0.3,0.3 -0.5,0.7 -0.5,1.2 0,0.8 0.5,1.4 1.1,1.8 1.2,0.8 6,-0.8 4.3,-5 -1.3,-3.5 -4.8,-3.1 -6.7,-2.4 z m -100.7,70.4 0.2,74.5 c 0,1.9 -1.2,3.7 -2.9,4.5 -2,0.9 -4.6,0.2 -5.4,-1.9 -0.4,-1 -0.2,-3.1 1.5,-3.6 1.4,-0.4 3,0.5 1,1.8 0.2,0.3 0.5,0.5 0.8,0.5 0.6,0 1.2,-0.6 1.2,-1.5 0,-1.5 -1.8,-2.4 -3.1,-2 -0.9,0.2 -3.5,1.4 -2.5,5.1 0.8,2.8 4.6,3.9 7.1,2.7 1.9,-1 3.4,-2.9 3.4,-5.9 L 21.8,89.9 Z m 81.8,77.1 -71.5,0.3 c -2.5,0 -4.4,1.2 -5.3,3 -1.6,2.9 -0.6,6.5 2.5,7.7 2.6,1 6.4,-1.6 5,-4.7 a 2,2 0 0 0 -1.8,-1.1 c -0.8,0 -1.5,0.7 -1.5,1.2 0,0.3 0.2,0.6 0.5,0.8 1,-1.9 2.1,-0.3 1.8,1 -0.4,1.7 -2.5,1.9 -3.6,1.5 -2.1,-0.9 -2.8,-3.4 -1.9,-5.4 a 5,5 0 0 1 4.5,-2.9 l 71.3,-0.4 z"
         stroke="#000000"
         stroke-width="0.7"
         id="path24" />
    </g>
  </defs>
  <path
     id="silj"
     d="m 72.7,-146.3 c 6.3,3.3 13,-3.3 17.5,4.5 3,5.1 -6.1,3.8 -0.9,10.8 3.8,5.1 3.6,7 0.7,7.6 1.2,5.7 0.3,15.2 -2.3,20.4 3.2,3.9 0.8,2.6 -3.6,3.4 1.4,2.2 2.8,7.8 5.2,12.5 2.5,4.9 0.6,14.6 1.1,21.9 A 60.2,60.2 0 0 1 55,-62.4 c -4.7,-1 -9.5,-1.3 -9.2,-8.1 0.3,-8.4 -1.7,-20.5 7.9,-23.8 5.2,-1.8 6.1,-3.7 3,-9.5 -4.3,-7.9 -6.4,-5.2 -11.1,-7.3 4.4,-4.6 7.9,-17.9 11.8,-22.4 -7.7,-0.7 -8.1,-7.6 -2.3,-10.3 6.8,-3.1 8.3,1.3 14.5,-2 0.9,-0.5 2.3,-0.9 3.1,-0.5 z" />
  <path
     id="J"
     d="m 26.9,-37.5 v 21.6 c 0,2.5 -3.6,7.3 -8.3,7.3 -2.5,0 -4.9,-1 -7.2,-3.1 l 0.8,-0.6 c 1.5,0.5 2.8,0.8 4,0.8 5.1,0 5.9,-4.2 5.9,-6.8 v -20.6 z" />
  <g
     id="club_1"
     transform="translate(-1390)">
    <path
       id="p908"
       d="m 20.1,47.7 c -2.6,0 -5.1,3.2 -5.1,7.2 0,3.5 4.7,8 4.5,10.7 -1.4,0.8 -5.8,-6.5 -8,-6.5 -2.7,0 -4.8,3.3 -4.8,7.3 0,4 2.1,7.3 4.8,7.3 2.3,0 6.4,-7.2 8.1,-6.5 0,4.5 -4.5,14.1 -4.5,14.1 h 10 c 0,0 -4.5,-9.6 -4.5,-14.1 1.7,-0.7 5.8,6.7 8,6.7 2.8,0 5,-3.3 5,-7.3 0,-4 -2.2,-7.3 -5,-7.3 -2.1,0 -6.2,7 -8,6.4 0,-2.9 4.7,-7.3 4.7,-10.7 0,-4 -2.5,-7.3 -5.2,-7.3 z"
       stroke="#000000" />
  </g>
  <g
     id="club_2"
     transform="translate(-1390)">
    <use
       id="u1874"
       transform="translate(139)"
       xlink:href="#p908" />
  </g>
  <g
     id="club_3"
     transform="translate(-1390)">
    <use
       id="u2318"
       transform="translate(139)"
       xlink:href="#u1874" />
    <use
       id="u2326"
       transform="rotate(180,346.5,93.2)"
       xlink:href="#u2318" />
  </g>
  <g
     id="club_4"
     transform="translate(-1390)">
    <use
       id="u2789"
       transform="translate(139)"
       xlink:href="#u2318" />
    <use
       id="u2791"
       transform="translate(139)"
       xlink:href="#u2326" />
  </g>
  <g
     id="club_5"
     transform="translate(-1390)">
    <use
       id="u3298"
       transform="translate(139)"
       xlink:href="#u2789" />
    <use
       id="u3300"
       transform="translate(139)"
       xlink:href="#u2791" />
  </g>
  <g
     id="club_6"
     transform="translate(-1390)">
    <use
       id="u3827"
       transform="translate(139)"
       xlink:href="#u3298" />
    <use
       id="u3829"
       transform="translate(139)"
       xlink:href="#u3300" />
  </g>
  <g
     id="club_jack"
     transform="translate(-1390)">
    <use
       transform="translate(1390)"
       xlink:href="#cb"
       id="use90" />
    <use
       transform="matrix(1.15,0,0,1.15,1379.7,215.6)"
       xlink:href="#silj"
       id="use91" />
    <path
       d="m 1443.4,82.8 c 0,13.1 8.7,23.8 19.4,23.8 10.7,0 19.4,-10.7 19.4,-23.8 0,-13.1 -8.7,-23.8 -19.4,-23.8 -10.7,0 -19.4,10.7 -19.4,23.8 z"
       fill="#ffddcc"
       id="path91" />
    <path
       d="m 1466.8,107.2 a 14.6,14.6 0 0 1 14.6,14.6 V 139 a 68.2,68.2 0 0 1 -46.7,0 v -17.2 a 14.6,14.6 0 0 1 14.6,-14.7 z"
       fill="url(#G7499)"
       id="path92"
       style="fill:url(#G7499)" />
    <path
       d="m 1484.3,71.7 c -3,-5.2 -5.8,-15.1 -22,-15 -25.1,0.7 -19.1,26.9 -28.1,29.7 5.6,1.8 8.4,3.4 16.7,0.5 -0.9,-6.6 0.6,-11.4 4.5,-14.8 5,2.6 23.9,1.4 28.9,-0.4 z"
       fill="#ffbb22"
       id="path93" />
    <path
       d="m 1463.4,83 c 0,1.4 1.6,2.5 3.5,2.5 1.9,0 3.5,-1.1 3.5,-2.5 0,-1.4 -1.6,-2.4 -3.5,-2.4 -1.9,0 -3.5,1.1 -3.5,2.4 z"
       fill="#ffffff"
       id="path94" />
    <path
       d="m 1466.4,83.1 c 0,1.1 0.9,2 2,2 1.1,0 2,-0.9 2,-2 0,-1.1 -0.9,-2 -2,-2 -1.1,0 -2,0.9 -2,2 z"
       fill="#2233dd"
       id="path95" />
    <path
       d="m 1467.9,83.3 c 0,0.9 0.6,1.6 1.3,1.6 0.7,0 1.2,-0.7 1.2,-1.6 0,-0.9 -0.6,-1.7 -1.3,-1.7 -0.7,0 -1.2,0.8 -1.2,1.7 z"
       id="path96" />
    <path
       d="m 1475,82.7 c 0,1.3 1.6,2.4 3.5,2.4 1.9,0 3.5,-1.1 3.5,-2.4 0,-1.3 -1.6,-2.5 -3.5,-2.5 -1.9,0 -3.5,1.1 -3.5,2.5 z"
       fill="#ffffff"
       id="path97" />
    <path
       d="m 1478,82.7 c 0,1.1 0.9,2 2,2 1.1,0 2,-0.9 2,-2 0,-1.1 -0.9,-2 -2,-2 -1.1,0 -2,0.9 -2,2 z"
       fill="#2233dd"
       id="path98" />
    <path
       d="m 1479.5,82.9 c 0,0.9 0.6,1.6 1.3,1.6 0.7,0 1.2,-0.7 1.2,-1.6 0,-0.9 -0.6,-1.7 -1.3,-1.7 -0.7,0 -1.2,0.8 -1.2,1.7 z"
       id="path99" />
    <path
       d="m 1476,98.2 c -2.1,4.2 -8,2.2 -13.5,0 6.1,0.6 10.4,1.1 13.5,0 z"
       fill="#ff5555"
       id="path100" />
    <path
       d="m 1450.6,125.4 -1.4,0.1 -1.6,16.7 4,0.6 z"
       fill="#aa1199"
       id="path101" />
    <path
       d="m 1473.5,84.3 c 1,1.5 2.2,4 2,5 -0.2,1 -1.9,1 -2.8,1.6 l -0.3,-0.6 c 0.8,-0.5 2,0 2.2,-0.9 0.1,-1 -0.8,-3.4 -1.7,-4.7 z"
       id="path102" />
    <path
       d="m 1472,93.1 c 4.4,0.5 7,3.8 9.3,6.3 0,0 -7.2,-4 -9.5,-4 0.2,-0.5 0,-1.2 0.2,-2.3 z m -1,-0.1 c -3.9,0.4 -11.3,3.4 -11.7,6.2 0,0 9.1,-4.8 11.2,-4 0,-0.6 0.4,-1.2 0.5,-2.2 z"
       fill="#ffbb22"
       id="path103" />
    <path
       d="m 1473.9,109 a 136,136 0 0 1 -16.6,34 h -4.3 a 153.3,153.3 0 0 0 17.4,-35.5 c 0,0 2.4,0.7 3.5,1.6 z"
       fill="#eeee00"
       id="path104" />
    <path
       d="m 1476.9,105 0.3,11.8 -10.7,-6.5 v 1.6 l -4.3,0.4 0.1,-2.2 -14,6.2 1.5,-13.9 12.3,6.3 0.3,-2 4.3,-0.4 v 2.2 z"
       fill="url(#G7477)"
       id="path105"
       style="fill:url(#G7477)" />
    <path
       d="m 1477.1,58.9 0.6,3 a 85.7,85.7 0 0 1 -30.8,1 l 0.4,-2.9 a 93,93 0 0 0 29.8,-1.1 z"
       fill="#eeee00"
       id="path106" />
    <path
       d="m 1463.1,60.7 c -32.8,4.4 -27,-15.4 -1.8,-8.8 24.3,-8.5 30.2,11.3 1.8,8.8 z"
       fill="url(#G7471)"
       id="path107"
       style="fill:url(#G7471)" />
    <path
       d="m 1458,51 a 4.3,1.9 0 1 0 8.6,0 4.3,1.9 0 1 0 -8.6,0 z"
       fill="#eeee00"
       id="path108" />
    <path
       d="m 1462.3,49.1 c 2,0 3.6,0.7 4,1.6 14.8,-3.1 20.2,5.2 11,8.7 l 0.4,2.4 c 3.5,3.2 5,7.2 6.6,10 -0.9,0.3 -2.5,0.5 -4.1,0.8 a 27.8,27.8 0 0 1 -1.6,24 61,61 0 0 1 2.7,2.8 c 0,0 -1.7,-1 -3.4,-1.8 a 18.4,18.4 0 0 1 -14.7,9 l 3.5,-0.3 v 0.8 h 0.1 c 1,0 2,0.2 3,0.4 l 7.1,-2.5 0.2,6.4 a 14.5,14.5 0 0 1 4.3,10.4 v 17.1 a 57.4,57.4 0 0 1 -24,4 v 0.1 h -4.3 l 0.1,-0.3 -1.7,-0.2 v 0.3 l -4,-0.6 a 51,51 0 0 1 -12.8,-3.3 v -17.1 c 0,-8.1 6.5,-14.6 14.6,-14.7 l 0.5,-4.7 9.3,4.7 h 3.2 l 0.1,-0.5 h 0.3 c -9.2,0 -16.7,-7.8 -18.8,-18.3 -3.5,0.2 -6.1,-0.7 -9.7,-1.9 6.3,-2 5.4,-15.3 12.9,-23.4 h -0.1 l 0.3,-2.4 c -12.6,-2.8 -6.4,-12.5 11.2,-9.1 -0.2,-0.2 -0.5,-0.3 -0.5,-0.5 0,-1 2,-1.9 4.3,-1.9 z"
       fill="url(#G7467)"
       id="path109"
       style="fill:url(#G7467)" />
    <use
       transform="translate(-139)"
       xlink:href="#u3772"
       id="use109" />
    <use
       transform="translate(-139)"
       xlink:href="#u3770"
       id="use110" />
    <use
       transform="translate(1390,50)"
       stroke="#000000"
       xlink:href="#J"
       id="use111" />
    <use
       transform="rotate(180,763,68)"
       stroke="#000000"
       xlink:href="#J"
       id="use112" />
  </g>
  <g
     id="club_queen"
     transform="translate(-1390)">
    <use
       id="u3772"
       transform="translate(-139)"
       xlink:href="#u4924" />
    <use
       id="u3770"
       transform="translate(-139)"
       xlink:href="#u4926" />
  </g>
  <g
     id="club_king"
     transform="translate(-1390)">
    <use
       id="u4924"
       transform="translate(973)"
       xlink:href="#u3827" />
    <use
       id="u4926"
       transform="translate(973)"
       xlink:href="#u3829" />
  </g>
</svg>
