<?xml version="1.0" encoding="UTF-8" standalone="no"?>
<svg
   width="139"
   height="189"
   version="1.1"
   id="svg543"
   xmlns:xlink="http://www.w3.org/1999/xlink"
   xmlns="http://www.w3.org/2000/svg"
   xmlns:svg="http://www.w3.org/2000/svg">
  <defs
     id="defs24">
    <linearGradient
       id="G1734"
       x1="2"
       x2="109"
       y1="62"
       y2="127.7"
       gradientUnits="userSpaceOnUse">
      <stop
         stop-color="#ebf0d0"
         offset="0"
         id="stop1" />
      <stop
         stop-color="#ffffeb"
         offset="1"
         id="stop2" />
    </linearGradient>
    <linearGradient
       id="G3196">
      <stop
         stop-color="#008200"
         offset="0"
         id="stop9" />
      <stop
         stop-color="#00d000"
         offset="1"
         id="stop10" />
    </linearGradient>
    <linearGradient
       id="G2580">
      <stop
         stop-color="#fff"
         offset="0"
         id="stop11" />
      <stop
         stop-color="#fff"
         stop-opacity="0"
         offset="1"
         id="stop12" />
    </linearGradient>
    <linearGradient
       id="G3865">
      <stop
         stop-color="#0083cc"
         offset="0"
         id="stop13" />
      <stop
         stop-color="#24a4cc"
         offset="1"
         id="stop14" />
    </linearGradient>
    <linearGradient
       id="G"
       x1="299"
       x2="449.29999"
       y1="540.5"
       y2="415.5"
       gradientTransform="matrix(-0.167,0,0,0.167,1518.9,420)"
       gradientUnits="userSpaceOnUse"
       xlink:href="#G3196" />
    <linearGradient
       id="G93"
       x1="137.89999"
       x2="144.2"
       y1="284.79999"
       y2="281.20001"
       gradientTransform="matrix(-1.15,0,0,1.15,1629.5,164.3)"
       gradientUnits="userSpaceOnUse"
       xlink:href="#G3865" />
    <linearGradient
       id="G87"
       x1="93.5"
       x2="117.1"
       y1="62.900002"
       y2="57.700001"
       gradientTransform="matrix(-1.15,0,0,1.15,1582.8,365.2)"
       gradientUnits="userSpaceOnUse"
       xlink:href="#G3196" />
    <linearGradient
       id="G25"
       x1="652.29999"
       x2="410.89999"
       y1="77.400002"
       y2="344.39999"
       gradientTransform="matrix(-0.215,0,0,0.167,1547.6,406.3)"
       gradientUnits="userSpaceOnUse"
       xlink:href="#G2580" />
    <g
       id="cb"
       transform="translate(-1,-1)">
      <g
         id="g23">
        <path
           d="m 21,5 h 103 a 16,16 0 0 1 16,16 v 153 a 16,16 0 0 1 -16,16 H 21 A 16,16 0 0 1 5,174 V 21 A 16,16 0 0 1 21,5 Z"
           opacity="0.5"
           id="path20" />
        <path
           d="m 17,1 h 103 a 16,16 0 0 1 16,16 v 153 a 16,16 0 0 1 -16,16 H 17 A 16,16 0 0 1 1,170 V 17 A 16,16 0 0 1 17,1 Z"
           fill="#ffffff"
           id="path21" />
        <path
           d="m 19,3 h 103 a 16,16 0 0 1 16,16 v 153 a 16,16 0 0 1 -16,16 H 19 A 16,16 0 0 1 3,172 V 19 A 16,16 0 0 1 19,3 Z"
           fill="#c7891f"
           id="path22" />
        <path
           d="m 18,2 h 103 a 16,16 0 0 1 16,16 v 153 a 16,16 0 0 1 -16,16 H 18 A 16,16 0 0 1 2,171 V 18 A 16,16 0 0 1 18,2 Z"
           fill="url(#G1734)"
           id="path23" />
      </g>
      <path
         d="m 106.6,14 c -0.2,0.7 -0.1,1.4 0.2,2 0.3,0.6 0.9,1.1 1.8,1.1 0.8,0 1.5,-0.7 1.5,-1.2 0,-0.3 -0.2,-0.6 -0.5,-0.8 -1,2 -2.1,0.1 -1.8,-1 0.9,-3.7 7.7,-1 5.5,3.9 a 5,5 0 0 1 -4.5,2.9 l -71.3,0.4 v 1 l 71.6,-0.5 c 2.2,0 4.2,-1.4 5.1,-3.4 2.7,-6.2 -6.2,-9.6 -7.6,-4.4 z m 14.8,5.4 c -2.1,0.7 -3.4,2.9 -3.4,5.1 -0.3,22.9 0.1,74 0.1,74 h 1 l -0.2,-73.7 a 5,5 0 0 1 2.9,-4.5 c 2,-0.9 4.6,-0.2 5.4,1.9 0.9,2 -1,4.4 -2.8,3.5 -1,-0.9 -0.4,-1.2 0.3,-1.7 -0.2,-0.3 -0.5,-0.5 -0.8,-0.5 -0.3,0 -0.6,0.2 -0.7,0.3 -0.3,0.3 -0.5,0.7 -0.5,1.2 0,0.8 0.5,1.4 1.1,1.8 1.2,0.8 6,-0.8 4.3,-5 -1.3,-3.5 -4.8,-3.1 -6.7,-2.4 z m -100.7,70.4 0.2,74.5 c 0,1.9 -1.2,3.7 -2.9,4.5 -2,0.9 -4.6,0.2 -5.4,-1.9 -0.4,-1 -0.2,-3.1 1.5,-3.6 1.4,-0.4 3,0.5 1,1.8 0.2,0.3 0.5,0.5 0.8,0.5 0.6,0 1.2,-0.6 1.2,-1.5 0,-1.5 -1.8,-2.4 -3.1,-2 -0.9,0.2 -3.5,1.4 -2.5,5.1 0.8,2.8 4.6,3.9 7.1,2.7 1.9,-1 3.4,-2.9 3.4,-5.9 L 21.8,89.9 Z m 81.8,77.1 -71.5,0.3 c -2.5,0 -4.4,1.2 -5.3,3 -1.6,2.9 -0.6,6.5 2.5,7.7 2.6,1 6.4,-1.6 5,-4.7 a 2,2 0 0 0 -1.8,-1.1 c -0.8,0 -1.5,0.7 -1.5,1.2 0,0.3 0.2,0.6 0.5,0.8 1,-1.9 2.1,-0.3 1.8,1 -0.4,1.7 -2.5,1.9 -3.6,1.5 -2.1,-0.9 -2.8,-3.4 -1.9,-5.4 a 5,5 0 0 1 4.5,-2.9 l 71.3,-0.4 z"
         stroke="#000000"
         stroke-width="0.7"
         id="path24" />
    </g>
  </defs>
  <path
     id="silj"
     d="m 72.7,-524.3 c 6.3,3.3 13,-3.3 17.5,4.5 3,5.1 -6.1,3.8 -0.9,10.8 3.8,5.1 3.6,7 0.7,7.6 1.2,5.7 0.3,15.2 -2.3,20.4 3.2,3.9 0.8,2.6 -3.6,3.4 1.4,2.2 2.8,7.8 5.2,12.5 2.5,4.9 0.6,14.6 1.1,21.9 a 60.2,60.2 0 0 1 -35.4,2.8 c -4.7,-1 -9.5,-1.3 -9.2,-8.1 0.3,-8.4 -1.7,-20.5 7.9,-23.8 5.2,-1.8 6.1,-3.7 3,-9.5 -4.3,-7.9 -6.4,-5.2 -11.1,-7.3 4.4,-4.6 7.9,-17.9 11.8,-22.4 -7.7,-0.7 -8.1,-7.6 -2.3,-10.3 6.8,-3.1 8.3,1.3 14.5,-2 0.9,-0.5 2.3,-0.9 3.1,-0.5 z" />
  <path
     id="J"
     d="m 26.9,-415.5 v 21.6 c 0,2.5 -3.6,7.3 -8.3,7.3 -2.5,0 -4.9,-1 -7.2,-3.1 l 0.8,-0.6 c 1.5,0.5 2.8,0.8 4,0.8 5.1,0 5.9,-4.2 5.9,-6.8 v -20.6 z" />
  <g
     id="heart_1"
     transform="translate(-1390,-378)">
    <g
       id="g1605"
       transform="matrix(0.28639,0,0,0.38877,-30,367.5)"
       fill="#ff0000">
      <path
         d="m 199.1,149.4 c -17,0.4 -23.3,23.2 -23.5,24 -5,-21.1 -25,-27.2 -34.9,-21.7 -37.6,20.6 13.7,55 34.8,84.3 23.3,-32 69.9,-69 34.3,-84.3 a 24.6,24 0 0 0 -10.7,-2.4 z"
         stroke="#ff0000"
         stroke-width="1.6"
         id="path273" />
    </g>
  </g>
  <g
     id="heart_2"
     transform="translate(-1390,-378)">
    <use
       id="u1898"
       transform="translate(139)"
       xlink:href="#g1605" />
  </g>
  <g
     id="heart_3"
     transform="translate(-1390,-378)">
    <use
       id="u2346"
       transform="translate(139)"
       xlink:href="#u1898" />
    <use
       id="u2354"
       transform="rotate(180,346.5,471.4)"
       xlink:href="#u2346" />
  </g>
  <g
     id="heart_4"
     transform="translate(-1390,-378)">
    <use
       id="u2819"
       transform="translate(139)"
       xlink:href="#u2346" />
    <use
       id="u2821"
       transform="translate(139)"
       xlink:href="#u2354" />
  </g>
  <g
     id="heart_5"
     transform="translate(-1390,-378)">
    <use
       id="u3334"
       transform="translate(139)"
       xlink:href="#u2819" />
    <use
       id="u3338"
       transform="translate(139)"
       xlink:href="#u2821" />
  </g>
  <g
     id="heart_6"
     transform="translate(-1390,-378)">
    <use
       id="u3865"
       transform="translate(139)"
       xlink:href="#u3338" />
  </g>
  <g
     id="heart_jack"
     transform="translate(-1390,-378)">
    <use
       transform="matrix(1.15,0,0,1.15,1379.7,1029.3)"
       xlink:href="#silj"
       id="use319" />
    <use
       transform="translate(1390,378)"
       xlink:href="#cb"
       id="use320" />
    <use
       transform="matrix(1.15,0,0,1.15,1379.7,1028.2)"
       xlink:href="#silj"
       id="use321" />
    <path
       d="m 1443.4,460.7 c 0,13.2 8.7,23.8 19.4,23.8 10.7,0 19.4,-10.6 19.4,-23.8 0,-13.2 -8.7,-23.7 -19.4,-23.7 -10.7,0 -19.4,10.6 -19.4,23.7 z"
       fill="#cc9977"
       id="path321" />
    <path
       d="m 1466.8,485 a 14.6,14.6 0 0 1 14.6,14.7 v 17.2 a 68.2,68.2 0 0 1 -46.7,0 v -17.2 a 14.6,14.6 0 0 1 14.6,-14.6 z"
       fill="url(#G)"
       id="path322"
       style="fill:url(#G)" />
    <path
       d="m 1484.3,449.7 c -3,-5.2 -5.8,-15.2 -22,-15 -25.1,0.7 -19.1,26.8 -28.1,29.6 5.6,1.8 8.4,3.4 16.7,0.5 -0.9,-6.5 0.6,-11.3 4.5,-14.7 5,2.6 23.9,1.3 28.9,-0.4 z"
       fill="#552211"
       id="path323" />
    <g
       transform="matrix(-0.167,0,0,0.11258,1521.5,434)"
       id="g326">
      <path
         transform="translate(-4,-6)"
         d="m 353,245.9 c 0,11.8 -9.4,21.5 -21,21.5 -11.6,0 -21,-9.7 -21,-21.5 0,-11.8 9.4,-21.5 21,-21.5 11.6,0 21,9.6 21,21.5 z"
         fill="#ffffff"
         id="path324" />
      <path
         transform="matrix(0.57143,0,0,0.83721,129.3,34.5)"
         d="m 353,245.9 c 0,11.8 -9.4,21.5 -21,21.5 -11.6,0 -21,-9.7 -21,-21.5 0,-11.8 9.4,-21.5 21,-21.5 11.6,0 21,9.6 21,21.5 z"
         fill="#11cc11"
         id="path325" />
      <path
         transform="matrix(0.35714,0,0,0.67442,196,76)"
         d="m 353,245.9 c 0,11.8 -9.4,21.5 -21,21.5 -11.6,0 -21,-9.7 -21,-21.5 0,-11.8 9.4,-21.5 21,-21.5 11.6,0 21,9.6 21,21.5 z"
         id="path326" />
    </g>
    <g
       transform="matrix(-0.167,0,0,0.11258,1533.1,433.6)"
       id="g329">
      <path
         transform="translate(-4,-6)"
         d="m 353,245.9 c 0,11.8 -9.4,21.5 -21,21.5 -11.6,0 -21,-9.7 -21,-21.5 0,-11.8 9.4,-21.5 21,-21.5 11.6,0 21,9.6 21,21.5 z"
         fill="#ffffff"
         id="path327" />
      <path
         transform="matrix(0.57143,0,0,0.83721,129.3,34.5)"
         d="m 353,245.9 c 0,11.8 -9.4,21.5 -21,21.5 -11.6,0 -21,-9.7 -21,-21.5 0,-11.8 9.4,-21.5 21,-21.5 11.6,0 21,9.6 21,21.5 z"
         fill="#11cc11"
         id="path328" />
      <path
         transform="matrix(0.35714,0,0,0.67442,196,76)"
         d="m 353,245.9 c 0,11.8 -9.4,21.5 -21,21.5 -11.6,0 -21,-9.7 -21,-21.5 0,-11.8 9.4,-21.5 21,-21.5 11.6,0 21,9.6 21,21.5 z"
         id="path329" />
    </g>
    <path
       d="m 1476,476.1 c -2.1,4.2 -8,2.3 -13.5,0 6.1,0.7 10.4,1.1 13.5,0 z"
       fill="#ff5555"
       id="path330" />
    <path
       d="m 1450.6,503.3 -1.4,0.2 -1.6,16.7 4,0.5 z"
       fill="#006600"
       id="path331" />
    <path
       d="m 1473.5,462.3 c 1,1.4 2.2,3.9 2,5 -0.2,1.1 -1.9,0.9 -2.8,1.5 l -0.3,-0.5 c 0.8,-0.6 2,0 2.2,-1 0.1,-0.9 -0.8,-3.3 -1.7,-4.7 z"
       id="path332" />
    <path
       d="m 1472,471 c 4.4,0.5 7,3.9 9.3,6.3 0,0 -7.2,-4 -9.5,-3.9 0.2,-0.6 0,-1.3 0.2,-2.3 z m -1,-0.1 c -3.9,0.4 -11.3,3.4 -11.7,6.3 0,0 9.1,-4.9 11.2,-4.1 0,-0.6 0.4,-1.1 0.5,-2.2 z"
       fill="#552211"
       id="path333" />
    <path
       d="m 1473.9,487 a 136,136 0 0 1 -16.6,34 l -4.3,-0.1 a 153.3,153.3 0 0 0 17.4,-35.5 c 0,0 2.4,0.7 3.5,1.6 z"
       fill="#eeee00"
       id="path334" />
    <path
       d="m 1476.9,483 0.3,11.7 -10.7,-6.5 v 1.7 l -4.3,0.3 0.1,-2.2 -14,6.2 1.5,-13.8 12.3,6.2 0.3,-2 4.3,-0.4 v 2.3 z"
       fill="url(#G93)"
       id="path335"
       style="fill:url(#G93)" />
    <path
       d="m 1477.1,436.8 0.6,3 a 86,86 0 0 1 -30.8,1 l 0.4,-2.8 c 9.8,1 22.4,1 29.8,-1.2 z"
       fill="#eeee00"
       id="path336" />
    <path
       d="m 1463.1,438.6 c -32.8,4.4 -27,-15.4 -1.8,-8.7 24.3,-8.6 30.2,11.3 1.8,8.7 z"
       fill="url(#G87)"
       id="path337"
       style="fill:url(#G87)" />
    <path
       d="m 1458,429 a 4.3,1.9 0 1 0 8.6,0 4.3,1.9 0 1 0 -8.6,0 z"
       fill="#eeee00"
       id="path338" />
    <path
       d="m 1462.3,427 c 2,0 3.6,0.8 4,1.7 14.8,-3.2 20.2,5.1 11,8.6 l 0.4,2.4 c 3.5,3.2 5,7.2 6.6,10 -0.9,0.3 -2.5,0.5 -4.1,0.8 a 27.8,27.8 0 0 1 -1.6,24 61.2,61.2 0 0 1 2.7,2.8 c 0,0 -1.7,-0.9 -3.4,-1.8 a 18.4,18.4 0 0 1 -14.7,9 l 3.5,-0.3 v 0.9 h 0.1 c 1,0 2,0 3.1,0.3 l 7,-2.4 0.2,6.3 a 14.5,14.5 0 0 1 4.3,10.4 v 17.2 a 57.4,57.4 0 0 1 -24,4 h -4.3 l 0.1,-0.3 -1.6,-0.2 v 0.3 l -4,-0.5 c -4.8,-0.7 -9.3,-1.7 -12.9,-3.3 v -17.2 c 0,-8.1 6.5,-14.6 14.6,-14.6 l 0.5,-4.7 9.3,4.7 h 3.2 l 0.1,-0.6 h 0.3 c -9.2,0 -16.7,-7.8 -18.8,-18.2 -3.5,0.2 -6.1,-0.8 -9.7,-2 6.3,-2 5.4,-15.3 12.9,-23.4 h -0.1 l 0.3,-2.4 c -12.6,-2.7 -6.4,-12.5 11.2,-9 -0.1,-0.3 -0.5,-0.4 -0.5,-0.5 0,-1 2,-2 4.3,-2 z"
       fill="url(#G25)"
       id="path339"
       style="fill:url(#G25)" />
    <use
       transform="translate(-139)"
       xlink:href="#u3798"
       id="use339" />
    <use
       transform="translate(-139)"
       xlink:href="#u3800"
       id="use340" />
    <use
       transform="translate(1390,806)"
       fill="#ff0000"
       stroke="#ff0000"
       xlink:href="#J"
       id="use341" />
    <use
       transform="rotate(180,763,68)"
       fill="#ff0000"
       stroke="#ff0000"
       xlink:href="#J"
       id="use342" />
  </g>
  <g
     id="heart_queen"
     transform="translate(-1390,-378)">
    <use
       id="u3798"
       transform="translate(-139)"
       xlink:href="#u4930" />
    <use
       id="u3800"
       transform="translate(-139)"
       xlink:href="#u4932" />
  </g>
  <g
     id="heart_king"
     transform="translate(-1390,-378)">
    <use
       id="u4930"
       transform="translate(1112)"
       xlink:href="#u3334" />
    <use
       id="u4932"
       transform="translate(973)"
       xlink:href="#u3865" />
  </g>
</svg>
