<?xml version="1.0" encoding="UTF-8" standalone="no"?>
<svg
   width="139"
   height="189"
   version="1.1"
   id="svg543"
   xmlns:xlink="http://www.w3.org/1999/xlink"
   xmlns="http://www.w3.org/2000/svg"
   xmlns:svg="http://www.w3.org/2000/svg">
  <defs
     id="defs24">
    <linearGradient
       id="G1734"
       x1="2"
       x2="109"
       y1="62"
       y2="127.7"
       gradientUnits="userSpaceOnUse">
      <stop
         stop-color="#ebf0d0"
         offset="0"
         id="stop1" />
      <stop
         stop-color="#ffffeb"
         offset="1"
         id="stop2" />
    </linearGradient>
    <linearGradient
       id="G3196">
      <stop
         stop-color="#008200"
         offset="0"
         id="stop9" />
      <stop
         stop-color="#00d000"
         offset="1"
         id="stop10" />
    </linearGradient>
    <linearGradient
       id="G2580">
      <stop
         stop-color="#fff"
         offset="0"
         id="stop11" />
      <stop
         stop-color="#fff"
         stop-opacity="0"
         offset="1"
         id="stop12" />
    </linearGradient>
    <linearGradient
       id="G3865">
      <stop
         stop-color="#0083cc"
         offset="0"
         id="stop13" />
      <stop
         stop-color="#24a4cc"
         offset="1"
         id="stop14" />
    </linearGradient>
    <linearGradient
       id="G734"
       x1="114"
       x2="73.800003"
       y1="781.09998"
       y2="827"
       gradientUnits="userSpaceOnUse"
       xlink:href="#G2580" />
    <linearGradient
       id="G724"
       x1="55.900002"
       x2="79.199997"
       y1="821"
       y2="811.79999"
       gradientUnits="userSpaceOnUse"
       xlink:href="#G3196" />
    <linearGradient
       id="G718"
       x1="43.400002"
       x2="91.800003"
       y1="865"
       y2="865"
       gradientUnits="userSpaceOnUse"
       xlink:href="#G3865" />
    <linearGradient
       id="G714"
       x1="61.299999"
       x2="67.5"
       y1="881.59998"
       y2="879.79999"
       gradientUnits="userSpaceOnUse"
       xlink:href="#G3865" />
    <linearGradient
       id="G712"
       x1="59.5"
       x2="84.5"
       y1="889.29999"
       y2="868.40002"
       gradientUnits="userSpaceOnUse"
       xlink:href="#G3196" />
    <g
       id="cb"
       transform="translate(-1,-1)">
      <g
         id="g23">
        <path
           d="m 21,5 h 103 a 16,16 0 0 1 16,16 v 153 a 16,16 0 0 1 -16,16 H 21 A 16,16 0 0 1 5,174 V 21 A 16,16 0 0 1 21,5 Z"
           opacity="0.5"
           id="path20" />
        <path
           d="m 17,1 h 103 a 16,16 0 0 1 16,16 v 153 a 16,16 0 0 1 -16,16 H 17 A 16,16 0 0 1 1,170 V 17 A 16,16 0 0 1 17,1 Z"
           fill="#ffffff"
           id="path21" />
        <path
           d="m 19,3 h 103 a 16,16 0 0 1 16,16 v 153 a 16,16 0 0 1 -16,16 H 19 A 16,16 0 0 1 3,172 V 19 A 16,16 0 0 1 19,3 Z"
           fill="#c7891f"
           id="path22" />
        <path
           d="m 18,2 h 103 a 16,16 0 0 1 16,16 v 153 a 16,16 0 0 1 -16,16 H 18 A 16,16 0 0 1 2,171 V 18 A 16,16 0 0 1 18,2 Z"
           fill="url(#G1734)"
           id="path23" />
      </g>
      <path
         d="m 106.6,14 c -0.2,0.7 -0.1,1.4 0.2,2 0.3,0.6 0.9,1.1 1.8,1.1 0.8,0 1.5,-0.7 1.5,-1.2 0,-0.3 -0.2,-0.6 -0.5,-0.8 -1,2 -2.1,0.1 -1.8,-1 0.9,-3.7 7.7,-1 5.5,3.9 a 5,5 0 0 1 -4.5,2.9 l -71.3,0.4 v 1 l 71.6,-0.5 c 2.2,0 4.2,-1.4 5.1,-3.4 2.7,-6.2 -6.2,-9.6 -7.6,-4.4 z m 14.8,5.4 c -2.1,0.7 -3.4,2.9 -3.4,5.1 -0.3,22.9 0.1,74 0.1,74 h 1 l -0.2,-73.7 a 5,5 0 0 1 2.9,-4.5 c 2,-0.9 4.6,-0.2 5.4,1.9 0.9,2 -1,4.4 -2.8,3.5 -1,-0.9 -0.4,-1.2 0.3,-1.7 -0.2,-0.3 -0.5,-0.5 -0.8,-0.5 -0.3,0 -0.6,0.2 -0.7,0.3 -0.3,0.3 -0.5,0.7 -0.5,1.2 0,0.8 0.5,1.4 1.1,1.8 1.2,0.8 6,-0.8 4.3,-5 -1.3,-3.5 -4.8,-3.1 -6.7,-2.4 z m -100.7,70.4 0.2,74.5 c 0,1.9 -1.2,3.7 -2.9,4.5 -2,0.9 -4.6,0.2 -5.4,-1.9 -0.4,-1 -0.2,-3.1 1.5,-3.6 1.4,-0.4 3,0.5 1,1.8 0.2,0.3 0.5,0.5 0.8,0.5 0.6,0 1.2,-0.6 1.2,-1.5 0,-1.5 -1.8,-2.4 -3.1,-2 -0.9,0.2 -3.5,1.4 -2.5,5.1 0.8,2.8 4.6,3.9 7.1,2.7 1.9,-1 3.4,-2.9 3.4,-5.9 L 21.8,89.9 Z m 81.8,77.1 -71.5,0.3 c -2.5,0 -4.4,1.2 -5.3,3 -1.6,2.9 -0.6,6.5 2.5,7.7 2.6,1 6.4,-1.6 5,-4.7 a 2,2 0 0 0 -1.8,-1.1 c -0.8,0 -1.5,0.7 -1.5,1.2 0,0.3 0.2,0.6 0.5,0.8 1,-1.9 2.1,-0.3 1.8,1 -0.4,1.7 -2.5,1.9 -3.6,1.5 -2.1,-0.9 -2.8,-3.4 -1.9,-5.4 a 5,5 0 0 1 4.5,-2.9 l 71.3,-0.4 z"
         stroke="#000000"
         stroke-width="0.7"
         id="path24" />
    </g>
  </defs>
  <path
     id="tJ"
     d="M -16.4,11.9 V 20 c 0,1.4 -0.5,3.8 -3.4,3.8 -0.7,0 -1.5,-0.2 -2.3,-0.4 l -0.5,0.3 a 6,6 0 0 0 4.2,1.7 c 2.7,0 4.8,-2.7 4.8,-4.1 v -8.7 z m -1.8,15.7 c -3.1,0 -5.8,4.5 -4.7,7.7 0.2,0.5 0.5,1 0.9,1.4 1,1.1 3.5,2.9 5.1,2.9 0.6,0 1.1,-0.1 1.6,-0.3 2.6,-1.1 4.2,-4.7 3.2,-7.3 -0.2,-0.6 -0.5,-1 -0.9,-1.4 -1,-1 -2.2,-1.8 -3.6,-2.6 -0.5,-0.3 -1.1,-0.4 -1.6,-0.4 z m 1.1,1.7 c 0.5,0 1.1,0.1 1.6,0.5 0.4,0.3 0.7,0.6 1,1.1 1.7,3 -1.5,8.6 -4.8,6.6 -0.5,-0.3 -0.9,-0.7 -1.1,-1.2 -1.4,-2.6 0.8,-6.9 3.3,-7 z m -5.3,12.5 v 11 l 2.3,0.5 v -2.4 l 2.3,-2.9 3.2,4.8 2.2,0.5 -4.4,-6.5 3.6,-4.6 -2.2,-0.5 -4.7,6 v -5.3 z m 0.3,14.4 v 10.6 l 2.2,0.4 h 7.1 l -1.4,-1.5 h -5.6 v -3.4 h 5.6 l -1.4,-1.5 h -4.3 v -3.2 h 6.3 l -1.2,-1.4 z m -0.2,14.1 v 10.3 l 2.2,0.4 v -4.3 c 1.3,0.3 2.4,0.2 3.4,-0.1 0.4,0.3 0.6,0.6 0.7,0.8 0.7,1.5 -0.3,3.2 1.2,4.4 0.5,0.4 1.2,0.6 2.1,0.4 l -0.6,-0.3 c -1.1,-0.5 -0.5,-2.3 -0.5,-3.4 -0.1,-1.5 -0.9,-1.6 -2.2,-2.1 0.8,-0.5 1.3,-1.1 1.7,-1.8 0.3,-0.7 0.4,-1.3 0.1,-1.6 l -2.9,-2.8 c -0.2,-0.2 -2.5,-0.7 -5.2,0.1 z m 6.1,1.5 c 0.2,0.2 0.3,0.4 0.3,0.8 a 3,3 0 0 1 -2.3,3 6,6 0 0 1 -2,0.3 v -4.3 c 2.5,-0.5 3.9,0.1 4,0.2 z"
     stroke-width="0.7" />
  <path
     id="siljok"
     d="m -61,43.6 c -3.2,0.3 -13.3,10.1 -16.8,15 -6.5,0.3 -2.1,12 2,7 3.4,-4.1 7.8,-5.6 5.2,1.2 -2.8,10.4 -5.4,27.2 3,32.2 -3.3,-0.2 -19.6,-1.1 -11.5,2.6 4.4,2.7 18.4,1.5 8.9,6.7 -3.8,2.7 -14.4,12.3 -4.6,8.3 -0.4,5.7 -0.1,12.3 -0.2,18.4 a 55,55 0 0 0 33.9,3 c 3.5,-0.8 10.3,-1.5 10.7,-6.4 0.5,-6.4 1,-14.5 -1.6,-19.8 11.3,1.5 0.6,-3.6 -4.5,-6.1 -7.7,-2.7 5.4,-6.8 7.2,-11 5.3,-5.6 -12.6,4 -9.6,-0.7 4.6,-8.6 1,-18 0.7,-26.9 -0.2,-5.2 -4.1,-11.9 2.2,-9.4 -0.3,7.7 10.5,2.9 5.2,-1.1 -2.7,-2.1 -7.2,-10.9 -13.5,-8.7 -5.3,1.8 -4.8,6.9 -7.9,-0.3 -1.3,-3.1 -5.3,-4.5 -8.7,-4 z m -0.1,8.9 c 5.9,7.6 -8.7,-2.2 0,0 z" />
  <g
     id="joker_black"
     transform="translate(0,-756)">
    <use
       transform="translate(0,756)"
       xlink:href="#cb"
       id="use495" />
    <use
       transform="translate(37,756)"
       stroke="#000000"
       xlink:href="#tJ"
       id="use496" />
    <use
       transform="rotate(180,49.5,471)"
       stroke="#000000"
       xlink:href="#tJ"
       id="use497" />
    <use
       transform="matrix(1.15,0,0,1.15,131,742.3)"
       xlink:href="#siljok"
       id="use498" />
    <path
       d="M 61.7,864.1 A 14.6,14.6 0 0 0 47,878.7 V 896 a 69,69 0 0 0 46.8,0 V 878.8 A 14.6,14.6 0 0 0 79,864.1 Z"
       fill="url(#G712)"
       id="path498"
       style="fill:url(#G712)" />
    <path
       d="m 65.4,864 -7.3,11.4 5.2,8.6 -6.6,10.4 2.6,4.9 c 3,0.4 5.7,0.6 8.5,0.6 l 3.2,-4.9 -6,-11 5.5,-9.7 z"
       fill="url(#G714)"
       id="path499"
       style="fill:url(#G714)" />
    <path
       d="m 65.4,864 -3.7,12 2.1,8.2 -4.5,10.5 2,4.9 4.3,0.3 2,-4.6 -3.4,-11.1 2.3,-8.7 z"
       fill="#eeee00"
       id="path500" />
    <path
       d="m 57.2,858.2 -14.9,-0.3 15.4,4.7 -13.7,11.7 21.7,-10 16.3,16.2 c 0,0 -9.3,-15.2 -8.4,-14.3 0.9,1 20.7,2.3 20.7,2.3 l -12,-6.4 11.4,-10 c -0.6,0.6 -21.8,6.7 -21.8,6.7 l -14.7,-0.7 z"
       fill="url(#G718)"
       id="path501"
       style="fill:url(#G718)" />
    <path
       d="m 87.4,838.3 c 0,13 -8.7,23.7 -19.4,23.7 -10.7,0 -19.4,-10.6 -19.4,-23.7 0,-13.1 8.7,-23.8 19.4,-23.8 10.7,0 19.4,10.6 19.4,23.8 z"
       fill="#eeccaa"
       id="path502" />
    <path
       d="m 67.4,838.5 c 0,1.3 -1.6,2.4 -3.5,2.4 -1.9,0 -3.5,-1 -3.5,-2.4 0,-1.4 1.5,-2.4 3.5,-2.4 2,0 3.5,1 3.5,2.4 z"
       fill="#ffffff"
       id="path503" />
    <path
       d="m 64.4,838.5 a 2,2 0 0 1 -4,0 c 0,-1.2 0.9,-2 2,-2 1.1,0 2,1 2,2 z"
       fill="#11cc11"
       id="path504" />
    <path
       d="m 62.9,838.7 c 0,1 -0.6,1.6 -1.3,1.6 -0.7,0 -1.2,-0.7 -1.2,-1.6 0,-0.9 0.6,-1.6 1.2,-1.6 0.6,0 1.3,0.7 1.3,1.6 z"
       id="path505" />
    <path
       d="m 55.8,838.1 c 0,1.3 -1.6,2.4 -3.5,2.4 -1.9,0 -3.5,-1 -3.5,-2.4 0,-1.4 1.6,-2.4 3.5,-2.4 1.9,0 3.5,1 3.5,2.4 z"
       fill="#ffffff"
       id="path506" />
    <path
       d="m 52.8,838.1 a 2,2 0 0 1 -4,0 c 0,-1.2 0.9,-2 2,-2 1.1,0 2,1 2,2 z"
       fill="#11cc11"
       id="path507" />
    <path
       d="m 51.3,838.3 c 0,1 -0.6,1.7 -1.3,1.7 -0.7,0 -1.2,-0.8 -1.2,-1.7 0,-0.9 0.5,-1.6 1.2,-1.6 0.7,0 1.3,0.7 1.3,1.6 z"
       id="path508" />
    <path
       d="m 54.5,850.7 c 1.4,7 8.5,5 13.6,-0.7 z"
       fill="#ff5555"
       id="path509" />
    <path
       d="m 78,882.5 1.5,0.2 1.6,16.7 -4,0.2 z"
       fill="#006600"
       id="path510" />
    <path
       d="m 57.1,840.4 c -0.9,1.5 -5,2.5 -4.7,3.6 0.3,1.1 4,2 5,2.6 l 0.4,-0.5 c -0.8,-0.6 -4,-1.1 -4.2,-2 -0.2,-1 3.6,-2.2 4.5,-3.6 z"
       id="path511" />
    <path
       d="m 61.6,794.7 c -3.3,0.4 -6.5,3 -8.3,7.8 13.8,-9.6 11.2,10 11.2,10 -0.2,0 -0.6,0 -0.6,-0.2 -0.5,-1.5 -13.3,-18.1 -21.8,1.5 11.5,-8.8 11.6,-0.4 10,5.8 a 134,134 0 0 1 -1.8,8.4 c 12,-2.6 23.5,-1.2 35.4,0.9 0,0 0,-4.8 -0.2,-6.1 0.9,-7.4 -8.2,-21.5 7.5,-14.3 -17,-23 -19.3,4.9 -19.5,4 H 73.4 C 72.9,799.8 67.1,794.1 61.6,794.7 Z"
       fill="url(#G724)"
       id="path512"
       style="fill:url(#G724)" />
    <path
       d="m 54.8,803.6 a 2,2 0 0 1 -2.1,2 2,2 0 0 1 -2.1,-2 c 0,-1.1 0.9,-2 2,-2 a 2,2 0 0 1 2.2,2 z"
       fill="#eeee00"
       id="path513" />
    <path
       d="m 55.7,851.2 c 1.4,5.4 6.4,2.5 10.5,-0.6 -5.6,0.2 -6.3,0.4 -10.5,0.6 z"
       fill="#ffffff"
       id="path514" />
    <path
       d="m 43.7,814.2 a 2,2 0 0 1 -2.1,2 2,2 0 0 1 -2.1,-2 c 0,-1.1 1,-2 2,-2 a 2,2 0 0 1 2.2,2 z m 51.8,-4.4 a 2,2 0 0 1 -2.1,2 2,2 0 0 1 -2.1,-2 c 0,-1.2 0.9,-2 2,-2 a 2,2 0 0 1 2.2,2 z"
       fill="#eeee00"
       id="path515" />
    <path
       d="m 81.3,843.3 c 6.7,1.4 6,-10.2 -0.3,-6 h 0.6 c 4.4,-2.5 5.5,6.2 -1.2,6 z"
       id="path516" />
    <path
       d="m 81.8,842 c 3.9,0.9 3.5,-5.8 -0.1,-3.4 h 0.2 c 2.5,-1.4 3.3,3.6 -0.6,3.5 z"
       id="path517" />
    <path
       d="m 50.2,828.5 0.8,-2.9 c 11.9,-1.2 24.3,-1 34.5,1 a 8,8 0 0 1 0.3,2.4 125.1,125.1 0 0 0 -35.6,-0.5 z"
       fill="#eeee00"
       id="path518" />
    <path
       d="m 61.6,794.7 c -3.1,0.3 -6.1,2.8 -8,7.2 -0.3,-0.1 -0.6,-0.3 -1,-0.3 a 2,2 0 0 0 -2,2 c 0,0.4 0.2,0.7 0.4,1 -2.8,0.6 -5.7,2.8 -8.2,8 -0.4,-0.2 -0.7,-0.4 -1.2,-0.4 a 2,2 0 0 0 -2.1,2 2.1,2.1 0 0 0 2.1,2 2,2 0 0 0 2,-2 c 0,-0.4 -0.2,-0.8 -0.4,-1.1 10.3,-7.3 10.4,0.6 9,6.5 a 120.2,120.2 0 0 1 -1.9,8.4 v 0.6 a 28,28 0 0 0 -1.7,9.7 c 0,8.3 3.6,15.7 9,19.9 h -0.4 l -14.8,-0.3 15.3,4.6 -13.7,11.8 5,-2.3 a 14.3,14.3 0 0 0 -1.8,6.8 v 17 a 36,36 0 0 0 12.2,3.3 v 0.2 l 2,0.1 c 1.8,0.3 3.4,0.4 4.3,0.4 h 2.2 c 3.1,0.2 6.2,0 9.3,-0.3 v 0.1 l 4,-0.3 v -0.2 c 4.7,-0.6 9.1,-1.6 12.7,-3.2 v -17.1 c 0,-4.2 -1.8,-8 -4.6,-10.6 l 5.2,0.4 -12,-6.3 11.4,-10.1 c -0.3,0.3 -7.2,2.4 -13.5,4.3 a 26,26 0 0 0 7.1,-18.2 28,28 0 0 0 -1.7,-9.7 v -0.4 l -0.1,-5.4 c 0.8,-7.2 -7.8,-20.8 6.5,-14.6 a 2,2 0 0 0 -0.8,1.6 c 0,1 0.9,2 2,2 1.1,0 2.2,-1 2.2,-2 a 2,2 0 0 0 -2.2,-2 c -0.3,0 -0.5,0.1 -0.8,0.3 -16.4,-21.9 -18.8,5.3 -19,4.4 H 73.5 C 73,799.8 67.2,794.1 61.7,794.7 Z m -0.8,5.3 c 5.2,1.5 3.7,12.5 3.7,12.5 -0.2,0 -0.6,0 -0.6,-0.2 -0.3,-0.8 -4.5,-6.4 -9.6,-7.6 0.2,-0.3 0.4,-0.7 0.4,-1.1 A 2,2 0 0 0 54,802.1 c 3,-2 5.3,-2.5 6.8,-2 z"
       fill="url(#G734)"
       id="path519"
       style="fill:url(#G734)" />
  </g>
</svg>
