<?xml version="1.0" encoding="UTF-8" standalone="no"?>
<svg
   width="139"
   height="189"
   version="1.1"
   id="svg543"
   xmlns:xlink="http://www.w3.org/1999/xlink"
   xmlns="http://www.w3.org/2000/svg"
   xmlns:svg="http://www.w3.org/2000/svg">
  <defs
     id="defs24">
    <linearGradient
       id="G1734"
       x1="2"
       x2="109"
       y1="62"
       y2="127.7"
       gradientUnits="userSpaceOnUse">
      <stop
         stop-color="#ebf0d0"
         offset="0"
         id="stop1" />
      <stop
         stop-color="#ffffeb"
         offset="1"
         id="stop2" />
    </linearGradient>
    <linearGradient
       id="G3196">
      <stop
         stop-color="#008200"
         offset="0"
         id="stop9" />
      <stop
         stop-color="#00d000"
         offset="1"
         id="stop10" />
    </linearGradient>
    <linearGradient
       id="G2580">
      <stop
         stop-color="#fff"
         offset="0"
         id="stop11" />
      <stop
         stop-color="#fff"
         stop-opacity="0"
         offset="1"
         id="stop12" />
    </linearGradient>
    <linearGradient
       id="G214">
      <stop
         stop-color="#c10000"
         offset="0"
         id="stop19" />
      <stop
         stop-color="#ff433e"
         offset="1"
         id="stop20" />
    </linearGradient>
    <linearGradient
       id="G2396"
       x1="142.7"
       x2="95.099998"
       y1="28.200001"
       y2="67.800003"
       gradientTransform="matrix(0.8384,0,0,1.5755,127.5,741.1)"
       gradientUnits="userSpaceOnUse"
       xlink:href="#G2580" />
    <linearGradient
       id="G21"
       x1="198.5"
       x2="223.60001"
       y1="889.29999"
       y2="868.40002"
       gradientUnits="userSpaceOnUse"
       xlink:href="#G214" />
    <linearGradient
       id="G12"
       x1="182.39999"
       x2="230.8"
       y1="865"
       y2="865"
       gradientUnits="userSpaceOnUse"
       xlink:href="#G3196" />
    <linearGradient
       id="G298"
       x1="198"
       x2="205.2"
       y1="870.59998"
       y2="866.5"
       gradientUnits="userSpaceOnUse"
       xlink:href="#G214" />
    <g
       id="cb"
       transform="translate(-1,-1)">
      <g
         id="g23">
        <path
           d="m 21,5 h 103 a 16,16 0 0 1 16,16 v 153 a 16,16 0 0 1 -16,16 H 21 A 16,16 0 0 1 5,174 V 21 A 16,16 0 0 1 21,5 Z"
           opacity="0.5"
           id="path20" />
        <path
           d="m 17,1 h 103 a 16,16 0 0 1 16,16 v 153 a 16,16 0 0 1 -16,16 H 17 A 16,16 0 0 1 1,170 V 17 A 16,16 0 0 1 17,1 Z"
           fill="#ffffff"
           id="path21" />
        <path
           d="m 19,3 h 103 a 16,16 0 0 1 16,16 v 153 a 16,16 0 0 1 -16,16 H 19 A 16,16 0 0 1 3,172 V 19 A 16,16 0 0 1 19,3 Z"
           fill="#c7891f"
           id="path22" />
        <path
           d="m 18,2 h 103 a 16,16 0 0 1 16,16 v 153 a 16,16 0 0 1 -16,16 H 18 A 16,16 0 0 1 2,171 V 18 A 16,16 0 0 1 18,2 Z"
           fill="url(#G1734)"
           id="path23" />
      </g>
      <path
         d="m 106.6,14 c -0.2,0.7 -0.1,1.4 0.2,2 0.3,0.6 0.9,1.1 1.8,1.1 0.8,0 1.5,-0.7 1.5,-1.2 0,-0.3 -0.2,-0.6 -0.5,-0.8 -1,2 -2.1,0.1 -1.8,-1 0.9,-3.7 7.7,-1 5.5,3.9 a 5,5 0 0 1 -4.5,2.9 l -71.3,0.4 v 1 l 71.6,-0.5 c 2.2,0 4.2,-1.4 5.1,-3.4 2.7,-6.2 -6.2,-9.6 -7.6,-4.4 z m 14.8,5.4 c -2.1,0.7 -3.4,2.9 -3.4,5.1 -0.3,22.9 0.1,74 0.1,74 h 1 l -0.2,-73.7 a 5,5 0 0 1 2.9,-4.5 c 2,-0.9 4.6,-0.2 5.4,1.9 0.9,2 -1,4.4 -2.8,3.5 -1,-0.9 -0.4,-1.2 0.3,-1.7 -0.2,-0.3 -0.5,-0.5 -0.8,-0.5 -0.3,0 -0.6,0.2 -0.7,0.3 -0.3,0.3 -0.5,0.7 -0.5,1.2 0,0.8 0.5,1.4 1.1,1.8 1.2,0.8 6,-0.8 4.3,-5 -1.3,-3.5 -4.8,-3.1 -6.7,-2.4 z m -100.7,70.4 0.2,74.5 c 0,1.9 -1.2,3.7 -2.9,4.5 -2,0.9 -4.6,0.2 -5.4,-1.9 -0.4,-1 -0.2,-3.1 1.5,-3.6 1.4,-0.4 3,0.5 1,1.8 0.2,0.3 0.5,0.5 0.8,0.5 0.6,0 1.2,-0.6 1.2,-1.5 0,-1.5 -1.8,-2.4 -3.1,-2 -0.9,0.2 -3.5,1.4 -2.5,5.1 0.8,2.8 4.6,3.9 7.1,2.7 1.9,-1 3.4,-2.9 3.4,-5.9 L 21.8,89.9 Z m 81.8,77.1 -71.5,0.3 c -2.5,0 -4.4,1.2 -5.3,3 -1.6,2.9 -0.6,6.5 2.5,7.7 2.6,1 6.4,-1.6 5,-4.7 a 2,2 0 0 0 -1.8,-1.1 c -0.8,0 -1.5,0.7 -1.5,1.2 0,0.3 0.2,0.6 0.5,0.8 1,-1.9 2.1,-0.3 1.8,1 -0.4,1.7 -2.5,1.9 -3.6,1.5 -2.1,-0.9 -2.8,-3.4 -1.9,-5.4 a 5,5 0 0 1 4.5,-2.9 l 71.3,-0.4 z"
         stroke="#000000"
         stroke-width="0.7"
         id="path24" />
    </g>
  </defs>
  <path
     id="tJ"
     d="M -155.4,11.9 V 20 c 0,1.4 -0.5,3.8 -3.4,3.8 -0.7,0 -1.5,-0.2 -2.3,-0.4 l -0.5,0.3 a 6,6 0 0 0 4.2,1.7 c 2.7,0 4.8,-2.7 4.8,-4.1 v -8.7 z m -1.8,15.7 c -3.1,0 -5.8,4.5 -4.7,7.7 0.2,0.5 0.5,1 0.9,1.4 1,1.1 3.5,2.9 5.1,2.9 0.6,0 1.1,-0.1 1.6,-0.3 2.6,-1.1 4.2,-4.7 3.2,-7.3 -0.2,-0.6 -0.5,-1 -0.9,-1.4 -1,-1 -2.2,-1.8 -3.6,-2.6 -0.5,-0.3 -1.1,-0.4 -1.6,-0.4 z m 1.1,1.7 c 0.5,0 1.1,0.1 1.6,0.5 0.4,0.3 0.7,0.6 1,1.1 1.7,3 -1.5,8.6 -4.8,6.6 -0.5,-0.3 -0.9,-0.7 -1.1,-1.2 -1.4,-2.6 0.8,-6.9 3.3,-7 z m -5.3,12.5 v 11 l 2.3,0.5 v -2.4 l 2.3,-2.9 3.2,4.8 2.2,0.5 -4.4,-6.5 3.6,-4.6 -2.2,-0.5 -4.7,6 v -5.3 z m 0.3,14.4 v 10.6 l 2.2,0.4 h 7.1 l -1.4,-1.5 h -5.6 v -3.4 h 5.6 l -1.4,-1.5 h -4.3 v -3.2 h 6.3 l -1.2,-1.4 z m -0.2,14.1 v 10.3 l 2.2,0.4 v -4.3 c 1.3,0.3 2.4,0.2 3.4,-0.1 0.4,0.3 0.6,0.6 0.7,0.8 0.7,1.5 -0.3,3.2 1.2,4.4 0.5,0.4 1.2,0.6 2.1,0.4 l -0.6,-0.3 c -1.1,-0.5 -0.5,-2.3 -0.5,-3.4 -0.1,-1.5 -0.9,-1.6 -2.2,-2.1 0.8,-0.5 1.3,-1.1 1.7,-1.8 0.3,-0.7 0.4,-1.3 0.1,-1.6 l -2.9,-2.8 c -0.2,-0.2 -2.5,-0.7 -5.2,0.1 z m 6.1,1.5 c 0.2,0.2 0.3,0.4 0.3,0.8 a 3,3 0 0 1 -2.3,3 6,6 0 0 1 -2,0.3 v -4.3 c 2.5,-0.5 3.9,0.1 4,0.2 z"
     stroke-width="0.7" />
  <path
     id="siljok"
     d="m -200,43.6 c -3.2,0.3 -13.3,10.1 -16.8,15 -6.5,0.3 -2.1,12 2,7 3.4,-4.1 7.8,-5.6 5.2,1.2 -2.8,10.4 -5.4,27.2 3,32.2 -3.3,-0.2 -19.6,-1.1 -11.5,2.6 4.4,2.7 18.4,1.5 8.9,6.7 -3.8,2.7 -14.4,12.3 -4.6,8.3 -0.4,5.7 -0.1,12.3 -0.2,18.4 a 55,55 0 0 0 33.9,3 c 3.5,-0.8 10.3,-1.5 10.7,-6.4 0.5,-6.4 1,-14.5 -1.6,-19.8 11.3,1.5 0.6,-3.6 -4.5,-6.1 -7.7,-2.7 5.4,-6.8 7.2,-11 5.3,-5.6 -12.6,4 -9.6,-0.7 4.6,-8.6 1,-18 0.7,-26.9 -0.2,-5.2 -4.1,-11.9 2.2,-9.4 -0.3,7.7 10.5,2.9 5.2,-1.1 -2.7,-2.1 -7.2,-10.9 -13.5,-8.7 -5.3,1.8 -4.8,6.9 -7.9,-0.3 -1.3,-3.1 -5.3,-4.5 -8.7,-4 z m -0.1,8.9 c 5.9,7.6 -8.7,-2.2 0,0 z" />
  <g
     id="joker_red"
     transform="translate(-139,-756)">
    <use
       transform="translate(139,756)"
       xlink:href="#cb"
       id="use519" />
    <use
       transform="translate(315,756)"
       fill="#ff0000"
       stroke="#ff0000"
       xlink:href="#tJ"
       id="use520" />
    <use
       transform="rotate(180,49.5,471)"
       fill="#ff0000"
       stroke="#ff0000"
       xlink:href="#tJ"
       id="use521" />
    <use
       transform="matrix(1.15,0,0,1.15,429.85,742.3)"
       xlink:href="#siljok"
       id="use522" />
    <path
       d="m 200.7,864.1 a 14.6,14.6 0 0 0 -14.6,14.6 V 896 a 68.7,68.7 0 0 0 46.7,0 v -17.2 a 14.6,14.6 0 0 0 -14.7,-14.6 z"
       fill="url(#G21)"
       id="path522"
       style="fill:url(#G21)" />
    <path
       d="m 204.4,864 -7.3,11.4 5.2,8.6 -6.6,10.4 2.6,4.9 c 3,0.4 5.7,0.6 8.5,0.6 l 3.2,-4.8 -6,-11.1 5.5,-9.7 z"
       fill="#008800"
       id="path523" />
    <path
       d="m 204.4,864 -3.7,11.9 2.1,8.2 -4.5,10.5 2,4.9 4.3,0.3 2,-4.6 -3.4,-11.1 2.3,-8.7 z"
       fill="#eeee00"
       id="path524" />
    <path
       d="m 196.2,858.2 -14.9,-0.3 15.4,4.7 -13.7,11.7 21.7,-10 16.4,16.3 c 0,0 -9.4,-15.2 -8.5,-14.3 0.9,0.9 20.8,2.3 20.8,2.3 l -12,-6.3 11.4,-10.1 c -0.6,0.6 -21.8,6.7 -21.8,6.7 z"
       fill="url(#G12)"
       id="path525"
       style="fill:url(#G12)" />
    <path
       d="m 226.4,838.3 c 0,13 -8.7,23.7 -19.4,23.7 -10.7,0 -19.4,-10.6 -19.4,-23.7 0,-13.1 8.7,-23.8 19.4,-23.8 10.7,0 19.4,10.6 19.4,23.8 z"
       fill="#ee9977"
       id="path526" />
    <path
       d="m 206.4,838.5 c 0,1.3 -1.6,2.4 -3.5,2.4 -1.9,0 -3.5,-1 -3.5,-2.4 0,-1.4 1.5,-2.4 3.5,-2.4 2,0 3.5,1 3.5,2.4 z"
       fill="#ffffff"
       id="path527" />
    <path
       d="m 203.4,838.5 a 2,2 0 0 1 -4,0 c 0,-1.2 0.9,-2 2,-2 1.1,0 2,1 2,2 z"
       fill="#2233dd"
       id="path528" />
    <path
       d="m 201.9,838.7 c 0,1 -0.6,1.6 -1.3,1.6 -0.7,0 -1.2,-0.7 -1.2,-1.6 0,-0.9 0.5,-1.6 1.2,-1.6 0.7,0 1.3,0.7 1.3,1.6 z"
       id="path529" />
    <path
       d="m 194.8,838.1 c 0,1.3 -1.6,2.4 -3.5,2.4 -2,0 -3.5,-1 -3.5,-2.4 0,-1.4 1.5,-2.4 3.5,-2.4 1.9,0 3.5,1 3.5,2.4 z"
       fill="#ffffff"
       id="path530" />
    <path
       d="m 191.8,838.1 a 2,2 0 0 1 -4,0 c 0,-1.2 0.9,-2 2,-2 1.1,0 2,1 2,2 z"
       fill="#2233dd"
       id="path531" />
    <path
       d="m 190.3,838.3 c 0,1 -0.6,1.7 -1.3,1.7 -0.7,0 -1.2,-0.8 -1.2,-1.7 0,-0.9 0.5,-1.6 1.2,-1.6 0.7,0 1.3,0.7 1.3,1.6 z"
       id="path532" />
    <path
       d="m 193.5,850.7 c 1.4,7 8.5,5 13.6,-0.7 z"
       fill="#ff5555"
       id="path533" />
    <path
       d="m 217,882.5 1.5,0.2 1.6,16.7 -4,0.2 z"
       fill="#770000"
       id="path534" />
    <path
       d="m 196.2,840.4 c -1,1.5 -5,2.5 -4.8,3.6 0.2,1.1 4,2 5,2.6 l 0.4,-0.5 c -0.8,-0.6 -4,-1.1 -4.2,-2 -0.2,-1 3.6,-2.2 4.5,-3.6 z"
       id="path535" />
    <path
       d="m 200.6,794.7 c -3.3,0.4 -6.5,3 -8.3,7.8 13.7,-9.6 11.2,10 11.2,10 -0.2,0 -0.6,0 -0.6,-0.2 -0.5,-1.5 -13.3,-18.1 -21.8,1.5 11.5,-8.8 11.5,-0.4 10,5.8 a 134,134 0 0 1 -1.8,8.4 c 12,-2.6 23.5,-1.2 35.4,0.9 0,0 0,-4.8 -0.2,-6.1 0.9,-7.4 -8.2,-21.5 7.4,-14.3 -16.8,-23 -19.2,4.9 -19.4,4 h -0.1 c -0.5,-12.7 -6.3,-18.4 -11.8,-17.8 z"
       fill="url(#G298)"
       id="path536"
       style="fill:url(#G298)" />
    <path
       d="m 193.8,803.6 a 2,2 0 0 1 -2.1,2 c -1.2,0 -2.1,-1 -2.1,-2 0,-1 0.9,-2 2,-2 1.1,0 2.2,0.9 2.2,2 z"
       fill="#eeee00"
       id="path537" />
    <path
       d="m 194.7,851.2 c 1.5,5.4 6.4,2.5 10.5,-0.6 -5.5,0.2 -6.3,0.4 -10.5,0.6 z"
       fill="#ffffff"
       id="path538" />
    <path
       d="m 182.7,814.2 a 2,2 0 0 1 -2.1,2 c -1.2,0 -2.1,-0.9 -2.1,-2 0,-1.1 1,-2 2.1,-2 1.1,0 2.1,0.9 2.1,2 z m 51.8,-4.4 a 2,2 0 0 1 -2.1,2 c -1.2,0 -2.1,-1 -2.1,-2 0,-1 0.9,-2 2,-2 1.1,0 2.2,0.9 2.2,2 z"
       fill="#eeee00"
       id="path539" />
    <path
       d="m 220.3,843.3 c 6.7,1.4 6,-10.2 -0.3,-6 h 0.6 c 4.4,-2.5 5.6,6.2 -1.2,6 z"
       id="path540" />
    <path
       d="m 220.8,842 c 3.9,0.9 3.5,-5.8 -0.1,-3.4 h 0.2 c 2.5,-1.4 3.2,3.6 -0.6,3.5 z"
       id="path541" />
    <path
       d="m 189.2,828.5 0.8,-2.9 c 11.9,-1.2 24.3,-1 34.5,1 a 8,8 0 0 1 0.3,2.4 125.1,125.1 0 0 0 -35.6,-0.5 z"
       fill="#eeee00"
       id="path542" />
    <path
       d="m 200.6,794.7 c -3.1,0.3 -6.2,2.8 -8,7.2 -0.3,-0.1 -0.6,-0.3 -1,-0.3 a 2,2 0 0 0 -2,2 c 0,0.4 0.2,0.7 0.4,1 -2.8,0.6 -5.7,2.8 -8.3,8 -0.3,-0.2 -0.7,-0.4 -1.1,-0.4 a 2,2 0 0 0 -2.1,2 2.1,2.1 0 0 0 2,2 2,2 0 0 0 2.2,-2 c 0,-0.4 -0.3,-0.8 -0.5,-1.1 10.3,-7.3 10.4,0.6 9,6.5 -0.7,3.8 -1.9,8.4 -1.9,8.4 v 0.6 a 28,28 0 0 0 -1.7,9.7 c 0,8.3 3.6,15.7 9,19.9 h -0.4 l -14.9,-0.3 15.4,4.7 -13.7,11.7 4.9,-2.3 a 14.3,14.3 0 0 0 -1.9,6.8 v 17 c 3.2,1.7 7.5,2.7 12.2,3.3 l 0.1,0.2 1.9,0.1 c 1.8,0.3 3.4,0.4 4.4,0.4 h 2.2 c 3.1,0.2 6.2,0 9.3,-0.3 v 0.1 l 4,-0.2 v -0.3 c 4.6,-0.6 9,-1.6 12.7,-3.2 v -17.1 a 14.6,14.6 0 0 0 -4.6,-10.6 l 5.2,0.4 -12,-6.3 11.4,-10.1 c -0.4,0.3 -7.3,2.4 -13.5,4.3 a 26,26 0 0 0 7.1,-18.2 28,28 0 0 0 -1.7,-9.7 v -0.4 c 0,-0.9 0,-4.2 -0.2,-5.4 0.9,-7.2 -7.7,-20.8 6.6,-14.6 a 2,2 0 0 0 -0.8,1.6 c 0,1 0.9,2 2,2 1.1,0 2.2,-1 2.2,-2 a 2,2 0 0 0 -2.2,-2 c -0.3,0 -0.5,0.1 -0.8,0.3 -16.4,-21.9 -18.8,5.3 -19,4.4 h -0.1 c -0.5,-12.7 -6.3,-18.4 -11.8,-17.8 z m -0.8,5.3 c 5.1,1.5 3.7,12.5 3.7,12.5 -0.2,0 -0.6,0 -0.6,-0.2 -0.3,-0.9 -4.5,-6.4 -9.6,-7.6 0.2,-0.3 0.4,-0.7 0.4,-1.1 a 2,2 0 0 0 -0.7,-1.5 c 3,-1.9 5.3,-2.5 6.8,-2 z"
       fill="url(#G2396)"
       id="path543"
       style="fill:url(#G2396)" />
  </g>
</svg>
