<?xml version="1.0" encoding="UTF-8" standalone="no"?>
<svg
   width="139"
   height="189"
   version="1.1"
   id="svg543"
   xmlns:xlink="http://www.w3.org/1999/xlink"
   xmlns="http://www.w3.org/2000/svg"
   xmlns:svg="http://www.w3.org/2000/svg">
  <defs
     id="defs24">
    <linearGradient
       id="G1734"
       x1="2"
       x2="109"
       y1="62"
       y2="127.7"
       gradientUnits="userSpaceOnUse">
      <stop
         stop-color="#ebf0d0"
         offset="0"
         id="stop1" />
      <stop
         stop-color="#ffffeb"
         offset="1"
         id="stop2" />
    </linearGradient>
    <linearGradient
       id="G3196">
      <stop
         stop-color="#008200"
         offset="0"
         id="stop9" />
      <stop
         stop-color="#00d000"
         offset="1"
         id="stop10" />
    </linearGradient>
    <linearGradient
       id="G2580">
      <stop
         stop-color="#fff"
         offset="0"
         id="stop11" />
      <stop
         stop-color="#fff"
         stop-opacity="0"
         offset="1"
         id="stop12" />
    </linearGradient>
    <linearGradient
       id="G214">
      <stop
         stop-color="#c10000"
         offset="0"
         id="stop19" />
      <stop
         stop-color="#ff433e"
         offset="1"
         id="stop20" />
    </linearGradient>
    <linearGradient
       id="G252"
       x1="652.29999"
       x2="410.89999"
       y1="77.400002"
       y2="344.39999"
       gradientTransform="matrix(0.215,0,0,0.167,1370.1,595.4)"
       gradientUnits="userSpaceOnUse"
       xlink:href="#G2580" />
    <linearGradient
       id="G248"
       x1="1442.3"
       x2="1469.5"
       y1="626.59998"
       y2="620.59998"
       gradientUnits="userSpaceOnUse"
       xlink:href="#G214" />
    <linearGradient
       id="G244"
       x1="1443.7"
       x2="1459.9"
       y1="680.5"
       y2="674.29999"
       gradientUnits="userSpaceOnUse"
       xlink:href="#G3196" />
    <linearGradient
       id="G238"
       x1="1448.6"
       x2="1473.6"
       y1="699.29999"
       y2="678.40002"
       gradientUnits="userSpaceOnUse"
       xlink:href="#G214" />
    <g
       id="cb"
       transform="translate(-1,-1)">
      <g
         id="g23">
        <path
           d="m 21,5 h 103 a 16,16 0 0 1 16,16 v 153 a 16,16 0 0 1 -16,16 H 21 A 16,16 0 0 1 5,174 V 21 A 16,16 0 0 1 21,5 Z"
           opacity="0.5"
           id="path20" />
        <path
           d="m 17,1 h 103 a 16,16 0 0 1 16,16 v 153 a 16,16 0 0 1 -16,16 H 17 A 16,16 0 0 1 1,170 V 17 A 16,16 0 0 1 17,1 Z"
           fill="#ffffff"
           id="path21" />
        <path
           d="m 19,3 h 103 a 16,16 0 0 1 16,16 v 153 a 16,16 0 0 1 -16,16 H 19 A 16,16 0 0 1 3,172 V 19 A 16,16 0 0 1 19,3 Z"
           fill="#c7891f"
           id="path22" />
        <path
           d="m 18,2 h 103 a 16,16 0 0 1 16,16 v 153 a 16,16 0 0 1 -16,16 H 18 A 16,16 0 0 1 2,171 V 18 A 16,16 0 0 1 18,2 Z"
           fill="url(#G1734)"
           id="path23" />
      </g>
      <path
         d="m 106.6,14 c -0.2,0.7 -0.1,1.4 0.2,2 0.3,0.6 0.9,1.1 1.8,1.1 0.8,0 1.5,-0.7 1.5,-1.2 0,-0.3 -0.2,-0.6 -0.5,-0.8 -1,2 -2.1,0.1 -1.8,-1 0.9,-3.7 7.7,-1 5.5,3.9 a 5,5 0 0 1 -4.5,2.9 l -71.3,0.4 v 1 l 71.6,-0.5 c 2.2,0 4.2,-1.4 5.1,-3.4 2.7,-6.2 -6.2,-9.6 -7.6,-4.4 z m 14.8,5.4 c -2.1,0.7 -3.4,2.9 -3.4,5.1 -0.3,22.9 0.1,74 0.1,74 h 1 l -0.2,-73.7 a 5,5 0 0 1 2.9,-4.5 c 2,-0.9 4.6,-0.2 5.4,1.9 0.9,2 -1,4.4 -2.8,3.5 -1,-0.9 -0.4,-1.2 0.3,-1.7 -0.2,-0.3 -0.5,-0.5 -0.8,-0.5 -0.3,0 -0.6,0.2 -0.7,0.3 -0.3,0.3 -0.5,0.7 -0.5,1.2 0,0.8 0.5,1.4 1.1,1.8 1.2,0.8 6,-0.8 4.3,-5 -1.3,-3.5 -4.8,-3.1 -6.7,-2.4 z m -100.7,70.4 0.2,74.5 c 0,1.9 -1.2,3.7 -2.9,4.5 -2,0.9 -4.6,0.2 -5.4,-1.9 -0.4,-1 -0.2,-3.1 1.5,-3.6 1.4,-0.4 3,0.5 1,1.8 0.2,0.3 0.5,0.5 0.8,0.5 0.6,0 1.2,-0.6 1.2,-1.5 0,-1.5 -1.8,-2.4 -3.1,-2 -0.9,0.2 -3.5,1.4 -2.5,5.1 0.8,2.8 4.6,3.9 7.1,2.7 1.9,-1 3.4,-2.9 3.4,-5.9 L 21.8,89.9 Z m 81.8,77.1 -71.5,0.3 c -2.5,0 -4.4,1.2 -5.3,3 -1.6,2.9 -0.6,6.5 2.5,7.7 2.6,1 6.4,-1.6 5,-4.7 a 2,2 0 0 0 -1.8,-1.1 c -0.8,0 -1.5,0.7 -1.5,1.2 0,0.3 0.2,0.6 0.5,0.8 1,-1.9 2.1,-0.3 1.8,1 -0.4,1.7 -2.5,1.9 -3.6,1.5 -2.1,-0.9 -2.8,-3.4 -1.9,-5.4 a 5,5 0 0 1 4.5,-2.9 l 71.3,-0.4 z"
         stroke="#000000"
         stroke-width="0.7"
         id="path24" />
    </g>
  </defs>
  <path
     id="silj"
     d="m 72.7,-713.3 c 6.3,3.3 13,-3.3 17.5,4.5 3,5.1 -6.1,3.8 -0.9,10.8 3.8,5.1 3.6,7 0.7,7.6 1.2,5.7 0.3,15.2 -2.3,20.4 3.2,3.9 0.8,2.6 -3.6,3.4 1.4,2.2 2.8,7.8 5.2,12.5 2.5,4.9 0.6,14.6 1.1,21.9 a 60.2,60.2 0 0 1 -35.4,2.8 c -4.7,-1 -9.5,-1.3 -9.2,-8.1 0.3,-8.4 -1.7,-20.5 7.9,-23.8 5.2,-1.8 6.1,-3.7 3,-9.5 -4.3,-7.9 -6.4,-5.2 -11.1,-7.3 4.4,-4.6 7.9,-17.9 11.8,-22.4 -7.7,-0.7 -8.1,-7.6 -2.3,-10.3 6.8,-3.1 8.3,1.3 14.5,-2 0.9,-0.5 2.3,-0.9 3.1,-0.5 z" />
  <path
     id="J"
     d="m 26.9,-604.5 v 21.6 c 0,2.5 -3.6,7.3 -8.3,7.3 -2.5,0 -4.9,-1 -7.2,-3.1 l 0.8,-0.6 c 1.5,0.5 2.8,0.8 4,0.8 5.1,0 5.9,-4.2 5.9,-6.8 v -20.6 z" />
  <g
     id="spade_1"
     transform="translate(-1390,-567)">
    <path
       id="path395"
       d="m 20.3,614.7 c -5,7.8 -20.2,21.4 -10.5,25.2 5.7,2.2 8.6,-2 9.8,-4.5 h 0.2 l -3.9,13 9,-0.1 c 0,0 -3.9,-12.5 -3.9,-13 h 0.1 c 1,2.2 4.5,6.5 8.5,4.9 11.5,-4.7 -5.4,-17.9 -9.3,-25.5 z"
       stroke="#000000" />
  </g>
  <g
     id="spade_2"
     transform="translate(-1390,-567)">
    <use
       id="u1912"
       transform="translate(139)"
       xlink:href="#path395" />
  </g>
  <g
     id="spade_3"
     transform="translate(-1390,-567)">
    <use
       id="u2362"
       transform="translate(139)"
       xlink:href="#u1912" />
    <use
       id="u2364"
       transform="rotate(180,346.5,660.2)"
       xlink:href="#u2362" />
  </g>
  <g
     id="spade_4"
     transform="translate(-1390,-567)">
    <use
       id="u2835"
       transform="translate(139)"
       xlink:href="#u2362" />
    <use
       id="u2837"
       transform="translate(139)"
       xlink:href="#u2364" />
  </g>
  <g
     id="spade_5"
     transform="translate(-1390,-567)">
    <use
       id="u3354"
       transform="translate(139)"
       xlink:href="#u2835" />
    <use
       id="u3356"
       transform="translate(139)"
       xlink:href="#u2837" />
  </g>
  <g
     id="spade_jack"
     transform="translate(-1390,-567)">
    <use
       transform="translate(1390,567)"
       xlink:href="#cb"
       id="use432" />
    <use
       transform="matrix(-1.15,0,0,1.15,1538.1,1434.65)"
       xlink:href="#silj"
       id="use433" />
    <path
       d="m 1474.2,649.8 c 0,13.1 -8.7,23.8 -19.4,23.8 -10.7,0 -19.4,-10.7 -19.4,-23.8 0,-13.1 8.7,-23.8 19.4,-23.8 10.7,0 19.4,10.7 19.4,23.8 z"
       fill="#995533"
       id="path433" />
    <path
       d="m 1450.8,674.1 a 14.6,14.6 0 0 0 -14.6,14.7 V 706 c 10.8,5.3 34,5.6 46.7,0 v -17.2 a 14.6,14.6 0 0 0 -14.7,-14.6 z"
       fill="url(#G238)"
       id="path434"
       style="fill:url(#G238)" />
    <path
       d="m 1433.3,638.7 c 3,-5.2 5.8,-15.1 22,-15 25.1,0.7 19.1,26.9 28.1,29.7 -5.6,1.8 -8.4,3.4 -16.7,0.5 0.9,-6.6 -0.6,-11.4 -4.5,-14.7 -5,2.5 -23.9,1.3 -28.9,-0.5 z"
       id="path435" />
    <path
       d="m 1454.2,650 c 0,1.4 -1.6,2.5 -3.5,2.5 -1.9,0 -3.5,-1.1 -3.5,-2.5 0,-1.4 1.6,-2.4 3.5,-2.4 1.9,0 3.5,1.1 3.5,2.4 z"
       fill="#ffffff"
       id="path436" />
    <path
       d="m 1451.2,650.1 c 0,1.1 -0.9,2 -2,2 -1.1,0 -2,-0.9 -2,-2 0,-1.1 0.9,-2 2,-2 1.1,0 2,0.9 2,2 z"
       fill="#bb7777"
       id="path437" />
    <path
       d="m 1449.7,650.3 c 0,0.9 -0.6,1.6 -1.3,1.6 -0.7,0 -1.2,-0.7 -1.2,-1.6 0,-1 0.6,-1.7 1.3,-1.7 0.7,0 1.2,0.8 1.2,1.7 z"
       id="path438" />
    <path
       d="m 1442.6,649.6 c 0,1.4 -1.6,2.5 -3.5,2.5 -1.9,0 -3.5,-1.1 -3.5,-2.5 0,-1.4 1.6,-2.4 3.5,-2.4 1.9,0 3.5,1.1 3.5,2.4 z"
       fill="#ffffff"
       id="path439" />
    <path
       d="m 1439.6,649.7 c 0,1.1 -0.9,2 -2,2 -1.1,0 -2,-0.9 -2,-2 0,-1.1 0.9,-2 2,-2 1.1,0 2,0.9 2,2 z"
       fill="#bb7777"
       id="path440" />
    <path
       d="m 1438.1,649.9 c 0,0.9 -0.6,1.6 -1.3,1.6 -0.7,0 -1.2,-0.7 -1.2,-1.6 0,-1 0.6,-1.6 1.3,-1.6 0.7,0 1.2,0.7 1.2,1.6 z"
       id="path441" />
    <path
       d="m 1441.5,665.2 c 2.1,4.2 8,2.2 13.5,0 -6.1,0.6 -10.4,1.1 -13.5,0 z"
       fill="#ff5555"
       id="path442" />
    <path
       d="m 1467,692.4 1.4,0.1 1.6,16.7 -4,0.6 z"
       fill="#770000"
       id="path443" />
    <path
       d="m 1444.1,651.3 c -1,1.5 -2.2,4 -2,5 0.2,1 1.9,1 2.8,1.6 l 0.3,-0.6 c -0.8,-0.5 -2,0 -2.2,-0.9 -0.1,-1 0.8,-3.3 1.7,-4.7 z m 1.5,8.8 c -4.4,0.5 -7,3.8 -9.3,6.3 0,0 7.2,-4 9.4,-4 -0.1,-0.5 0.1,-1.2 -0.1,-2.3 z m 1,-0.1 c 3.9,0.4 11.3,3.4 11.7,6.2 0,0 -9.1,-4.8 -11.2,-4 0,-0.6 -0.4,-1.2 -0.5,-2.2 z"
       id="path444" />
    <path
       d="m 1443.6,676 a 136,136 0 0 0 16.6,34 h 4.3 a 153.3,153.3 0 0 1 -17.4,-35.5 c 0,0 -2.4,0.7 -3.5,1.6 z"
       fill="#eeee00"
       id="path445" />
    <path
       d="m 1440.7,672 -0.3,11.8 10.7,-6.5 v 1.6 l 4.3,0.4 -0.1,-2.2 14,6.2 -1.5,-13.9 -12.3,6.3 -0.3,-2 -4.3,-0.4 v 2.2 z"
       fill="url(#G244)"
       id="path446"
       style="fill:url(#G244)" />
    <path
       d="m 1440.4,625.9 -0.6,3 a 86,86 0 0 0 30.8,1 l -0.4,-2.9 c -9.8,1 -22.4,1 -29.8,-1.1 z"
       fill="#eeee00"
       id="path447" />
    <path
       d="m 1454.5,627.7 c 32.8,4.4 27,-15.4 1.8,-8.8 -24.3,-8.5 -30.2,11.3 -1.8,8.8 z"
       fill="url(#G248)"
       id="path448"
       style="fill:url(#G248)" />
    <path
       d="m 1459.6,618 a 4.3,1.9 0 1 1 -8.6,0 4.3,1.9 0 1 1 8.6,0 z"
       fill="#eeee00"
       id="path449" />
    <path
       d="m 1455.3,616.1 c -2,0 -3.6,0.7 -4,1.6 -14.8,-3.1 -20.2,5.2 -11,8.7 l -0.4,2.4 c -3.5,3.2 -5,7.2 -6.6,10 0.9,0.3 2.5,0.5 4.1,0.8 a 27.8,27.8 0 0 0 1.6,24 61.2,61.2 0 0 0 -2.7,2.8 c 0,0 1.7,-1 3.4,-1.8 3.5,5.3 8.8,8.8 14.7,9 l -3.5,-0.3 v 0.8 h -0.1 c -1,0 -2,0.2 -3,0.4 l -7.1,-2.5 -0.2,6.4 a 14.5,14.5 0 0 0 -4.3,10.4 V 706 a 57.4,57.4 0 0 0 24,4 h 4.3 l -0.1,-0.3 1.7,-0.2 v 0.3 l 4,-0.5 c 4.7,-0.7 9.2,-1.8 12.8,-3.3 v -17.2 c 0,-8.1 -6.5,-14.6 -14.6,-14.7 l -0.5,-4.7 -9.3,4.7 h -3.2 l -0.1,-0.5 h -0.3 c 9.2,0 16.7,-7.8 18.8,-18.2 3.5,0.1 6.1,-0.8 9.7,-2 -6.3,-2 -5.4,-15.3 -12.9,-23.4 h 0.1 l -0.3,-2.4 c 12.6,-2.8 6.4,-12.5 -11.2,-9.1 l 0.5,-0.4 c 0,-1.1 -2,-2 -4.3,-2 z"
       fill="url(#G252)"
       id="path450"
       style="fill:url(#G252)" />
    <use
       transform="translate(-139)"
       xlink:href="#u3780"
       id="use450" />
    <use
       transform="translate(-139)"
       xlink:href="#u3778"
       id="use451" />
    <use
       transform="translate(1390,1184)"
       stroke="#000000"
       xlink:href="#J"
       id="use452" />
    <use
       transform="rotate(180,763,68.1)"
       stroke="#000000"
       xlink:href="#J"
       id="use453" />
  </g>
  <g
     id="spade_queen"
     transform="translate(-1390,-567)">
    <use
       id="u3780"
       transform="translate(-139)"
       xlink:href="#u4936" />
    <use
       id="u3778"
       transform="translate(-139)"
       xlink:href="#u4934" />
  </g>
  <g
     id="spade_king"
     transform="translate(-1390,-567)">
    <use
       id="u4936"
       transform="translate(1112)"
       xlink:href="#u3356" />
    <use
       id="u4934"
       transform="translate(1112)"
       xlink:href="#u3354" />
  </g>
</svg>
