<?xml version="1.0" encoding="UTF-8" standalone="no"?>
<svg
   width="139"
   height="189"
   version="1.1"
   id="svg543"
   xmlns:xlink="http://www.w3.org/1999/xlink"
   xmlns="http://www.w3.org/2000/svg"
   xmlns:svg="http://www.w3.org/2000/svg">
  <defs
     id="defs24">
    <linearGradient
       id="G1734"
       x1="2"
       x2="109"
       y1="62"
       y2="127.7"
       gradientUnits="userSpaceOnUse">
      <stop
         stop-color="#ebf0d0"
         offset="0"
         id="stop1" />
      <stop
         stop-color="#ffffeb"
         offset="1"
         id="stop2" />
    </linearGradient>
    <linearGradient
       id="G4408">
      <stop
         stop-color="#ff44ab"
         offset="0"
         id="stop7" />
      <stop
         stop-color="#f6c"
         offset="1"
         id="stop8" />
    </linearGradient>
    <linearGradient
       id="G2580">
      <stop
         stop-color="#fff"
         offset="0"
         id="stop11" />
      <stop
         stop-color="#fff"
         stop-opacity="0"
         offset="1"
         id="stop12" />
    </linearGradient>
    <linearGradient
       id="G407">
      <stop
         stop-color="#f0eb00"
         offset="0"
         id="stop15" />
      <stop
         stop-color="#ee0"
         offset="1"
         id="stop16" />
    </linearGradient>
    <linearGradient
       id="G417">
      <stop
         stop-color="#f0a700"
         offset="0"
         id="stop17" />
      <stop
         stop-color="#ffed00"
         offset="1"
         id="stop18" />
    </linearGradient>
    <linearGradient
       id="G64"
       x1="688.29999"
       x2="361.5"
       y1="-31.9"
       y2="346.70001"
       gradientTransform="matrix(-0.215,0,0,0.167,1822.8,31.3)"
       gradientUnits="userSpaceOnUse"
       xlink:href="#G2580" />
    <linearGradient
       id="G74"
       x1="1826.2"
       x2="1858"
       y1="66.5"
       y2="58.099998"
       gradientUnits="userSpaceOnUse"
       xlink:href="#G407" />
    <linearGradient
       id="G77"
       x1="1825.5"
       x2="1857.2"
       y1="60.099998"
       y2="51.799999"
       gradientUnits="userSpaceOnUse"
       xlink:href="#G417" />
    <linearGradient
       id="G97"
       x1="299"
       x2="449.29999"
       y1="540.5"
       y2="415.5"
       gradientTransform="matrix(-0.167,0,0,0.167,1796.7,42.9)"
       gradientUnits="userSpaceOnUse"
       xlink:href="#G4408" />
    <g
       id="cb"
       transform="translate(-1,-1)">
      <g
         id="g23">
        <path
           d="m 21,5 h 103 a 16,16 0 0 1 16,16 v 153 a 16,16 0 0 1 -16,16 H 21 A 16,16 0 0 1 5,174 V 21 A 16,16 0 0 1 21,5 Z"
           opacity="0.5"
           id="path20" />
        <path
           d="m 17,1 h 103 a 16,16 0 0 1 16,16 v 153 a 16,16 0 0 1 -16,16 H 17 A 16,16 0 0 1 1,170 V 17 A 16,16 0 0 1 17,1 Z"
           fill="#ffffff"
           id="path21" />
        <path
           d="m 19,3 h 103 a 16,16 0 0 1 16,16 v 153 a 16,16 0 0 1 -16,16 H 19 A 16,16 0 0 1 3,172 V 19 A 16,16 0 0 1 19,3 Z"
           fill="#c7891f"
           id="path22" />
        <path
           d="m 18,2 h 103 a 16,16 0 0 1 16,16 v 153 a 16,16 0 0 1 -16,16 H 18 A 16,16 0 0 1 2,171 V 18 A 16,16 0 0 1 18,2 Z"
           fill="url(#G1734)"
           id="path23" />
      </g>
      <path
         d="m 106.6,14 c -0.2,0.7 -0.1,1.4 0.2,2 0.3,0.6 0.9,1.1 1.8,1.1 0.8,0 1.5,-0.7 1.5,-1.2 0,-0.3 -0.2,-0.6 -0.5,-0.8 -1,2 -2.1,0.1 -1.8,-1 0.9,-3.7 7.7,-1 5.5,3.9 a 5,5 0 0 1 -4.5,2.9 l -71.3,0.4 v 1 l 71.6,-0.5 c 2.2,0 4.2,-1.4 5.1,-3.4 2.7,-6.2 -6.2,-9.6 -7.6,-4.4 z m 14.8,5.4 c -2.1,0.7 -3.4,2.9 -3.4,5.1 -0.3,22.9 0.1,74 0.1,74 h 1 l -0.2,-73.7 a 5,5 0 0 1 2.9,-4.5 c 2,-0.9 4.6,-0.2 5.4,1.9 0.9,2 -1,4.4 -2.8,3.5 -1,-0.9 -0.4,-1.2 0.3,-1.7 -0.2,-0.3 -0.5,-0.5 -0.8,-0.5 -0.3,0 -0.6,0.2 -0.7,0.3 -0.3,0.3 -0.5,0.7 -0.5,1.2 0,0.8 0.5,1.4 1.1,1.8 1.2,0.8 6,-0.8 4.3,-5 -1.3,-3.5 -4.8,-3.1 -6.7,-2.4 z m -100.7,70.4 0.2,74.5 c 0,1.9 -1.2,3.7 -2.9,4.5 -2,0.9 -4.6,0.2 -5.4,-1.9 -0.4,-1 -0.2,-3.1 1.5,-3.6 1.4,-0.4 3,0.5 1,1.8 0.2,0.3 0.5,0.5 0.8,0.5 0.6,0 1.2,-0.6 1.2,-1.5 0,-1.5 -1.8,-2.4 -3.1,-2 -0.9,0.2 -3.5,1.4 -2.5,5.1 0.8,2.8 4.6,3.9 7.1,2.7 1.9,-1 3.4,-2.9 3.4,-5.9 L 21.8,89.9 Z m 81.8,77.1 -71.5,0.3 c -2.5,0 -4.4,1.2 -5.3,3 -1.6,2.9 -0.6,6.5 2.5,7.7 2.6,1 6.4,-1.6 5,-4.7 a 2,2 0 0 0 -1.8,-1.1 c -0.8,0 -1.5,0.7 -1.5,1.2 0,0.3 0.2,0.6 0.5,0.8 1,-1.9 2.1,-0.3 1.8,1 -0.4,1.7 -2.5,1.9 -3.6,1.5 -2.1,-0.9 -2.8,-3.4 -1.9,-5.4 a 5,5 0 0 1 4.5,-2.9 l 71.3,-0.4 z"
         stroke="#000000"
         stroke-width="0.7"
         id="path24" />
    </g>
  </defs>
  <path
     id="silk"
     d="m 71,-147.7 c 2,-1.6 3.4,-2.6 5.8,-5.1 2.8,7.8 4.9,6.2 7.9,3.6 3,-3 0.5,11.1 6.3,-1.8 1.7,0.2 0.4,12.2 -1.2,18.6 -1.5,5.8 2.4,7.5 0.7,11 -5.7,-0.4 -1.8,6 -2.8,9.8 -1.2,4.5 -0.7,9 -2.3,12.7 -9.7,4.4 8.4,7.5 4.2,11 -0.8,3.3 0.3,9.1 0.2,13.6 -0.2,6 1.5,8.9 -5.5,11.2 a 62.5,62.5 0 0 1 -38.8,-1.8 c -0.1,-7 0.1,-14.9 0.2,-21.3 -3.2,-3.9 7.9,-6.5 10.4,-10 -3.5,-4.3 -2.3,-12.7 -9.5,-13.3 -0.8,-6.3 1.4,-14 4.7,-19.8 -1.1,-7.7 -2.3,-15.3 -3.1,-23 7.2,14.8 4.3,-3 7.5,4 2.1,2.3 4.1,0.6 4.6,-0.6 2.5,-5.4 4.1,5.3 5.4,-3.7 2.6,7.9 2.9,-6.3 4.5,3.1 l 0.7,2 z" />
  <path
     id="K"
     d="m 13.7,-37 v 13.8 l 10.2,-15.5 4.7,1.3 -7.8,11.9 9.4,16.8 -4.7,-1.3 -6.8,-12.4 -4.9,7.5 v 6.2 l -5,-1.3 v -28.7 z" />
  <g
     id="club_1"
     transform="translate(-1668)">
    <path
       id="p908"
       d="m 20.1,47.7 c -2.6,0 -5.1,3.2 -5.1,7.2 0,3.5 4.7,8 4.5,10.7 -1.4,0.8 -5.8,-6.5 -8,-6.5 -2.7,0 -4.8,3.3 -4.8,7.3 0,4 2.1,7.3 4.8,7.3 2.3,0 6.4,-7.2 8.1,-6.5 0,4.5 -4.5,14.1 -4.5,14.1 h 10 c 0,0 -4.5,-9.6 -4.5,-14.1 1.7,-0.7 5.8,6.7 8,6.7 2.8,0 5,-3.3 5,-7.3 0,-4 -2.2,-7.3 -5,-7.3 -2.1,0 -6.2,7 -8,6.4 0,-2.9 4.7,-7.3 4.7,-10.7 0,-4 -2.5,-7.3 -5.2,-7.3 z"
       stroke="#000000" />
  </g>
  <g
     id="club_2"
     transform="translate(-1668)">
    <use
       id="u1874"
       transform="translate(139)"
       xlink:href="#p908" />
  </g>
  <g
     id="club_3"
     transform="translate(-1668)">
    <use
       id="u2318"
       transform="translate(139)"
       xlink:href="#u1874" />
    <use
       id="u2326"
       transform="rotate(180,346.5,93.2)"
       xlink:href="#u2318" />
  </g>
  <g
     id="club_4"
     transform="translate(-1668)">
    <use
       id="u2789"
       transform="translate(139)"
       xlink:href="#u2318" />
    <use
       id="u2791"
       transform="translate(139)"
       xlink:href="#u2326" />
  </g>
  <g
     id="club_5"
     transform="translate(-1668)">
    <use
       id="u3298"
       transform="translate(139)"
       xlink:href="#u2789" />
    <use
       id="u3300"
       transform="translate(139)"
       xlink:href="#u2791" />
  </g>
  <g
     id="club_6"
     transform="translate(-1668)">
    <use
       id="u3827"
       transform="translate(139)"
       xlink:href="#u3298" />
    <use
       id="u3829"
       transform="translate(139)"
       xlink:href="#u3300" />
  </g>
  <g
     id="club_king"
     transform="translate(-1668)">
    <use
       transform="translate(1668)"
       xlink:href="#cb"
       id="use132" />
    <use
       transform="matrix(1.15,0,0,1.15,1657.7,216)"
       xlink:href="#silk"
       id="use133" />
    <path
       d="m 1718.2,85.1 c 0,13.1 8.7,23.8 19.4,23.8 10.7,0 19.4,-10.7 19.4,-23.9 0,-13.2 -8.7,-23.8 -19.4,-23.8 -10.7,0 -19.4,10.7 -19.4,23.8 z"
       fill="#995533"
       id="path133" />
    <path
       d="m 1756.6,115.2 2.4,-1.7 -7.9,-6.3 -1.7,3.6 c 0,0 6.8,4.7 7.2,4.4 z"
       fill="#eeee00"
       id="path134" />
    <path
       d="m 1744.6,107.9 a 14.6,14.6 0 0 1 14.6,14.6 v 17.2 a 68.4,68.4 0 0 1 -46.7,0 v -17.2 a 14.6,14.6 0 0 1 14.7,-14.6 z"
       fill="url(#G97)"
       id="path135"
       style="fill:url(#G97)" />
    <path
       d="m 1760.1,74.4 c 0,0 -2,-16.5 -23.7,-16.6 -23,1 -23,30.5 -23,30.5 5.6,1.8 4,3.7 12.3,0.9 -0.9,-6.6 0.6,-11.4 4.6,-14.8 4.9,2.6 24.8,1.8 29.8,0 z"
       id="path136" />
    <g
       transform="matrix(-0.167,0,0,0.11258,1796.4,58.3)"
       id="g139">
      <path
         transform="translate(-4,-6)"
         d="m 353,245.9 c 0,11.8 -9.4,21.5 -21,21.5 -11.6,0 -21,-9.7 -21,-21.5 0,-11.8 9.4,-21.5 21,-21.5 11.6,0 21,9.6 21,21.5 z"
         fill="#ffffff"
         id="path137" />
      <path
         transform="matrix(0.57143,0,0,0.83721,129.3,34.5)"
         d="m 353,245.9 c 0,11.8 -9.4,21.5 -21,21.5 -11.6,0 -21,-9.7 -21,-21.5 0,-11.8 9.4,-21.5 21,-21.5 11.6,0 21,9.6 21,21.5 z"
         fill="#bb7777"
         id="path138" />
      <path
         transform="matrix(0.35714,0,0,0.67442,196,76)"
         d="m 353,245.9 c 0,11.8 -9.4,21.5 -21,21.5 -11.6,0 -21,-9.7 -21,-21.5 0,-11.8 9.4,-21.5 21,-21.5 11.6,0 21,9.6 21,21.5 z"
         id="path139" />
    </g>
    <g
       transform="matrix(-0.167,0,0,0.11258,1808,58)"
       id="g142">
      <path
         transform="translate(-4,-6)"
         d="m 353,245.9 c 0,11.8 -9.4,21.5 -21,21.5 -11.6,0 -21,-9.7 -21,-21.5 0,-11.8 9.4,-21.5 21,-21.5 11.6,0 21,9.6 21,21.5 z"
         fill="#ffffff"
         id="path140" />
      <path
         transform="matrix(0.57143,0,0,0.83721,129.3,34.5)"
         d="m 353,245.9 c 0,11.8 -9.4,21.5 -21,21.5 -11.6,0 -21,-9.7 -21,-21.5 0,-11.8 9.4,-21.5 21,-21.5 11.6,0 21,9.6 21,21.5 z"
         fill="#bb7777"
         id="path141" />
      <path
         transform="matrix(0.35714,0,0,0.67442,196,76)"
         d="m 353,245.9 c 0,11.8 -9.4,21.5 -21,21.5 -11.6,0 -21,-9.7 -21,-21.5 0,-11.8 9.4,-21.5 21,-21.5 11.6,0 21,9.6 21,21.5 z"
         id="path142" />
    </g>
    <path
       d="m 1750.9,100.5 c -3.4,0.1 -8.4,0.4 -13.5,0 5.4,-2 9.1,-2.6 13.5,0 z"
       fill="#ff5555"
       id="path143" />
    <path
       d="m 1728.4,126.1 -1.4,0.2 -1.6,16.7 4,0.3 z"
       fill="#aa1199"
       id="path144" />
    <path
       d="m 1749,87 c 1,1.4 2.2,3.8 2,5 -0.2,1.2 -1.9,0.8 -2.8,1.5 l -0.3,-0.6 c 0.8,-0.5 2,0 2.2,-0.9 0.1,-1 -0.8,-3.3 -1.7,-4.7 z m -2,14.4 c -1.3,2.7 0.8,2.7 1.7,3.1 a 10.7,10.7 0 0 0 2.7,-3.2 c 0.1,6.1 -2,9.5 -3.6,11.2 -1.5,1.6 -10.6,2.9 -15.6,0 -5,-2.9 -15.2,-13 -9.6,-21.3 0.8,0.5 2.2,0.4 3.2,0.2 -0.2,1.8 2.3,7.1 6.8,9 4.5,2 7.7,2.5 9,4.3 2.2,0 3.5,-0.9 2.5,-3.3 0.5,0.2 2.3,0 2.9,0 z m -1,-6.2 c 0,0 8,2.1 8.6,3.6 0.5,1.4 -1.2,3.1 -1.2,3.1 0,0 -5.4,-4.4 -7.6,-4.3 0.1,-0.6 -0.1,-1.3 0.1,-2.4 z"
       id="path145" />
    <path
       d="m 1745.3,95.3 c 0,0 -8.5,0 -9.4,1.3 -0.9,1.3 0.2,3.4 0.2,3.4 0,0 6.6,-3.3 8.7,-2.6 0,-0.6 0.4,-1 0.5,-2.2 z"
       id="path146" />
    <path
       d="m 1758.2,54.4 -3,-7.6 -5.8,8 -4.1,-10 -5.2,9.8 c 0,0 -3.6,-10.2 -3.6,-9.4 0,0.8 -3.8,10.6 -3.8,10.6 l -4.3,-9.4 -2.8,9.3 -5,-8.1 -1.4,7.2 v 5.7 c 0,0 31.6,1.5 34.5,0 2.9,-1.5 4.6,-6 4.5,-6.1 z"
       fill="url(#G77)"
       id="path147"
       style="fill:url(#G77)" />
    <path
       d="m 1757.4,67.6 a 87.7,87.7 0 0 1 -38.1,0 l -2.8,-19 5.3,7.6 3.3,-8.6 4,8.4 4.2,-9.6 3.8,9.4 4.2,-9.2 3.8,10 5.6,-8.7 4.2,9 6.4,-7.9 c 0,0 -3.6,18.2 -3.9,18.6 z"
       fill="url(#G74)"
       id="path148"
       style="fill:url(#G74)" />
    <path
       d="m 1722.4,107.4 3.4,2.7 -10.8,8 -3,-3 z"
       fill="#eeee00"
       id="path149" />
    <path
       d="m 1738.6,127 8,-9.1 h -20 z"
       fill="#ff8800"
       id="path150" />
    <path
       d="m 1741.2,120.3 3.2,4 -4.6,3 5,3.6 -3.3,3.3 -3.4,-5.7 -3.4,5.5 -3.5,-3.8 5.8,-2.8 -5.5,-3.7 3.6,-3.2 3,5.7 z"
       fill="#eeee00"
       id="path151" />
    <path
       d="m 1745.7,45.5 3,7 2.4,-3.9 1.4,3.2 3.2,-4.3 2.5,6.5 3.5,-4.2 c 0,0 -3.6,18.2 -3.9,18.6 2.2,3.5 2.7,6.7 2.7,6.7 -1,0.4 -3,0.7 -4.8,1 a 27.9,27.9 0 0 1 1.7,9.7 c 0,4.8 -1.2,9.4 -3.2,13.1 l 0.8,0.6 c 0.5,1.4 -1.2,3.2 -1.2,3.2 l -1.4,-1 -0.7,1 a 17,17 0 0 1 -1.3,7 h 0.3 l 0.8,-1.8 7.8,6.3 -2.1,1.5 a 14.3,14.3 0 0 1 2.4,7.5 v 17.2 a 62.7,62.7 0 0 1 -30,3.5 l -3.9,-0.2 a 51,51 0 0 1 -12.8,-3.3 v -17.2 c 0,-2 0.4,-4 1.2,-5.7 l -1.7,-1.6 10.3,-7.8 1.2,1 a 14.5,14.5 0 0 1 3.4,-0.5 19,19 0 0 1 -5.8,-10.5 26.6,26.6 0 0 1 -2.4,-7 c -1.4,-0.2 -2.4,-1.2 -5.3,-2 0,0 0,-12 5.9,-20.8 l -2.7,-19 3,4.4 1,-5.4 2.8,4.5 1.7,-4.4 1.8,3.7 1.5,-5 2.6,5.5 2.3,-5.5 1.5,3.7 c 0.9,-2.3 1.8,-4.5 1.8,-4.9 0,-0.5 1.4,3.5 2.5,6.4 l 2.3,-5 1.2,3.3 z"
       fill="url(#G64)"
       id="path152"
       style="fill:url(#G64)" />
    <use
       id="u4924"
       transform="translate(973)"
       xlink:href="#u3827" />
    <use
       id="u4926"
       transform="translate(973)"
       xlink:href="#u3829" />
    <use
       transform="translate(1668,50)"
       stroke="#000000"
       xlink:href="#K"
       id="use152" />
    <use
       transform="rotate(180,902,68)"
       stroke="#000000"
       xlink:href="#K"
       id="use153" />
  </g>
</svg>
