<?xml version="1.0" encoding="UTF-8" standalone="no"?>
<svg
   width="139"
   height="189"
   version="1.1"
   id="svg543"
   xmlns:xlink="http://www.w3.org/1999/xlink"
   xmlns="http://www.w3.org/2000/svg"
   xmlns:svg="http://www.w3.org/2000/svg">
  <defs
     id="defs24">
    <linearGradient
       id="G1734"
       x1="2"
       x2="109"
       y1="62"
       y2="127.7"
       gradientUnits="userSpaceOnUse">
      <stop
         stop-color="#ebf0d0"
         offset="0"
         id="stop1" />
      <stop
         stop-color="#ffffeb"
         offset="1"
         id="stop2" />
    </linearGradient>
    <linearGradient
       id="G2580">
      <stop
         stop-color="#fff"
         offset="0"
         id="stop11" />
      <stop
         stop-color="#fff"
         stop-opacity="0"
         offset="1"
         id="stop12" />
    </linearGradient>
    <linearGradient
       id="G3865">
      <stop
         stop-color="#0083cc"
         offset="0"
         id="stop13" />
      <stop
         stop-color="#24a4cc"
         offset="1"
         id="stop14" />
    </linearGradient>
    <linearGradient
       id="G407">
      <stop
         stop-color="#f0eb00"
         offset="0"
         id="stop15" />
      <stop
         stop-color="#ee0"
         offset="1"
         id="stop16" />
    </linearGradient>
    <linearGradient
       id="G417">
      <stop
         stop-color="#f0a700"
         offset="0"
         id="stop17" />
      <stop
         stop-color="#ffed00"
         offset="1"
         id="stop18" />
    </linearGradient>
    <linearGradient
       id="G777"
       x1="688.29999"
       x2="361.5"
       y1="-31.9"
       y2="346.70001"
       gradientTransform="matrix(0.215,0,0,0.167,1651.4,220.7)"
       gradientUnits="userSpaceOnUse"
       xlink:href="#G2580" />
    <linearGradient
       id="G787"
       x1="1723.8"
       x2="1755.7"
       y1="255.8"
       y2="247.39999"
       gradientUnits="userSpaceOnUse"
       xlink:href="#G407" />
    <linearGradient
       id="G790"
       x1="1723.2"
       x2="1754.9"
       y1="249.39999"
       y2="241.2"
       gradientUnits="userSpaceOnUse"
       xlink:href="#G417" />
    <linearGradient
       id="G810"
       x1="1727.4"
       x2="1752.4"
       y1="322.39999"
       y2="301.5"
       gradientUnits="userSpaceOnUse"
       xlink:href="#G3865" />
    <g
       id="cb"
       transform="translate(-1,-1)">
      <g
         id="g23">
        <path
           d="m 21,5 h 103 a 16,16 0 0 1 16,16 v 153 a 16,16 0 0 1 -16,16 H 21 A 16,16 0 0 1 5,174 V 21 A 16,16 0 0 1 21,5 Z"
           opacity="0.5"
           id="path20" />
        <path
           d="m 17,1 h 103 a 16,16 0 0 1 16,16 v 153 a 16,16 0 0 1 -16,16 H 17 A 16,16 0 0 1 1,170 V 17 A 16,16 0 0 1 17,1 Z"
           fill="#ffffff"
           id="path21" />
        <path
           d="m 19,3 h 103 a 16,16 0 0 1 16,16 v 153 a 16,16 0 0 1 -16,16 H 19 A 16,16 0 0 1 3,172 V 19 A 16,16 0 0 1 19,3 Z"
           fill="#c7891f"
           id="path22" />
        <path
           d="m 18,2 h 103 a 16,16 0 0 1 16,16 v 153 a 16,16 0 0 1 -16,16 H 18 A 16,16 0 0 1 2,171 V 18 A 16,16 0 0 1 18,2 Z"
           fill="url(#G1734)"
           id="path23" />
      </g>
      <path
         d="m 106.6,14 c -0.2,0.7 -0.1,1.4 0.2,2 0.3,0.6 0.9,1.1 1.8,1.1 0.8,0 1.5,-0.7 1.5,-1.2 0,-0.3 -0.2,-0.6 -0.5,-0.8 -1,2 -2.1,0.1 -1.8,-1 0.9,-3.7 7.7,-1 5.5,3.9 a 5,5 0 0 1 -4.5,2.9 l -71.3,0.4 v 1 l 71.6,-0.5 c 2.2,0 4.2,-1.4 5.1,-3.4 2.7,-6.2 -6.2,-9.6 -7.6,-4.4 z m 14.8,5.4 c -2.1,0.7 -3.4,2.9 -3.4,5.1 -0.3,22.9 0.1,74 0.1,74 h 1 l -0.2,-73.7 a 5,5 0 0 1 2.9,-4.5 c 2,-0.9 4.6,-0.2 5.4,1.9 0.9,2 -1,4.4 -2.8,3.5 -1,-0.9 -0.4,-1.2 0.3,-1.7 -0.2,-0.3 -0.5,-0.5 -0.8,-0.5 -0.3,0 -0.6,0.2 -0.7,0.3 -0.3,0.3 -0.5,0.7 -0.5,1.2 0,0.8 0.5,1.4 1.1,1.8 1.2,0.8 6,-0.8 4.3,-5 -1.3,-3.5 -4.8,-3.1 -6.7,-2.4 z m -100.7,70.4 0.2,74.5 c 0,1.9 -1.2,3.7 -2.9,4.5 -2,0.9 -4.6,0.2 -5.4,-1.9 -0.4,-1 -0.2,-3.1 1.5,-3.6 1.4,-0.4 3,0.5 1,1.8 0.2,0.3 0.5,0.5 0.8,0.5 0.6,0 1.2,-0.6 1.2,-1.5 0,-1.5 -1.8,-2.4 -3.1,-2 -0.9,0.2 -3.5,1.4 -2.5,5.1 0.8,2.8 4.6,3.9 7.1,2.7 1.9,-1 3.4,-2.9 3.4,-5.9 L 21.8,89.9 Z m 81.8,77.1 -71.5,0.3 c -2.5,0 -4.4,1.2 -5.3,3 -1.6,2.9 -0.6,6.5 2.5,7.7 2.6,1 6.4,-1.6 5,-4.7 a 2,2 0 0 0 -1.8,-1.1 c -0.8,0 -1.5,0.7 -1.5,1.2 0,0.3 0.2,0.6 0.5,0.8 1,-1.9 2.1,-0.3 1.8,1 -0.4,1.7 -2.5,1.9 -3.6,1.5 -2.1,-0.9 -2.8,-3.4 -1.9,-5.4 a 5,5 0 0 1 4.5,-2.9 l 71.3,-0.4 z"
         stroke="#000000"
         stroke-width="0.7"
         id="path24" />
    </g>
  </defs>
  <path
     id="silk"
     d="m 71,-336.7 c 2,-1.6 3.4,-2.6 5.8,-5.1 2.8,7.8 4.9,6.2 7.9,3.6 3,-3 0.5,11.1 6.3,-1.8 1.7,0.2 0.4,12.2 -1.2,18.6 -1.5,5.8 2.4,7.5 0.7,11 -5.7,-0.4 -1.8,6 -2.8,9.8 -1.2,4.5 -0.7,9 -2.3,12.7 -9.7,4.4 8.4,7.5 4.2,11 -0.8,3.3 0.3,9.1 0.2,13.6 -0.2,6 1.5,8.9 -5.5,11.2 a 62.5,62.5 0 0 1 -38.8,-1.8 c -0.1,-7 0.1,-14.9 0.2,-21.3 -3.2,-3.9 7.9,-6.5 10.4,-10 -3.5,-4.3 -2.3,-12.7 -9.5,-13.3 -0.8,-6.3 1.4,-14 4.7,-19.8 -1.1,-7.7 -2.3,-15.3 -3.1,-23 7.2,14.8 4.3,-3 7.5,4 2.1,2.3 4.1,0.6 4.6,-0.6 2.5,-5.4 4.1,5.3 5.4,-3.7 2.6,7.9 2.9,-6.3 4.5,3.1 l 0.7,2 z" />
  <path
     id="K"
     d="m 13.7,-226 v 13.8 l 10.2,-15.5 4.7,1.3 -7.8,11.9 9.4,16.8 -4.7,-1.3 -6.8,-12.4 -4.9,7.5 v 6.2 l -5,-1.3 v -28.7 z" />
  <g
     id="diamond_1"
     transform="translate(-1668,-189)">
    <path
       id="p1608"
       d="m 20,236.7 c -2.8,6.7 -7.5,12.5 -13.4,16.8 5.9,4 10,9.3 13.5,16.8 2.6,-6.8 7.3,-12.7 13.4,-16.8 -6.6,-3.3 -10.4,-8.7 -13.5,-16.8 z"
       fill="#ff0000"
       stroke="#ff0000"
       stroke-width="1.3" />
  </g>
  <g
     id="diamond_2"
     transform="translate(-1668,-189)">
    <use
       id="u1886"
       transform="translate(139)"
       xlink:href="#p1608" />
  </g>
  <g
     id="diamond_3"
     transform="translate(-1668,-189)">
    <use
       id="u2332"
       transform="translate(139)"
       xlink:href="#u1886" />
  </g>
  <g
     id="diamond_4"
     transform="translate(-1668,-189)">
    <use
       id="u2803"
       transform="translate(139)"
       xlink:href="#u2332" />
  </g>
  <g
     id="diamond_5"
     transform="translate(-1668,-189)">
    <use
       id="u3316"
       transform="translate(139)"
       xlink:href="#u2803" />
  </g>
  <g
     id="diamond_6"
     transform="translate(-1668,-189)">
    <use
       id="u3843"
       transform="translate(139)"
       xlink:href="#u3316" />
  </g>
  <g
     id="diamond_king"
     transform="translate(-1668,-189)">
    <use
       transform="translate(1668,189)"
       xlink:href="#cb"
       id="use249" />
    <use
       transform="matrix(-1.15,0,0,1.15,1816.2,622.35)"
       xlink:href="#silk"
       id="use250" />
    <path
       d="M 1729.6,297.2 A 14.6,14.6 0 0 0 1715,312 v 17 c 10.7,5.4 34,5.7 46.7,0 V 312 A 14.6,14.6 0 0 0 1747,297.3 Z"
       fill="url(#G810)"
       id="path250"
       style="fill:url(#G810)" />
    <path
       d="m 1755.9,274.4 c 0,13.2 -8.7,23.8 -19.4,23.8 -10.7,0 -19.4,-10.6 -19.4,-23.8 0,-13.2 8.7,-23.7 19.4,-23.7 10.7,0 19.4,10.6 19.4,23.7 z"
       fill="#ffddcc"
       id="path251" />
    <path
       d="m 1717.5,304.5 -2.4,-1.6 7.9,-6.4 1.7,3.7 c 0,0 -6.8,4.6 -7.2,4.3 z"
       fill="#eeee00"
       id="path252" />
    <path
       d="m 1728.5,234.8 -3,7.1 -2.4,-3.9 -1.4,3.1 -3.2,-4.3 -2.5,6.6 -3.5,-4.3 c 0,0 3.6,18.2 3.9,18.6 -2.2,3.6 -2.7,6.8 -2.7,6.8 1,0.3 3,0.6 4.8,0.9 a 28,28 0 0 0 -1.7,9.7 27.6,27.6 0 0 0 3.2,13.2 l -0.8,0.5 c -0.5,1.5 1.2,3.2 1.2,3.2 l 1.4,-1 0.7,1 c 0,3 0.6,5.3 1.3,7 h -0.3 l -0.8,-1.8 -7.8,6.4 2.1,1.5 a 14.3,14.3 0 0 0 -2.4,7.5 v 17.1 a 62.8,62.8 0 0 0 30,3.6 l 3.9,-0.3 c 4.7,-0.7 9.2,-1.7 12.9,-3.3 v -17.1 c 0,-2 -0.5,-4 -1.2,-5.8 l 1.6,-1.6 -10.3,-7.7 -1.2,1 a 14.8,14.8 0 0 0 -3.4,-0.5 c 2.8,-3 5.4,-6.6 5.8,-10.5 a 26.6,26.6 0 0 0 2.4,-7 c 1.4,-0.3 2.4,-1.2 5.3,-2.1 0,0 0,-11.8 -5.9,-20.8 l 2.7,-18.9 -3,4.3 -1,-5.3 -2.8,4.5 -1.7,-4.5 -1.8,3.7 -1.5,-5 -2.6,5.5 -2.3,-5.4 -1.5,3.7 c -0.9,-2.4 -1.8,-4.6 -1.8,-5 0,-0.5 -1.4,3.5 -2.4,6.5 l -2.3,-5 -1.3,3.3 z"
       fill="url(#G777)"
       id="path253"
       style="fill:url(#G777)" />
    <path
       d="m 1714,263.7 c 0,0 2,-16.5 23.7,-16.5 23,1 23,30.4 23,30.4 -5.6,1.8 -4,3.8 -12.3,1 0.9,-6.7 -0.6,-11.4 -4.6,-14.8 -4.9,2.5 -24.8,1.7 -29.8,0 z"
       fill="#ffcc22"
       id="path254" />
    <path
       d="m 1735.9,274.7 c 0,1.3 -1.6,2.4 -3.5,2.4 -1.9,0 -3.5,-1.1 -3.5,-2.4 0,-1.3 1.6,-2.4 3.5,-2.4 1.9,0 3.5,1 3.5,2.4 z"
       fill="#ffffff"
       id="path255" />
    <path
       d="m 1732.9,274.7 c 0,1.2 -0.9,2 -2,2 -1.1,0 -2,-0.8 -2,-2 0,-1.2 0.9,-2 2,-2 1.1,0 2,1 2,2 z"
       fill="#1199cc"
       id="path256" />
    <path
       d="m 1731.4,274.9 c 0,0.9 -0.6,1.6 -1.3,1.6 -0.7,0 -1.2,-0.7 -1.2,-1.6 0,-0.9 0.6,-1.6 1.3,-1.6 0.7,0 1.2,0.7 1.2,1.6 z"
       id="path257" />
    <path
       d="m 1724.3,274.3 c 0,1.3 -1.6,2.4 -3.5,2.4 -1.9,0 -3.5,-1.1 -3.5,-2.4 0,-1.3 1.6,-2.5 3.5,-2.5 1.9,0 3.5,1.1 3.5,2.5 z"
       fill="#ffffff"
       id="path258" />
    <path
       d="m 1721.3,274.3 c 0,1.1 -0.9,2 -2,2 -1.1,0 -2,-0.9 -2,-2 0,-1.1 0.9,-2 2,-2 1.1,0 2,0.9 2,2 z"
       fill="#1199cc"
       id="path259" />
    <path
       d="m 1719.8,274.5 c 0,0.9 -0.6,1.6 -1.3,1.6 -0.7,0 -1.2,-0.7 -1.2,-1.6 0,-0.9 0.6,-1.6 1.3,-1.6 0.7,0 1.2,0.7 1.2,1.6 z"
       id="path260" />
    <path
       d="m 1723.2,289.8 c 3.4,0.2 8.4,0.4 13.5,0 -5.4,-2 -9.1,-2.6 -13.5,0 z"
       fill="#ff5555"
       id="path261" />
    <path
       d="m 1745.8,315.5 1.4,0.1 1.6,16.7 -4,0.3 z"
       fill="#1155aa"
       id="path262" />
    <path
       d="m 1725.1,276.3 c -1,1.4 -2.2,3.9 -2,5 0.2,1.1 1.9,0.9 2.8,1.5 l 0.3,-0.5 c -0.8,-0.6 -2,0 -2.2,-1 -0.1,-0.9 0.8,-3.3 1.7,-4.7 z"
       id="path263" />
    <path
       d="m 1727.1,290.8 c 1.3,2.6 -0.8,2.6 -1.7,3 a 10.7,10.7 0 0 1 -2.7,-3.1 c -0.1,6 2,9.4 3.6,11.1 1.5,1.7 10.6,3 15.6,0 5,-3 15.2,-13 9.6,-21.3 -0.8,0.5 -2.2,0.4 -3.2,0.2 0.2,1.9 -2.3,7.2 -6.8,9.1 -4.5,1.9 -7.7,2.5 -9,4.2 -2.2,0.1 -3.5,-0.8 -2.5,-3.2 -0.5,0.2 -2.3,0 -2.9,0 z m 1,-6.2 c 0,0 -8.1,2 -8.6,3.5 -0.5,1.5 1.2,3.2 1.2,3.2 0,0 5.4,-4.5 7.6,-4.4 -0.1,-0.6 0.1,-1.3 -0.1,-2.3 z"
       fill="#ffcc22"
       id="path264" />
    <path
       d="m 1728.8,284.6 c 0,0 8.5,0.1 9.4,1.4 0.9,1.3 -0.2,3.3 -0.2,3.3 0,0 -6.6,-3.3 -8.7,-2.5 0,-0.6 -0.4,-1.1 -0.5,-2.2 z"
       fill="#ffcc22"
       id="path265" />
    <path
       d="m 1715.9,243.7 3,-7.6 5.8,8 4.1,-10 5.2,9.8 c 0,0 3.6,-10.1 3.6,-9.4 0,0.7 3.8,10.6 3.8,10.6 l 4.3,-9.4 2.8,9.3 5,-8 1.4,7.1 v 5.8 c 0,0 -31.6,1.4 -34.5,0 -2.9,-1.4 -4.6,-6 -4.5,-6.2 z"
       fill="url(#G790)"
       id="path266"
       style="fill:url(#G790)" />
    <path
       d="m 1716.7,257 a 87.7,87.7 0 0 0 38.1,0 l 2.8,-19 -5.3,7.5 -3.3,-8.5 -4,8.3 -4.2,-9.5 -3.8,9.4 -4.2,-9.3 -3.8,10.1 -5.6,-8.7 -4.2,9 -6.4,-8 c 0,0 3.6,18.3 3.9,18.7 z"
       fill="url(#G787)"
       id="path267"
       style="fill:url(#G787)" />
    <path
       d="m 1751.8,296.7 -3.4,2.8 10.8,7.9 3,-2.9 z"
       fill="#eeee00"
       id="path268" />
    <path
       d="m 1735.5,316.4 -8,-9.2 h 20 z"
       fill="#ff8800"
       id="path269" />
    <path
       d="m 1732.9,309.6 -3.2,4 4.6,3.1 -5,3.5 3.3,3.3 3.4,-5.7 3.4,5.6 3.5,-3.8 -5.8,-2.9 5.5,-3.7 -3.6,-3.2 -3,5.8 z"
       fill="#eeee00"
       id="path270" />
    <use
       id="u4928"
       transform="translate(973)"
       xlink:href="#u3843" />
    <use
       transform="translate(96.8,57.6)"
       xlink:href="#u4928"
       id="use270" />
    <use
       transform="translate(1668,428)"
       fill="#ff0000"
       stroke="#ff0000"
       xlink:href="#K"
       id="use271" />
    <use
       transform="rotate(180,902,68.1)"
       fill="#ff0000"
       stroke="#ff0000"
       xlink:href="#K"
       id="use272" />
  </g>
</svg>
