<?xml version="1.0" encoding="UTF-8" standalone="no"?>
<svg
   width="139"
   height="189"
   version="1.1"
   id="svg543"
   xmlns:xlink="http://www.w3.org/1999/xlink"
   xmlns="http://www.w3.org/2000/svg"
   xmlns:svg="http://www.w3.org/2000/svg">
  <defs
     id="defs24">
    <linearGradient
       id="G1734"
       x1="2"
       x2="109"
       y1="62"
       y2="127.7"
       gradientUnits="userSpaceOnUse">
      <stop
         stop-color="#ebf0d0"
         offset="0"
         id="stop1" />
      <stop
         stop-color="#ffffeb"
         offset="1"
         id="stop2" />
    </linearGradient>
    <linearGradient
       id="G3196">
      <stop
         stop-color="#008200"
         offset="0"
         id="stop9" />
      <stop
         stop-color="#00d000"
         offset="1"
         id="stop10" />
    </linearGradient>
    <linearGradient
       id="G2580">
      <stop
         stop-color="#fff"
         offset="0"
         id="stop11" />
      <stop
         stop-color="#fff"
         stop-opacity="0"
         offset="1"
         id="stop12" />
    </linearGradient>
    <linearGradient
       id="G407">
      <stop
         stop-color="#f0eb00"
         offset="0"
         id="stop15" />
      <stop
         stop-color="#ee0"
         offset="1"
         id="stop16" />
    </linearGradient>
    <linearGradient
       id="G417">
      <stop
         stop-color="#f0a700"
         offset="0"
         id="stop17" />
      <stop
         stop-color="#ffed00"
         offset="1"
         id="stop18" />
    </linearGradient>
    <linearGradient
       id="G925"
       x1="688.29999"
       x2="361.5"
       y1="-31.9"
       y2="346.70001"
       gradientTransform="matrix(-0.215,0,0,0.167,1822.7,409)"
       gradientUnits="userSpaceOnUse"
       xlink:href="#G2580" />
    <linearGradient
       id="G935"
       x1="1826.1"
       x2="1858"
       y1="444.20001"
       y2="435.70001"
       gradientUnits="userSpaceOnUse"
       xlink:href="#G407" />
    <linearGradient
       id="G938"
       x1="1825.5"
       x2="1857.2"
       y1="437.70001"
       y2="429.5"
       gradientUnits="userSpaceOnUse"
       xlink:href="#G417" />
    <linearGradient
       id="G958"
       x1="299"
       x2="449.29999"
       y1="540.5"
       y2="415.5"
       gradientTransform="matrix(-0.167,0,0,0.167,1796.7,420.6)"
       gradientUnits="userSpaceOnUse"
       xlink:href="#G3196" />
    <g
       id="cb"
       transform="translate(-1,-1)">
      <g
         id="g23">
        <path
           d="m 21,5 h 103 a 16,16 0 0 1 16,16 v 153 a 16,16 0 0 1 -16,16 H 21 A 16,16 0 0 1 5,174 V 21 A 16,16 0 0 1 21,5 Z"
           opacity="0.5"
           id="path20" />
        <path
           d="m 17,1 h 103 a 16,16 0 0 1 16,16 v 153 a 16,16 0 0 1 -16,16 H 17 A 16,16 0 0 1 1,170 V 17 A 16,16 0 0 1 17,1 Z"
           fill="#ffffff"
           id="path21" />
        <path
           d="m 19,3 h 103 a 16,16 0 0 1 16,16 v 153 a 16,16 0 0 1 -16,16 H 19 A 16,16 0 0 1 3,172 V 19 A 16,16 0 0 1 19,3 Z"
           fill="#c7891f"
           id="path22" />
        <path
           d="m 18,2 h 103 a 16,16 0 0 1 16,16 v 153 a 16,16 0 0 1 -16,16 H 18 A 16,16 0 0 1 2,171 V 18 A 16,16 0 0 1 18,2 Z"
           fill="url(#G1734)"
           id="path23" />
      </g>
      <path
         d="m 106.6,14 c -0.2,0.7 -0.1,1.4 0.2,2 0.3,0.6 0.9,1.1 1.8,1.1 0.8,0 1.5,-0.7 1.5,-1.2 0,-0.3 -0.2,-0.6 -0.5,-0.8 -1,2 -2.1,0.1 -1.8,-1 0.9,-3.7 7.7,-1 5.5,3.9 a 5,5 0 0 1 -4.5,2.9 l -71.3,0.4 v 1 l 71.6,-0.5 c 2.2,0 4.2,-1.4 5.1,-3.4 2.7,-6.2 -6.2,-9.6 -7.6,-4.4 z m 14.8,5.4 c -2.1,0.7 -3.4,2.9 -3.4,5.1 -0.3,22.9 0.1,74 0.1,74 h 1 l -0.2,-73.7 a 5,5 0 0 1 2.9,-4.5 c 2,-0.9 4.6,-0.2 5.4,1.9 0.9,2 -1,4.4 -2.8,3.5 -1,-0.9 -0.4,-1.2 0.3,-1.7 -0.2,-0.3 -0.5,-0.5 -0.8,-0.5 -0.3,0 -0.6,0.2 -0.7,0.3 -0.3,0.3 -0.5,0.7 -0.5,1.2 0,0.8 0.5,1.4 1.1,1.8 1.2,0.8 6,-0.8 4.3,-5 -1.3,-3.5 -4.8,-3.1 -6.7,-2.4 z m -100.7,70.4 0.2,74.5 c 0,1.9 -1.2,3.7 -2.9,4.5 -2,0.9 -4.6,0.2 -5.4,-1.9 -0.4,-1 -0.2,-3.1 1.5,-3.6 1.4,-0.4 3,0.5 1,1.8 0.2,0.3 0.5,0.5 0.8,0.5 0.6,0 1.2,-0.6 1.2,-1.5 0,-1.5 -1.8,-2.4 -3.1,-2 -0.9,0.2 -3.5,1.4 -2.5,5.1 0.8,2.8 4.6,3.9 7.1,2.7 1.9,-1 3.4,-2.9 3.4,-5.9 L 21.8,89.9 Z m 81.8,77.1 -71.5,0.3 c -2.5,0 -4.4,1.2 -5.3,3 -1.6,2.9 -0.6,6.5 2.5,7.7 2.6,1 6.4,-1.6 5,-4.7 a 2,2 0 0 0 -1.8,-1.1 c -0.8,0 -1.5,0.7 -1.5,1.2 0,0.3 0.2,0.6 0.5,0.8 1,-1.9 2.1,-0.3 1.8,1 -0.4,1.7 -2.5,1.9 -3.6,1.5 -2.1,-0.9 -2.8,-3.4 -1.9,-5.4 a 5,5 0 0 1 4.5,-2.9 l 71.3,-0.4 z"
         stroke="#000000"
         stroke-width="0.7"
         id="path24" />
    </g>
  </defs>
  <path
     id="silk"
     d="m 71,-525.7 c 2,-1.6 3.4,-2.6 5.8,-5.1 2.8,7.8 4.9,6.2 7.9,3.6 3,-3 0.5,11.1 6.3,-1.8 1.7,0.2 0.4,12.2 -1.2,18.6 -1.5,5.8 2.4,7.5 0.7,11 -5.7,-0.4 -1.8,6 -2.8,9.8 -1.2,4.5 -0.7,9 -2.3,12.7 -9.7,4.4 8.4,7.5 4.2,11 -0.8,3.3 0.3,9.1 0.2,13.6 -0.2,6 1.5,8.9 -5.5,11.2 a 62.5,62.5 0 0 1 -38.8,-1.8 c -0.1,-7 0.1,-14.9 0.2,-21.3 -3.2,-3.9 7.9,-6.5 10.4,-10 -3.5,-4.3 -2.3,-12.7 -9.5,-13.3 -0.8,-6.3 1.4,-14 4.7,-19.8 -1.1,-7.7 -2.3,-15.3 -3.1,-23 7.2,14.8 4.3,-3 7.5,4 2.1,2.3 4.1,0.6 4.6,-0.6 2.5,-5.4 4.1,5.3 5.4,-3.7 2.6,7.9 2.9,-6.3 4.5,3.1 l 0.7,2 z" />
  <path
     id="K"
     d="m 13.7,-415 v 13.8 l 10.2,-15.5 4.7,1.3 -7.8,11.9 9.4,16.8 -4.7,-1.3 -6.8,-12.4 -4.9,7.5 v 6.2 l -5,-1.3 v -28.7 z" />
  <g
     id="heart_1"
     transform="translate(-1668,-378)">
    <g
       id="g1605"
       transform="matrix(0.28639,0,0,0.38877,-30,367.5)"
       fill="#ff0000">
      <path
         d="m 199.1,149.4 c -17,0.4 -23.3,23.2 -23.5,24 -5,-21.1 -25,-27.2 -34.9,-21.7 -37.6,20.6 13.7,55 34.8,84.3 23.3,-32 69.9,-69 34.3,-84.3 a 24.6,24 0 0 0 -10.7,-2.4 z"
         stroke="#ff0000"
         stroke-width="1.6"
         id="path273" />
    </g>
  </g>
  <g
     id="heart_2"
     transform="translate(-1668,-378)">
    <use
       id="u1898"
       transform="translate(139)"
       xlink:href="#g1605" />
  </g>
  <g
     id="heart_3"
     transform="translate(-1668,-378)">
    <use
       id="u2346"
       transform="translate(139)"
       xlink:href="#u1898" />
    <use
       id="u2354"
       transform="rotate(180,346.5,471.4)"
       xlink:href="#u2346" />
  </g>
  <g
     id="heart_4"
     transform="translate(-1668,-378)">
    <use
       id="u2819"
       transform="translate(139)"
       xlink:href="#u2346" />
    <use
       id="u2821"
       transform="translate(139)"
       xlink:href="#u2354" />
  </g>
  <g
     id="heart_5"
     transform="translate(-1668,-378)">
    <use
       id="u3334"
       transform="translate(139)"
       xlink:href="#u2819" />
    <use
       id="u3338"
       transform="translate(139)"
       xlink:href="#u2821" />
  </g>
  <g
     id="heart_6"
     transform="translate(-1668,-378)">
    <use
       id="u3865"
       transform="translate(139)"
       xlink:href="#u3338" />
  </g>
  <g
     id="heart_king"
     transform="translate(-1668,-378)">
    <use
       transform="translate(1668,378)"
       xlink:href="#cb"
       id="use362" />
    <use
       transform="matrix(1.15,0,0,1.15,1657.7,1028.6)"
       xlink:href="#silk"
       id="use363" />
    <path
       d="m 1718.2,462.8 c 0,13.1 8.7,23.7 19.4,23.7 10.7,0 19.4,-10.6 19.4,-23.7 0,-13.1 -8.7,-23.8 -19.4,-23.8 -10.7,0 -19.4,10.7 -19.4,23.8 z"
       fill="#eeccaa"
       id="path363" />
    <path
       d="m 1756.6,492.8 2.4,-1.6 -7.9,-6.4 -1.7,3.7 c 0,0 6.8,4.6 7.2,4.3 z"
       fill="#eeee00"
       id="path364" />
    <path
       d="m 1744.6,485.6 a 14.6,14.6 0 0 1 14.6,14.6 v 17.2 a 68.3,68.3 0 0 1 -46.7,0 v -17.2 a 14.6,14.6 0 0 1 14.7,-14.6 z"
       fill="url(#G958)"
       id="path365"
       style="fill:url(#G958)" />
    <path
       d="m 1760.1,452 c 0,0 -2,-16.5 -23.7,-16.5 -23,1 -23,30.5 -23,30.5 5.6,1.8 4,3.7 12.3,0.8 -0.9,-6.5 0.6,-11.3 4.6,-14.7 4.9,2.6 24.8,1.7 29.8,0 z"
       fill="#881111"
       id="path366" />
    <path
       d="m 1738.2,463 c 0,1.3 1.6,2.4 3.5,2.4 1.9,0 3.5,-1 3.5,-2.4 0,-1.4 -1.6,-2.4 -3.5,-2.4 -1.9,0 -3.5,1 -3.5,2.4 z"
       fill="#ffffff"
       id="path367" />
    <path
       d="m 1741.2,463 c 0,1.2 0.9,2 2,2 1.1,0 2,-0.8 2,-2 0,-1.2 -0.9,-2 -2,-2 -1.1,0 -2,1 -2,2 z"
       fill="#2233dd"
       id="path368" />
    <path
       d="m 1742.7,463.2 c 0,1 0.6,1.7 1.3,1.7 0.7,0 1.2,-0.8 1.2,-1.7 0,-0.9 -0.6,-1.6 -1.3,-1.6 -0.7,0 -1.2,0.7 -1.2,1.6 z"
       id="path369" />
    <path
       d="m 1749.8,462.6 c 0,1.3 1.6,2.4 3.5,2.4 1.9,0 3.5,-1 3.5,-2.4 0,-1.4 -1.6,-2.4 -3.5,-2.4 -1.9,0 -3.5,1 -3.5,2.4 z"
       fill="#ffffff"
       id="path370" />
    <path
       d="m 1752.8,462.7 c 0,1 0.9,2 2,2 1.1,0 2,-1 2,-2 0,-1 -0.9,-2 -2,-2 -1.1,0 -2,0.8 -2,2 z"
       fill="#2233dd"
       id="path371" />
    <path
       d="m 1754.3,462.8 c 0,1 0.6,1.7 1.3,1.7 0.7,0 1.2,-0.8 1.2,-1.7 0,-0.9 -0.6,-1.6 -1.3,-1.6 -0.7,0 -1.2,0.7 -1.2,1.6 z"
       id="path372" />
    <path
       d="m 1750.9,478.2 c -3.4,0.1 -8.4,0.4 -13.5,0 5.4,-2 9.1,-2.6 13.5,0 z"
       fill="#ff5555"
       id="path373" />
    <path
       d="m 1728.4,503.8 -1.4,0.2 -1.6,16.6 4,0.3 z"
       fill="#006600"
       id="path374" />
    <path
       d="m 1749,464.6 c 1,1.5 2.2,4 2,5 -0.2,1 -1.9,1 -2.8,1.5 l -0.3,-0.5 c 0.8,-0.6 2,0 2.2,-1 0.1,-0.8 -0.8,-3.3 -1.7,-4.7 z"
       id="path375" />
    <path
       d="m 1747,479 c -1.3,2.8 0.8,2.8 1.7,3.2 a 10.7,10.7 0 0 0 2.7,-3.2 c 0.1,6.1 -2,9.4 -3.6,11.1 -1.5,1.7 -10.6,3 -15.6,0 -5,-3 -15.2,-13 -9.6,-21.3 0.8,0.6 2.2,0.5 3.2,0.3 -0.2,1.8 2.3,7 6.8,9 4.5,2 7.7,2.5 9,4.3 2.2,0 3.5,-1 2.5,-3.3 0.5,0.2 2.3,0 2.9,0 z m -1,-6 c 0,0 8.1,2 8.6,3.5 0.5,1.4 -1.2,3.1 -1.2,3.1 0,0 -5.4,-4.4 -7.6,-4.4 0.1,-0.5 -0.1,-1.2 0.1,-2.3 z"
       fill="#881111"
       id="path376" />
    <path
       d="m 1745.3,473 c 0,0 -8.5,0 -9.4,1.3 -0.9,1.3 0.2,3.4 0.2,3.4 0,0 6.6,-3.3 8.7,-2.6 0,-0.6 0.4,-1.1 0.5,-2.2 z"
       fill="#881111"
       id="path377" />
    <path
       d="m 1758.2,432 -3,-7.5 -5.8,8 -4.1,-10 -5.2,9.8 c 0,0 -3.6,-10.2 -3.6,-9.4 0,0.8 -3.8,10.6 -3.8,10.6 l -4.3,-9.5 -2.8,9.4 -5,-8.1 -1.4,7.2 v 5.7 c 0,0 31.6,1.5 34.5,0 2.9,-1.5 4.6,-6 4.5,-6.2 z"
       fill="url(#G938)"
       id="path378"
       style="fill:url(#G938)" />
    <path
       d="m 1757.4,445.3 a 87.7,87.7 0 0 1 -38.1,0 l -2.8,-19 5.3,7.5 3.3,-8.5 4,8.3 4.2,-9.5 3.8,9.4 4.2,-9.2 3.8,10 5.6,-8.7 4.2,9 6.4,-7.9 c 0,0 -3.6,18.2 -3.9,18.6 z"
       fill="url(#G935)"
       id="path379"
       style="fill:url(#G935)" />
    <path
       d="m 1722.4,485 3.4,2.8 -10.8,8 -3,-3 z"
       fill="#eeee00"
       id="path380" />
    <path
       d="m 1738.6,504.7 8,-9.1 h -20 z"
       fill="#ff8800"
       id="path381" />
    <path
       d="m 1741.2,498 3.2,3.9 -4.6,3.2 5,3.5 -3.3,3.2 -3.4,-5.6 -3.4,5.5 -3.5,-3.8 5.8,-2.9 -5.5,-3.6 3.6,-3.2 3,5.7 z"
       fill="#eeee00"
       id="path382" />
    <path
       d="m 1745.7,423.1 3,7.1 2.4,-3.9 1.4,3.2 3.2,-4.3 2.5,6.5 3.5,-4.3 c 0,0 -3.6,18.2 -3.9,18.6 a 19.3,19.3 0 0 1 2.7,6.8 c -1,0.4 -3,0.6 -4.8,1 a 27.9,27.9 0 0 1 1.7,9.7 c 0,4.8 -1.2,9.3 -3.2,13 l 0.8,0.7 c 0.5,1.4 -1.2,3.1 -1.2,3.1 l -1.4,-1 -0.7,1 c 0,3 -0.6,5.3 -1.3,7 l 0.3,0.1 0.8,-1.8 7.8,6.3 -2.1,1.5 a 14.3,14.3 0 0 1 2.4,7.5 v 17.2 a 62.7,62.7 0 0 1 -30,3.5 l -3.9,-0.2 a 51,51 0 0 1 -12.8,-3.3 v -17.2 c 0,-2 0.4,-4 1.2,-5.7 l -1.7,-1.6 10.3,-7.8 1.2,1 a 13.7,13.7 0 0 1 3.4,-0.5 c -2.8,-3 -5.4,-6.6 -5.8,-10.5 a 26.6,26.6 0 0 1 -2.4,-7 c -1.4,-0.2 -2.4,-1.2 -5.3,-2.1 0,0 0,-11.8 5.9,-20.7 l -2.7,-19 3,4.4 1,-5.4 2.8,4.5 1.7,-4.5 1.8,3.8 1.5,-5 2.6,5.5 2.3,-5.5 1.5,3.7 c 0.9,-2.4 1.8,-4.5 1.8,-5 0,-0.4 1.4,3.6 2.5,6.5 l 2.3,-5 1.2,3.3 z"
       fill="url(#G925)"
       id="path383"
       style="fill:url(#G925)" />
    <use
       id="u4930"
       transform="translate(1112)"
       xlink:href="#u3334" />
    <use
       id="u4932"
       transform="translate(973)"
       xlink:href="#u3865" />
    <use
       transform="translate(1668,806)"
       fill="#ff0000"
       stroke="#ff0000"
       xlink:href="#K"
       id="use383" />
    <use
       transform="rotate(180,902,68)"
       fill="#ff0000"
       stroke="#ff0000"
       xlink:href="#K"
       id="use384" />
  </g>
</svg>
