<?xml version="1.0" encoding="UTF-8" standalone="no"?>
<svg
   width="139"
   height="189"
   version="1.1"
   id="svg543"
   xmlns:xlink="http://www.w3.org/1999/xlink"
   xmlns="http://www.w3.org/2000/svg"
   xmlns:svg="http://www.w3.org/2000/svg">
  <defs
     id="defs24">
    <linearGradient
       id="G1734"
       x1="2"
       x2="109"
       y1="62"
       y2="127.7"
       gradientUnits="userSpaceOnUse">
      <stop
         stop-color="#ebf0d0"
         offset="0"
         id="stop1" />
      <stop
         stop-color="#ffffeb"
         offset="1"
         id="stop2" />
    </linearGradient>
    <linearGradient
       id="G2580">
      <stop
         stop-color="#fff"
         offset="0"
         id="stop11" />
      <stop
         stop-color="#fff"
         stop-opacity="0"
         offset="1"
         id="stop12" />
    </linearGradient>
    <linearGradient
       id="G407">
      <stop
         stop-color="#f0eb00"
         offset="0"
         id="stop15" />
      <stop
         stop-color="#ee0"
         offset="1"
         id="stop16" />
    </linearGradient>
    <linearGradient
       id="G417">
      <stop
         stop-color="#f0a700"
         offset="0"
         id="stop17" />
      <stop
         stop-color="#ffed00"
         offset="1"
         id="stop18" />
    </linearGradient>
    <linearGradient
       id="G214">
      <stop
         stop-color="#c10000"
         offset="0"
         id="stop19" />
      <stop
         stop-color="#ff433e"
         offset="1"
         id="stop20" />
    </linearGradient>
    <linearGradient
       id="G997"
       x1="688.29999"
       x2="361.5"
       y1="-31.9"
       y2="346.70001"
       gradientTransform="matrix(0.215,0,0,0.167,1651.4,598.4)"
       gradientUnits="userSpaceOnUse"
       xlink:href="#G2580" />
    <linearGradient
       id="G07"
       x1="1723.8"
       x2="1755.7"
       y1="633.5"
       y2="625.09998"
       gradientUnits="userSpaceOnUse"
       xlink:href="#G407" />
    <linearGradient
       id="G10"
       x1="1723.2"
       x2="1754.9"
       y1="627.09998"
       y2="618.90002"
       gradientUnits="userSpaceOnUse"
       xlink:href="#G417" />
    <linearGradient
       id="G30"
       x1="1727.4"
       x2="1752.4"
       y1="700"
       y2="679.20001"
       gradientUnits="userSpaceOnUse"
       xlink:href="#G214" />
    <g
       id="cb"
       transform="translate(-1,-1)">
      <g
         id="g23">
        <path
           d="m 21,5 h 103 a 16,16 0 0 1 16,16 v 153 a 16,16 0 0 1 -16,16 H 21 A 16,16 0 0 1 5,174 V 21 A 16,16 0 0 1 21,5 Z"
           opacity="0.5"
           id="path20" />
        <path
           d="m 17,1 h 103 a 16,16 0 0 1 16,16 v 153 a 16,16 0 0 1 -16,16 H 17 A 16,16 0 0 1 1,170 V 17 A 16,16 0 0 1 17,1 Z"
           fill="#ffffff"
           id="path21" />
        <path
           d="m 19,3 h 103 a 16,16 0 0 1 16,16 v 153 a 16,16 0 0 1 -16,16 H 19 A 16,16 0 0 1 3,172 V 19 A 16,16 0 0 1 19,3 Z"
           fill="#c7891f"
           id="path22" />
        <path
           d="m 18,2 h 103 a 16,16 0 0 1 16,16 v 153 a 16,16 0 0 1 -16,16 H 18 A 16,16 0 0 1 2,171 V 18 A 16,16 0 0 1 18,2 Z"
           fill="url(#G1734)"
           id="path23" />
      </g>
      <path
         d="m 106.6,14 c -0.2,0.7 -0.1,1.4 0.2,2 0.3,0.6 0.9,1.1 1.8,1.1 0.8,0 1.5,-0.7 1.5,-1.2 0,-0.3 -0.2,-0.6 -0.5,-0.8 -1,2 -2.1,0.1 -1.8,-1 0.9,-3.7 7.7,-1 5.5,3.9 a 5,5 0 0 1 -4.5,2.9 l -71.3,0.4 v 1 l 71.6,-0.5 c 2.2,0 4.2,-1.4 5.1,-3.4 2.7,-6.2 -6.2,-9.6 -7.6,-4.4 z m 14.8,5.4 c -2.1,0.7 -3.4,2.9 -3.4,5.1 -0.3,22.9 0.1,74 0.1,74 h 1 l -0.2,-73.7 a 5,5 0 0 1 2.9,-4.5 c 2,-0.9 4.6,-0.2 5.4,1.9 0.9,2 -1,4.4 -2.8,3.5 -1,-0.9 -0.4,-1.2 0.3,-1.7 -0.2,-0.3 -0.5,-0.5 -0.8,-0.5 -0.3,0 -0.6,0.2 -0.7,0.3 -0.3,0.3 -0.5,0.7 -0.5,1.2 0,0.8 0.5,1.4 1.1,1.8 1.2,0.8 6,-0.8 4.3,-5 -1.3,-3.5 -4.8,-3.1 -6.7,-2.4 z m -100.7,70.4 0.2,74.5 c 0,1.9 -1.2,3.7 -2.9,4.5 -2,0.9 -4.6,0.2 -5.4,-1.9 -0.4,-1 -0.2,-3.1 1.5,-3.6 1.4,-0.4 3,0.5 1,1.8 0.2,0.3 0.5,0.5 0.8,0.5 0.6,0 1.2,-0.6 1.2,-1.5 0,-1.5 -1.8,-2.4 -3.1,-2 -0.9,0.2 -3.5,1.4 -2.5,5.1 0.8,2.8 4.6,3.9 7.1,2.7 1.9,-1 3.4,-2.9 3.4,-5.9 L 21.8,89.9 Z m 81.8,77.1 -71.5,0.3 c -2.5,0 -4.4,1.2 -5.3,3 -1.6,2.9 -0.6,6.5 2.5,7.7 2.6,1 6.4,-1.6 5,-4.7 a 2,2 0 0 0 -1.8,-1.1 c -0.8,0 -1.5,0.7 -1.5,1.2 0,0.3 0.2,0.6 0.5,0.8 1,-1.9 2.1,-0.3 1.8,1 -0.4,1.7 -2.5,1.9 -3.6,1.5 -2.1,-0.9 -2.8,-3.4 -1.9,-5.4 a 5,5 0 0 1 4.5,-2.9 l 71.3,-0.4 z"
         stroke="#000000"
         stroke-width="0.7"
         id="path24" />
    </g>
  </defs>
  <path
     id="silk"
     d="m 71,-714.7 c 2,-1.6 3.4,-2.6 5.8,-5.1 2.8,7.8 4.9,6.2 7.9,3.6 3,-3 0.5,11.1 6.3,-1.8 1.7,0.2 0.4,12.2 -1.2,18.6 -1.5,5.8 2.4,7.5 0.7,11 -5.7,-0.4 -1.8,6 -2.8,9.8 -1.2,4.5 -0.7,9 -2.3,12.7 -9.7,4.4 8.4,7.5 4.2,11 -0.8,3.3 0.3,9.1 0.2,13.6 -0.2,6 1.5,8.9 -5.5,11.2 a 62.5,62.5 0 0 1 -38.8,-1.8 c -0.1,-7 0.1,-14.9 0.2,-21.3 -3.2,-3.9 7.9,-6.5 10.4,-10 -3.5,-4.3 -2.3,-12.7 -9.5,-13.3 -0.8,-6.3 1.4,-14 4.7,-19.8 -1.1,-7.7 -2.3,-15.3 -3.1,-23 7.2,14.8 4.3,-3 7.5,4 2.1,2.3 4.1,0.6 4.6,-0.6 2.5,-5.4 4.1,5.3 5.4,-3.7 2.6,7.9 2.9,-6.3 4.5,3.1 l 0.7,2 z" />
  <path
     id="K"
     d="m 13.7,-604 v 13.8 l 10.2,-15.5 4.7,1.3 -7.8,11.9 9.4,16.8 -4.7,-1.3 -6.8,-12.4 -4.9,7.5 v 6.2 l -5,-1.3 v -28.7 z" />
  <g
     id="spade_1"
     transform="translate(-1668,-567)">
    <path
       id="path395"
       d="m 20.3,614.7 c -5,7.8 -20.2,21.4 -10.5,25.2 5.7,2.2 8.6,-2 9.8,-4.5 h 0.2 l -3.9,13 9,-0.1 c 0,0 -3.9,-12.5 -3.9,-13 h 0.1 c 1,2.2 4.5,6.5 8.5,4.9 11.5,-4.7 -5.4,-17.9 -9.3,-25.5 z"
       stroke="#000000" />
  </g>
  <g
     id="spade_2"
     transform="translate(-1668,-567)">
    <use
       id="u1912"
       transform="translate(139)"
       xlink:href="#path395" />
  </g>
  <g
     id="spade_3"
     transform="translate(-1668,-567)">
    <use
       id="u2362"
       transform="translate(139)"
       xlink:href="#u1912" />
    <use
       id="u2364"
       transform="rotate(180,346.5,660.2)"
       xlink:href="#u2362" />
  </g>
  <g
     id="spade_4"
     transform="translate(-1668,-567)">
    <use
       id="u2835"
       transform="translate(139)"
       xlink:href="#u2362" />
    <use
       id="u2837"
       transform="translate(139)"
       xlink:href="#u2364" />
  </g>
  <g
     id="spade_5"
     transform="translate(-1668,-567)">
    <use
       id="u3354"
       transform="translate(139)"
       xlink:href="#u2835" />
    <use
       id="u3356"
       transform="translate(139)"
       xlink:href="#u2837" />
  </g>
  <g
     id="spade_king"
     transform="translate(-1668,-567)">
    <use
       transform="translate(1668,567)"
       xlink:href="#cb"
       id="use473" />
    <use
       transform="matrix(-1.15,0,0,1.15,1816.2,1434.95)"
       xlink:href="#silk"
       id="use474" />
    <path
       d="m 1755.9,652.1 c 0,13.1 -8.7,23.8 -19.4,23.8 -10.7,0 -19.5,-10.7 -19.5,-23.9 0,-13.2 8.7,-23.8 19.4,-23.8 10.7,0 19.4,10.7 19.4,23.8 z"
       fill="#ee9977"
       id="path474" />
    <path
       d="m 1717.5,682.2 -2.4,-1.6 7.9,-6.4 1.7,3.7 c 0,0 -6.8,4.6 -7.2,4.3 z"
       fill="#eeee00"
       id="path475" />
    <path
       d="m 1729.6,675 a 14.6,14.6 0 0 0 -14.6,14.5 v 17.2 a 68,68 0 0 0 46.7,0 V 689.5 A 14.6,14.6 0 0 0 1747,675 Z"
       fill="url(#G30)"
       id="path476"
       style="fill:url(#G30)" />
    <path
       d="m 1714,641.4 c 0,0 2,-16.5 23.7,-16.5 23,0.9 23,30.4 23,30.4 -5.6,1.8 -4,3.8 -12.3,0.9 0.9,-6.6 -0.6,-11.4 -4.6,-14.7 -4.9,2.5 -24.8,1.7 -29.8,0 z"
       fill="#552211"
       id="path477" />
    <path
       d="m 1735.9,652.4 c 0,1.3 -1.6,2.4 -3.5,2.4 -1.9,0 -3.5,-1.1 -3.5,-2.4 0,-1.4 1.6,-2.5 3.5,-2.5 1.9,0 3.5,1.1 3.5,2.5 z"
       fill="#ffffff"
       id="path478" />
    <path
       d="m 1732.9,652.4 c 0,1.1 -0.9,2 -2,2 -1.1,0 -2,-0.9 -2,-2 0,-1.1 0.9,-2 2,-2 1.1,0 2,0.9 2,2 z"
       fill="#11cc11"
       id="path479" />
    <path
       d="m 1731.4,652.6 c 0,0.9 -0.6,1.6 -1.3,1.6 -0.7,0 -1.2,-0.7 -1.2,-1.6 0,-1 0.6,-1.7 1.3,-1.7 0.7,0 1.2,0.8 1.2,1.7 z"
       id="path480" />
    <path
       d="m 1724.3,652 c 0,1.3 -1.6,2.4 -3.5,2.4 -1.9,0 -3.5,-1.1 -3.5,-2.4 0,-1.3 1.6,-2.5 3.5,-2.5 1.9,0 3.5,1.1 3.5,2.5 z"
       fill="#ffffff"
       id="path481" />
    <path
       d="m 1721.3,652 c 0,1.1 -0.9,2 -2,2 -1.1,0 -2,-0.9 -2,-2 0,-1.1 0.9,-2 2,-2 1.1,0 2,1 2,2 z"
       fill="#11cc11"
       id="path482" />
    <path
       d="m 1719.8,652.2 c 0,0.9 -0.6,1.6 -1.3,1.6 -0.7,0 -1.2,-0.7 -1.2,-1.6 0,-0.9 0.6,-1.7 1.3,-1.7 0.7,0 1.2,0.8 1.2,1.7 z"
       id="path483" />
    <path
       d="m 1723.2,667.5 c 3.4,0.2 8.4,0.4 13.5,0 -5.4,-2 -9.1,-2.6 -13.5,0 z"
       fill="#ff5555"
       id="path484" />
    <path
       d="m 1745.8,693.2 1.4,0.1 1.6,16.7 -4,0.3 z"
       fill="#770000"
       id="path485" />
    <path
       d="m 1725.1,654 c -1,1.4 -2.2,3.9 -2,5 0.2,1.1 1.9,0.9 2.8,1.5 l 0.3,-0.6 c -0.8,-0.5 -2,0 -2.2,-0.9 -0.1,-0.9 0.8,-3.3 1.7,-4.7 z m 2,14.4 c 1.3,2.7 -0.8,2.7 -1.7,3.2 a 10.7,10.7 0 0 1 -2.7,-3.2 c -0.1,6 2,9.4 3.6,11 1.5,1.8 10.6,3 15.6,0 5,-3 15.2,-13 9.6,-21.2 -0.8,0.5 -2.2,0.4 -3.2,0.2 0.2,1.8 -2.3,7.1 -6.8,9.1 -4.5,2 -7.7,2.4 -9,4.2 -2.2,0 -3.5,-0.9 -2.5,-3.3 -0.5,0.2 -2.3,0 -2.9,0 z m 1,-6.1 c 0,0 -8,2 -8.6,3.5 -0.5,1.5 1.2,3.2 1.2,3.2 0,0 5.4,-4.5 7.6,-4.4 -0.1,-0.6 0.1,-1.3 -0.1,-2.3 z"
       fill="#552211"
       id="path486" />
    <path
       d="m 1728.8,662.3 c 0,0 8.5,0.1 9.4,1.4 0.9,1.3 -0.2,3.3 -0.2,3.3 0,0 -6.6,-3.3 -8.7,-2.5 0,-0.6 -0.4,-1.1 -0.5,-2.2 z"
       fill="#552211"
       id="path487" />
    <path
       d="m 1715.9,621.4 3,-7.6 5.8,8 4.1,-10 5.2,9.8 c 0,0 3.6,-10.2 3.6,-9.4 0,0.8 3.8,10.6 3.8,10.6 l 4.3,-9.4 2.8,9.3 5,-8 1.4,7.1 v 5.8 c 0,0 -31.6,1.4 -34.5,0 -2.9,-1.4 -4.6,-6 -4.5,-6.2 z"
       fill="url(#G10)"
       id="path488"
       style="fill:url(#G10)" />
    <path
       d="m 1716.7,634.7 a 87.7,87.7 0 0 0 38.1,0 l 2.8,-19 -5.3,7.5 -3.3,-8.6 -4,8.4 -4.2,-9.6 -3.8,9.5 -4.2,-9.3 -3.8,10.1 -5.6,-8.7 -4.2,9 -6.4,-8 c 0,0 3.6,18.3 3.9,18.7 z"
       fill="url(#G07)"
       id="path489"
       style="fill:url(#G07)" />
    <path
       d="m 1751.8,674.4 -3.4,2.8 10.8,7.9 3,-3 z"
       fill="#eeee00"
       id="path490" />
    <path
       d="m 1735.5,694 -8,-9 h 20 z"
       fill="#ff8800"
       id="path491" />
    <path
       d="m 1732.9,687.3 -3.2,4 4.6,3.1 -5,3.5 3.3,3.3 3.4,-5.7 3.4,5.6 3.5,-3.8 -5.8,-2.9 5.5,-3.7 -3.6,-3.2 -3,5.8 z"
       fill="#eeee00"
       id="path492" />
    <path
       d="m 1728.5,612.5 -3,7 -2.4,-3.8 -1.4,3.1 -3.2,-4.3 -2.5,6.6 -3.5,-4.3 c 0,0 3.6,18.2 3.9,18.6 -2.2,3.6 -2.7,6.8 -2.7,6.8 1,0.3 3,0.6 4.8,0.9 a 28,28 0 0 0 -1.7,9.7 c 0,4.9 1.2,9.4 3.2,13.1 l -0.8,0.6 c -0.5,1.5 1.2,3.2 1.2,3.2 l 1.4,-1 0.7,1 c 0,3 0.6,5.2 1.3,7 h -0.3 l -0.8,-1.8 -7.8,6.4 2.1,1.5 a 14.3,14.3 0 0 0 -2.4,7.5 v 17.1 a 62.8,62.8 0 0 0 30,3.6 l 3.9,-0.3 c 4.7,-0.7 9.2,-1.7 12.9,-3.3 v -17.1 c 0,-2 -0.5,-4 -1.2,-5.8 l 1.6,-1.6 -10.3,-7.8 -1.2,1 a 14.8,14.8 0 0 0 -3.4,-0.4 c 2.8,-3 5.4,-6.7 5.8,-10.5 a 26.6,26.6 0 0 0 2.4,-7 c 1.4,-0.3 2.4,-1.2 5.3,-2.2 0,0 0,-11.8 -5.9,-20.7 l 2.7,-19 -3,4.4 -1,-5.4 -2.8,4.5 -1.7,-4.4 -1.8,3.7 -1.5,-5 -2.6,5.5 -2.3,-5.4 -1.5,3.7 c -0.9,-2.4 -1.8,-4.6 -1.8,-5 0,-0.5 -1.4,3.5 -2.4,6.5 l -2.3,-5 -1.3,3.2 z"
       fill="url(#G997)"
       id="path493"
       style="fill:url(#G997)" />
    <use
       id="u4936"
       transform="translate(1112)"
       xlink:href="#u3356" />
    <use
       id="u4934"
       transform="translate(1112)"
       xlink:href="#u3354" />
    <use
       transform="translate(1668,1184)"
       stroke="#000000"
       xlink:href="#K"
       id="use493" />
    <use
       transform="rotate(180,902,68.1)"
       stroke="#000000"
       xlink:href="#K"
       id="use494" />
  </g>
</svg>
