<?xml version="1.0" encoding="UTF-8" standalone="no"?>
<svg
   width="139"
   height="189"
   version="1.1"
   id="svg543"
   xmlns:xlink="http://www.w3.org/1999/xlink"
   xmlns="http://www.w3.org/2000/svg"
   xmlns:svg="http://www.w3.org/2000/svg">
  <defs
     id="defs24">
    <linearGradient
       id="G1734"
       x1="2"
       x2="109"
       y1="62"
       y2="127.7"
       gradientUnits="userSpaceOnUse">
      <stop
         stop-color="#ebf0d0"
         offset="0"
         id="stop1" />
      <stop
         stop-color="#ffffeb"
         offset="1"
         id="stop2" />
    </linearGradient>
    <linearGradient
       id="G3196">
      <stop
         stop-color="#008200"
         offset="0"
         id="stop9" />
      <stop
         stop-color="#00d000"
         offset="1"
         id="stop10" />
    </linearGradient>
    <linearGradient
       id="G2580">
      <stop
         stop-color="#fff"
         offset="0"
         id="stop11" />
      <stop
         stop-color="#fff"
         stop-opacity="0"
         offset="1"
         id="stop12" />
    </linearGradient>
    <linearGradient
       id="G417">
      <stop
         stop-color="#f0a700"
         offset="0"
         id="stop17" />
      <stop
         stop-color="#ffed00"
         offset="1"
         id="stop18" />
    </linearGradient>
    <linearGradient
       id="G2"
       x1="-21.799999"
       x2="-101.9"
       y1="46.299999"
       y2="98.099998"
       gradientTransform="matrix(-1.12,0,0,1.12,1496.5,350)"
       gradientUnits="userSpaceOnUse"
       xlink:href="#G2580" />
    <linearGradient
       id="G42"
       x1="299"
       x2="449.29999"
       y1="540.5"
       y2="415.5"
       gradientTransform="matrix(-0.1624,0,0,0.1624,1657.8,422.8)"
       gradientUnits="userSpaceOnUse"
       xlink:href="#G3196" />
    <linearGradient
       id="G26"
       x1="632"
       x2="698"
       y1="146.39999"
       y2="85.400002"
       gradientUnits="userSpaceOnUse"
       xlink:href="#G417" />
    <g
       id="cb"
       transform="translate(-1,-1)">
      <g
         id="g23">
        <path
           d="m 21,5 h 103 a 16,16 0 0 1 16,16 v 153 a 16,16 0 0 1 -16,16 H 21 A 16,16 0 0 1 5,174 V 21 A 16,16 0 0 1 21,5 Z"
           opacity="0.5"
           id="path20" />
        <path
           d="m 17,1 h 103 a 16,16 0 0 1 16,16 v 153 a 16,16 0 0 1 -16,16 H 17 A 16,16 0 0 1 1,170 V 17 A 16,16 0 0 1 17,1 Z"
           fill="#ffffff"
           id="path21" />
        <path
           d="m 19,3 h 103 a 16,16 0 0 1 16,16 v 153 a 16,16 0 0 1 -16,16 H 19 A 16,16 0 0 1 3,172 V 19 A 16,16 0 0 1 19,3 Z"
           fill="#c7891f"
           id="path22" />
        <path
           d="m 18,2 h 103 a 16,16 0 0 1 16,16 v 153 a 16,16 0 0 1 -16,16 H 18 A 16,16 0 0 1 2,171 V 18 A 16,16 0 0 1 18,2 Z"
           fill="url(#G1734)"
           id="path23" />
      </g>
      <path
         d="m 106.6,14 c -0.2,0.7 -0.1,1.4 0.2,2 0.3,0.6 0.9,1.1 1.8,1.1 0.8,0 1.5,-0.7 1.5,-1.2 0,-0.3 -0.2,-0.6 -0.5,-0.8 -1,2 -2.1,0.1 -1.8,-1 0.9,-3.7 7.7,-1 5.5,3.9 a 5,5 0 0 1 -4.5,2.9 l -71.3,0.4 v 1 l 71.6,-0.5 c 2.2,0 4.2,-1.4 5.1,-3.4 2.7,-6.2 -6.2,-9.6 -7.6,-4.4 z m 14.8,5.4 c -2.1,0.7 -3.4,2.9 -3.4,5.1 -0.3,22.9 0.1,74 0.1,74 h 1 l -0.2,-73.7 a 5,5 0 0 1 2.9,-4.5 c 2,-0.9 4.6,-0.2 5.4,1.9 0.9,2 -1,4.4 -2.8,3.5 -1,-0.9 -0.4,-1.2 0.3,-1.7 -0.2,-0.3 -0.5,-0.5 -0.8,-0.5 -0.3,0 -0.6,0.2 -0.7,0.3 -0.3,0.3 -0.5,0.7 -0.5,1.2 0,0.8 0.5,1.4 1.1,1.8 1.2,0.8 6,-0.8 4.3,-5 -1.3,-3.5 -4.8,-3.1 -6.7,-2.4 z m -100.7,70.4 0.2,74.5 c 0,1.9 -1.2,3.7 -2.9,4.5 -2,0.9 -4.6,0.2 -5.4,-1.9 -0.4,-1 -0.2,-3.1 1.5,-3.6 1.4,-0.4 3,0.5 1,1.8 0.2,0.3 0.5,0.5 0.8,0.5 0.6,0 1.2,-0.6 1.2,-1.5 0,-1.5 -1.8,-2.4 -3.1,-2 -0.9,0.2 -3.5,1.4 -2.5,5.1 0.8,2.8 4.6,3.9 7.1,2.7 1.9,-1 3.4,-2.9 3.4,-5.9 L 21.8,89.9 Z m 81.8,77.1 -71.5,0.3 c -2.5,0 -4.4,1.2 -5.3,3 -1.6,2.9 -0.6,6.5 2.5,7.7 2.6,1 6.4,-1.6 5,-4.7 a 2,2 0 0 0 -1.8,-1.1 c -0.8,0 -1.5,0.7 -1.5,1.2 0,0.3 0.2,0.6 0.5,0.8 1,-1.9 2.1,-0.3 1.8,1 -0.4,1.7 -2.5,1.9 -3.6,1.5 -2.1,-0.9 -2.8,-3.4 -1.9,-5.4 a 5,5 0 0 1 4.5,-2.9 l 71.3,-0.4 z"
         stroke="#000000"
         stroke-width="0.7"
         id="path24" />
    </g>
  </defs>
  <path
     id="silq"
     d="m 84.3,-532.9 c 1.2,8.3 6.6,-13.8 4.3,1 -1.2,7.7 -4.7,13.6 -0.8,15.7 a 25,25 0 0 1 11.3,14.7 c -6.7,-1 -3.4,4.8 -3.7,8.9 a 26,26 0 0 1 -12.6,19.9 c 8.5,1.6 11.5,8.9 10.7,15.9 6.6,7.4 -1.7,7.4 0.9,12.5 -2.2,5.4 -28,8.1 -44.4,1.4 0.8,-9.4 -4.2,-22.3 8.3,-28.6 -6.2,-0.1 -14.1,-1.6 -20.1,-2.9 6.9,-2.7 18.9,-5.6 16.8,-15.3 -1.5,-11.5 2.3,-26.8 15.4,-29 -1,-6.3 -2.5,-12.6 -2.5,-19 5.7,14.5 4.5,-8.8 7.2,1.2 2.1,7.8 2.9,-9 4.6,4.4 2,-2.2 3,-12.8 4.2,-3.7 z" />
  <path
     id="Q"
     d="m 15.4,-416.1 c -5.3,3.3 -7,11.2 -5.7,16 1.1,4.4 8.2,8.6 8.9,8.9 -0.4,3.2 -0.2,6.6 3,8.1 a 4,4 0 0 0 3,-0.3 c -1.3,0.1 -2.1,-0.3 -2.5,-1.3 -0.5,-1.2 -0.2,-5.9 -0.1,-6.2 a 7.6,7.6 0 0 0 4.2,-2.7 c 4.6,-5.3 4.5,-13.2 1.4,-16.8 L 21,-416 c -2,-1.3 -3.9,-1 -5.6,-0.1 z m 4.8,2.9 c 0.5,0 4.6,0.4 5.3,5.8 0.2,1.2 0.7,6.6 -3,11 0,-1.6 -0.2,-2.6 -0.5,-2.9 a 14.5,14.5 0 0 0 -5.8,-5.2 c -0.4,-0.1 -1.3,0.2 -2.7,0.8 0.3,-2 0.9,-3.9 1.8,-5.6 1.9,-3.5 4.4,-3.9 4.9,-3.9 z m -2.3,12.4 c 1.5,1.6 1.2,4.2 1.1,6.3 -1.6,0.2 -4.5,-0.9 -5.4,-5 0.9,-2.2 3.6,-2 4.3,-1.3 z" />
  <g
     id="heart_1"
     transform="translate(-1529,-378)">
    <g
       id="g1605"
       transform="matrix(0.28639,0,0,0.38877,-30,367.5)"
       fill="#ff0000">
      <path
         d="m 199.1,149.4 c -17,0.4 -23.3,23.2 -23.5,24 -5,-21.1 -25,-27.2 -34.9,-21.7 -37.6,20.6 13.7,55 34.8,84.3 23.3,-32 69.9,-69 34.3,-84.3 a 24.6,24 0 0 0 -10.7,-2.4 z"
         stroke="#ff0000"
         stroke-width="1.6"
         id="path273" />
    </g>
  </g>
  <g
     id="heart_2"
     transform="translate(-1529,-378)">
    <use
       id="u1898"
       transform="translate(139)"
       xlink:href="#g1605" />
  </g>
  <g
     id="heart_3"
     transform="translate(-1529,-378)">
    <use
       id="u2346"
       transform="translate(139)"
       xlink:href="#u1898" />
    <use
       id="u2354"
       transform="rotate(180,346.5,471.4)"
       xlink:href="#u2346" />
  </g>
  <g
     id="heart_4"
     transform="translate(-1529,-378)">
    <use
       id="u2819"
       transform="translate(139)"
       xlink:href="#u2346" />
    <use
       id="u2821"
       transform="translate(139)"
       xlink:href="#u2354" />
  </g>
  <g
     id="heart_5"
     transform="translate(-1529,-378)">
    <use
       id="u3334"
       transform="translate(139)"
       xlink:href="#u2819" />
    <use
       id="u3338"
       transform="translate(139)"
       xlink:href="#u2821" />
  </g>
  <g
     id="heart_6"
     transform="translate(-1529,-378)">
    <use
       id="u3865"
       transform="translate(139)"
       xlink:href="#u3338" />
  </g>
  <g
     id="heart_queen"
     transform="translate(-1529,-378)">
    <use
       transform="translate(1529,378)"
       xlink:href="#cb"
       id="use343" />
    <use
       transform="matrix(1.12,0,0,1.12,1517.78,1014.66)"
       xlink:href="#silq"
       id="use344" />
    <path
       d="m 1584.8,461.6 c 0,12.8 8.5,23.2 18.9,23.2 10.4,0 19,-10.4 19,-23.2 0,-12.8 -8.6,-23.1 -19,-23.1 -10.4,0 -18.9,10.3 -18.9,23.1 z"
       fill="#ee9977"
       id="path344" />
    <path
       d="m 1607.1,486 c 7.9,0 14.3,6.4 14.3,14.3 v 3.6 c 1.3,2 2.5,4 2.3,5.6 -0.2,1.1 -1.2,2 -2.4,2.9 v 4.6 a 66.6,66.6 0 0 1 -45.5,0 v -16.7 c 0,-7.9 6.4,-14.2 14.3,-14.2 z"
       fill="url(#G42)"
       id="path345"
       style="fill:url(#G42)" />
    <path
       d="m 1625.6,451.2 c 0,0 -4.4,-15.8 -23,-16.1 -18.5,-0.3 -23.4,15.5 -21.3,33.4 1.9,9.5 -13.4,14.3 -13.4,14.3 a 51.5,51.5 0 0 0 26.6,0.6 c -7,-5.3 -1.2,-30.6 2.6,-34 4.8,3.9 23.6,3.5 28.5,1.8 z"
       id="path346" />
    <g
       transform="matrix(-0.1624,0,0,0.1624,1660.7,422)"
       id="g349">
      <path
         transform="translate(-4,-6)"
         d="m 353,245.9 c 0,11.8 -9.4,21.5 -21,21.5 -11.6,0 -21,-9.7 -21,-21.5 0,-11.8 9.4,-21.5 21,-21.5 11.6,0 21,9.6 21,21.5 z"
         fill="#ffffff"
         id="path347" />
      <path
         transform="matrix(0.57143,0,0,0.83721,129.3,34.5)"
         d="m 353,245.9 c 0,11.8 -9.4,21.5 -21,21.5 -11.6,0 -21,-9.7 -21,-21.5 0,-11.8 9.4,-21.5 21,-21.5 11.6,0 21,9.6 21,21.5 z"
         fill="#00cc00"
         id="path348" />
      <path
         transform="matrix(0.35714,0,0,0.67442,196,76)"
         d="m 353,245.9 c 0,11.8 -9.4,21.5 -21,21.5 -11.6,0 -21,-9.7 -21,-21.5 0,-11.8 9.4,-21.5 21,-21.5 11.6,0 21,9.6 21,21.5 z"
         id="path349" />
    </g>
    <g
       transform="matrix(-0.1344,0,0,0.109,1694.6,413.5)"
       id="g351">
      <path
         d="m 618,99.4 10,-85 38,115 c 0,0 34,-123 34,-119 0,4 23,91 23,91 l -18,70 h -77 z"
         fill="url(#G26)"
         id="path350"
         style="fill:url(#G26)" />
      <path
         d="m 589,51.4 36,179 c 27,10.6 60,9.3 84,1 l 25,-178 -44,89 -23,-119 -23,118 z"
         fill="#eeee00"
         id="path351" />
    </g>
    <g
       transform="matrix(-0.1624,0,0,0.1624,1672,421.5)"
       id="g354">
      <path
         transform="translate(-4,-6)"
         d="m 353,245.9 c 0,11.8 -9.4,21.5 -21,21.5 -11.6,0 -21,-9.7 -21,-21.5 0,-11.8 9.4,-21.5 21,-21.5 11.6,0 21,9.6 21,21.5 z"
         fill="#ffffff"
         id="path352" />
      <path
         transform="matrix(0.57143,0,0,0.83721,129.3,34.5)"
         d="m 353,245.9 c 0,11.8 -9.4,21.5 -21,21.5 -11.6,0 -21,-9.7 -21,-21.5 0,-11.8 9.4,-21.5 21,-21.5 11.6,0 21,9.6 21,21.5 z"
         fill="#00cc00"
         id="path353" />
      <path
         transform="matrix(0.35714,0,0,0.67442,196,76)"
         d="m 353,245.9 c 0,11.8 -9.4,21.5 -21,21.5 -11.6,0 -21,-9.7 -21,-21.5 0,-11.8 9.4,-21.5 21,-21.5 11.6,0 21,9.6 21,21.5 z"
         id="path354" />
    </g>
    <path
       d="m 1616.6,475.1 c -4,5 -7.8,3.3 -13.1,0 4.8,-0.3 8,-1.7 13.1,0 z"
       fill="#ff5555"
       id="path355" />
    <path
       d="m 1591.3,503.9 h -1.4 l -1.6,16.3 4,0.3 z m 18.6,6 1,0.7 c -2.3,3.3 -4.3,6.3 -6.6,6.8 -2.3,0.5 -5.3,-1.8 -7.6,-2.8 l 0.5,-1 c 2.2,1 4.3,1.6 6.4,1.2 2.1,-0.4 4.1,-1.7 6.3,-4.9 z"
       fill="#006600"
       id="path356" />
    <path
       d="m 1614.8,463.4 c 0.9,1.5 2,2.8 1.8,3.9 -0.2,1.1 -1.6,1.9 -2.5,2.5 l -0.4,-0.5 a 3.3,3.3 0 0 0 1.4,-2.2 c 0.2,-0.9 0,-2 -0.9,-3.4 z"
       id="path357" />
    <path
       d="m 1609.4,486.7 c 0,0 7,13.2 5.5,22.8 -6.1,-11 -14.2,-21.5 -18.7,-23.5 1.6,-0.6 11.6,-0.3 13.2,0.7 z"
       fill="#ee9977"
       id="path358" />
    <path
       d="m 1623.8,509.4 c -0.3,1.8 -2.7,3.2 -4.3,4.2 l -0.3,-0.3 c 1.3,-1 2,-1 2.2,-2.6 0.2,-1.6 2.7,-3.2 2.4,-1.3 z"
       fill="#006600"
       id="path359" />
    <path
       d="m 1600.7,414.6 c 0,-0.3 1.5,4.2 2.9,8 l 1.5,-6.6 1.8,7.5 3.5,-8.5 1.3,9.2 4,-5.1 -4.5,17.6 a 23.8,23.8 0 0 1 14.4,14.5 c -1,0.4 -2.8,0.6 -4.7,0.8 a 27.4,27.4 0 0 1 1.7,9.7 c 0,12.7 -8.5,23 -18.9,23 -4.3,0 -8.2,-1.8 -11.4,-4.8 a 7.3,7.3 0 0 0 2.2,3.5 51.5,51.5 0 0 1 -26.6,-0.6 c 0,0 15.3,-4.8 13.4,-14.3 -2,-16.6 2.3,-31.3 17.6,-33 l -2.8,-16.2 2.1,3.3 a 115,115 0 0 0 2.5,-8 z m 6.4,71.5 c 7.9,0 14.3,6.3 14.3,14.2 v 3.6 c 1.3,2 2.6,4 2.3,5.6 -0.2,1.1 -1.2,2 -2.4,2.9 v 4.7 a 61.2,61.2 0 0 1 -29,3.4 c -1.4,0 -2.7,0 -4,-0.3 -4.5,-0.6 -9,-1.6 -12.4,-3.1 v -16.8 c 0,-7.9 6.3,-14.2 14.2,-14.2 z"
       fill="url(#G2)"
       id="path360"
       style="fill:url(#G2)" />
    <use
       id="u3798"
       transform="translate(-139)"
       xlink:href="#u4930" />
    <use
       id="u3800"
       transform="translate(-139)"
       xlink:href="#u4932" />
    <use
       transform="translate(1529,806)"
       fill="#ff0000"
       stroke="#ff0000"
       xlink:href="#Q"
       id="use360" />
    <use
       transform="rotate(180,832.5,68)"
       fill="#ff0000"
       stroke="#ff0000"
       xlink:href="#Q"
       id="use361" />
  </g>
  <g
     id="heart_king"
     transform="translate(-1529,-378)">
    <use
       id="u4930"
       transform="translate(1112)"
       xlink:href="#u3334" />
    <use
       id="u4932"
       transform="translate(973)"
       xlink:href="#u3865" />
  </g>
</svg>
