<?xml version="1.0" encoding="UTF-8" standalone="no"?>
<svg
   width="119.9999"
   height="179.99985"
   version="1.1"
   viewBox="0 0 119.9999 179.99985"
   preserveAspectRatio="none"
   id="svg381"
   xmlns:xlink="http://www.w3.org/1999/xlink"
   xmlns="http://www.w3.org/2000/svg"
   xmlns:svg="http://www.w3.org/2000/svg">
  <defs
     id="defs20" />
  <path
     id="2"
     d="m 9.5440504,-81.080169 c -0.07,0.07 -0.04,0.12 0.04,0.12 H 15.28405 c 0.12,0 0.24,0.12 0.24,0.24 v 1.51 c 0,0.09 -0.07,0.24 -0.24,0.24 H 6.6840504 c -0.07,0 -0.24,-0.02 -0.24,-0.24 v -1.43 c 0,-0.12 0.04,-0.22 0.12,-0.3 1.55,-1.63 3,-3.35 4.4599996,-5.06 1.23,-1.42 1.84,-2.5 1.84,-3.23 0,-0.54 -0.19,-0.98 -0.58,-1.33 -0.39,-0.35 -0.89,-0.52 -1.5,-0.52 -1.1899996,0 -2.0599996,0.7 -2.0599996,1.89 v 0.52 c 0,0.07 -0.03,0.13 -0.08,0.18 -0.04,0.04 -0.09,0.06 -0.16,0.06 h -1.86 a 0.28,0.28 0 0 1 -0.18,-0.06 0.28,0.28 0 0 1 -0.06,-0.18 v -0.86 c 0.08,-2.26 2.06,-3.54 4.3999996,-3.54 2.82,0 4.42,1.75 4.42,3.8 0,1.09 -0.58,2.35 -1.74,3.77 -1.24,1.53 -2.6,2.96 -3.9199996,4.42 z" />
  <g
     id="club_1"
     transform="translate(-119.99595,-1.6909403e-4)">
    <g
       id="card"
       transform="matrix(0.83103,0,0,0.83565,-1641.87,-580.266)">
      <rect
         id="card_face"
         x="1976.6"
         y="695.289"
         width="142.599"
         height="213.601"
         rx="9.6000004"
         ry="9.6000004"
         fill="#ffffff"
         stroke="#333333"
         stroke-width="1.8" />
    </g>
    <use
       id="u2940"
       transform="rotate(180,60.034,90)"
       xlink:href="#pip_club_S" />
    <path
       id="pip_club"
       d="m 60,75 a 5,5 0 0 0 -3,9 c 1.35,1 2,1.5 2,4 0,0.83 -0.67,1.5 -1.5,1.5 -2.25,0 -2.5,-0.65 -3.5,-2 a 5,5 0 0 0 -4,-2 c -3.33,0 -5,2.5 -5,5 0,2.5 1.67,5 5,5 a 5,5 0 0 0 4,-2 c 1,-1.35 1.25,-2 3.5,-2 0.83,0 1.5,0.67 1.5,1.5 0.1,7.16 -2.13,9 -3.88,11 l 0.75,1 c 0,0 1.83,-0.85 4.13,-0.85 2.3,0 4.25,0.85 4.25,0.85 L 65,104 c -1.91,-1.9 -4,-4 -4,-11 0,-0.83 0.67,-1.5 1.5,-1.5 2.25,0 2.5,0.65 3.5,2 a 5,5 0 1 0 0,-6 c -1,1.35 -1.25,2 -3.5,2 A 1.5,1.5 0 0 1 61,88 c 0,-2.5 0.65,-3 2,-4 a 5,5 0 0 0 -3,-9 z"
       fill="#333333" />
    <use
       id="pip_club_S"
       transform="matrix(0.367,0,0,0.367,-11.05,-3.25)"
       xlink:href="#pip_club" />
  </g>
  <g
     id="club_2"
     transform="translate(-119.99595,-1.6909403e-4)">
    <use
       transform="translate(120)"
       xlink:href="#card"
       id="use51" />
    <use
       id="u1410"
       transform="translate(120,-62.76)"
       xlink:href="#pip_club" />
    <use
       id="u1780"
       transform="matrix(1,0,0,-1,120,242.758)"
       xlink:href="#pip_club" />
    <use
       transform="translate(120)"
       xlink:href="#pip_club_S"
       id="use52" />
    <use
       transform="translate(120)"
       xlink:href="#u2940"
       id="use53" />
    <use
       transform="translate(119.99595,100.00017)"
       style="fill:#333333"
       xlink:href="#2"
       id="use54" />
    <use
       transform="rotate(180,120.00203,39.999915)"
       style="fill:#333333"
       xlink:href="#2"
       id="use55" />
  </g>
</svg>
