<?xml version="1.0" encoding="UTF-8" standalone="no"?>
<svg
   width="119.9999"
   height="179.99983"
   version="1.1"
   viewBox="0 0 119.9999 179.99983"
   preserveAspectRatio="none"
   id="svg381"
   xmlns:xlink="http://www.w3.org/1999/xlink"
   xmlns="http://www.w3.org/2000/svg"
   xmlns:svg="http://www.w3.org/2000/svg">
  <defs
     id="defs20" />
  <path
     id="2"
     d="m 9.5440504,-261.08017 c -0.07,0.07 -0.04,0.12 0.04,0.12 H 15.28405 c 0.12,0 0.24,0.12 0.24,0.24 v 1.51 c 0,0.09 -0.07,0.24 -0.24,0.24 H 6.6840504 c -0.07,0 -0.24,-0.02 -0.24,-0.24 v -1.43 c 0,-0.12 0.04,-0.22 0.12,-0.3 1.55,-1.63 3,-3.35 4.4599996,-5.06 1.23,-1.42 1.84,-2.5 1.84,-3.23 0,-0.54 -0.19,-0.98 -0.58,-1.33 -0.39,-0.35 -0.89,-0.52 -1.5,-0.52 -1.1899996,0 -2.0599996,0.7 -2.0599996,1.89 v 0.52 c 0,0.07 -0.03,0.13 -0.08,0.18 -0.04,0.04 -0.09,0.06 -0.16,0.06 h -1.86 a 0.28,0.28 0 0 1 -0.18,-0.06 0.28,0.28 0 0 1 -0.06,-0.18 v -0.86 c 0.08,-2.26 2.06,-3.54 4.3999996,-3.54 2.82,0 4.42,1.75 4.42,3.8 0,1.09 -0.58,2.35 -1.74,3.77 -1.24,1.53 -2.6,2.96 -3.9199996,4.42 z" />
  <g
     id="club_1"
     transform="translate(-119.99595,-180.00017)">
    <g
       id="card"
       transform="matrix(0.83103,0,0,0.83565,-1641.87,-580.266)">
      <rect
         id="card_face"
         x="1976.6"
         y="695.289"
         width="142.599"
         height="213.601"
         rx="9.6000004"
         ry="9.6000004"
         fill="#ffffff"
         stroke="#333333"
         stroke-width="1.8" />
    </g>
  </g>
  <g
     id="diamond_1"
     transform="translate(-119.99595,-180.00017)">
    <use
       id="u5381"
       transform="rotate(180,60.034,270)"
       xlink:href="#pip_diam_S" />
    <path
       id="pip_diam"
       d="m 60,254.8 c 3,5.8 9.7,12.2 14,15.2 -4.3,3 -11,9.5 -14,15.2 -3,-5.8 -9.7,-12.2 -14,-15.2 4.3,-3 11,-9.5 14,-15.2 z"
       fill="#ee3333" />
    <use
       id="pip_diam_S"
       transform="matrix(0.393,0,0,0.393,-12.82,104.12)"
       xlink:href="#pip_diam" />
  </g>
  <g
     id="diamond_2"
     transform="translate(-119.99595,-180.00017)">
    <use
       transform="translate(120,180)"
       xlink:href="#card"
       id="use339" />
    <use
       id="u14700"
       transform="translate(119.996,-63.25)"
       xlink:href="#pip_diam" />
    <use
       id="u15110"
       transform="rotate(180,180,270)"
       xlink:href="#u14700" />
    <use
       transform="translate(120)"
       xlink:href="#pip_diam_S"
       id="use340" />
    <use
       transform="translate(120)"
       xlink:href="#u5381"
       id="use341" />
    <use
       transform="translate(119.99595,460.00017)"
       style="fill:#ee3333"
       xlink:href="#2"
       id="use342" />
    <use
       transform="rotate(180,120.00203,39.999915)"
       style="fill:#ee3333"
       xlink:href="#2"
       id="use343" />
  </g>
</svg>
