<?xml version="1.0" encoding="UTF-8" standalone="no"?>
<svg
   width="119.99991"
   height="179.99983"
   version="1.1"
   viewBox="0 0 119.99991 179.99983"
   preserveAspectRatio="none"
   id="svg381"
   xmlns:xlink="http://www.w3.org/1999/xlink"
   xmlns="http://www.w3.org/2000/svg"
   xmlns:svg="http://www.w3.org/2000/svg">
  <defs
     id="defs20" />
  <path
     id="4"
     d="m 15.674064,-264.73017 c 0.12,0 0.24,0.12 0.24,0.24 v 1.64 c 0,0.09 -0.07,0.24 -0.24,0.24 h -0.84 c -0.07,0 -0.1,0.03 -0.1,0.1 v 3.42 c 0,0.09 -0.07,0.24 -0.24,0.24 h -1.84 c -0.22,0 -0.24,-0.17 -0.24,-0.24 v -3.42 c 0,-0.07 -0.03,-0.1 -0.1,-0.1 H 6.2340635 c -0.22,0 -0.24,-0.17 -0.24,-0.24 v -1.31 c 0,-0.08 0.02,-0.18 0.06,-0.3 l 3.78,-8.5 c 0.05,-0.13 0.15,-0.2 0.2800005,-0.2 h 1.96 c 0.13,0 0.27,0.08 0.18,0.29 l -3.5600005,8.01 c -0.01,0.03 -0.01,0.05 0,0.08 0.01,0.03 0.03,0.04 0.06,0.05 h 3.5600005 c 0.07,0 0.1,-0.03 0.1,-0.1 v -2.79 c 0,-0.17 0.15,-0.24 0.24,-0.24 h 1.84 c 0.12,0 0.24,0.12 0.24,0.24 v 2.78 c 0,0.07 0.03,0.1 0.1,0.1 z" />
  <g
     id="club_1"
     transform="translate(-359.99594,-180.00017)">
    <g
       id="card"
       transform="matrix(0.83103,0,0,0.83565,-1641.87,-580.266)">
      <rect
         id="card_face"
         x="1976.6"
         y="695.289"
         width="142.599"
         height="213.601"
         rx="9.6000004"
         ry="9.6000004"
         fill="#ffffff"
         stroke="#333333"
         stroke-width="1.8" />
    </g>
  </g>
  <g
     id="diamond_1"
     transform="translate(-359.99594,-180.00017)">
    <use
       id="u5381"
       transform="rotate(180,60.034,270)"
       xlink:href="#pip_diam_S" />
    <path
       id="pip_diam"
       d="m 60,254.8 c 3,5.8 9.7,12.2 14,15.2 -4.3,3 -11,9.5 -14,15.2 -3,-5.8 -9.7,-12.2 -14,-15.2 4.3,-3 11,-9.5 14,-15.2 z"
       fill="#ee3333" />
    <use
       id="pip_diam_S"
       transform="matrix(0.393,0,0,0.393,-12.82,104.12)"
       xlink:href="#pip_diam" />
  </g>
  <g
     id="diamond_2"
     transform="translate(-359.99594,-180.00017)">
    <use
       id="u14700"
       transform="translate(119.996,-63.25)"
       xlink:href="#pip_diam" />
    <use
       id="u15110"
       transform="rotate(180,180,270)"
       xlink:href="#u14700" />
  </g>
  <g
     id="diamond_3"
     transform="translate(-359.99594,-180.00017)">
    <use
       id="u15200"
       transform="translate(120)"
       xlink:href="#u14700" />
    <use
       id="u15202"
       transform="translate(120)"
       xlink:href="#u15110" />
  </g>
  <g
     id="diamond_4"
     transform="translate(-359.99594,-180.00017)">
    <use
       transform="translate(360,180)"
       xlink:href="#card"
       id="use349" />
    <use
       id="u15206"
       transform="translate(95)"
       xlink:href="#u15200" />
    <use
       id="u15208"
       transform="translate(95)"
       xlink:href="#u15202" />
    <use
       id="u15210"
       transform="translate(50)"
       xlink:href="#u15206" />
    <use
       id="u15212"
       transform="translate(50)"
       xlink:href="#u15208" />
    <use
       transform="translate(360)"
       xlink:href="#pip_diam_S"
       id="use350" />
    <use
       transform="translate(360)"
       xlink:href="#u5381"
       id="use351" />
    <use
       transform="translate(359.99594,460.00017)"
       style="fill:#ee3333"
       xlink:href="#4"
       id="use352" />
    <use
       transform="rotate(180,240.00203,39.999915)"
       style="fill:#ee3333"
       xlink:href="#4"
       id="use353" />
  </g>
</svg>
