<?xml version="1.0" encoding="UTF-8" standalone="no"?>
<svg
   width="119.99991"
   height="179.99983"
   version="1.1"
   viewBox="0 0 119.99991 179.99983"
   preserveAspectRatio="none"
   id="svg381"
   xmlns:xlink="http://www.w3.org/1999/xlink"
   xmlns="http://www.w3.org/2000/svg"
   xmlns:svg="http://www.w3.org/2000/svg">
  <defs
     id="defs20" />
  <path
     id="5"
     d="m 15.354065,-263.41017 c 0,3.28 -2.27,4.53 -4.42,4.53 -3.35,0 -4.18,-2.55 -4.38,-3.68 v -0.03 c 0,-0.15 0.08,-0.22 0.24,-0.22 h 1.9 c 0.13,0 0.22,0.07 0.26,0.22 0.03,0.18 0.33,1.72 1.96,1.72 1.77,0 2.08,-1.74 2.08,-2.54 0,-1.17 -0.37,-2.48 -2.02,-2.48 -0.81,0 -1.71,0.39 -1.94,1.12 -0.05,0.13 -0.15,0.19 -0.28,0.19 h -1.94 c -0.22,0 -0.24,-0.17 -0.24,-0.24 v -7.86 c 0,-0.17 0.15,-0.24 0.24,-0.24 h 7.78 c 0.12,0 0.24,0.12 0.24,0.24 v 1.5 c 0,0.09 -0.07,0.24 -0.24,0.24 h -5.6 c -0.07,0 -0.1,0.03 -0.1,0.1 l -0.02,3.58 c 0,0.05 0.01,0.09 0.04,0.1 0.03,0 0.05,-0.01 0.08,-0.04 0.63,-0.47 1.38,-0.7 2.26,-0.7 1.66,0 4.1,0.89 4.1,4.49 z" />
  <g
     id="club_1"
     transform="translate(-479.99593,-180.00017)">
    <g
       id="card"
       transform="matrix(0.83103,0,0,0.83565,-1641.87,-580.266)">
      <rect
         id="card_face"
         x="1976.6"
         y="695.289"
         width="142.599"
         height="213.601"
         rx="9.6000004"
         ry="9.6000004"
         fill="#ffffff"
         stroke="#333333"
         stroke-width="1.8" />
    </g>
  </g>
  <g
     id="diamond_1"
     transform="translate(-479.99593,-180.00017)">
    <use
       id="u5381"
       transform="rotate(180,60.034,270)"
       xlink:href="#pip_diam_S" />
    <path
       id="pip_diam"
       d="m 60,254.8 c 3,5.8 9.7,12.2 14,15.2 -4.3,3 -11,9.5 -14,15.2 -3,-5.8 -9.7,-12.2 -14,-15.2 4.3,-3 11,-9.5 14,-15.2 z"
       fill="#ee3333" />
    <use
       id="pip_diam_S"
       transform="matrix(0.393,0,0,0.393,-12.82,104.12)"
       xlink:href="#pip_diam" />
  </g>
  <g
     id="diamond_2"
     transform="translate(-479.99593,-180.00017)">
    <use
       id="u14700"
       transform="translate(119.996,-63.25)"
       xlink:href="#pip_diam" />
    <use
       id="u15110"
       transform="rotate(180,180,270)"
       xlink:href="#u14700" />
  </g>
  <g
     id="diamond_3"
     transform="translate(-479.99593,-180.00017)">
    <use
       id="u15200"
       transform="translate(120)"
       xlink:href="#u14700" />
    <use
       id="u15202"
       transform="translate(120)"
       xlink:href="#u15110" />
    <use
       id="u15204"
       transform="translate(240)"
       xlink:href="#pip_diam" />
  </g>
  <g
     id="diamond_4"
     transform="translate(-479.99593,-180.00017)">
    <use
       id="u15206"
       transform="translate(95)"
       xlink:href="#u15200" />
    <use
       id="u15208"
       transform="translate(95)"
       xlink:href="#u15202" />
    <use
       id="u15210"
       transform="translate(50)"
       xlink:href="#u15206" />
    <use
       id="u15212"
       transform="translate(50)"
       xlink:href="#u15208" />
  </g>
  <g
     id="diamond_5"
     transform="translate(-479.99593,-180.00017)">
    <use
       transform="translate(480,180)"
       xlink:href="#card"
       id="use354" />
    <use
       id="u15214"
       transform="translate(120)"
       xlink:href="#u15206" />
    <use
       id="u15216"
       transform="translate(120)"
       xlink:href="#u15208" />
    <use
       id="u15218"
       transform="translate(120)"
       xlink:href="#u15210" />
    <use
       id="u15220"
       transform="translate(120)"
       xlink:href="#u15212" />
    <use
       transform="translate(240)"
       xlink:href="#u15204"
       id="use355" />
    <use
       transform="translate(480)"
       xlink:href="#pip_diam_S"
       id="use356" />
    <use
       transform="translate(480)"
       xlink:href="#u5381"
       id="use357" />
    <use
       transform="translate(479.99593,460.00017)"
       style="fill:#ee3333"
       xlink:href="#5"
       id="use358" />
    <use
       transform="rotate(180,300.00203,39.999915)"
       style="fill:#ee3333"
       xlink:href="#5"
       id="use359" />
  </g>
</svg>
