<?xml version="1.0" encoding="UTF-8" standalone="no"?>
<svg
   width="119.99988"
   height="179.99985"
   version="1.1"
   viewBox="0 0 119.99988 179.99985"
   preserveAspectRatio="none"
   id="svg381"
   xmlns:xlink="http://www.w3.org/1999/xlink"
   xmlns="http://www.w3.org/2000/svg"
   xmlns:svg="http://www.w3.org/2000/svg">
  <defs
     id="defs20" />
  <path
     id="6"
     d="m 6.5540387,-83.430169 v -6.1 c 0,-2.11 1.64,-3.62 4.2799993,-3.62 2.41,0 4.18,1.34 4.18,3.52 v 0.44 c 0,0.17 -0.15,0.24 -0.24,0.24 h -1.84 c -0.12,0 -0.24,-0.12 -0.24,-0.24 v -0.14 c 0,-1.04 -0.71,-1.82 -1.86,-1.82 -1.1999993,0 -1.9599993,0.82 -1.9599993,1.9 v 2.2 c 0,0.04 0.01,0.07 0.04,0.08 0.03,0.01 0.05,0.01 0.08,-0.02 0.57,-0.56 1.3499993,-0.84 2.3399993,-0.84 2.43,0 4.02,1.64 4.02,4.42 0,2.99 -1.88,4.56 -4.38,4.56 -2.2399993,0 -4.4199993,-1.3 -4.4199993,-4.58 z m 2.32,0.12 c 0,0.74 0.2,2.44 2.0599993,2.44 1.97,0 2.1,-1.99 2.1,-2.5 0,-1.29 -0.6,-2.5 -2.08,-2.5 -1.8299993,0 -2.0799993,1.65 -2.0799993,2.56 z" />
  <g
     id="club_6"
     transform="translate(-599.99596,-1.6909403e-4)">
    <use
       transform="translate(600)"
       xlink:href="#card"
       id="use33" />
    <use
       id="u3337"
       transform="translate(120)"
       xlink:href="#u2622" />
    <use
       id="u3339"
       transform="translate(120)"
       xlink:href="#u2624" />
    <use
       id="u3341"
       transform="translate(120)"
       xlink:href="#u2626" />
    <use
       id="u3343"
       transform="translate(120)"
       xlink:href="#u2628" />
    <use
       id="u3345"
       transform="translate(0,62.75)"
       xlink:href="#u3337" />
    <use
       id="u3347"
       transform="translate(0,62.75)"
       xlink:href="#u3341" />
    <use
       transform="translate(600)"
       xlink:href="#pip_club_S"
       id="use34" />
    <use
       transform="translate(600)"
       xlink:href="#u2940"
       id="use35" />
    <use
       transform="translate(599.99596,100.00017)"
       style="fill:#333333"
       xlink:href="#6"
       id="use36" />
    <use
       transform="rotate(180,360.00202,39.999915)"
       style="fill:#333333"
       xlink:href="#6"
       id="use37" />
  </g>
  <g
     id="club_1"
     transform="translate(-599.99596,-1.6909403e-4)">
    <g
       id="card"
       transform="matrix(0.83103,0,0,0.83565,-1641.87,-580.266)">
      <rect
         id="card_face"
         x="1976.6"
         y="695.289"
         width="142.599"
         height="213.601"
         rx="9.6000004"
         ry="9.6000004"
         fill="#ffffff"
         stroke="#333333"
         stroke-width="1.8" />
    </g>
    <use
       id="u2940"
       transform="rotate(180,60.034,90)"
       xlink:href="#pip_club_S" />
    <path
       id="pip_club"
       d="m 60,75 a 5,5 0 0 0 -3,9 c 1.35,1 2,1.5 2,4 0,0.83 -0.67,1.5 -1.5,1.5 -2.25,0 -2.5,-0.65 -3.5,-2 a 5,5 0 0 0 -4,-2 c -3.33,0 -5,2.5 -5,5 0,2.5 1.67,5 5,5 a 5,5 0 0 0 4,-2 c 1,-1.35 1.25,-2 3.5,-2 0.83,0 1.5,0.67 1.5,1.5 0.1,7.16 -2.13,9 -3.88,11 l 0.75,1 c 0,0 1.83,-0.85 4.13,-0.85 2.3,0 4.25,0.85 4.25,0.85 L 65,104 c -1.91,-1.9 -4,-4 -4,-11 0,-0.83 0.67,-1.5 1.5,-1.5 2.25,0 2.5,0.65 3.5,2 a 5,5 0 1 0 0,-6 c -1,1.35 -1.25,2 -3.5,2 A 1.5,1.5 0 0 1 61,88 c 0,-2.5 0.65,-3 2,-4 a 5,5 0 0 0 -3,-9 z"
       fill="#333333" />
    <use
       id="pip_club_S"
       transform="matrix(0.367,0,0,0.367,-11.05,-3.25)"
       xlink:href="#pip_club" />
  </g>
  <g
     id="club_2"
     transform="translate(-599.99596,-1.6909403e-4)">
    <use
       id="u1410"
       transform="translate(120,-62.76)"
       xlink:href="#pip_club" />
    <use
       id="u1780"
       transform="matrix(1,0,0,-1,120,242.758)"
       xlink:href="#pip_club" />
  </g>
  <g
     id="club_3"
     transform="translate(-599.99596,-1.6909403e-4)">
    <use
       id="u1782"
       transform="translate(120)"
       xlink:href="#u1410" />
    <use
       id="u1784"
       transform="translate(120)"
       xlink:href="#u1780" />
  </g>
  <g
     id="club_4"
     transform="translate(-599.99596,-1.6909403e-4)">
    <use
       id="u2414"
       transform="translate(95,0.01)"
       xlink:href="#u1782" />
    <use
       id="u2416"
       transform="translate(95)"
       xlink:href="#u1784" />
    <use
       id="u2538"
       transform="translate(50)"
       xlink:href="#u2414" />
    <use
       id="u2540"
       transform="translate(50)"
       xlink:href="#u2416" />
  </g>
  <g
     id="club_5"
     transform="translate(-599.99596,-1.6909403e-4)">
    <use
       id="u2622"
       transform="translate(120)"
       xlink:href="#u2414" />
    <use
       id="u2624"
       transform="translate(120)"
       xlink:href="#u2416" />
    <use
       id="u2626"
       transform="translate(120)"
       xlink:href="#u2538" />
    <use
       id="u2628"
       transform="translate(120)"
       xlink:href="#u2540" />
  </g>
</svg>
