<?xml version="1.0" encoding="UTF-8" standalone="no"?>
<svg
   width="119.99988"
   height="179.99982"
   version="1.1"
   viewBox="0 0 119.99988 179.99982"
   preserveAspectRatio="none"
   id="svg381"
   xmlns:xlink="http://www.w3.org/1999/xlink"
   xmlns="http://www.w3.org/2000/svg"
   xmlns:svg="http://www.w3.org/2000/svg">
  <defs
     id="defs20" />
  <path
     id="6"
     d="m 6.5540387,-443.43017 v -6.1 c 0,-2.11 1.64,-3.62 4.2799993,-3.62 2.41,0 4.18,1.34 4.18,3.52 v 0.44 c 0,0.17 -0.15,0.24 -0.24,0.24 h -1.84 c -0.12,0 -0.24,-0.12 -0.24,-0.24 v -0.14 c 0,-1.04 -0.71,-1.82 -1.86,-1.82 -1.1999993,0 -1.9599993,0.82 -1.9599993,1.9 v 2.2 c 0,0.04 0.01,0.07 0.04,0.08 0.03,0.01 0.05,0.01 0.08,-0.02 0.57,-0.56 1.3499993,-0.84 2.3399993,-0.84 2.43,0 4.02,1.64 4.02,4.42 0,2.99 -1.88,4.56 -4.38,4.56 -2.2399993,0 -4.4199993,-1.3 -4.4199993,-4.58 z m 2.32,0.12 c 0,0.74 0.2,2.44 2.0599993,2.44 1.97,0 2.1,-1.99 2.1,-2.5 0,-1.29 -0.6,-2.5 -2.08,-2.5 -1.8299993,0 -2.0799993,1.65 -2.0799993,2.56 z" />
  <g
     id="club_1"
     transform="translate(-599.99596,-360.00017)">
    <g
       id="card"
       transform="matrix(0.83103,0,0,0.83565,-1641.87,-580.266)">
      <rect
         id="card_face"
         x="1976.6"
         y="695.289"
         width="142.599"
         height="213.601"
         rx="9.6000004"
         ry="9.6000004"
         fill="#ffffff"
         stroke="#333333"
         stroke-width="1.8" />
    </g>
  </g>
  <g
     id="heart_6"
     transform="translate(-599.99596,-360.00017)">
    <use
       transform="translate(600,360)"
       xlink:href="#card"
       id="use215" />
    <use
       transform="translate(600)"
       xlink:href="#pip_heart_S"
       id="use216" />
    <use
       id="u21975"
       transform="translate(335.03)"
       xlink:href="#u21852" />
    <use
       id="u21977"
       transform="translate(334.97)"
       xlink:href="#u21854" />
    <use
       id="u21979"
       transform="translate(334.97)"
       xlink:href="#u21856" />
    <use
       id="u21981"
       transform="translate(49.97)"
       xlink:href="#u21975" />
    <use
       id="u21983"
       transform="translate(50.03)"
       xlink:href="#u21977" />
    <use
       id="u21985"
       transform="translate(50.03)"
       xlink:href="#u21979" />
    <use
       transform="translate(600)"
       xlink:href="#pip_heart_S"
       id="use217" />
    <use
       transform="translate(600)"
       xlink:href="#u9338"
       id="use218" />
    <use
       transform="translate(599.99596,820.00017)"
       style="fill:#ee3333"
       xlink:href="#6"
       id="use219" />
    <use
       transform="rotate(180,360.00202,39.999911)"
       style="fill:#ee3333"
       xlink:href="#6"
       id="use220" />
  </g>
  <g
     id="heart_1"
     transform="translate(-599.99596,-360.00017)">
    <use
       id="pip_heart_S"
       transform="matrix(0.386,0,0,0.37,-12.4,222.9)"
       xlink:href="#pip_heart" />
    <use
       id="u9338"
       transform="rotate(180,60.034,450)"
       xlink:href="#pip_heart_S" />
    <path
       id="pip_heart"
       d="m 53,438 c -3.87,0 -7,2.86 -7,7 0,7.5 8,10 14,20 6.11,-10.19 14,-12.5 14,-20 a 6.85,6.85 0 0 0 -7,-7 c -3.68,0 -5.7,2.3 -7,5 -1.3,-2.7 -3.32,-5 -7,-5 z"
       fill="#ee3333" />
  </g>
  <g
     id="heart_2"
     transform="translate(-599.99596,-360.00017)">
    <use
       id="u21397"
       transform="translate(120,-66.5)"
       xlink:href="#pip_heart" />
    <use
       id="u21762"
       transform="rotate(180,180.004,450)"
       xlink:href="#u21397" />
  </g>
  <g
     id="heart_3"
     transform="translate(-599.99596,-360.00017)">
    <use
       id="u21852"
       transform="translate(120)"
       xlink:href="#u21397" />
    <use
       id="u21854"
       transform="translate(120)"
       xlink:href="#u21762" />
    <use
       id="u21856"
       transform="translate(0,66.5)"
       xlink:href="#u21852" />
  </g>
</svg>
