<?xml version="1.0" encoding="UTF-8" standalone="no"?>
<svg
   width="119.99988"
   height="179.99985"
   version="1.1"
   viewBox="0 0 119.99988 179.99985"
   preserveAspectRatio="none"
   id="svg381"
   xmlns:xlink="http://www.w3.org/1999/xlink"
   xmlns="http://www.w3.org/2000/svg"
   xmlns:svg="http://www.w3.org/2000/svg">
  <defs
     id="defs20" />
  <path
     id="7"
     d="m 8.6840407,-78.900169 c -0.2,0 -0.27,-0.09 -0.2,-0.28 l 4.4199993,-11.6 c 0.03,-0.08 0,-0.12 -0.08,-0.12 H 8.5240407 c -0.07,0 -0.1,0.03 -0.1,0.1 v 0.9 c 0,0.09 -0.07,0.24 -0.24,0.24 h -1.44 c -0.22,0 -0.24,-0.17 -0.24,-0.24 v -2.76 c 0,-0.17 0.15,-0.24 0.24,-0.24 H 15.16404 c 0.12,0 0.24,0.12 0.24,0.24 v 1.6 c 0,0.08 -0.02,0.18 -0.06,0.3 l -4.4,11.66 c -0.04,0.13 -0.13,0.2 -0.28,0.2 z" />
  <g
     id="club_6"
     transform="translate(-719.99596,-1.6909403e-4)">
    <use
       id="u3337"
       transform="translate(120)"
       xlink:href="#u2622" />
    <use
       id="u3339"
       transform="translate(120)"
       xlink:href="#u2624" />
    <use
       id="u3341"
       transform="translate(120)"
       xlink:href="#u2626" />
    <use
       id="u3343"
       transform="translate(120)"
       xlink:href="#u2628" />
    <use
       id="u3345"
       transform="translate(0,62.75)"
       xlink:href="#u3337" />
    <use
       id="u3347"
       transform="translate(0,62.75)"
       xlink:href="#u3341" />
  </g>
  <g
     id="club_1"
     transform="translate(-719.99596,-1.6909403e-4)">
    <g
       id="card"
       transform="matrix(0.83103,0,0,0.83565,-1641.87,-580.266)">
      <rect
         id="card_face"
         x="1976.6"
         y="695.289"
         width="142.599"
         height="213.601"
         rx="9.6000004"
         ry="9.6000004"
         fill="#ffffff"
         stroke="#333333"
         stroke-width="1.8" />
    </g>
    <use
       id="u2940"
       transform="rotate(180,60.034,90)"
       xlink:href="#pip_club_S" />
    <path
       id="pip_club"
       d="m 60,75 a 5,5 0 0 0 -3,9 c 1.35,1 2,1.5 2,4 0,0.83 -0.67,1.5 -1.5,1.5 -2.25,0 -2.5,-0.65 -3.5,-2 a 5,5 0 0 0 -4,-2 c -3.33,0 -5,2.5 -5,5 0,2.5 1.67,5 5,5 a 5,5 0 0 0 4,-2 c 1,-1.35 1.25,-2 3.5,-2 0.83,0 1.5,0.67 1.5,1.5 0.1,7.16 -2.13,9 -3.88,11 l 0.75,1 c 0,0 1.83,-0.85 4.13,-0.85 2.3,0 4.25,0.85 4.25,0.85 L 65,104 c -1.91,-1.9 -4,-4 -4,-11 0,-0.83 0.67,-1.5 1.5,-1.5 2.25,0 2.5,0.65 3.5,2 a 5,5 0 1 0 0,-6 c -1,1.35 -1.25,2 -3.5,2 A 1.5,1.5 0 0 1 61,88 c 0,-2.5 0.65,-3 2,-4 a 5,5 0 0 0 -3,-9 z"
       fill="#333333" />
    <use
       id="pip_club_S"
       transform="matrix(0.367,0,0,0.367,-11.05,-3.25)"
       xlink:href="#pip_club" />
  </g>
  <g
     id="club_2"
     transform="translate(-719.99596,-1.6909403e-4)">
    <use
       id="u1410"
       transform="translate(120,-62.76)"
       xlink:href="#pip_club" />
    <use
       id="u1780"
       transform="matrix(1,0,0,-1,120,242.758)"
       xlink:href="#pip_club" />
  </g>
  <g
     id="club_3"
     transform="translate(-719.99596,-1.6909403e-4)">
    <use
       id="u1782"
       transform="translate(120)"
       xlink:href="#u1410" />
    <use
       id="u1784"
       transform="translate(120)"
       xlink:href="#u1780" />
  </g>
  <g
     id="club_4"
     transform="translate(-719.99596,-1.6909403e-4)">
    <use
       id="u2414"
       transform="translate(95,0.01)"
       xlink:href="#u1782" />
    <use
       id="u2416"
       transform="translate(95)"
       xlink:href="#u1784" />
    <use
       id="u2538"
       transform="translate(50)"
       xlink:href="#u2414" />
    <use
       id="u2540"
       transform="translate(50)"
       xlink:href="#u2416" />
  </g>
  <g
     id="club_5"
     transform="translate(-719.99596,-1.6909403e-4)">
    <use
       id="u2622"
       transform="translate(120)"
       xlink:href="#u2414" />
    <use
       id="u2624"
       transform="translate(120)"
       xlink:href="#u2416" />
    <use
       id="u2626"
       transform="translate(120)"
       xlink:href="#u2538" />
    <use
       id="u2628"
       transform="translate(120)"
       xlink:href="#u2540" />
  </g>
  <g
     id="club_7"
     transform="translate(-719.99596,-1.6909403e-4)">
    <use
       transform="translate(720)"
       xlink:href="#card"
       id="use83" />
    <use
       id="u3961"
       transform="translate(120)"
       xlink:href="#u3337" />
    <use
       id="u3963"
       transform="translate(120)"
       xlink:href="#u3339" />
    <use
       id="u3965"
       transform="translate(120)"
       xlink:href="#u3341" />
    <use
       id="u3967"
       transform="translate(120)"
       xlink:href="#u3343" />
    <use
       id="u3969"
       transform="translate(120)"
       xlink:href="#u3345" />
    <use
       id="u3971"
       transform="translate(120)"
       xlink:href="#u3347" />
    <use
       id="u3973"
       transform="translate(25,31.38)"
       xlink:href="#u3961" />
    <use
       transform="translate(720)"
       xlink:href="#pip_club_S"
       id="use84" />
    <use
       transform="translate(720)"
       xlink:href="#u2940"
       id="use85" />
    <use
       transform="translate(719.99596,100.00017)"
       style="fill:#333333"
       xlink:href="#7"
       id="use86" />
    <use
       transform="rotate(180,420.00202,39.999915)"
       style="fill:#333333"
       xlink:href="#7"
       id="use87" />
  </g>
</svg>
