<?xml version="1.0" encoding="UTF-8" standalone="no"?>
<svg
   width="119.99988"
   height="179.99982"
   version="1.1"
   viewBox="0 0 119.99988 179.99982"
   preserveAspectRatio="none"
   id="svg381"
   xmlns:xlink="http://www.w3.org/1999/xlink"
   xmlns="http://www.w3.org/2000/svg"
   xmlns:svg="http://www.w3.org/2000/svg">
  <defs
     id="defs20" />
  <path
     id="9"
     d="m 15.354045,-448.57017 v 6.1 c 0,2.11 -1.64,3.62 -4.28,3.62 -2.4100001,0 -4.1800001,-1.34 -4.1800001,-3.52 v -0.44 c 0,-0.17 0.15,-0.24 0.24,-0.24 h 1.84 c 0.12,0 0.24,0.12 0.24,0.24 v 0.14 c 0,1.04 0.71,1.82 1.8600001,1.82 1.2,0 1.96,-0.82 1.96,-1.9 v -2.2 c 0,-0.04 -0.01,-0.07 -0.04,-0.08 -0.03,-0.01 -0.05,-0.01 -0.08,0.02 -0.57,0.56 -1.35,0.84 -2.34,0.84 -2.4300001,0 -4.0200001,-1.64 -4.0200001,-4.42 0,-2.99 1.88,-4.56 4.3800001,-4.56 2.24,0 4.42,1.3 4.42,4.58 z m -2.32,-0.12 c 0,-0.74 -0.2,-2.44 -2.06,-2.44 -1.9700001,0 -2.1000001,1.99 -2.1000001,2.5 0,1.29 0.6,2.5 2.0800001,2.5 1.83,0 2.08,-1.65 2.08,-2.56 z" />
  <g
     id="club_1"
     transform="translate(-959.99595,-360.00017)">
    <g
       id="card"
       transform="matrix(0.83103,0,0,0.83565,-1641.87,-580.266)">
      <rect
         id="card_face"
         x="1976.6"
         y="695.289"
         width="142.599"
         height="213.601"
         rx="9.6000004"
         ry="9.6000004"
         fill="#ffffff"
         stroke="#333333"
         stroke-width="1.8" />
    </g>
  </g>
  <g
     id="heart_6"
     transform="translate(-959.99595,-360.00017)">
    <use
       id="u21975"
       transform="translate(335.03)"
       xlink:href="#u21852" />
    <use
       id="u21977"
       transform="translate(334.97)"
       xlink:href="#u21854" />
    <use
       id="u21979"
       transform="translate(334.97)"
       xlink:href="#u21856" />
    <use
       id="u21981"
       transform="translate(49.97)"
       xlink:href="#u21975" />
    <use
       id="u21983"
       transform="translate(50.03)"
       xlink:href="#u21977" />
    <use
       id="u21985"
       transform="translate(50.03)"
       xlink:href="#u21979" />
  </g>
  <g
     id="heart_1"
     transform="translate(-959.99595,-360.00017)">
    <use
       id="pip_heart_S"
       transform="matrix(0.386,0,0,0.37,-12.4,222.9)"
       xlink:href="#pip_heart" />
    <use
       id="u9338"
       transform="rotate(180,60.034,450)"
       xlink:href="#pip_heart_S" />
    <path
       id="pip_heart"
       d="m 53,438 c -3.87,0 -7,2.86 -7,7 0,7.5 8,10 14,20 6.11,-10.19 14,-12.5 14,-20 a 6.85,6.85 0 0 0 -7,-7 c -3.68,0 -5.7,2.3 -7,5 -1.3,-2.7 -3.32,-5 -7,-5 z"
       fill="#ee3333" />
  </g>
  <g
     id="heart_2"
     transform="translate(-959.99595,-360.00017)">
    <use
       id="u21397"
       transform="translate(120,-66.5)"
       xlink:href="#pip_heart" />
    <use
       id="u21762"
       transform="rotate(180,180.004,450)"
       xlink:href="#u21397" />
  </g>
  <g
     id="heart_3"
     transform="translate(-959.99595,-360.00017)">
    <use
       id="u21852"
       transform="translate(120)"
       xlink:href="#u21397" />
    <use
       id="u21854"
       transform="translate(120)"
       xlink:href="#u21762" />
    <use
       id="u21856"
       transform="translate(0,66.5)"
       xlink:href="#u21852" />
  </g>
  <g
     id="heart_7"
     transform="translate(-959.99595,-360.00017)">
    <use
       id="u21987"
       transform="translate(119.97)"
       xlink:href="#u21975" />
    <use
       id="u21989"
       transform="translate(120.03)"
       xlink:href="#u21977" />
    <use
       id="u21993"
       transform="translate(120)"
       xlink:href="#u21981" />
    <use
       id="u21995"
       transform="translate(120)"
       xlink:href="#u21983" />
    <use
       id="u21997"
       transform="translate(120)"
       xlink:href="#u21985" />
  </g>
  <g
     id="heart_8"
     transform="translate(-959.99595,-360.00017)">
    <use
       id="u22001"
       transform="translate(120)"
       xlink:href="#u21987" />
    <use
       id="u22003"
       transform="translate(120)"
       xlink:href="#u21989" />
    <use
       id="u22007"
       transform="translate(120)"
       xlink:href="#u21993" />
    <use
       id="u22009"
       transform="translate(120)"
       xlink:href="#u21995" />
    <use
       id="u22011"
       transform="translate(120)"
       xlink:href="#u21997" />
  </g>
  <g
     id="heart_9"
     transform="translate(-959.99595,-360.00017)">
    <use
       transform="translate(960,360)"
       xlink:href="#card"
       id="use281" />
    <use
       id="u22788"
       transform="translate(120)"
       xlink:href="#u22001" />
    <use
       id="u22790"
       transform="translate(120)"
       xlink:href="#u22003" />
    <use
       id="u22794"
       transform="translate(120)"
       xlink:href="#u22007" />
    <use
       id="u22796"
       transform="translate(120)"
       xlink:href="#u22009" />
    <use
       id="u22798"
       transform="translate(120,-23.17)"
       xlink:href="#u22011" />
    <use
       id="u22804"
       transform="translate(0,-43.33)"
       xlink:href="#u22790" />
    <use
       id="u22806"
       transform="translate(0,-43.33)"
       xlink:href="#u22796" />
    <use
       id="u73669"
       transform="translate(70,-23.17)"
       xlink:href="#u22011" />
    <use
       transform="translate(24.97,24.67)"
       xlink:href="#u73669"
       id="use282" />
    <use
       transform="translate(960)"
       xlink:href="#pip_heart_S"
       id="use283" />
    <use
       transform="translate(960)"
       xlink:href="#u9338"
       id="use284" />
    <use
       transform="translate(959.99595,820.00017)"
       style="fill:#ee3333"
       xlink:href="#9"
       id="use285" />
    <use
       transform="rotate(180,540.00202,39.999911)"
       style="fill:#ee3333"
       xlink:href="#9"
       id="use286" />
  </g>
</svg>
