<?xml version="1.0" encoding="UTF-8" standalone="no"?>
<svg
   width="119.99988"
   height="179.99982"
   version="1.1"
   viewBox="0 0 119.99988 179.99982"
   preserveAspectRatio="none"
   id="svg381"
   xmlns:xlink="http://www.w3.org/1999/xlink"
   xmlns="http://www.w3.org/2000/svg"
   xmlns:svg="http://www.w3.org/2000/svg">
  <defs
     id="defs20" />
  <path
     id="10"
     d="m 12.714047,-453.00017 c -3.0200001,0 -3.7400001,2.69 -3.7400001,4.22 v 5.5 c 0,2.51 1.3200001,4.28 3.7400001,4.28 3.01,0 3.77,-2.74 3.77,-4.28 v -5.5 c 0,-3.17 -2.17,-4.22 -3.77,-4.22 z m -7.0900001,0.3 a 0.22,0.22 0 0 0 -0.2,0.23 v 12.94 c 0,0.05 0.01,0.23 0.2,0.23 h 1.5 c 0.12,0.01 0.21,-0.12 0.21,-0.23 v -12.94 c 0,-0.1 -0.1,-0.22 -0.2,-0.23 z m 7.0900001,1.65 c 1.02,0 1.86,0.7 1.86,2.2 v 5.68 c 0,1.51 -0.82,2.2 -1.86,2.2 -1.07,0 -1.84,-0.77 -1.84,-2.2 v -5.68 c 0,-1.42 0.78,-2.2 1.84,-2.2 z" />
  <g
     id="club_1"
     transform="translate(-1079.996,-360.00017)">
    <g
       id="card"
       transform="matrix(0.83103,0,0,0.83565,-1641.87,-580.266)">
      <rect
         id="card_face"
         x="1976.6"
         y="695.289"
         width="142.599"
         height="213.601"
         rx="9.6000004"
         ry="9.6000004"
         fill="#ffffff"
         stroke="#333333"
         stroke-width="1.8" />
    </g>
  </g>
  <g
     id="heart_10"
     transform="translate(-1079.996,-360.00017)">
    <use
       transform="translate(1080,360)"
       fill="#ee3333"
       stroke="#ee3333"
       xlink:href="#card"
       id="use204" />
    <use
       id="u22972"
       transform="translate(120)"
       xlink:href="#u22788" />
    <use
       id="u22974"
       transform="translate(120)"
       xlink:href="#u22790" />
    <use
       id="u22976"
       transform="translate(120)"
       xlink:href="#u22794" />
    <use
       transform="translate(120)"
       xlink:href="#u22796"
       id="use205" />
    <use
       id="u22980"
       transform="translate(120)"
       xlink:href="#u22798" />
    <use
       transform="translate(120)"
       xlink:href="#u22804"
       id="use206" />
    <use
       transform="translate(120)"
       xlink:href="#u22806"
       id="use207" />
    <use
       transform="translate(25,21.67)"
       xlink:href="#u22972"
       id="use208" />
    <use
       transform="translate(25,-21.66)"
       xlink:href="#u22974"
       id="use209" />
    <use
       transform="translate(-50)"
       xlink:href="#u22980"
       id="use210" />
    <use
       transform="translate(1080)"
       xlink:href="#pip_heart_S"
       id="use211" />
    <use
       transform="translate(1080)"
       xlink:href="#u9338"
       id="use212" />
    <use
       transform="translate(1079.996,820.00017)"
       style="fill:#ee3333"
       xlink:href="#10"
       id="use213" />
    <use
       transform="rotate(180,600.00202,39.999911)"
       style="fill:#ee3333"
       xlink:href="#10"
       id="use214" />
  </g>
  <g
     id="heart_6"
     transform="translate(-1079.996,-360.00017)">
    <use
       id="u21975"
       transform="translate(335.03)"
       xlink:href="#u21852" />
    <use
       id="u21977"
       transform="translate(334.97)"
       xlink:href="#u21854" />
    <use
       id="u21979"
       transform="translate(334.97)"
       xlink:href="#u21856" />
    <use
       id="u21981"
       transform="translate(49.97)"
       xlink:href="#u21975" />
    <use
       id="u21983"
       transform="translate(50.03)"
       xlink:href="#u21977" />
    <use
       id="u21985"
       transform="translate(50.03)"
       xlink:href="#u21979" />
  </g>
  <g
     id="heart_1"
     transform="translate(-1079.996,-360.00017)">
    <use
       id="pip_heart_S"
       transform="matrix(0.386,0,0,0.37,-12.4,222.9)"
       xlink:href="#pip_heart" />
    <use
       id="u9338"
       transform="rotate(180,60.034,450)"
       xlink:href="#pip_heart_S" />
    <path
       id="pip_heart"
       d="m 53,438 c -3.87,0 -7,2.86 -7,7 0,7.5 8,10 14,20 6.11,-10.19 14,-12.5 14,-20 a 6.85,6.85 0 0 0 -7,-7 c -3.68,0 -5.7,2.3 -7,5 -1.3,-2.7 -3.32,-5 -7,-5 z"
       fill="#ee3333" />
  </g>
  <g
     id="heart_2"
     transform="translate(-1079.996,-360.00017)">
    <use
       id="u21397"
       transform="translate(120,-66.5)"
       xlink:href="#pip_heart" />
    <use
       id="u21762"
       transform="rotate(180,180.004,450)"
       xlink:href="#u21397" />
  </g>
  <g
     id="heart_3"
     transform="translate(-1079.996,-360.00017)">
    <use
       id="u21852"
       transform="translate(120)"
       xlink:href="#u21397" />
    <use
       id="u21854"
       transform="translate(120)"
       xlink:href="#u21762" />
    <use
       id="u21856"
       transform="translate(0,66.5)"
       xlink:href="#u21852" />
  </g>
  <g
     id="heart_7"
     transform="translate(-1079.996,-360.00017)">
    <use
       id="u21987"
       transform="translate(119.97)"
       xlink:href="#u21975" />
    <use
       id="u21989"
       transform="translate(120.03)"
       xlink:href="#u21977" />
    <use
       id="u21993"
       transform="translate(120)"
       xlink:href="#u21981" />
    <use
       id="u21995"
       transform="translate(120)"
       xlink:href="#u21983" />
    <use
       id="u21997"
       transform="translate(120)"
       xlink:href="#u21985" />
  </g>
  <g
     id="heart_8"
     transform="translate(-1079.996,-360.00017)">
    <use
       id="u22001"
       transform="translate(120)"
       xlink:href="#u21987" />
    <use
       id="u22003"
       transform="translate(120)"
       xlink:href="#u21989" />
    <use
       id="u22007"
       transform="translate(120)"
       xlink:href="#u21993" />
    <use
       id="u22009"
       transform="translate(120)"
       xlink:href="#u21995" />
    <use
       id="u22011"
       transform="translate(120)"
       xlink:href="#u21997" />
  </g>
  <g
     id="heart_9"
     transform="translate(-1079.996,-360.00017)">
    <use
       id="u22788"
       transform="translate(120)"
       xlink:href="#u22001" />
    <use
       id="u22790"
       transform="translate(120)"
       xlink:href="#u22003" />
    <use
       id="u22794"
       transform="translate(120)"
       xlink:href="#u22007" />
    <use
       id="u22796"
       transform="translate(120)"
       xlink:href="#u22009" />
    <use
       id="u22798"
       transform="translate(120,-23.17)"
       xlink:href="#u22011" />
    <use
       id="u22804"
       transform="translate(0,-43.33)"
       xlink:href="#u22790" />
    <use
       id="u22806"
       transform="translate(0,-43.33)"
       xlink:href="#u22796" />
  </g>
</svg>
