<?xml version="1.0" encoding="UTF-8" standalone="no"?>
<svg
   width="202.5"
   height="315"
   version="1.1"
   id="svg1018"
   xmlns:xlink="http://www.w3.org/1999/xlink"
   xmlns="http://www.w3.org/2000/svg"
   xmlns:svg="http://www.w3.org/2000/svg">
  <defs
     id="defs1018" />
  <path
     id="2"
     d="M 25.7,-62.6 H 8.4 c 0,-4.9 4.2,-8.4 8.7,-9.6 4.4,-1.2 8.7,-4 8.7,-9 0.3,-5 -3.6,-9.2 -8.6,-9.2 -5,0 -9,4.2 -8.7,9.3"
     fill="none"
     stroke-linecap="square"
     stroke-linejoin="bevel"
     stroke-width="3.5" />
  <g
     id="club_2"
     transform="translate(-202.5)">
    <use
       transform="translate(202.5)"
       xlink:href="#card"
       id="use7" />
    <use
       id="u37954"
       transform="translate(202.5)"
       xlink:href="#clubS" />
    <use
       id="u37956"
       transform="translate(202.5)"
       xlink:href="#u37950" />
    <use
       id="u46754"
       transform="translate(202.55,-106.5)"
       xlink:href="#club" />
    <use
       id="u46756"
       transform="matrix(1,0,0,-1,202.55,421.5)"
       xlink:href="#club" />
    <use
       transform="translate(202.5,100)"
       style="stroke:#333333"
       xlink:href="#2"
       id="use8" />
    <use
       transform="rotate(180,202.55,107.5)"
       style="stroke:#333333"
       xlink:href="#2"
       id="use9" />
  </g>
  <g
     id="club_1"
     transform="translate(-202.5)">
    <rect
       id="card"
       x="0.69999999"
       y="0.69999999"
       width="201.10001"
       height="313.60001"
       rx="9"
       ry="9"
       fill="#ffffff"
       stroke="#333333"
       stroke-width="1.4" />
    <use
       id="u37950"
       transform="rotate(180,101.3,157.5)"
       xlink:href="#clubS" />
    <use
       id="clubS"
       transform="matrix(0.45,0,0,0.45,-28.38,-12.7)"
       xlink:href="#club" />
    <path
       id="club"
       d="m 101.25,132.5 a 11,11 0 0 0 -8.1,18.41 l -0.5,0.52 a 11,11 0 1 0 5.86,13.95 l 0.59,0.37 c 0,7.28 -2.74,13.39 -6.1,16.75 h 16.5 c -3.36,-3.36 -6.1,-9.47 -6.1,-16.75 l 0.59,-0.37 a 11,11 0 0 0 10.26,7.12 11,11 0 1 0 -4.4,-21.07 l -0.5,-0.52 a 11,11 0 0 0 -8.1,-18.41 z"
       style="fill:#333333" />
  </g>
</svg>
