<?xml version="1.0" encoding="UTF-8" standalone="no"?>
<svg
   width="202.5"
   height="315"
   version="1.1"
   id="svg1018"
   xmlns:xlink="http://www.w3.org/1999/xlink"
   xmlns="http://www.w3.org/2000/svg"
   xmlns:svg="http://www.w3.org/2000/svg">
  <defs
     id="defs1018" />
  <g
     id="3"
     transform="translate(-405,-3.2)"
     style="fill:none;stroke-width:3.5">
    <path
       d="m 415,-86.8 h 14.2 l -12.8,12.2"
       stroke-linecap="square"
       stroke-linejoin="bevel"
       id="path2" />
    <path
       d="m 416.3,-74.5 a 8.2,8.8 0 1 1 -2.4,6.2"
       id="path3" />
  </g>
  <g
     id="club_2"
     transform="translate(-405)">
    <use
       id="u46754"
       transform="translate(202.55,-106.5)"
       xlink:href="#club" />
    <use
       id="u46756"
       transform="matrix(1,0,0,-1,202.55,421.5)"
       xlink:href="#club" />
  </g>
  <g
     id="club_3"
     transform="translate(-405)">
    <use
       transform="translate(405)"
       xlink:href="#card"
       id="use10" />
    <use
       id="u37968"
       transform="translate(405)"
       xlink:href="#clubS" />
    <use
       id="u37970"
       transform="translate(405)"
       xlink:href="#u37950" />
    <use
       transform="translate(405.05)"
       xlink:href="#club"
       id="use11" />
    <use
       transform="translate(202.5)"
       xlink:href="#u46754"
       id="use12" />
    <use
       transform="translate(202.5)"
       xlink:href="#u46756"
       id="use13" />
    <use
       transform="translate(405,100)"
       style="stroke:#333333"
       xlink:href="#3"
       id="use14" />
    <use
       transform="rotate(180,303.8,107.5)"
       style="stroke:#333333"
       xlink:href="#3"
       id="use15" />
  </g>
  <g
     id="club_1"
     transform="translate(-405)">
    <rect
       id="card"
       x="0.69999999"
       y="0.69999999"
       width="201.10001"
       height="313.60001"
       rx="9"
       ry="9"
       fill="#ffffff"
       stroke="#333333"
       stroke-width="1.4" />
    <use
       id="u37950"
       transform="rotate(180,101.3,157.5)"
       xlink:href="#clubS" />
    <use
       id="clubS"
       transform="matrix(0.45,0,0,0.45,-28.38,-12.7)"
       xlink:href="#club" />
    <path
       id="club"
       d="m 101.25,132.5 a 11,11 0 0 0 -8.1,18.41 l -0.5,0.52 a 11,11 0 1 0 5.86,13.95 l 0.59,0.37 c 0,7.28 -2.74,13.39 -6.1,16.75 h 16.5 c -3.36,-3.36 -6.1,-9.47 -6.1,-16.75 l 0.59,-0.37 a 11,11 0 0 0 10.26,7.12 11,11 0 1 0 -4.4,-21.07 l -0.5,-0.52 a 11,11 0 0 0 -8.1,-18.41 z"
       style="fill:#333333" />
  </g>
</svg>
