<?xml version="1.0" encoding="UTF-8" standalone="no"?>
<svg
   width="202.5"
   height="315"
   version="1.1"
   id="svg1018"
   xmlns:xlink="http://www.w3.org/1999/xlink"
   xmlns="http://www.w3.org/2000/svg"
   xmlns:svg="http://www.w3.org/2000/svg">
  <defs
     id="defs1018" />
  <g
     id="back"
     transform="translate(-405,-945)">
    <use
       transform="translate(404.9,1260)"
       xlink:href="#card"
       id="use1" />
    <g
       transform="matrix(0.9639,0,0,0.9771,373.3,340)"
       id="g2">
      <rect
         x="40.5"
         y="949.20001"
         width="194.7"
         height="307.20001"
         rx="5"
         ry="5"
         fill="#3366aa"
         stroke="#ffffff"
         stroke-width="1.5"
         id="rect1" />
      <path
         id="p3670"
         d="m 235,1238.3 -10.2,17.8 M 40.8,1137.1 148,949.5 M 205.5,1256 235,1204.3 M 166.8,1256 235,1136.4 M 128,1256 235,1068.4 M 89.2,1256 235,1000.6 M 50.5,1256 225.3,949.5 M 41,1205 186.7,949.5 M 40.9,1069.2 109.2,949.5 m -68.3,51.8 29.5,-51.8 m -19.3,0 -10.2,17.8 m 48.9,-17.8 -49,85.7 M 128.5,949.5 41,1103.1 M 167.3,949.5 41,1171 M 206,949.5 41,1239 M 235,966.7 70,1256 M 235,1034.5 108.6,1256 M 234.9,1102.4 147.3,1256 m 87.6,-85.7 -48.9,85.7"
         stroke="#ffffff"
         stroke-width="2.6" />
      <use
         transform="matrix(-1,0,0,1,275.8,0)"
         width="2632.5"
         height="1575"
         fill="none"
         xlink:href="#p3670"
         id="use2" />
    </g>
  </g>
  <path
     id="2"
     d="m -176.8,-1007.6 h -17.3 c 0,-4.9 4.2,-8.4 8.7,-9.6 4.4,-1.2 8.7,-4 8.7,-9 0.3,-5 -3.6,-9.2 -8.6,-9.2 -5,0 -9,4.2 -8.7,9.3"
     fill="none"
     stroke-linecap="square"
     stroke-linejoin="bevel"
     stroke-width="3.5" />
  <g
     id="3"
     transform="translate(-405,-948.2)"
     style="fill:none;stroke-width:3.5">
    <path
       d="m 415,-86.8 h 14.2 l -12.8,12.2"
       stroke-linecap="square"
       stroke-linejoin="bevel"
       id="path2" />
    <path
       d="m 416.3,-74.5 a 8.2,8.8 0 1 1 -2.4,6.2"
       id="path3" />
  </g>
  <path
     id="4"
     d="m 224.7,-1007.5 v -28 l -14.1,21.5 h 18 m -7.2,7 h 6.8"
     fill="none"
     stroke-linecap="square"
     stroke-linejoin="bevel"
     stroke-width="3.5" />
  <g
     id="spade_1"
     transform="translate(-405,-945)">
    <g
       id="g272">
      <use
         id="u42787"
         transform="rotate(180,101.3,1102.5)"
         xlink:href="#p37946" />
      <use
         id="p37946"
         transform="matrix(0.46108,0,0,0.46108,-216.4,495.2)"
         xlink:href="#spade" />
    </g>
  </g>
  <g
     id="spade_2"
     transform="translate(-405,-945)">
    <use
       transform="translate(202.5,945)"
       xlink:href="#card"
       id="use273" />
    <use
       id="u42791"
       transform="translate(202.6)"
       xlink:href="#p37946" />
    <use
       id="u42793"
       transform="translate(202.6)"
       xlink:href="#u42787" />
    <use
       id="u51906"
       transform="translate(-202.5,-104.7)"
       xlink:href="#spade" />
    <use
       id="u51908"
       transform="matrix(1,0,0,-1,-202.5,2309.7)"
       xlink:href="#spade" />
    <use
       transform="translate(405,1990)"
       style="stroke:#333333"
       xlink:href="#2"
       id="use274" />
    <use
       transform="rotate(180,101.3,107.5)"
       style="stroke:#333333"
       xlink:href="#2"
       id="use275" />
  </g>
  <g
     id="spade_3"
     transform="translate(-405,-945)">
    <use
       transform="translate(405,945)"
       xlink:href="#card"
       id="use276" />
    <use
       id="u42807"
       transform="translate(405)"
       xlink:href="#p37946" />
    <use
       id="u42809"
       transform="translate(405)"
       xlink:href="#u42787" />
    <path
       id="spade"
       d="m 506.25,1075.5 c -9,17 -21.75,20.1 -21.75,31.6 0,6.1 4.4,11.3 10.6,11.3 3.7,0.06 7.1,-1.85 9,-5 0,8 -3.2,12.3 -6.3,16 h 16.8 c -3.1,-3.7 -6.4,-8 -6.2,-16 1.9,3.2 5.35,5 9,5 6.2,0 10.5,-5.3 10.6,-11.4 0,-11.4 -12.75,-14.5 -21.75,-31.5 z"
       fill="#333333" />
    <use
       transform="translate(202.5)"
       xlink:href="#u51906"
       id="use277" />
    <use
       transform="translate(202.5)"
       xlink:href="#u51908"
       id="use278" />
    <use
       transform="translate(405,1990)"
       style="stroke:#333333"
       xlink:href="#3"
       id="use279" />
    <use
       transform="rotate(180,303.8,107.5)"
       style="stroke:#333333"
       xlink:href="#3"
       id="use280" />
  </g>
  <g
     id="spade_4"
     transform="translate(-405,-945)">
    <use
       transform="translate(607.5,945)"
       xlink:href="#card"
       id="use281" />
    <use
       id="u42811"
       transform="translate(405)"
       xlink:href="#u42791" />
    <use
       id="u51922"
       transform="translate(362.6)"
       xlink:href="#u51906" />
    <use
       id="u51932"
       transform="translate(84.8)"
       xlink:href="#u51922" />
    <use
       id="u51934"
       transform="translate(84.8)"
       xlink:href="#u51924" />
    <use
       id="u42813"
       transform="translate(405)"
       xlink:href="#u42793" />
    <use
       id="u51924"
       transform="translate(362.6)"
       xlink:href="#u51908" />
    <use
       transform="translate(405,1990)"
       style="stroke:#333333"
       xlink:href="#4"
       id="use282" />
    <use
       transform="rotate(180,506.3,107.5)"
       style="stroke:#333333"
       xlink:href="#4"
       id="use283" />
  </g>
  <g
     id="heart_1"
     transform="translate(-405,-945)">
    <use
       id="u41664"
       transform="rotate(180,101.3,787.6)"
       xlink:href="#heartS" />
    <path
       id="heart"
       d="M 101.3,810.3 C 91.3,795.3 79,788 79,776.8 c 0,-6.2 4.7,-12 11,-12 6.6,0 10.6,5.2 11.2,12 0.7,-6.8 4.7,-12 11.2,-12 6.4,0 11,5.8 11,12 0,11.2 -12.1,18.5 -22.1,33.5 z"
       fill="#ee1111" />
    <use
       id="heartS"
       transform="matrix(0.4498,0,0,0.4498,-28.4,334.3)"
       xlink:href="#heart" />
  </g>
  <g
     id="heart_2"
     transform="translate(-405,-945)">
    <use
       transform="translate(202.5,630)"
       xlink:href="#card"
       id="use479" />
    <use
       id="u41668"
       transform="translate(202.5)"
       xlink:href="#heartS" />
    <use
       id="u41670"
       transform="translate(202.5)"
       xlink:href="#u41664" />
    <use
       id="u49445"
       transform="translate(202.5,-108)"
       xlink:href="#heart" />
    <use
       id="u49447"
       transform="matrix(1,0,0,-1,202.5,1683)"
       xlink:href="#heart" />
    <use
       transform="translate(405,1675)"
       style="stroke:#ee1111"
       xlink:href="#2"
       id="use480" />
    <use
       transform="rotate(180,101.3,-50)"
       style="stroke:#ee1111"
       xlink:href="#2"
       id="use481" />
  </g>
  <g
     id="heart_3"
     transform="translate(-405,-945)">
    <use
       transform="translate(405,630)"
       xlink:href="#card"
       id="use482" />
    <use
       id="u41685"
       transform="translate(405)"
       xlink:href="#heartS" />
    <use
       id="u41687"
       transform="translate(405)"
       xlink:href="#u41664" />
    <use
       transform="translate(202.5)"
       xlink:href="#u49445"
       id="use483" />
    <use
       transform="translate(202.5)"
       xlink:href="#u49447"
       id="use484" />
    <use
       transform="translate(405)"
       xlink:href="#heart"
       id="use485" />
    <use
       transform="translate(405,1675)"
       style="stroke:#ee1111"
       xlink:href="#3"
       id="use486" />
    <use
       transform="rotate(180,303.8,-50)"
       style="stroke:#ee1111"
       xlink:href="#3"
       id="use487" />
  </g>
  <g
     id="heart_4"
     transform="translate(-405,-945)">
    <use
       transform="translate(607.5,630)"
       xlink:href="#card"
       id="use488" />
    <use
       id="u41689"
       transform="translate(405)"
       xlink:href="#u41668" />
    <use
       id="u41691"
       transform="translate(405)"
       xlink:href="#u41670" />
    <use
       id="u49461"
       transform="translate(362.6)"
       xlink:href="#u49445" />
    <use
       id="u49463"
       transform="translate(362.6)"
       xlink:href="#u49447" />
    <use
       id="u49471"
       transform="translate(84.8)"
       xlink:href="#u49461" />
    <use
       id="u49473"
       transform="translate(84.8)"
       xlink:href="#u49463" />
    <use
       transform="translate(405,1675)"
       style="stroke:#ee1111"
       xlink:href="#4"
       id="use489" />
    <use
       transform="rotate(180,506.3,-50)"
       style="stroke:#ee1111"
       xlink:href="#4"
       id="use490" />
  </g>
  <path
     id="tJ"
     d="m -443.3,326 v 1.3 h 2.2 v 13.4 c -0.1,0.7 -0.1,1.6 -0.7,2.1 -0.5,0.5 -1.4,0.5 -2,0.2 -0.5,-0.3 -0.7,-1 -0.7,-1.6 -0.3,-0.2 -0.8,0 -1.2,-0.1 -0.3,0 -0.3,0.4 -0.3,0.7 v 1.9 a 6,6 0 0 0 5.4,0.2 c 1,-0.5 1.6,-1.8 1.7,-3 0.2,-1.4 0,-2.9 0.1,-4.3 v -9.5 h 1.8 v -1.4 h -6.3 z m 3.2,20 a 5,5 0 0 0 -4.3,2.4 7,7 0 0 0 -0.4,5.2 c 0.5,1.8 2,3.1 3.8,3.4 1.7,0.3 3.6,-0.1 4.7,-1.5 a 6.4,6.4 0 0 0 1.3,-5.2 5,5 0 0 0 -2.9,-4 c -0.7,-0.2 -1.5,-0.3 -2.2,-0.3 z m 0.1,1.3 c 1,0 2,0.7 2.2,1.6 0.5,1.3 0.5,2.8 0.3,4.2 -0.1,1 -0.5,2 -1.5,2.5 -1,0.4 -2.5,0 -3,-1 a 7.5,7.5 0 0 1 -0.6,-4.2 c 0.1,-1 0.4,-2.2 1.4,-2.8 z m -2.6,11.6 v 1.3 h 1.7 v 12.5 h -1.7 v 1.4 h 5.3 v -1.4 h -1.6 v -2.6 l 1.2,-1.1 2.7,3.7 h -1.3 v 1.4 h 5.4 v -1.4 h -1.5 l -3.7,-5.1 2.8,-2.7 h 1.8 v -1.4 h -5 v 1.4 h 1.2 l -3.6,3.3 v -9.4 h -3.7 z m 2.6,17 c -1.7,0 -3.3,1 -4.2,2.4 a 7,7 0 0 0 -0.5,5.4 c 0.5,1.7 2,3 3.7,3.3 1.4,0.2 3,0 4.1,-0.7 1,-0.7 1.5,-1.7 1.7,-2.8 0,-0.3 -0.5,-0.1 -0.8,-0.1 -0.3,0 -0.6,-0.2 -0.9,0 l -0.4,1 c -0.4,0.7 -1.1,1.2 -2,1.3 -1,0.2 -2.2,-0.2 -2.7,-1.2 -0.4,-0.8 -0.6,-1.7 -0.6,-2.6 h 7.6 c 0,-1.7 -0.3,-3.5 -1.6,-4.7 -1,-0.9 -2.2,-1.3 -3.4,-1.2 z m 0,1.4 c 1,0 1.8,0.6 2.2,1.5 0.2,0.5 0.3,1.1 0.3,1.7 h -5 c 0,-1 0.4,-2.3 1.4,-2.9 0.3,-0.2 0.8,-0.3 1.2,-0.3 z m 4,11.5 c -1,0 -2.1,0.6 -2.8,1.5 v -1.2 h -3.8 v 1.4 h 1.7 v 7.7 h -1.7 v 1.4 h 5.8 v -1.4 h -2 v -5.3 c 0.1,-1 0.6,-2 1.6,-2.3 0.6,-0.1 1.4,-0.2 1.9,0.3 0.2,0.4 0.2,0.7 0.2,1.1 h 1.4 v -2.9 c -0.7,-0.2 -1.5,-0.3 -2.3,-0.3 z"
     stroke-width="0.5" />
  <g
     id="joker_black"
     transform="translate(-405,-945)">
    <g
       id="g47340">
      <path
         d="m 104.8,1391.8 c 12.7,6 24.3,18.5 23.6,29.1 a 23,23 0 0 1 -2.9,9.3 c 4.4,2.2 6,8 3.8,13 -2.3,5.2 -8,7.7 -12.5,5.6 a 8.4,8.4 0 0 1 -3,-2.3 c -15.4,16.3 -38.6,30.7 -49.7,25.7 -11,-5 -14.1,-30.1 -12.1,-52.2 a 9.6,9.6 0 0 1 -8.8,-13.6 9.7,9.7 0 0 1 12,-5.2 c 1.2,-4.5 2.7,-8.3 4.4,-11.2 3.9,-6.3 26.5,-7 45.1,1.8 z"
         fill="#ffffff"
         stroke="#333333"
         stroke-linejoin="round"
         stroke-width="2.6"
         id="path978" />
      <path
         d="m 92.8,1448.6 a 39.5,39.5 0 0 1 -27.7,-12.9 c 4.4,11.5 2,17.3 8.7,19.4 6.7,2.1 10,-4.4 19,-6.5 z"
         fill="#ee1111"
         stroke="#333333"
         stroke-linejoin="round"
         stroke-width="2"
         id="path979" />
      <path
         d="m 76.7,1422.8 c -1,1.1 -2,2.3 -4.2,3 m 25.6,6.5 c 0,1.4 -0.3,2.7 0.4,5.1"
         fill="#ee1111"
         stroke="#333333"
         stroke-linecap="round"
         stroke-width="2"
         id="path980" />
      <path
         d="m 86.6,1435.7 c -2,0 -4.1,0.6 -6.5,-3"
         fill="none"
         stroke="#333333"
         stroke-linecap="round"
         stroke-linejoin="round"
         stroke-width="2"
         id="path981" />
      <path
         d="m 103.7,1423.5 c 2,-4.9 8.5,0 10.2,2"
         fill="none"
         stroke="#333333"
         stroke-linecap="round"
         stroke-linejoin="round"
         stroke-width="2.2"
         id="path982" />
      <path
         d="m 107,1423.5 a 1.3,1.5 16.4 1 0 2.4,0.7 1.3,1.5 16.4 1 0 -2.5,-0.7 z"
         fill="none"
         stroke="#333333"
         stroke-linejoin="round"
         stroke-width="3.2"
         id="path983" />
      <path
         d="m 114.2,1420.2 a 12.5,12.5 0 0 0 -5.3,-6.5 m -27.3,-0.1 c 2.4,-4.7 -5.6,-6.4 -8.2,-6.3"
         fill="none"
         stroke="#333333"
         stroke-linecap="round"
         stroke-width="2.2"
         id="path984" />
      <path
         d="m 79.5,1411.2 a 1.3038295,1.5044187 32 1 1 -2.2,-1.4 1.3038295,1.5044187 32 1 1 2.2,1.4 z"
         fill="none"
         stroke="#333333"
         stroke-width="3.2"
         style="fill:#333333"
         id="path985" />
      <path
         d="m 76.5,1403.7 c 3.3,-1.1 5.7,-0.6 8.8,0.2"
         fill="none"
         stroke="#333333"
         stroke-linecap="round"
         stroke-width="2.2"
         id="path986" />
      <path
         d="m 120.2,1435.4 4.1,2.6 c -3,-1.7 -5,1 -7.2,3.1 m -62.5,-32.8 -4.9,-0.8 c 3.4,0.8 2.7,3.3 2.8,6.3"
         fill="none"
         stroke="#333333"
         stroke-linecap="round"
         stroke-linejoin="round"
         stroke-width="2"
         id="path987" />
    </g>
    <g
       id="g47361">
      <path
         d="m 128.4,1381.4 c 13,5.5 22.7,15.8 37.1,18.4"
         fill="none"
         stroke="#333333"
         stroke-linecap="round"
         stroke-width="1.7"
         id="path991" />
      <path
         d="m 155.6,1396.4 c 4.3,0.4 4.3,0.2 7,-0.4"
         fill="none"
         stroke="#333333"
         stroke-linecap="square"
         stroke-linejoin="round"
         stroke-width="1.7"
         id="path992" />
      <path
         d="m 151.9,1413.1 c -0.1,-1.4 0.4,-4.5 3,-7.5 m 24,16.1 c -2.5,4.4 -0.1,7.3 -3,11.6"
         fill="none"
         stroke="#333333"
         stroke-linecap="round"
         stroke-width="1.7"
         id="path993" />
      <path
         d="m 173.7,1465.4 a 5.8,5.8 0 1 0 9.4,6.6 5.8,5.8 0 1 0 -9.4,-6.6 z"
         fill="#eecc55"
         stroke="#333333"
         stroke-linejoin="round"
         stroke-width="1.7"
         id="path994" />
      <path
         d="m 173,1470.3 c -0.4,0.8 0.3,2.5 0.8,1.7 1.7,-3.3 8.3,-5.5 10.7,-4.4 0.3,0 0.3,-1.2 -0.8,-1.8 -3,-1.7 -9.2,1 -10.8,4.5 z m 7.2,3.5 c -0.7,-1 -1.2,-2 -1.4,-2.9"
         fill="#eecc55"
         stroke="#333333"
         stroke-linecap="round"
         stroke-linejoin="round"
         stroke-width="1.3"
         id="path995" />
      <path
         d="m 114.6,1395 a 4.2,4.2 0 1 0 7.6,-3.4 4.2,4.2 0 1 0 -7.6,3.4 z"
         fill="#eecc55"
         stroke="#333333"
         stroke-linejoin="round"
         stroke-width="1.1"
         id="path996" />
      <path
         d="m 117.4,1397.3 c 0.3,0.5 1.7,0.7 1.3,0.1 -1.3,-2.3 -0.3,-7.2 1.3,-8.3 0.2,0 -0.6,-0.6 -1.4,-0.1 -2.2,1.2 -2.8,6 -1.2,8.3 z m 4.8,-3.2 c -0.9,0 -1.7,0 -2.3,-0.2"
         fill="#eecc55"
         stroke="#333333"
         stroke-linecap="round"
         id="path997" />
      <path
         d="m 115.6,1385.4 a 4.2,4.2 0 1 0 6.2,-5.5 4.2,4.2 0 1 0 -6.2,5.5 z"
         fill="#eecc55"
         stroke="#333333"
         stroke-linejoin="round"
         stroke-width="1.1"
         id="path998" />
      <path
         d="m 119,1386.8 c 0.4,0.4 1.8,0.2 1.3,-0.3 -2,-1.8 -2.4,-6.8 -1.3,-8.3 0.2,-0.1 -0.7,-0.4 -1.3,0.3 -1.7,1.9 -1,6.6 1.3,8.3 z m 3.6,-4.5 c -0.8,0.3 -1.6,0.6 -2.2,0.5"
         fill="#eecc55"
         stroke="#333333"
         stroke-linecap="round"
         id="path999" />
      <path
         d="m 114.2,1375.8 a 4.2,4.2 0 1 0 5.2,-6.4 4.2,4.2 0 1 0 -5.2,6.4 z"
         fill="#eecc55"
         stroke="#333333"
         stroke-linejoin="round"
         stroke-width="1.1"
         id="path1000" />
      <path
         d="m 117.7,1376.6 c 0.6,0.3 1.9,-0.1 1.3,-0.5 -2.3,-1.4 -3.5,-6.3 -2.6,-8 0,-0.2 -0.8,-0.2 -1.3,0.5 -1.4,2.1 0.2,6.7 2.6,8 z m 3,-5 a 6.1,6.1 0 0 1 -2.2,0.8"
         fill="#eecc55"
         stroke="#333333"
         stroke-linecap="round"
         id="path1001" />
      <path
         d="m 111,1367.2 a 4.2,4.2 0 1 0 4,-7.2 4.2,4.2 0 1 0 -4,7.2 z"
         fill="#eecc55"
         stroke="#333333"
         stroke-linejoin="round"
         stroke-width="1.1"
         id="path1002" />
      <path
         d="m 114.6,1367.4 c 0.5,0.2 1.8,-0.5 1.2,-0.7 -2.5,-1 -4.6,-5.6 -4,-7.5 0,-0.1 -0.8,0 -1.2,0.7 -1,2.4 1.4,6.6 4,7.5 z m 2,-5.5 a 6.2,6.2 0 0 1 -2,1.3"
         fill="#eecc55"
         stroke="#333333"
         stroke-linecap="round"
         id="path1003" />
      <path
         d="m 64,1357 c -0.4,-5.2 -2.6,-4.7 -3.9,-7 m -8.8,14.3 c 0.8,2 0.2,3.2 3,5 -5.1,0.2 -5.5,0 -7.5,-1.9 m -18,-13.6 c -1.7,4.8 -0.5,6.6 -1.9,11.5"
         fill="none"
         stroke="#333333"
         stroke-linecap="round"
         stroke-linejoin="round"
         stroke-width="1.6"
         id="path1004" />
      <path
         d="m 12.1,1402.3 a 5.8,5.8 0 1 0 9.2,6.9 5.8,5.8 0 1 0 -9.2,-6.9 z"
         fill="#eecc55"
         stroke="#333333"
         stroke-linejoin="round"
         stroke-width="1.7"
         id="path1005" />
      <path
         d="m 11.2,1407.3 c -0.3,0.8 0.3,2.5 0.8,1.8 1.9,-3.3 8.5,-5.3 11,-4.2 0.2,0.2 0.2,-1.1 -0.8,-1.7 -3,-1.8 -9.4,0.6 -11,4.1 z m 7.2,3.7 a 8.5,8.5 0 0 1 -1.4,-2.9"
         fill="#eecc55"
         stroke="#333333"
         stroke-linecap="round"
         stroke-linejoin="round"
         stroke-width="1.3"
         id="path1006" />
    </g>
  </g>
  <g
     id="joker_red"
     transform="translate(-405,-945)">
    <use
       transform="rotate(180,202.5,787.5)"
       xlink:href="#card"
       id="use1008" />
    <path
       d="m 359,1451.2 c 5.2,-0.2 9.2,1.2 10.7,4 l 1.5,3 v 11 a 56,56 0 0 1 -22.2,18.7 c -16.4,8.6 -32.4,10.2 -36,3.6 l -2.6,-5.2 c -3.5,-6.6 7,-19 23.4,-27.5 a 61.6,61.6 0 0 1 25.1,-7.6 z"
       fill="#ffffff"
       stroke="#333333"
       stroke-width="2.6"
       id="path1008" />
    <path
       d="m 333.8,1458.8 c -16.4,8.6 -26.9,20.8 -23.4,27.4 3.5,6.6 19.5,5 35.9,-3.5 16.3,-8.6 26.8,-20.9 23.3,-27.5 -3.5,-6.6 -19.5,-5 -35.9,3.6 z m 3.4,6.5 c 7.4,-3.8 14.7,-4.6 16.2,-1.6 1.6,3 -3.2,8.6 -10.6,12.5 -7.4,3.8 -14.7,4.5 -16.2,1.6 -1.6,-3 3.2,-8.6 10.6,-12.5 z"
       fill="#ee1111"
       stroke="#333333"
       stroke-width="2.6"
       id="path1009" />
    <path
       d="M 371.8,1541.3 H 235.7 v -247.7 h 136.1 z"
       fill="none"
       stroke="#ee1111"
       stroke-linejoin="round"
       stroke-width="2.4"
       id="path1010" />
    <path
       d="m 276.7,1408.3 c 0,0 -17,-2 -23.7,4.6 0.3,12.6 -6.3,14.4 -7.2,30 -6.5,11.8 -15.2,21.9 -15.2,22 l -4.4,-0.8 c -3.2,-21.5 1.3,-32.6 -0.5,-43.2 -2,-9 0.7,-18.5 6.9,-25.3 2.2,-1.2 7.3,-0.2 10,0.3 10.3,-8.3 8,-6.5 16,-9.2 8,-2.7 12.5,-10.8 22,-13.5"
       fill="#eecc55"
       stroke="#333333"
       stroke-linejoin="round"
       stroke-width="1.7"
       id="path1011" />
    <use
       transform="matrix(-1,0,0,1,405,0)"
       xlink:href="#g47340"
       id="use1011" />
    <path
       d="m 293.6,1407.2 c -8.2,-15.7 -2.8,-37 6.9,-52 26.6,4.4 32.7,13.4 44,32.6 -20,5.1 -32.4,8.2 -50.9,19.4 z"
       fill="#eecc55"
       stroke="#333333"
       stroke-linejoin="round"
       stroke-width="2.6"
       id="path1012" />
    <path
       d="m 303.2,1362.6 c -0.4,15 26.4,23.4 28.2,21.2 0,0 9.8,-14.2 19.2,-14.7 9.2,8.6 14.8,-1.1 27.1,8.6 9.8,8 12.4,13.8 9.4,24.4 l 5.8,-1.2 c 8.6,-11.7 -9.8,-39.3 -16.6,-47.7 a 31,31 0 0 0 -25.1,-10.9 c -2.4,0.8 -5,5.3 -6.4,7.6 -13,2.2 -10.3,1.7 -17.6,5.8 -7.2,4.2 -15.8,1.7 -24,6.9 z"
       fill="#ee1111"
       stroke="#333333"
       stroke-linecap="square"
       stroke-linejoin="round"
       stroke-width="1.6"
       id="path1013" />
    <path
       d="m 293.6,1407.2 c -8.2,-15.7 -2.8,-37 6.9,-52 -26.5,17 -34.7,43 -26,64 a 206,206 0 0 1 19.1,-12 z"
       fill="#ee1111"
       stroke="#333333"
       stroke-linecap="square"
       stroke-linejoin="round"
       stroke-width="2.6"
       id="path1014" />
    <use
       transform="matrix(-1,0,0,1,405,0)"
       xlink:href="#g47361"
       id="use1014" />
    <use
       transform="translate(657.5,945)"
       style="fill:#ee1111;stroke:#ee1111"
       xlink:href="#tJ"
       id="use1015" />
    <use
       transform="rotate(180,-25,945)"
       style="fill:#ee1111;stroke:#ee1111"
       xlink:href="#tJ"
       id="use1016" />
  </g>
  <g
     id="club_1"
     transform="translate(-405,-945)">
    <rect
       id="card"
       x="0.69999999"
       y="0.69999999"
       width="201.10001"
       height="313.60001"
       rx="9"
       ry="9"
       fill="#ffffff"
       stroke="#333333"
       stroke-width="1.4" />
  </g>
</svg>
