<?xml version="1.0" encoding="UTF-8" standalone="no"?>
<svg
   width="202.5"
   height="315"
   version="1.1"
   id="svg1018"
   xmlns:xlink="http://www.w3.org/1999/xlink"
   xmlns="http://www.w3.org/2000/svg"
   xmlns:svg="http://www.w3.org/2000/svg">
  <defs
     id="defs1018" />
  <path
     id="4"
     d="m 22.2,-692.5 v -28 L 8.1,-699 h 18 m -7.2,7 h 6.8"
     fill="none"
     stroke-linecap="square"
     stroke-linejoin="bevel"
     stroke-width="3.5" />
  <g
     id="heart_1"
     transform="translate(-607.5,-630)">
    <use
       id="u41664"
       transform="rotate(180,101.3,787.6)"
       xlink:href="#heartS" />
    <path
       id="heart"
       d="M 101.3,810.3 C 91.3,795.3 79,788 79,776.8 c 0,-6.2 4.7,-12 11,-12 6.6,0 10.6,5.2 11.2,12 0.7,-6.8 4.7,-12 11.2,-12 6.4,0 11,5.8 11,12 0,11.2 -12.1,18.5 -22.1,33.5 z"
       fill="#ee1111" />
    <use
       id="heartS"
       transform="matrix(0.4498,0,0,0.4498,-28.4,334.3)"
       xlink:href="#heart" />
  </g>
  <g
     id="heart_2"
     transform="translate(-607.5,-630)">
    <use
       id="u41668"
       transform="translate(202.5)"
       xlink:href="#heartS" />
    <use
       id="u41670"
       transform="translate(202.5)"
       xlink:href="#u41664" />
    <use
       id="u49445"
       transform="translate(202.5,-108)"
       xlink:href="#heart" />
    <use
       id="u49447"
       transform="matrix(1,0,0,-1,202.5,1683)"
       xlink:href="#heart" />
  </g>
  <g
     id="heart_4"
     transform="translate(-607.5,-630)">
    <use
       transform="translate(607.5,630)"
       xlink:href="#card"
       id="use488" />
    <use
       id="u41689"
       transform="translate(405)"
       xlink:href="#u41668" />
    <use
       id="u41691"
       transform="translate(405)"
       xlink:href="#u41670" />
    <use
       id="u49461"
       transform="translate(362.6)"
       xlink:href="#u49445" />
    <use
       id="u49463"
       transform="translate(362.6)"
       xlink:href="#u49447" />
    <use
       id="u49471"
       transform="translate(84.8)"
       xlink:href="#u49461" />
    <use
       id="u49473"
       transform="translate(84.8)"
       xlink:href="#u49463" />
    <use
       transform="translate(607.5,1360)"
       style="stroke:#ee1111"
       xlink:href="#4"
       id="use489" />
    <use
       transform="rotate(180,405.05,107.5)"
       style="stroke:#ee1111"
       xlink:href="#4"
       id="use490" />
  </g>
  <g
     id="club_1"
     transform="translate(-607.5,-630)">
    <rect
       id="card"
       x="0.69999999"
       y="0.69999999"
       width="201.10001"
       height="313.60001"
       rx="9"
       ry="9"
       fill="#ffffff"
       stroke="#333333"
       stroke-width="1.4" />
  </g>
</svg>
