<?xml version="1.0" encoding="UTF-8" standalone="no"?>
<svg
   width="202.5"
   height="315"
   version="1.1"
   id="svg1018"
   xmlns:xlink="http://www.w3.org/1999/xlink"
   xmlns="http://www.w3.org/2000/svg"
   xmlns:svg="http://www.w3.org/2000/svg">
  <defs
     id="defs1018" />
  <path
     id="4"
     d="m 22.2,-1007.5 v -28 L 8.1,-1014 h 18 m -7.2,7 h 6.8"
     fill="none"
     stroke-linecap="square"
     stroke-linejoin="bevel"
     stroke-width="3.5" />
  <g
     id="spade_1"
     transform="translate(-607.5,-945)">
    <g
       id="g272">
      <use
         id="u42787"
         transform="rotate(180,101.3,1102.5)"
         xlink:href="#p37946" />
      <use
         id="p37946"
         transform="matrix(0.46108,0,0,0.46108,-216.4,495.2)"
         xlink:href="#spade" />
    </g>
  </g>
  <g
     id="spade_2"
     transform="translate(-607.5,-945)">
    <use
       id="u42791"
       transform="translate(202.6)"
       xlink:href="#p37946" />
    <use
       id="u42793"
       transform="translate(202.6)"
       xlink:href="#u42787" />
    <use
       id="u51906"
       transform="translate(-202.5,-104.7)"
       xlink:href="#spade" />
    <use
       id="u51908"
       transform="matrix(1,0,0,-1,-202.5,2309.7)"
       xlink:href="#spade" />
  </g>
  <g
     id="spade_3"
     transform="translate(-607.5,-945)">
    <path
       id="spade"
       d="m 506.25,1075.5 c -9,17 -21.75,20.1 -21.75,31.6 0,6.1 4.4,11.3 10.6,11.3 3.7,0.06 7.1,-1.85 9,-5 0,8 -3.2,12.3 -6.3,16 h 16.8 c -3.1,-3.7 -6.4,-8 -6.2,-16 1.9,3.2 5.35,5 9,5 6.2,0 10.5,-5.3 10.6,-11.4 0,-11.4 -12.75,-14.5 -21.75,-31.5 z"
       fill="#333333" />
  </g>
  <g
     id="spade_4"
     transform="translate(-607.5,-945)">
    <use
       transform="translate(607.5,945)"
       xlink:href="#card"
       id="use281" />
    <use
       id="u42811"
       transform="translate(405)"
       xlink:href="#u42791" />
    <use
       id="u51922"
       transform="translate(362.6)"
       xlink:href="#u51906" />
    <use
       id="u51932"
       transform="translate(84.8)"
       xlink:href="#u51922" />
    <use
       id="u51934"
       transform="translate(84.8)"
       xlink:href="#u51924" />
    <use
       id="u42813"
       transform="translate(405)"
       xlink:href="#u42793" />
    <use
       id="u51924"
       transform="translate(362.6)"
       xlink:href="#u51908" />
    <use
       transform="translate(607.5,1990)"
       style="stroke:#333333"
       xlink:href="#4"
       id="use282" />
    <use
       transform="rotate(180,405.05,107.5)"
       style="stroke:#333333"
       xlink:href="#4"
       id="use283" />
  </g>
  <g
     id="club_1"
     transform="translate(-607.5,-945)">
    <rect
       id="card"
       x="0.69999999"
       y="0.69999999"
       width="201.10001"
       height="313.60001"
       rx="9"
       ry="9"
       fill="#ffffff"
       stroke="#333333"
       stroke-width="1.4" />
  </g>
</svg>
