<?xml version="1.0" encoding="UTF-8" standalone="no"?>
<svg
   width="202.5"
   height="315"
   version="1.1"
   id="svg1018"
   xmlns:xlink="http://www.w3.org/1999/xlink"
   xmlns="http://www.w3.org/2000/svg"
   xmlns:svg="http://www.w3.org/2000/svg">
  <defs
     id="defs1018" />
  <g
     id="5"
     transform="translate(-810,-3.2)"
     style="fill:none;stroke-width:3.5">
    <path
       d="m 834.3,-87 h -14.5 v 13"
       style="stroke-linecap:square;stroke-linejoin:bevel"
       id="path4" />
    <path
       d="m 819.8,-73.1 c 4.9,-9.4 17.7,-3.4 15.3,7 -1.1,4.5 -5,7.4 -9,6.8 -4.1,-0.6 -7.2,-4.5 -7.2,-9.2"
       id="path5" />
  </g>
  <g
     id="club_4"
     transform="translate(-810)">
    <use
       id="u46740"
       transform="translate(649.95,-106.5)"
       xlink:href="#club" />
    <use
       id="u46752"
       transform="matrix(1,0,0,-1,649.95,421.5)"
       xlink:href="#club" />
    <use
       id="u46750"
       transform="matrix(1,0,0,-1,565.15,421.5)"
       xlink:href="#club" />
    <use
       id="u46760"
       transform="translate(565.15,-106.5)"
       xlink:href="#club" />
  </g>
  <g
     id="club_5"
     transform="translate(-810)">
    <use
       transform="translate(810)"
       xlink:href="#card"
       id="use19" />
    <use
       id="u37992"
       transform="translate(810)"
       xlink:href="#clubS" />
    <use
       id="u37994"
       transform="translate(810)"
       xlink:href="#u37950" />
    <use
       transform="translate(202.5)"
       xlink:href="#u46740"
       id="use20" />
    <use
       transform="translate(202.5)"
       xlink:href="#u46750"
       id="use21" />
    <use
       transform="translate(202.5)"
       xlink:href="#u46752"
       id="use22" />
    <use
       transform="translate(202.5)"
       xlink:href="#u46760"
       id="use23" />
    <use
       transform="translate(810.05)"
       xlink:href="#club"
       id="use24" />
    <use
       transform="translate(810,100)"
       style="stroke:#333333"
       xlink:href="#5"
       id="use25" />
    <use
       transform="rotate(180,506.3,107.5)"
       style="stroke:#333333"
       xlink:href="#5"
       id="use26" />
  </g>
  <g
     id="club_1"
     transform="translate(-810)">
    <rect
       id="card"
       x="0.69999999"
       y="0.69999999"
       width="201.10001"
       height="313.60001"
       rx="9"
       ry="9"
       fill="#ffffff"
       stroke="#333333"
       stroke-width="1.4" />
    <use
       id="u37950"
       transform="rotate(180,101.3,157.5)"
       xlink:href="#clubS" />
    <use
       id="clubS"
       transform="matrix(0.45,0,0,0.45,-28.38,-12.7)"
       xlink:href="#club" />
    <path
       id="club"
       d="m 101.25,132.5 a 11,11 0 0 0 -8.1,18.41 l -0.5,0.52 a 11,11 0 1 0 5.86,13.95 l 0.59,0.37 c 0,7.28 -2.74,13.39 -6.1,16.75 h 16.5 c -3.36,-3.36 -6.1,-9.47 -6.1,-16.75 l 0.59,-0.37 a 11,11 0 0 0 10.26,7.12 11,11 0 1 0 -4.4,-21.07 l -0.5,-0.52 a 11,11 0 0 0 -8.1,-18.41 z"
       style="fill:#333333" />
  </g>
</svg>
