<?xml version="1.0" encoding="UTF-8" standalone="no"?>
<svg
   width="202.5"
   height="315"
   version="1.1"
   id="svg1018"
   xmlns:xlink="http://www.w3.org/1999/xlink"
   xmlns="http://www.w3.org/2000/svg"
   xmlns:svg="http://www.w3.org/2000/svg">
  <defs
     id="defs1018" />
  <g
     id="5"
     transform="translate(-810,-318.2)"
     style="fill:none;stroke-width:3.5">
    <path
       d="m 834.3,-87 h -14.5 v 13"
       style="stroke-linecap:square;stroke-linejoin:bevel"
       id="path4" />
    <path
       d="m 819.8,-73.1 c 4.9,-9.4 17.7,-3.4 15.3,7 -1.1,4.5 -5,7.4 -9,6.8 -4.1,-0.6 -7.2,-4.5 -7.2,-9.2"
       id="path5" />
  </g>
  <g
     id="diamond_1"
     transform="translate(-810,-315)">
    <use
       id="u41521"
       transform="rotate(180,101.3,472.6)"
       xlink:href="#diamS" />
    <path
       id="diam"
       d="m 123.5,472.5 a 112.97,112.97 0 0 0 -22,26 97.4,97.4 0 0 0 -22.6,-26 c 11,-10.3 15.8,-14.6 22.6,-26 a 112.57,112.57 0 0 0 22,26 z"
       fill="#ee1111" />
    <use
       id="diamS"
       transform="matrix(0.4423,0,0,0.4423,-27.7,164.5)"
       xlink:href="#diam" />
  </g>
  <g
     id="diamond_2"
     transform="translate(-810,-315)">
    <use
       id="u49155"
       transform="translate(202.5,-105.5)"
       xlink:href="#diam" />
    <use
       id="u49157"
       transform="translate(202.5,105.5)"
       xlink:href="#diam" />
  </g>
  <g
     id="diamond_4"
     transform="translate(-810,-315)">
    <use
       id="u49179"
       transform="translate(362.6)"
       xlink:href="#u49155" />
    <use
       id="u49181"
       transform="matrix(1,0,0,-1,362.6,1156)"
       xlink:href="#u49157" />
    <use
       id="u49189"
       transform="translate(84.8)"
       xlink:href="#u49179" />
    <use
       id="u49191"
       transform="matrix(1,0,0,-1,84.8,945)"
       xlink:href="#u49179" />
  </g>
  <g
     id="diamond_5"
     transform="translate(-810,-315)">
    <use
       transform="translate(810,315)"
       xlink:href="#card"
       id="use756" />
    <use
       id="u41566"
       transform="translate(810)"
       xlink:href="#diamS" />
    <use
       id="u41568"
       transform="translate(810)"
       xlink:href="#u41521" />
    <use
       transform="translate(202.5)"
       xlink:href="#u49179"
       id="use757" />
    <use
       transform="translate(202.5)"
       xlink:href="#u49181"
       id="use758" />
    <use
       transform="translate(202.5)"
       xlink:href="#u49189"
       id="use759" />
    <use
       transform="translate(202.5)"
       xlink:href="#u49191"
       id="use760" />
    <use
       transform="translate(810)"
       xlink:href="#diam"
       id="use761" />
    <use
       transform="translate(810,730)"
       style="stroke:#ee1111"
       xlink:href="#5"
       id="use762" />
    <use
       transform="rotate(180,506.3,107.5)"
       style="stroke:#ee1111"
       xlink:href="#5"
       id="use763" />
  </g>
  <g
     id="club_1"
     transform="translate(-810,-315)">
    <rect
       id="card"
       x="0.69999999"
       y="0.69999999"
       width="201.10001"
       height="313.60001"
       rx="9"
       ry="9"
       fill="#ffffff"
       stroke="#333333"
       stroke-width="1.4" />
  </g>
</svg>
