<?xml version="1.0" encoding="UTF-8" standalone="no"?>
<svg
   width="202.5"
   height="315"
   version="1.1"
   id="svg1018"
   xmlns:xlink="http://www.w3.org/1999/xlink"
   xmlns="http://www.w3.org/2000/svg"
   xmlns:svg="http://www.w3.org/2000/svg">
  <defs
     id="defs1018" />
  <g
     id="5"
     transform="translate(-1012.5,-318.2)"
     style="fill:none;stroke-width:3.5">
    <path
       d="m 834.3,-87 h -14.5 v 13"
       style="stroke-linecap:square;stroke-linejoin:bevel"
       id="path4" />
    <path
       d="m 819.8,-73.1 c 4.9,-9.4 17.7,-3.4 15.3,7 -1.1,4.5 -5,7.4 -9,6.8 -4.1,-0.6 -7.2,-4.5 -7.2,-9.2"
       id="path5" />
  </g>
  <path
     id="6"
     d="m 8.9,-385.9 c 0,-4.5 3.7,-8.2 8.2,-8.2 a 8.25,8.25 0 0 1 0,16.5 8.2,8.2 0 0 1 -8.2,-8.3 c 0,-2.9 -0.5,-10.6 1.7,-15 3.1,-6.2 12,-5.2 14.3,2.2"
     fill="none"
     stroke-width="3.5" />
  <path
     id="7"
     d="m 212.8,-405 h 14.5 l -14.5,27.4"
     fill="none"
     stroke-linecap="square"
     stroke-linejoin="bevel"
     stroke-width="3.5" />
  <g
     id="club_2"
     transform="translate(-1012.5,-315)">
    <use
       id="u37954"
       transform="translate(202.5)"
       xlink:href="#clubS" />
    <use
       id="u37956"
       transform="translate(202.5)"
       xlink:href="#u37950" />
  </g>
  <g
     id="club_3"
     transform="translate(-1012.5,-315)">
    <use
       id="u37968"
       transform="translate(405)"
       xlink:href="#clubS" />
    <use
       id="u37970"
       transform="translate(405)"
       xlink:href="#u37950" />
  </g>
  <g
     id="club_4"
     transform="translate(-1012.5,-315)">
    <use
       id="u46740"
       transform="translate(649.95,-106.5)"
       xlink:href="#club" />
    <use
       id="u46752"
       transform="matrix(1,0,0,-1,649.95,421.5)"
       xlink:href="#club" />
    <use
       id="u46750"
       transform="matrix(1,0,0,-1,565.15,421.5)"
       xlink:href="#club" />
    <use
       id="u46760"
       transform="translate(565.15,-106.5)"
       xlink:href="#club" />
  </g>
  <g
     id="club_5"
     transform="translate(-1012.5,-315)">
    <use
       transform="translate(810)"
       xlink:href="#card"
       id="use19" />
    <use
       id="u37992"
       transform="translate(810)"
       xlink:href="#clubS" />
    <use
       id="u37994"
       transform="translate(810)"
       xlink:href="#u37950" />
    <use
       transform="translate(202.5)"
       xlink:href="#u46740"
       id="use20" />
    <use
       transform="translate(202.5)"
       xlink:href="#u46750"
       id="use21" />
    <use
       transform="translate(202.5)"
       xlink:href="#u46752"
       id="use22" />
    <use
       transform="translate(202.5)"
       xlink:href="#u46760"
       id="use23" />
    <use
       transform="translate(810.05)"
       xlink:href="#club"
       id="use24" />
    <use
       transform="translate(1012.5,415)"
       style="stroke:#333333"
       xlink:href="#5"
       id="use25" />
    <use
       transform="rotate(180,405.05,-50)"
       style="stroke:#333333"
       xlink:href="#5"
       id="use26" />
  </g>
  <g
     id="club_6"
     transform="translate(-1012.5,-315)">
    <use
       transform="translate(1012.5)"
       xlink:href="#card"
       id="use27" />
    <use
       transform="translate(810)"
       xlink:href="#u37954"
       id="use28" />
    <use
       transform="translate(810)"
       xlink:href="#u37956"
       id="use29" />
    <use
       id="u46744"
       transform="translate(970.05)"
       xlink:href="#club" />
    <use
       id="u46746"
       transform="translate(1054.95)"
       xlink:href="#club" />
    <use
       id="u46865"
       transform="translate(405)"
       xlink:href="#u46740" />
    <use
       id="u46867"
       transform="translate(405)"
       xlink:href="#u46750" />
    <use
       id="u46869"
       transform="translate(405)"
       xlink:href="#u46752" />
    <use
       id="u46871"
       transform="translate(405)"
       xlink:href="#u46760" />
    <use
       transform="translate(1012.5,415)"
       style="stroke:#333333"
       xlink:href="#6"
       id="use30" />
    <use
       transform="rotate(180,607.55,-50)"
       style="stroke:#333333"
       xlink:href="#6"
       id="use31" />
  </g>
  <g
     id="club_7"
     transform="translate(-1012.5,-315)">
    <use
       transform="translate(1215)"
       xlink:href="#card"
       id="use32" />
    <use
       transform="translate(810)"
       xlink:href="#u37968"
       id="use33" />
    <use
       transform="translate(810)"
       xlink:href="#u37970"
       id="use34" />
    <use
       id="u46742"
       transform="translate(1215.05,-53.3)"
       xlink:href="#club" />
    <use
       transform="translate(202.5)"
       xlink:href="#u46744"
       id="use35" />
    <use
       transform="translate(202.2)"
       xlink:href="#u46746"
       id="use36" />
    <use
       transform="translate(202.4)"
       xlink:href="#u46865"
       id="use37" />
    <use
       transform="translate(202.5)"
       xlink:href="#u46867"
       id="use38" />
    <use
       transform="translate(202.3)"
       xlink:href="#u46869"
       id="use39" />
    <use
       transform="translate(202.5)"
       xlink:href="#u46871"
       id="use40" />
    <use
       transform="translate(1012.5,415)"
       style="stroke:#333333"
       xlink:href="#7"
       id="use41" />
    <use
       transform="rotate(180,810.05,-50)"
       style="stroke:#333333"
       xlink:href="#7"
       id="use42" />
  </g>
  <g
     id="heart_1"
     transform="translate(-1012.5,-315)">
    <use
       id="u41664"
       transform="rotate(180,101.3,787.6)"
       xlink:href="#heartS" />
    <path
       id="heart"
       d="M 101.3,810.3 C 91.3,795.3 79,788 79,776.8 c 0,-6.2 4.7,-12 11,-12 6.6,0 10.6,5.2 11.2,12 0.7,-6.8 4.7,-12 11.2,-12 6.4,0 11,5.8 11,12 0,11.2 -12.1,18.5 -22.1,33.5 z"
       fill="#ee1111" />
    <use
       id="heartS"
       transform="matrix(0.4498,0,0,0.4498,-28.4,334.3)"
       xlink:href="#heart" />
  </g>
  <g
     id="heart_2"
     transform="translate(-1012.5,-315)">
    <use
       id="u41668"
       transform="translate(202.5)"
       xlink:href="#heartS" />
    <use
       id="u41670"
       transform="translate(202.5)"
       xlink:href="#u41664" />
    <use
       id="u49445"
       transform="translate(202.5,-108)"
       xlink:href="#heart" />
    <use
       id="u49447"
       transform="matrix(1,0,0,-1,202.5,1683)"
       xlink:href="#heart" />
  </g>
  <g
     id="heart_3"
     transform="translate(-1012.5,-315)">
    <use
       id="u41685"
       transform="translate(405)"
       xlink:href="#heartS" />
    <use
       id="u41687"
       transform="translate(405)"
       xlink:href="#u41664" />
  </g>
  <g
     id="heart_4"
     transform="translate(-1012.5,-315)">
    <use
       id="u49461"
       transform="translate(362.6)"
       xlink:href="#u49445" />
    <use
       id="u49463"
       transform="translate(362.6)"
       xlink:href="#u49447" />
    <use
       id="u49471"
       transform="translate(84.8)"
       xlink:href="#u49461" />
    <use
       id="u49473"
       transform="translate(84.8)"
       xlink:href="#u49463" />
  </g>
  <g
     id="heart_5"
     transform="translate(-1012.5,-315)">
    <use
       transform="translate(810,630)"
       xlink:href="#card"
       id="use491" />
    <use
       id="u41709"
       transform="translate(810)"
       xlink:href="#heartS" />
    <use
       id="u41711"
       transform="translate(810)"
       xlink:href="#u41664" />
    <use
       transform="translate(202.5)"
       xlink:href="#u49461"
       id="use492" />
    <use
       transform="translate(202.5)"
       xlink:href="#u49463"
       id="use493" />
    <use
       transform="translate(202.5)"
       xlink:href="#u49471"
       id="use494" />
    <use
       transform="translate(202.5)"
       xlink:href="#u49473"
       id="use495" />
    <use
       transform="translate(810)"
       xlink:href="#heart"
       id="use496" />
    <use
       transform="translate(1012.5,1045)"
       style="stroke:#ee1111"
       xlink:href="#5"
       id="use497" />
    <use
       transform="rotate(180,405.05,265)"
       style="stroke:#ee1111"
       xlink:href="#5"
       id="use498" />
  </g>
  <g
     id="heart_6"
     transform="translate(-1012.5,-315)">
    <use
       transform="translate(1012.5,630)"
       xlink:href="#card"
       id="use499" />
    <use
       transform="translate(810)"
       xlink:href="#u41668"
       id="use500" />
    <use
       transform="translate(810)"
       xlink:href="#u41670"
       id="use501" />
    <use
       transform="translate(405)"
       xlink:href="#u49461"
       id="use502" />
    <use
       transform="translate(405)"
       xlink:href="#u49463"
       id="use503" />
    <use
       transform="translate(405)"
       xlink:href="#u49471"
       id="use504" />
    <use
       transform="translate(405)"
       xlink:href="#u49473"
       id="use505" />
    <use
       id="u49578"
       transform="translate(970)"
       xlink:href="#heart" />
    <use
       id="u49580"
       transform="translate(1054.9)"
       xlink:href="#heart" />
    <use
       transform="translate(1012.5,1045)"
       style="stroke:#ee1111"
       xlink:href="#6"
       id="use506" />
    <use
       transform="rotate(180,607.55,265)"
       style="stroke:#ee1111"
       xlink:href="#6"
       id="use507" />
  </g>
  <g
     id="heart_7"
     transform="translate(-1012.5,-315)">
    <use
       transform="translate(1215,630)"
       xlink:href="#card"
       id="use508" />
    <use
       transform="translate(810)"
       xlink:href="#u41685"
       id="use509" />
    <use
       transform="translate(810)"
       xlink:href="#u41687"
       id="use510" />
    <use
       transform="translate(607.5)"
       xlink:href="#u49461"
       id="use511" />
    <use
       transform="translate(607.5)"
       xlink:href="#u49463"
       id="use512" />
    <use
       transform="translate(607.3)"
       xlink:href="#u49471"
       id="use513" />
    <use
       transform="translate(607.3)"
       xlink:href="#u49473"
       id="use514" />
    <use
       transform="translate(202.5)"
       xlink:href="#u49578"
       id="use515" />
    <use
       transform="translate(202.4)"
       xlink:href="#u49580"
       id="use516" />
    <use
       transform="translate(1215.05,-53.6)"
       xlink:href="#heart"
       id="use517" />
    <use
       transform="translate(1012.5,1045)"
       style="stroke:#ee1111"
       xlink:href="#7"
       id="use518" />
    <use
       transform="rotate(180,810.05,265)"
       style="stroke:#ee1111"
       xlink:href="#7"
       id="use519" />
  </g>
  <g
     id="diamond_1"
     transform="translate(-1012.5,-315)">
    <use
       id="u41521"
       transform="rotate(180,101.3,472.6)"
       xlink:href="#diamS" />
    <path
       id="diam"
       d="m 123.5,472.5 a 112.97,112.97 0 0 0 -22,26 97.4,97.4 0 0 0 -22.6,-26 c 11,-10.3 15.8,-14.6 22.6,-26 a 112.57,112.57 0 0 0 22,26 z"
       fill="#ee1111" />
    <use
       id="diamS"
       transform="matrix(0.4423,0,0,0.4423,-27.7,164.5)"
       xlink:href="#diam" />
  </g>
  <g
     id="diamond_2"
     transform="translate(-1012.5,-315)">
    <use
       id="u41525"
       transform="translate(202.5)"
       xlink:href="#diamS" />
    <use
       id="u41527"
       transform="translate(202.5)"
       xlink:href="#u41521" />
    <use
       id="u49155"
       transform="translate(202.5,-105.5)"
       xlink:href="#diam" />
    <use
       id="u49157"
       transform="translate(202.5,105.5)"
       xlink:href="#diam" />
  </g>
  <g
     id="diamond_3"
     transform="translate(-1012.5,-315)">
    <use
       id="u41541"
       transform="translate(405)"
       xlink:href="#diamS" />
    <use
       id="u41543"
       transform="translate(405)"
       xlink:href="#u41521" />
  </g>
  <g
     id="diamond_4"
     transform="translate(-1012.5,-315)">
    <use
       id="u49179"
       transform="translate(362.6)"
       xlink:href="#u49155" />
    <use
       id="u49181"
       transform="matrix(1,0,0,-1,362.6,1156)"
       xlink:href="#u49157" />
    <use
       id="u49189"
       transform="translate(84.8)"
       xlink:href="#u49179" />
    <use
       id="u49191"
       transform="matrix(1,0,0,-1,84.8,945)"
       xlink:href="#u49179" />
  </g>
  <g
     id="diamond_5"
     transform="translate(-1012.5,-315)">
    <use
       transform="translate(810,315)"
       xlink:href="#card"
       id="use756" />
    <use
       id="u41566"
       transform="translate(810)"
       xlink:href="#diamS" />
    <use
       id="u41568"
       transform="translate(810)"
       xlink:href="#u41521" />
    <use
       transform="translate(202.5)"
       xlink:href="#u49179"
       id="use757" />
    <use
       transform="translate(202.5)"
       xlink:href="#u49181"
       id="use758" />
    <use
       transform="translate(202.5)"
       xlink:href="#u49189"
       id="use759" />
    <use
       transform="translate(202.5)"
       xlink:href="#u49191"
       id="use760" />
    <use
       transform="translate(810)"
       xlink:href="#diam"
       id="use761" />
    <use
       transform="translate(1012.5,730)"
       style="stroke:#ee1111"
       xlink:href="#5"
       id="use762" />
    <use
       transform="rotate(180,405.05,107.5)"
       style="stroke:#ee1111"
       xlink:href="#5"
       id="use763" />
  </g>
  <g
     id="diamond_6"
     transform="translate(-1012.5,-315)">
    <use
       transform="translate(1012.5,315)"
       xlink:href="#card"
       id="use764" />
    <use
       transform="translate(810)"
       xlink:href="#u41525"
       id="use765" />
    <use
       transform="translate(810)"
       xlink:href="#u41527"
       id="use766" />
    <use
       id="u49219"
       transform="translate(405)"
       xlink:href="#u49179" />
    <use
       id="u49221"
       transform="translate(405)"
       xlink:href="#u49181" />
    <use
       id="u49223"
       transform="translate(405)"
       xlink:href="#u49189" />
    <use
       id="u49225"
       transform="translate(405)"
       xlink:href="#u49191" />
    <use
       id="u49233"
       transform="translate(970)"
       xlink:href="#diam" />
    <use
       id="u49235"
       transform="translate(1054.9)"
       xlink:href="#diam" />
    <use
       transform="translate(1012.5,730)"
       style="stroke:#ee1111"
       xlink:href="#6"
       id="use767" />
    <use
       transform="rotate(180,607.55,107.5)"
       style="stroke:#ee1111"
       xlink:href="#6"
       id="use768" />
  </g>
  <g
     id="diamond_7"
     transform="translate(-1012.5,-315)">
    <use
       transform="translate(1215,315)"
       xlink:href="#card"
       id="use769" />
    <use
       transform="translate(810)"
       xlink:href="#u41541"
       id="use770" />
    <use
       transform="translate(810)"
       xlink:href="#u41543"
       id="use771" />
    <use
       transform="translate(202.5)"
       xlink:href="#u49219"
       id="use772" />
    <use
       transform="translate(202.5)"
       xlink:href="#u49221"
       id="use773" />
    <use
       transform="translate(202.4)"
       xlink:href="#u49223"
       id="use774" />
    <use
       transform="translate(202.4)"
       xlink:href="#u49225"
       id="use775" />
    <use
       transform="translate(202.5)"
       xlink:href="#u49233"
       id="use776" />
    <use
       transform="translate(202.4)"
       xlink:href="#u49235"
       id="use777" />
    <use
       transform="translate(1215,-53)"
       xlink:href="#diam"
       id="use778" />
    <use
       transform="translate(1012.5,730)"
       style="stroke:#ee1111"
       xlink:href="#7"
       id="use779" />
    <use
       transform="rotate(180,810.05,107.5)"
       style="stroke:#ee1111"
       xlink:href="#7"
       id="use780" />
  </g>
  <g
     id="club_1"
     transform="translate(-1012.5,-315)">
    <rect
       id="card"
       x="0.69999999"
       y="0.69999999"
       width="201.10001"
       height="313.60001"
       rx="9"
       ry="9"
       fill="#ffffff"
       stroke="#333333"
       stroke-width="1.4" />
    <use
       id="u37950"
       transform="rotate(180,101.3,157.5)"
       xlink:href="#clubS" />
    <use
       id="clubS"
       transform="matrix(0.45,0,0,0.45,-28.38,-12.7)"
       xlink:href="#club" />
    <path
       id="club"
       d="m 101.25,132.5 a 11,11 0 0 0 -8.1,18.41 l -0.5,0.52 a 11,11 0 1 0 5.86,13.95 l 0.59,0.37 c 0,7.28 -2.74,13.39 -6.1,16.75 h 16.5 c -3.36,-3.36 -6.1,-9.47 -6.1,-16.75 l 0.59,-0.37 a 11,11 0 0 0 10.26,7.12 11,11 0 1 0 -4.4,-21.07 l -0.5,-0.52 a 11,11 0 0 0 -8.1,-18.41 z"
       style="fill:#333333" />
  </g>
</svg>
