<?xml version="1.0" encoding="UTF-8" standalone="no"?>
<svg
   width="202.5"
   height="315"
   version="1.1"
   id="svg1018"
   xmlns:xlink="http://www.w3.org/1999/xlink"
   xmlns="http://www.w3.org/2000/svg"
   xmlns:svg="http://www.w3.org/2000/svg">
  <defs
     id="defs1018" />
  <path
     id="6"
     d="m 8.9,-385.9 c 0,-4.5 3.7,-8.2 8.2,-8.2 a 8.25,8.25 0 0 1 0,16.5 8.2,8.2 0 0 1 -8.2,-8.3 c 0,-2.9 -0.5,-10.6 1.7,-15 3.1,-6.2 12,-5.2 14.3,2.2"
     fill="none"
     stroke-width="3.5" />
  <g
     id="diamond_1"
     transform="translate(-1012.5,-315)">
    <use
       id="u41521"
       transform="rotate(180,101.3,472.6)"
       xlink:href="#diamS" />
    <path
       id="diam"
       d="m 123.5,472.5 a 112.97,112.97 0 0 0 -22,26 97.4,97.4 0 0 0 -22.6,-26 c 11,-10.3 15.8,-14.6 22.6,-26 a 112.57,112.57 0 0 0 22,26 z"
       fill="#ee1111" />
    <use
       id="diamS"
       transform="matrix(0.4423,0,0,0.4423,-27.7,164.5)"
       xlink:href="#diam" />
  </g>
  <g
     id="diamond_2"
     transform="translate(-1012.5,-315)">
    <use
       id="u41525"
       transform="translate(202.5)"
       xlink:href="#diamS" />
    <use
       id="u41527"
       transform="translate(202.5)"
       xlink:href="#u41521" />
    <use
       id="u49155"
       transform="translate(202.5,-105.5)"
       xlink:href="#diam" />
    <use
       id="u49157"
       transform="translate(202.5,105.5)"
       xlink:href="#diam" />
  </g>
  <g
     id="diamond_4"
     transform="translate(-1012.5,-315)">
    <use
       id="u49179"
       transform="translate(362.6)"
       xlink:href="#u49155" />
    <use
       id="u49181"
       transform="matrix(1,0,0,-1,362.6,1156)"
       xlink:href="#u49157" />
    <use
       id="u49189"
       transform="translate(84.8)"
       xlink:href="#u49179" />
    <use
       id="u49191"
       transform="matrix(1,0,0,-1,84.8,945)"
       xlink:href="#u49179" />
  </g>
  <g
     id="diamond_6"
     transform="translate(-1012.5,-315)">
    <use
       transform="translate(1012.5,315)"
       xlink:href="#card"
       id="use764" />
    <use
       transform="translate(810)"
       xlink:href="#u41525"
       id="use765" />
    <use
       transform="translate(810)"
       xlink:href="#u41527"
       id="use766" />
    <use
       id="u49219"
       transform="translate(405)"
       xlink:href="#u49179" />
    <use
       id="u49221"
       transform="translate(405)"
       xlink:href="#u49181" />
    <use
       id="u49223"
       transform="translate(405)"
       xlink:href="#u49189" />
    <use
       id="u49225"
       transform="translate(405)"
       xlink:href="#u49191" />
    <use
       id="u49233"
       transform="translate(970)"
       xlink:href="#diam" />
    <use
       id="u49235"
       transform="translate(1054.9)"
       xlink:href="#diam" />
    <use
       transform="translate(1012.5,730)"
       style="stroke:#ee1111"
       xlink:href="#6"
       id="use767" />
    <use
       transform="rotate(180,607.55,107.5)"
       style="stroke:#ee1111"
       xlink:href="#6"
       id="use768" />
  </g>
  <g
     id="club_1"
     transform="translate(-1012.5,-315)">
    <rect
       id="card"
       x="0.69999999"
       y="0.69999999"
       width="201.10001"
       height="313.60001"
       rx="9"
       ry="9"
       fill="#ffffff"
       stroke="#333333"
       stroke-width="1.4" />
  </g>
</svg>
