<?xml version="1.0" encoding="UTF-8" standalone="no"?>
<svg
   width="202.5"
   height="315"
   version="1.1"
   id="svg1018"
   xmlns:xlink="http://www.w3.org/1999/xlink"
   xmlns="http://www.w3.org/2000/svg"
   xmlns:svg="http://www.w3.org/2000/svg">
  <defs
     id="defs1018" />
  <path
     id="7"
     d="M 10.3,-90 H 24.8 L 10.3,-62.6"
     fill="none"
     stroke-linecap="square"
     stroke-linejoin="bevel"
     stroke-width="3.5" />
  <g
     id="club_3"
     transform="translate(-1215)">
    <use
       id="u37968"
       transform="translate(405)"
       xlink:href="#clubS" />
    <use
       id="u37970"
       transform="translate(405)"
       xlink:href="#u37950" />
  </g>
  <g
     id="club_4"
     transform="translate(-1215)">
    <use
       id="u46740"
       transform="translate(649.95,-106.5)"
       xlink:href="#club" />
    <use
       id="u46752"
       transform="matrix(1,0,0,-1,649.95,421.5)"
       xlink:href="#club" />
    <use
       id="u46750"
       transform="matrix(1,0,0,-1,565.15,421.5)"
       xlink:href="#club" />
    <use
       id="u46760"
       transform="translate(565.15,-106.5)"
       xlink:href="#club" />
  </g>
  <g
     id="club_6"
     transform="translate(-1215)">
    <use
       id="u46744"
       transform="translate(970.05)"
       xlink:href="#club" />
    <use
       id="u46746"
       transform="translate(1054.95)"
       xlink:href="#club" />
    <use
       id="u46865"
       transform="translate(405)"
       xlink:href="#u46740" />
    <use
       id="u46867"
       transform="translate(405)"
       xlink:href="#u46750" />
    <use
       id="u46869"
       transform="translate(405)"
       xlink:href="#u46752" />
    <use
       id="u46871"
       transform="translate(405)"
       xlink:href="#u46760" />
  </g>
  <g
     id="club_7"
     transform="translate(-1215)">
    <use
       transform="translate(1215)"
       xlink:href="#card"
       id="use32" />
    <use
       transform="translate(810)"
       xlink:href="#u37968"
       id="use33" />
    <use
       transform="translate(810)"
       xlink:href="#u37970"
       id="use34" />
    <use
       id="u46742"
       transform="translate(1215.05,-53.3)"
       xlink:href="#club" />
    <use
       transform="translate(202.5)"
       xlink:href="#u46744"
       id="use35" />
    <use
       transform="translate(202.2)"
       xlink:href="#u46746"
       id="use36" />
    <use
       transform="translate(202.4)"
       xlink:href="#u46865"
       id="use37" />
    <use
       transform="translate(202.5)"
       xlink:href="#u46867"
       id="use38" />
    <use
       transform="translate(202.3)"
       xlink:href="#u46869"
       id="use39" />
    <use
       transform="translate(202.5)"
       xlink:href="#u46871"
       id="use40" />
    <use
       transform="translate(1215,100)"
       style="stroke:#333333"
       xlink:href="#7"
       id="use41" />
    <use
       transform="rotate(180,708.8,107.5)"
       style="stroke:#333333"
       xlink:href="#7"
       id="use42" />
  </g>
  <g
     id="club_1"
     transform="translate(-1215)">
    <rect
       id="card"
       x="0.69999999"
       y="0.69999999"
       width="201.10001"
       height="313.60001"
       rx="9"
       ry="9"
       fill="#ffffff"
       stroke="#333333"
       stroke-width="1.4" />
    <use
       id="u37950"
       transform="rotate(180,101.3,157.5)"
       xlink:href="#clubS" />
    <use
       id="clubS"
       transform="matrix(0.45,0,0,0.45,-28.38,-12.7)"
       xlink:href="#club" />
    <path
       id="club"
       d="m 101.25,132.5 a 11,11 0 0 0 -8.1,18.41 l -0.5,0.52 a 11,11 0 1 0 5.86,13.95 l 0.59,0.37 c 0,7.28 -2.74,13.39 -6.1,16.75 h 16.5 c -3.36,-3.36 -6.1,-9.47 -6.1,-16.75 l 0.59,-0.37 a 11,11 0 0 0 10.26,7.12 11,11 0 1 0 -4.4,-21.07 l -0.5,-0.52 a 11,11 0 0 0 -8.1,-18.41 z"
       style="fill:#333333" />
  </g>
</svg>
