<?xml version="1.0" encoding="UTF-8" standalone="no"?>
<svg
   width="202.5"
   height="315"
   version="1.1"
   id="svg1018"
   xmlns:xlink="http://www.w3.org/1999/xlink"
   xmlns="http://www.w3.org/2000/svg"
   xmlns:svg="http://www.w3.org/2000/svg">
  <defs
     id="defs1018" />
  <path
     id="7"
     d="m 10.3,-405 h 14.5 l -14.5,27.4"
     fill="none"
     stroke-linecap="square"
     stroke-linejoin="bevel"
     stroke-width="3.5" />
  <g
     id="diamond_1"
     transform="translate(-1215,-315)">
    <use
       id="u41521"
       transform="rotate(180,101.3,472.6)"
       xlink:href="#diamS" />
    <path
       id="diam"
       d="m 123.5,472.5 a 112.97,112.97 0 0 0 -22,26 97.4,97.4 0 0 0 -22.6,-26 c 11,-10.3 15.8,-14.6 22.6,-26 a 112.57,112.57 0 0 0 22,26 z"
       fill="#ee1111" />
    <use
       id="diamS"
       transform="matrix(0.4423,0,0,0.4423,-27.7,164.5)"
       xlink:href="#diam" />
  </g>
  <g
     id="diamond_2"
     transform="translate(-1215,-315)">
    <use
       id="u49155"
       transform="translate(202.5,-105.5)"
       xlink:href="#diam" />
    <use
       id="u49157"
       transform="translate(202.5,105.5)"
       xlink:href="#diam" />
  </g>
  <g
     id="diamond_3"
     transform="translate(-1215,-315)">
    <use
       id="u41541"
       transform="translate(405)"
       xlink:href="#diamS" />
    <use
       id="u41543"
       transform="translate(405)"
       xlink:href="#u41521" />
  </g>
  <g
     id="diamond_4"
     transform="translate(-1215,-315)">
    <use
       id="u49179"
       transform="translate(362.6)"
       xlink:href="#u49155" />
    <use
       id="u49181"
       transform="matrix(1,0,0,-1,362.6,1156)"
       xlink:href="#u49157" />
    <use
       id="u49189"
       transform="translate(84.8)"
       xlink:href="#u49179" />
    <use
       id="u49191"
       transform="matrix(1,0,0,-1,84.8,945)"
       xlink:href="#u49179" />
  </g>
  <g
     id="diamond_6"
     transform="translate(-1215,-315)">
    <use
       id="u49219"
       transform="translate(405)"
       xlink:href="#u49179" />
    <use
       id="u49221"
       transform="translate(405)"
       xlink:href="#u49181" />
    <use
       id="u49223"
       transform="translate(405)"
       xlink:href="#u49189" />
    <use
       id="u49225"
       transform="translate(405)"
       xlink:href="#u49191" />
    <use
       id="u49233"
       transform="translate(970)"
       xlink:href="#diam" />
    <use
       id="u49235"
       transform="translate(1054.9)"
       xlink:href="#diam" />
  </g>
  <g
     id="diamond_7"
     transform="translate(-1215,-315)">
    <use
       transform="translate(1215,315)"
       xlink:href="#card"
       id="use769" />
    <use
       transform="translate(810)"
       xlink:href="#u41541"
       id="use770" />
    <use
       transform="translate(810)"
       xlink:href="#u41543"
       id="use771" />
    <use
       transform="translate(202.5)"
       xlink:href="#u49219"
       id="use772" />
    <use
       transform="translate(202.5)"
       xlink:href="#u49221"
       id="use773" />
    <use
       transform="translate(202.4)"
       xlink:href="#u49223"
       id="use774" />
    <use
       transform="translate(202.4)"
       xlink:href="#u49225"
       id="use775" />
    <use
       transform="translate(202.5)"
       xlink:href="#u49233"
       id="use776" />
    <use
       transform="translate(202.4)"
       xlink:href="#u49235"
       id="use777" />
    <use
       transform="translate(1215,-53)"
       xlink:href="#diam"
       id="use778" />
    <use
       transform="translate(1215,730)"
       style="stroke:#ee1111"
       xlink:href="#7"
       id="use779" />
    <use
       transform="rotate(180,708.8,107.5)"
       style="stroke:#ee1111"
       xlink:href="#7"
       id="use780" />
  </g>
  <g
     id="club_1"
     transform="translate(-1215,-315)">
    <rect
       id="card"
       x="0.69999999"
       y="0.69999999"
       width="201.10001"
       height="313.60001"
       rx="9"
       ry="9"
       fill="#ffffff"
       stroke="#333333"
       stroke-width="1.4" />
  </g>
</svg>
