<?xml version="1.0" encoding="UTF-8" standalone="no"?>
<svg
   width="202.5"
   height="315"
   version="1.1"
   id="svg1018"
   xmlns:xlink="http://www.w3.org/1999/xlink"
   xmlns="http://www.w3.org/2000/svg"
   xmlns:svg="http://www.w3.org/2000/svg">
  <defs
     id="defs1018" />
  <path
     id="7"
     d="m 10.3,-720 h 14.5 l -14.5,27.4"
     fill="none"
     stroke-linecap="square"
     stroke-linejoin="bevel"
     stroke-width="3.5" />
  <g
     id="heart_1"
     transform="translate(-1215,-630)">
    <use
       id="u41664"
       transform="rotate(180,101.3,787.6)"
       xlink:href="#heartS" />
    <path
       id="heart"
       d="M 101.3,810.3 C 91.3,795.3 79,788 79,776.8 c 0,-6.2 4.7,-12 11,-12 6.6,0 10.6,5.2 11.2,12 0.7,-6.8 4.7,-12 11.2,-12 6.4,0 11,5.8 11,12 0,11.2 -12.1,18.5 -22.1,33.5 z"
       fill="#ee1111" />
    <use
       id="heartS"
       transform="matrix(0.4498,0,0,0.4498,-28.4,334.3)"
       xlink:href="#heart" />
  </g>
  <g
     id="heart_2"
     transform="translate(-1215,-630)">
    <use
       id="u49445"
       transform="translate(202.5,-108)"
       xlink:href="#heart" />
    <use
       id="u49447"
       transform="matrix(1,0,0,-1,202.5,1683)"
       xlink:href="#heart" />
  </g>
  <g
     id="heart_3"
     transform="translate(-1215,-630)">
    <use
       id="u41685"
       transform="translate(405)"
       xlink:href="#heartS" />
    <use
       id="u41687"
       transform="translate(405)"
       xlink:href="#u41664" />
  </g>
  <g
     id="heart_4"
     transform="translate(-1215,-630)">
    <use
       id="u49461"
       transform="translate(362.6)"
       xlink:href="#u49445" />
    <use
       id="u49463"
       transform="translate(362.6)"
       xlink:href="#u49447" />
    <use
       id="u49471"
       transform="translate(84.8)"
       xlink:href="#u49461" />
    <use
       id="u49473"
       transform="translate(84.8)"
       xlink:href="#u49463" />
  </g>
  <g
     id="heart_6"
     transform="translate(-1215,-630)">
    <use
       id="u49578"
       transform="translate(970)"
       xlink:href="#heart" />
    <use
       id="u49580"
       transform="translate(1054.9)"
       xlink:href="#heart" />
  </g>
  <g
     id="heart_7"
     transform="translate(-1215,-630)">
    <use
       transform="translate(1215,630)"
       xlink:href="#card"
       id="use508" />
    <use
       transform="translate(810)"
       xlink:href="#u41685"
       id="use509" />
    <use
       transform="translate(810)"
       xlink:href="#u41687"
       id="use510" />
    <use
       transform="translate(607.5)"
       xlink:href="#u49461"
       id="use511" />
    <use
       transform="translate(607.5)"
       xlink:href="#u49463"
       id="use512" />
    <use
       transform="translate(607.3)"
       xlink:href="#u49471"
       id="use513" />
    <use
       transform="translate(607.3)"
       xlink:href="#u49473"
       id="use514" />
    <use
       transform="translate(202.5)"
       xlink:href="#u49578"
       id="use515" />
    <use
       transform="translate(202.4)"
       xlink:href="#u49580"
       id="use516" />
    <use
       transform="translate(1215.05,-53.6)"
       xlink:href="#heart"
       id="use517" />
    <use
       transform="translate(1215,1360)"
       style="stroke:#ee1111"
       xlink:href="#7"
       id="use518" />
    <use
       transform="rotate(180,708.8,107.5)"
       style="stroke:#ee1111"
       xlink:href="#7"
       id="use519" />
  </g>
  <g
     id="club_1"
     transform="translate(-1215,-630)">
    <rect
       id="card"
       x="0.69999999"
       y="0.69999999"
       width="201.10001"
       height="313.60001"
       rx="9"
       ry="9"
       fill="#ffffff"
       stroke="#333333"
       stroke-width="1.4" />
  </g>
</svg>
