<?xml version="1.0" encoding="UTF-8" standalone="no"?>
<svg
   width="202.5"
   height="315"
   version="1.1"
   id="svg1018"
   xmlns:xlink="http://www.w3.org/1999/xlink"
   xmlns="http://www.w3.org/2000/svg"
   xmlns:svg="http://www.w3.org/2000/svg">
  <defs
     id="defs1018" />
  <path
     id="6"
     d="m -193.6,-1015.9 c 0,-4.5 3.7,-8.2 8.2,-8.2 a 8.25,8.25 0 0 1 0,16.5 8.2,8.2 0 0 1 -8.2,-8.3 c 0,-2.9 -0.5,-10.6 1.7,-15 3.1,-6.2 12,-5.2 14.3,2.2"
     fill="none"
     stroke-width="3.5" />
  <path
     id="7"
     d="m 10.3,-1035 h 14.5 l -14.5,27.4"
     fill="none"
     stroke-linecap="square"
     stroke-linejoin="bevel"
     stroke-width="3.5" />
  <path
     id="8"
     d="m 228.6,-1015.2 c 0,4.2 -4,7.6 -9,7.6 -5,0 -9.2,-3.4 -9.2,-7.6 0,-4.2 4.1,-7.5 9.1,-7.5 5,0 9.1,3.4 9.1,7.5 z m -1.7,-13.6 c 0,3.3 -3.3,6 -7.4,6 -4,0 -7.3,-2.7 -7.3,-6 0,-3.3 3.3,-6.2 7.3,-6.2 4,0 7.4,2.8 7.4,6.1 z"
     fill="none"
     stroke-width="3.5" />
  <g
     id="spade_1"
     transform="translate(-1215,-945)">
    <g
       id="g272">
      <use
         id="u42787"
         transform="rotate(180,101.3,1102.5)"
         xlink:href="#p37946" />
      <use
         id="p37946"
         transform="matrix(0.46108,0,0,0.46108,-216.4,495.2)"
         xlink:href="#spade" />
    </g>
  </g>
  <g
     id="spade_2"
     transform="translate(-1215,-945)">
    <use
       id="u42791"
       transform="translate(202.6)"
       xlink:href="#p37946" />
    <use
       id="u42793"
       transform="translate(202.6)"
       xlink:href="#u42787" />
    <use
       id="u51906"
       transform="translate(-202.5,-104.7)"
       xlink:href="#spade" />
    <use
       id="u51908"
       transform="matrix(1,0,0,-1,-202.5,2309.7)"
       xlink:href="#spade" />
  </g>
  <g
     id="spade_3"
     transform="translate(-1215,-945)">
    <use
       id="u42807"
       transform="translate(405)"
       xlink:href="#p37946" />
    <use
       id="u42809"
       transform="translate(405)"
       xlink:href="#u42787" />
    <path
       id="spade"
       d="m 506.25,1075.5 c -9,17 -21.75,20.1 -21.75,31.6 0,6.1 4.4,11.3 10.6,11.3 3.7,0.06 7.1,-1.85 9,-5 0,8 -3.2,12.3 -6.3,16 h 16.8 c -3.1,-3.7 -6.4,-8 -6.2,-16 1.9,3.2 5.35,5 9,5 6.2,0 10.5,-5.3 10.6,-11.4 0,-11.4 -12.75,-14.5 -21.75,-31.5 z"
       fill="#333333" />
  </g>
  <g
     id="spade_4"
     transform="translate(-1215,-945)">
    <use
       id="u42811"
       transform="translate(405)"
       xlink:href="#u42791" />
    <use
       id="u51922"
       transform="translate(362.6)"
       xlink:href="#u51906" />
    <use
       id="u51932"
       transform="translate(84.8)"
       xlink:href="#u51922" />
    <use
       id="u51934"
       transform="translate(84.8)"
       xlink:href="#u51924" />
    <use
       id="u42813"
       transform="translate(405)"
       xlink:href="#u42793" />
    <use
       id="u51924"
       transform="translate(362.6)"
       xlink:href="#u51908" />
  </g>
  <g
     id="spade_6"
     transform="translate(-1215,-945)">
    <use
       transform="translate(1012.5,945)"
       xlink:href="#card"
       id="use292" />
    <use
       transform="translate(810)"
       xlink:href="#u42791"
       id="use293" />
    <use
       transform="translate(810)"
       xlink:href="#u42793"
       id="use294" />
    <use
       id="u51992"
       transform="translate(405)"
       xlink:href="#u51922" />
    <use
       id="u51994"
       transform="translate(405)"
       xlink:href="#u51924" />
    <use
       id="u51996"
       transform="translate(405)"
       xlink:href="#u51932" />
    <use
       id="u51998"
       transform="translate(405)"
       xlink:href="#u51934" />
    <use
       id="u52006"
       transform="translate(565)"
       xlink:href="#spade" />
    <use
       id="u52008"
       transform="translate(649.9)"
       xlink:href="#spade" />
    <use
       transform="translate(1215,1990)"
       style="stroke:#333333"
       xlink:href="#6"
       id="use295" />
    <use
       transform="rotate(180,506.3,107.5)"
       style="stroke:#333333"
       xlink:href="#6"
       id="use296" />
  </g>
  <g
     id="spade_7"
     transform="translate(-1215,-945)">
    <use
       transform="translate(1215,945)"
       xlink:href="#card"
       id="use297" />
    <use
       transform="translate(810)"
       xlink:href="#u42807"
       id="use298" />
    <use
       transform="translate(810)"
       xlink:href="#u42809"
       id="use299" />
    <use
       transform="translate(202.5)"
       xlink:href="#u51992"
       id="use300" />
    <use
       transform="translate(202.5)"
       xlink:href="#u51994"
       id="use301" />
    <use
       transform="translate(202.4)"
       xlink:href="#u51996"
       id="use302" />
    <use
       transform="translate(202.4)"
       xlink:href="#u51998"
       id="use303" />
    <use
       transform="translate(202.5)"
       xlink:href="#u52006"
       id="use304" />
    <use
       transform="translate(202.4)"
       xlink:href="#u52008"
       id="use305" />
    <use
       transform="translate(810,-52.4)"
       xlink:href="#spade"
       id="use306" />
    <use
       transform="translate(1215,1990)"
       style="stroke:#333333"
       xlink:href="#7"
       id="use307" />
    <use
       transform="rotate(180,708.8,107.5)"
       style="stroke:#333333"
       xlink:href="#7"
       id="use308" />
  </g>
  <g
     id="spade_8"
     transform="translate(-1215,-945)">
    <use
       transform="translate(1417.5,945)"
       xlink:href="#card"
       id="use309" />
    <use
       transform="translate(810)"
       xlink:href="#u42811"
       id="use310" />
    <use
       transform="translate(810)"
       xlink:href="#u42813"
       id="use311" />
    <use
       id="u52050"
       transform="translate(810)"
       xlink:href="#u51922" />
    <use
       id="u52052"
       transform="translate(810)"
       xlink:href="#u51924" />
    <use
       id="u52054"
       transform="translate(810)"
       xlink:href="#u51932" />
    <use
       id="u52056"
       transform="translate(810)"
       xlink:href="#u51934" />
    <use
       id="u52064"
       transform="translate(970.1,-34.9)"
       xlink:href="#spade" />
    <use
       id="u52066"
       transform="translate(1054.9,-34.9)"
       xlink:href="#spade" />
    <use
       id="u52068"
       transform="matrix(1,0,0,-1,0,2205)"
       xlink:href="#u52064" />
    <use
       id="u52070"
       transform="matrix(1,0,0,-1,0,2205)"
       xlink:href="#u52066" />
    <use
       transform="translate(1215,1990)"
       style="stroke:#333333"
       xlink:href="#8"
       id="use312" />
    <use
       transform="rotate(180,911.3,107.5)"
       style="stroke:#333333"
       xlink:href="#8"
       id="use313" />
  </g>
  <g
     id="heart_1"
     transform="translate(-1215,-945)">
    <use
       id="u41664"
       transform="rotate(180,101.3,787.6)"
       xlink:href="#heartS" />
    <path
       id="heart"
       d="M 101.3,810.3 C 91.3,795.3 79,788 79,776.8 c 0,-6.2 4.7,-12 11,-12 6.6,0 10.6,5.2 11.2,12 0.7,-6.8 4.7,-12 11.2,-12 6.4,0 11,5.8 11,12 0,11.2 -12.1,18.5 -22.1,33.5 z"
       fill="#ee1111" />
    <use
       id="heartS"
       transform="matrix(0.4498,0,0,0.4498,-28.4,334.3)"
       xlink:href="#heart" />
  </g>
  <g
     id="heart_2"
     transform="translate(-1215,-945)">
    <use
       id="u41668"
       transform="translate(202.5)"
       xlink:href="#heartS" />
    <use
       id="u41670"
       transform="translate(202.5)"
       xlink:href="#u41664" />
    <use
       id="u49445"
       transform="translate(202.5,-108)"
       xlink:href="#heart" />
    <use
       id="u49447"
       transform="matrix(1,0,0,-1,202.5,1683)"
       xlink:href="#heart" />
  </g>
  <g
     id="heart_3"
     transform="translate(-1215,-945)">
    <use
       id="u41685"
       transform="translate(405)"
       xlink:href="#heartS" />
    <use
       id="u41687"
       transform="translate(405)"
       xlink:href="#u41664" />
  </g>
  <g
     id="heart_4"
     transform="translate(-1215,-945)">
    <use
       id="u41689"
       transform="translate(405)"
       xlink:href="#u41668" />
    <use
       id="u41691"
       transform="translate(405)"
       xlink:href="#u41670" />
    <use
       id="u49461"
       transform="translate(362.6)"
       xlink:href="#u49445" />
    <use
       id="u49463"
       transform="translate(362.6)"
       xlink:href="#u49447" />
    <use
       id="u49471"
       transform="translate(84.8)"
       xlink:href="#u49461" />
    <use
       id="u49473"
       transform="translate(84.8)"
       xlink:href="#u49463" />
  </g>
  <g
     id="heart_6"
     transform="translate(-1215,-945)">
    <use
       transform="translate(1012.5,630)"
       xlink:href="#card"
       id="use499" />
    <use
       transform="translate(810)"
       xlink:href="#u41668"
       id="use500" />
    <use
       transform="translate(810)"
       xlink:href="#u41670"
       id="use501" />
    <use
       transform="translate(405)"
       xlink:href="#u49461"
       id="use502" />
    <use
       transform="translate(405)"
       xlink:href="#u49463"
       id="use503" />
    <use
       transform="translate(405)"
       xlink:href="#u49471"
       id="use504" />
    <use
       transform="translate(405)"
       xlink:href="#u49473"
       id="use505" />
    <use
       id="u49578"
       transform="translate(970)"
       xlink:href="#heart" />
    <use
       id="u49580"
       transform="translate(1054.9)"
       xlink:href="#heart" />
    <use
       transform="translate(1215,1675)"
       style="stroke:#ee1111"
       xlink:href="#6"
       id="use506" />
    <use
       transform="rotate(180,506.3,-50)"
       style="stroke:#ee1111"
       xlink:href="#6"
       id="use507" />
  </g>
  <g
     id="heart_7"
     transform="translate(-1215,-945)">
    <use
       transform="translate(1215,630)"
       xlink:href="#card"
       id="use508" />
    <use
       transform="translate(810)"
       xlink:href="#u41685"
       id="use509" />
    <use
       transform="translate(810)"
       xlink:href="#u41687"
       id="use510" />
    <use
       transform="translate(607.5)"
       xlink:href="#u49461"
       id="use511" />
    <use
       transform="translate(607.5)"
       xlink:href="#u49463"
       id="use512" />
    <use
       transform="translate(607.3)"
       xlink:href="#u49471"
       id="use513" />
    <use
       transform="translate(607.3)"
       xlink:href="#u49473"
       id="use514" />
    <use
       transform="translate(202.5)"
       xlink:href="#u49578"
       id="use515" />
    <use
       transform="translate(202.4)"
       xlink:href="#u49580"
       id="use516" />
    <use
       transform="translate(1215.05,-53.6)"
       xlink:href="#heart"
       id="use517" />
    <use
       transform="translate(1215,1675)"
       style="stroke:#ee1111"
       xlink:href="#7"
       id="use518" />
    <use
       transform="rotate(180,708.8,-50)"
       style="stroke:#ee1111"
       xlink:href="#7"
       id="use519" />
  </g>
  <g
     id="heart_8"
     transform="translate(-1215,-945)">
    <use
       transform="translate(1417.5,630)"
       xlink:href="#card"
       id="use520" />
    <use
       transform="translate(810)"
       xlink:href="#u41689"
       id="use521" />
    <use
       transform="translate(810)"
       xlink:href="#u41691"
       id="use522" />
    <use
       transform="translate(810)"
       xlink:href="#u49461"
       id="use523" />
    <use
       transform="translate(810)"
       xlink:href="#u49463"
       id="use524" />
    <use
       transform="translate(810)"
       xlink:href="#u49471"
       id="use525" />
    <use
       transform="translate(810)"
       xlink:href="#u49473"
       id="use526" />
    <use
       id="u49636"
       transform="translate(1375,-36)"
       xlink:href="#heart" />
    <use
       id="u49638"
       transform="translate(1459.9,-36)"
       xlink:href="#heart" />
    <use
       id="u49640"
       transform="matrix(1,0,0,-1,1459.9,1611)"
       xlink:href="#heart" />
    <use
       id="u49642"
       transform="matrix(1,0,0,-1,1375,1611)"
       xlink:href="#heart" />
    <use
       transform="translate(1215,1675)"
       style="stroke:#ee1111"
       xlink:href="#8"
       id="use527" />
    <use
       transform="rotate(180,911.3,-50)"
       style="stroke:#ee1111"
       xlink:href="#8"
       id="use528" />
  </g>
  <g
     id="club_1"
     transform="translate(-1215,-945)">
    <rect
       id="card"
       x="0.69999999"
       y="0.69999999"
       width="201.10001"
       height="313.60001"
       rx="9"
       ry="9"
       fill="#ffffff"
       stroke="#333333"
       stroke-width="1.4" />
  </g>
</svg>
