<?xml version="1.0" encoding="UTF-8" standalone="no"?>
<svg
   width="202.5"
   height="315"
   version="1.1"
   id="svg1018"
   xmlns:xlink="http://www.w3.org/1999/xlink"
   xmlns="http://www.w3.org/2000/svg"
   xmlns:svg="http://www.w3.org/2000/svg">
  <defs
     id="defs1018" />
  <path
     id="8"
     d="m 26.1,-385.2 c 0,4.2 -4,7.6 -9,7.6 -5,0 -9.2,-3.4 -9.2,-7.6 0,-4.2 4.1,-7.5 9.1,-7.5 5,0 9.1,3.4 9.1,7.5 z m -1.7,-13.6 c 0,3.3 -3.3,6 -7.4,6 -4,0 -7.3,-2.7 -7.3,-6 0,-3.3 3.3,-6.2 7.3,-6.2 4,0 7.4,2.8 7.4,6.1 z"
     fill="none"
     stroke-width="3.5" />
  <g
     id="diamond_1"
     transform="translate(-1417.5,-315)">
    <use
       id="u41521"
       transform="rotate(180,101.3,472.6)"
       xlink:href="#diamS" />
    <path
       id="diam"
       d="m 123.5,472.5 a 112.97,112.97 0 0 0 -22,26 97.4,97.4 0 0 0 -22.6,-26 c 11,-10.3 15.8,-14.6 22.6,-26 a 112.57,112.57 0 0 0 22,26 z"
       fill="#ee1111" />
    <use
       id="diamS"
       transform="matrix(0.4423,0,0,0.4423,-27.7,164.5)"
       xlink:href="#diam" />
  </g>
  <g
     id="diamond_2"
     transform="translate(-1417.5,-315)">
    <use
       id="u41525"
       transform="translate(202.5)"
       xlink:href="#diamS" />
    <use
       id="u41527"
       transform="translate(202.5)"
       xlink:href="#u41521" />
    <use
       id="u49155"
       transform="translate(202.5,-105.5)"
       xlink:href="#diam" />
    <use
       id="u49157"
       transform="translate(202.5,105.5)"
       xlink:href="#diam" />
  </g>
  <g
     id="diamond_4"
     transform="translate(-1417.5,-315)">
    <use
       id="u41545"
       transform="translate(405)"
       xlink:href="#u41525" />
    <use
       id="u41547"
       transform="translate(405)"
       xlink:href="#u41527" />
    <use
       id="u49179"
       transform="translate(362.6)"
       xlink:href="#u49155" />
    <use
       id="u49181"
       transform="matrix(1,0,0,-1,362.6,1156)"
       xlink:href="#u49157" />
    <use
       id="u49189"
       transform="translate(84.8)"
       xlink:href="#u49179" />
    <use
       id="u49191"
       transform="matrix(1,0,0,-1,84.8,945)"
       xlink:href="#u49179" />
  </g>
  <g
     id="diamond_8"
     transform="translate(-1417.5,-315)">
    <use
       transform="translate(1417.5,315)"
       xlink:href="#card"
       id="use781" />
    <use
       transform="translate(810)"
       xlink:href="#u41545"
       id="use782" />
    <use
       transform="translate(810)"
       xlink:href="#u41547"
       id="use783" />
    <use
       transform="translate(810)"
       xlink:href="#u49179"
       id="use784" />
    <use
       transform="translate(810)"
       xlink:href="#u49181"
       id="use785" />
    <use
       transform="translate(810)"
       xlink:href="#u49189"
       id="use786" />
    <use
       transform="translate(810)"
       xlink:href="#u49191"
       id="use787" />
    <use
       id="u49320"
       transform="translate(1375.1,-35.5)"
       xlink:href="#diam" />
    <use
       id="u49322"
       transform="translate(1459.9,-35.5)"
       xlink:href="#diam" />
    <use
       id="u49326"
       transform="matrix(1,0,0,-1,0,944.5)"
       xlink:href="#u49320" />
    <use
       id="u49328"
       transform="matrix(1,0,0,-1,0,944.5)"
       xlink:href="#u49322" />
    <use
       transform="translate(1417.5,730)"
       style="stroke:#ee1111"
       xlink:href="#8"
       id="use788" />
    <use
       transform="rotate(180,810.05,107.5)"
       style="stroke:#ee1111"
       xlink:href="#8"
       id="use789" />
  </g>
  <g
     id="club_1"
     transform="translate(-1417.5,-315)">
    <rect
       id="card"
       x="0.69999999"
       y="0.69999999"
       width="201.10001"
       height="313.60001"
       rx="9"
       ry="9"
       fill="#ffffff"
       stroke="#333333"
       stroke-width="1.4" />
  </g>
</svg>
