<?xml version="1.0" encoding="UTF-8" standalone="no"?>
<svg
   width="202.5"
   height="315"
   version="1.1"
   id="svg1018"
   xmlns:xlink="http://www.w3.org/1999/xlink"
   xmlns="http://www.w3.org/2000/svg"
   xmlns:svg="http://www.w3.org/2000/svg">
  <defs
     id="defs1018" />
  <path
     id="7"
     d="m -192.2,-405 h 14.5 l -14.5,27.4"
     fill="none"
     stroke-linecap="square"
     stroke-linejoin="bevel"
     stroke-width="3.5" />
  <path
     id="8"
     d="m 26.1,-385.2 c 0,4.2 -4,7.6 -9,7.6 -5,0 -9.2,-3.4 -9.2,-7.6 0,-4.2 4.1,-7.5 9.1,-7.5 5,0 9.1,3.4 9.1,7.5 z m -1.7,-13.6 c 0,3.3 -3.3,6 -7.4,6 -4,0 -7.3,-2.7 -7.3,-6 0,-3.3 3.3,-6.2 7.3,-6.2 4,0 7.4,2.8 7.4,6.1 z"
     fill="none"
     stroke-width="3.5" />
  <path
     id="9"
     d="m 227.7,-396.7 c 0,4.5 -3.7,8.2 -8.2,8.2 a 8.25,8.25 0 0 1 0,-16.5 c 4.5,0 8.2,3.8 8.2,8.3 0,2.9 0.5,10.6 -1.8,15 -3,6.2 -12,5.2 -14.3,-2.2"
     fill="none"
     stroke-width="3.5" />
  <g
     id="club_2"
     transform="translate(-1417.5,-315)">
    <use
       id="u37954"
       transform="translate(202.5)"
       xlink:href="#clubS" />
    <use
       id="u37956"
       transform="translate(202.5)"
       xlink:href="#u37950" />
  </g>
  <g
     id="club_3"
     transform="translate(-1417.5,-315)">
    <use
       id="u37968"
       transform="translate(405)"
       xlink:href="#clubS" />
    <use
       id="u37970"
       transform="translate(405)"
       xlink:href="#u37950" />
  </g>
  <g
     id="club_4"
     transform="translate(-1417.5,-315)">
    <use
       id="u46740"
       transform="translate(649.95,-106.5)"
       xlink:href="#club" />
    <use
       id="u46752"
       transform="matrix(1,0,0,-1,649.95,421.5)"
       xlink:href="#club" />
    <use
       id="u37972"
       transform="translate(405)"
       xlink:href="#u37954" />
    <use
       id="u37974"
       transform="translate(405)"
       xlink:href="#u37956" />
    <use
       id="u46750"
       transform="matrix(1,0,0,-1,565.15,421.5)"
       xlink:href="#club" />
    <use
       id="u46760"
       transform="translate(565.15,-106.5)"
       xlink:href="#club" />
  </g>
  <g
     id="club_6"
     transform="translate(-1417.5,-315)">
    <use
       id="u46744"
       transform="translate(970.05)"
       xlink:href="#club" />
    <use
       id="u46746"
       transform="translate(1054.95)"
       xlink:href="#club" />
    <use
       id="u46865"
       transform="translate(405)"
       xlink:href="#u46740" />
    <use
       id="u46867"
       transform="translate(405)"
       xlink:href="#u46750" />
    <use
       id="u46869"
       transform="translate(405)"
       xlink:href="#u46752" />
    <use
       id="u46871"
       transform="translate(405)"
       xlink:href="#u46760" />
  </g>
  <g
     id="club_7"
     transform="translate(-1417.5,-315)">
    <use
       transform="translate(1215)"
       xlink:href="#card"
       id="use32" />
    <use
       transform="translate(810)"
       xlink:href="#u37968"
       id="use33" />
    <use
       transform="translate(810)"
       xlink:href="#u37970"
       id="use34" />
    <use
       id="u46742"
       transform="translate(1215.05,-53.3)"
       xlink:href="#club" />
    <use
       transform="translate(202.5)"
       xlink:href="#u46744"
       id="use35" />
    <use
       transform="translate(202.2)"
       xlink:href="#u46746"
       id="use36" />
    <use
       transform="translate(202.4)"
       xlink:href="#u46865"
       id="use37" />
    <use
       transform="translate(202.5)"
       xlink:href="#u46867"
       id="use38" />
    <use
       transform="translate(202.3)"
       xlink:href="#u46869"
       id="use39" />
    <use
       transform="translate(202.5)"
       xlink:href="#u46871"
       id="use40" />
    <use
       transform="translate(1417.5,415)"
       style="stroke:#333333"
       xlink:href="#7"
       id="use41" />
    <use
       transform="rotate(180,607.55,-50)"
       style="stroke:#333333"
       xlink:href="#7"
       id="use42" />
  </g>
  <g
     id="club_8"
     transform="translate(-1417.5,-315)">
    <use
       transform="translate(1417.5)"
       xlink:href="#card"
       id="use43" />
    <use
       transform="translate(810)"
       xlink:href="#u37972"
       id="use44" />
    <use
       transform="translate(810)"
       xlink:href="#u37974"
       id="use45" />
    <use
       id="u46935"
       transform="translate(1375.15,-35.5)"
       xlink:href="#club" />
    <use
       id="u46937"
       transform="translate(1459.95,-35.5)"
       xlink:href="#club" />
    <use
       id="u46939"
       transform="matrix(1,0,0,-1,1375.15,350.5)"
       xlink:href="#club" />
    <use
       id="u46941"
       transform="matrix(1,0,0,-1,1459.95,350.5)"
       xlink:href="#club" />
    <use
       transform="translate(810)"
       xlink:href="#u46740"
       id="use46" />
    <use
       transform="translate(810)"
       xlink:href="#u46750"
       id="use47" />
    <use
       transform="translate(810)"
       xlink:href="#u46752"
       id="use48" />
    <use
       transform="translate(810)"
       xlink:href="#u46760"
       id="use49" />
    <use
       transform="translate(1417.5,415)"
       style="stroke:#333333"
       xlink:href="#8"
       id="use50" />
    <use
       transform="rotate(180,810.05,-50)"
       style="stroke:#333333"
       xlink:href="#8"
       id="use51" />
  </g>
  <g
     id="club_9"
     transform="translate(-1417.5,-315)">
    <use
       transform="translate(1620)"
       xlink:href="#card"
       id="use52" />
    <use
       transform="translate(1619.9)"
       xlink:href="#clubS"
       id="use53" />
    <use
       transform="translate(1620)"
       xlink:href="#u37950"
       id="use54" />
    <use
       transform="translate(1012.5)"
       xlink:href="#u46740"
       id="use55" />
    <use
       transform="translate(1012.5)"
       xlink:href="#u46750"
       id="use56" />
    <use
       transform="translate(1012.5,-71)"
       xlink:href="#u46752"
       id="use57" />
    <use
       transform="translate(1012.5)"
       xlink:href="#u46760"
       id="use58" />
    <use
       transform="translate(202.5)"
       xlink:href="#u46935"
       id="use59" />
    <use
       transform="translate(202.5)"
       xlink:href="#u46937"
       id="use60" />
    <use
       transform="translate(202.5)"
       xlink:href="#u46939"
       id="use61" />
    <use
       transform="translate(202.5,71)"
       xlink:href="#u46941"
       id="use62" />
    <use
       transform="translate(405,53.3)"
       xlink:href="#u46742"
       id="use63" />
    <use
       transform="translate(1417.5,415)"
       style="stroke:#333333"
       xlink:href="#9"
       id="use64" />
    <use
       transform="rotate(180,1012.55,-50)"
       style="stroke:#333333"
       xlink:href="#9"
       id="use65" />
  </g>
  <g
     id="heart_1"
     transform="translate(-1417.5,-315)">
    <use
       id="u41664"
       transform="rotate(180,101.3,787.6)"
       xlink:href="#heartS" />
    <path
       id="heart"
       d="M 101.3,810.3 C 91.3,795.3 79,788 79,776.8 c 0,-6.2 4.7,-12 11,-12 6.6,0 10.6,5.2 11.2,12 0.7,-6.8 4.7,-12 11.2,-12 6.4,0 11,5.8 11,12 0,11.2 -12.1,18.5 -22.1,33.5 z"
       fill="#ee1111" />
    <use
       id="heartS"
       transform="matrix(0.4498,0,0,0.4498,-28.4,334.3)"
       xlink:href="#heart" />
  </g>
  <g
     id="heart_2"
     transform="translate(-1417.5,-315)">
    <use
       id="u41668"
       transform="translate(202.5)"
       xlink:href="#heartS" />
    <use
       id="u41670"
       transform="translate(202.5)"
       xlink:href="#u41664" />
    <use
       id="u49445"
       transform="translate(202.5,-108)"
       xlink:href="#heart" />
    <use
       id="u49447"
       transform="matrix(1,0,0,-1,202.5,1683)"
       xlink:href="#heart" />
  </g>
  <g
     id="heart_3"
     transform="translate(-1417.5,-315)">
    <use
       id="u41685"
       transform="translate(405)"
       xlink:href="#heartS" />
    <use
       id="u41687"
       transform="translate(405)"
       xlink:href="#u41664" />
  </g>
  <g
     id="heart_4"
     transform="translate(-1417.5,-315)">
    <use
       id="u41689"
       transform="translate(405)"
       xlink:href="#u41668" />
    <use
       id="u41691"
       transform="translate(405)"
       xlink:href="#u41670" />
    <use
       id="u49461"
       transform="translate(362.6)"
       xlink:href="#u49445" />
    <use
       id="u49463"
       transform="translate(362.6)"
       xlink:href="#u49447" />
    <use
       id="u49471"
       transform="translate(84.8)"
       xlink:href="#u49461" />
    <use
       id="u49473"
       transform="translate(84.8)"
       xlink:href="#u49463" />
  </g>
  <g
     id="heart_6"
     transform="translate(-1417.5,-315)">
    <use
       id="u49578"
       transform="translate(970)"
       xlink:href="#heart" />
    <use
       id="u49580"
       transform="translate(1054.9)"
       xlink:href="#heart" />
  </g>
  <g
     id="heart_7"
     transform="translate(-1417.5,-315)">
    <use
       transform="translate(1215,630)"
       xlink:href="#card"
       id="use508" />
    <use
       transform="translate(810)"
       xlink:href="#u41685"
       id="use509" />
    <use
       transform="translate(810)"
       xlink:href="#u41687"
       id="use510" />
    <use
       transform="translate(607.5)"
       xlink:href="#u49461"
       id="use511" />
    <use
       transform="translate(607.5)"
       xlink:href="#u49463"
       id="use512" />
    <use
       transform="translate(607.3)"
       xlink:href="#u49471"
       id="use513" />
    <use
       transform="translate(607.3)"
       xlink:href="#u49473"
       id="use514" />
    <use
       transform="translate(202.5)"
       xlink:href="#u49578"
       id="use515" />
    <use
       transform="translate(202.4)"
       xlink:href="#u49580"
       id="use516" />
    <use
       transform="translate(1215.05,-53.6)"
       xlink:href="#heart"
       id="use517" />
    <use
       transform="translate(1417.5,1045)"
       style="stroke:#ee1111"
       xlink:href="#7"
       id="use518" />
    <use
       transform="rotate(180,607.55,265)"
       style="stroke:#ee1111"
       xlink:href="#7"
       id="use519" />
  </g>
  <g
     id="heart_8"
     transform="translate(-1417.5,-315)">
    <use
       transform="translate(1417.5,630)"
       xlink:href="#card"
       id="use520" />
    <use
       transform="translate(810)"
       xlink:href="#u41689"
       id="use521" />
    <use
       transform="translate(810)"
       xlink:href="#u41691"
       id="use522" />
    <use
       transform="translate(810)"
       xlink:href="#u49461"
       id="use523" />
    <use
       transform="translate(810)"
       xlink:href="#u49463"
       id="use524" />
    <use
       transform="translate(810)"
       xlink:href="#u49471"
       id="use525" />
    <use
       transform="translate(810)"
       xlink:href="#u49473"
       id="use526" />
    <use
       id="u49636"
       transform="translate(1375,-36)"
       xlink:href="#heart" />
    <use
       id="u49638"
       transform="translate(1459.9,-36)"
       xlink:href="#heart" />
    <use
       id="u49640"
       transform="matrix(1,0,0,-1,1459.9,1611)"
       xlink:href="#heart" />
    <use
       id="u49642"
       transform="matrix(1,0,0,-1,1375,1611)"
       xlink:href="#heart" />
    <use
       transform="translate(1417.5,1045)"
       style="stroke:#ee1111"
       xlink:href="#8"
       id="use527" />
    <use
       transform="rotate(180,810.05,265)"
       style="stroke:#ee1111"
       xlink:href="#8"
       id="use528" />
  </g>
  <g
     id="heart_9"
     transform="translate(-1417.5,-315)">
    <use
       transform="translate(1620,630)"
       xlink:href="#card"
       id="use529" />
    <use
       transform="translate(1619.9)"
       xlink:href="#heartS"
       id="use530" />
    <use
       transform="translate(1620)"
       xlink:href="#u41664"
       id="use531" />
    <use
       transform="translate(202.5)"
       xlink:href="#u49636"
       id="use532" />
    <use
       transform="translate(202.5)"
       xlink:href="#u49638"
       id="use533" />
    <use
       transform="translate(202.5)"
       xlink:href="#u49640"
       id="use534" />
    <use
       transform="translate(202.5)"
       xlink:href="#u49642"
       id="use535" />
    <use
       transform="translate(1012.5)"
       xlink:href="#u49461"
       id="use536" />
    <use
       transform="translate(1012.5)"
       xlink:href="#u49463"
       id="use537" />
    <use
       transform="translate(1012.5)"
       xlink:href="#u49471"
       id="use538" />
    <use
       transform="translate(1012.5)"
       xlink:href="#u49473"
       id="use539" />
    <use
       transform="translate(1620.05)"
       xlink:href="#heart"
       id="use540" />
    <use
       transform="translate(1417.5,1045)"
       style="stroke:#ee1111"
       xlink:href="#9"
       id="use541" />
    <use
       transform="rotate(180,1012.55,265)"
       style="stroke:#ee1111"
       xlink:href="#9"
       id="use542" />
  </g>
  <g
     id="diamond_1"
     transform="translate(-1417.5,-315)">
    <use
       id="u41521"
       transform="rotate(180,101.3,472.6)"
       xlink:href="#diamS" />
    <path
       id="diam"
       d="m 123.5,472.5 a 112.97,112.97 0 0 0 -22,26 97.4,97.4 0 0 0 -22.6,-26 c 11,-10.3 15.8,-14.6 22.6,-26 a 112.57,112.57 0 0 0 22,26 z"
       fill="#ee1111" />
    <use
       id="diamS"
       transform="matrix(0.4423,0,0,0.4423,-27.7,164.5)"
       xlink:href="#diam" />
  </g>
  <g
     id="diamond_2"
     transform="translate(-1417.5,-315)">
    <use
       id="u41525"
       transform="translate(202.5)"
       xlink:href="#diamS" />
    <use
       id="u41527"
       transform="translate(202.5)"
       xlink:href="#u41521" />
    <use
       id="u49155"
       transform="translate(202.5,-105.5)"
       xlink:href="#diam" />
    <use
       id="u49157"
       transform="translate(202.5,105.5)"
       xlink:href="#diam" />
  </g>
  <g
     id="diamond_3"
     transform="translate(-1417.5,-315)">
    <use
       id="u41541"
       transform="translate(405)"
       xlink:href="#diamS" />
    <use
       id="u41543"
       transform="translate(405)"
       xlink:href="#u41521" />
  </g>
  <g
     id="diamond_4"
     transform="translate(-1417.5,-315)">
    <use
       id="u41545"
       transform="translate(405)"
       xlink:href="#u41525" />
    <use
       id="u41547"
       transform="translate(405)"
       xlink:href="#u41527" />
    <use
       id="u49179"
       transform="translate(362.6)"
       xlink:href="#u49155" />
    <use
       id="u49181"
       transform="matrix(1,0,0,-1,362.6,1156)"
       xlink:href="#u49157" />
    <use
       id="u49189"
       transform="translate(84.8)"
       xlink:href="#u49179" />
    <use
       id="u49191"
       transform="matrix(1,0,0,-1,84.8,945)"
       xlink:href="#u49179" />
  </g>
  <g
     id="diamond_6"
     transform="translate(-1417.5,-315)">
    <use
       id="u49219"
       transform="translate(405)"
       xlink:href="#u49179" />
    <use
       id="u49221"
       transform="translate(405)"
       xlink:href="#u49181" />
    <use
       id="u49223"
       transform="translate(405)"
       xlink:href="#u49189" />
    <use
       id="u49225"
       transform="translate(405)"
       xlink:href="#u49191" />
    <use
       id="u49233"
       transform="translate(970)"
       xlink:href="#diam" />
    <use
       id="u49235"
       transform="translate(1054.9)"
       xlink:href="#diam" />
  </g>
  <g
     id="diamond_7"
     transform="translate(-1417.5,-315)">
    <use
       transform="translate(1215,315)"
       xlink:href="#card"
       id="use769" />
    <use
       transform="translate(810)"
       xlink:href="#u41541"
       id="use770" />
    <use
       transform="translate(810)"
       xlink:href="#u41543"
       id="use771" />
    <use
       transform="translate(202.5)"
       xlink:href="#u49219"
       id="use772" />
    <use
       transform="translate(202.5)"
       xlink:href="#u49221"
       id="use773" />
    <use
       transform="translate(202.4)"
       xlink:href="#u49223"
       id="use774" />
    <use
       transform="translate(202.4)"
       xlink:href="#u49225"
       id="use775" />
    <use
       transform="translate(202.5)"
       xlink:href="#u49233"
       id="use776" />
    <use
       transform="translate(202.4)"
       xlink:href="#u49235"
       id="use777" />
    <use
       transform="translate(1215,-53)"
       xlink:href="#diam"
       id="use778" />
    <use
       transform="translate(1417.5,730)"
       style="stroke:#ee1111"
       xlink:href="#7"
       id="use779" />
    <use
       transform="rotate(180,607.55,107.5)"
       style="stroke:#ee1111"
       xlink:href="#7"
       id="use780" />
  </g>
  <g
     id="diamond_8"
     transform="translate(-1417.5,-315)">
    <use
       transform="translate(1417.5,315)"
       xlink:href="#card"
       id="use781" />
    <use
       transform="translate(810)"
       xlink:href="#u41545"
       id="use782" />
    <use
       transform="translate(810)"
       xlink:href="#u41547"
       id="use783" />
    <use
       transform="translate(810)"
       xlink:href="#u49179"
       id="use784" />
    <use
       transform="translate(810)"
       xlink:href="#u49181"
       id="use785" />
    <use
       transform="translate(810)"
       xlink:href="#u49189"
       id="use786" />
    <use
       transform="translate(810)"
       xlink:href="#u49191"
       id="use787" />
    <use
       id="u49320"
       transform="translate(1375.1,-35.5)"
       xlink:href="#diam" />
    <use
       id="u49322"
       transform="translate(1459.9,-35.5)"
       xlink:href="#diam" />
    <use
       id="u49326"
       transform="matrix(1,0,0,-1,0,944.5)"
       xlink:href="#u49320" />
    <use
       id="u49328"
       transform="matrix(1,0,0,-1,0,944.5)"
       xlink:href="#u49322" />
    <use
       transform="translate(1417.5,730)"
       style="stroke:#ee1111"
       xlink:href="#8"
       id="use788" />
    <use
       transform="rotate(180,810.05,107.5)"
       style="stroke:#ee1111"
       xlink:href="#8"
       id="use789" />
  </g>
  <g
     id="diamond_9"
     transform="translate(-1417.5,-315)">
    <use
       transform="translate(1620,315)"
       xlink:href="#card"
       id="use790" />
    <use
       transform="translate(1619.9)"
       xlink:href="#diamS"
       id="use791" />
    <use
       transform="translate(1620)"
       xlink:href="#u41521"
       id="use792" />
    <use
       id="u49340"
       transform="translate(202.5)"
       xlink:href="#u49320" />
    <use
       id="u49342"
       transform="translate(202.6)"
       xlink:href="#u49322" />
    <use
       id="u49344"
       transform="translate(202.5)"
       xlink:href="#u49326" />
    <use
       id="u49346"
       transform="translate(202.6)"
       xlink:href="#u49328" />
    <use
       id="u49358"
       transform="translate(1012.5)"
       xlink:href="#u49179" />
    <use
       id="u49360"
       transform="translate(1012.5)"
       xlink:href="#u49181" />
    <use
       id="u49362"
       transform="translate(1012.5)"
       xlink:href="#u49189" />
    <use
       id="u49364"
       transform="translate(1012.5)"
       xlink:href="#u49191" />
    <use
       transform="translate(1620.05)"
       xlink:href="#diam"
       id="use793" />
    <use
       transform="translate(1417.5,730)"
       style="stroke:#ee1111"
       xlink:href="#9"
       id="use794" />
    <use
       transform="rotate(180,1012.55,107.5)"
       style="stroke:#ee1111"
       xlink:href="#9"
       id="use795" />
  </g>
  <g
     id="club_1"
     transform="translate(-1417.5,-315)">
    <rect
       id="card"
       x="0.69999999"
       y="0.69999999"
       width="201.10001"
       height="313.60001"
       rx="9"
       ry="9"
       fill="#ffffff"
       stroke="#333333"
       stroke-width="1.4" />
    <use
       id="u37950"
       transform="rotate(180,101.3,157.5)"
       xlink:href="#clubS" />
    <use
       id="clubS"
       transform="matrix(0.45,0,0,0.45,-28.38,-12.7)"
       xlink:href="#club" />
    <path
       id="club"
       d="m 101.25,132.5 a 11,11 0 0 0 -8.1,18.41 l -0.5,0.52 a 11,11 0 1 0 5.86,13.95 l 0.59,0.37 c 0,7.28 -2.74,13.39 -6.1,16.75 h 16.5 c -3.36,-3.36 -6.1,-9.47 -6.1,-16.75 l 0.59,-0.37 a 11,11 0 0 0 10.26,7.12 11,11 0 1 0 -4.4,-21.07 l -0.5,-0.52 a 11,11 0 0 0 -8.1,-18.41 z"
       style="fill:#333333" />
  </g>
</svg>
