<?xml version="1.0" encoding="UTF-8" standalone="no"?>
<svg
   width="202.5"
   height="315"
   version="1.1"
   id="svg1018"
   xmlns:xlink="http://www.w3.org/1999/xlink"
   xmlns="http://www.w3.org/2000/svg"
   xmlns:svg="http://www.w3.org/2000/svg">
  <defs
     id="defs1018" />
  <path
     id="8"
     d="m 26.1,-700.2 c 0,4.2 -4,7.6 -9,7.6 -5,0 -9.2,-3.4 -9.2,-7.6 0,-4.2 4.1,-7.5 9.1,-7.5 5,0 9.1,3.4 9.1,7.5 z m -1.7,-13.6 c 0,3.3 -3.3,6 -7.4,6 -4,0 -7.3,-2.7 -7.3,-6 0,-3.3 3.3,-6.2 7.3,-6.2 4,0 7.4,2.8 7.4,6.1 z"
     fill="none"
     stroke-width="3.5" />
  <g
     id="heart_1"
     transform="translate(-1417.5,-630)">
    <use
       id="u41664"
       transform="rotate(180,101.3,787.6)"
       xlink:href="#heartS" />
    <path
       id="heart"
       d="M 101.3,810.3 C 91.3,795.3 79,788 79,776.8 c 0,-6.2 4.7,-12 11,-12 6.6,0 10.6,5.2 11.2,12 0.7,-6.8 4.7,-12 11.2,-12 6.4,0 11,5.8 11,12 0,11.2 -12.1,18.5 -22.1,33.5 z"
       fill="#ee1111" />
    <use
       id="heartS"
       transform="matrix(0.4498,0,0,0.4498,-28.4,334.3)"
       xlink:href="#heart" />
  </g>
  <g
     id="heart_2"
     transform="translate(-1417.5,-630)">
    <use
       id="u41668"
       transform="translate(202.5)"
       xlink:href="#heartS" />
    <use
       id="u41670"
       transform="translate(202.5)"
       xlink:href="#u41664" />
    <use
       id="u49445"
       transform="translate(202.5,-108)"
       xlink:href="#heart" />
    <use
       id="u49447"
       transform="matrix(1,0,0,-1,202.5,1683)"
       xlink:href="#heart" />
  </g>
  <g
     id="heart_4"
     transform="translate(-1417.5,-630)">
    <use
       id="u41689"
       transform="translate(405)"
       xlink:href="#u41668" />
    <use
       id="u41691"
       transform="translate(405)"
       xlink:href="#u41670" />
    <use
       id="u49461"
       transform="translate(362.6)"
       xlink:href="#u49445" />
    <use
       id="u49463"
       transform="translate(362.6)"
       xlink:href="#u49447" />
    <use
       id="u49471"
       transform="translate(84.8)"
       xlink:href="#u49461" />
    <use
       id="u49473"
       transform="translate(84.8)"
       xlink:href="#u49463" />
  </g>
  <g
     id="heart_8"
     transform="translate(-1417.5,-630)">
    <use
       transform="translate(1417.5,630)"
       xlink:href="#card"
       id="use520" />
    <use
       transform="translate(810)"
       xlink:href="#u41689"
       id="use521" />
    <use
       transform="translate(810)"
       xlink:href="#u41691"
       id="use522" />
    <use
       transform="translate(810)"
       xlink:href="#u49461"
       id="use523" />
    <use
       transform="translate(810)"
       xlink:href="#u49463"
       id="use524" />
    <use
       transform="translate(810)"
       xlink:href="#u49471"
       id="use525" />
    <use
       transform="translate(810)"
       xlink:href="#u49473"
       id="use526" />
    <use
       id="u49636"
       transform="translate(1375,-36)"
       xlink:href="#heart" />
    <use
       id="u49638"
       transform="translate(1459.9,-36)"
       xlink:href="#heart" />
    <use
       id="u49640"
       transform="matrix(1,0,0,-1,1459.9,1611)"
       xlink:href="#heart" />
    <use
       id="u49642"
       transform="matrix(1,0,0,-1,1375,1611)"
       xlink:href="#heart" />
    <use
       transform="translate(1417.5,1360)"
       style="stroke:#ee1111"
       xlink:href="#8"
       id="use527" />
    <use
       transform="rotate(180,810.05,107.5)"
       style="stroke:#ee1111"
       xlink:href="#8"
       id="use528" />
  </g>
  <g
     id="club_1"
     transform="translate(-1417.5,-630)">
    <rect
       id="card"
       x="0.69999999"
       y="0.69999999"
       width="201.10001"
       height="313.60001"
       rx="9"
       ry="9"
       fill="#ffffff"
       stroke="#333333"
       stroke-width="1.4" />
  </g>
</svg>
