<?xml version="1.0" encoding="UTF-8" standalone="no"?>
<svg
   width="202.5"
   height="315"
   version="1.1"
   id="svg1018"
   xmlns:xlink="http://www.w3.org/1999/xlink"
   xmlns="http://www.w3.org/2000/svg"
   xmlns:svg="http://www.w3.org/2000/svg">
  <defs
     id="defs1018" />
  <path
     id="8"
     d="m -176.4,-70.2 c 0,4.2 -4,7.6 -9,7.6 -5,0 -9.2,-3.4 -9.2,-7.6 0,-4.2 4.1,-7.5 9.1,-7.5 5,0 9.1,3.4 9.1,7.5 z m -1.7,-13.6 c 0,3.3 -3.3,6 -7.4,6 -4,0 -7.3,-2.7 -7.3,-6 0,-3.3 3.3,-6.2 7.3,-6.2 4,0 7.4,2.8 7.4,6.1 z"
     fill="none"
     stroke-width="3.5" />
  <path
     id="9"
     d="m 25.2,-81.7 c 0,4.5 -3.7,8.2 -8.2,8.2 A 8.25,8.25 0 0 1 17,-90 c 4.5,0 8.2,3.8 8.2,8.3 0,2.9 0.5,10.6 -1.8,15 -3,6.2 -12,5.2 -14.3,-2.2"
     fill="none"
     stroke-width="3.5" />
  <path
     id="10"
     d="m 222.6,-90 c -3.2,0 -5.4,3.1 -5.4,8.4 V -71 c 0,5.3 2.2,8.4 5.4,8.4 3.2,0 5.4,-3 5.4,-8.4 v -10.6 c 0,-5.3 -2.2,-8.4 -5.4,-8.4 z m -12,-1.2 v 29.8 z"
     style="fill:none;stroke-width:3.5" />
  <g
     id="club_2"
     transform="translate(-1620)">
    <use
       id="u37954"
       transform="translate(202.5)"
       xlink:href="#clubS" />
    <use
       id="u37956"
       transform="translate(202.5)"
       xlink:href="#u37950" />
  </g>
  <g
     id="club_4"
     transform="translate(-1620)">
    <use
       id="u46740"
       transform="translate(649.95,-106.5)"
       xlink:href="#club" />
    <use
       id="u46752"
       transform="matrix(1,0,0,-1,649.95,421.5)"
       xlink:href="#club" />
    <use
       id="u37972"
       transform="translate(405)"
       xlink:href="#u37954" />
    <use
       id="u37974"
       transform="translate(405)"
       xlink:href="#u37956" />
    <use
       id="u46750"
       transform="matrix(1,0,0,-1,565.15,421.5)"
       xlink:href="#club" />
    <use
       id="u46760"
       transform="translate(565.15,-106.5)"
       xlink:href="#club" />
  </g>
  <g
     id="club_7"
     transform="translate(-1620)">
    <use
       id="u46742"
       transform="translate(1215.05,-53.3)"
       xlink:href="#club" />
  </g>
  <g
     id="club_8"
     transform="translate(-1620)">
    <use
       transform="translate(1417.5)"
       xlink:href="#card"
       id="use43" />
    <use
       transform="translate(810)"
       xlink:href="#u37972"
       id="use44" />
    <use
       transform="translate(810)"
       xlink:href="#u37974"
       id="use45" />
    <use
       id="u46935"
       transform="translate(1375.15,-35.5)"
       xlink:href="#club" />
    <use
       id="u46937"
       transform="translate(1459.95,-35.5)"
       xlink:href="#club" />
    <use
       id="u46939"
       transform="matrix(1,0,0,-1,1375.15,350.5)"
       xlink:href="#club" />
    <use
       id="u46941"
       transform="matrix(1,0,0,-1,1459.95,350.5)"
       xlink:href="#club" />
    <use
       transform="translate(810)"
       xlink:href="#u46740"
       id="use46" />
    <use
       transform="translate(810)"
       xlink:href="#u46750"
       id="use47" />
    <use
       transform="translate(810)"
       xlink:href="#u46752"
       id="use48" />
    <use
       transform="translate(810)"
       xlink:href="#u46760"
       id="use49" />
    <use
       transform="translate(1620,100)"
       style="stroke:#333333"
       xlink:href="#8"
       id="use50" />
    <use
       transform="rotate(180,708.8,107.5)"
       style="stroke:#333333"
       xlink:href="#8"
       id="use51" />
  </g>
  <g
     id="club_9"
     transform="translate(-1620)">
    <use
       transform="translate(1620)"
       xlink:href="#card"
       id="use52" />
    <use
       transform="translate(1619.9)"
       xlink:href="#clubS"
       id="use53" />
    <use
       transform="translate(1620)"
       xlink:href="#u37950"
       id="use54" />
    <use
       transform="translate(1012.5)"
       xlink:href="#u46740"
       id="use55" />
    <use
       transform="translate(1012.5)"
       xlink:href="#u46750"
       id="use56" />
    <use
       transform="translate(1012.5,-71)"
       xlink:href="#u46752"
       id="use57" />
    <use
       transform="translate(1012.5)"
       xlink:href="#u46760"
       id="use58" />
    <use
       transform="translate(202.5)"
       xlink:href="#u46935"
       id="use59" />
    <use
       transform="translate(202.5)"
       xlink:href="#u46937"
       id="use60" />
    <use
       transform="translate(202.5)"
       xlink:href="#u46939"
       id="use61" />
    <use
       transform="translate(202.5,71)"
       xlink:href="#u46941"
       id="use62" />
    <use
       transform="translate(405,53.3)"
       xlink:href="#u46742"
       id="use63" />
    <use
       transform="translate(1620,100)"
       style="stroke:#333333"
       xlink:href="#9"
       id="use64" />
    <use
       transform="rotate(180,911.3,107.5)"
       style="stroke:#333333"
       xlink:href="#9"
       id="use65" />
  </g>
  <g
     id="club_10"
     transform="translate(-1620)">
    <use
       transform="translate(1822.5)"
       xlink:href="#card"
       id="use66" />
    <use
       transform="translate(1619.9)"
       xlink:href="#u37954"
       id="use67" />
    <use
       transform="translate(1620)"
       xlink:href="#u37956"
       id="use68" />
    <use
       transform="translate(1215)"
       xlink:href="#u46740"
       id="use69" />
    <use
       transform="translate(1215)"
       xlink:href="#u46750"
       id="use70" />
    <use
       transform="translate(1215)"
       xlink:href="#u46752"
       id="use71" />
    <use
       transform="translate(1215)"
       xlink:href="#u46760"
       id="use72" />
    <use
       transform="translate(405)"
       xlink:href="#u46935"
       id="use73" />
    <use
       transform="translate(405)"
       xlink:href="#u46937"
       id="use74" />
    <use
       transform="translate(405)"
       xlink:href="#u46939"
       id="use75" />
    <use
       transform="translate(405)"
       xlink:href="#u46941"
       id="use76" />
    <use
       id="u47070"
       transform="translate(607.5,-17.8)"
       xlink:href="#u46742" />
    <use
       transform="matrix(1,0,0,-1,0,315)"
       xlink:href="#u47070"
       id="use77" />
    <use
       transform="translate(1620,100)"
       style="stroke:#333333"
       xlink:href="#10"
       id="use78" />
    <use
       transform="rotate(180,1113.8,107.5)"
       style="stroke:#333333"
       xlink:href="#10"
       id="use79" />
  </g>
  <g
     id="diamond_1"
     transform="translate(-1620)">
    <use
       id="u41521"
       transform="rotate(180,101.3,472.6)"
       xlink:href="#diamS" />
    <path
       id="diam"
       d="m 123.5,472.5 a 112.97,112.97 0 0 0 -22,26 97.4,97.4 0 0 0 -22.6,-26 c 11,-10.3 15.8,-14.6 22.6,-26 a 112.57,112.57 0 0 0 22,26 z"
       fill="#ee1111" />
    <use
       id="diamS"
       transform="matrix(0.4423,0,0,0.4423,-27.7,164.5)"
       xlink:href="#diam" />
  </g>
  <g
     id="diamond_2"
     transform="translate(-1620)">
    <use
       id="u41525"
       transform="translate(202.5)"
       xlink:href="#diamS" />
    <use
       id="u41527"
       transform="translate(202.5)"
       xlink:href="#u41521" />
    <use
       id="u49155"
       transform="translate(202.5,-105.5)"
       xlink:href="#diam" />
    <use
       id="u49157"
       transform="translate(202.5,105.5)"
       xlink:href="#diam" />
  </g>
  <g
     id="diamond_4"
     transform="translate(-1620)">
    <use
       id="u41545"
       transform="translate(405)"
       xlink:href="#u41525" />
    <use
       id="u41547"
       transform="translate(405)"
       xlink:href="#u41527" />
    <use
       id="u49179"
       transform="translate(362.6)"
       xlink:href="#u49155" />
    <use
       id="u49181"
       transform="matrix(1,0,0,-1,362.6,1156)"
       xlink:href="#u49157" />
    <use
       id="u49189"
       transform="translate(84.8)"
       xlink:href="#u49179" />
    <use
       id="u49191"
       transform="matrix(1,0,0,-1,84.8,945)"
       xlink:href="#u49179" />
  </g>
  <g
     id="diamond_8"
     transform="translate(-1620)">
    <use
       transform="translate(1417.5,315)"
       xlink:href="#card"
       id="use781" />
    <use
       transform="translate(810)"
       xlink:href="#u41545"
       id="use782" />
    <use
       transform="translate(810)"
       xlink:href="#u41547"
       id="use783" />
    <use
       transform="translate(810)"
       xlink:href="#u49179"
       id="use784" />
    <use
       transform="translate(810)"
       xlink:href="#u49181"
       id="use785" />
    <use
       transform="translate(810)"
       xlink:href="#u49189"
       id="use786" />
    <use
       transform="translate(810)"
       xlink:href="#u49191"
       id="use787" />
    <use
       id="u49320"
       transform="translate(1375.1,-35.5)"
       xlink:href="#diam" />
    <use
       id="u49322"
       transform="translate(1459.9,-35.5)"
       xlink:href="#diam" />
    <use
       id="u49326"
       transform="matrix(1,0,0,-1,0,944.5)"
       xlink:href="#u49320" />
    <use
       id="u49328"
       transform="matrix(1,0,0,-1,0,944.5)"
       xlink:href="#u49322" />
    <use
       transform="translate(1620,415)"
       style="stroke:#ee1111"
       xlink:href="#8"
       id="use788" />
    <use
       transform="rotate(180,708.8,265)"
       style="stroke:#ee1111"
       xlink:href="#8"
       id="use789" />
  </g>
  <g
     id="diamond_9"
     transform="translate(-1620)">
    <use
       transform="translate(1620,315)"
       xlink:href="#card"
       id="use790" />
    <use
       transform="translate(1619.9)"
       xlink:href="#diamS"
       id="use791" />
    <use
       transform="translate(1620)"
       xlink:href="#u41521"
       id="use792" />
    <use
       id="u49340"
       transform="translate(202.5)"
       xlink:href="#u49320" />
    <use
       id="u49342"
       transform="translate(202.6)"
       xlink:href="#u49322" />
    <use
       id="u49344"
       transform="translate(202.5)"
       xlink:href="#u49326" />
    <use
       id="u49346"
       transform="translate(202.6)"
       xlink:href="#u49328" />
    <use
       id="u49358"
       transform="translate(1012.5)"
       xlink:href="#u49179" />
    <use
       id="u49360"
       transform="translate(1012.5)"
       xlink:href="#u49181" />
    <use
       id="u49362"
       transform="translate(1012.5)"
       xlink:href="#u49189" />
    <use
       id="u49364"
       transform="translate(1012.5)"
       xlink:href="#u49191" />
    <use
       transform="translate(1620.05)"
       xlink:href="#diam"
       id="use793" />
    <use
       transform="translate(1620,415)"
       style="stroke:#ee1111"
       xlink:href="#9"
       id="use794" />
    <use
       transform="rotate(180,911.3,265)"
       style="stroke:#ee1111"
       xlink:href="#9"
       id="use795" />
  </g>
  <g
     id="diamond_10"
     transform="translate(-1620)">
    <use
       transform="translate(1822.5,315)"
       xlink:href="#card"
       id="use796" />
    <use
       transform="translate(1619.9)"
       xlink:href="#u41525"
       id="use797" />
    <use
       transform="translate(1620)"
       xlink:href="#u41527"
       id="use798" />
    <use
       transform="translate(202.5)"
       xlink:href="#u49340"
       id="use799" />
    <use
       transform="translate(202.4)"
       xlink:href="#u49342"
       id="use800" />
    <use
       transform="translate(202.5)"
       xlink:href="#u49344"
       id="use801" />
    <use
       transform="translate(202.4)"
       xlink:href="#u49346"
       id="use802" />
    <use
       transform="translate(202.5)"
       xlink:href="#u49358"
       id="use803" />
    <use
       transform="translate(202.5)"
       xlink:href="#u49360"
       id="use804" />
    <use
       transform="translate(202.4)"
       xlink:href="#u49362"
       id="use805" />
    <use
       transform="translate(202.4)"
       xlink:href="#u49364"
       id="use806" />
    <use
       id="u14541"
       transform="translate(1822.55,-70.8)"
       xlink:href="#diam" />
    <use
       transform="matrix(1,0,0,-1,-0.05,944.5)"
       xlink:href="#u14541"
       id="use807" />
    <use
       transform="translate(1620,415)"
       style="stroke:#ee1111"
       xlink:href="#10"
       id="use808" />
    <use
       transform="rotate(180,1113.8,265)"
       style="stroke:#ee1111"
       xlink:href="#10"
       id="use809" />
  </g>
  <g
     id="club_1"
     transform="translate(-1620)">
    <rect
       id="card"
       x="0.69999999"
       y="0.69999999"
       width="201.10001"
       height="313.60001"
       rx="9"
       ry="9"
       fill="#ffffff"
       stroke="#333333"
       stroke-width="1.4" />
    <use
       id="u37950"
       transform="rotate(180,101.3,157.5)"
       xlink:href="#clubS" />
    <use
       id="clubS"
       transform="matrix(0.45,0,0,0.45,-28.38,-12.7)"
       xlink:href="#club" />
    <path
       id="club"
       d="m 101.25,132.5 a 11,11 0 0 0 -8.1,18.41 l -0.5,0.52 a 11,11 0 1 0 5.86,13.95 l 0.59,0.37 c 0,7.28 -2.74,13.39 -6.1,16.75 h 16.5 c -3.36,-3.36 -6.1,-9.47 -6.1,-16.75 l 0.59,-0.37 a 11,11 0 0 0 10.26,7.12 11,11 0 1 0 -4.4,-21.07 l -0.5,-0.52 a 11,11 0 0 0 -8.1,-18.41 z"
       style="fill:#333333" />
  </g>
</svg>
