<?xml version="1.0" encoding="UTF-8" standalone="no"?>
<svg
   width="202.5"
   height="315"
   version="1.1"
   id="svg1018"
   xmlns:xlink="http://www.w3.org/1999/xlink"
   xmlns="http://www.w3.org/2000/svg"
   xmlns:svg="http://www.w3.org/2000/svg">
  <defs
     id="defs1018" />
  <path
     id="9"
     d="m 25.2,-81.7 c 0,4.5 -3.7,8.2 -8.2,8.2 A 8.25,8.25 0 0 1 17,-90 c 4.5,0 8.2,3.8 8.2,8.3 0,2.9 0.5,10.6 -1.8,15 -3,6.2 -12,5.2 -14.3,-2.2"
     fill="none"
     stroke-width="3.5" />
  <g
     id="club_4"
     transform="translate(-1620)">
    <use
       id="u46740"
       transform="translate(649.95,-106.5)"
       xlink:href="#club" />
    <use
       id="u46752"
       transform="matrix(1,0,0,-1,649.95,421.5)"
       xlink:href="#club" />
    <use
       id="u46750"
       transform="matrix(1,0,0,-1,565.15,421.5)"
       xlink:href="#club" />
    <use
       id="u46760"
       transform="translate(565.15,-106.5)"
       xlink:href="#club" />
  </g>
  <g
     id="club_7"
     transform="translate(-1620)">
    <use
       id="u46742"
       transform="translate(1215.05,-53.3)"
       xlink:href="#club" />
  </g>
  <g
     id="club_8"
     transform="translate(-1620)">
    <use
       id="u46935"
       transform="translate(1375.15,-35.5)"
       xlink:href="#club" />
    <use
       id="u46937"
       transform="translate(1459.95,-35.5)"
       xlink:href="#club" />
    <use
       id="u46939"
       transform="matrix(1,0,0,-1,1375.15,350.5)"
       xlink:href="#club" />
    <use
       id="u46941"
       transform="matrix(1,0,0,-1,1459.95,350.5)"
       xlink:href="#club" />
  </g>
  <g
     id="club_9"
     transform="translate(-1620)">
    <use
       transform="translate(1620)"
       xlink:href="#card"
       id="use52" />
    <use
       transform="translate(1619.9)"
       xlink:href="#clubS"
       id="use53" />
    <use
       transform="translate(1620)"
       xlink:href="#u37950"
       id="use54" />
    <use
       transform="translate(1012.5)"
       xlink:href="#u46740"
       id="use55" />
    <use
       transform="translate(1012.5)"
       xlink:href="#u46750"
       id="use56" />
    <use
       transform="translate(1012.5,-71)"
       xlink:href="#u46752"
       id="use57" />
    <use
       transform="translate(1012.5)"
       xlink:href="#u46760"
       id="use58" />
    <use
       transform="translate(202.5)"
       xlink:href="#u46935"
       id="use59" />
    <use
       transform="translate(202.5)"
       xlink:href="#u46937"
       id="use60" />
    <use
       transform="translate(202.5)"
       xlink:href="#u46939"
       id="use61" />
    <use
       transform="translate(202.5,71)"
       xlink:href="#u46941"
       id="use62" />
    <use
       transform="translate(405,53.3)"
       xlink:href="#u46742"
       id="use63" />
    <use
       transform="translate(1620,100)"
       style="stroke:#333333"
       xlink:href="#9"
       id="use64" />
    <use
       transform="rotate(180,911.3,107.5)"
       style="stroke:#333333"
       xlink:href="#9"
       id="use65" />
  </g>
  <g
     id="club_1"
     transform="translate(-1620)">
    <rect
       id="card"
       x="0.69999999"
       y="0.69999999"
       width="201.10001"
       height="313.60001"
       rx="9"
       ry="9"
       fill="#ffffff"
       stroke="#333333"
       stroke-width="1.4" />
    <use
       id="u37950"
       transform="rotate(180,101.3,157.5)"
       xlink:href="#clubS" />
    <use
       id="clubS"
       transform="matrix(0.45,0,0,0.45,-28.38,-12.7)"
       xlink:href="#club" />
    <path
       id="club"
       d="m 101.25,132.5 a 11,11 0 0 0 -8.1,18.41 l -0.5,0.52 a 11,11 0 1 0 5.86,13.95 l 0.59,0.37 c 0,7.28 -2.74,13.39 -6.1,16.75 h 16.5 c -3.36,-3.36 -6.1,-9.47 -6.1,-16.75 l 0.59,-0.37 a 11,11 0 0 0 10.26,7.12 11,11 0 1 0 -4.4,-21.07 l -0.5,-0.52 a 11,11 0 0 0 -8.1,-18.41 z"
       style="fill:#333333" />
  </g>
</svg>
