<?xml version="1.0" encoding="UTF-8" standalone="no"?>
<svg
   width="202.5"
   height="315"
   version="1.1"
   id="svg1018"
   xmlns:xlink="http://www.w3.org/1999/xlink"
   xmlns="http://www.w3.org/2000/svg"
   xmlns:svg="http://www.w3.org/2000/svg">
  <defs
     id="defs1018" />
  <path
     id="9"
     d="m 25.2,-396.7 c 0,4.5 -3.7,8.2 -8.2,8.2 a 8.25,8.25 0 0 1 0,-16.5 c 4.5,0 8.2,3.8 8.2,8.3 0,2.9 0.5,10.6 -1.8,15 -3,6.2 -12,5.2 -14.3,-2.2"
     fill="none"
     stroke-width="3.5" />
  <g
     id="diamond_1"
     transform="translate(-1620,-315)">
    <use
       id="u41521"
       transform="rotate(180,101.3,472.6)"
       xlink:href="#diamS" />
    <path
       id="diam"
       d="m 123.5,472.5 a 112.97,112.97 0 0 0 -22,26 97.4,97.4 0 0 0 -22.6,-26 c 11,-10.3 15.8,-14.6 22.6,-26 a 112.57,112.57 0 0 0 22,26 z"
       fill="#ee1111" />
    <use
       id="diamS"
       transform="matrix(0.4423,0,0,0.4423,-27.7,164.5)"
       xlink:href="#diam" />
  </g>
  <g
     id="diamond_2"
     transform="translate(-1620,-315)">
    <use
       id="u49155"
       transform="translate(202.5,-105.5)"
       xlink:href="#diam" />
    <use
       id="u49157"
       transform="translate(202.5,105.5)"
       xlink:href="#diam" />
  </g>
  <g
     id="diamond_4"
     transform="translate(-1620,-315)">
    <use
       id="u49179"
       transform="translate(362.6)"
       xlink:href="#u49155" />
    <use
       id="u49181"
       transform="matrix(1,0,0,-1,362.6,1156)"
       xlink:href="#u49157" />
    <use
       id="u49189"
       transform="translate(84.8)"
       xlink:href="#u49179" />
    <use
       id="u49191"
       transform="matrix(1,0,0,-1,84.8,945)"
       xlink:href="#u49179" />
  </g>
  <g
     id="diamond_8"
     transform="translate(-1620,-315)">
    <use
       id="u49320"
       transform="translate(1375.1,-35.5)"
       xlink:href="#diam" />
    <use
       id="u49322"
       transform="translate(1459.9,-35.5)"
       xlink:href="#diam" />
    <use
       id="u49326"
       transform="matrix(1,0,0,-1,0,944.5)"
       xlink:href="#u49320" />
    <use
       id="u49328"
       transform="matrix(1,0,0,-1,0,944.5)"
       xlink:href="#u49322" />
  </g>
  <g
     id="diamond_9"
     transform="translate(-1620,-315)">
    <use
       transform="translate(1620,315)"
       xlink:href="#card"
       id="use790" />
    <use
       transform="translate(1619.9)"
       xlink:href="#diamS"
       id="use791" />
    <use
       transform="translate(1620)"
       xlink:href="#u41521"
       id="use792" />
    <use
       id="u49340"
       transform="translate(202.5)"
       xlink:href="#u49320" />
    <use
       id="u49342"
       transform="translate(202.6)"
       xlink:href="#u49322" />
    <use
       id="u49344"
       transform="translate(202.5)"
       xlink:href="#u49326" />
    <use
       id="u49346"
       transform="translate(202.6)"
       xlink:href="#u49328" />
    <use
       id="u49358"
       transform="translate(1012.5)"
       xlink:href="#u49179" />
    <use
       id="u49360"
       transform="translate(1012.5)"
       xlink:href="#u49181" />
    <use
       id="u49362"
       transform="translate(1012.5)"
       xlink:href="#u49189" />
    <use
       id="u49364"
       transform="translate(1012.5)"
       xlink:href="#u49191" />
    <use
       transform="translate(1620.05)"
       xlink:href="#diam"
       id="use793" />
    <use
       transform="translate(1620,730)"
       style="stroke:#ee1111"
       xlink:href="#9"
       id="use794" />
    <use
       transform="rotate(180,911.3,107.5)"
       style="stroke:#ee1111"
       xlink:href="#9"
       id="use795" />
  </g>
  <g
     id="club_1"
     transform="translate(-1620,-315)">
    <rect
       id="card"
       x="0.69999999"
       y="0.69999999"
       width="201.10001"
       height="313.60001"
       rx="9"
       ry="9"
       fill="#ffffff"
       stroke="#333333"
       stroke-width="1.4" />
  </g>
</svg>
