<?xml version="1.0" encoding="UTF-8" standalone="no"?>
<svg
   width="202.5"
   height="315"
   version="1.1"
   id="svg1018"
   xmlns:xlink="http://www.w3.org/1999/xlink"
   xmlns="http://www.w3.org/2000/svg"
   xmlns:svg="http://www.w3.org/2000/svg">
  <defs
     id="defs1018" />
  <path
     id="9"
     d="m 25.2,-711.7 c 0,4.5 -3.7,8.2 -8.2,8.2 a 8.25,8.25 0 0 1 0,-16.5 c 4.5,0 8.2,3.8 8.2,8.3 0,2.9 0.5,10.6 -1.8,15 -3,6.2 -12,5.2 -14.3,-2.2"
     fill="none"
     stroke-width="3.5" />
  <g
     id="heart_1"
     transform="translate(-1620,-630)">
    <use
       id="u41664"
       transform="rotate(180,101.3,787.6)"
       xlink:href="#heartS" />
    <path
       id="heart"
       d="M 101.3,810.3 C 91.3,795.3 79,788 79,776.8 c 0,-6.2 4.7,-12 11,-12 6.6,0 10.6,5.2 11.2,12 0.7,-6.8 4.7,-12 11.2,-12 6.4,0 11,5.8 11,12 0,11.2 -12.1,18.5 -22.1,33.5 z"
       fill="#ee1111" />
    <use
       id="heartS"
       transform="matrix(0.4498,0,0,0.4498,-28.4,334.3)"
       xlink:href="#heart" />
  </g>
  <g
     id="heart_2"
     transform="translate(-1620,-630)">
    <use
       id="u49445"
       transform="translate(202.5,-108)"
       xlink:href="#heart" />
    <use
       id="u49447"
       transform="matrix(1,0,0,-1,202.5,1683)"
       xlink:href="#heart" />
  </g>
  <g
     id="heart_4"
     transform="translate(-1620,-630)">
    <use
       id="u49461"
       transform="translate(362.6)"
       xlink:href="#u49445" />
    <use
       id="u49463"
       transform="translate(362.6)"
       xlink:href="#u49447" />
    <use
       id="u49471"
       transform="translate(84.8)"
       xlink:href="#u49461" />
    <use
       id="u49473"
       transform="translate(84.8)"
       xlink:href="#u49463" />
  </g>
  <g
     id="heart_8"
     transform="translate(-1620,-630)">
    <use
       id="u49636"
       transform="translate(1375,-36)"
       xlink:href="#heart" />
    <use
       id="u49638"
       transform="translate(1459.9,-36)"
       xlink:href="#heart" />
    <use
       id="u49640"
       transform="matrix(1,0,0,-1,1459.9,1611)"
       xlink:href="#heart" />
    <use
       id="u49642"
       transform="matrix(1,0,0,-1,1375,1611)"
       xlink:href="#heart" />
  </g>
  <g
     id="heart_9"
     transform="translate(-1620,-630)">
    <use
       transform="translate(1620,630)"
       xlink:href="#card"
       id="use529" />
    <use
       transform="translate(1619.9)"
       xlink:href="#heartS"
       id="use530" />
    <use
       transform="translate(1620)"
       xlink:href="#u41664"
       id="use531" />
    <use
       transform="translate(202.5)"
       xlink:href="#u49636"
       id="use532" />
    <use
       transform="translate(202.5)"
       xlink:href="#u49638"
       id="use533" />
    <use
       transform="translate(202.5)"
       xlink:href="#u49640"
       id="use534" />
    <use
       transform="translate(202.5)"
       xlink:href="#u49642"
       id="use535" />
    <use
       transform="translate(1012.5)"
       xlink:href="#u49461"
       id="use536" />
    <use
       transform="translate(1012.5)"
       xlink:href="#u49463"
       id="use537" />
    <use
       transform="translate(1012.5)"
       xlink:href="#u49471"
       id="use538" />
    <use
       transform="translate(1012.5)"
       xlink:href="#u49473"
       id="use539" />
    <use
       transform="translate(1620.05)"
       xlink:href="#heart"
       id="use540" />
    <use
       transform="translate(1620,1360)"
       style="stroke:#ee1111"
       xlink:href="#9"
       id="use541" />
    <use
       transform="rotate(180,911.3,107.5)"
       style="stroke:#ee1111"
       xlink:href="#9"
       id="use542" />
  </g>
  <g
     id="club_1"
     transform="translate(-1620,-630)">
    <rect
       id="card"
       x="0.69999999"
       y="0.69999999"
       width="201.10001"
       height="313.60001"
       rx="9"
       ry="9"
       fill="#ffffff"
       stroke="#333333"
       stroke-width="1.4" />
  </g>
</svg>
