<?xml version="1.0" encoding="UTF-8" standalone="no"?>
<svg
   width="202.5"
   height="315"
   version="1.1"
   id="svg1018"
   xmlns:xlink="http://www.w3.org/1999/xlink"
   xmlns="http://www.w3.org/2000/svg"
   xmlns:svg="http://www.w3.org/2000/svg">
  <defs
     id="defs1018" />
  <path
     id="A"
     d="m 25.1,-378 -8,-27.6 -8,27.6 m -2,1 h 4 m 12.1,0 H 27 m -6.2,-10 h -7.3"
     fill="none"
     stroke-linecap="square"
     stroke-linejoin="bevel"
     stroke-width="3.5" />
  <g
     id="diamond_1"
     transform="translate(0,-315)">
    <use
       transform="translate(0,315)"
       xlink:href="#card"
       id="use741" />
    <use
       id="u41521"
       transform="rotate(180,101.3,472.6)"
       xlink:href="#diamS" />
    <path
       id="diam"
       d="m 123.5,472.5 a 112.97,112.97 0 0 0 -22,26 97.4,97.4 0 0 0 -22.6,-26 c 11,-10.3 15.8,-14.6 22.6,-26 a 112.57,112.57 0 0 0 22,26 z"
       fill="#ee1111" />
    <use
       id="diamS"
       transform="matrix(0.4423,0,0,0.4423,-27.7,164.5)"
       xlink:href="#diam" />
    <use
       transform="translate(0,730)"
       style="stroke:#ee1111"
       xlink:href="#A"
       id="use742" />
    <use
       transform="rotate(180,101.3,107.5)"
       style="stroke:#ee1111"
       xlink:href="#A"
       id="use743" />
  </g>
  <g
     id="club_1"
     transform="translate(0,-315)">
    <rect
       id="card"
       x="0.69999999"
       y="0.69999999"
       width="201.10001"
       height="313.60001"
       rx="9"
       ry="9"
       fill="#ffffff"
       stroke="#333333"
       stroke-width="1.4" />
  </g>
</svg>
