<?xml version="1.0" encoding="UTF-8" standalone="no"?>
<svg
   width="202.5"
   height="315"
   version="1.1"
   id="svg1018"
   xmlns:xlink="http://www.w3.org/1999/xlink"
   xmlns="http://www.w3.org/2000/svg"
   xmlns:svg="http://www.w3.org/2000/svg">
  <defs
     id="defs1018" />
  <path
     id="A"
     d="m 25.1,-693 -8,-27.6 -8,27.6 m -2,1 h 4 m 12.1,0 H 27 m -6.2,-10 h -7.3"
     fill="none"
     stroke-linecap="square"
     stroke-linejoin="bevel"
     stroke-width="3.5" />
  <g
     id="heart_1"
     transform="translate(0,-630)">
    <use
       transform="translate(0,630)"
       xlink:href="#card"
       id="use476" />
    <use
       id="u41664"
       transform="rotate(180,101.3,787.6)"
       xlink:href="#heartS" />
    <path
       id="heart"
       d="M 101.3,810.3 C 91.3,795.3 79,788 79,776.8 c 0,-6.2 4.7,-12 11,-12 6.6,0 10.6,5.2 11.2,12 0.7,-6.8 4.7,-12 11.2,-12 6.4,0 11,5.8 11,12 0,11.2 -12.1,18.5 -22.1,33.5 z"
       fill="#ee1111" />
    <use
       id="heartS"
       transform="matrix(0.4498,0,0,0.4498,-28.4,334.3)"
       xlink:href="#heart" />
    <use
       transform="translate(0,1360)"
       style="stroke:#ee1111"
       xlink:href="#A"
       id="use477" />
    <use
       transform="rotate(180,101.3,107.5)"
       style="stroke:#ee1111"
       xlink:href="#A"
       id="use478" />
  </g>
  <g
     id="club_1"
     transform="translate(0,-630)">
    <rect
       id="card"
       x="0.69999999"
       y="0.69999999"
       width="201.10001"
       height="313.60001"
       rx="9"
       ry="9"
       fill="#ffffff"
       stroke="#333333"
       stroke-width="1.4" />
  </g>
</svg>
