<?xml version="1.0" encoding="UTF-8" standalone="no"?>
<svg
   width="202.50003"
   height="315"
   version="1.1"
   id="svg1018"
   xmlns:xlink="http://www.w3.org/1999/xlink"
   xmlns="http://www.w3.org/2000/svg"
   xmlns:svg="http://www.w3.org/2000/svg">
  <defs
     id="defs1018" />
  <g
     id="back"
     transform="translate(-404.89999,-1260)">
    <use
       transform="translate(404.9,1260)"
       xlink:href="#card"
       id="use1" />
    <g
       transform="matrix(0.9639,0,0,0.9771,373.3,340)"
       id="g2">
      <rect
         x="40.5"
         y="949.20001"
         width="194.7"
         height="307.20001"
         rx="5"
         ry="5"
         fill="#3366aa"
         stroke="#ffffff"
         stroke-width="1.5"
         id="rect1" />
      <path
         id="p3670"
         d="m 235,1238.3 -10.2,17.8 M 40.8,1137.1 148,949.5 M 205.5,1256 235,1204.3 M 166.8,1256 235,1136.4 M 128,1256 235,1068.4 M 89.2,1256 235,1000.6 M 50.5,1256 225.3,949.5 M 41,1205 186.7,949.5 M 40.9,1069.2 109.2,949.5 m -68.3,51.8 29.5,-51.8 m -19.3,0 -10.2,17.8 m 48.9,-17.8 -49,85.7 M 128.5,949.5 41,1103.1 M 167.3,949.5 41,1171 M 206,949.5 41,1239 M 235,966.7 70,1256 M 235,1034.5 108.6,1256 M 234.9,1102.4 147.3,1256 m 87.6,-85.7 -48.9,85.7"
         stroke="#ffffff"
         stroke-width="2.6" />
      <use
         transform="matrix(-1,0,0,1,275.8,0)"
         width="2632.5"
         height="1575"
         fill="none"
         xlink:href="#p3670"
         id="use2" />
    </g>
  </g>
  <g
     id="club_1"
     transform="translate(-404.89999,-1260)">
    <rect
       id="card"
       x="0.69999999"
       y="0.69999999"
       width="201.10001"
       height="313.60001"
       rx="9"
       ry="9"
       fill="#ffffff"
       stroke="#333333"
       stroke-width="1.4" />
  </g>
</svg>
