<?xml version="1.0" encoding="UTF-8" standalone="no"?>
<svg
   width="202.5"
   height="315"
   version="1.1"
   id="svg1018"
   xmlns:xlink="http://www.w3.org/1999/xlink"
   xmlns="http://www.w3.org/2000/svg"
   xmlns:svg="http://www.w3.org/2000/svg">
  <defs
     id="defs1018" />
  <path
     id="J"
     d="m 9,-69.099994 c 0,4.2 3,6.5 6.7,6.5 3.7,0 6.7,-2.7 6.7,-6.5 v -20.4 m -1.9,-0.5 h 3.9"
     fill="none"
     stroke-linecap="square"
     stroke-width="3.5" />
  <g
     id="club_3"
     transform="translate(-2025)">
    <use
       id="u37968"
       transform="translate(405)"
       xlink:href="#clubS" />
    <use
       id="u37970"
       transform="translate(405)"
       xlink:href="#u37950" />
  </g>
  <g
     id="club_jack"
     transform="translate(-2025)">
    <use
       transform="rotate(180,1113.75,157.5)"
       xlink:href="#card"
       id="use80" />
    <g
       transform="matrix(0.2398,0,0,0.2666,1875.5,-357.8)"
       id="g123">
      <path
         d="m 1328,2052.4 v -32.1 c -87.6,-113.4 -80.3,-156.6 -76.6,-264 l -59.8,-58.7 c 0,0 -191.8,-14.4 -227.6,-4.7 -35.8,9.7 -170.9,90.9 -202.8,120.2 v 32.1 c 87.6,113.5 80.4,156.6 76.6,264 l 59.8,58.7 c 0,0 191.8,14.5 227.6,4.8 35.8,-9.7 171,-91 202.8,-120.3 z"
         fill="#333333"
         id="path80" />
      <g
         id="g5532"
         transform="matrix(1,0,0,1.0014,-1721.8,-986.2)">
        <g
           transform="translate(2394.4,2388.7)"
           id="g82">
          <path
             d="m 382.6,526.2 c 0,1.5 -0.3,4.5 -6.5,4 1.2,7.2 -2.2,6.7 -3.5,6.7 -1.3,0 -4.1,0 -4.2,-6.3 -5.4,0 -6.8,-2.3 -7,-4.4 0.2,-2.2 0.4,-4.6 6.6,-4 -1.2,-7.3 2.2,-6.8 3.5,-6.7 1.3,0 4.1,0 4.2,6.3 5.4,0 6.8,3 6.9,4.4 z"
             fill="#ffffff"
             stroke="#333333"
             stroke-linecap="round"
             stroke-linejoin="round"
             stroke-width="1.3"
             id="path81" />
          <path
             d="m 375.3,526.2 a 3.3,3.3 0 1 1 -6.5,0 3.3,3.3 0 1 1 6.5,0 z"
             fill="none"
             stroke="#333333"
             stroke-linecap="square"
             stroke-width="1.6"
             id="path82" />
        </g>
        <path
           d="m 2716.6,2672.2 41,183.7 h 17 l -34,-152.7 c 74.5,37.5 125.2,32.2 160.3,28.3 l -2.2,-19.9 c -37.6,4.1 -84.5,10.2 -163.8,-34 z"
           fill="#eecc55"
           id="path83" />
        <g
           transform="translate(2394.4,2388.7)"
           fill="#ffffff"
           id="g84">
          <path
             d="m 375.8,456.6 a 6.3,6.3 0 1 1 -12.6,0 6.3,6.3 0 0 1 12.6,0 z m -5.1,-22.7 a 6.3,6.3 0 1 1 -12.6,0 6.3,6.3 0 0 1 12.6,0 z m -5.1,-22.7 a 6.3,6.3 0 1 1 -12.6,0 6.3,6.3 0 0 1 12.6,0 z m -5.1,-22.6 a 6.3,6.3 0 1 1 -12.6,0 6.3,6.3 0 0 1 12.6,0 z m -5.2,-22.7 a 6.3,6.3 0 1 1 -12.5,0 6.3,6.3 0 0 1 12.5,0 z m -5,-22.6 a 6.35,6.35 0 1 1 -12.7,0 6.3,6.3 0 0 1 12.6,0 z m -5.2,-22.7 a 6.3,6.3 0 1 1 -12.6,0 6.3,6.3 0 0 1 12.6,0 z m 3.3,-19.4 a 6.3,6.3 0 1 1 -12.6,0 6.3,6.3 0 0 1 12.6,0 z m 110,34 a 6.3,6.3 0 1 1 -12.5,0 6.3,6.3 0 0 1 12.5,0 z m 23.3,0.2 a 6.3,6.3 0 1 1 -12.6,0 6.3,6.3 0 0 1 12.6,0 z M 369.2,311.6 a 6.3,6.3 0 1 1 -12.6,0 6.3,6.3 0 0 1 12.6,0 z m 21.4,8.9 a 6.3,6.3 0 1 1 -12.6,0 6.3,6.3 0 0 1 12.6,0 z m 22.1,7.1 a 6.3,6.3 0 1 1 -12.6,0 6.3,6.3 0 0 1 12.6,0 z m 22.7,5 a 6.3,6.3 0 1 1 -12.6,0 6.3,6.3 0 0 1 12.6,0 z"
             id="path84" />
        </g>
        <path
           d="m 2746.2,2710.4 33.3,147.3 h 67.7 a 532.3,532.3 0 0 1 32.4,-120 262.8,262.8 0 0 1 -133.4,-27.3 z"
           fill="#3366aa"
           stroke="#333333"
           stroke-linejoin="round"
           stroke-width="5.3"
           id="path85" />
        <path
           d="m 2712.9,2672.4 c -12,0.5 -21.4,1.4 -27,2.9 -12.5,3.4 -36.8,15.3 -64.6,30.7 35,51 55.7,118.4 63.5,151.8 h 70 z"
           fill="#ee1111"
           stroke="#333333"
           stroke-linejoin="round"
           stroke-width="5.3"
           id="path86" />
        <path
           d="m 2971.4,2817 a 128.3,128.3 0 0 0 33,250.5 426,426 0 0 0 45.4,-33.2 v -32 c -63,-81.4 -76.9,-126.6 -78.4,-185.3 z"
           fill="#3366aa"
           stroke="#333333"
           stroke-width="1.5"
           id="path87" />
        <path
           d="m 2975.7,2859.1 -7.3,4.2 c -94.4,57.3 -32.7,191.3 75.3,153.3 l 6.2,-3.7 v -10.7 c -46.8,-60.4 -66.5,-102.2 -74.2,-143.1 z"
           fill="#eecc55"
           id="path88" />
        <path
           d="m 2982.7,3009.4 22,-65.1 m -63.8,28.5 61.6,-30.5 m -65.3,-25 65.1,22 m -36.6,61.7 38.1,-57.2 m -52.4,44.8 51.7,-45.4 m -68.3,11.7 67.4,-13.5 m -68.7,-5.5 68.6,4.5 m -56.6,-40 57.2,38 m -44.7,-52.3 45.4,51.6 m -2.1,75.4 4.4,-68.6 m 14.5,67.3 -13.5,-67.4 m -33,-68.9 30.5,61.7 m 34,68.5 -30.5,-61.6"
           fill="#eecc55"
           stroke="#333333"
           stroke-linejoin="round"
           stroke-width="5.3"
           id="path89" />
        <path
           d="m 2979.3,2870.8 -7.7,4.5 c -80.8,49.2 -28,163.8 64.5,131.3 l 12.6,-5.9"
           fill="none"
           stroke="#333333"
           stroke-linejoin="round"
           stroke-width="5.6"
           id="path90" />
        <path
           d="m 2908.4,2679.7 -2.3,5 c -27.3,61.5 -53.4,126.5 -58.2,198.4 -4.7,71.8 15,153.1 68.2,238.2 l 34,-19.4 c -49.4,-79 -66.5,-152.1 -62.3,-216.2 4.2,-62.2 26.8,-120.9 52.5,-179.3 l -26.8,-26.3 z"
           fill="#ee1111"
           stroke="#333333"
           stroke-linecap="square"
           stroke-linejoin="round"
           stroke-width="4.7"
           id="path91" />
        <path
           d="m 2790.7,2672.9 c -62.5,-120.8 57,-211.1 132.8,-137.1 15.8,63.3 -0.7,116.5 -13,148.2 -12,31.2 -83.5,25.2 -119.8,-11.1 z"
           fill="#ffffff"
           id="path92" />
        <path
           d="m 2933.6,2500.8 c 53.9,3.9 45.7,23.6 44.5,55.3 -24.4,-13.4 -21,-16.4 -44.5,-55.3 z"
           fill="#eecc55"
           stroke="#333333"
           stroke-linecap="round"
           stroke-linejoin="round"
           stroke-width="5.3"
           id="path93" />
        <path
           d="m 2711.9,2681.8 a 17.5,17.5 0 0 0 9,1.8 17.5,17.5 0 0 0 10.4,1.9 17,17 0 0 0 9.4,1.8 17,17 0 0 0 10.1,2 16.5,16.5 0 0 0 11,2.4 l -0.4,-0.5 0.3,0.2 a 16.7,16.7 0 0 0 24,-6.8 l 0.2,-0.5 c 27.5,-55 20.5,-104.1 34.9,-160.9 l -91.5,6.1 c -12.6,57.8 -5.4,69.3 -28.5,123 a 12.9,12.9 0 0 0 -12.5,1.2 c -6.3,4.6 -6.8,13.9 -1.8,20.2 a 17,17 0 0 0 15.7,6.2 17,17 0 0 0 9.7,1.9 z m 217.1,-71.5 a 263.7,263.7 0 0 1 -14.3,62.5 h 0.8 c 0,6.3 4,12.3 10.6,13.6 6,1.3 12.7,-2.3 14,-8.6 a 9,9 0 0 0 -3.3,-8.5 12,12 0 0 0 1.5,-0.5 c 5.3,-2 8.7,-8 6.4,-13.3 -1.4,-3.2 -5.2,-5.4 -8.7,-4.4 l 0.3,-0.8 c -1.7,-2.4 -2.3,-2.5 -3.1,-6.8 a 8,8 0 0 0 6.9,-2 c 2.5,-2.4 3.1,-6.7 0.4,-9.1 -1.8,-1.6 -5,-1.9 -6.5,0.3 -3,-3.4 -4.5,-15.7 -5,-22.4 z"
           fill="#eecc55"
           id="path94" />
        <path
           d="m 2893.7,2660.7 a 116,116 0 0 0 -31.9,0.6 c 0.3,-6.5 9.8,-2.4 16,-6.4 6.2,3.6 15.8,1.4 15.9,5.8 z"
           fill="#3366aa"
           stroke="#3366aa"
           stroke-linejoin="round"
           stroke-width="4.3"
           id="path95" />
        <path
           d="m 2850.4,2579.9 a 3,2.6 0 1 1 -6,0 3,2.6 0 1 1 6,0 z"
           fill="#3366aa"
           stroke-width="0.5"
           id="path96" />
        <path
           d="m 2859.2,2570.2 a 401,401 0 0 1 -38.5,5.4 c 0.2,1.8 17.7,0.8 23.8,0 6,-0.7 14.7,-3.4 14.7,-5.4 z"
           fill="#3366aa"
           stroke="#3366aa"
           stroke-width="2.8"
           id="path97" />
        <path
           d="m 2825.5,2577.1 c 7.9,10 23.7,13.3 37,2.8"
           fill="none"
           stroke="#3366aa"
           stroke-width="2.8"
           id="path98" />
        <path
           d="m 2854.1,2579.8 a 6.7,6 0 1 1 -13.4,0 6.7,6 0 1 1 13.4,0 z"
           fill="none"
           stroke="#3366aa"
           stroke-linejoin="round"
           stroke-width="2.8"
           id="path99" />
        <path
           d="m 2906.2,2579.2 a 2.6,2.4 0 1 0 5.2,0 2.6,2.4 0 1 0 -5.2,0 z"
           fill="#3366aa"
           stroke-width="0.4"
           id="path100" />
        <path
           d="m 2890.8,2567.6 c 4,3 26.4,7.6 34.2,7.4 -0.1,1.5 -14.7,-0.3 -19.8,-1 -5,-0.6 -14.4,-4.7 -14.4,-6.4 z"
           fill="#3366aa"
           stroke="#3366aa"
           stroke-linecap="round"
           stroke-linejoin="round"
           stroke-width="2.8"
           id="path101" />
        <path
           d="m 2924.3,2574.6 c -2.6,10.8 -18.6,14.2 -33.4,4.2"
           fill="none"
           stroke="#3366aa"
           stroke-width="2.8"
           id="path102" />
        <path
           d="m 2903,2579.2 a 5.8,5.3 0 1 0 11.6,0 5.8,5.3 0 1 0 -11.6,0 z"
           fill="none"
           stroke="#3366aa"
           stroke-linejoin="round"
           stroke-width="2.9"
           id="path103" />
        <path
           d="m 2869.8,2555.6 c -22.5,-7.4 -48.5,1.7 -48.5,1.7 m 69,0.3 c 15.3,-7.4 33,1 33,1"
           fill="none"
           stroke="#3366aa"
           stroke-linecap="round"
           stroke-width="6"
           id="path104" />
        <path
           d="m 2940.1,2505 c 13.1,10 34.1,24.4 35.4,46.2"
           fill="none"
           stroke="#333333"
           stroke-linecap="round"
           stroke-linejoin="round"
           stroke-width="5.3"
           id="path105" />
        <path
           d="m 2955.9,2511.7 -5.9,1 0.5,7.2 m 12.5,-2 -6,0.4 -0.2,7.2 m 12.1,-1.9 -6,0.1 -0.5,7.2 m 11.5,-1 -6,-0.5 -1,7.2"
           fill="none"
           stroke="#333333"
           stroke-linecap="round"
           stroke-linejoin="round"
           stroke-width="4.3"
           id="path106" />
        <path
           d="m 2984,2782.5 c 0,-38 24.5,-33.3 34,-31 v 62 c -9.3,-2 -34,7 -34,-31 z"
           fill="#ffffff"
           stroke="#333333"
           stroke-linejoin="round"
           stroke-width="4.3"
           id="path107" />
        <path
           d="m 3049.9,3002.3 c -87.7,-113.3 -80.4,-156.4 -76.6,-263.6 l -59.8,-58.6 M 2483,2795.4 c 31.9,-29.3 167,-110.4 202.7,-120"
           fill="none"
           stroke="#333333"
           stroke-linejoin="round"
           stroke-width="5.3"
           id="path108" />
        <path
           d="m 2940.3,2706.4 c -19.9,45 -37.3,90.3 -46.2,137.1 l 85.6,-27.7 v -70.7 z"
           fill="#eecc55"
           stroke="#333333"
           stroke-width="4.3"
           id="path109" />
        <path
           d="m 2926.1,3098.6 -1.1,-2.1 c 1,-0.2 1.6,1 2.2,1.6 2,2.3 5.5,3.1 8,1.3 2.8,-1.8 3.3,-5.5 1.8,-8.3 a 6.5,6.5 0 0 0 -8.3,-3.2 5.9,5.9 0 0 0 -3.4,5.7 c 0,0.6 -1.1,1.7 -1.2,0.6 -0.3,-1.2 1,-1.9 1.2,-3 1.6,-4 -1.2,-8.9 -5.5,-9.5 a 5.6,5.6 0 0 0 -6.3,4.2 c -1.2,4 2,8.7 6.2,9 1,0.1 2.2,-0.6 2.9,0.5 0.4,0.6 -1.2,0.9 -1.6,0.4 -2.4,-1.4 -6,-1 -7.6,1.4 -2.4,3.2 -0.8,8.4 2.6,10.2 2.5,1.6 6.2,1 7.8,-1.5 1.5,-2.2 1.2,-5.1 0,-7.3 -0.3,-0.7 0.2,-2.2 0.6,-1 a 31.2,31.2 0 0 1 4.3,8.5 c 0.4,0.6 -0.1,2.7 1,1.8 l 2.7,-1.7 c -1.2,-1.1 -2.7,-2.3 -3.7,-3.7 a 36.7,36.7 0 0 1 -2.6,-3.9 m -19,-34.8 -1,-2.2 c 1.2,0 1.6,1 2.2,1.8 1.7,2.4 5.2,3.6 7.9,2 2.9,-1.5 3.7,-5.4 2.4,-8.2 -1.3,-3 -4.7,-5 -8,-4 -2.3,0.8 -3.7,3.2 -3.8,5.6 0,0.5 -1.3,1.5 -1.3,0.5 -0.2,-1.2 1.2,-1.8 1.5,-2.9 2,-3.9 -0.5,-9 -4.7,-10 a 5.6,5.6 0 0 0 -6.6,3.8 c -1.5,3.8 1.2,8.7 5.3,9.4 1,0.2 2.3,-0.4 3,0.7 0.3,0.7 -1.4,0.8 -1.7,0.3 -2.3,-1.6 -5.8,-1.5 -7.7,0.8 -2.7,3 -1.5,8.2 1.7,10.3 2.3,1.8 6,1.6 7.9,-0.8 1.7,-2 1.7,-5 0.6,-7.3 -0.3,-0.7 0.4,-2 0.7,-0.9 a 31.4,31.4 0 0 1 3.6,8.9 c 0.4,0.5 -0.3,2.6 0.8,1.8 l 3,-1.5 c -1.2,-1.2 -2.7,-2.4 -3.5,-4 a 42.5,42.5 0 0 1 -2.3,-4 m -15.7,-36.4 -0.8,-2.2 c 1.1,0 1.5,1.1 2,2 1.4,2.5 4.8,4 7.6,2.7 3,-1.3 4.2,-5 3.2,-8 -1,-3.2 -4.2,-5.4 -7.5,-4.6 -2.4,0.5 -4,2.7 -4.4,5 0,0.6 -1.4,1.5 -1.3,0.5 -0.1,-1.3 1.3,-1.7 1.8,-2.8 2.2,-3.7 0.4,-8.9 -3.7,-10.3 a 5.6,5.6 0 0 0 -7,3 c -1.9,3.6 0.4,8.8 4.4,9.9 1,0.3 2.3,-0.1 2.8,1 0.3,0.7 -1.3,0.7 -1.7,0.1 -2,-1.8 -5.6,-2 -7.7,0 -2.9,2.7 -2.3,8.1 0.7,10.5 2.2,2 5.9,2.2 8,0 a 7,7 0 0 0 1.3,-7.2 c -0.2,-0.7 0.5,-2 0.7,-0.8 a 31.5,31.5 0 0 1 2.8,9.1 c 0.3,0.6 -0.5,2.6 0.7,1.9 l 3,-1.3 c -1,-1.2 -2.4,-2.6 -3,-4.2 a 42.7,42.7 0 0 1 -2,-4.3 m -11.9,-37.7 -0.5,-2.4 c 1.1,0.2 1.3,1.4 1.7,2.3 1.2,2.7 4.4,4.4 7.3,3.5 3.2,-1 4.8,-4.4 4,-7.4 a 6.3,6.3 0 0 0 -6.9,-5.5 5.9,5.9 0 0 0 -5,4.4 c 0,0.6 -1.5,1.3 -1.3,0.3 0,-1.2 1.5,-1.5 2.1,-2.5 a 7.2,7.2 0 0 0 -2.5,-10.7 5.6,5.6 0 0 0 -7.3,2.2 c -2.2,3.5 -0.6,8.8 3.3,10.3 0.9,0.5 2.3,0.2 2.7,1.4 0.2,0.7 -1.4,0.5 -1.7,0 -1.9,-2.1 -5.4,-2.8 -7.7,-1 -3.2,2.3 -3.1,8 -0.4,10.7 2,2.2 5.6,2.7 8,0.7 2,-1.6 2.6,-4.5 2,-7 -0.1,-0.7 0.8,-2 0.8,-0.7 a 31.8,31.8 0 0 1 1.8,9.4 c 0.2,0.6 -0.8,2.5 0.4,2 l 3.2,-1 c -1,-1.4 -2,-2.9 -2.6,-4.6 a 35.6,35.6 0 0 1 -1.4,-4.4 m -7.6,-38.8 -0.2,-2.4 c 1,0.3 1.1,1.5 1.4,2.4 1,2.8 3.8,4.9 6.8,4.2 a 6.4,6.4 0 0 0 5,-7 c -0.3,-3.2 -2.9,-6.2 -6.3,-6.1 a 6,6 0 0 0 -5.4,4 c -0.2,0.5 -1.7,1 -1.4,0 0.2,-1.2 1.7,-1.3 2.4,-2.2 3,-3.1 2.4,-8.6 -1.3,-10.9 a 5.6,5.6 0 0 0 -7.5,1.3 c -2.6,3.1 -1.6,8.8 2,10.7 1,0.5 2.3,0.4 2.6,1.6 0,0.8 -1.5,0.3 -1.7,-0.2 -1.6,-2.3 -5,-3.3 -7.5,-1.8 -3.5,2 -4,7.4 -1.7,10.4 1.7,2.5 5.3,3.4 7.8,1.7 a 7,7 0 0 0 2.9,-6.7 c 0,-0.7 1,-1.9 0.9,-0.6 0.6,3.2 1,6.4 0.7,9.5 0.1,0.7 -1.1,2.5 0.2,2 l 3.2,-0.5 c -0.7,-1.5 -1.7,-3.1 -2,-4.9 a 44.1,44.1 0 0 1 -0.9,-4.5 m -2.9,-39.5 v -2.4 c 1.1,0.5 1,1.6 1.2,2.6 a 6,6 0 0 0 6.3,5 6.4,6.4 0 0 0 5.7,-6.3 6.3,6.3 0 0 0 -5.5,-6.7 5.9,5.9 0 0 0 -5.9,3 c -0.2,0.6 -1.8,1 -1.4,0 0.4,-1.2 2,-1.1 2.7,-2 a 7.2,7.2 0 0 0 0,-10.9 5.6,5.6 0 0 0 -7.5,0.4 c -3,2.8 -2.7,8.5 0.7,10.8 0.8,0.7 2.2,0.7 2.3,2 0,0.7 -1.5,0.1 -1.6,-0.5 -1.4,-2.4 -4.6,-3.8 -7.3,-2.6 -3.6,1.6 -4.9,6.8 -2.9,10.1 1.4,2.6 4.8,4 7.5,2.6 2.4,-1 3.7,-3.7 3.7,-6.2 0,-0.8 1.2,-1.8 1,-0.5 0.2,3.1 0.2,6.4 -0.5,9.5 0,0.6 -1.4,2.2 0,2 l 3.2,-0.2 c -0.5,-1.5 -1.3,-3.3 -1.4,-5 a 37,37 0 0 1 -0.3,-4.7 m 1.7,-39.5 0.4,-2.4 c 1,0.6 0.7,1.7 0.8,2.7 0.2,3 2.6,5.7 5.7,5.9 3.2,0.1 5.9,-2.5 6.3,-5.6 0.6,-3.2 -1.2,-6.8 -4.6,-7.6 a 6,6 0 0 0 -6.2,2.5 c -0.3,0.5 -1.9,0.7 -1.4,-0.2 0.5,-1.2 2,-0.9 2.9,-1.6 3.7,-2.3 4.4,-8 1.3,-11 a 5.6,5.6 0 0 0 -7.6,-0.4 c -3.3,2.5 -3.6,8.2 -0.5,10.9 0.7,0.7 2.1,0.9 2,2.1 0,0.8 -1.4,0 -1.5,-0.6 -1,-2.6 -4,-4.4 -6.8,-3.6 -3.9,1.1 -5.7,6.4 -4.1,10 1,2.6 4.3,4.4 7.1,3.3 2.5,-0.8 4,-3.3 4.4,-5.8 0.1,-0.7 1.4,-1.6 1,-0.4 a 33.2,33.2 0 0 1 -1.6,9.4 c 0,0.7 -1.6,2.1 -0.2,2 l 3.2,0.2 c -0.3,-1.6 -0.9,-3.4 -0.8,-5.2 l 0.2,-4.6 m 6.1,-39.1 0.6,-2.3 c 1,0.6 0.6,1.8 0.5,2.7 0,3 2,6 5.1,6.3 a 6.2,6.2 0 0 0 6.9,-4.8 c 1,-3.1 -0.6,-7 -3.8,-8.1 -2.3,-0.8 -4.9,0.2 -6.4,2 -0.4,0.4 -2,0.4 -1.4,-0.4 0.6,-1 2,-0.7 3,-1.4 a 7.1,7.1 0 0 0 2.3,-10.7 5.6,5.6 0 0 0 -7.5,-1.2 c -3.4,2.2 -4.3,7.8 -1.5,10.8 0.6,0.8 2,1.1 1.8,2.4 0,0.7 -1.4,-0.2 -1.4,-0.8 -0.8,-2.7 -3.7,-4.7 -6.5,-4.1 -4,0.7 -6.4,5.7 -5.1,9.4 0.8,2.8 3.9,4.8 6.8,4 2.5,-0.6 4.4,-3 5,-5.4 0.2,-0.7 1.5,-1.4 1,-0.3 a 32.8,32.8 0 0 1 -2.5,9.2 c 0,0.7 -1.9,2 -0.5,2 l 3.2,0.5 c -0.1,-1.6 -0.5,-3.5 -0.3,-5.2 0.1,-1.6 0.4,-3 0.7,-4.6 m 9.7,-38.4 0.8,-2.3 c 0.9,0.7 0.4,1.9 0.3,2.8 -0.3,3 1.5,6 4.5,6.7 3.2,0.8 6.3,-1.3 7.3,-4.2 1.2,-3 0,-7.1 -3.2,-8.5 -2.2,-1 -4.8,-0.2 -6.5,1.5 -0.4,0.4 -2,0.3 -1.3,-0.4 0.7,-1.1 2,-0.6 3,-1.2 4,-1.6 5.8,-7 3.3,-10.5 a 5.6,5.6 0 0 0 -7.4,-1.7 c -3.7,1.9 -5,7.3 -2.4,10.5 0.6,0.9 2,1.3 1.6,2.5 -0.2,0.8 -1.4,-0.3 -1.4,-0.9 -0.6,-2.7 -3.3,-5 -6.2,-4.5 -4,0.4 -6.6,4.8 -5.7,8.6 0.5,2.8 3.4,5.4 6.3,4.9 2.6,-0.4 4.7,-2.6 5.5,-5 0.2,-0.7 1.7,-1.3 1,-0.2 a 32.4,32.4 0 0 1 -3.3,9 c 0,0.6 -2,1.7 -0.6,1.8 l 3.1,0.9 c 0,-1.7 -0.2,-3.6 0.2,-5.3 0.2,-1.5 0.7,-3 1.1,-4.5 m 12.6,-37.6 0.9,-2.2 c 0.8,0.8 0.3,1.9 0.1,2.8 -0.5,2.9 1,6.2 4,7.1 3,1 6.5,-1 7.6,-4 1.4,-3 0.4,-6.8 -2.6,-8.4 a 6,6 0 0 0 -6.6,0.9 c -0.4,0.4 -2,0.2 -1.3,-0.5 0.7,-1 2.1,-0.4 3.1,-1 4.1,-1.2 6.2,-6.7 3.9,-10.3 a 5.6,5.6 0 0 0 -7.3,-2.1 c -3.8,1.7 -5.4,7 -3,10.4 0.5,0.8 1.8,1.4 1.5,2.6 -0.3,0.7 -1.5,-0.4 -1.4,-1 -0.4,-2.8 -3,-5.3 -5.8,-5.1 -4,0.1 -7,4.5 -6.3,8.4 0.3,2.9 3,5.4 6,5.1 2.6,-0.1 4.8,-2.1 5.7,-4.5 0.3,-0.7 1.8,-1.2 1.1,-0.1 a 31.4,31.4 0 0 1 -3.9,8.7 c -0.2,0.6 -2.1,1.6 -0.7,1.8 l 3,1 c 0.1,-1.6 0,-3.5 0.5,-5.2 0.4,-1.5 1,-3 1.5,-4.4 m 14.6,-36.8 1,-2.2 c 0.8,0.8 0.2,1.9 0,2.8 -0.7,2.8 0.7,6.3 3.6,7.3 3.1,1.1 6.6,-0.8 7.9,-3.7 1.4,-2.9 0.7,-6.8 -2.3,-8.5 -2.1,-1.3 -4.8,-0.8 -6.7,0.6 -0.4,0.4 -2,0.1 -1.3,-0.6 0.9,-1 2.2,-0.3 3.3,-0.7 4.1,-1.2 6.4,-6.5 4.2,-10.3 a 5.6,5.6 0 0 0 -7.2,-2.4 c -3.8,1.6 -5.6,6.7 -3.4,10.2 0.5,1 1.8,1.5 1.4,2.7 -0.3,0.7 -1.5,-0.4 -1.3,-1 -0.3,-2.8 -2.7,-5.4 -5.6,-5.3 -4,0 -7.2,4.2 -6.7,8 0.2,3 2.8,5.6 5.8,5.4 2.6,0 4.9,-1.9 6,-4.2 0.2,-0.7 1.7,-1.2 1,0 a 29.6,29.6 0 0 1 -4.3,8.4 c -0.2,0.6 -2.2,1.5 -0.9,1.8 l 3,1.2 c 0.2,-1.6 0.2,-3.5 0.8,-5.2 a 42.5,42.5 0 0 1 1.7,-4.3"
           fill="#333333"
           stroke="#333333"
           stroke-width="1.8"
           id="path110" />
        <path
           d="m 2802.8,2890.5 c -10,7.5 29.1,0.5 21.8,12.3 -4.7,7.4 -12.5,1 -15.4,-3.1 -3.7,-5.4 -33.5,5.3 -39.9,11.7 6.3,-10 11.6,-20.4 18.2,-24.7 4,-1.5 5.2,3.3 1,6.4 2.1,-1.2 15.9,-3.8 14.3,-2.6 z m -48.1,10.1 c -2.6,-6.3 6,-8.4 7.8,-1.7 0.9,3.4 -1.5,2 -3.3,2 -2,-0.2 0.7,4.9 4,8.6 a 17,17 0 0 1 -8.5,-8.9 z m -20.2,-1.5 c -6.6,-0.7 -10,9.9 2.2,12.2 4,0.8 5,-1.7 4.2,-4.8 -1,-3.6 11.6,4.1 21.8,4.2 a 71,71 0 0 0 -28.2,-11.6 z m 3.7,-9.8 c -4.8,-7.6 6.3,-12.1 10.2,-3.7 1.8,4.1 -0.2,3 -2.7,3.2 -2.8,0.2 5.5,11.8 10.8,16 a 48.3,48.3 0 0 1 -18.3,-15.5 z m 101.4,-12.5 c 2,-10.9 -4.5,2.1 -5.3,-9.5 -6,14.8 -15,19.5 -32.4,22.8 12,1.3 26.4,3 31,1 4.5,-2.2 0.7,-6.2 -4.4,-4.8 2.3,-0.9 13,-10 11.1,-9.5 z m -1.2,-6.5 c 1.8,0 3.2,-1.6 3.3,-3.5 0,-1.9 -1.4,-3.4 -3.2,-3.4 -1.8,0 -3.2,1.6 -3.2,3.5 0,2 1.4,3.4 3.1,3.4 z"
           fill="#ffffff"
           id="path111" />
        <path
           d="m 2700.1,2693.1 c -17.3,2.4 -32.7,11 -47.9,19 23.4,36.8 34.3,79.5 46.6,120.8 1,8.8 11.7,5.8 17.6,6 5.2,0.2 14,0.4 16.8,-2.2 l -33,-143.6 z"
           fill="#ee1111"
           stroke="#333333"
           stroke-linejoin="round"
           stroke-width="5.3"
           id="path112" />
        <path
           d="m 2951.6,2718.4 17,27.9 -27,1.3 23.4,27.4 -32.5,15.9 26,17.5 -38.6,24.3 72.6,-19.3 c -11.6,-17.3 -14,-37.7 0,-64.3 z"
           fill="#3366aa"
           stroke="#333333"
           stroke-linejoin="round"
           stroke-width="4.3"
           id="path113" />
        <path
           d="m 2964.4,2755 a 5.2,5.2 0 1 1 -10.4,0 5.2,5.2 0 0 1 10.4,0 z m -6.1,37 a 5.2,5.2 0 1 1 -10.4,0 5.2,5.2 0 0 1 10.4,0 z m 6.8,-63.5 a 5.2,5.2 0 0 0 8.3,6.2 z m -14.2,90.2 a 5.2,5.2 0 0 0 -4.9,7 l 10,-2.6 a 5.2,5.2 0 0 0 -5.1,-4.4 z"
           fill="#ffffff"
           id="path114" />
        <path
           d="m 2820.7,2523.2 c -14.4,57 -7.3,106.2 -35,161.1 -3,7 -11,11.1 -19,9.2 -8.1,-2 -14.2,-10.2 -12.5,-18.3 a 12.7,12.7 0 0 1 15.6,-9.8 c 6,1.6 10.4,7.7 9,13.7 a 8.8,8.8 0 0 1 -11.1,6.4 c -3.8,-1.2 -6.6,-5.3 -5.3,-9 0.9,-2.6 3.8,-4.4 6.6,-3 1.5,0.7 2.8,2.8 1.6,4.3 -0.5,0.5 -2.2,0.8 -2,-0.4 m 168.7,-7.7 c 4,3.5 3.4,9.8 -0.2,13.5 -5,5 -13.2,4.3 -17.8,-0.5 a 14.3,14.3 0 0 1 -3.5,-13 m 20,-34.2 c 0.4,1.1 -1.3,1 -1.8,0.6 -1.4,-1.2 -0.5,-3.4 0.8,-4.3 2.4,-1.6 5.5,-0.3 6.8,2 1.8,3.4 -0.2,7.5 -3.6,9.1 -4.5,2.2 -9.8,-0.3 -11.6,-4.6 a 9.8,9.8 0 0 1 -0.6,-6 m 7.1,25.8 c -1.9,-2 -0.3,-5.2 1.8,-6.4 3.8,-2.2 8.4,0.2 10,3.8 2.3,5.3 -1.1,11.3 -6.4,13.3 a 13,13 0 0 1 -16.8,-8.1 14.8,14.8 0 0 1 -0.5,-8 m -158.2,12.2 a 12.7,12.7 0 0 0 -17.7,3.8 c -4.3,6.8 -1.3,16.1 5.8,20.5 a 17.2,17.2 0 0 0 10.8,2.5 m -9.8,-29 a 12.7,12.7 0 0 0 -17.7,3.8 c -4.2,6.8 -1.2,16.1 5.8,20.5 a 17.2,17.2 0 0 0 10.9,2.5 m -9,-29 a 12.7,12.7 0 0 0 -17.6,3.8 c -4.2,6.8 -1.3,16.1 5.8,20.5 a 17.2,17.2 0 0 0 10.8,2.5 m -9,-28.6 a 12.7,12.7 0 0 0 -17.8,3.8 c -4.2,6.9 -1.2,16.2 5.8,20.6 a 17.2,17.2 0 0 0 10.9,2.5 m -8.5,-28.9 a 12.7,12.7 0 0 0 -17.7,3.9 c -4.2,6.8 -1.2,16.1 5.8,20.5 a 17.2,17.2 0 0 0 11,2.5 m -8.5,-28.6 a 12.7,12.7 0 0 0 -17.7,3.8 c -4.3,6.8 -1.3,16.2 5.8,20.5 a 17.2,17.2 0 0 0 10.8,2.5 m -9.1,-28.6 a 12.7,12.7 0 0 0 -17.7,3.8 c -4.2,6.9 -1.2,16.2 5.8,20.6 a 17.2,17.2 0 0 0 10.9,2.5 m 161,-55.4 c -3.2,15.8 16.3,10.2 19.5,7.4 10.7,8.3 18.7,0.6 16.2,-7.6 -2,-6.6 -8.2,-20.6 -7.7,-40.9 m -24.6,86.5 a 23,23 0 0 0 19.9,0.8 m -63,-95.8 c -0.7,-4.3 10.7,-7.7 18.6,-9 a 41,41 0 0 1 18.5,0.9 c 1.8,3.5 4.6,13 3,17.5 a 21,21 0 0 1 -11.7,12 m 73.5,-21.5 c 0.6,-3.7 -6,-7.3 -16.4,-9 -5.6,-0.9 -17.5,-0.8 -17.7,1.6 l -0.1,16 c 4,6.6 5.9,6.8 9.6,9.6 m -122.3,88 c 27.8,-55.3 19.2,-100.7 33.6,-157.7 m -38,143.5 c 23.2,-53.7 14.4,-85.6 28.8,-142.6 m -36.7,140.7 c 23.2,-53.7 13.2,-83.4 27.6,-140.4 m -36,138.2 c 23.3,-53.7 12.4,-80 26.8,-137 m -35.3,135.4 c 23.2,-53.7 11.8,-78 26.2,-135 m -35,133.3 c 23.2,-53.7 13.2,-75.2 25.8,-133 m -36,131.2 c 23.2,-53.7 14.3,-72.8 26.9,-130.6 m -36.4,128.7 c 23.3,-53.8 14.7,-70 27.2,-127.8 m -36.7,126 c 23.3,-53.7 15,-67 27.6,-124.8 m -37.7,123 c 23.2,-53.7 16,-65.1 28.5,-123 m 194.3,6.5 c 15.8,63.3 -0.6,116.5 -13,148.2 -12,31.2 -83.4,25.2 -119.8,-11 m 142.9,-39.1 c -3.4,-11 -4.1,-11 -4.6,-19.9 m 7.3,36.3 c -1.8,-2.4 -2.3,-2.5 -3.2,-7.1"
           fill="none"
           stroke="#3366aa"
           stroke-linecap="round"
           stroke-linejoin="round"
           stroke-width="4.3"
           id="path115" />
        <path
           d="m 2729.5,2531.4 -44.5,-81.2 h 286.8 l -48.8,84.3 c -58.3,-4.7 -125.8,-10.7 -193.5,-3.1 z"
           fill="#ee1111"
           stroke="#333333"
           stroke-linecap="round"
           stroke-linejoin="round"
           stroke-width="4.7"
           id="path116" />
        <path
           d="m 2703,2450.2 33.5,50 46.4,-2.5 -14,-47.5 m 181.1,0 -31.6,50 -46.4,-2.5 14.6,-47.5 m -20.1,0 -15.4,47 h -48.3 l -14.3,-47"
           fill="none"
           stroke="#333333"
           stroke-linejoin="round"
           stroke-width="6"
           id="path117" />
        <path
           d="m 2830.9,2510 a 913,913 0 0 0 -109.4,6.5 l 8,15 c 67.7,-7.7 135.2,-1.8 193.5,3 l 10,-17.5 a 755.5,755.5 0 0 0 -102.1,-7 z"
           fill="#333333"
           id="path118" />
      </g>
      <use
         transform="rotate(180,1044.6,1932.8)"
         width="744.09998"
         height="1052.4"
         xlink:href="#g5532"
         id="use118" />
      <use
         transform="rotate(180,1044.6,1932.8)"
         width="744.09998"
         height="1052.4"
         xlink:href="#g6228"
         id="use119" />
      <g
         id="g6228"
         transform="matrix(1,0,0,1.0014,-1721.8,-986.2)">
        <path
           d="m 3051.9,2534.4 h -49.7 l 49.7,-49.7 m -2,644.5 -31.8,-31.7 v -562.9 h 31.8"
           fill="#eecc55"
           stroke="#333333"
           stroke-linejoin="round"
           stroke-width="4.3"
           id="path119" />
        <path
           d="m 3051.9,2525.1 h -25.8 l 25.8,-25.3 m -2,616 -23,-22.8 v -558.4 h 23"
           fill="#ee1111"
           stroke="#333333"
           stroke-linejoin="round"
           stroke-width="4.3"
           id="path120" />
        <g
           transform="rotate(-39.7,5047.6,-1737.4)"
           id="g122">
          <path
             d="m 622.5,425.5 c 2,-4.5 6.6,-6.5 10.1,-4.6 3.6,2 5,7 3,11.5 -2,4.5 -6.6,6.5 -10.2,4.6 -3.6,-1.9 -4.9,-7 -2.9,-11.5 z"
             fill="#ffffff"
             stroke="#333333"
             stroke-linejoin="round"
             stroke-width="4.3"
             id="path121" />
          <path
             d="m 607.6,417 c 2,-4.4 7,-6.3 11,-4 16,8.5 6.5,6 4.3,11.8 -2.3,6.1 0.2,12.4 -11.6,4.2 a 9.8,9.8 0 0 1 -3.7,-12 z"
             fill="#ffffff"
             stroke="#333333"
             stroke-linejoin="round"
             stroke-width="4.3"
             id="path122" />
        </g>
      </g>
    </g>
    <use
       transform="translate(1619.7)"
       xlink:href="#u37968"
       id="use123" />
    <use
       transform="translate(1619.9)"
       xlink:href="#u37970"
       id="use124" />
    <path
       id="frame"
       d="M 2194.1,281.3 H 2058 V 33.6 h 136.1 z"
       fill="none"
       stroke="#3366aa"
       stroke-linejoin="round"
       stroke-width="2.4" />
    <use
       id="u7712"
       transform="matrix(0.8793,0,0,0.88,1992.87,-80.1)"
       xlink:href="#club" />
    <use
       id="u7969"
       transform="rotate(180,2126,157.5)"
       xlink:href="#u7712" />
    <use
       transform="translate(2024.9,99.999994)"
       style="stroke:#333333"
       xlink:href="#J"
       id="use125" />
    <use
       transform="rotate(180,1113.75,107.5)"
       style="stroke:#333333"
       xlink:href="#J"
       id="use126" />
  </g>
  <g
     id="club_1"
     transform="translate(-2025)">
    <rect
       id="card"
       x="0.69999999"
       y="0.69999999"
       width="201.10001"
       height="313.60001"
       rx="9"
       ry="9"
       fill="#ffffff"
       stroke="#333333"
       stroke-width="1.4" />
    <use
       id="u37950"
       transform="rotate(180,101.3,157.5)"
       xlink:href="#clubS" />
    <use
       id="clubS"
       transform="matrix(0.45,0,0,0.45,-28.38,-12.7)"
       xlink:href="#club" />
    <path
       id="club"
       d="m 101.25,132.5 a 11,11 0 0 0 -8.1,18.41 l -0.5,0.52 a 11,11 0 1 0 5.86,13.95 l 0.59,0.37 c 0,7.28 -2.74,13.39 -6.1,16.75 h 16.5 c -3.36,-3.36 -6.1,-9.47 -6.1,-16.75 l 0.59,-0.37 a 11,11 0 0 0 10.26,7.12 11,11 0 1 0 -4.4,-21.07 l -0.5,-0.52 a 11,11 0 0 0 -8.1,-18.41 z"
       style="fill:#333333" />
  </g>
</svg>
