<?xml version="1.0" encoding="UTF-8" standalone="no"?>
<svg
   width="202.5"
   height="315"
   version="1.1"
   id="svg1018"
   xmlns:xlink="http://www.w3.org/1999/xlink"
   xmlns="http://www.w3.org/2000/svg"
   xmlns:svg="http://www.w3.org/2000/svg">
  <defs
     id="defs1018" />
  <path
     id="10"
     d="m -182.4,-89.999994 c -3.2,0 -5.4,3.1 -5.4,8.4 v 10.6 c 0,5.3 2.2,8.4 5.4,8.4 3.2,0 5.4,-3 5.4,-8.4 v -10.6 c 0,-5.3 -2.2,-8.4 -5.4,-8.4 z m -12,-1.2 v 29.8 z"
     style="fill:none;stroke-width:3.5" />
  <path
     id="J"
     d="m 9,-69.099994 c 0,4.2 3,6.5 6.7,6.5 3.7,0 6.7,-2.7 6.7,-6.5 v -20.4 m -1.9,-0.5 h 3.9"
     fill="none"
     stroke-linecap="square"
     stroke-width="3.5" />
  <g
     id="Q"
     transform="translate(-2025,-3.5999939)"
     style="fill:none;stroke-width:3.5;stroke-linecap:square">
    <path
       d="m 2253.7,-69 v -8.2 c 0,-5.3 -3.8,-9.6 -8.5,-9.6 -4.7,0 -8.5,4.3 -8.5,9.6 v 8.2 c 0,5.3 3.8,9.6 8.5,9.6 4.7,0 8.5,-4.3 8.5,-9.6 z"
       id="path6" />
    <path
       d="m 2235.2,-73.5 c 11.5,0 11.2,11.6 18.4,13.6"
       id="path7" />
  </g>
  <g
     id="club_2"
     transform="translate(-2025)">
    <use
       id="u37954"
       transform="translate(202.5)"
       xlink:href="#clubS" />
    <use
       id="u37956"
       transform="translate(202.5)"
       xlink:href="#u37950" />
  </g>
  <g
     id="club_3"
     transform="translate(-2025)">
    <use
       id="u37968"
       transform="translate(405)"
       xlink:href="#clubS" />
    <use
       id="u37970"
       transform="translate(405)"
       xlink:href="#u37950" />
  </g>
  <g
     id="club_4"
     transform="translate(-2025)">
    <use
       id="u46740"
       transform="translate(649.95,-106.5)"
       xlink:href="#club" />
    <use
       id="u46752"
       transform="matrix(1,0,0,-1,649.95,421.5)"
       xlink:href="#club" />
    <use
       id="u37972"
       transform="translate(405)"
       xlink:href="#u37954" />
    <use
       id="u37974"
       transform="translate(405)"
       xlink:href="#u37956" />
    <use
       id="u46750"
       transform="matrix(1,0,0,-1,565.15,421.5)"
       xlink:href="#club" />
    <use
       id="u46760"
       transform="translate(565.15,-106.5)"
       xlink:href="#club" />
  </g>
  <g
     id="club_7"
     transform="translate(-2025)">
    <use
       id="u46742"
       transform="translate(1215.05,-53.3)"
       xlink:href="#club" />
  </g>
  <g
     id="club_8"
     transform="translate(-2025)">
    <use
       id="u46935"
       transform="translate(1375.15,-35.5)"
       xlink:href="#club" />
    <use
       id="u46937"
       transform="translate(1459.95,-35.5)"
       xlink:href="#club" />
    <use
       id="u46939"
       transform="matrix(1,0,0,-1,1375.15,350.5)"
       xlink:href="#club" />
    <use
       id="u46941"
       transform="matrix(1,0,0,-1,1459.95,350.5)"
       xlink:href="#club" />
  </g>
  <g
     id="club_10"
     transform="translate(-2025)">
    <use
       transform="translate(1822.5)"
       xlink:href="#card"
       id="use66" />
    <use
       transform="translate(1619.9)"
       xlink:href="#u37954"
       id="use67" />
    <use
       transform="translate(1620)"
       xlink:href="#u37956"
       id="use68" />
    <use
       transform="translate(1215)"
       xlink:href="#u46740"
       id="use69" />
    <use
       transform="translate(1215)"
       xlink:href="#u46750"
       id="use70" />
    <use
       transform="translate(1215)"
       xlink:href="#u46752"
       id="use71" />
    <use
       transform="translate(1215)"
       xlink:href="#u46760"
       id="use72" />
    <use
       transform="translate(405)"
       xlink:href="#u46935"
       id="use73" />
    <use
       transform="translate(405)"
       xlink:href="#u46937"
       id="use74" />
    <use
       transform="translate(405)"
       xlink:href="#u46939"
       id="use75" />
    <use
       transform="translate(405)"
       xlink:href="#u46941"
       id="use76" />
    <use
       id="u47070"
       transform="translate(607.5,-17.8)"
       xlink:href="#u46742" />
    <use
       transform="matrix(1,0,0,-1,0,315)"
       xlink:href="#u47070"
       id="use77" />
    <use
       transform="translate(2025,99.999994)"
       style="stroke:#333333"
       xlink:href="#10"
       id="use78" />
    <use
       transform="rotate(180,911.3,107.5)"
       style="stroke:#333333"
       xlink:href="#10"
       id="use79" />
  </g>
  <g
     id="club_jack"
     transform="translate(-2025)">
    <use
       transform="rotate(180,1113.75,157.5)"
       xlink:href="#card"
       id="use80" />
    <g
       transform="matrix(0.2398,0,0,0.2666,1875.5,-357.8)"
       id="g123">
      <path
         d="m 1328,2052.4 v -32.1 c -87.6,-113.4 -80.3,-156.6 -76.6,-264 l -59.8,-58.7 c 0,0 -191.8,-14.4 -227.6,-4.7 -35.8,9.7 -170.9,90.9 -202.8,120.2 v 32.1 c 87.6,113.5 80.4,156.6 76.6,264 l 59.8,58.7 c 0,0 191.8,14.5 227.6,4.8 35.8,-9.7 171,-91 202.8,-120.3 z"
         fill="#333333"
         id="path80" />
      <g
         id="g5532"
         transform="matrix(1,0,0,1.0014,-1721.8,-986.2)">
        <g
           transform="translate(2394.4,2388.7)"
           id="g82">
          <path
             d="m 382.6,526.2 c 0,1.5 -0.3,4.5 -6.5,4 1.2,7.2 -2.2,6.7 -3.5,6.7 -1.3,0 -4.1,0 -4.2,-6.3 -5.4,0 -6.8,-2.3 -7,-4.4 0.2,-2.2 0.4,-4.6 6.6,-4 -1.2,-7.3 2.2,-6.8 3.5,-6.7 1.3,0 4.1,0 4.2,6.3 5.4,0 6.8,3 6.9,4.4 z"
             fill="#ffffff"
             stroke="#333333"
             stroke-linecap="round"
             stroke-linejoin="round"
             stroke-width="1.3"
             id="path81" />
          <path
             d="m 375.3,526.2 a 3.3,3.3 0 1 1 -6.5,0 3.3,3.3 0 1 1 6.5,0 z"
             fill="none"
             stroke="#333333"
             stroke-linecap="square"
             stroke-width="1.6"
             id="path82" />
        </g>
        <path
           d="m 2716.6,2672.2 41,183.7 h 17 l -34,-152.7 c 74.5,37.5 125.2,32.2 160.3,28.3 l -2.2,-19.9 c -37.6,4.1 -84.5,10.2 -163.8,-34 z"
           fill="#eecc55"
           id="path83" />
        <g
           transform="translate(2394.4,2388.7)"
           fill="#ffffff"
           id="g84">
          <path
             d="m 375.8,456.6 a 6.3,6.3 0 1 1 -12.6,0 6.3,6.3 0 0 1 12.6,0 z m -5.1,-22.7 a 6.3,6.3 0 1 1 -12.6,0 6.3,6.3 0 0 1 12.6,0 z m -5.1,-22.7 a 6.3,6.3 0 1 1 -12.6,0 6.3,6.3 0 0 1 12.6,0 z m -5.1,-22.6 a 6.3,6.3 0 1 1 -12.6,0 6.3,6.3 0 0 1 12.6,0 z m -5.2,-22.7 a 6.3,6.3 0 1 1 -12.5,0 6.3,6.3 0 0 1 12.5,0 z m -5,-22.6 a 6.35,6.35 0 1 1 -12.7,0 6.3,6.3 0 0 1 12.6,0 z m -5.2,-22.7 a 6.3,6.3 0 1 1 -12.6,0 6.3,6.3 0 0 1 12.6,0 z m 3.3,-19.4 a 6.3,6.3 0 1 1 -12.6,0 6.3,6.3 0 0 1 12.6,0 z m 110,34 a 6.3,6.3 0 1 1 -12.5,0 6.3,6.3 0 0 1 12.5,0 z m 23.3,0.2 a 6.3,6.3 0 1 1 -12.6,0 6.3,6.3 0 0 1 12.6,0 z M 369.2,311.6 a 6.3,6.3 0 1 1 -12.6,0 6.3,6.3 0 0 1 12.6,0 z m 21.4,8.9 a 6.3,6.3 0 1 1 -12.6,0 6.3,6.3 0 0 1 12.6,0 z m 22.1,7.1 a 6.3,6.3 0 1 1 -12.6,0 6.3,6.3 0 0 1 12.6,0 z m 22.7,5 a 6.3,6.3 0 1 1 -12.6,0 6.3,6.3 0 0 1 12.6,0 z"
             id="path84" />
        </g>
        <path
           d="m 2746.2,2710.4 33.3,147.3 h 67.7 a 532.3,532.3 0 0 1 32.4,-120 262.8,262.8 0 0 1 -133.4,-27.3 z"
           fill="#3366aa"
           stroke="#333333"
           stroke-linejoin="round"
           stroke-width="5.3"
           id="path85" />
        <path
           d="m 2712.9,2672.4 c -12,0.5 -21.4,1.4 -27,2.9 -12.5,3.4 -36.8,15.3 -64.6,30.7 35,51 55.7,118.4 63.5,151.8 h 70 z"
           fill="#ee1111"
           stroke="#333333"
           stroke-linejoin="round"
           stroke-width="5.3"
           id="path86" />
        <path
           d="m 2971.4,2817 a 128.3,128.3 0 0 0 33,250.5 426,426 0 0 0 45.4,-33.2 v -32 c -63,-81.4 -76.9,-126.6 -78.4,-185.3 z"
           fill="#3366aa"
           stroke="#333333"
           stroke-width="1.5"
           id="path87" />
        <path
           d="m 2975.7,2859.1 -7.3,4.2 c -94.4,57.3 -32.7,191.3 75.3,153.3 l 6.2,-3.7 v -10.7 c -46.8,-60.4 -66.5,-102.2 -74.2,-143.1 z"
           fill="#eecc55"
           id="path88" />
        <path
           d="m 2982.7,3009.4 22,-65.1 m -63.8,28.5 61.6,-30.5 m -65.3,-25 65.1,22 m -36.6,61.7 38.1,-57.2 m -52.4,44.8 51.7,-45.4 m -68.3,11.7 67.4,-13.5 m -68.7,-5.5 68.6,4.5 m -56.6,-40 57.2,38 m -44.7,-52.3 45.4,51.6 m -2.1,75.4 4.4,-68.6 m 14.5,67.3 -13.5,-67.4 m -33,-68.9 30.5,61.7 m 34,68.5 -30.5,-61.6"
           fill="#eecc55"
           stroke="#333333"
           stroke-linejoin="round"
           stroke-width="5.3"
           id="path89" />
        <path
           d="m 2979.3,2870.8 -7.7,4.5 c -80.8,49.2 -28,163.8 64.5,131.3 l 12.6,-5.9"
           fill="none"
           stroke="#333333"
           stroke-linejoin="round"
           stroke-width="5.6"
           id="path90" />
        <path
           d="m 2908.4,2679.7 -2.3,5 c -27.3,61.5 -53.4,126.5 -58.2,198.4 -4.7,71.8 15,153.1 68.2,238.2 l 34,-19.4 c -49.4,-79 -66.5,-152.1 -62.3,-216.2 4.2,-62.2 26.8,-120.9 52.5,-179.3 l -26.8,-26.3 z"
           fill="#ee1111"
           stroke="#333333"
           stroke-linecap="square"
           stroke-linejoin="round"
           stroke-width="4.7"
           id="path91" />
        <path
           d="m 2790.7,2672.9 c -62.5,-120.8 57,-211.1 132.8,-137.1 15.8,63.3 -0.7,116.5 -13,148.2 -12,31.2 -83.5,25.2 -119.8,-11.1 z"
           fill="#ffffff"
           id="path92" />
        <path
           d="m 2933.6,2500.8 c 53.9,3.9 45.7,23.6 44.5,55.3 -24.4,-13.4 -21,-16.4 -44.5,-55.3 z"
           fill="#eecc55"
           stroke="#333333"
           stroke-linecap="round"
           stroke-linejoin="round"
           stroke-width="5.3"
           id="path93" />
        <path
           d="m 2711.9,2681.8 a 17.5,17.5 0 0 0 9,1.8 17.5,17.5 0 0 0 10.4,1.9 17,17 0 0 0 9.4,1.8 17,17 0 0 0 10.1,2 16.5,16.5 0 0 0 11,2.4 l -0.4,-0.5 0.3,0.2 a 16.7,16.7 0 0 0 24,-6.8 l 0.2,-0.5 c 27.5,-55 20.5,-104.1 34.9,-160.9 l -91.5,6.1 c -12.6,57.8 -5.4,69.3 -28.5,123 a 12.9,12.9 0 0 0 -12.5,1.2 c -6.3,4.6 -6.8,13.9 -1.8,20.2 a 17,17 0 0 0 15.7,6.2 17,17 0 0 0 9.7,1.9 z m 217.1,-71.5 a 263.7,263.7 0 0 1 -14.3,62.5 h 0.8 c 0,6.3 4,12.3 10.6,13.6 6,1.3 12.7,-2.3 14,-8.6 a 9,9 0 0 0 -3.3,-8.5 12,12 0 0 0 1.5,-0.5 c 5.3,-2 8.7,-8 6.4,-13.3 -1.4,-3.2 -5.2,-5.4 -8.7,-4.4 l 0.3,-0.8 c -1.7,-2.4 -2.3,-2.5 -3.1,-6.8 a 8,8 0 0 0 6.9,-2 c 2.5,-2.4 3.1,-6.7 0.4,-9.1 -1.8,-1.6 -5,-1.9 -6.5,0.3 -3,-3.4 -4.5,-15.7 -5,-22.4 z"
           fill="#eecc55"
           id="path94" />
        <path
           d="m 2893.7,2660.7 a 116,116 0 0 0 -31.9,0.6 c 0.3,-6.5 9.8,-2.4 16,-6.4 6.2,3.6 15.8,1.4 15.9,5.8 z"
           fill="#3366aa"
           stroke="#3366aa"
           stroke-linejoin="round"
           stroke-width="4.3"
           id="path95" />
        <path
           d="m 2850.4,2579.9 a 3,2.6 0 1 1 -6,0 3,2.6 0 1 1 6,0 z"
           fill="#3366aa"
           stroke-width="0.5"
           id="path96" />
        <path
           d="m 2859.2,2570.2 a 401,401 0 0 1 -38.5,5.4 c 0.2,1.8 17.7,0.8 23.8,0 6,-0.7 14.7,-3.4 14.7,-5.4 z"
           fill="#3366aa"
           stroke="#3366aa"
           stroke-width="2.8"
           id="path97" />
        <path
           d="m 2825.5,2577.1 c 7.9,10 23.7,13.3 37,2.8"
           fill="none"
           stroke="#3366aa"
           stroke-width="2.8"
           id="path98" />
        <path
           d="m 2854.1,2579.8 a 6.7,6 0 1 1 -13.4,0 6.7,6 0 1 1 13.4,0 z"
           fill="none"
           stroke="#3366aa"
           stroke-linejoin="round"
           stroke-width="2.8"
           id="path99" />
        <path
           d="m 2906.2,2579.2 a 2.6,2.4 0 1 0 5.2,0 2.6,2.4 0 1 0 -5.2,0 z"
           fill="#3366aa"
           stroke-width="0.4"
           id="path100" />
        <path
           d="m 2890.8,2567.6 c 4,3 26.4,7.6 34.2,7.4 -0.1,1.5 -14.7,-0.3 -19.8,-1 -5,-0.6 -14.4,-4.7 -14.4,-6.4 z"
           fill="#3366aa"
           stroke="#3366aa"
           stroke-linecap="round"
           stroke-linejoin="round"
           stroke-width="2.8"
           id="path101" />
        <path
           d="m 2924.3,2574.6 c -2.6,10.8 -18.6,14.2 -33.4,4.2"
           fill="none"
           stroke="#3366aa"
           stroke-width="2.8"
           id="path102" />
        <path
           d="m 2903,2579.2 a 5.8,5.3 0 1 0 11.6,0 5.8,5.3 0 1 0 -11.6,0 z"
           fill="none"
           stroke="#3366aa"
           stroke-linejoin="round"
           stroke-width="2.9"
           id="path103" />
        <path
           d="m 2869.8,2555.6 c -22.5,-7.4 -48.5,1.7 -48.5,1.7 m 69,0.3 c 15.3,-7.4 33,1 33,1"
           fill="none"
           stroke="#3366aa"
           stroke-linecap="round"
           stroke-width="6"
           id="path104" />
        <path
           d="m 2940.1,2505 c 13.1,10 34.1,24.4 35.4,46.2"
           fill="none"
           stroke="#333333"
           stroke-linecap="round"
           stroke-linejoin="round"
           stroke-width="5.3"
           id="path105" />
        <path
           d="m 2955.9,2511.7 -5.9,1 0.5,7.2 m 12.5,-2 -6,0.4 -0.2,7.2 m 12.1,-1.9 -6,0.1 -0.5,7.2 m 11.5,-1 -6,-0.5 -1,7.2"
           fill="none"
           stroke="#333333"
           stroke-linecap="round"
           stroke-linejoin="round"
           stroke-width="4.3"
           id="path106" />
        <path
           d="m 2984,2782.5 c 0,-38 24.5,-33.3 34,-31 v 62 c -9.3,-2 -34,7 -34,-31 z"
           fill="#ffffff"
           stroke="#333333"
           stroke-linejoin="round"
           stroke-width="4.3"
           id="path107" />
        <path
           d="m 3049.9,3002.3 c -87.7,-113.3 -80.4,-156.4 -76.6,-263.6 l -59.8,-58.6 M 2483,2795.4 c 31.9,-29.3 167,-110.4 202.7,-120"
           fill="none"
           stroke="#333333"
           stroke-linejoin="round"
           stroke-width="5.3"
           id="path108" />
        <path
           d="m 2940.3,2706.4 c -19.9,45 -37.3,90.3 -46.2,137.1 l 85.6,-27.7 v -70.7 z"
           fill="#eecc55"
           stroke="#333333"
           stroke-width="4.3"
           id="path109" />
        <path
           d="m 2926.1,3098.6 -1.1,-2.1 c 1,-0.2 1.6,1 2.2,1.6 2,2.3 5.5,3.1 8,1.3 2.8,-1.8 3.3,-5.5 1.8,-8.3 a 6.5,6.5 0 0 0 -8.3,-3.2 5.9,5.9 0 0 0 -3.4,5.7 c 0,0.6 -1.1,1.7 -1.2,0.6 -0.3,-1.2 1,-1.9 1.2,-3 1.6,-4 -1.2,-8.9 -5.5,-9.5 a 5.6,5.6 0 0 0 -6.3,4.2 c -1.2,4 2,8.7 6.2,9 1,0.1 2.2,-0.6 2.9,0.5 0.4,0.6 -1.2,0.9 -1.6,0.4 -2.4,-1.4 -6,-1 -7.6,1.4 -2.4,3.2 -0.8,8.4 2.6,10.2 2.5,1.6 6.2,1 7.8,-1.5 1.5,-2.2 1.2,-5.1 0,-7.3 -0.3,-0.7 0.2,-2.2 0.6,-1 a 31.2,31.2 0 0 1 4.3,8.5 c 0.4,0.6 -0.1,2.7 1,1.8 l 2.7,-1.7 c -1.2,-1.1 -2.7,-2.3 -3.7,-3.7 a 36.7,36.7 0 0 1 -2.6,-3.9 m -19,-34.8 -1,-2.2 c 1.2,0 1.6,1 2.2,1.8 1.7,2.4 5.2,3.6 7.9,2 2.9,-1.5 3.7,-5.4 2.4,-8.2 -1.3,-3 -4.7,-5 -8,-4 -2.3,0.8 -3.7,3.2 -3.8,5.6 0,0.5 -1.3,1.5 -1.3,0.5 -0.2,-1.2 1.2,-1.8 1.5,-2.9 2,-3.9 -0.5,-9 -4.7,-10 a 5.6,5.6 0 0 0 -6.6,3.8 c -1.5,3.8 1.2,8.7 5.3,9.4 1,0.2 2.3,-0.4 3,0.7 0.3,0.7 -1.4,0.8 -1.7,0.3 -2.3,-1.6 -5.8,-1.5 -7.7,0.8 -2.7,3 -1.5,8.2 1.7,10.3 2.3,1.8 6,1.6 7.9,-0.8 1.7,-2 1.7,-5 0.6,-7.3 -0.3,-0.7 0.4,-2 0.7,-0.9 a 31.4,31.4 0 0 1 3.6,8.9 c 0.4,0.5 -0.3,2.6 0.8,1.8 l 3,-1.5 c -1.2,-1.2 -2.7,-2.4 -3.5,-4 a 42.5,42.5 0 0 1 -2.3,-4 m -15.7,-36.4 -0.8,-2.2 c 1.1,0 1.5,1.1 2,2 1.4,2.5 4.8,4 7.6,2.7 3,-1.3 4.2,-5 3.2,-8 -1,-3.2 -4.2,-5.4 -7.5,-4.6 -2.4,0.5 -4,2.7 -4.4,5 0,0.6 -1.4,1.5 -1.3,0.5 -0.1,-1.3 1.3,-1.7 1.8,-2.8 2.2,-3.7 0.4,-8.9 -3.7,-10.3 a 5.6,5.6 0 0 0 -7,3 c -1.9,3.6 0.4,8.8 4.4,9.9 1,0.3 2.3,-0.1 2.8,1 0.3,0.7 -1.3,0.7 -1.7,0.1 -2,-1.8 -5.6,-2 -7.7,0 -2.9,2.7 -2.3,8.1 0.7,10.5 2.2,2 5.9,2.2 8,0 a 7,7 0 0 0 1.3,-7.2 c -0.2,-0.7 0.5,-2 0.7,-0.8 a 31.5,31.5 0 0 1 2.8,9.1 c 0.3,0.6 -0.5,2.6 0.7,1.9 l 3,-1.3 c -1,-1.2 -2.4,-2.6 -3,-4.2 a 42.7,42.7 0 0 1 -2,-4.3 m -11.9,-37.7 -0.5,-2.4 c 1.1,0.2 1.3,1.4 1.7,2.3 1.2,2.7 4.4,4.4 7.3,3.5 3.2,-1 4.8,-4.4 4,-7.4 a 6.3,6.3 0 0 0 -6.9,-5.5 5.9,5.9 0 0 0 -5,4.4 c 0,0.6 -1.5,1.3 -1.3,0.3 0,-1.2 1.5,-1.5 2.1,-2.5 a 7.2,7.2 0 0 0 -2.5,-10.7 5.6,5.6 0 0 0 -7.3,2.2 c -2.2,3.5 -0.6,8.8 3.3,10.3 0.9,0.5 2.3,0.2 2.7,1.4 0.2,0.7 -1.4,0.5 -1.7,0 -1.9,-2.1 -5.4,-2.8 -7.7,-1 -3.2,2.3 -3.1,8 -0.4,10.7 2,2.2 5.6,2.7 8,0.7 2,-1.6 2.6,-4.5 2,-7 -0.1,-0.7 0.8,-2 0.8,-0.7 a 31.8,31.8 0 0 1 1.8,9.4 c 0.2,0.6 -0.8,2.5 0.4,2 l 3.2,-1 c -1,-1.4 -2,-2.9 -2.6,-4.6 a 35.6,35.6 0 0 1 -1.4,-4.4 m -7.6,-38.8 -0.2,-2.4 c 1,0.3 1.1,1.5 1.4,2.4 1,2.8 3.8,4.9 6.8,4.2 a 6.4,6.4 0 0 0 5,-7 c -0.3,-3.2 -2.9,-6.2 -6.3,-6.1 a 6,6 0 0 0 -5.4,4 c -0.2,0.5 -1.7,1 -1.4,0 0.2,-1.2 1.7,-1.3 2.4,-2.2 3,-3.1 2.4,-8.6 -1.3,-10.9 a 5.6,5.6 0 0 0 -7.5,1.3 c -2.6,3.1 -1.6,8.8 2,10.7 1,0.5 2.3,0.4 2.6,1.6 0,0.8 -1.5,0.3 -1.7,-0.2 -1.6,-2.3 -5,-3.3 -7.5,-1.8 -3.5,2 -4,7.4 -1.7,10.4 1.7,2.5 5.3,3.4 7.8,1.7 a 7,7 0 0 0 2.9,-6.7 c 0,-0.7 1,-1.9 0.9,-0.6 0.6,3.2 1,6.4 0.7,9.5 0.1,0.7 -1.1,2.5 0.2,2 l 3.2,-0.5 c -0.7,-1.5 -1.7,-3.1 -2,-4.9 a 44.1,44.1 0 0 1 -0.9,-4.5 m -2.9,-39.5 v -2.4 c 1.1,0.5 1,1.6 1.2,2.6 a 6,6 0 0 0 6.3,5 6.4,6.4 0 0 0 5.7,-6.3 6.3,6.3 0 0 0 -5.5,-6.7 5.9,5.9 0 0 0 -5.9,3 c -0.2,0.6 -1.8,1 -1.4,0 0.4,-1.2 2,-1.1 2.7,-2 a 7.2,7.2 0 0 0 0,-10.9 5.6,5.6 0 0 0 -7.5,0.4 c -3,2.8 -2.7,8.5 0.7,10.8 0.8,0.7 2.2,0.7 2.3,2 0,0.7 -1.5,0.1 -1.6,-0.5 -1.4,-2.4 -4.6,-3.8 -7.3,-2.6 -3.6,1.6 -4.9,6.8 -2.9,10.1 1.4,2.6 4.8,4 7.5,2.6 2.4,-1 3.7,-3.7 3.7,-6.2 0,-0.8 1.2,-1.8 1,-0.5 0.2,3.1 0.2,6.4 -0.5,9.5 0,0.6 -1.4,2.2 0,2 l 3.2,-0.2 c -0.5,-1.5 -1.3,-3.3 -1.4,-5 a 37,37 0 0 1 -0.3,-4.7 m 1.7,-39.5 0.4,-2.4 c 1,0.6 0.7,1.7 0.8,2.7 0.2,3 2.6,5.7 5.7,5.9 3.2,0.1 5.9,-2.5 6.3,-5.6 0.6,-3.2 -1.2,-6.8 -4.6,-7.6 a 6,6 0 0 0 -6.2,2.5 c -0.3,0.5 -1.9,0.7 -1.4,-0.2 0.5,-1.2 2,-0.9 2.9,-1.6 3.7,-2.3 4.4,-8 1.3,-11 a 5.6,5.6 0 0 0 -7.6,-0.4 c -3.3,2.5 -3.6,8.2 -0.5,10.9 0.7,0.7 2.1,0.9 2,2.1 0,0.8 -1.4,0 -1.5,-0.6 -1,-2.6 -4,-4.4 -6.8,-3.6 -3.9,1.1 -5.7,6.4 -4.1,10 1,2.6 4.3,4.4 7.1,3.3 2.5,-0.8 4,-3.3 4.4,-5.8 0.1,-0.7 1.4,-1.6 1,-0.4 a 33.2,33.2 0 0 1 -1.6,9.4 c 0,0.7 -1.6,2.1 -0.2,2 l 3.2,0.2 c -0.3,-1.6 -0.9,-3.4 -0.8,-5.2 l 0.2,-4.6 m 6.1,-39.1 0.6,-2.3 c 1,0.6 0.6,1.8 0.5,2.7 0,3 2,6 5.1,6.3 a 6.2,6.2 0 0 0 6.9,-4.8 c 1,-3.1 -0.6,-7 -3.8,-8.1 -2.3,-0.8 -4.9,0.2 -6.4,2 -0.4,0.4 -2,0.4 -1.4,-0.4 0.6,-1 2,-0.7 3,-1.4 a 7.1,7.1 0 0 0 2.3,-10.7 5.6,5.6 0 0 0 -7.5,-1.2 c -3.4,2.2 -4.3,7.8 -1.5,10.8 0.6,0.8 2,1.1 1.8,2.4 0,0.7 -1.4,-0.2 -1.4,-0.8 -0.8,-2.7 -3.7,-4.7 -6.5,-4.1 -4,0.7 -6.4,5.7 -5.1,9.4 0.8,2.8 3.9,4.8 6.8,4 2.5,-0.6 4.4,-3 5,-5.4 0.2,-0.7 1.5,-1.4 1,-0.3 a 32.8,32.8 0 0 1 -2.5,9.2 c 0,0.7 -1.9,2 -0.5,2 l 3.2,0.5 c -0.1,-1.6 -0.5,-3.5 -0.3,-5.2 0.1,-1.6 0.4,-3 0.7,-4.6 m 9.7,-38.4 0.8,-2.3 c 0.9,0.7 0.4,1.9 0.3,2.8 -0.3,3 1.5,6 4.5,6.7 3.2,0.8 6.3,-1.3 7.3,-4.2 1.2,-3 0,-7.1 -3.2,-8.5 -2.2,-1 -4.8,-0.2 -6.5,1.5 -0.4,0.4 -2,0.3 -1.3,-0.4 0.7,-1.1 2,-0.6 3,-1.2 4,-1.6 5.8,-7 3.3,-10.5 a 5.6,5.6 0 0 0 -7.4,-1.7 c -3.7,1.9 -5,7.3 -2.4,10.5 0.6,0.9 2,1.3 1.6,2.5 -0.2,0.8 -1.4,-0.3 -1.4,-0.9 -0.6,-2.7 -3.3,-5 -6.2,-4.5 -4,0.4 -6.6,4.8 -5.7,8.6 0.5,2.8 3.4,5.4 6.3,4.9 2.6,-0.4 4.7,-2.6 5.5,-5 0.2,-0.7 1.7,-1.3 1,-0.2 a 32.4,32.4 0 0 1 -3.3,9 c 0,0.6 -2,1.7 -0.6,1.8 l 3.1,0.9 c 0,-1.7 -0.2,-3.6 0.2,-5.3 0.2,-1.5 0.7,-3 1.1,-4.5 m 12.6,-37.6 0.9,-2.2 c 0.8,0.8 0.3,1.9 0.1,2.8 -0.5,2.9 1,6.2 4,7.1 3,1 6.5,-1 7.6,-4 1.4,-3 0.4,-6.8 -2.6,-8.4 a 6,6 0 0 0 -6.6,0.9 c -0.4,0.4 -2,0.2 -1.3,-0.5 0.7,-1 2.1,-0.4 3.1,-1 4.1,-1.2 6.2,-6.7 3.9,-10.3 a 5.6,5.6 0 0 0 -7.3,-2.1 c -3.8,1.7 -5.4,7 -3,10.4 0.5,0.8 1.8,1.4 1.5,2.6 -0.3,0.7 -1.5,-0.4 -1.4,-1 -0.4,-2.8 -3,-5.3 -5.8,-5.1 -4,0.1 -7,4.5 -6.3,8.4 0.3,2.9 3,5.4 6,5.1 2.6,-0.1 4.8,-2.1 5.7,-4.5 0.3,-0.7 1.8,-1.2 1.1,-0.1 a 31.4,31.4 0 0 1 -3.9,8.7 c -0.2,0.6 -2.1,1.6 -0.7,1.8 l 3,1 c 0.1,-1.6 0,-3.5 0.5,-5.2 0.4,-1.5 1,-3 1.5,-4.4 m 14.6,-36.8 1,-2.2 c 0.8,0.8 0.2,1.9 0,2.8 -0.7,2.8 0.7,6.3 3.6,7.3 3.1,1.1 6.6,-0.8 7.9,-3.7 1.4,-2.9 0.7,-6.8 -2.3,-8.5 -2.1,-1.3 -4.8,-0.8 -6.7,0.6 -0.4,0.4 -2,0.1 -1.3,-0.6 0.9,-1 2.2,-0.3 3.3,-0.7 4.1,-1.2 6.4,-6.5 4.2,-10.3 a 5.6,5.6 0 0 0 -7.2,-2.4 c -3.8,1.6 -5.6,6.7 -3.4,10.2 0.5,1 1.8,1.5 1.4,2.7 -0.3,0.7 -1.5,-0.4 -1.3,-1 -0.3,-2.8 -2.7,-5.4 -5.6,-5.3 -4,0 -7.2,4.2 -6.7,8 0.2,3 2.8,5.6 5.8,5.4 2.6,0 4.9,-1.9 6,-4.2 0.2,-0.7 1.7,-1.2 1,0 a 29.6,29.6 0 0 1 -4.3,8.4 c -0.2,0.6 -2.2,1.5 -0.9,1.8 l 3,1.2 c 0.2,-1.6 0.2,-3.5 0.8,-5.2 a 42.5,42.5 0 0 1 1.7,-4.3"
           fill="#333333"
           stroke="#333333"
           stroke-width="1.8"
           id="path110" />
        <path
           d="m 2802.8,2890.5 c -10,7.5 29.1,0.5 21.8,12.3 -4.7,7.4 -12.5,1 -15.4,-3.1 -3.7,-5.4 -33.5,5.3 -39.9,11.7 6.3,-10 11.6,-20.4 18.2,-24.7 4,-1.5 5.2,3.3 1,6.4 2.1,-1.2 15.9,-3.8 14.3,-2.6 z m -48.1,10.1 c -2.6,-6.3 6,-8.4 7.8,-1.7 0.9,3.4 -1.5,2 -3.3,2 -2,-0.2 0.7,4.9 4,8.6 a 17,17 0 0 1 -8.5,-8.9 z m -20.2,-1.5 c -6.6,-0.7 -10,9.9 2.2,12.2 4,0.8 5,-1.7 4.2,-4.8 -1,-3.6 11.6,4.1 21.8,4.2 a 71,71 0 0 0 -28.2,-11.6 z m 3.7,-9.8 c -4.8,-7.6 6.3,-12.1 10.2,-3.7 1.8,4.1 -0.2,3 -2.7,3.2 -2.8,0.2 5.5,11.8 10.8,16 a 48.3,48.3 0 0 1 -18.3,-15.5 z m 101.4,-12.5 c 2,-10.9 -4.5,2.1 -5.3,-9.5 -6,14.8 -15,19.5 -32.4,22.8 12,1.3 26.4,3 31,1 4.5,-2.2 0.7,-6.2 -4.4,-4.8 2.3,-0.9 13,-10 11.1,-9.5 z m -1.2,-6.5 c 1.8,0 3.2,-1.6 3.3,-3.5 0,-1.9 -1.4,-3.4 -3.2,-3.4 -1.8,0 -3.2,1.6 -3.2,3.5 0,2 1.4,3.4 3.1,3.4 z"
           fill="#ffffff"
           id="path111" />
        <path
           d="m 2700.1,2693.1 c -17.3,2.4 -32.7,11 -47.9,19 23.4,36.8 34.3,79.5 46.6,120.8 1,8.8 11.7,5.8 17.6,6 5.2,0.2 14,0.4 16.8,-2.2 l -33,-143.6 z"
           fill="#ee1111"
           stroke="#333333"
           stroke-linejoin="round"
           stroke-width="5.3"
           id="path112" />
        <path
           d="m 2951.6,2718.4 17,27.9 -27,1.3 23.4,27.4 -32.5,15.9 26,17.5 -38.6,24.3 72.6,-19.3 c -11.6,-17.3 -14,-37.7 0,-64.3 z"
           fill="#3366aa"
           stroke="#333333"
           stroke-linejoin="round"
           stroke-width="4.3"
           id="path113" />
        <path
           d="m 2964.4,2755 a 5.2,5.2 0 1 1 -10.4,0 5.2,5.2 0 0 1 10.4,0 z m -6.1,37 a 5.2,5.2 0 1 1 -10.4,0 5.2,5.2 0 0 1 10.4,0 z m 6.8,-63.5 a 5.2,5.2 0 0 0 8.3,6.2 z m -14.2,90.2 a 5.2,5.2 0 0 0 -4.9,7 l 10,-2.6 a 5.2,5.2 0 0 0 -5.1,-4.4 z"
           fill="#ffffff"
           id="path114" />
        <path
           d="m 2820.7,2523.2 c -14.4,57 -7.3,106.2 -35,161.1 -3,7 -11,11.1 -19,9.2 -8.1,-2 -14.2,-10.2 -12.5,-18.3 a 12.7,12.7 0 0 1 15.6,-9.8 c 6,1.6 10.4,7.7 9,13.7 a 8.8,8.8 0 0 1 -11.1,6.4 c -3.8,-1.2 -6.6,-5.3 -5.3,-9 0.9,-2.6 3.8,-4.4 6.6,-3 1.5,0.7 2.8,2.8 1.6,4.3 -0.5,0.5 -2.2,0.8 -2,-0.4 m 168.7,-7.7 c 4,3.5 3.4,9.8 -0.2,13.5 -5,5 -13.2,4.3 -17.8,-0.5 a 14.3,14.3 0 0 1 -3.5,-13 m 20,-34.2 c 0.4,1.1 -1.3,1 -1.8,0.6 -1.4,-1.2 -0.5,-3.4 0.8,-4.3 2.4,-1.6 5.5,-0.3 6.8,2 1.8,3.4 -0.2,7.5 -3.6,9.1 -4.5,2.2 -9.8,-0.3 -11.6,-4.6 a 9.8,9.8 0 0 1 -0.6,-6 m 7.1,25.8 c -1.9,-2 -0.3,-5.2 1.8,-6.4 3.8,-2.2 8.4,0.2 10,3.8 2.3,5.3 -1.1,11.3 -6.4,13.3 a 13,13 0 0 1 -16.8,-8.1 14.8,14.8 0 0 1 -0.5,-8 m -158.2,12.2 a 12.7,12.7 0 0 0 -17.7,3.8 c -4.3,6.8 -1.3,16.1 5.8,20.5 a 17.2,17.2 0 0 0 10.8,2.5 m -9.8,-29 a 12.7,12.7 0 0 0 -17.7,3.8 c -4.2,6.8 -1.2,16.1 5.8,20.5 a 17.2,17.2 0 0 0 10.9,2.5 m -9,-29 a 12.7,12.7 0 0 0 -17.6,3.8 c -4.2,6.8 -1.3,16.1 5.8,20.5 a 17.2,17.2 0 0 0 10.8,2.5 m -9,-28.6 a 12.7,12.7 0 0 0 -17.8,3.8 c -4.2,6.9 -1.2,16.2 5.8,20.6 a 17.2,17.2 0 0 0 10.9,2.5 m -8.5,-28.9 a 12.7,12.7 0 0 0 -17.7,3.9 c -4.2,6.8 -1.2,16.1 5.8,20.5 a 17.2,17.2 0 0 0 11,2.5 m -8.5,-28.6 a 12.7,12.7 0 0 0 -17.7,3.8 c -4.3,6.8 -1.3,16.2 5.8,20.5 a 17.2,17.2 0 0 0 10.8,2.5 m -9.1,-28.6 a 12.7,12.7 0 0 0 -17.7,3.8 c -4.2,6.9 -1.2,16.2 5.8,20.6 a 17.2,17.2 0 0 0 10.9,2.5 m 161,-55.4 c -3.2,15.8 16.3,10.2 19.5,7.4 10.7,8.3 18.7,0.6 16.2,-7.6 -2,-6.6 -8.2,-20.6 -7.7,-40.9 m -24.6,86.5 a 23,23 0 0 0 19.9,0.8 m -63,-95.8 c -0.7,-4.3 10.7,-7.7 18.6,-9 a 41,41 0 0 1 18.5,0.9 c 1.8,3.5 4.6,13 3,17.5 a 21,21 0 0 1 -11.7,12 m 73.5,-21.5 c 0.6,-3.7 -6,-7.3 -16.4,-9 -5.6,-0.9 -17.5,-0.8 -17.7,1.6 l -0.1,16 c 4,6.6 5.9,6.8 9.6,9.6 m -122.3,88 c 27.8,-55.3 19.2,-100.7 33.6,-157.7 m -38,143.5 c 23.2,-53.7 14.4,-85.6 28.8,-142.6 m -36.7,140.7 c 23.2,-53.7 13.2,-83.4 27.6,-140.4 m -36,138.2 c 23.3,-53.7 12.4,-80 26.8,-137 m -35.3,135.4 c 23.2,-53.7 11.8,-78 26.2,-135 m -35,133.3 c 23.2,-53.7 13.2,-75.2 25.8,-133 m -36,131.2 c 23.2,-53.7 14.3,-72.8 26.9,-130.6 m -36.4,128.7 c 23.3,-53.8 14.7,-70 27.2,-127.8 m -36.7,126 c 23.3,-53.7 15,-67 27.6,-124.8 m -37.7,123 c 23.2,-53.7 16,-65.1 28.5,-123 m 194.3,6.5 c 15.8,63.3 -0.6,116.5 -13,148.2 -12,31.2 -83.4,25.2 -119.8,-11 m 142.9,-39.1 c -3.4,-11 -4.1,-11 -4.6,-19.9 m 7.3,36.3 c -1.8,-2.4 -2.3,-2.5 -3.2,-7.1"
           fill="none"
           stroke="#3366aa"
           stroke-linecap="round"
           stroke-linejoin="round"
           stroke-width="4.3"
           id="path115" />
        <path
           d="m 2729.5,2531.4 -44.5,-81.2 h 286.8 l -48.8,84.3 c -58.3,-4.7 -125.8,-10.7 -193.5,-3.1 z"
           fill="#ee1111"
           stroke="#333333"
           stroke-linecap="round"
           stroke-linejoin="round"
           stroke-width="4.7"
           id="path116" />
        <path
           d="m 2703,2450.2 33.5,50 46.4,-2.5 -14,-47.5 m 181.1,0 -31.6,50 -46.4,-2.5 14.6,-47.5 m -20.1,0 -15.4,47 h -48.3 l -14.3,-47"
           fill="none"
           stroke="#333333"
           stroke-linejoin="round"
           stroke-width="6"
           id="path117" />
        <path
           d="m 2830.9,2510 a 913,913 0 0 0 -109.4,6.5 l 8,15 c 67.7,-7.7 135.2,-1.8 193.5,3 l 10,-17.5 a 755.5,755.5 0 0 0 -102.1,-7 z"
           fill="#333333"
           id="path118" />
      </g>
      <use
         transform="rotate(180,1044.6,1932.8)"
         width="744.09998"
         height="1052.4"
         xlink:href="#g5532"
         id="use118" />
      <use
         transform="rotate(180,1044.6,1932.8)"
         width="744.09998"
         height="1052.4"
         xlink:href="#g6228"
         id="use119" />
      <g
         id="g6228"
         transform="matrix(1,0,0,1.0014,-1721.8,-986.2)">
        <path
           d="m 3051.9,2534.4 h -49.7 l 49.7,-49.7 m -2,644.5 -31.8,-31.7 v -562.9 h 31.8"
           fill="#eecc55"
           stroke="#333333"
           stroke-linejoin="round"
           stroke-width="4.3"
           id="path119" />
        <path
           d="m 3051.9,2525.1 h -25.8 l 25.8,-25.3 m -2,616 -23,-22.8 v -558.4 h 23"
           fill="#ee1111"
           stroke="#333333"
           stroke-linejoin="round"
           stroke-width="4.3"
           id="path120" />
        <g
           transform="rotate(-39.7,5047.6,-1737.4)"
           id="g122">
          <path
             d="m 622.5,425.5 c 2,-4.5 6.6,-6.5 10.1,-4.6 3.6,2 5,7 3,11.5 -2,4.5 -6.6,6.5 -10.2,4.6 -3.6,-1.9 -4.9,-7 -2.9,-11.5 z"
             fill="#ffffff"
             stroke="#333333"
             stroke-linejoin="round"
             stroke-width="4.3"
             id="path121" />
          <path
             d="m 607.6,417 c 2,-4.4 7,-6.3 11,-4 16,8.5 6.5,6 4.3,11.8 -2.3,6.1 0.2,12.4 -11.6,4.2 a 9.8,9.8 0 0 1 -3.7,-12 z"
             fill="#ffffff"
             stroke="#333333"
             stroke-linejoin="round"
             stroke-width="4.3"
             id="path122" />
        </g>
      </g>
    </g>
    <use
       transform="translate(1619.7)"
       xlink:href="#u37968"
       id="use123" />
    <use
       transform="translate(1619.9)"
       xlink:href="#u37970"
       id="use124" />
    <path
       id="frame"
       d="M 2194.1,281.3 H 2058 V 33.6 h 136.1 z"
       fill="none"
       stroke="#3366aa"
       stroke-linejoin="round"
       stroke-width="2.4" />
    <use
       id="u7712"
       transform="matrix(0.8793,0,0,0.88,1992.87,-80.1)"
       xlink:href="#club" />
    <use
       id="u7969"
       transform="rotate(180,2126,157.5)"
       xlink:href="#u7712" />
    <use
       transform="translate(2024.9,99.999994)"
       style="stroke:#333333"
       xlink:href="#J"
       id="use125" />
    <use
       transform="rotate(180,1113.75,107.5)"
       style="stroke:#333333"
       xlink:href="#J"
       id="use126" />
  </g>
  <g
     id="club_queen"
     transform="translate(-2025)">
    <use
       transform="rotate(180,1215,157.5)"
       xlink:href="#card"
       id="use127" />
    <use
       transform="translate(1619.9)"
       xlink:href="#u37972"
       id="use128" />
    <use
       transform="translate(1620)"
       xlink:href="#u37974"
       id="use129" />
    <g
       transform="matrix(0.242,0,0,0.2675,1659.3,-302.6)"
       id="g179">
      <path
         d="m 2975.1,1550.8 h -304 l -4.8,4.3 -183.3,182.7 v 161.8 l 9.5,8.4 65.3,-19 h 304 l 4.7,-4.3 L 3050,1702 v -162 z"
         fill="#333333"
         id="path129" />
      <path
         d="m 2747.6,1892.4 h -136.8 c 128.9,-79 144,-235.6 174.3,-345 H 2922 c -139.5,89 -140.3,238 -174.3,345 z"
         fill="#333333"
         stroke="#ee1111"
         stroke-linecap="round"
         stroke-linejoin="round"
         stroke-width="7.9"
         id="path130" />
      <g
         id="g5781">
        <path
           d="m 3024.4,1554 c -166.5,-29.4 -275.2,184.8 -138.8,304.7 l 9.4,-10.5 c -54.3,-39.6 -71.4,-118.2 -44.1,-187.4 a 165.3,165.3 0 0 1 198.9,-92.9 c 0,0 -25.8,-12.6 -25.4,-13.9 z"
           fill="#3366aa"
           stroke-width="4"
           id="path131" />
        <path
           d="m 3002.1,1564.9 c -121.6,1.9 -201.2,133.6 -133.5,247.5 l 181.2,-178.6 v -63.5 a 193.3,193.3 0 0 0 -47.7,-5.4 z"
           fill="#ee1111"
           id="path132" />
        <path
           d="m 3009.9,1593.7 c -5.3,-0.6 0.1,-1.5 2.1,-1.5 3.8,-0.8 6.7,-4.8 5,-8.5 -2.3,-7 -15.2,-6.4 -15.4,1.5 -0.4,3 2.6,4.7 3.8,6.9 -2,1.1 -2.3,-4 -4.7,-4.6 -4.7,-3.4 -13,0.1 -12,6.4 1.3,6.9 11.8,7.8 14.5,1.7 4.2,-2.2 -1.1,2 -2.2,3.4 -2.7,4.7 1.9,11 7,10.2 1.5,-0.3 5.4,-1.7 6.1,-4.4 0.9,-2.8 0,-6.3 -2.9,-8 -1.8,-0.8 -6.6,-2.8 -1.4,-2.1 2.5,0.6 7.3,2.5 9.6,2.6 l 0.1,-3 c -3.2,0.5 -6.4,-0.2 -9.6,-0.6 m -56.6,4.9 c -5,1.8 -0.9,-1.3 1,-2.2 3.8,-2.6 4.1,-9.2 -0.5,-11.2 -4.9,-1.8 -11.4,0.8 -12.4,6.1 -0.6,3.8 2.8,7 6.4,7.2 1.8,3.3 -3.1,-1 -4.8,-1.2 -5.9,-1.6 -12.5,5.7 -8.4,11 4.2,5.6 13.9,1.6 13.6,-5 2.3,-3.8 0.4,1.9 -0.3,3.5 -0.8,5.5 6.2,9.6 10.6,6.4 4.5,-2.5 4.3,-10.3 -0.8,-12 -2.1,-1.2 -4.6,0.4 -6.5,-0.7 2.3,-3 11.7,-2.2 13.5,-3.4 l -1.4,-3.2 c -2.9,2.4 -6.5,3.5 -10,4.7 m -48.1,30.2 c -3.6,4 -1.2,-1 0,-2.6 1.6,-3.4 0,-9.4 -4.3,-9 -7,-1.8 -13.7,8.7 -7.4,13.4 2.2,2.1 5.3,0.7 7.7,1 -0.2,2.3 -4.5,-0.5 -6.4,1 -5.3,2 -7.5,10.6 -2,13.4 6.2,3.2 13.1,-4.3 10.3,-10.2 -1,-4.5 1.5,-0.4 0.9,2 0.6,4.2 5.7,6.3 9.2,4.3 1.4,0 3.7,-2.5 4,-4 1.2,-3.1 0,-5.5 -2.4,-7.7 -2.6,-2.5 -6.8,-1.3 -9.1,1 -3.6,-1.3 8,-7.3 8.7,-8.6 l -2.5,-2.3 c -2,1 -4,7.6 -6.7,8.3 z m -28.5,49.2 c -1.2,5.1 -1.4,-0.4 -1.2,-2.4 0,-5.4 -7.3,-8.5 -11,-4.3 -3.8,3.8 -3.9,12 2.2,13.6 2.8,0.9 5.3,-1 7.3,-2.6 2.7,1.6 -4,1.7 -4.5,4 -4.3,4.2 -1.4,13.5 5.2,12.6 6.7,-0.7 8.5,-10.6 3,-14 -1.5,-4.6 1.8,1.1 3,2.4 4.4,4.1 12,-0.9 11.1,-6.5 -0.5,-1 -1.5,-5.1 -4.1,-5.7 -3.9,-1.8 -8.3,1 -9.3,5 -3.8,0.5 3.8,-10.3 3.7,-11.8 l -3,-1 c -2,0.9 0,8.6 -2.4,10.7 z m -2.1,56.7 c 1.2,5.2 -1.4,0.8 -2,-1.2 -2,-4.3 -9.3,-5.5 -11.1,-0.4 a 8.4,8.4 0 0 0 3,11.6 c 3.1,3 8.3,-0.2 9,-4 3.6,-2.8 -0.7,2.3 -1.4,3.8 -2.8,5.7 4,13.8 9.9,10 5.8,-3.6 3,-13.6 -3.4,-14 -3.4,-3.5 2,0.4 3.6,0.7 3.6,0.7 7.7,-1.8 8,-5.4 1,-4.3 -2.4,-8.7 -6.8,-8.5 -4.5,0 -7.3,4.5 -6.4,8.5 -3,2.2 -1.3,-10.7 -2.1,-12 l -3.2,0.5 c -0.7,2.1 4,7.7 2.9,10.4"
           fill="#333333"
           stroke="#333333"
           stroke-width="1.8"
           id="path133" />
        <path
           d="m 2670.6,1530.7 h 314.9 v 20.2 h -314.9 z"
           fill="#3366aa"
           stroke="#333333"
           stroke-width="2"
           id="path134" />
        <path
           d="m 2691.9,1485.4 h 278.5 v 45.3 h -278.5 z"
           fill="#ee1111"
           stroke="#333333"
           stroke-width="2"
           id="path135" />
        <path
           d="m 2744.3,1457.6 h 184.5 v 27.8 h -184.5 z"
           fill="#eecc55"
           stroke="#333333"
           stroke-width="2"
           id="path136" />
        <path
           d="m 2858.5,1472.1 a 6.3,6.3 0 1 1 -12.6,0 6.3,6.3 0 0 1 12.6,0 z m 23.7,0 a 6.3,6.3 0 1 1 -12.6,0 6.3,6.3 0 0 1 12.6,0 z m 23.7,0 a 6.3,6.3 0 1 1 -12.6,0 6.3,6.3 0 0 1 12.6,0 z m -118.6,0 a 6.3,6.3 0 1 1 -12.6,0 6.3,6.3 0 0 1 12.6,0 z m 23.8,0 a 6.3,6.3 0 1 1 -12.6,0 6.3,6.3 0 0 1 12.6,0 z m 23.7,0 a 6.3,6.3 0 1 1 -12.6,0 6.3,6.3 0 0 1 12.6,0 z"
           fill="#ffffff"
           id="path137" />
        <path
           d="m 2964.2,1518.1 -26.5,-79.7 c -16.9,-51 -56,-139.7 -89.4,-183.1 h -91.7 c 0.4,13.3 0.3,55.6 -0.3,64 -4.2,67.1 -3.3,68.2 -2.7,78 a 100.9,100.9 0 0 0 30.9,68.8 c 9.2,9.4 31.5,15.1 46.6,2.3 18.5,-15.6 44.1,-22 62,-62 16.6,51.8 44.1,103.7 72,112"
           fill="#ffffff"
           id="path138" />
        <path
           d="m 2756.1,1318.7 c 0.2,-17.3 1.2,-21 0.2,-61.8 -69.6,241.9 -89.7,206.5 -90,298.2 l 107.8,-96.2 c -21,-32.6 -30.2,-50.4 -18,-140.2 z"
           fill="#333333"
           stroke="#333333"
           stroke-linecap="round"
           stroke-linejoin="round"
           stroke-width="2.8"
           id="path139" />
        <path
           d="m 2756.1,1318.7 c 0.2,-17.3 1.2,-21 0.2,-61.8 -69.6,241.9 -89.7,206.5 -90,298.2 l 52.4,-46.7 c 2.4,-68.4 25.2,-99.9 37.4,-189.7 z"
           fill="#ee1111"
           stroke="#333333"
           stroke-linecap="round"
           stroke-linejoin="round"
           stroke-width="4"
           id="path140" />
        <path
           transform="matrix(-0.9354,-0.8634,-0.9898,0.9136,3650.5,906.2)"
           d="m 221.6,681.8 a 4.85,4.85 0 1 1 -9.7,0 4.85,4.85 0 1 1 9.7,0 z"
           fill="none"
           stroke="#3366aa"
           stroke-width="2"
           id="path141" />
        <path
           d="m 2767.8,1344.2 c 1.9,2.4 1.2,-2 3.6,-3.7 2.4,-1.7 7,-0.2 5,-2.6 -1.9,-2.5 -5,-2.4 -7.4,-0.7 -2.4,1.7 -3.1,4.6 -1.2,7 z"
           fill="#3366aa"
           stroke="#3366aa"
           stroke-width="2.2"
           id="path142" />
        <path
           transform="matrix(-0.4658,-0.4299,-0.4952,0.4571,3211.6,1124.2)"
           d="m 221.6,681.8 a 4.85,4.85 0 1 1 -9.7,0 4.85,4.85 0 1 1 9.7,0 z"
           fill="#333333"
           id="path143" />
        <path
           transform="matrix(0.9354,-0.8634,0.9898,0.9136,1954.8,906.4)"
           d="m 221.6,681.8 a 4.85,4.85 0 1 1 -9.7,0 4.85,4.85 0 1 1 9.7,0 z"
           fill="none"
           stroke="#3366aa"
           stroke-width="2"
           id="path144" />
        <path
           d="m 2836.9,1338 c 2.6,2.4 -2.5,1 -5,3.3 -2.5,2.3 -1.4,7.5 -4,5 -2.6,-2.5 -2.1,-5.8 0.4,-8.1 2.5,-2.3 6,-2.6 8.6,-0.2 z"
           fill="#3366aa"
           stroke="#3366aa"
           stroke-width="2.6"
           id="path145" />
        <path
           transform="matrix(0.4658,-0.4299,0.4952,0.4571,2393.7,1124.5)"
           d="m 221.6,681.8 a 4.85,4.85 0 1 1 -9.7,0 4.85,4.85 0 1 1 9.7,0 z"
           fill="#333333"
           id="path146" />
        <path
           d="m 2795,1314.1 0.6,6 a 53.5,53.5 0 0 0 -37.6,-1 l -0.5,-1.3 c 12.9,-2.2 16.4,-6.8 37.5,-3.7 z m 22.2,0.2 -4.7,7 c 21.5,-10.2 34.9,4.1 55,-0.5 -25.6,-0.8 -24.4,-10.8 -50.3,-6.5 z m 0.2,20.3 c 8.2,-5.4 13.2,-7.8 22.2,-5.3 7,1.8 11.5,7.3 18.3,12 l 0.3,2.8 c -13.9,-4 -20.9,-9.6 -35.6,-7.4 z m -29.4,-0.2 c -8.3,-5.5 -12.6,-7.8 -21.6,-5.6 -3.3,0.8 -6.7,7.1 -9.4,8.8 l -0.8,3.1 c 8.2,-2.1 11.9,-6.4 26.5,-4.2 z"
           fill="#3366aa"
           stroke="#3366aa"
           stroke-miterlimit="1"
           stroke-width="2"
           id="path147" />
        <path
           d="m 2796.1,1430.7 c 1,0.5 3.8,0.7 4.6,-0.1 4.8,2.9 6,3.4 13.7,4 -9.2,3.1 -10,2.3 -14.5,2.4 a 56,56 0 0 1 -16.5,-2.7 c 6.2,-0.6 9.2,-1.7 12.7,-3.6 z"
           fill="#3366aa"
           stroke="#3366aa"
           stroke-linecap="round"
           stroke-linejoin="round"
           stroke-width="4"
           id="path148" />
        <path
           d="m 2814.4,1342.4 c 8.4,-2 12,-8.4 18.8,-7.9 7.3,0.6 12.5,6.5 22.3,8.8 -12.3,0.4 -17.5,8.2 -24,7 -6.6,-1 -8.7,-5 -17.1,-7.9 z m 12.7,13.5 c 9.8,1.5 18.6,-0.3 25,-6 m -95,-8 -0.2,3.2 c 10.4,4 11.5,6.4 18,5.3 6.5,-1.1 7.5,-5.4 16,-8.2 -8.5,-2 -12.3,-8 -19.1,-7.5 -7.3,0.6 -9.3,5.3 -14.6,7.2 z m 21,13.8 c -9.8,1.5 -14.6,-0.4 -22,-5 m 136.9,55.8 c -17.8,40 -43.5,46.3 -61.9,62 -15.1,12.7 -37.4,7 -46.6,-2.4 a 100.9,100.9 0 0 1 -31,-68.9 c -0.5,-9.7 -1.4,-10.8 2.8,-77.9 0.5,-8.4 0.7,-49.6 0.3,-63 m 57.2,146.4 c 8,5 0.5,14 -6.4,10.9 -4.2,-2 -2.4,-4.7 -8.2,-1.8 m -3.5,-87.2 c -5,71.5 -10.5,67.2 -12.5,77 -2,9.7 4.4,15.8 9.6,12.4 l 0.3,11.3 m -0.1,20.1 c 6.1,5.1 9.2,2.2 12.6,0 m -37.9,-189 a 17.4,17.4 0 0 1 -10.6,9 m 22.2,-9 c -4.2,11 -12.5,15.4 -21.4,19 m 32.7,-19 a 50.2,50.2 0 0 1 -33.3,29.9 m 43.4,-30 c -10.8,25.1 -20.4,32 -43.7,40.5 m 83.7,-40.4 a 27,27 0 0 0 14,10.4 m -24.5,-10.4 c 4.2,11 23.6,19 32.6,22.8 m -43.9,-22.8 c 7.6,16.1 33.4,28.7 50.8,34.9 m -61.7,-35 c 8.5,22.8 43,40.3 69.2,45.9 m 24.4,48.4 c 0,19 37,111.7 47,115.3 m -61.9,-144.8 c -7.5,22.5 26.8,152.4 74,183.7 m -82,-196.9 c -10.7,46.6 37.4,196 86.4,210.5 m -9.3,-30.3 c -20.5,-11.9 -65.2,-121.1 -62.5,-153"
           fill="none"
           stroke="#3366aa"
           stroke-linecap="round"
           stroke-linejoin="round"
           stroke-width="4"
           id="path149" />
        <path
           d="m 3014.8,1417.2 c -14.6,-2.9 -65.8,13.3 -73.8,19 -19.5,-50 -59.3,-136 -92.6,-179.5 h 123.4 c 3.5,54 11.7,106.5 43,160.5 z"
           fill="#eecc55"
           stroke="#333333"
           stroke-linejoin="round"
           stroke-width="4"
           id="path150" />
        <g
           id="g16907"
           transform="matrix(-0.2762,-0.5699,-0.6082,0.295,3001.9,1036)">
          <path
             d="m -302.1,258.3 c 0.8,-13.8 5.6,-20.1 11.3,-20.3 5.6,-0.2 14.5,4 14.3,20.8 15.9,-0.5 18,8.3 17.6,12.2 -0.6,4.4 -2,11.4 -20,9.9 1.8,21.2 -8,1 -12,0.8 -4,-0.2 -12.3,18.9 -11.2,0.3 -16,0 -19.4,-9.6 -19.4,-13.9 0,-4.6 4.6,-9.6 19.4,-9.8 z"
             fill="#333333"
             stroke="#ee1111"
             stroke-linejoin="round"
             stroke-width="2.9"
             id="path151" />
          <path
             transform="matrix(0.2638,0,0,0.2683,-230,197.8)"
             d="m -198.2,267.5 a 30.7,30.7 0 1 1 -61.4,0 30.7,30.7 0 1 1 61.4,0 z"
             fill="#333333"
             stroke="#ee1111"
             stroke-linejoin="round"
             stroke-width="10.4"
             id="path152" />
        </g>
        <path
           d="m 2877.7,1256.9 c 23.4,41 60.9,113.5 81.3,170.1 l 6.5,-2 c -1.3,-3.8 -1.8,-8 1.2,-11.7 -5,-0.8 -24.8,-23.5 -16.4,-37.9 -13.4,-8.2 -26.2,-29.4 -19.6,-43.4 -9.5,0.7 -28.4,-38.6 -22.3,-46.2 -10.8,-1.3 -25.4,-14.8 -20.5,-28.5 z"
           fill="#3366aa"
           id="path153" />
        <g
           transform="matrix(-0.1848,-0.4431,-0.4837,0.2058,3051.4,1225.2)"
           id="g155">
          <path
             d="m -302.1,258.3 c 0.8,-13.8 5.6,-20.1 11.3,-20.3 5.6,-0.2 14.5,4 14.3,20.8 15.9,-0.5 18,8.3 17.6,12.2 -0.6,4.4 -2,11.4 -20,9.9 1.8,21.2 -8,1 -12,0.8 -4,-0.2 -12.3,18.9 -11.2,0.3 -12,0.4 -11.4,-7.4 -12.8,-14.1 -0.9,-4.6 -2,-9.4 12.8,-9.6 z"
             fill="#333333"
             stroke="#ee1111"
             stroke-linejoin="round"
             stroke-width="3.8"
             id="path154" />
          <path
             transform="matrix(0.2638,0,0,0.2683,-230,197.8)"
             d="m -198.2,267.5 a 30.7,30.7 0 1 1 -61.4,0 30.7,30.7 0 1 1 61.4,0 z"
             fill="#333333"
             stroke="#ee1111"
             stroke-linejoin="round"
             stroke-width="13.6"
             id="path155" />
        </g>
        <path
           d="m 2893,1406.5 a 113.7,113.7 0 0 1 -46.6,53.3 h 67 a 424,424 0 0 1 -20.4,-53.3 z"
           fill="#3366aa"
           id="path156" />
        <path
           id="p36812"
           d="m 2752.3,1513.5 c 0.1,-0.9 -0.3,-3.9 0.9,-2.1 0.6,1.5 0.4,3.3 1.4,4.7 1.5,3 5.2,4.8 8.4,3.4 4.4,-1.7 6,-7.6 3.7,-11.6 -1.4,-3 -5.3,-4.8 -8.4,-3.4 a 8.2,8.2 0 0 0 -4,3.7 c -0.9,1 -2.2,0 -1,-1 1.1,-1 2.7,-1.3 3.7,-2.6 3.1,-3.7 2.3,-10.2 -2,-12.6 -3,-1.7 -7,-0.6 -8.8,2.2 -2.8,3.8 -1.7,10 2.6,12.2 1,0 3,2.3 1,2 -1.6,-1 -2.3,-3.2 -4.4,-3.8 -3,-1.5 -7,0.1 -8.5,3 -2.2,3.8 -1.2,9.4 2.8,11.5 a 6.6,6.6 0 0 0 8.3,-1.6 c 1.4,-1.6 2,-3.7 2,-5.7 0.3,-1.1 1.6,-1.2 1.2,0 0.2,4 0,7.9 -1.1,11.6 -0.6,0.7 -0.9,2 0.6,1.6 1.2,-0.3 4.1,0.8 3,-1.3 a 23.2,23.2 0 0 1 -1.4,-8.2 z"
           fill="#333333"
           stroke="#333333"
           stroke-width="1.8" />
        <path
           d="m 3049.9,1540.1 -74.8,10.7 h -304 l -4.7,4.2 -183.4,182.8"
           fill="none"
           stroke="#333333"
           stroke-width="2"
           id="path157" />
        <path
           d="m 2960.1,1429.6 c 30.9,56 74.2,106.8 85,106.4 l 4.7,31.9 c -34.6,-3.2 -62.8,-4.3 -78.5,-0.9 l -33.6,-128.6 c -13.5,-51.8 -56.1,-138.6 -89.4,-182 h 29.2 c 34,53 64,123.2 82.6,173.2 z"
           fill="#333333"
           id="path158" />
        <path
           d="m 2632,1593.7 -149.1,148 v 57.7 l 178,-176.6 c -7.5,-10 -15.1,-20.1 -28.9,-29.1 z"
           fill="#ffffff"
           id="path159" />
        <g
           transform="translate(2394.4,1193.7)"
           id="g163">
          <path
             d="m 406.7,455.8 c -6,10.5 -18.3,3.1 -10.8,-6.7 3.7,-4.9 3.6,0.3 5.2,3 1.9,3.2 6.8,-6.7 8.6,-15.5 1.6,6.3 0.9,12.5 -3,19.2 z M 400,444.6 c 8,4 6.4,-4.6 4.9,-11.3 -3,-12.8 16.5,-31 25.2,-31.4 -10.3,-3.6 -8.5,-4.5 -14.1,-5 -2.8,-0.1 -2.2,-1.8 -4.9,-0.8 0.8,1.3 5.2,6.1 7.8,5.4 -14.2,10.4 -38,26.6 -19,43.1 z m 41.2,-38.1 c 4.8,4.4 -1.8,10 -6.2,4.8 -2.1,-2.6 0.5,-2.4 2.1,-3 1.9,-0.8 -2.7,-4 -7.1,-6 3.5,-0.2 8,1.4 11.1,4.2 z M 412.9,424 c -2.6,6 6.3,12 11.8,1.4 1.9,-3.6 -0.1,-5.1 -3.3,-5.2 -3.5,-0.2 7,-9.6 10,-19 A 68.4,68.4 0 0 0 412.9,424 Z m 10.3,-58.4 c -3.3,0.1 -5.6,5 -1.8,9 2.7,2.7 2.4,0.7 3.2,-1.1 0.8,-1.6 4.8,3.9 7.5,9 -0.4,7 0,15.6 2,19 -0.5,-7.7 2.9,-23.7 5.2,-21.6 2,2 3.5,6.8 5.4,2 4.1,-9.8 -7.5,-18.2 -10.2,-8.2 -0.3,1.2 -2,3.3 -2.1,5 a 46.1,46.1 0 0 0 -5.2,-10.8 c -1.3,-1.7 -2.7,-2.4 -4,-2.3 z m 40.4,18 c -11.3,4.2 14.7,-23.8 1.3,-24 -8.5,-0.1 -7.3,9.6 -5.5,14 2.5,6 -21.7,24.5 -30.3,26.4 11.5,0 22.7,1.2 29.6,-2 3.2,-2.4 0,-6 -4.7,-4.1 2,-1.1 11.3,-11 9.6,-10.3 z m 15.7,-16.9 c 7.2,-4.9 11.9,5.7 3.9,9.7 -4,2 -2.9,-0.1 -3.1,-2.5 -0.3,-2.7 -11.3,5.7 -15.2,11 0.9,-4.8 9.8,-15 14.4,-18.2 z M 381,492.2 c 4,10 2.6,-4 9.4,5 -2.9,-15.2 1.9,-23.6 14.4,-35.4 -10.3,5.2 -23,11.3 -25.6,15.3 -2.6,4.1 2.5,5.4 6,1.6 -1.4,2 -5.4,15 -4.2,13.5 z m 4.2,3.7 c -1.4,1 -1.8,3 -0.8,4.5 1,1.6 2.9,2 4.3,1.1 1.4,-0.9 1.8,-3 0.8,-4.5 -1,-1.5 -3,-2 -4.3,-1.1 z m 14.1,-121 c -2,0.7 -3.2,2.8 -1.7,5.7 l 1.2,2.1 c -9.4,-1.8 -13,9.3 -1.8,12.3 2.6,-1.7 0.7,-2.9 1.1,-5.6 0.6,-3.5 6.8,1.3 19,6.3 -2,-6.2 -11.3,-7.3 -15.2,-15.2 1.8,0 4.2,1 3,-2 -1,-3.3 -3.6,-4.2 -5.6,-3.6 z"
             fill="#ffffff"
             id="path160" />
          <g
             transform="matrix(-0.2846,-0.2931,-0.2931,0.2846,991.5,80.6)"
             id="g162">
            <path
               d="m 395.7,1515.8 c -11,-1.4 -16.4,1.4 -17,5.8 -0.7,4.4 1.8,12.1 15,14.5 -1.8,12.4 5,15.5 8,15.7 3.6,0.3 9.3,0.3 9.7,-14.3 16.7,4.8 16.4,-3.3 16.7,-6.3 0.3,-3 1.1,-9.7 -13.6,-11.7 1.5,-12.7 -5.8,-16.8 -9.2,-17.5 -3.6,-0.7 -8,2.1 -9.6,13.8 z"
               fill="#ffffff"
               stroke="#333333"
               stroke-linecap="round"
               stroke-linejoin="round"
               stroke-width="3.7"
               id="path161" />
            <path
               transform="matrix(-0.2026,0.169,0.1719,0.206,311.4,1510)"
               d="m -198.2,267.5 a 30.7,30.7 0 1 1 -61.4,0 30.7,30.7 0 1 1 61.4,0 z"
               fill="#ffffff"
               stroke="#333333"
               stroke-linecap="round"
               stroke-linejoin="round"
               stroke-width="21.2"
               id="path162" />
          </g>
        </g>
        <path
           d="m 2919.6,1761.9 c -70,-90.5 37.7,-191.3 121.9,-119.6 z"
           fill="#eecc55"
           id="path163" />
        <path
           d="m 2907.1,1699.8 68.8,0.4 m -47.2,-51.6 48.3,49 m 3.2,-70 -0.4,68.8 m -70.1,-15.4 66.3,18.2 m -59,-35.7 59.4,34.8 m -32.6,-61.2 34,59.8 m -16.4,-66.9 17.3,66.5 m 20.3,-66.3 -18.3,66.3 m 35.7,-59 -34.7,59.4 m -72.2,21.7 66.5,-17.4 m -59.4,35 59.8,-34 m 55,-53 -49,48.3 m -54.3,53.8 48.9,-48.3"
           fill="#eecc55"
           stroke="#333333"
           stroke-linejoin="round"
           stroke-width="5.9"
           id="path164" />
        <path
           d="m 2926.7,1751.6 c -60,-77.5 32.3,-163.7 104.3,-102.4"
           fill="none"
           stroke="#333333"
           stroke-linecap="square"
           stroke-linejoin="round"
           stroke-width="5.6"
           id="path165" />
        <path
           d="m 2539.4,1466.8 c -2.1,11.8 -8.3,13.8 -8.1,19.5 0.2,6 5,6.7 7.4,20 -5.8,-5.2 -5,-12.3 -12.5,-16 -11.3,-2.9 -19.6,6.8 -26,19.5 10.5,-6.4 26.5,-11.9 36.5,-1.3 l -0.2,1 a 2.8,2.8 0 0 0 2.9,2.8 2.8,2.8 0 0 0 2.8,-2.8 v -0.3 c 20.3,-6.7 15.5,-11.3 37.2,-0.2 -6.4,-12.7 -14.7,-22.3 -26,-19.5 -9.2,2.3 -4.8,10.7 -13.4,17 2.7,-14.6 8.9,-14.5 7.3,-24.6 -0.5,-3.4 -3.3,-6.2 -7.9,-15.1 z"
           fill="#ffffff"
           stroke="#333333"
           stroke-linejoin="round"
           stroke-width="4"
           id="path166" />
        <path
           d="m 2539,1510.2 c 9.6,28.9 -20.9,67 -15.7,95.1"
           fill="none"
           stroke="#333333"
           stroke-linecap="round"
           stroke-linejoin="round"
           stroke-width="5.3"
           id="path167" />
        <path
           d="m 2525.1,1572.5 c -6.2,-18.2 -0.2,-22 -18.5,-38.3 3.7,22.6 3.5,33 18.5,38.3 z m 0,21.1 c 11.7,-29.2 23,-28.1 38.8,-33.4 a 70.7,70.7 0 0 1 -38.8,33.4 z"
           fill="#eecc55"
           stroke="#333333"
           stroke-linejoin="round"
           stroke-width="4"
           id="path168" />
        <path
           d="m 2537.5,1603.6 c 0,0.2 -0.4,1.7 -2.5,4.6 -2.8,3.7 -11.3,1.6 -1.2,13.5 l -22.2,40.3 c 8.3,3 19.4,12.2 30.5,17 l 30.4,-30.4 c -12.7,-10.2 -34.9,-44.5 -35,-45 z"
           fill="#ffffff"
           stroke="#333333"
           stroke-linejoin="round"
           stroke-width="4"
           id="path169" />
        <path
           d="m 2515.7,1628.6 c -2.3,2.6 -1.8,6.7 1,9.2 11.1,9.6 6.3,3.2 9.3,0.2 3.3,-3.3 8.3,-3 -1.1,-9.7 -3,-2.1 -7,-2.3 -9.2,0.3 z m -5.6,13 c -2,2.9 -1.2,7 1.8,9 11.8,8.5 6.5,2.7 9.2,-0.7 3,-3.6 8,-3.8 -2,-9.4 -3.2,-1.8 -7,-1.6 -9,1.2 z m 13.7,-24.6 a 6.3,6.3 0 0 0 0.4,9 c 10.2,9.5 6,3.3 9,0.3 3.4,-3.2 8.3,-2.8 -0.4,-9.4 -2.9,-2.2 -6.6,-2.4 -9,0.1 z m -17.7,37.3 a 5.3,5.3 0 0 0 1.1,7.4 c 9.3,6.7 5.2,2 7.6,-1 2.5,-3 6.5,-3.4 -1.3,-7.8 a 5.6,5.6 0 0 0 -7.4,1.4 z"
           fill="#ffffff"
           stroke="#333333"
           stroke-linecap="round"
           stroke-linejoin="round"
           stroke-width="4"
           id="path170" />
        <path
           d="m 2501.6,1616.3 c -2.3,2.6 -1.1,7.3 2.6,10.5 14.6,12.7 7.9,4.7 11,1.7 3.3,-3.2 9.3,-2.1 -2.8,-11.1 -4,-3 -8.5,-3.7 -10.8,-1.1 z m -6.5,14.6 c -2,2.8 -0.5,7.3 3.4,10.2 15.5,11 8.3,3.8 11,0.5 3,-3.5 9,-3 -3.7,-10.7 -4.1,-2.5 -8.7,-2.8 -10.7,0 z m 15.8,-26 c -2.3,2.5 -1.5,7 1.9,10.3 13.3,12.5 7.3,4.6 10.6,1.7 3.4,-3 9.1,-2 -2,-10.8 -3.7,-3 -8.1,-3.8 -10.5,-1.2 z m -16.6,41 c -1.7,2.3 -0.6,6.1 2.5,8.3 12.1,8.7 6.5,3 9,0 2.5,-3 7.3,-2.8 -2.7,-8.8 -3.3,-2 -7,-2 -8.7,0.4 z m 32.1,-8.5 a 6.1,6.1 0 0 0 0.4,8.6 6.1,6.1 0 0 0 8.6,-0.8 6.1,6.1 0 0 0 -0.4,-8.6 6.1,6.1 0 0 0 -8.6,0.8 z m -5,12 a 6.1,6.1 0 0 0 1.2,8.5 c 2.6,1.9 6.4,1.1 8.4,-1.7 2,-2.8 1.5,-6.6 -1.1,-8.5 -2.6,-1.9 -6.5,-1.2 -8.5,1.6 z m 12.3,-23.6 c -2.4,2.5 -2.5,6.3 -0.2,8.4 2.3,2.2 6,1.9 8.4,-0.6 2.4,-2.5 2.4,-6.3 0.2,-8.5 -2.3,-2.1 -6,-1.8 -8.4,0.7 z m -18.6,34.5 c -1.8,2.4 -1.5,5.6 0.6,7 2,1.6 5.2,0.8 6.9,-1.6 1.7,-2.4 1.5,-5.6 -0.6,-7.1 -2.1,-1.5 -5.2,-0.7 -7,1.7 z m 20.4,-52.4 c 2.1,-3.2 1.8,-7.4 -0.7,-9.4 -2.4,-2 -6,-1 -8.2,2.3 -2,3.2 -1.7,7.4 0.7,9.3 2.5,2 6.2,1 8.2,-2.2 z"
           fill="#ffffff"
           stroke="#333333"
           stroke-linejoin="round"
           stroke-width="4"
           id="path171" />
        <use
           id="u5251"
           transform="translate(43)"
           width="744.09998"
           height="1052.4"
           xlink:href="#p36812" />
        <use
           id="u5253"
           transform="translate(43)"
           width="744.09998"
           height="1052.4"
           xlink:href="#u5251" />
        <use
           id="u5255"
           transform="translate(43)"
           width="744.09998"
           height="1052.4"
           xlink:href="#u5253" />
        <use
           transform="translate(43)"
           width="744.09998"
           height="1052.4"
           xlink:href="#u5255"
           id="use171" />
        <use
           transform="matrix(0.8871,0,0,0.8871,351.3,190.7)"
           width="744.09998"
           height="1052.4"
           xlink:href="#g16907"
           id="use172" />
        <use
           transform="matrix(0.8469,0,0,0.8048,487.8,339.6)"
           width="744.09998"
           height="1052.4"
           xlink:href="#g16907"
           id="use173" />
        <g
           id="g178">
          <g
             id="g5447"
             transform="matrix(0.05310372,0.05310372,-0.05310372,0.05310372,2483.1719,1516.0928)">
            <path
               transform="matrix(0.9405,0,0,0.9405,469.7,-96.4)"
               d="m 2093.2,-377.1 a 42.85,42.85 0 1 1 -85.7,0 42.85,42.85 0 1 1 85.7,0 z"
               fill="#333333"
               id="path173" />
            <g
               id="g175">
              <path
                 transform="matrix(0.9405,0,0,0.9405,544.7,-22)"
                 d="m 2093.2,-377.1 a 42.85,42.85 0 1 1 -85.7,0 42.85,42.85 0 1 1 85.7,0 z"
                 fill="#333333"
                 id="path174" />
              <path
                 transform="matrix(0.9405,0,0,0.9405,394.8,-23)"
                 d="m 2093.2,-377.1 a 42.85,42.85 0 1 1 -85.7,0 42.85,42.85 0 1 1 85.7,0 z"
                 stroke="#333333"
                 id="path175" />
            </g>
            <path
               d="m 2398.1,-40.6 -46.9,-74.5 -56,56.1 c 51.2,-107.7 82.2,-217.5 89.7,-332.4 h 26.4 c 7.5,114.9 38.5,224.7 89.8,332.4 l -56.1,-56 z"
               stroke="#333333"
               id="path176" />
          </g>
          <use
             transform="translate(-37,37.2)"
             width="744.09998"
             height="1052.4"
             xlink:href="#g5447"
             id="use176" />
          <use
             transform="translate(-74,74.4)"
             width="744.09998"
             height="1052.4"
             xlink:href="#g5447"
             id="use177" />
          <use
             transform="translate(-111,111.7)"
             width="744.09998"
             height="1052.4"
             xlink:href="#g5447"
             id="use178" />
        </g>
      </g>
      <use
         transform="rotate(180,2766.4,1719.9)"
         width="744.09998"
         height="1052.4"
         xlink:href="#g5781"
         id="use179" />
    </g>
    <use
       transform="translate(202.7)"
       xlink:href="#frame"
       id="use180" />
    <use
       transform="translate(202.7)"
       xlink:href="#u7712"
       id="use181" />
    <use
       transform="translate(202.7)"
       xlink:href="#u7969"
       id="use182" />
    <use
       transform="translate(2025,99.999994)"
       style="stroke:#333333"
       xlink:href="#Q"
       id="use183" />
    <use
       transform="rotate(180,1316.2,107.5)"
       style="stroke:#333333"
       xlink:href="#Q"
       id="use184" />
  </g>
  <g
     id="diamond_1"
     transform="translate(-2025)">
    <use
       id="u41521"
       transform="rotate(180,101.3,472.6)"
       xlink:href="#diamS" />
    <path
       id="diam"
       d="m 123.5,472.5 a 112.97,112.97 0 0 0 -22,26 97.4,97.4 0 0 0 -22.6,-26 c 11,-10.3 15.8,-14.6 22.6,-26 a 112.57,112.57 0 0 0 22,26 z"
       fill="#ee1111" />
    <use
       id="diamS"
       transform="matrix(0.4423,0,0,0.4423,-27.7,164.5)"
       xlink:href="#diam" />
  </g>
  <g
     id="diamond_2"
     transform="translate(-2025)">
    <use
       id="u41525"
       transform="translate(202.5)"
       xlink:href="#diamS" />
    <use
       id="u41527"
       transform="translate(202.5)"
       xlink:href="#u41521" />
  </g>
  <g
     id="diamond_3"
     transform="translate(-2025)">
    <use
       id="u41541"
       transform="translate(405)"
       xlink:href="#diamS" />
    <use
       id="u41543"
       transform="translate(405)"
       xlink:href="#u41521" />
  </g>
  <g
     id="diamond_4"
     transform="translate(-2025)">
    <use
       id="u41545"
       transform="translate(405)"
       xlink:href="#u41525" />
    <use
       id="u41547"
       transform="translate(405)"
       xlink:href="#u41527" />
  </g>
  <g
     id="diamond_jack"
     transform="translate(-2025)">
    <use
       transform="rotate(180,1113.75,315)"
       xlink:href="#card"
       id="use810" />
    <g
       transform="matrix(0.2407,0,0,0.2666,1847,-99.1)"
       id="g855">
      <path
         d="m 1442.9,2183.6 v -112.2 l -120.8,-168.6 h -239 l -207,202.3 v 112.2 l 120.8,168.5 h 239 z"
         fill="#333333"
         id="path810" />
      <path
         d="m 1187.1,2144.3 c -19.3,-44.5 -7.6,-101.4 37.1,-207.2 H 1089 c -51.9,122.9 27.4,171 43,207.2 19.4,44.5 7.7,101.4 -37,207.2 h 135 c 52,-122.9 -27.3,-171 -43,-207.2 z"
         fill="#3366aa"
         stroke="#ffffff"
         stroke-width="10"
         id="path811" />
      <g
         id="g8618"
         transform="matrix(1,0,0,1.0014,787.5,-774.6)">
        <path
           d="m 375.8,2891.8 a 34,34 0 0 0 -4.8,20.3 c -7,-6.4 -9.2,-7.5 -18.3,-10 a 33.2,33.2 0 0 0 4.8,-20.2 c 7,6.2 9.3,7.4 18.3,9.9 m -11.7,-40.7 c -6.4,9.4 -7.8,12 -8.4,23.3 a 49.2,49.2 0 0 0 -20.9,-14.7 54.6,54.6 0 0 0 10,-23.7 c 6.3,9.4 8.9,10.7 19.3,15.1 m -3.7,-44.5 c -10,8.3 -12.4,10.5 -16.2,22.9 a 62.7,62.7 0 0 0 -18.6,-22.7 56,56 0 0 0 18,-22.8 c 4.4,12.1 6.7,14.5 16.8,22.6 m 12.7,-55 c -15.2,7.2 -18.9,9.5 -28.3,23.5 a 71.5,71.5 0 0 0 -15.6,-34.4 71,71 0 0 0 30,-23 c 1.8,16.7 3.8,20.5 13.9,34"
           fill="#ee1111"
           id="path812" />
        <path
           d="m 542.4,2684.5 c -18.9,26.3 -53,93.9 -23.3,173 21.8,53.1 69.8,92 124,108.5 l 12.3,-12 v -61.3 c -64.1,-22.1 -92.8,-78.2 -68,-145.5 z"
           fill="#ee1111"
           id="path813" />
        <path
           d="m 551.8,2697.6 c -63.6,107.2 -6.2,222.8 103.6,255 v -51.4 C 603.2,2882 547.6,2827 583.2,2741.2 Z"
           fill="#333333"
           stroke="#3366aa"
           stroke-linejoin="round"
           stroke-width="5.3"
           id="path814" />
        <path
           d="m 567.2,2832.1 c 1.8,10.6 -12.6,13.4 -12.5,2.3 0.1,-5.4 3,-1.9 6,-1.2 3.3,0.9 1.2,-8 -2.5,-15 5,3.3 8,7.2 9,13.9 v 0 m -11.9,-3 c 8.7,-2 2.2,-6.8 -2.9,-10.4 -9.9,-7.1 -6.8,-28.8 -0.6,-34.4 -10.4,4.1 -18,-0.8 -13.8,5.1 -7,3.4 2.3,5.4 5.2,1.3 -3.6,15.4 -12.7,38.4 12.1,38.3 v 0 m 7.6,-48.2 c 6.4,-0.1 5.3,7 -1.3,6.4 -3.3,-0.3 -1.3,-1.6 -0.5,-3 0.9,-1.6 -4.6,-1 -9.1,0.5 2.4,-2.3 6.7,-3.8 10.9,-3.9 v 0 m -10,27.4 c 1.7,5.4 12.3,4.5 10,-5.9 -0.8,-3.4 -3.3,-3.3 -5.8,-1.5 -2.8,2 -0.8,-9.8 -5,-17.7 a 57.2,57.2 0 0 0 0.8,25.1 v 0 m -14.3,-39.6 c -3,-7.3 8.4,-9.3 10.2,-1.4 0.8,3.9 -1,2.3 -3.2,2 -2.6,-0.4 2.3,10.5 6,15.3 -4.1,-2 -11,-11.2 -13,-15.9 v 0 m 24,-16.4 c -4.4,10 -8.1,-24.5 -16.6,-15.5 -5.4,5.7 2.3,10.4 6.6,12 5.8,2.2 2.2,28.6 -2.8,35 8.5,-7 16.8,-12.5 19.6,-18.7 0.7,-3.6 -4,-4.3 -6,-0.2 0.6,-2 -0.1,-14.1 -0.8,-12.6 v 0 m -2,-21 c 1,-7.8 11.8,-4.4 9.6,3.3 -1.1,3.8 -2,2.3 -3.8,1 -2.1,-1.6 -3.2,11 -2.1,16.8 a 43.4,43.4 0 0 1 -3.8,-21.1 v 0 m 74.6,187.9 c 3.9,-8 -3.8,-6 -9.9,-4.2 -11.7,3.2 -26.7,-12.9 -27.1,-21.2 -3.3,10.7 -12,13.5 -4.7,14 -1.8,7.6 5.6,1.5 4.3,-3.3 9.6,12.5 21.8,34 37.4,14.7 v 0 m -32.8,-36.2 c 4,-5.1 8.9,0.3 4.2,5 -2.3,2.3 -2,0 -2.6,-1.5 -0.7,-1.7 -3.7,3 -5.4,7.4 -0.2,-3.3 1.3,-7.6 3.8,-10.9 v 0 m 15.1,25 c 5.3,2 11.3,-6.8 1.7,-11.5 -3.2,-1.5 -4.7,0.5 -4.8,3.6 -0.3,3.4 -8.2,-5.6 -16.8,-7.3 a 57,57 0 0 0 20,15.2 v 0 m -39.8,-13.8 c -7.7,-2.3 -2,-12.4 5.2,-8.8 3.5,1.8 1.3,2.1 -0.5,3.7 -2,1.8 9.7,4.8 15.7,5 a 42.3,42.3 0 0 1 -20.4,0 v 0 m 2.2,-28.9 c 5,9.6 -24,-9.1 -22.5,3.1 1,7.8 9.6,4.9 13.6,2.5 5.3,-3.2 23.5,16.3 25.3,24.2 0,-11 1,-21 -2.1,-27 -2.4,-2.8 -5.9,0.4 -4,4.6 -1.1,-1.8 -11,-8.9 -10.3,-7.4 v 0 m -17.6,-11.6 c -5.4,-5.7 4,-12 8.7,-5.4 2.2,3.2 0.5,2.9 -1.7,3.5 -2.5,0.7 6.6,9.4 11.8,12.3 a 43.4,43.4 0 0 1 -18.8,-10.4 v 0"
           fill="#eecc55"
           stroke="#333333"
           stroke-linecap="round"
           stroke-linejoin="round"
           id="path815" />
        <g
           transform="matrix(-0.88620358,0.46329604,0.46329604,0.88620358,869.06194,2124.1864)"
           id="g817">
          <path
             d="m 586.7,434 c -2.5,-0.8 -4,-0.4 -4.5,0.6 -0.4,1 -0.5,2.8 2.5,4 -1.5,2.7 -0.2,3.6 0.5,3.9 0.8,0.3 2.2,0.6 3.5,-2.6 3.5,2 4,0.2 4.4,-0.5 0.3,-0.6 1,-2.3 -2.3,-3.5 1.3,-2.8 -0.1,-4.3 -0.9,-4.6 -0.8,-0.3 -2,0.1 -3.2,2.7 v 0"
             fill="#eecc55"
             stroke="#333333"
             stroke-linecap="round"
             stroke-linejoin="round"
             id="path816" />
          <path
             d="m 585.9,437.8 c 0.3,0.6 0.8,1 1.6,1 0.7,0 1.4,-0.2 1.8,-0.8 0.5,-0.6 0.6,-1.3 0.3,-2 a 1.8,1.8 0 0 0 -1.6,-1 c -0.7,0 -1.4,0.3 -1.8,0.9 a 1.9,1.9 0 0 0 -0.3,1.9"
             id="path817" />
        </g>
        <g
           transform="matrix(-0.19765734,0.98027117,0.98027117,0.19765734,284.07467,2231.4714)"
           id="g819">
          <path
             d="m 586.7,434 c -2.5,-0.8 -4,-0.4 -4.5,0.6 -0.4,1 -0.5,2.8 2.5,4 -1.5,2.7 -0.2,3.6 0.5,3.9 0.8,0.3 2.2,0.6 3.5,-2.6 3.5,2 4,0.2 4.4,-0.5 0.3,-0.6 1,-2.3 -2.3,-3.5 1.3,-2.8 -0.1,-4.3 -0.9,-4.6 -0.8,-0.3 -2,0.1 -3.2,2.7 v 0"
             fill="#eecc55"
             stroke="#333333"
             stroke-linecap="round"
             stroke-linejoin="round"
             id="path818" />
          <path
             d="m 585.9,437.8 c 0.3,0.6 0.8,1 1.6,1 0.7,0 1.4,-0.2 1.8,-0.8 0.5,-0.6 0.6,-1.3 0.3,-2 a 1.8,1.8 0 0 0 -1.6,-1 c -0.7,0 -1.4,0.3 -1.8,0.9 a 1.9,1.9 0 0 0 -0.3,1.9"
             id="path819" />
        </g>
        <path
           d="m 88.7,2875.6 207,-202 m 239,0 120.7,168.4"
           fill="#eecc55"
           stroke="#333333"
           stroke-linecap="round"
           stroke-linejoin="round"
           stroke-width="5.3"
           id="path820" />
        <path
           d="m 589.6,2782.5 c 0,-38 24.5,-33.3 34,-31 v 62 c -9.3,-2 -34,7 -34,-31 z"
           fill="#ffffff"
           stroke="#333333"
           stroke-linecap="round"
           stroke-linejoin="round"
           stroke-width="3.2"
           id="path821" />
        <path
           d="m 289,2686.9 -136.8,133.3 a 446.7,446.7 0 0 1 38,24.6 l 97.9,-95.4 a 234.1,234.1 0 0 1 13.4,-41.4 h 8.5 z"
           fill="#3366aa"
           stroke="#ffffff"
           stroke-linejoin="round"
           stroke-width="5.3"
           id="path822" />
        <path
           d="m 182.2,2804.5 7,3.5 c 6.7,-2.6 9,5 7,11 -5.8,1.8 -13.4,-0.7 -10.7,-7.4 z m 25.9,-25.3 7,3.5 c 6.7,-2.5 9,5.1 7.1,11 -6,1.8 -13.5,-0.7 -10.8,-7.4 z m 26,-25.2 7,3.5 c 6.6,-2.6 9,5 7,11 -6,1.8 -13.5,-0.8 -10.8,-7.4 z m 25.8,-25.3 7,3.5 c 6.7,-2.5 9,5.1 7.1,11 -6,1.8 -13.5,-0.7 -10.8,-7.4 z m 23.3,-20 -13.2,4.5 -4.9,13 c 14.2,-5.3 19,10.8 15,23.2 -12.5,3.8 -28.5,-1.5 -22.8,-15.5 l -13.2,4.6 -5,13 c 14.3,-5.4 19.2,10.8 15,23.1 -12.4,3.9 -28.4,-1.5 -22.7,-15.5 l -13.2,4.6 -5,13 c 14.3,-5.3 19.2,10.8 15,23.2 -12.4,3.8 -28.4,-1.5 -22.7,-15.5 l -13.2,4.6 -5,13 c 14.3,-5.4 19.2,10.8 15,23.1 -12.5,3.9 -28.5,-1.5 -22.7,-15.5 l -13.2,4.6 -5,13"
           fill="none"
           stroke="#ffffff"
           stroke-linecap="round"
           stroke-linejoin="round"
           stroke-width="2.4"
           id="path823" />
        <path
           d="m 476.5,2691.7 c -27.7,78.8 -29.4,145.5 -3.4,200.9 23.4,49.8 65.3,86.1 121.8,118.2 l 45,-43.8 c -58.8,-31 -94.8,-62.3 -112.5,-100 -17.9,-38 -18.9,-85.5 5.7,-155.4 z"
           fill="#eecc55"
           id="path824" />
        <path
           d="m 605,2988.5 7.7,-14.8 c 2,-3.9 6.9,-5.4 11.2,-3.2 m -22.7,0.3 -8.1,14.5 c -2.1,3.8 0,9.1 4.3,11.3 4.3,2.2 9.7,1 11.6,-3 l 7.4,-14.9 m -32.4,-1.7 8.6,-14.3 c 2.3,-3.7 7,-5 11.1,-2.6 4.1,2.4 5.8,7.1 3.7,11 l -7.8,14.6 m -18.3,-26.6 -9,14 c -2.5,3.6 -0.6,9 3.6,11.5 4.1,2.5 9.5,1.5 11.7,-2.2 L 596,2968 m -51.5,-18.7 10.8,-12.8 a 8,8 0 0 1 11.3,-1 c 3.8,3 4.6,8 2,11.4 l -10,13.4 m 5.1,3.6 9.7,-13.5 a 8,8 0 0 1 11.2,-2 c 4,2.7 5.3,7.6 3,11.3 l -9,14 m -16.1,-27.8 -10.2,13.2 c -2.7,3.4 -1.2,9 2.8,11.8 3.9,2.8 9.4,2.3 11.9,-1.3 l 9.4,-13.8 m -31.5,-24.7 -11.4,12.3 c -2.9,3.2 -1.9,9 1.8,12 3.7,3.2 9.3,3.2 12,-0.2 l 10.5,-13 m -31,-9.4 11.8,-11.7 c 3.1,-3 8.1,-3 11.6,0.4 3.4,3.3 3.5,8 0.6,11.2 l -11,12.5 m -10.8,-30.4 -12.7,10.8 c -3.3,2.8 -2.9,8.7 0.4,12.2 3.3,3.5 9.2,4.3 12.2,1.2 l 11.6,-12 m -43.4,-33 14.5,-8.2 c 3.8,-2.2 8.3,-1.3 11,2.7 2.7,4 1.4,8.5 -2,11 l -13.6,9.8 m 3.8,5 13.2,-10 c 3.5,-2.7 8,-2.4 11.2,1.3 a 8,8 0 0 1 -0.6,11.3 l -12.1,11.4 m -7.4,-31.6 -13.8,9.4 c -3.6,2.5 -3.8,8.5 -0.9,12.4 3,3.8 8.4,5 11.8,2.3 l 13,-10.5 m -21.4,-33.2 -15,7.4 c -3.8,2 -4.9,8 -2.5,12.2 2.4,4.2 7.7,6 11.4,3.8 l 14.3,-8.6 m -25.7,-20 15.5,-6 c 4,-1.6 8.4,-0.2 10.5,4.2 2.1,4.4 0.3,8.6 -3.5,10.6 l -14.7,7.8 m 1.2,-32.3 -15.8,5.2 c -4.1,1.4 -6,7.2 -4.2,11.7 1.8,4.5 6.7,7.1 10.7,5.4 l 15.4,-6.5 m -26.9,-47.5 16.6,-1.7 a 7.9,7.9 0 0 1 8.9,7 c 0.7,4.8 -2,8.4 -6.3,9.3 l -16.3,3.4 m 1.4,6.1 16.2,-3.8 a 7.9,7.9 0 0 1 9.7,5.6 7.8,7.8 0 0 1 -5,10 l -15.6,5.7 m 5.8,-31.9 -16.4,3 c -4.3,0.8 -7,6.2 -5.8,11 1.1,4.6 5.7,8 9.9,6.8 l 16,-4.3 m -6.1,-39 -16.7,0.8 c -4.3,0.2 -7.7,5.2 -7.2,10 0.5,4.8 4.6,9 8.9,8.4 l 16.5,-2.5 m -15.6,-28.2 h 16.7 c 4.3,0 7.8,3.6 8,8.4 0.2,4.8 -3.2,8.1 -7.5,8.4 l -16.6,1.2 m 13.8,-29.2 -16.7,-1.3 c -4.3,-0.3 -8.2,4.2 -8.3,9 -0.1,4.8 3.5,9.5 7.8,9.5 l 16.7,-0.4 m -8.3,-53.8 16.3,3.4 c 4.3,0.8 7,5 6.1,9.8 -0.9,4.8 -4.8,7.4 -9,6.8 l -16.6,-2.4 m -0.8,6.2 16.6,2 c 4.3,0.5 7.3,4 7,8.8 -0.3,4.8 -4.1,8.2 -8.4,8 l -16.7,-1 m 17,-27.5 -16.5,-2.7 c -4.3,-0.7 -8.5,3 -9.2,7.7 -0.7,4.7 2.4,9.8 6.8,10.2 l 16.5,1.7 m 7.1,-39.3 -16,-4.3 c -4.3,-1.1 -8.8,2.4 -9.9,7 -1.1,4.6 1.5,10 5.8,10.8 l 16.4,3 m 21.4,-38 c -1.6,4.5 -6,6.9 -10.1,5.5 l -15.9,-5.1 m -1.8,6 15.9,4.8 a 8,8 0 0 1 5.3,10.1 c -1.2,4.7 -5.5,7.3 -9.7,6.3 l -16.2,-4 m 21.4,-24.2 -15.8,-5.6 c -4,-1.4 -8.9,1.8 -10.3,6.4 -1.4,4.6 0.9,9.6 5,10.8 l 16,4.6"
           fill="none"
           stroke="#333333"
           stroke-linecap="round"
           stroke-linejoin="round"
           stroke-width="4.3"
           id="path825" />
        <path
           d="m 287,2682.2 -31.4,30.6 h 307.2 l -22,-30.6 z"
           fill="#eecc55"
           stroke="#333333"
           stroke-width="3.2"
           id="path826" />
        <path
           d="m 279.1,2689.8 c 5.2,0.1 10.4,15.3 15.6,15.3 5.2,0 10.4,-15.3 15.6,-15.3 5.2,0 10.4,15.3 15.6,15.3 5.2,0 10.4,-15.3 15.6,-15.3 5.2,0 10.4,15.3 15.6,15.3 5.2,0 10.4,-15.3 15.6,-15.3 5.2,0 10.4,15.3 15.6,15.3 5.2,0 10.5,-15.3 15.7,-15.3 5.2,0 10.4,15.3 15.6,15.3 5.2,0 10.4,-15.3 15.6,-15.3 5.2,0 10.4,15.3 15.6,15.3 5.2,0 10.4,-15.3 15.6,-15.3 5.2,0 10.4,15.3 15.7,15.3 5.3,0 10.4,-15.3 15.6,-15.3 5.2,0 10.4,15.3 15.6,15.3 5.2,0 10.4,-15.3 15.6,-15.3 5.2,0 10.4,15.3 15.6,15.3 2.5,0 5,-3.5 7.6,-7.2"
           fill="none"
           stroke="#333333"
           stroke-width="4.3"
           id="path827" />
        <path
           d="M 448.7,2515.6 322,2527.1 c -15.8,63.3 0.6,117.7 13,149.4 9.9,25.6 53.8,25.1 89.4,4 h 59.4 c 0,0 -35.5,-164 -35.2,-164.9 z"
           fill="#ffffff"
           id="path828" />
        <path
           d="m 520.8,2663.9 c -4.2,-25.3 -5,-118.5 -13.5,-142.8 H 431 c 8.8,24.8 6.8,129.8 16.9,149 3.4,6.6 10.8,11.7 18,8.5 3.7,3.4 8.6,5.2 13,3.2 4.7,2.4 10.7,3 13.7,0.5 4.5,1.5 9.9,1.1 13.1,-1.2 3.7,1 8,0.8 11.8,-0.7 a 17.5,17.5 0 0 0 9.4,3 18,18 0 0 0 18,-16.6 c 0.4,-7.6 -5.2,-14.6 -12.9,-14.4 -5.8,0.2 -11.5,5.2 -11.3,11.5 z M 322,2527.4 l -6.4,0.2 c -11.7,50.6 -11.6,110.3 -16.3,128.7 -2.1,-0.6 -2.6,-4 -12.2,-0.7 -7,3.6 -9.4,12.4 -6,19 6.3,10.3 17.5,10.3 26.1,3 -0.3,4.3 5.4,8.6 9.9,5.1 2.5,-2 4,-4.2 5.5,-7.7 0.1,8.5 7.4,13 15,6.7 a 26.1,26.1 0 0 1 -2.7,-5.2 c -12.3,-31.7 -28.7,-86 -13,-149.1 z"
           fill="#eecc55"
           id="path829" />
        <path
           d="m 352.4,2650 c 5,-1.3 23.8,-1 30.9,0.6 -0.3,-6.5 -9.5,-2.4 -15.4,-6.4 -6.1,3.6 -15.4,1.4 -15.5,5.8 z"
           fill="#3366aa"
           stroke="#3366aa"
           stroke-linecap="round"
           stroke-linejoin="round"
           stroke-width="4.3"
           id="path830" />
        <path
           d="m 396.8,2570.5 a 3,2.6 0 1 0 5.8,0 3,2.6 0 1 0 -5.8,0 z"
           fill="#3366aa"
           stroke-width="0.5"
           id="path831" />
        <path
           d="m 388.6,2562.1 c 4.4,1.2 30,5 37.3,5.4 -0.1,1.8 -17.1,0.8 -23,0 -5.8,-0.7 -14.3,-3.4 -14.3,-5.4 z"
           fill="#3366aa"
           stroke="#3366aa"
           stroke-width="2.8"
           id="path832" />
        <path
           d="m 421.3,2569 c -7.1,8.9 -21.7,10.9 -35.8,2.8"
           fill="none"
           stroke="#3366aa"
           stroke-width="2.8"
           id="path833" />
        <path
           d="m 393.1,2570.4 a 6.6,6 0 1 0 13.1,0 6.6,6 0 1 0 -13,0 z"
           fill="none"
           stroke="#3366aa"
           stroke-width="2.4"
           id="path834" />
        <path
           d="m 345.1,2570.7 a 2.5,2.4 0 1 1 -5,0 2.5,2.4 0 1 1 5,0 z"
           fill="#3366aa"
           stroke-width="0.4"
           id="path835" />
        <path
           d="m 355.2,2562.3 c -3.7,1 -25.2,4.4 -31.5,4.7 0.1,1.6 14.5,0.7 19.5,0 5,-0.6 12,-3 12,-4.7 z"
           fill="#3366aa"
           stroke="#3366aa"
           stroke-width="2.8"
           id="path836" />
        <path
           d="m 327.7,2568.3 c 5.8,8.3 17.4,12.1 30.2,2.4"
           fill="none"
           stroke="#3366aa"
           stroke-width="2.8"
           id="path837" />
        <path
           d="m 348.3,2570.7 a 5.7,5.3 0 1 1 -11.4,0 5.7,5.3 0 1 1 11.4,0 z"
           fill="none"
           stroke="#3366aa"
           stroke-width="2.4"
           id="path838" />
        <path
           d="m 385.4,2550.6 a 54,54 0 0 1 40,2.4 m -66.8,-0.8 c -14.6,-9.7 -28.2,-2 -32.3,0.3"
           fill="none"
           stroke="#3366aa"
           stroke-linecap="round"
           stroke-width="5.1"
           id="path839" />
        <path
           d="m 494.6,2521.1 c 9,25.8 8.8,126 15,147.2 a 20,20 0 0 0 2,5.4 c 4.6,8.9 16,12.6 25,7.2 7.3,-4.5 10.8,-14.5 6.5,-22 -3.4,-6 -11.3,-8.5 -17.3,-4.4 -4.5,3.1 -6.6,9.6 -3.5,14.1 2.2,3 6.8,4.3 9.8,1.4 1.6,-1.5 2.5,-4.8 0.3,-6 M 321.2,2633.5 C 318,2663 314,2674 302,2681 a 17,17 0 0 1 -9,1.5 c -8.3,-1 -14.6,-8.4 -13.2,-16.8 1.2,-7 7.8,-12.5 14.8,-11.4 5.5,0.8 9.8,6 8.5,11.9 -1,4.2 -5.2,7.7 -9.6,6.6 -2.9,-0.8 -5.2,-3.9 -4,-7 0.7,-1.5 3,-3.1 4.5,-1.8 m 83.5,-4.2 c -8,3.6 -12.8,3.2 -19.2,0.8 m 20.7,-41 c 3.2,15.7 -11,8.3 -14,5.5 -10.4,8.3 -16.7,-0.6 -14.4,-8.8 2,-6.6 8.3,-36 8,-43.3 m 65.1,-6.2 c 0.7,-4.3 -11,-7.7 -18,-9 -4.7,-0.9 -16,-0.2 -18,1 -1.7,3.5 -4.3,13.3 -2.8,17.5 2.8,8 7,8.7 11.3,12 m -70.6,-21.9 c -0.6,-3.7 10.5,-6.6 15.3,-7.8 4.8,-1.2 13.5,-0.2 15.1,0.8 1.4,3 3.7,11.5 2.4,15.2 -2.4,7 -6,7.6 -9.6,10.4 m -33.1,-57.5 c -13.4,52 -13.3,111 -16.3,128.7 m 29.6,2.9 c -6,14.3 -6.8,19.5 -11.9,23.6 -4.4,3.5 -10,-0.5 -9.7,-4.5 m 30.3,3.4 c -7.6,6.4 -14.8,1.8 -15,-6.6 m -24.3,-2.7 c 16.6,-7.6 11.7,-47.6 18.1,-71.8 m 5.6,-73.5 c -15.9,63.3 0.6,117.7 13,149.5 12,31.1 74.7,23.6 111,-12.7 m 74.8,1.4 C 516.5,2641.9 516,2545.8 507.2,2521 m 11,159.1 c -7.2,3.2 -17.2,1 -20,-5 -9.3,-19.9 -7.6,-129.3 -16.3,-154.1 m 23.9,160.1 c -5.5,4 -17.3,2 -20.2,-4.6 -8.7,-20.1 -7.6,-130.7 -16.4,-155.5 m 9.7,161 c -7.2,3.1 -15,-4 -18.4,-10.5 -10,-19.3 -8,-125.7 -16.7,-150.5 m 49.3,161 c -4.6,4.5 -17.2,0 -20,-6.1 -9.3,-19.8 -7.8,-130.1 -16.6,-154.9 m 9.5,157.5 c -7.1,3.2 -14.6,-1.8 -18,-8.4 -10.2,-19.3 -8.1,-124.3 -16.9,-149.1 m -57,152.4 c -3.9,-1 -8,-1.2 -12,-0.3"
           fill="none"
           stroke="#3366aa"
           stroke-linecap="round"
           stroke-width="4.3"
           id="path840" />
        <path
           d="m 281.5,2762.2 a 10726,10726 0 0 1 -83.5,83.3 c 41.2,30.7 76,72.8 88.7,123.5 12,47.4 6.7,101 -6.8,147.6 h 27 a 813,813 0 0 0 35.5,-105.2 c 8,-32.2 13.3,-69.3 -3.8,-99.3 -14,-24.7 -35.9,-45.1 -47,-71.8 a 149.5,149.5 0 0 1 -10.1,-78.1 z"
           fill="#ee1111"
           stroke="#333333"
           stroke-linejoin="round"
           stroke-width="5.3"
           id="path841" />
        <path
           d="m 508.8,2523.3 42,-73 H 263.9 l 51.4,76 c 58.3,-4.6 125.8,-10.6 193.5,-3 z"
           fill="#ee1111"
           stroke="#333333"
           stroke-linecap="round"
           stroke-linejoin="round"
           stroke-width="4.7"
           id="path842" />
        <path
           d="m 530.7,2450.2 -28.9,41.9 -46.4,-2.5 9.3,-39.4 m -181,0 36.1,41.9 46.5,-2.5 -19.3,-39.4 m 20.2,0 20,39 h 48.3 l 9.6,-39"
           fill="none"
           stroke="#ffffff"
           stroke-linejoin="round"
           stroke-width="6"
           id="path843" />
        <path
           d="m 407.4,2501.9 c 35.1,0 71.6,2 109.4,6.5 l -8,15 c -67.7,-7.7 -135.2,-1.8 -193.5,3 l -9.9,-17.5 a 757,757 0 0 1 102,-7 z"
           fill="#333333"
           id="path844" />
      </g>
      <use
         transform="rotate(180,1159.6,2144.3)"
         width="744.09998"
         height="1052.4"
         xlink:href="#g8618"
         id="use844" />
      <g
         id="g8519"
         transform="matrix(1,0,0,1.0014,787.5,-774.6)">
        <path
           d="m 655.5,2491.6 c -30.9,15 -15.7,74.8 -25.2,104.2 l -6.5,12 h 31.7 z"
           fill="#ee1111"
           stroke="#333333"
           stroke-width="4.3"
           id="path845" />
        <path
           d="m 651.5,2576.2 c -6.4,0.2 -13,3.3 -19.8,6 -7.2,1.5 -16,1.2 -22.6,2.2 a 130,130 0 0 0 46.4,6.5 v -14.4 a 18.5,18.5 0 0 0 -4,-0.3 z"
           fill="#eecc55"
           stroke="#333333"
           stroke-linecap="round"
           stroke-linejoin="round"
           stroke-width="4.3"
           id="path846" />
        <g
           transform="translate(0,2388.7)"
           id="g848">
          <path
             d="m 649,93.2 a 14.5,14.5 0 0 0 0,29 c 2.4,0 4.6,-0.5 6.5,-1.5 v -26 a 14.5,14.5 0 0 0 -6.4,-1.5 z"
             fill="#eecc55"
             stroke="#333333"
             stroke-linecap="round"
             stroke-linejoin="round"
             stroke-width="4.3"
             id="path847" />
          <path
             d="m 635.6,107.6 h 20.5 M 636.3,114 H 652 M 636.2,101.5 H 652"
             fill="none"
             stroke="#333333"
             stroke-width="4.3"
             id="path848" />
        </g>
        <g
           transform="translate(0,2388.7)"
           id="g854">
          <path
             d="m 623.8,219.2 v 489.6 l 31.7,31.7 V 219.2 Z"
             fill="#eecc55"
             stroke="#333333"
             stroke-width="4.3"
             id="path849" />
          <path
             d="m 642.8,727.3 c 2.9,-2.1 7.2,-2.5 7.2,-7.7 0,-5.2 -15.3,-10.4 -15.3,-15.7 0,-5.2 15.3,-10.4 15.3,-15.6 0,-5.2 -15.3,-10.4 -15.3,-15.6 0,-5.2 15.3,-10.4 15.3,-15.6 0,-5.2 -15.3,-10.5 -15.3,-15.7 0,-5.2 15.3,-10.4 15.3,-15.6 0,-5.2 -15.3,-10.4 -15.3,-15.6 0,-5.2 15.3,-10.4 15.3,-15.7 0,-5.3 -15.3,-10.6 -15.3,-15.8 0,-5.2 15.3,-10.4 15.3,-15.6 0,-5.2 -15.3,-10.4 -15.3,-15.6 0,-5.2 15.3,-10.4 15.3,-15.6 0,-5.2 -15.3,-10.4 -15.3,-15.7 0,-5.2 15.3,-10.4 15.3,-15.6 0,-5.2 -15.3,-10.4 -15.3,-15.6 0,-5.2 15.3,-10.4 15.3,-15.6 0,-5.2 -15.3,-10.4 -15.3,-15.7 0,-5.2 15.3,-10.4 15.3,-15.6 0,-5.2 -15.3,-10.4 -15.3,-15.6 0,-5.2 15.3,-10.4 15.3,-15.5 0,-5.2 -15.3,-10.4 -15.3,-15.6 0,-5.2 15.3,-10.4 15.3,-15.6 0,-5.2 -15.3,-10.4 -15.3,-15.6 0,-5.2 15.3,-10.4 15.3,-15.6 0,-5.2 -15.3,-10.5 -15.3,-15.7 0,-5.2 15.3,-10.4 15.3,-15.6 0,-5.2 -15.3,-10.4 -15.3,-15.6 0,-5.2 15.3,-10.4 15.3,-15.6 0,-5.2 -15.3,-10.4 -15.3,-15.6 0,-5.2 15.3,-10.4 15.3,-15.6 0,-5.2 -15.3,-10.4 -15.3,-15.6"
             fill="none"
             stroke="#333333"
             stroke-width="4.3"
             id="path850" />
          <path
             d="M 629.2,236.4 V 705.3"
             fill="#eecc55"
             stroke="#3366aa"
             stroke-linecap="round"
             stroke-linejoin="round"
             stroke-width="5.3"
             id="path851" />
          <g
             transform="rotate(-39.7,545,381.6)"
             id="g853">
            <path
               d="m 622.5,425.5 c 2,-4.5 6.6,-6.5 10.1,-4.6 3.6,2 5,7 3,11.5 -2,4.5 -6.6,6.5 -10.2,4.6 -3.6,-1.9 -4.9,-7 -2.9,-11.5 z"
               fill="#ffffff"
               stroke="#333333"
               stroke-width="3.2"
               id="path852" />
            <path
               d="m 607.6,417 c 2,-4.4 7,-6.3 11,-4 16,8.5 6.5,6 4.3,11.8 -2.3,6.1 0.2,12.4 -11.6,4.2 a 9.8,9.8 0 0 1 -3.7,-12 z"
               fill="#ffffff"
               stroke="#333333"
               stroke-linejoin="round"
               stroke-width="3.2"
               id="path853" />
          </g>
        </g>
        <path
           d="m 580.7,2571 a 72,72 0 0 0 74.8,52.5 v -32.6 a 129.7,129.7 0 0 1 -74.8,-20 z"
           fill="#eecc55"
           stroke="#333333"
           stroke-linejoin="round"
           stroke-width="4.3"
           id="path854" />
      </g>
      <use
         transform="rotate(180,1159.6,2144.3)"
         width="744.09998"
         height="1052.4"
         xlink:href="#g8519"
         id="use854" />
    </g>
    <use
       transform="translate(1619.7)"
       xlink:href="#u41541"
       id="use855" />
    <use
       transform="translate(1619.9)"
       xlink:href="#u41543"
       id="use856" />
    <use
       transform="translate(0,315)"
       xlink:href="#frame"
       id="use857" />
    <use
       id="u19056"
       transform="matrix(0.8808,0,0,0.8808,1991.41,-41.8)"
       xlink:href="#diam" />
    <use
       id="u19268"
       transform="rotate(180,2126,472.5)"
       xlink:href="#u19056" />
    <use
       transform="translate(2024.9,414.99999)"
       style="stroke:#ee1111"
       xlink:href="#J"
       id="use858" />
    <use
       transform="rotate(180,1113.75,265)"
       style="stroke:#ee1111"
       xlink:href="#J"
       id="use859" />
  </g>
  <g
     id="diamond_queen"
     transform="translate(-2025)">
    <use
       transform="rotate(180,1215,315)"
       xlink:href="#card"
       id="use860" />
    <g
       transform="matrix(0.2407,0,0,0.2675,2239.2,12.4)"
       id="g903">
      <g
         transform="translate(0,1193.7)"
         id="g861">
        <path
           d="M 368.1,240.7 C 288.4,349.3 192.6,439.2 88.7,519.5 L 88.6,684.3 242.4,865.3 376,811.6 C 455.7,703 551.5,613.2 655.4,532.8 c 0,0 -103.9,80.4 0,0 l 0.1,-164.7 -153.8,-181 z"
           fill="#333333"
           id="path860" />
        <path
           d="m 287.1,493.7 c -9,20.4 -22.4,38.8 -39.9,53.1 a 146.2,146.2 0 0 1 -16.6,11.9 H 457 c 9,-20.4 22.4,-38.8 39.8,-53.2 a 146.2,146.2 0 0 1 16.7,-11.8 z"
           fill="#ffffff"
           id="path861" />
      </g>
      <g
         id="g64690">
        <path
           d="m 277.9,1543.1 -32.6,33.6 c 17.7,101.1 -51.8,171.1 -156.7,147.4 v 36.3 C 231,1794 328.3,1687.7 278,1543 Z"
           fill="#3366aa"
           id="path862" />
        <path
           d="m 110.6,1736.9 2,6.7 c 6.8,3.4 2,9 -4.1,10.8 -5.7,-3.2 -8.8,-10 -1.4,-11.5 l 3.5,-6 v 0 m 36.9,1.1 3.3,6.2 c 7.3,2 3.8,8.4 -2,11.4 -6,-2 -10.5,-8.1 -3.5,-11 l 2.2,-6.6 v 0 m 35.5,-7 4.8,5.1 c 7.5,0 5.9,7.2 1.1,11.5 -6.4,-0.3 -12.3,-5.2 -6.3,-9.7 l 0.4,-6.9 v 0 m 31.7,-16.7 5.9,3.6 c 7.1,-2.5 7.9,5 4.5,10.6 -6.2,1.5 -13.1,-1 -8.9,-7.3 l -1.5,-6.9 v 0 m 24.1,-25.7 6.7,1.4 c 6,-4.8 9.2,2.1 7.9,8.4 -5.4,3.6 -12.8,3.4 -10.8,-3.9 l -3.8,-6 v 0 m 14.6,-32.3 6.9,-0.8 c 4.2,-6.4 9.3,-0.8 10,5.6 -4,5 -11.2,7 -11.4,-0.5 l -5.5,-4.3 v 0 m 5,-36 6.5,-2.5 c 2.5,-7.1 8.9,-3 11.2,3 -2.6,5.9 -9,9.7 -11.3,2.5 l -6.3,-3 v 0 m -3.3,-36.5 5.7,-4 c 1,-7.5 8,-4.8 11.5,0.6 -1.2,6.3 -6.8,11.4 -10.5,4.8 l -6.7,-1.4 v 0 m -3.5,-11.3 3.9,5.4 c 1.8,-15.8 16.6,-10.3 24.2,1 -2.7,13.3 -14.3,24 -22,10.2 l -3.5,13.2 5.8,12.4 c 5.2,-15 18.6,-6.4 23.5,6.2 -5.5,12.5 -19.3,20.4 -23.7,5 l -6.3,12.1 2.8,13.3 c 8.7,-13.3 19.6,-1.7 21.2,11.8 -8.4,10.7 -23.8,14.9 -24.3,-1 l -9.2,9.8 -1.2,13.3 c 12,-10.5 19.4,4.2 16.7,17.5 -11.3,7.5 -27.3,6.7 -22.7,-8.6 l -11.8,6.3 -5.4,12 c 14.8,-5.8 16.9,10.6 9.9,22.2 -13.2,3.3 -28,-2.8 -18.5,-15.7 l -13.2,2 -9.2,9.8 c 16,-0.7 12.8,15 2.7,24 -13.5,-0.6 -26,-11.3 -12.9,-20.5 l -13.7,-1.9 -11.6,7 c 15.5,3.5 8.4,17.7 -3.7,23.8 -13,-4.1 -22.3,-17 -7.5,-23 l -12.7,-5.1 -13.3,4.2 c 14.5,6.7 4.7,19 -8.4,22.7 -11.9,-6.6 -18.4,-21 -2.8,-24 l -14,-8"
           fill="none"
           stroke="#ffffff"
           stroke-linecap="round"
           stroke-linejoin="round"
           stroke-width="4.3"
           id="path863" />
        <path
           d="m 499.1,1403.5 c -17.9,40 -44.2,48.3 -62.6,64 a 32.6,32.6 0 0 1 -3.8,2.7 137,137 0 0 0 82.9,-25.7 362,362 0 0 1 -16.5,-41 z m -129.3,30.3 -1.7,0.7 a 1143.3,1143.3 0 0 1 -13.8,18.4 202.8,202.8 0 0 0 34.5,11.8 91.3,91.3 0 0 1 -19,-31 z"
           fill="#ffffff"
           id="path864" />
        <path
           d="m 542,1428.2 a 172.4,172.4 0 0 1 -112.1,42.3 c -26.8,0 -52.3,-6.4 -75.3,-18 a 1182,1182 0 0 1 -39.7,49 c 31.7,20 71.7,31.9 115,31.9 61.3,0 115.8,-23.8 150,-60.6 z m 45.8,53.8 a 232,232 0 0 1 -157.1,59 c -45,0 -87,-12 -121.6,-32.6 a 1222.6,1222.6 0 0 1 -22.4,25 277.7,277.7 0 0 0 144,39.4 271,271 0 0 0 179,-65 z"
           fill="#eecc55"
           stroke="#333333"
           stroke-width="2.4"
           id="path865" />
        <path
           d="m 516.3,1492.2 -7.1,-16.1 c -1.8,-4.2 -0.6,-8.8 3.8,-11 a 8.4,8.4 0 0 1 11.4,3.4 l 8.5,15.4 m -12,-10.2 8,15.7 c 2,4 8.5,5.8 13.5,2 m -43,-8 6.6,16.3 c 1.7,4.3 7.4,6 12,4.1 4.6,-1.9 7,-7.3 5,-11.5 l -7.5,-15.9 m -22.4,24.8 -5.6,-16.7 c -1.4,-4.4 0.7,-9 5.3,-10.7 4.7,-1.7 9.2,0.4 11,4.7 l 6.5,16.3 m -33,-4.2 4.5,17 c 1.2,4.4 6.6,6.8 11.3,5.4 4.7,-1.4 8.3,-6.7 6.8,-11 l -6.1,-16.5 m -49.9,25.3 -1.2,-17.5 c -0.3,-4.6 2.8,-8.6 7.8,-9 5,-0.4 8.2,2.5 9,7 l 3,17.4 m 6.3,-1.2 -3.5,-17.3 a 8.4,8.4 0 0 1 6.6,-10 c 4.8,-1 8.6,1.6 10,6 l 5,16.9 m -32.4,-8 2.3,17.4 c 0.6,4.6 5.7,7.6 10.6,6.8 4.9,-0.8 9,-5.7 8,-10.2 l -4,-17.1 m -40.1,4.7 v 17.6 c 0.1,4.6 5.3,8.4 10.3,8 5,-0.3 9.1,-4.5 8.7,-9 l -1.8,-17.5 m -29.7,15.3 1,-17.6 c 0.3,-4.6 3.3,-8 8.3,-8 a 8.4,8.4 0 0 1 8.7,8.1 l 0.6,17.6 m -29.3,-15.7 -2.2,17.5 c -0.5,4.5 4.2,8.9 9.1,9.2 5,0.3 9.7,-3.3 9.8,-8 l 0.5,-17.5 m -55.6,5.8 4.8,-17 c 1.2,-4.4 5.6,-7 10.4,-5.7 4.8,1.3 7.3,5.5 6.4,10 l -3.8,17.2 m 6.4,1.2 3.2,-17.3 c 0.8,-4.5 4.3,-7.6 9.2,-7 5,0.6 8,4.6 7.6,9.2 l -1.6,17.5 m -27.2,-19.1 -4.3,17 c -1,4.5 3,9.3 7.9,10.2 4.9,1 10,-2 10.7,-6.6 l 2.7,-17.4 m -39.5,-10 -5.8,16.6 c -1.5,4.4 1.6,9.4 6.3,11 4.7,1.4 10.1,-1 11.4,-5.4 l 4.8,-16.9 m -32.8,-23.1 c 1.7,2 1.9,6.3 1,8.4 l -7.3,16 m 6,2.6 6.7,-16.2 a 8.4,8.4 0 0 1 11,-4.6 c 4.6,1.8 6.3,6.2 4.9,10.6 l -5.3,16.8 m -22.4,-24.9 -7.7,15.9 c -2,4.1 0.5,9.4 5,11.4 4.6,2 10.6,0.4 12.3,-3.9 l 6.2,-16.4"
           fill="none"
           stroke="#333333"
           stroke-linecap="round"
           stroke-linejoin="round"
           stroke-width="4.3"
           id="path866" />
        <g
           transform="matrix(0.1729,1.2288,-1.0848,0.2169,778.4,1351)"
           id="g870">
          <path
             d="m 178.6,638.4 c -2.5,-4 -20.4,-19.2 -11.6,-12.6 8.8,6.5 15.7,9 16.1,11 z m -12.2,-18.1 c 3.3,10.1 17.4,6 12.1,-3.8 -2.6,-4.7 -3.5,-0.3 -5.8,1.7 -2.6,2.3 -4.8,-6.6 -4.8,-14.5 a 19.3,19.3 0 0 0 -1.5,16.6 v 0 m 9.1,-8.3 c -8.6,2.2 -5,-5 -2.2,-10.5 5.5,-10.9 -7.3,-28.7 -15.4,-30.8 11.1,-1.1 15.6,-9 14.6,-1.8 7.9,-0.3 0.4,5.8 -4,3.5 10.3,12 29,28.1 7,39.6 v 0 m -29,-39.2 c -5.8,2.9 -1.5,8.7 4,5 2.8,-1.7 0.5,-2 -0.9,-2.8 -1.5,-1 3.7,-3 8.3,-3.8 -3.2,-1 -7.7,-0.3 -11.4,1.6 v 0 m 21.5,19.7 c 1,5.5 -8.8,9.7 -11.6,-0.6 -0.9,-3.5 1.4,-4.5 4.4,-4 3.4,0.4 -3.8,-9.2 -3.8,-18 a 57,57 0 0 1 11,22.6 v 0 m -5.7,-41.7 c -0.7,-8 -11.8,-4.5 -9.6,3.4 1,3.8 1.8,1.7 3.7,0.3 2,-1.6 2.8,10.4 1.8,16.3 2.7,-3.7 4.6,-15 4.1,-20 v 0 m -28.8,-3.5 c 8.4,6.8 -4.2,-25.4 7.5,-21.4 7.4,2.5 2.8,10.3 -0.3,13.7 -4.2,4.6 11.3,26.3 18.7,29.6 -10.7,-2.1 -20.7,-3.2 -26,-7.4 -2.3,-2.8 1.6,-5.7 5.3,-3 -1.5,-1.4 -6.5,-12.6 -5.2,-11.5 v 0 m -8,-19.6 c -4.4,-6.4 -12.5,1.7 -7,7.5 2.8,2.8 2.8,1 3.8,-1 1.2,-2.3 8,8.4 9.7,14 0.8,-4.4 -3.6,-16.4 -6.4,-20.5 v 0"
             fill="#eecc55"
             stroke="#333333"
             stroke-linecap="round"
             stroke-linejoin="round"
             stroke-width="0.9"
             id="path867" />
          <g
             transform="translate(-425.9,131)"
             id="g869">
            <path
               d="m 586.7,434 c -2.5,-0.8 -4,-0.4 -4.5,0.6 -0.4,1 -0.5,2.8 2.5,4 -1.5,2.7 -0.2,3.6 0.5,3.9 0.8,0.3 2.2,0.6 3.5,-2.6 3.5,2 4,0.2 4.4,-0.5 0.3,-0.6 1,-2.3 -2.3,-3.5 1.3,-2.8 -0.1,-4.3 -0.9,-4.6 -0.8,-0.3 -2,0.1 -3.2,2.7 v 0"
               fill="#eecc55"
               stroke="#333333"
               stroke-linecap="round"
               stroke-linejoin="round"
               stroke-width="0.9"
               id="path868" />
            <path
               d="m 585.9,437.8 c 0.3,0.6 0.8,1 1.6,1 0.7,0 1.4,-0.2 1.8,-0.8 0.5,-0.6 0.6,-1.3 0.3,-2 a 1.8,1.8 0 0 0 -1.6,-1 c -0.7,0 -1.4,0.3 -1.8,0.9 a 1.9,1.9 0 0 0 -0.3,1.9"
               id="path869" />
          </g>
        </g>
        <path
           d="m 567.6,1512.2 c -2.4,4 1,15.4 -2.6,17.4 -3.7,2 -14.4,-9.7 -18.2,-7.8 -3.7,1.9 -0.8,17.4 -4.6,19.1 -3.8,1.7 -13.7,-10.7 -17.6,-9.2 -3.9,1.5 -2.4,17.3 -6.3,18.7 -3.9,1.4 -12.6,-11.8 -16.6,-10.6 -4,1.1 -4,17 -8,18 -4,1 -11.7,-13 -15.8,-12 -4.1,1 -5.5,16.5 -9.6,17 -4.1,0.5 -10.2,-14 -14.3,-13.5 -4.2,0.4 -7.2,16 -11.4,16.1 -4.1,0.2 -8.6,-15 -12.8,-15 -4.2,0 -8.8,15.2 -13,15 -4.2,-0.2 -7,-15.9 -11.2,-16.3 -4.2,-0.4 -10.4,14.3 -14.5,13.6 -4,-0.8 -5.3,-16.5 -9.4,-17.3 -4.1,-0.8 -11.5,13 -15.6,12 -4.1,-1 -3.9,-16.9 -7.8,-18.1 -3.9,-1.2 -12.9,11.9 -16.8,10.5 -4,-1.4 -2.2,-17.1 -6,-18.8 -3.9,-1.6 -14,10.7 -17.8,9 -3.8,-1.7 -0.8,-17.4 -4.5,-19.3 -3.7,-2 -16.6,9.2 -20.3,7.2"
           fill="none"
           stroke="#333333"
           stroke-width="4.3"
           id="path870" />
        <path
           d="m 454,1255.2 c 33.3,43.4 70.8,138.4 91.5,188 12.3,29.6 25.2,54 40,76 -36.8,-7 -68.4,-62 -86.4,-115.8 -17.9,40.1 -44.2,48.4 -62.6,64 a 36,36 0 0 1 -46.4,-1.3 87,87 0 0 1 -24.5,-51.9 c -0.8,-9.7 -10.2,-28.3 -3.6,-95 0.8,-8.3 0.7,-50.6 0.3,-64 z"
           fill="#ffffff"
           id="path871" />
        <path
           transform="matrix(-0.9354,-0.8634,-0.9898,0.9136,1256.2,902)"
           d="m 221.6,681.8 a 4.85,4.85 0 1 1 -9.7,0 4.85,4.85 0 1 1 9.7,0 z"
           fill="none"
           stroke="#3366aa"
           stroke-width="2"
           id="path872" />
        <path
           d="m 373.4,1340 c 2,2.4 1.3,-2 3.6,-3.7 2.4,-1.7 7,-0.2 5,-2.6 -1.8,-2.5 -5,-2.4 -7.4,-0.7 -2.4,1.8 -3,4.6 -1.2,7 z"
           fill="#3366aa"
           stroke="#3366aa"
           stroke-width="2.2"
           id="path873" />
        <path
           transform="matrix(-0.4658,-0.4299,-0.4952,0.4571,817.3,1120)"
           d="m 221.6,681.8 a 4.85,4.85 0 1 1 -9.7,0 4.85,4.85 0 1 1 9.7,0 z"
           fill="#333333"
           id="path874" />
        <path
           d="m 400.6,1314.1 0.6,6 a 53.5,53.5 0 0 0 -37.6,-1 l -0.5,-1.3 c 12.9,-2.2 16.4,-6.8 37.5,-3.7 z m 22.2,0.2 -4.7,7 c 21.5,-10.2 34.9,4.1 55,-0.5 -25.6,-0.8 -24.4,-10.8 -50.3,-6.5 z"
           fill="#3366aa"
           stroke="#3366aa"
           stroke-miterlimit="1"
           stroke-width="2"
           id="path875" />
        <path
           transform="matrix(0.9354,-0.8634,0.9898,0.9136,-439.6,902.2)"
           d="m 221.6,681.8 a 4.85,4.85 0 1 1 -9.7,0 4.85,4.85 0 1 1 9.7,0 z"
           fill="none"
           stroke="#3366aa"
           stroke-width="2"
           id="path876" />
        <path
           d="m 442.5,1333.8 c 2.6,2.4 -2.5,1 -5,3.3 -2.5,2.3 -1.4,7.5 -4,5 -2.6,-2.5 -2,-5.8 0.4,-8.1 2.5,-2.3 6,-2.6 8.6,-0.2 z"
           fill="#3366aa"
           stroke="#3366aa"
           stroke-width="2.6"
           id="path877" />
        <path
           transform="matrix(0.4658,-0.4299,0.4952,0.4571,-0.7,1120.2)"
           d="m 221.6,681.8 a 4.85,4.85 0 1 1 -9.7,0 4.85,4.85 0 1 1 9.7,0 z"
           fill="#333333"
           id="path878" />
        <path
           d="m 425.8,1330.4 c 8.3,-5.4 9,-5.7 18,-3.2 7,1.8 12.9,5.2 19.7,9.9 l 0.3,2.8 c -13.9,-4 -20.9,-9.6 -35.6,-7.4 z m -36.4,-0.2 c -6,-4 -10.3,-5.6 -14.7,-4.8 -3.3,0.7 -9.4,6.3 -12,8 l -0.9,3.1 c 8.2,-2.1 11.9,-6.4 26.5,-4.2 z"
           fill="#3366aa"
           stroke="#3366aa"
           stroke-linecap="round"
           stroke-linejoin="round"
           stroke-width="1.4"
           id="path879" />
        <path
           d="m 405,1430.7 c 1,0.5 4.2,0.7 5,-0.1 5.3,2.9 6.5,3.4 15,4 -10.1,3.1 -11,2.3 -15.9,2.4 -5,0.1 -9.3,-0.6 -18,-2.7 6.8,-0.6 10,-1.7 13.9,-3.6 z"
           fill="#3366aa"
           stroke="#3366aa"
           stroke-linecap="round"
           stroke-linejoin="round"
           stroke-width="4.3"
           id="path880" />
        <path
           d="m 419.4,1402.7 c 8,5 0.6,14 -6.3,10.9 -4.2,-2 -2.5,-4.7 -8.2,-1.8 m -0.8,-87.2 c -4.8,71.5 -3.7,64.3 -8.9,72.7 -6.9,11.2 -1.2,15.2 3.3,16.7 l 0.2,11.3 m 21.4,-87.1 c 8.4,-2 12,-8.4 18.8,-8 7.2,0.6 12.5,6.6 22.2,8.9 -12.3,0.4 -17.5,8.2 -24,7 -6.5,-1 -8.6,-5.1 -17,-8 z m 16.2,12.7 c 9.8,1.6 13.8,-0.6 21.5,-5.2 m -95,-8 -0.2,3.2 c 10.4,4 11.5,6.4 18,5.3 6.5,-1.1 7.5,-5.4 15.9,-8.2 -8.4,-2 -12.2,-8 -19,-7.5 -7.3,0.5 -9.3,5.3 -14.7,7.2 z m 17.7,14 a 28,28 0 0 1 -18.8,-5.1 m 38.4,102.3 c 6.1,-5 9.2,-2 12.6,0 m 86.3,-45.3 c -17.8,40 -44.1,48.2 -62.5,63.8 a 36,36 0 0 1 -46.4,-1.3 87,87 0 0 1 -24.5,-51.8 c -0.8,-9.8 -10.3,-28.4 -3.6,-95 0.8,-8.3 0.7,-49.2 0.3,-62.6 m 11,0 a 16.8,16.8 0 0 1 -10.6,8.7 m 22.3,-8.7 c -4.2,11 -12.5,15 -21.4,18.7 m 32.6,-18.7 a 49.7,49.7 0 0 1 -33.2,29.6 m 43.4,-29.6 c -10.8,25 -20.4,31.6 -43.7,40.1 m 83.7,-40 c 2.5,4.5 8.6,8 14,10 m -24.5,-10 c 4.2,11 23.6,18.7 32.6,22.4 m -43.9,-22.5 c 7.6,16.2 33.3,28.4 50.8,34.6 m -61.7,-34.6 c 8.5,22.8 43,39.9 69.2,45.5 m 24.4,48.4 c 0,19 38.6,111.7 48.5,115.3 M 492.4,1321 c -7.5,22.5 24.7,155.2 84.8,185.2 M 485,1306.6 c -10.8,46.6 37,200.6 100.4,212.8 M 567,1488 c -27.6,-10.7 -70.7,-121.1 -68,-153"
           fill="none"
           stroke="#3366aa"
           stroke-linecap="round"
           stroke-linejoin="round"
           stroke-width="4.3"
           id="path881" />
        <path
           d="m 631,1431.6 c -14.6,-2.9 -78.4,0.4 -86.5,6.2 -19.4,-50 -57.2,-136.1 -90.5,-179.5 h 123.4 c 3.5,54 22.3,119.3 53.6,173.3 z"
           fill="#eecc55"
           stroke="#333333"
           stroke-linejoin="round"
           stroke-width="4.5"
           id="path882" />
        <path
           d="m 360.8,1332.7 c -52,43.2 -69.7,122.1 -66.1,191.8 a 1221.9,1221.9 0 0 0 30.2,-34.9 c 4.6,-42.8 17.5,-80.3 35.5,-107 -1,-11.9 -1.2,-27.8 0.4,-49.9 z m 205.3,96.1 c 31,56 78.7,104 89.4,107 v 62.2 c -51.3,-47.4 -82,-87.7 -110,-154.8 -20.7,-49.6 -58.2,-144.6 -91.5,-188 h 27.5 c 35.8,52.7 52.2,113.5 84.6,173.6 z"
           fill="#333333"
           id="path883" />
        <g
           id="g5433"
           transform="matrix(-0.2396,-0.4666,-0.4784,0.2456,592.3,1085.8)">
          <path
             d="m -302.1,258.3 c 0.8,-13.8 5.6,-20.1 11.3,-20.3 5.6,-0.2 14.5,4 14.3,20.8 15.9,-0.5 18,8.3 17.6,12.2 -0.6,4.4 -2,11.4 -20,9.9 1.8,21.2 -8,1 -12,0.8 -4,-0.2 -12.3,18.9 -11.2,0.3 -16,0 -19.4,-9.6 -19.4,-13.9 0,-4.6 4.6,-9.6 19.4,-9.8 z"
             fill="#333333"
             stroke="#ee1111"
             stroke-linejoin="round"
             stroke-width="3.6"
             id="path884" />
          <path
             transform="matrix(0.2638,0,0,0.2683,-230,197.8)"
             d="m -198.2,267.5 a 30.7,30.7 0 1 1 -61.4,0 30.7,30.7 0 1 1 61.4,0 z"
             fill="#333333"
             stroke="#ee1111"
             stroke-linejoin="round"
             stroke-width="13"
             id="path885" />
        </g>
        <path
           d="m 484.1,1257.8 c 44.4,75.5 64.8,140.7 84,172.7 l 22.3,-2.4 c -6.5,-1.1 -25.1,-21.6 -15.7,-34.7 -15.7,-0.8 -31.6,-38 -24.9,-49.6 -11.6,0.9 -33,-36.5 -26.2,-51 -13.5,-1 -24.6,-19 -20.3,-35 z"
           fill="#ee1111"
           stroke="#3366aa"
           stroke-linecap="round"
           stroke-linejoin="round"
           stroke-width="4.3"
           id="path886" />
        <path
           d="m 628.3,1428.8 c -26.7,-45 -50,-119.6 -52,-172.1 l -9.4,0.2 c 2.1,8.3 0.2,12 -5.5,22.8 16.3,4 22.7,32.5 16.2,52.2 9.3,3.1 20.7,28.6 20.5,51 12.3,9.1 17.9,32.5 13.3,45.5 z"
           fill="#3366aa"
           id="path887" />
        <path
           d="m 360.4,1382.5 c -18,26.8 -30.9,64.3 -35.5,107.1 a 1160.1,1160.1 0 0 0 43.2,-55.2 661,661 0 0 1 -7.7,-51.9 z"
           fill="#ee1111"
           id="path888" />
        <path
           id="p5540"
           d="m 327.8,1719.9 a 46.3,46.3 0 0 0 -17.3,22.7 46.2,46.2 0 0 0 -17.3,-22.7 46.2,46.2 0 0 0 17.3,-22.7 46.4,46.4 0 0 0 17.3,22.7 z"
           fill="#ee1111" />
        <path
           d="m 245.3,1576.7 c 17.7,101.1 -51.8,171 -156.7,147.4"
           fill="none"
           stroke="#ee1111"
           stroke-linejoin="round"
           stroke-width="5.3"
           id="path889" />
        <path
           d="m 88.7,1713.2 c 103.9,-80.3 198.4,-169 278.1,-277.6"
           fill="none"
           stroke="#333333"
           stroke-linecap="round"
           stroke-linejoin="round"
           stroke-width="5.3"
           id="path890" />
        <path
           d="m 531.2,1561.6 c -9.3,46 -29.4,81 -64.6,117.3 h 53.1 a 204.2,204.2 0 0 0 69,-146"
           fill="#3366aa"
           stroke="#ffffff"
           stroke-linecap="round"
           stroke-width="5.3"
           id="path891" />
        <path
           d="m 517.2,1675.5 c 49.1,-46.6 62.6,-91.2 67.2,-142.3 m -48.6,24.3 c -6.2,46.7 -35.6,96.4 -60.5,118.4 l 41.9,-0.4"
           fill="none"
           stroke="#333333"
           stroke-linecap="round"
           stroke-linejoin="round"
           stroke-width="5.3"
           id="path892" />
        <path
           d="m 515.5,1668.3 c -7,0 -9.2,0.3 -15.6,3 2.4,-6.6 2.4,-8.3 1.1,-15.1 7,0 8.9,0 15,-3.6 a 29.6,29.6 0 0 0 -0.5,15.7 m 41.7,-58.3 c -9.3,2.4 -11.7,4 -19.4,9.6 1,-9.5 0.2,-11.8 -4,-20.4 9.2,-2.4 11.4,-3.3 17.9,-10.3 0.7,9.6 1.3,12.5 5.5,21.1 m 13.6,-41.8 a 49.2,49.2 0 0 0 -17,15.4 c -1.6,-10 -3,-11.9 -9.8,-19.3 8.6,-5.2 10.6,-7 16,-15.6 2.6,9.7 4,12 10.8,19.5 M 537,1644 c -8.7,0.7 -11.1,1.7 -19,5.6 2.5,-8.4 2,-10.6 -0.4,-19 8.7,-0.7 10.7,-1.1 17.7,-6.4 -0.8,8.7 -0.8,11.4 1.7,19.8 m 57.8,-111.8 c -3.6,68.5 -29.2,112 -67,148 41,-16.3 81.1,-22.5 127.6,-11.3 V 1598 a 475.4,475.4 0 0 1 -60.6,-65.8 z M 296.5,1636.5 H 492 a 208.7,208.7 0 0 0 31,-72.6 c -57,19.3 -116.6,18.1 -174.3,3.3 z"
           fill="#ee1111"
           id="path893" />
        <path
           d="m 156.2,1509 c 1,30.8 -27,50.3 -21.8,78.4"
           fill="none"
           stroke="#333333"
           stroke-linecap="round"
           stroke-linejoin="round"
           stroke-width="5.3"
           id="path894" />
        <path
           d="m 134.5,1568.5 c -6.2,-18.2 -0.2,-22 -18.5,-38.3 3.7,22.6 3.6,33 18.5,38.3 z m 0.6,7.9 c 16,-27 27.1,-24.2 43.5,-27 a 70.7,70.7 0 0 1 -43.5,27 z"
           fill="#eecc55"
           stroke="#333333"
           stroke-linecap="round"
           stroke-linejoin="round"
           stroke-width="2.5"
           id="path895" />
        <path
           d="m 148.5,1585.6 c -0.1,0.2 -0.4,1.7 -2.6,4.6 -2.7,3.7 -11.2,1.6 -1.1,13.5 l -22.3,40.3 c 8.4,3 18.5,11.3 29.7,16 l 33.2,-27.5 c -12.8,-10.2 -36.8,-46.4 -37,-46.9 z"
           fill="#ffffff"
           stroke="#333333"
           stroke-linejoin="round"
           stroke-width="3.2"
           id="path896" />
        <path
           d="m 126.8,1610.6 c -2.3,2.6 -1.8,6.7 1,9.2 11,9.6 6.3,3.2 9.3,0.2 3.3,-3.3 8.3,-3 -1.1,-9.7 -3,-2.1 -7,-2.3 -9.2,0.3 z m -5.7,13 c -2,2.9 -1.2,7 1.8,9 11.8,8.5 6.5,2.7 9.3,-0.7 2.9,-3.6 7.9,-3.8 -2,-9.4 -3.2,-1.8 -7,-1.6 -9,1.2 z m 13.8,-24.5 a 6.3,6.3 0 0 0 0.4,8.9 c 10.1,9.6 5.9,3.3 9,0.3 3.4,-3.2 8.3,-2.8 -0.4,-9.4 -2.9,-2.2 -6.6,-2.4 -9,0.1 z m -17.7,37.2 a 5.3,5.3 0 0 0 1.1,7.4 c 9.3,6.7 5.2,2 7.5,-1 2.6,-3 6.6,-3.4 -1.2,-7.8 -2.5,-1.4 -5.7,-1 -7.4,1.4 z"
           fill="#ffffff"
           stroke="#333333"
           stroke-linejoin="round"
           stroke-width="3.2"
           id="path897" />
        <path
           d="m 112.6,1598.3 c -2.3,2.6 -1.1,7.3 2.6,10.5 14.5,12.7 7.9,4.7 11,1.7 3.3,-3.2 9.3,-2.1 -2.8,-11.1 -4,-3 -8.6,-3.7 -10.8,-1.1 z m -6.5,14.6 c -2,2.8 -0.5,7.3 3.4,10.2 15.5,11 8.3,3.8 11,0.5 3,-3.5 9,-3 -3.7,-10.7 -4.1,-2.5 -8.7,-2.8 -10.7,0 z m 15.8,-26 c -2.3,2.5 -1.5,7 1.9,10.3 13.3,12.5 7.3,4.6 10.5,1.7 3.5,-3 9.2,-2 -2,-10.8 -3.6,-3 -8,-3.8 -10.4,-1.2 z m -16.6,41 c -1.7,2.3 -0.6,6.1 2.5,8.3 12.1,8.7 6.5,3 9,0 2.5,-3 7.3,-2.8 -2.7,-8.8 -3.3,-2 -7,-2 -8.8,0.4 z m 32.1,-8.4 a 6.1,6.1 0 0 0 0.5,8.6 6.1,6.1 0 0 0 8.6,-0.8 6.1,6.1 0 0 0 -0.4,-8.6 6.1,6.1 0 0 0 -8.7,0.8 z m -5,12 c -2,2.8 -1.4,6.6 1.2,8.5 2.6,1.9 6.5,1.1 8.5,-1.7 a 6,6 0 0 0 -1.2,-8.5 c -2.7,-1.9 -6.4,-1.2 -8.5,1.6 z m 12.3,-23.6 c -2.4,2.5 -2.4,6.3 -0.2,8.4 2.3,2.2 6,1.9 8.5,-0.6 2.3,-2.6 2.4,-6.3 0.1,-8.5 -2.3,-2.1 -6,-1.8 -8.4,0.7 z m -18.6,34.5 c -1.8,2.4 -1.5,5.6 0.6,7 2.1,1.4 5.2,0.8 7,-1.6 1.7,-2.4 1.4,-5.6 -0.7,-7.1 -2,-1.5 -5.2,-0.7 -7,1.7 z m 20.5,-52.4 c 2,-3.2 1.7,-7.4 -0.7,-9.4 -2.5,-2 -6.1,-1 -8.2,2.3 -2,3.2 -1.8,7.4 0.7,9.3 2.5,1.9 6.1,1 8.2,-2.2 z"
           fill="#ffffff"
           stroke="#333333"
           stroke-linejoin="round"
           stroke-width="3.2"
           id="path898" />
        <path
           d="m 153.8,1514.2 c -4.9,6.2 -18.8,7.4 -30,12.1 2,-8.5 16.5,-18.7 26.5,-18.2 -7.7,-2 -25.6,-6.7 -31.6,-12.7 9.2,-5.4 30.1,-0.2 33.3,3.2 -0.7,-6.3 -0.4,-18.4 10.2,-20.8 3.2,6.8 1.7,15.8 0.8,21.6 6.1,-3.5 23,-4.1 33,2.6 -10,2.8 -22.8,5.3 -30.1,5 7,2.3 22,12.7 24,21.2 -10.9,-3.7 -21.9,-7.5 -27.2,-14 -2,8 -1,18.7 -6.9,27.4 -7.6,-11.3 -2.9,-21.6 -2,-27.4 z"
           fill="#ffffff"
           stroke="#3366aa"
           stroke-linejoin="round"
           stroke-width="4.3"
           id="path899" />
        <path
           transform="matrix(1.4814,0,0,1.4814,-76.2,1045)"
           d="m 161.1,310.6 a 3.65,3.0416667 0 1 1 -7.3,0 3.65,3.0416667 0 1 1 7.3,0 z"
           fill="#eecc55"
           id="path900" />
        <use
           id="u56866"
           transform="matrix(0.948,0,0,0.948,54,118.4)"
           width="744.09998"
           height="1052.4"
           xlink:href="#g5433" />
        <use
           transform="matrix(0.9039,0,0,0.9039,77.8,178.6)"
           width="744.09998"
           height="1052.4"
           xlink:href="#u56866"
           id="use900" />
        <use
           transform="translate(41)"
           width="744.09998"
           height="1052.4"
           xlink:href="#p5540"
           id="use901" />
        <path
           d="m 168.4,1512.2 c -2.9,-3.4 -5.2,-7.3 -11.2,-7.3 4.4,-7 18,-10.4 25.7,-9.3 m -11.2,-13.5 a 79.7,79.7 0 0 0 -14.4,22.8 m -23.7,0.7 c 4.3,-2.6 15.5,-9.8 23.6,-0.7 a 33.7,33.7 0 0 0 -17.6,-21.2"
           fill="none"
           stroke="#ffffff"
           stroke-linecap="round"
           stroke-linejoin="round"
           stroke-width="2.2"
           id="path901" />
        <path
           d="m 157.1,1506.1 c -3.3,-11 1.8,-27.5 1.3,-34.7"
           fill="none"
           stroke="#ffffff"
           stroke-linecap="round"
           stroke-linejoin="round"
           stroke-width="2.2"
           id="path902" />
        <path
           d="m 169.2,1512.1 -0.7,0.8 m 14.8,-18.2 v 1 m -11.8,-14.9 0.6,0.7 m -33,2.3 0.5,-0.5 m -7.1,23.3 -0.6,-1.2"
           stroke="#eecc55"
           stroke-linecap="round"
           stroke-linejoin="round"
           stroke-width="4.3"
           id="path903" />
      </g>
      <use
         transform="rotate(180,372,1719.9)"
         width="744.09998"
         height="1052.4"
         xlink:href="#g64690"
         id="use903" />
    </g>
    <use
       transform="translate(1620)"
       xlink:href="#u41545"
       id="use904" />
    <use
       transform="translate(1620)"
       xlink:href="#u41547"
       id="use905" />
    <use
       transform="translate(202.7,315)"
       xlink:href="#frame"
       id="use906" />
    <use
       transform="translate(202.7)"
       xlink:href="#u19056"
       id="use907" />
    <use
       transform="translate(202.7)"
       xlink:href="#u19268"
       id="use908" />
    <use
       transform="translate(2025,414.99999)"
       style="stroke:#ee1111"
       xlink:href="#Q"
       id="use909" />
    <use
       transform="rotate(180,1316.2,265)"
       style="stroke:#ee1111"
       xlink:href="#Q"
       id="use910" />
  </g>
  <g
     id="club_1"
     transform="translate(-2025)">
    <rect
       id="card"
       x="0.69999999"
       y="0.69999999"
       width="201.10001"
       height="313.60001"
       rx="9"
       ry="9"
       fill="#ffffff"
       stroke="#333333"
       stroke-width="1.4" />
    <use
       id="u37950"
       transform="rotate(180,101.3,157.5)"
       xlink:href="#clubS" />
    <use
       id="clubS"
       transform="matrix(0.45,0,0,0.45,-28.38,-12.7)"
       xlink:href="#club" />
    <path
       id="club"
       d="m 101.25,132.5 a 11,11 0 0 0 -8.1,18.41 l -0.5,0.52 a 11,11 0 1 0 5.86,13.95 l 0.59,0.37 c 0,7.28 -2.74,13.39 -6.1,16.75 h 16.5 c -3.36,-3.36 -6.1,-9.47 -6.1,-16.75 l 0.59,-0.37 a 11,11 0 0 0 10.26,7.12 11,11 0 1 0 -4.4,-21.07 l -0.5,-0.52 a 11,11 0 0 0 -8.1,-18.41 z"
       style="fill:#333333" />
  </g>
</svg>
