<?xml version="1.0" encoding="UTF-8" standalone="no"?>
<svg
   width="202.5"
   height="315"
   version="1.1"
   id="svg1018"
   xmlns:xlink="http://www.w3.org/1999/xlink"
   xmlns="http://www.w3.org/2000/svg"
   xmlns:svg="http://www.w3.org/2000/svg">
  <defs
     id="defs1018" />
  <path
     id="J"
     d="m 9,-384.1 c 0,4.2 3,6.5 6.7,6.5 3.7,0 6.7,-2.7 6.7,-6.5 v -20.4 m -1.9,-0.5 h 3.9"
     fill="none"
     stroke-linecap="square"
     stroke-width="3.5" />
  <g
     id="club_jack"
     transform="translate(-2025,-315)">
    <path
       id="frame"
       d="M 2194.1,281.3 H 2058 V 33.6 h 136.1 z"
       fill="none"
       stroke="#3366aa"
       stroke-linejoin="round"
       stroke-width="2.4" />
  </g>
  <g
     id="diamond_1"
     transform="translate(-2025,-315)">
    <use
       id="u41521"
       transform="rotate(180,101.3,472.6)"
       xlink:href="#diamS" />
    <path
       id="diam"
       d="m 123.5,472.5 a 112.97,112.97 0 0 0 -22,26 97.4,97.4 0 0 0 -22.6,-26 c 11,-10.3 15.8,-14.6 22.6,-26 a 112.57,112.57 0 0 0 22,26 z"
       fill="#ee1111" />
    <use
       id="diamS"
       transform="matrix(0.4423,0,0,0.4423,-27.7,164.5)"
       xlink:href="#diam" />
  </g>
  <g
     id="diamond_3"
     transform="translate(-2025,-315)">
    <use
       id="u41541"
       transform="translate(405)"
       xlink:href="#diamS" />
    <use
       id="u41543"
       transform="translate(405)"
       xlink:href="#u41521" />
  </g>
  <g
     id="diamond_jack"
     transform="translate(-2025,-315)">
    <use
       transform="rotate(180,1113.75,315)"
       xlink:href="#card"
       id="use810" />
    <g
       transform="matrix(0.2407,0,0,0.2666,1847,-99.1)"
       id="g855">
      <path
         d="m 1442.9,2183.6 v -112.2 l -120.8,-168.6 h -239 l -207,202.3 v 112.2 l 120.8,168.5 h 239 z"
         fill="#333333"
         id="path810" />
      <path
         d="m 1187.1,2144.3 c -19.3,-44.5 -7.6,-101.4 37.1,-207.2 H 1089 c -51.9,122.9 27.4,171 43,207.2 19.4,44.5 7.7,101.4 -37,207.2 h 135 c 52,-122.9 -27.3,-171 -43,-207.2 z"
         fill="#3366aa"
         stroke="#ffffff"
         stroke-width="10"
         id="path811" />
      <g
         id="g8618"
         transform="matrix(1,0,0,1.0014,787.5,-774.6)">
        <path
           d="m 375.8,2891.8 a 34,34 0 0 0 -4.8,20.3 c -7,-6.4 -9.2,-7.5 -18.3,-10 a 33.2,33.2 0 0 0 4.8,-20.2 c 7,6.2 9.3,7.4 18.3,9.9 m -11.7,-40.7 c -6.4,9.4 -7.8,12 -8.4,23.3 a 49.2,49.2 0 0 0 -20.9,-14.7 54.6,54.6 0 0 0 10,-23.7 c 6.3,9.4 8.9,10.7 19.3,15.1 m -3.7,-44.5 c -10,8.3 -12.4,10.5 -16.2,22.9 a 62.7,62.7 0 0 0 -18.6,-22.7 56,56 0 0 0 18,-22.8 c 4.4,12.1 6.7,14.5 16.8,22.6 m 12.7,-55 c -15.2,7.2 -18.9,9.5 -28.3,23.5 a 71.5,71.5 0 0 0 -15.6,-34.4 71,71 0 0 0 30,-23 c 1.8,16.7 3.8,20.5 13.9,34"
           fill="#ee1111"
           id="path812" />
        <path
           d="m 542.4,2684.5 c -18.9,26.3 -53,93.9 -23.3,173 21.8,53.1 69.8,92 124,108.5 l 12.3,-12 v -61.3 c -64.1,-22.1 -92.8,-78.2 -68,-145.5 z"
           fill="#ee1111"
           id="path813" />
        <path
           d="m 551.8,2697.6 c -63.6,107.2 -6.2,222.8 103.6,255 v -51.4 C 603.2,2882 547.6,2827 583.2,2741.2 Z"
           fill="#333333"
           stroke="#3366aa"
           stroke-linejoin="round"
           stroke-width="5.3"
           id="path814" />
        <path
           d="m 567.2,2832.1 c 1.8,10.6 -12.6,13.4 -12.5,2.3 0.1,-5.4 3,-1.9 6,-1.2 3.3,0.9 1.2,-8 -2.5,-15 5,3.3 8,7.2 9,13.9 v 0 m -11.9,-3 c 8.7,-2 2.2,-6.8 -2.9,-10.4 -9.9,-7.1 -6.8,-28.8 -0.6,-34.4 -10.4,4.1 -18,-0.8 -13.8,5.1 -7,3.4 2.3,5.4 5.2,1.3 -3.6,15.4 -12.7,38.4 12.1,38.3 v 0 m 7.6,-48.2 c 6.4,-0.1 5.3,7 -1.3,6.4 -3.3,-0.3 -1.3,-1.6 -0.5,-3 0.9,-1.6 -4.6,-1 -9.1,0.5 2.4,-2.3 6.7,-3.8 10.9,-3.9 v 0 m -10,27.4 c 1.7,5.4 12.3,4.5 10,-5.9 -0.8,-3.4 -3.3,-3.3 -5.8,-1.5 -2.8,2 -0.8,-9.8 -5,-17.7 a 57.2,57.2 0 0 0 0.8,25.1 v 0 m -14.3,-39.6 c -3,-7.3 8.4,-9.3 10.2,-1.4 0.8,3.9 -1,2.3 -3.2,2 -2.6,-0.4 2.3,10.5 6,15.3 -4.1,-2 -11,-11.2 -13,-15.9 v 0 m 24,-16.4 c -4.4,10 -8.1,-24.5 -16.6,-15.5 -5.4,5.7 2.3,10.4 6.6,12 5.8,2.2 2.2,28.6 -2.8,35 8.5,-7 16.8,-12.5 19.6,-18.7 0.7,-3.6 -4,-4.3 -6,-0.2 0.6,-2 -0.1,-14.1 -0.8,-12.6 v 0 m -2,-21 c 1,-7.8 11.8,-4.4 9.6,3.3 -1.1,3.8 -2,2.3 -3.8,1 -2.1,-1.6 -3.2,11 -2.1,16.8 a 43.4,43.4 0 0 1 -3.8,-21.1 v 0 m 74.6,187.9 c 3.9,-8 -3.8,-6 -9.9,-4.2 -11.7,3.2 -26.7,-12.9 -27.1,-21.2 -3.3,10.7 -12,13.5 -4.7,14 -1.8,7.6 5.6,1.5 4.3,-3.3 9.6,12.5 21.8,34 37.4,14.7 v 0 m -32.8,-36.2 c 4,-5.1 8.9,0.3 4.2,5 -2.3,2.3 -2,0 -2.6,-1.5 -0.7,-1.7 -3.7,3 -5.4,7.4 -0.2,-3.3 1.3,-7.6 3.8,-10.9 v 0 m 15.1,25 c 5.3,2 11.3,-6.8 1.7,-11.5 -3.2,-1.5 -4.7,0.5 -4.8,3.6 -0.3,3.4 -8.2,-5.6 -16.8,-7.3 a 57,57 0 0 0 20,15.2 v 0 m -39.8,-13.8 c -7.7,-2.3 -2,-12.4 5.2,-8.8 3.5,1.8 1.3,2.1 -0.5,3.7 -2,1.8 9.7,4.8 15.7,5 a 42.3,42.3 0 0 1 -20.4,0 v 0 m 2.2,-28.9 c 5,9.6 -24,-9.1 -22.5,3.1 1,7.8 9.6,4.9 13.6,2.5 5.3,-3.2 23.5,16.3 25.3,24.2 0,-11 1,-21 -2.1,-27 -2.4,-2.8 -5.9,0.4 -4,4.6 -1.1,-1.8 -11,-8.9 -10.3,-7.4 v 0 m -17.6,-11.6 c -5.4,-5.7 4,-12 8.7,-5.4 2.2,3.2 0.5,2.9 -1.7,3.5 -2.5,0.7 6.6,9.4 11.8,12.3 a 43.4,43.4 0 0 1 -18.8,-10.4 v 0"
           fill="#eecc55"
           stroke="#333333"
           stroke-linecap="round"
           stroke-linejoin="round"
           id="path815" />
        <g
           transform="matrix(-0.88620358,0.46329604,0.46329604,0.88620358,869.06194,2124.1864)"
           id="g817">
          <path
             d="m 586.7,434 c -2.5,-0.8 -4,-0.4 -4.5,0.6 -0.4,1 -0.5,2.8 2.5,4 -1.5,2.7 -0.2,3.6 0.5,3.9 0.8,0.3 2.2,0.6 3.5,-2.6 3.5,2 4,0.2 4.4,-0.5 0.3,-0.6 1,-2.3 -2.3,-3.5 1.3,-2.8 -0.1,-4.3 -0.9,-4.6 -0.8,-0.3 -2,0.1 -3.2,2.7 v 0"
             fill="#eecc55"
             stroke="#333333"
             stroke-linecap="round"
             stroke-linejoin="round"
             id="path816" />
          <path
             d="m 585.9,437.8 c 0.3,0.6 0.8,1 1.6,1 0.7,0 1.4,-0.2 1.8,-0.8 0.5,-0.6 0.6,-1.3 0.3,-2 a 1.8,1.8 0 0 0 -1.6,-1 c -0.7,0 -1.4,0.3 -1.8,0.9 a 1.9,1.9 0 0 0 -0.3,1.9"
             id="path817" />
        </g>
        <g
           transform="matrix(-0.19765734,0.98027117,0.98027117,0.19765734,284.07467,2231.4714)"
           id="g819">
          <path
             d="m 586.7,434 c -2.5,-0.8 -4,-0.4 -4.5,0.6 -0.4,1 -0.5,2.8 2.5,4 -1.5,2.7 -0.2,3.6 0.5,3.9 0.8,0.3 2.2,0.6 3.5,-2.6 3.5,2 4,0.2 4.4,-0.5 0.3,-0.6 1,-2.3 -2.3,-3.5 1.3,-2.8 -0.1,-4.3 -0.9,-4.6 -0.8,-0.3 -2,0.1 -3.2,2.7 v 0"
             fill="#eecc55"
             stroke="#333333"
             stroke-linecap="round"
             stroke-linejoin="round"
             id="path818" />
          <path
             d="m 585.9,437.8 c 0.3,0.6 0.8,1 1.6,1 0.7,0 1.4,-0.2 1.8,-0.8 0.5,-0.6 0.6,-1.3 0.3,-2 a 1.8,1.8 0 0 0 -1.6,-1 c -0.7,0 -1.4,0.3 -1.8,0.9 a 1.9,1.9 0 0 0 -0.3,1.9"
             id="path819" />
        </g>
        <path
           d="m 88.7,2875.6 207,-202 m 239,0 120.7,168.4"
           fill="#eecc55"
           stroke="#333333"
           stroke-linecap="round"
           stroke-linejoin="round"
           stroke-width="5.3"
           id="path820" />
        <path
           d="m 589.6,2782.5 c 0,-38 24.5,-33.3 34,-31 v 62 c -9.3,-2 -34,7 -34,-31 z"
           fill="#ffffff"
           stroke="#333333"
           stroke-linecap="round"
           stroke-linejoin="round"
           stroke-width="3.2"
           id="path821" />
        <path
           d="m 289,2686.9 -136.8,133.3 a 446.7,446.7 0 0 1 38,24.6 l 97.9,-95.4 a 234.1,234.1 0 0 1 13.4,-41.4 h 8.5 z"
           fill="#3366aa"
           stroke="#ffffff"
           stroke-linejoin="round"
           stroke-width="5.3"
           id="path822" />
        <path
           d="m 182.2,2804.5 7,3.5 c 6.7,-2.6 9,5 7,11 -5.8,1.8 -13.4,-0.7 -10.7,-7.4 z m 25.9,-25.3 7,3.5 c 6.7,-2.5 9,5.1 7.1,11 -6,1.8 -13.5,-0.7 -10.8,-7.4 z m 26,-25.2 7,3.5 c 6.6,-2.6 9,5 7,11 -6,1.8 -13.5,-0.8 -10.8,-7.4 z m 25.8,-25.3 7,3.5 c 6.7,-2.5 9,5.1 7.1,11 -6,1.8 -13.5,-0.7 -10.8,-7.4 z m 23.3,-20 -13.2,4.5 -4.9,13 c 14.2,-5.3 19,10.8 15,23.2 -12.5,3.8 -28.5,-1.5 -22.8,-15.5 l -13.2,4.6 -5,13 c 14.3,-5.4 19.2,10.8 15,23.1 -12.4,3.9 -28.4,-1.5 -22.7,-15.5 l -13.2,4.6 -5,13 c 14.3,-5.3 19.2,10.8 15,23.2 -12.4,3.8 -28.4,-1.5 -22.7,-15.5 l -13.2,4.6 -5,13 c 14.3,-5.4 19.2,10.8 15,23.1 -12.5,3.9 -28.5,-1.5 -22.7,-15.5 l -13.2,4.6 -5,13"
           fill="none"
           stroke="#ffffff"
           stroke-linecap="round"
           stroke-linejoin="round"
           stroke-width="2.4"
           id="path823" />
        <path
           d="m 476.5,2691.7 c -27.7,78.8 -29.4,145.5 -3.4,200.9 23.4,49.8 65.3,86.1 121.8,118.2 l 45,-43.8 c -58.8,-31 -94.8,-62.3 -112.5,-100 -17.9,-38 -18.9,-85.5 5.7,-155.4 z"
           fill="#eecc55"
           id="path824" />
        <path
           d="m 605,2988.5 7.7,-14.8 c 2,-3.9 6.9,-5.4 11.2,-3.2 m -22.7,0.3 -8.1,14.5 c -2.1,3.8 0,9.1 4.3,11.3 4.3,2.2 9.7,1 11.6,-3 l 7.4,-14.9 m -32.4,-1.7 8.6,-14.3 c 2.3,-3.7 7,-5 11.1,-2.6 4.1,2.4 5.8,7.1 3.7,11 l -7.8,14.6 m -18.3,-26.6 -9,14 c -2.5,3.6 -0.6,9 3.6,11.5 4.1,2.5 9.5,1.5 11.7,-2.2 L 596,2968 m -51.5,-18.7 10.8,-12.8 a 8,8 0 0 1 11.3,-1 c 3.8,3 4.6,8 2,11.4 l -10,13.4 m 5.1,3.6 9.7,-13.5 a 8,8 0 0 1 11.2,-2 c 4,2.7 5.3,7.6 3,11.3 l -9,14 m -16.1,-27.8 -10.2,13.2 c -2.7,3.4 -1.2,9 2.8,11.8 3.9,2.8 9.4,2.3 11.9,-1.3 l 9.4,-13.8 m -31.5,-24.7 -11.4,12.3 c -2.9,3.2 -1.9,9 1.8,12 3.7,3.2 9.3,3.2 12,-0.2 l 10.5,-13 m -31,-9.4 11.8,-11.7 c 3.1,-3 8.1,-3 11.6,0.4 3.4,3.3 3.5,8 0.6,11.2 l -11,12.5 m -10.8,-30.4 -12.7,10.8 c -3.3,2.8 -2.9,8.7 0.4,12.2 3.3,3.5 9.2,4.3 12.2,1.2 l 11.6,-12 m -43.4,-33 14.5,-8.2 c 3.8,-2.2 8.3,-1.3 11,2.7 2.7,4 1.4,8.5 -2,11 l -13.6,9.8 m 3.8,5 13.2,-10 c 3.5,-2.7 8,-2.4 11.2,1.3 a 8,8 0 0 1 -0.6,11.3 l -12.1,11.4 m -7.4,-31.6 -13.8,9.4 c -3.6,2.5 -3.8,8.5 -0.9,12.4 3,3.8 8.4,5 11.8,2.3 l 13,-10.5 m -21.4,-33.2 -15,7.4 c -3.8,2 -4.9,8 -2.5,12.2 2.4,4.2 7.7,6 11.4,3.8 l 14.3,-8.6 m -25.7,-20 15.5,-6 c 4,-1.6 8.4,-0.2 10.5,4.2 2.1,4.4 0.3,8.6 -3.5,10.6 l -14.7,7.8 m 1.2,-32.3 -15.8,5.2 c -4.1,1.4 -6,7.2 -4.2,11.7 1.8,4.5 6.7,7.1 10.7,5.4 l 15.4,-6.5 m -26.9,-47.5 16.6,-1.7 a 7.9,7.9 0 0 1 8.9,7 c 0.7,4.8 -2,8.4 -6.3,9.3 l -16.3,3.4 m 1.4,6.1 16.2,-3.8 a 7.9,7.9 0 0 1 9.7,5.6 7.8,7.8 0 0 1 -5,10 l -15.6,5.7 m 5.8,-31.9 -16.4,3 c -4.3,0.8 -7,6.2 -5.8,11 1.1,4.6 5.7,8 9.9,6.8 l 16,-4.3 m -6.1,-39 -16.7,0.8 c -4.3,0.2 -7.7,5.2 -7.2,10 0.5,4.8 4.6,9 8.9,8.4 l 16.5,-2.5 m -15.6,-28.2 h 16.7 c 4.3,0 7.8,3.6 8,8.4 0.2,4.8 -3.2,8.1 -7.5,8.4 l -16.6,1.2 m 13.8,-29.2 -16.7,-1.3 c -4.3,-0.3 -8.2,4.2 -8.3,9 -0.1,4.8 3.5,9.5 7.8,9.5 l 16.7,-0.4 m -8.3,-53.8 16.3,3.4 c 4.3,0.8 7,5 6.1,9.8 -0.9,4.8 -4.8,7.4 -9,6.8 l -16.6,-2.4 m -0.8,6.2 16.6,2 c 4.3,0.5 7.3,4 7,8.8 -0.3,4.8 -4.1,8.2 -8.4,8 l -16.7,-1 m 17,-27.5 -16.5,-2.7 c -4.3,-0.7 -8.5,3 -9.2,7.7 -0.7,4.7 2.4,9.8 6.8,10.2 l 16.5,1.7 m 7.1,-39.3 -16,-4.3 c -4.3,-1.1 -8.8,2.4 -9.9,7 -1.1,4.6 1.5,10 5.8,10.8 l 16.4,3 m 21.4,-38 c -1.6,4.5 -6,6.9 -10.1,5.5 l -15.9,-5.1 m -1.8,6 15.9,4.8 a 8,8 0 0 1 5.3,10.1 c -1.2,4.7 -5.5,7.3 -9.7,6.3 l -16.2,-4 m 21.4,-24.2 -15.8,-5.6 c -4,-1.4 -8.9,1.8 -10.3,6.4 -1.4,4.6 0.9,9.6 5,10.8 l 16,4.6"
           fill="none"
           stroke="#333333"
           stroke-linecap="round"
           stroke-linejoin="round"
           stroke-width="4.3"
           id="path825" />
        <path
           d="m 287,2682.2 -31.4,30.6 h 307.2 l -22,-30.6 z"
           fill="#eecc55"
           stroke="#333333"
           stroke-width="3.2"
           id="path826" />
        <path
           d="m 279.1,2689.8 c 5.2,0.1 10.4,15.3 15.6,15.3 5.2,0 10.4,-15.3 15.6,-15.3 5.2,0 10.4,15.3 15.6,15.3 5.2,0 10.4,-15.3 15.6,-15.3 5.2,0 10.4,15.3 15.6,15.3 5.2,0 10.4,-15.3 15.6,-15.3 5.2,0 10.4,15.3 15.6,15.3 5.2,0 10.5,-15.3 15.7,-15.3 5.2,0 10.4,15.3 15.6,15.3 5.2,0 10.4,-15.3 15.6,-15.3 5.2,0 10.4,15.3 15.6,15.3 5.2,0 10.4,-15.3 15.6,-15.3 5.2,0 10.4,15.3 15.7,15.3 5.3,0 10.4,-15.3 15.6,-15.3 5.2,0 10.4,15.3 15.6,15.3 5.2,0 10.4,-15.3 15.6,-15.3 5.2,0 10.4,15.3 15.6,15.3 2.5,0 5,-3.5 7.6,-7.2"
           fill="none"
           stroke="#333333"
           stroke-width="4.3"
           id="path827" />
        <path
           d="M 448.7,2515.6 322,2527.1 c -15.8,63.3 0.6,117.7 13,149.4 9.9,25.6 53.8,25.1 89.4,4 h 59.4 c 0,0 -35.5,-164 -35.2,-164.9 z"
           fill="#ffffff"
           id="path828" />
        <path
           d="m 520.8,2663.9 c -4.2,-25.3 -5,-118.5 -13.5,-142.8 H 431 c 8.8,24.8 6.8,129.8 16.9,149 3.4,6.6 10.8,11.7 18,8.5 3.7,3.4 8.6,5.2 13,3.2 4.7,2.4 10.7,3 13.7,0.5 4.5,1.5 9.9,1.1 13.1,-1.2 3.7,1 8,0.8 11.8,-0.7 a 17.5,17.5 0 0 0 9.4,3 18,18 0 0 0 18,-16.6 c 0.4,-7.6 -5.2,-14.6 -12.9,-14.4 -5.8,0.2 -11.5,5.2 -11.3,11.5 z M 322,2527.4 l -6.4,0.2 c -11.7,50.6 -11.6,110.3 -16.3,128.7 -2.1,-0.6 -2.6,-4 -12.2,-0.7 -7,3.6 -9.4,12.4 -6,19 6.3,10.3 17.5,10.3 26.1,3 -0.3,4.3 5.4,8.6 9.9,5.1 2.5,-2 4,-4.2 5.5,-7.7 0.1,8.5 7.4,13 15,6.7 a 26.1,26.1 0 0 1 -2.7,-5.2 c -12.3,-31.7 -28.7,-86 -13,-149.1 z"
           fill="#eecc55"
           id="path829" />
        <path
           d="m 352.4,2650 c 5,-1.3 23.8,-1 30.9,0.6 -0.3,-6.5 -9.5,-2.4 -15.4,-6.4 -6.1,3.6 -15.4,1.4 -15.5,5.8 z"
           fill="#3366aa"
           stroke="#3366aa"
           stroke-linecap="round"
           stroke-linejoin="round"
           stroke-width="4.3"
           id="path830" />
        <path
           d="m 396.8,2570.5 a 3,2.6 0 1 0 5.8,0 3,2.6 0 1 0 -5.8,0 z"
           fill="#3366aa"
           stroke-width="0.5"
           id="path831" />
        <path
           d="m 388.6,2562.1 c 4.4,1.2 30,5 37.3,5.4 -0.1,1.8 -17.1,0.8 -23,0 -5.8,-0.7 -14.3,-3.4 -14.3,-5.4 z"
           fill="#3366aa"
           stroke="#3366aa"
           stroke-width="2.8"
           id="path832" />
        <path
           d="m 421.3,2569 c -7.1,8.9 -21.7,10.9 -35.8,2.8"
           fill="none"
           stroke="#3366aa"
           stroke-width="2.8"
           id="path833" />
        <path
           d="m 393.1,2570.4 a 6.6,6 0 1 0 13.1,0 6.6,6 0 1 0 -13,0 z"
           fill="none"
           stroke="#3366aa"
           stroke-width="2.4"
           id="path834" />
        <path
           d="m 345.1,2570.7 a 2.5,2.4 0 1 1 -5,0 2.5,2.4 0 1 1 5,0 z"
           fill="#3366aa"
           stroke-width="0.4"
           id="path835" />
        <path
           d="m 355.2,2562.3 c -3.7,1 -25.2,4.4 -31.5,4.7 0.1,1.6 14.5,0.7 19.5,0 5,-0.6 12,-3 12,-4.7 z"
           fill="#3366aa"
           stroke="#3366aa"
           stroke-width="2.8"
           id="path836" />
        <path
           d="m 327.7,2568.3 c 5.8,8.3 17.4,12.1 30.2,2.4"
           fill="none"
           stroke="#3366aa"
           stroke-width="2.8"
           id="path837" />
        <path
           d="m 348.3,2570.7 a 5.7,5.3 0 1 1 -11.4,0 5.7,5.3 0 1 1 11.4,0 z"
           fill="none"
           stroke="#3366aa"
           stroke-width="2.4"
           id="path838" />
        <path
           d="m 385.4,2550.6 a 54,54 0 0 1 40,2.4 m -66.8,-0.8 c -14.6,-9.7 -28.2,-2 -32.3,0.3"
           fill="none"
           stroke="#3366aa"
           stroke-linecap="round"
           stroke-width="5.1"
           id="path839" />
        <path
           d="m 494.6,2521.1 c 9,25.8 8.8,126 15,147.2 a 20,20 0 0 0 2,5.4 c 4.6,8.9 16,12.6 25,7.2 7.3,-4.5 10.8,-14.5 6.5,-22 -3.4,-6 -11.3,-8.5 -17.3,-4.4 -4.5,3.1 -6.6,9.6 -3.5,14.1 2.2,3 6.8,4.3 9.8,1.4 1.6,-1.5 2.5,-4.8 0.3,-6 M 321.2,2633.5 C 318,2663 314,2674 302,2681 a 17,17 0 0 1 -9,1.5 c -8.3,-1 -14.6,-8.4 -13.2,-16.8 1.2,-7 7.8,-12.5 14.8,-11.4 5.5,0.8 9.8,6 8.5,11.9 -1,4.2 -5.2,7.7 -9.6,6.6 -2.9,-0.8 -5.2,-3.9 -4,-7 0.7,-1.5 3,-3.1 4.5,-1.8 m 83.5,-4.2 c -8,3.6 -12.8,3.2 -19.2,0.8 m 20.7,-41 c 3.2,15.7 -11,8.3 -14,5.5 -10.4,8.3 -16.7,-0.6 -14.4,-8.8 2,-6.6 8.3,-36 8,-43.3 m 65.1,-6.2 c 0.7,-4.3 -11,-7.7 -18,-9 -4.7,-0.9 -16,-0.2 -18,1 -1.7,3.5 -4.3,13.3 -2.8,17.5 2.8,8 7,8.7 11.3,12 m -70.6,-21.9 c -0.6,-3.7 10.5,-6.6 15.3,-7.8 4.8,-1.2 13.5,-0.2 15.1,0.8 1.4,3 3.7,11.5 2.4,15.2 -2.4,7 -6,7.6 -9.6,10.4 m -33.1,-57.5 c -13.4,52 -13.3,111 -16.3,128.7 m 29.6,2.9 c -6,14.3 -6.8,19.5 -11.9,23.6 -4.4,3.5 -10,-0.5 -9.7,-4.5 m 30.3,3.4 c -7.6,6.4 -14.8,1.8 -15,-6.6 m -24.3,-2.7 c 16.6,-7.6 11.7,-47.6 18.1,-71.8 m 5.6,-73.5 c -15.9,63.3 0.6,117.7 13,149.5 12,31.1 74.7,23.6 111,-12.7 m 74.8,1.4 C 516.5,2641.9 516,2545.8 507.2,2521 m 11,159.1 c -7.2,3.2 -17.2,1 -20,-5 -9.3,-19.9 -7.6,-129.3 -16.3,-154.1 m 23.9,160.1 c -5.5,4 -17.3,2 -20.2,-4.6 -8.7,-20.1 -7.6,-130.7 -16.4,-155.5 m 9.7,161 c -7.2,3.1 -15,-4 -18.4,-10.5 -10,-19.3 -8,-125.7 -16.7,-150.5 m 49.3,161 c -4.6,4.5 -17.2,0 -20,-6.1 -9.3,-19.8 -7.8,-130.1 -16.6,-154.9 m 9.5,157.5 c -7.1,3.2 -14.6,-1.8 -18,-8.4 -10.2,-19.3 -8.1,-124.3 -16.9,-149.1 m -57,152.4 c -3.9,-1 -8,-1.2 -12,-0.3"
           fill="none"
           stroke="#3366aa"
           stroke-linecap="round"
           stroke-width="4.3"
           id="path840" />
        <path
           d="m 281.5,2762.2 a 10726,10726 0 0 1 -83.5,83.3 c 41.2,30.7 76,72.8 88.7,123.5 12,47.4 6.7,101 -6.8,147.6 h 27 a 813,813 0 0 0 35.5,-105.2 c 8,-32.2 13.3,-69.3 -3.8,-99.3 -14,-24.7 -35.9,-45.1 -47,-71.8 a 149.5,149.5 0 0 1 -10.1,-78.1 z"
           fill="#ee1111"
           stroke="#333333"
           stroke-linejoin="round"
           stroke-width="5.3"
           id="path841" />
        <path
           d="m 508.8,2523.3 42,-73 H 263.9 l 51.4,76 c 58.3,-4.6 125.8,-10.6 193.5,-3 z"
           fill="#ee1111"
           stroke="#333333"
           stroke-linecap="round"
           stroke-linejoin="round"
           stroke-width="4.7"
           id="path842" />
        <path
           d="m 530.7,2450.2 -28.9,41.9 -46.4,-2.5 9.3,-39.4 m -181,0 36.1,41.9 46.5,-2.5 -19.3,-39.4 m 20.2,0 20,39 h 48.3 l 9.6,-39"
           fill="none"
           stroke="#ffffff"
           stroke-linejoin="round"
           stroke-width="6"
           id="path843" />
        <path
           d="m 407.4,2501.9 c 35.1,0 71.6,2 109.4,6.5 l -8,15 c -67.7,-7.7 -135.2,-1.8 -193.5,3 l -9.9,-17.5 a 757,757 0 0 1 102,-7 z"
           fill="#333333"
           id="path844" />
      </g>
      <use
         transform="rotate(180,1159.6,2144.3)"
         width="744.09998"
         height="1052.4"
         xlink:href="#g8618"
         id="use844" />
      <g
         id="g8519"
         transform="matrix(1,0,0,1.0014,787.5,-774.6)">
        <path
           d="m 655.5,2491.6 c -30.9,15 -15.7,74.8 -25.2,104.2 l -6.5,12 h 31.7 z"
           fill="#ee1111"
           stroke="#333333"
           stroke-width="4.3"
           id="path845" />
        <path
           d="m 651.5,2576.2 c -6.4,0.2 -13,3.3 -19.8,6 -7.2,1.5 -16,1.2 -22.6,2.2 a 130,130 0 0 0 46.4,6.5 v -14.4 a 18.5,18.5 0 0 0 -4,-0.3 z"
           fill="#eecc55"
           stroke="#333333"
           stroke-linecap="round"
           stroke-linejoin="round"
           stroke-width="4.3"
           id="path846" />
        <g
           transform="translate(0,2388.7)"
           id="g848">
          <path
             d="m 649,93.2 a 14.5,14.5 0 0 0 0,29 c 2.4,0 4.6,-0.5 6.5,-1.5 v -26 a 14.5,14.5 0 0 0 -6.4,-1.5 z"
             fill="#eecc55"
             stroke="#333333"
             stroke-linecap="round"
             stroke-linejoin="round"
             stroke-width="4.3"
             id="path847" />
          <path
             d="m 635.6,107.6 h 20.5 M 636.3,114 H 652 M 636.2,101.5 H 652"
             fill="none"
             stroke="#333333"
             stroke-width="4.3"
             id="path848" />
        </g>
        <g
           transform="translate(0,2388.7)"
           id="g854">
          <path
             d="m 623.8,219.2 v 489.6 l 31.7,31.7 V 219.2 Z"
             fill="#eecc55"
             stroke="#333333"
             stroke-width="4.3"
             id="path849" />
          <path
             d="m 642.8,727.3 c 2.9,-2.1 7.2,-2.5 7.2,-7.7 0,-5.2 -15.3,-10.4 -15.3,-15.7 0,-5.2 15.3,-10.4 15.3,-15.6 0,-5.2 -15.3,-10.4 -15.3,-15.6 0,-5.2 15.3,-10.4 15.3,-15.6 0,-5.2 -15.3,-10.5 -15.3,-15.7 0,-5.2 15.3,-10.4 15.3,-15.6 0,-5.2 -15.3,-10.4 -15.3,-15.6 0,-5.2 15.3,-10.4 15.3,-15.7 0,-5.3 -15.3,-10.6 -15.3,-15.8 0,-5.2 15.3,-10.4 15.3,-15.6 0,-5.2 -15.3,-10.4 -15.3,-15.6 0,-5.2 15.3,-10.4 15.3,-15.6 0,-5.2 -15.3,-10.4 -15.3,-15.7 0,-5.2 15.3,-10.4 15.3,-15.6 0,-5.2 -15.3,-10.4 -15.3,-15.6 0,-5.2 15.3,-10.4 15.3,-15.6 0,-5.2 -15.3,-10.4 -15.3,-15.7 0,-5.2 15.3,-10.4 15.3,-15.6 0,-5.2 -15.3,-10.4 -15.3,-15.6 0,-5.2 15.3,-10.4 15.3,-15.5 0,-5.2 -15.3,-10.4 -15.3,-15.6 0,-5.2 15.3,-10.4 15.3,-15.6 0,-5.2 -15.3,-10.4 -15.3,-15.6 0,-5.2 15.3,-10.4 15.3,-15.6 0,-5.2 -15.3,-10.5 -15.3,-15.7 0,-5.2 15.3,-10.4 15.3,-15.6 0,-5.2 -15.3,-10.4 -15.3,-15.6 0,-5.2 15.3,-10.4 15.3,-15.6 0,-5.2 -15.3,-10.4 -15.3,-15.6 0,-5.2 15.3,-10.4 15.3,-15.6 0,-5.2 -15.3,-10.4 -15.3,-15.6"
             fill="none"
             stroke="#333333"
             stroke-width="4.3"
             id="path850" />
          <path
             d="M 629.2,236.4 V 705.3"
             fill="#eecc55"
             stroke="#3366aa"
             stroke-linecap="round"
             stroke-linejoin="round"
             stroke-width="5.3"
             id="path851" />
          <g
             transform="rotate(-39.7,545,381.6)"
             id="g853">
            <path
               d="m 622.5,425.5 c 2,-4.5 6.6,-6.5 10.1,-4.6 3.6,2 5,7 3,11.5 -2,4.5 -6.6,6.5 -10.2,4.6 -3.6,-1.9 -4.9,-7 -2.9,-11.5 z"
               fill="#ffffff"
               stroke="#333333"
               stroke-width="3.2"
               id="path852" />
            <path
               d="m 607.6,417 c 2,-4.4 7,-6.3 11,-4 16,8.5 6.5,6 4.3,11.8 -2.3,6.1 0.2,12.4 -11.6,4.2 a 9.8,9.8 0 0 1 -3.7,-12 z"
               fill="#ffffff"
               stroke="#333333"
               stroke-linejoin="round"
               stroke-width="3.2"
               id="path853" />
          </g>
        </g>
        <path
           d="m 580.7,2571 a 72,72 0 0 0 74.8,52.5 v -32.6 a 129.7,129.7 0 0 1 -74.8,-20 z"
           fill="#eecc55"
           stroke="#333333"
           stroke-linejoin="round"
           stroke-width="4.3"
           id="path854" />
      </g>
      <use
         transform="rotate(180,1159.6,2144.3)"
         width="744.09998"
         height="1052.4"
         xlink:href="#g8519"
         id="use854" />
    </g>
    <use
       transform="translate(1619.7)"
       xlink:href="#u41541"
       id="use855" />
    <use
       transform="translate(1619.9)"
       xlink:href="#u41543"
       id="use856" />
    <use
       transform="translate(0,315)"
       xlink:href="#frame"
       id="use857" />
    <use
       id="u19056"
       transform="matrix(0.8808,0,0,0.8808,1991.41,-41.8)"
       xlink:href="#diam" />
    <use
       id="u19268"
       transform="rotate(180,2126,472.5)"
       xlink:href="#u19056" />
    <use
       transform="translate(2024.9,730)"
       style="stroke:#ee1111"
       xlink:href="#J"
       id="use858" />
    <use
       transform="rotate(180,1113.75,107.5)"
       style="stroke:#ee1111"
       xlink:href="#J"
       id="use859" />
  </g>
  <g
     id="club_1"
     transform="translate(-2025,-315)">
    <rect
       id="card"
       x="0.69999999"
       y="0.69999999"
       width="201.10001"
       height="313.60001"
       rx="9"
       ry="9"
       fill="#ffffff"
       stroke="#333333"
       stroke-width="1.4" />
  </g>
</svg>
