<?xml version="1.0" encoding="UTF-8" standalone="no"?>
<svg
   width="202.5"
   height="315"
   version="1.1"
   id="svg1018"
   xmlns:xlink="http://www.w3.org/1999/xlink"
   xmlns="http://www.w3.org/2000/svg"
   xmlns:svg="http://www.w3.org/2000/svg">
  <defs
     id="defs1018" />
  <path
     id="J"
     d="m 9,-699.1 c 0,4.2 3,6.5 6.7,6.5 3.7,0 6.7,-2.7 6.7,-6.5 v -20.4 m -1.9,-0.5 h 3.9"
     fill="none"
     stroke-linecap="square"
     stroke-width="3.5" />
  <g
     id="club_jack"
     transform="translate(-2025,-630)">
    <path
       id="frame"
       d="M 2194.1,281.3 H 2058 V 33.6 h 136.1 z"
       fill="none"
       stroke="#3366aa"
       stroke-linejoin="round"
       stroke-width="2.4" />
  </g>
  <g
     id="heart_1"
     transform="translate(-2025,-630)">
    <use
       id="u41664"
       transform="rotate(180,101.3,787.6)"
       xlink:href="#heartS" />
    <path
       id="heart"
       d="M 101.3,810.3 C 91.3,795.3 79,788 79,776.8 c 0,-6.2 4.7,-12 11,-12 6.6,0 10.6,5.2 11.2,12 0.7,-6.8 4.7,-12 11.2,-12 6.4,0 11,5.8 11,12 0,11.2 -12.1,18.5 -22.1,33.5 z"
       fill="#ee1111" />
    <use
       id="heartS"
       transform="matrix(0.4498,0,0,0.4498,-28.4,334.3)"
       xlink:href="#heart" />
  </g>
  <g
     id="heart_3"
     transform="translate(-2025,-630)">
    <use
       id="u41685"
       transform="translate(405)"
       xlink:href="#heartS" />
    <use
       id="u41687"
       transform="translate(405)"
       xlink:href="#u41664" />
  </g>
  <g
     id="heart_jack"
     transform="translate(-2025,-630)">
    <use
       transform="rotate(180,1113.75,472.5)"
       xlink:href="#card"
       id="use557" />
    <g
       transform="matrix(0.2407,0,0,0.2666,1870.2,179)"
       id="g592">
      <path
         d="m 1346.3,2314.7 v -181.5 c -56,-50 -102.3,-74.2 -147,-89.8 -44.7,-15.6 -152.6,-16.6 -198,3 -45.4,19.6 -167.5,103.4 -221.8,204.3 v 181.6 c 56,50 102.4,74.1 147,89.8 44.5,15.6 152.6,16.6 198.1,-3.1 45.5,-19.7 167.4,-103.3 221.7,-204.3 z"
         fill="#333333"
         id="path557" />
      <g
         id="g8100"
         transform="matrix(1,0,0,1.0019,-107.2,-637.6)">
        <path
           d="m 1297.9,2951.4 c 43.3,-34.8 110.2,-36.5 155.7,-4.7 v -181.1 a 448.3,448.3 0 0 0 -112,-75.6 c 26.3,119 -12.5,200.6 -43.7,261.4 z"
           fill="#ee1111"
           id="path558" />
        <path
           d="m 1207.9,2664.3 c -38.3,0.3 -76.7,5 -99.4,14.8 h -0.2 a 244.8,244.8 0 0 1 26,63.6 c 10.2,35.8 3.7,74.1 -10,108 a 484.6,484.6 0 0 1 -12,26.5 h 151.8 a 323,323 0 0 0 21.8,-71.5 c 7.7,-38.4 1.6,-77.8 -8,-115.2 a 320,320 0 0 0 -5.9,-22.3 444.6,444.6 0 0 0 -64.1,-3.9 z"
           fill="#3366aa"
           stroke="#3366aa"
           stroke-linecap="square"
           stroke-width="5.3"
           id="path559" />
        <g
           transform="translate(798.1,2388.7)"
           id="g565">
          <g
             id="g561">
            <path
               d="m 655.5,86.3 -33.6,35.3 V 348 l 33.6,26.2 z"
               fill="#eecc55"
               stroke="#3366aa"
               stroke-linejoin="round"
               stroke-width="4.3"
               id="path560" />
            <path
               d="m 655.5,103 -23.9,25.5 v 228.3 l 3.1,2.4 0.2,0.2 20.6,16.3 z"
               fill="#ee1111"
               stroke="#3366aa"
               stroke-linejoin="round"
               stroke-width="4.3"
               id="path561" />
          </g>
          <g
             transform="translate(2,8.6)"
             id="g564">
            <path
               d="m 549.9,100.1 c -18.2,28.5 -16.4,69.2 -3.1,117 16.4,-19.7 47,-31 73.2,-44.9 v -24.6 c -45.8,-21.2 -61.1,-35 -70.1,-47.5 z"
               fill="#ffffff"
               stroke="#333333"
               stroke-linecap="round"
               stroke-linejoin="round"
               stroke-width="4.3"
               id="path562" />
            <path
               d="m 543.6,158.3 c 9.6,-3.4 12,-7.1 19.5,-14 16.1,6.9 39.8,10.6 56.6,14 -16.8,3 -40.5,6.2 -56.6,13.3 a 40.6,40.6 0 0 0 -19.5,-13.3 z"
               fill="none"
               stroke="#333333"
               stroke-linecap="round"
               stroke-linejoin="round"
               stroke-width="4.3"
               id="path563" />
            <path
               d="m 563.5,171.4 a 79,79 0 0 1 -12.3,40 c -10.6,-45.4 -11.6,-85.4 2.6,-106 6,12.8 8.5,25.6 9.7,38.4"
               fill="none"
               stroke="#333333"
               stroke-linecap="round"
               stroke-linejoin="round"
               stroke-width="4.3"
               id="path564" />
          </g>
        </g>
        <path
           d="m 941.2,2723.4 c 0,0.1 0.3,1.7 -0.7,5.2 -1.3,4.5 -10,5.5 3.6,13 l -6.6,45.6 c 11.3,0 10.9,5.5 14.3,9 a 592,592 0 0 1 31,-29.9 c -6,-22.5 -41.3,-42.5 -41.6,-42.9 z"
           fill="#ffffff"
           stroke="#333333"
           stroke-linecap="round"
           stroke-linejoin="round"
           stroke-width="4.3"
           id="path565" />
        <path
           d="m 929.7,2754.5 c -1.2,3.2 0.6,7 4.1,8.2 13.8,5.1 7,0.9 8.8,-3 2,-4.3 6.7,-5.8 -4.4,-8.7 -3.6,-1 -7.3,0.3 -8.5,3.5 z m -0.7,14.2 c -0.9,3.4 1.3,6.8 4.8,7.8 14,3.8 7,0.2 8.4,-4 1.5,-4.3 6.1,-6.3 -5.1,-8 -3.7,-0.7 -7.2,0.9 -8.1,4.2 z m 4.2,-27.9 a 6.3,6.3 0 0 0 3.5,8.3 c 12.9,5.3 6.7,1 8.6,-3 2,-4 6.7,-5.5 -3.8,-8.6 -3.4,-1 -7,0.1 -8.3,3.3 z m -3.5,41.1 a 5.3,5.3 0 0 0 3.7,6.6 c 11,3 5.5,0 6.7,-3.5 1.3,-3.8 5,-5.6 -3.9,-7 -2.9,-0.4 -5.7,1 -6.5,4 z"
           fill="#ffffff"
           stroke="#333333"
           stroke-linecap="round"
           stroke-linejoin="round"
           stroke-width="4.3"
           id="path566" />
        <path
           d="m 912,2748 c -1.1,3.2 1.6,7.2 6.2,9 18,6.6 9,1.5 10.9,-2.4 2,-4.2 8,-5.2 -6.5,-9.4 -4.7,-1.3 -9.3,-0.4 -10.5,2.8 z m -1,16 c -0.8,3.3 2.3,7 7,8.3 18.3,4.9 9,0.7 10.4,-3.4 1.6,-4.3 7.4,-6 -7.2,-8.7 -4.8,-0.9 -9.2,0.4 -10.1,3.8 z m 5.8,-30 c -1.3,3.2 1,7.2 5.3,9 17,7 8.6,1.8 10.6,-2 2.1,-4.2 7.8,-5.1 -5.7,-9.5 -4.5,-1.4 -8.9,-0.7 -10.2,2.5 z m -1.1,44.2 c -0.8,2.9 1.5,6 5.2,7 14.5,3.9 7.1,0.4 8.4,-3.1 1.3,-3.8 6,-5.3 -5.6,-7.4 -3.7,-0.6 -7.3,0.6 -8,3.5 z m 27,-19.1 a 6.1,6.1 0 0 0 3.5,8 6.1,6.1 0 0 0 7.8,-3.8 6.1,6.1 0 0 0 -3.4,-8 6.1,6.1 0 0 0 -7.8,3.8 z m -0.4,13 a 6,6 0 0 0 4.1,7.5 c 3.2,0.9 6.4,-1.2 7.3,-4.5 0.9,-3.3 -1,-6.7 -4,-7.6 a 6.2,6.2 0 0 0 -7.4,4.5 z m 3.2,-26.4 c -1.3,3.2 0,6.7 2.8,8 2.9,1.1 6.3,-0.5 7.7,-3.6 1.4,-3.1 0,-6.8 -2.9,-8 -2.9,-1.2 -6.3,0.4 -7.6,3.6 z m -5.3,38.8 c -0.8,2.9 0.6,5.8 3,6.4 2.6,0.7 5.2,-1.1 6,-4 0.8,-2.9 -0.6,-5.8 -3.1,-6.4 -2.5,-0.7 -5.1,1.1 -6,4 z m 0.8,-56.2 c 0.8,-3.8 -1,-7.6 -4,-8.6 -3,-1 -6,1.3 -6.9,5 -0.8,3.8 1,7.6 4,8.6 3,1 6,-1.3 6.9,-5 z"
           fill="#ffffff"
           stroke="#333333"
           stroke-width="4.3"
           id="path567" />
        <path
           d="m 940.9,2723.2 c 25.2,-46.6 48.3,-23 80.3,-33.4 -18,35.4 -52,22.4 -80.3,33.4 z"
           fill="#eecc55"
           stroke="#333333"
           stroke-linecap="round"
           stroke-linejoin="round"
           stroke-width="4.3"
           id="path568" />
        <path
           d="m 948.3,2717.3 c 18.8,-17.9 35.2,-4 66,-22.4 m -52.3,9 -1.2,5 3.9,4.2 m 5.4,-13 -2,7 4.6,6.2 m 5.4,-14.2 -2.5,7 5,6.5 m 4.3,-13.8 -1.8,6.4 4.5,5.5 m 4.4,-11.5 -1.5,4.8 3.7,4.4 m 4.3,-9.7 -0.7,3.4 3.3,3.6"
           fill="none"
           stroke="#333333"
           stroke-linecap="round"
           stroke-linejoin="round"
           stroke-width="4.3"
           id="path569" />
        <path
           d="m 1058.5,2707.5 a 645.3,645.3 0 0 0 -44.8,32.7 64.8,64.8 0 0 1 12.4,34.6 64.4,64.4 0 0 1 -62.4,67.7 67.4,67.4 0 0 1 -41.7,-12.3 368.2,368.2 0 0 0 -31.2,45.5 124.8,124.8 0 0 0 76,22 119.1,119.1 0 0 0 115.4,-125.3 120,120 0 0 0 -23.7,-64.9 z"
           fill="#eecc55"
           id="path570" />
        <path
           d="m 1052.4,2710.4 10.3,18.4 -6.5,3 -4.6,-9 -6.2,3.7 8.1,17.2 13.4,-5 6,20.6 -7.1,1.3 -2.4,-9.8 -6.9,1.9 3.6,18.6 14.3,-1.4 v 21.6 l -7.2,-0.7 0.5,-10.1 h -7.2 l -1.9,18.8 14.1,2.6 -6.5,20.8 -6.6,-2.8 3.5,-9.5 -6.8,-2.2 -7.4,17.4 12.6,6.7 -12.3,18 -5.5,-4.7 6.2,-8 -5.9,-4.2 -12.2,14.6 10.1,10.1 -16.8,13.6 -4,-6 8.2,-6 -4.4,-5.6 -15.9,10.5 6.9,12.6 -20,8.4 -2,-6.9 9.4,-3.4 -2.6,-6.7 -18.2,5.7 3,14 -21.3,2.4 -0.2,-7.1 10,-0.7 -0.8,-7.1 -18.7,0.3 -1.3,14.3 -21.2,-3.6 2,-6.9 9.8,2.1 1.3,-7 -18.4,-4.8 -4.9,13.4 -19.5,-8.8 3.5,-6.2 9,4.5 3.1,-6.5 -17,-9.3"
           fill="none"
           stroke="#333333"
           stroke-linejoin="round"
           stroke-width="4.3"
           id="path571" />
        <path
           d="m 1009.5,2743.5 a 580.6,580.6 0 0 0 -84.3,82.7 62,62 0 0 0 38.1,11.1 59.3,59.3 0 0 0 57.4,-62.3 59.6,59.6 0 0 0 -11.2,-31.5 z"
           fill="#3366aa"
           id="path572" />
        <path
           d="m 906.3,2851.3 a 94.8,94.8 0 0 0 58.9,17.5 90.5,90.5 0 0 0 87.6,-95.2 91.1,91.1 0 0 0 -18.2,-49.5"
           fill="none"
           stroke="#333333"
           stroke-linecap="round"
           stroke-width="4.3"
           id="path573" />
        <path
           d="m 1003.3,2785.8 c 18,-5.2 11.5,-25 -6.2,-17.6 -8.6,3.7 -0.7,5.2 2.8,8.5 4,3.6 -12.4,5.8 -26.3,5.5 a 39.6,39.6 0 0 0 29.7,3.6 z m -17.8,29.7 c 7.8,17.8 -11.6,21 -13,8 -0.5,-4.3 0.8,-5.3 5,-5.9 4.4,-0.5 -5.3,-16.4 -14,-27.6 8.1,4.7 17,14.2 22,25.5 z m -17.7,3.8 c -0.6,17.2 -23.3,16.9 -20.2,-0.6 1.5,-8.6 5.3,-2.1 9.6,0.1 5,2.5 6.5,-12.6 2.5,-24.7 6.9,6.6 8.5,14.3 8,25.2 z m 28.8,-14.8 c 20.5,4 22,-14.3 7.7,-13.4 -4.8,0.4 -5.7,2 -6.8,6 -1,3.8 -14.3,-4 -27.8,-9.8 6.5,6.5 13.9,14.6 26.9,17.2 z"
           fill="#ffffff"
           id="path574" />
        <path
           d="m 916,2835.9 c 2,2.6 -1,13.2 2.3,14.7 3.2,1.6 11.2,-8.3 14.5,-7.1 3.3,1.2 3.3,14 6.8,14.7 3.4,0.8 9,-10.5 12.5,-10.1 3.5,0.4 6.5,12.8 10,12.7 3.5,-0.1 6.2,-12.4 9.8,-12.9 3.6,-0.5 9.3,10.8 12.7,9.9 3.4,-0.9 2.8,-13.6 6,-15 3.2,-1.4 12.1,7.8 15.1,6 3.1,-1.8 -1,-13.7 1.6,-16 2.7,-2.3 13.9,4 16.2,1.4 2.4,-2.7 -5,-13 -3,-16 2,-2.9 14.3,0 15.8,-3.3 1.4,-3.2 -8.7,-10.8 -7.7,-14.2 1,-3.4 13.6,-4.2 14.2,-7.7 0.5,-3.5 -11.5,-8.1 -11.4,-11.7 0,-3.5 12,-7.5 11.6,-11 -0.4,-3.6 -13,-5.1 -13.9,-8.6 -0.9,-3.5 10,-10.2 8.8,-13.6 -1.2,-3.3 -13.8,-2.1 -15.3,-5.4 -1.4,-3.2 8,-11.7 6.3,-14.8"
           fill="none"
           stroke="#333333"
           stroke-width="4.3"
           id="path575" />
        <path
           d="m 1010,3144.6 c -28.9,-120.5 9.8,-200.3 41.6,-262.3 16.4,-32 30.3,-59.6 34.5,-86.4 4.2,-26.8 -0.5,-54.6 -23.7,-91 10.9,-7 22,-14 34.5,-20.3 27.1,42.6 34.2,82 28.7,117.5 -5.5,35.6 -22.1,66.6 -38.4,98.4 -43.8,88.5 -63.1,151.5 -32.9,251.5"
           fill="#333333"
           stroke="#3366aa"
           stroke-linejoin="round"
           stroke-width="5.3"
           id="path576" />
        <path
           d="m 1032.2,3150.7 c -7.1,-7.4 -15,-11.2 -15.6,-14.5 -0.7,-3.3 1,-7 4.3,-7.7 3.4,-0.7 6,1.6 7.1,5 -0.4,-3.5 1,-6.6 4.5,-7.3 3.2,-0.6 6.2,1.6 7,4.8 0.8,3.3 -4.6,9.8 -7.3,19.7 m -7.5,-33.2 c -6.4,-8 -13.8,-12.4 -14.2,-15.8 -0.4,-3.3 1.7,-7 5,-7.3 3.4,-0.4 5.8,2.2 6.6,5.7 -0.1,-3.6 1.7,-6.6 5.2,-7 3.3,-0.3 6,2.2 6.4,5.5 0.5,3.3 -5.4,9.3 -9,19 m -4.3,-33.8 c -5.6,-8.5 -12.5,-14 -12.5,-17.5 0,-3.3 2.4,-6.4 5.8,-6.4 3.4,0 5.5,2.7 6,6.3 0.3,-3.6 2.3,-6.4 5.8,-6.4 3.3,0 5.8,3 5.9,6.3 0,3.4 -6.5,8.5 -11,17.7 m -0.6,-34 c -4.9,-9 -10.8,-15.1 -10.5,-18.5 0.3,-3.3 3.2,-6.4 6.6,-6 3.4,0.4 5.2,3.3 5.1,7 0.8,-3.6 3.2,-6 6.6,-5.7 3.3,0.4 5.3,3.4 5,6.7 -0.2,3.4 -7.6,7.8 -12.8,16.6 m 3.3,-33.9 c -3.7,-9.5 -8.9,-16.7 -8,-20 0.8,-3.2 3.9,-5.6 7.1,-4.8 3.4,0.8 4.8,4 4.3,7.5 1.2,-3.4 3.8,-5.6 7.2,-4.8 3.3,0.8 4.9,4.3 4.2,7.6 -0.7,3.3 -8.5,6.5 -14.8,14.5 m 7.4,-33.1 c -2.3,-10 -6.9,-17.4 -5.7,-20.6 1,-3.1 4.5,-5.4 7.6,-4.3 3.3,1.2 4.3,4.5 3.5,8 1.5,-3.2 4.4,-5 7.6,-3.9 3.2,1.2 4.5,4.7 3.4,7.8 -1,3.3 -9,5.9 -16.4,13 m 11,-32.2 c -1.4,-10.1 -5.2,-18 -3.8,-21 1.4,-3 4.9,-4.8 8,-3.5 3,1.5 3.9,4.8 2.7,8.2 1.8,-3 4.9,-4.7 8,-3.3 3,1.4 4,5.2 2.7,8.2 -1.4,3.2 -9.6,5 -17.5,11.4 m 13.7,-31 c -0.7,-10.3 -4.3,-18 -2.7,-21 1.5,-3 5.1,-4.7 8.1,-3.2 3,1.5 3.7,5 2.4,8.3 2,-3 5,-4.5 8.1,-3 3,1.5 3.8,5.3 2.4,8.3 -1.5,3 -10,4.7 -18.3,10.5 m 15.2,-30.4 c -0.5,-10.2 -4,-18 -2.5,-21 1.5,-2.9 5,-4.4 8,-3 3.1,1.6 3.8,5 2.5,8.3 2,-3 5,-4.6 8.2,-3.1 3,1.4 3.7,5.5 2.2,8.4 -1.5,3 -9.8,4.8 -18.4,10.4 m 15.2,-30.4 c -0.7,-10.2 -5,-17.4 -3.7,-20.6 1.3,-3 4.6,-4.7 7.7,-3.5 3.3,1.2 4.2,4.5 3.2,8 1.7,-3.2 4.6,-5 7.9,-3.8 3,1.2 4.1,5.2 2.9,8.3 -1.2,3.2 -9.6,5.8 -18,11.6 m 13,-31.4 c -2,-10 -7.3,-16 -6.6,-19.4 a 6,6 0 0 1 7,-4.8 c 3.4,0.6 4.9,3.7 4.5,7.3 1.1,-3.5 3.7,-5.8 7.1,-5.2 3.3,0.6 5,4.5 4.3,7.7 -0.6,3.3 -8.7,7.5 -16.3,14.4 m 7.8,-33 c -3.9,-9.5 -10.8,-14 -10.8,-17.4 0,-3.3 2.2,-6 5.5,-6.2 3.5,-0.2 5.8,2.4 6.2,6 0.3,-3.6 2.2,-6.5 5.6,-6.8 3.4,-0.2 6,3.3 6.1,6.6 0.1,3.4 -6.4,9.6 -12.6,17.8 m -0.4,-34 c -6.3,-8 -14,-10.5 -15,-13.8 a 6,6 0 0 1 3.8,-7.5 c 3.3,-1.1 6,0.8 7.4,4.1 -0.6,-3.5 0.5,-6.8 3.8,-8 3.1,-1 6.5,1.6 7.5,4.8 1,3.2 -3.8,11 -7.5,20.5 m -9.1,-32.7 c -8,-6.4 -16.3,-7.5 -17.8,-10.5 -1.5,-3 -0.7,-6.5 2.2,-8.2 3,-1.7 6.2,-0.3 8.2,2.7 -1.4,-3.4 -1,-6.8 2,-8.5 3,-1.6 6.8,0.2 8.4,3 1.6,3 -1.6,11.4 -3,21.5"
           fill="#ee1111"
           stroke="#ee1111"
           stroke-width="1.1"
           id="path577" />
        <path
           d="m 1108.4,2679 c -45.5,19.6 -167.4,103.1 -221.7,203.9 m 566.9,-117.3 c -56,-50 -102.4,-74 -147,-89.7"
           fill="none"
           stroke="#333333"
           stroke-linecap="round"
           stroke-linejoin="round"
           stroke-width="5.3"
           id="path578" />
        <path
           d="m 1212.4,2648.8 -5.8,-129.2 -109.5,4.5 c -6.7,18 -1.3,24.2 0.8,37.8 0.4,13.5 -11,40.4 -13.3,46 -2.7,7 6,14.3 20.4,11 3.5,2.4 -3.9,14 -3.1,17.8 3.4,0.1 6.3,2.4 3.6,6.2 3.3,10.4 -5.5,30.2 2.5,32.7 29,9 80,0.5 104.4,-26.8 z"
           fill="#ffffff"
           id="path579" />
        <path
           d="m 1200.7,2674.9 c 9.8,2.5 12.6,-0.1 17.4,-6.5 a 11.5,11.5 0 0 0 17,4.5 c 4.2,2.8 8.5,2.5 12.5,-0.1 3.3,2.7 7.7,2.8 11.7,0.1 3,2.8 8,3.9 11.8,0.5 4.1,4.5 9.2,4.5 12.2,0.2 3.4,5 8.8,4.8 14,1.3 3.4,3.5 9.6,3 14.3,-0.2 l 3,1.8 a 15.5,15.5 0 0 0 16.5,-1.4 c 6,-4.8 7.8,-14.3 3,-20.9 -4,-5.2 -11.5,-6.9 -16.5,-2.6 a 10.4,10.4 0 0 0 -3.2,10 c -8.5,-25.5 -18.3,-107.7 -29.7,-137.8 l -92,-4 c 4.5,12.2 8.7,46.1 13,78.8 3.5,35.7 -18.5,73.5 -43.3,77.2 0,0 13.6,3.3 20.3,-0.8 0.6,0.4 9.9,6 18,-0.1 z"
           fill="#eecc55"
           id="path580" />
        <path
           d="m 1147.4,2626.7 c 7.5,1.6 5.1,11 -6,10.3 -10.7,-0.7 -13.9,-9 -30,-11.3"
           fill="none"
           stroke="#3366aa"
           stroke-linecap="round"
           stroke-width="4.3"
           id="path581" />
        <path
           d="m 1125.7,2640.3 c -12.8,-0.2 -13.8,-2.7 -19.3,-1.6 -0.7,4.6 6,2.5 19.3,1.6 z"
           fill="#3366aa"
           stroke="#3366aa"
           stroke-linecap="round"
           stroke-linejoin="round"
           stroke-width="4.3"
           id="path582" />
        <path
           d="m 1118.7,2566.6 a 4.7,6.1 0 1 0 9.4,0 4.7,6.1 0 1 0 -9.4,0 z"
           fill="none"
           stroke="#3366aa"
           stroke-linejoin="round"
           stroke-width="2.5"
           id="path583" />
        <path
           d="m 1121.2,2566.6 a 2.1,2.7 0 1 0 4.2,0 2.1,2.7 0 1 0 -4.2,0 z"
           fill="#3366aa"
           stroke-width="0.4"
           id="path584" />
        <path
           d="m 1116.5,2558.8 c 3.8,1 26,4.9 32.5,5.2 -0.1,1.7 -15,0.7 -20,0 -5.2,-0.7 -12.5,-3.3 -12.5,-5.2 z"
           fill="#3366aa"
           stroke="#3366aa"
           stroke-linecap="round"
           stroke-linejoin="round"
           stroke-width="2.8"
           id="path585" />
        <path
           d="m 1148.2,2551.5 c -10.2,-5 -19.4,-7 -32.6,-5.7"
           fill="none"
           stroke="#3366aa"
           stroke-linecap="round"
           stroke-width="4.3"
           id="path586" />
        <path
           d="m 1147,2563.4 c 0.6,-4.2 -9.7,-7.2 -15.7,-8.7 -7.3,-2 -14,-0.2 -15.7,0.9 -1.4,3.4 -4,17.9 4.1,22.2 m 25.2,-12.4 c -6.2,8.5 -23.5,12.8 -30,2.6 m 200,94.8 c -8.7,-24.2 -18.6,-108.4 -30.2,-139 m 27,151 c -5.6,3.7 -13.1,3.7 -15.8,-2.2 -8.8,-19 -24,-127.7 -32.6,-151.6 m 34,154 c -5.5,3.7 -11.6,3.4 -14.3,-2.4 -8.8,-19 -22.8,-127.7 -31.5,-151.6 m 19.7,152.7 c -5.6,3.7 -11.3,1.7 -14,-4.2 -8.7,-19 -20.5,-125.8 -29.2,-149.8 m 55.2,154.1 c -3.4,4.9 -10.4,3.6 -13,-2.2 -8.8,-19 -21.7,-127.9 -30.4,-151.9 m 19.4,153.3 c -5.6,3.8 -11.6,1.9 -14.8,-4.4 -9.4,-18.4 -19.4,-124.9 -28.1,-148.9 m 31.3,153.2 a 11,11 0 0 1 -16.1,-4.3 c -9.4,-18.4 -18.3,-124.9 -27,-148.9 m 70.5,3.3 c 4.9,14.6 24.8,130.1 28.5,138.2 3.7,8 4.6,11 11,15.3 6,3.2 14,2 18.7,-3.3 5,-5.8 5,-15.3 -0.7,-20.7 -4.6,-4.4 -12.1,-4.6 -16.2,0.5 -3,3.9 -3,10.2 1,13.4 2.9,2.3 7.3,2.3 9.3,-1 1.1,-2 1,-5.3 -1.4,-6.2 m -90.7,14 c -5.5,3.8 -12.7,1.7 -16,-4.6 -9.3,-18.4 -17,-124.9 -25.7,-148.9 m 17.7,113.3 c -6.2,19 -4.5,27.7 -27.9,42.1 -6.7,4.1 -20.2,0.7 -20.2,0.7 24.9,-3.7 46.9,-41.6 43.3,-77.5 m 8.2,53 a 49.6,49.6 0 0 1 -12,22.4 c -8.6,8.1 -19.2,1.2 -19.2,1.2 m 35,-6.6 c -4.8,6.3 -7.1,9.3 -17,6.8 m 5,-76.8 c 0,66 -38.7,92 -98.8,78.3 -8,-2.5 1.9,-23.4 -1.4,-33.7 2.7,-3.8 -0.2,-6.2 -3.6,-6.2 -0.8,-3.8 6.6,-15.4 3,-17.8 -14.4,3.2 -23,-4 -20.3,-11 2.2,-5.7 13.7,-32.5 13.2,-46.1 -2,-13.6 -7.5,-19.7 -0.7,-37.8 m 8.3,94.8 7.7,-2.7"
           fill="none"
           stroke="#3366aa"
           stroke-linecap="round"
           stroke-linejoin="round"
           stroke-width="4.3"
           id="path587" />
        <path
           d="M 1119.3,2701.3 V 2687 h 18.5 v 7.1 h -9.3 v 7.2 H 1147 V 2687 h 18.5 v 7.1 h -9.3 v 7.2 h 18.5 V 2687 h 18.5 v 7.1 h -9.3 v 7.2 h 18.5 V 2687 h 18.5 v 7.1 h -9.3 v 7.2 h 18.5 V 2687 h 18.5 v 7.1 h -9.3 v 7.2 h 18.5 V 2687 h 18.5 v 7.1 h -9.3 v 7.2 h 14.1 m -14,168.2 h -8 v -7.2 h 9.2 v -7.2 h -18.5 v 14.4 h -18.4 v -7.2 h 9.2 v -7.2 H 1222 v 14.4 h -18.4 v -7.2 h 9.2 v -7.2 h -18.5 v 14.4 H 1176 v -7.2 h 9.2 v -7.2 h -18.5 v 14.4 h -18.4 v -7.2 h 9.2 v -7.2 H 1139 v 14.4 h -18.4 v -7.2 h 9.2 v -7.2 h -7.5"
           fill="none"
           stroke="#ffffff"
           stroke-linecap="round"
           stroke-linejoin="round"
           stroke-width="4.3"
           id="path588" />
        <path
           d="m 1097.9,2523.4 -37,-73.2 H 1319 l -34.8,73.2 c -52.4,-4 -125.4,-6.3 -186.3,0 z"
           fill="#ee1111"
           stroke="#333333"
           stroke-linecap="round"
           stroke-linejoin="round"
           stroke-width="4.3"
           id="path589" />
        <path
           d="m 1079.8,2450.2 24.8,42.7 47,-2.3 -12.1,-40.4 m 163.8,0 -22,42.2 -49,-1.8 13.7,-40.4 m -18.3,0 -10.1,39.9 -50.7,-0.4 -9.7,-39.5"
           fill="none"
           stroke="#ffffff"
           stroke-linejoin="round"
           stroke-width="6"
           id="path590" />
        <path
           d="m 1292.1,2506.8 -8,16.6 c -52.3,-4 -125.3,-6.3 -186.2,0 l -8.4,-16.6 c 66,-4.8 133,-7 202.6,0 z"
           fill="#333333"
           id="path591" />
        <path
           d="m 1277,2819.1 h -137.4 m 139.9,-80.3 h -137.4"
           fill="none"
           stroke="#ffffff"
           stroke-linecap="round"
           stroke-linejoin="round"
           stroke-width="6"
           id="path592" />
      </g>
      <use
         transform="rotate(180,1062.9,2282.7)"
         width="744.09998"
         height="1052.4"
         xlink:href="#g8100"
         id="use592" />
    </g>
    <use
       transform="translate(1619.7)"
       xlink:href="#u41685"
       id="use593" />
    <use
       transform="translate(1619.9)"
       xlink:href="#u41687"
       id="use594" />
    <use
       transform="translate(0,630)"
       xlink:href="#frame"
       id="use595" />
    <use
       id="u23898"
       transform="matrix(0.879,0,0,0.879,1991.4,-4.8)"
       xlink:href="#heart" />
    <use
       id="u24132"
       transform="rotate(180,2126,787.5)"
       xlink:href="#u23898" />
    <use
       transform="translate(2024.9,1360)"
       style="stroke:#ee1111"
       xlink:href="#J"
       id="use596" />
    <use
       transform="rotate(180,1113.75,107.5)"
       style="stroke:#ee1111"
       xlink:href="#J"
       id="use597" />
  </g>
  <g
     id="club_1"
     transform="translate(-2025,-630)">
    <rect
       id="card"
       x="0.69999999"
       y="0.69999999"
       width="201.10001"
       height="313.60001"
       rx="9"
       ry="9"
       fill="#ffffff"
       stroke="#333333"
       stroke-width="1.4" />
  </g>
</svg>
