<?xml version="1.0" encoding="UTF-8" standalone="no"?>
<svg
   width="202.50002"
   height="315"
   version="1.1"
   id="svg1018"
   xmlns:xlink="http://www.w3.org/1999/xlink"
   xmlns="http://www.w3.org/2000/svg"
   xmlns:svg="http://www.w3.org/2000/svg">
  <defs
     id="defs1018" />
  <path
     id="tJ"
     d="m -38.299994,11 v 1.3 h 2.2 v 13.4 c -0.1,0.7 -0.1,1.6 -0.7,2.1 -0.5,0.5 -1.4,0.5 -2,0.2 -0.5,-0.3 -0.7,-1 -0.7,-1.6 -0.3,-0.2 -0.8,0 -1.2,-0.1 -0.3,0 -0.3,0.4 -0.3,0.7 v 1.9 a 6,6 0 0 0 5.4,0.2 c 1,-0.5 1.6,-1.8 1.7,-3 0.2,-1.4 0,-2.9 0.1,-4.3 v -9.5 h 1.8 v -1.4 h -6.3 z m 3.2,20 a 5,5 0 0 0 -4.3,2.4 7,7 0 0 0 -0.4,5.2 c 0.5,1.8 2,3.1 3.8,3.4 1.7,0.3 3.6,-0.1 4.7,-1.5 a 6.4,6.4 0 0 0 1.3,-5.2 5,5 0 0 0 -2.9,-4 c -0.7,-0.2 -1.5,-0.3 -2.2,-0.3 z m 0.1,1.3 c 1,0 2,0.7 2.2,1.6 0.5,1.3 0.5,2.8 0.3,4.2 -0.1,1 -0.5,2 -1.5,2.5 -1,0.4 -2.5,0 -3,-1 a 7.5,7.5 0 0 1 -0.6,-4.2 c 0.1,-1 0.4,-2.2 1.4,-2.8 z m -2.6,11.6 v 1.3 h 1.7 v 12.5 h -1.7 v 1.4 h 5.3 v -1.4 h -1.6 v -2.6 l 1.2,-1.1 2.7,3.7 h -1.3 v 1.4 h 5.4 v -1.4 h -1.5 l -3.7,-5.1 2.8,-2.7 h 1.8 v -1.4 h -5 v 1.4 h 1.2 l -3.6,3.3 v -9.4 h -3.7 z m 2.6,17 c -1.7,0 -3.3,1 -4.2,2.4 a 7,7 0 0 0 -0.5,5.4 c 0.5,1.7 2,3 3.7,3.3 1.4,0.2 3,0 4.1,-0.7 1,-0.7 1.5,-1.7 1.7,-2.8 0,-0.3 -0.5,-0.1 -0.8,-0.1 -0.3,0 -0.6,-0.2 -0.9,0 l -0.4,1 c -0.4,0.7 -1.1,1.2 -2,1.3 -1,0.2 -2.2,-0.2 -2.7,-1.2 -0.4,-0.8 -0.6,-1.7 -0.6,-2.6 h 7.6 c 0,-1.7 -0.3,-3.5 -1.6,-4.7 -1,-0.9 -2.2,-1.3 -3.4,-1.2 z m 0,1.4 c 1,0 1.8,0.6 2.2,1.5 0.2,0.5 0.3,1.1 0.3,1.7 h -5 c 0,-1 0.4,-2.3 1.4,-2.9 0.3,-0.2 0.8,-0.3 1.2,-0.3 z m 4,11.5 c -1,0 -2.1,0.6 -2.8,1.5 v -1.2 h -3.8 v 1.4 h 1.7 v 7.7 h -1.7 v 1.4 h 5.8 v -1.4 h -2 v -5.3 c 0.1,-1 0.6,-2 1.6,-2.3 0.6,-0.1 1.4,-0.2 1.9,0.3 0.2,0.4 0.2,0.7 0.2,1.1 h 1.4 v -2.9 c -0.7,-0.2 -1.5,-0.3 -2.3,-0.3 z"
     stroke-width="0.5" />
  <g
     id="joker_black"
     transform="translate(6.0796738e-6,-1260)">
    <use
       transform="matrix(-1,0,0,1,202.5,1260)"
       xlink:href="#card"
       id="use974" />
    <path
       d="m 46.1,1451.2 c -5.3,-0.1 -9.2,1.2 -10.8,4 l -1.4,3 v 11 A 56,56 0 0 0 56,1488 c 16.4,8.5 32.5,10 36,3.5 l 2.6,-5.2 c 3.5,-6.6 -7,-19 -23.3,-27.5 a 61.6,61.6 0 0 0 -25.2,-7.6 z"
       fill="#ffffff"
       stroke="#333333"
       stroke-width="2.6"
       id="path974" />
    <path
       d="m 71.3,1458.8 c 16.3,8.6 26.8,20.9 23.3,27.5 -3.5,6.6 -19.5,5 -35.8,-3.6 -16.4,-8.5 -26.9,-20.9 -23.4,-27.4 3.4,-6.6 19.5,-5 35.9,3.5 z m -3.5,6.5 c -7.4,-3.8 -14.7,-4.6 -16.2,-1.6 -1.6,3 3.2,8.6 10.6,12.5 7.4,3.9 14.7,4.6 16.2,1.6 1.6,-3 -3.1,-8.6 -10.5,-12.4 z"
       fill="#333333"
       stroke="#333333"
       stroke-width="2.6"
       id="path975" />
    <path
       d="M 169.3,1541.3 H 33.2 v -247.7 h 136.1 z"
       fill="none"
       stroke="#333333"
       stroke-linejoin="round"
       stroke-width="2.4"
       id="path976" />
    <path
       d="m 128.3,1408.3 c 0,0 17,-2 23.7,4.6 -0.2,12.6 6.3,14.4 7.2,30 4.4,7.8 9.5,15.2 15.3,22 l 4.3,-1 c 3.3,-21.4 -1.2,-32.5 0.5,-43.1 a 29,29 0 0 0 -6.9,-25.3 c -2.2,-1.2 -7.3,-0.2 -9.9,0.3 -10.3,-8.3 -8,-6.5 -16,-9.2 -8,-2.7 -12.5,-10.9 -21.9,-13.6"
       fill="#3366aa"
       stroke="#333333"
       stroke-width="1.7"
       id="path977" />
    <g
       id="g47340">
      <path
         d="m 104.8,1391.8 c 12.7,6 24.3,18.5 23.6,29.1 a 23,23 0 0 1 -2.9,9.3 c 4.4,2.2 6,8 3.8,13 -2.3,5.2 -8,7.7 -12.5,5.6 a 8.4,8.4 0 0 1 -3,-2.3 c -15.4,16.3 -38.6,30.7 -49.7,25.7 -11,-5 -14.1,-30.1 -12.1,-52.2 a 9.6,9.6 0 0 1 -8.8,-13.6 9.7,9.7 0 0 1 12,-5.2 c 1.2,-4.5 2.7,-8.3 4.4,-11.2 3.9,-6.3 26.5,-7 45.1,1.8 z"
         fill="#ffffff"
         stroke="#333333"
         stroke-linejoin="round"
         stroke-width="2.6"
         id="path978" />
      <path
         d="m 92.8,1448.6 a 39.5,39.5 0 0 1 -27.7,-12.9 c 4.4,11.5 2,17.3 8.7,19.4 6.7,2.1 10,-4.4 19,-6.5 z"
         fill="#ee1111"
         stroke="#333333"
         stroke-linejoin="round"
         stroke-width="2"
         id="path979" />
      <path
         d="m 76.7,1422.8 c -1,1.1 -2,2.3 -4.2,3 m 25.6,6.5 c 0,1.4 -0.3,2.7 0.4,5.1"
         fill="#ee1111"
         stroke="#333333"
         stroke-linecap="round"
         stroke-width="2"
         id="path980" />
      <path
         d="m 86.6,1435.7 c -2,0 -4.1,0.6 -6.5,-3"
         fill="none"
         stroke="#333333"
         stroke-linecap="round"
         stroke-linejoin="round"
         stroke-width="2"
         id="path981" />
      <path
         d="m 103.7,1423.5 c 2,-4.9 8.5,0 10.2,2"
         fill="none"
         stroke="#333333"
         stroke-linecap="round"
         stroke-linejoin="round"
         stroke-width="2.2"
         id="path982" />
      <path
         d="m 107,1423.5 a 1.3,1.5 16.4 1 0 2.4,0.7 1.3,1.5 16.4 1 0 -2.5,-0.7 z"
         fill="none"
         stroke="#333333"
         stroke-linejoin="round"
         stroke-width="3.2"
         id="path983" />
      <path
         d="m 114.2,1420.2 a 12.5,12.5 0 0 0 -5.3,-6.5 m -27.3,-0.1 c 2.4,-4.7 -5.6,-6.4 -8.2,-6.3"
         fill="none"
         stroke="#333333"
         stroke-linecap="round"
         stroke-width="2.2"
         id="path984" />
      <path
         d="m 79.5,1411.2 a 1.3038295,1.5044187 32 1 1 -2.2,-1.4 1.3038295,1.5044187 32 1 1 2.2,1.4 z"
         fill="none"
         stroke="#333333"
         stroke-width="3.2"
         style="fill:#333333"
         id="path985" />
      <path
         d="m 76.5,1403.7 c 3.3,-1.1 5.7,-0.6 8.8,0.2"
         fill="none"
         stroke="#333333"
         stroke-linecap="round"
         stroke-width="2.2"
         id="path986" />
      <path
         d="m 120.2,1435.4 4.1,2.6 c -3,-1.7 -5,1 -7.2,3.1 m -62.5,-32.8 -4.9,-0.8 c 3.4,0.8 2.7,3.3 2.8,6.3"
         fill="none"
         stroke="#333333"
         stroke-linecap="round"
         stroke-linejoin="round"
         stroke-width="2"
         id="path987" />
    </g>
    <path
       d="m 111.4,1407.2 c 8.2,-15.7 2.8,-37 -6.8,-52 26.4,17 34.6,43 26,64 a 205.4,205.4 0 0 0 -19.2,-12 z"
       fill="#333333"
       stroke="#333333"
       stroke-linecap="square"
       stroke-linejoin="round"
       stroke-width="2.6"
       id="path988" />
    <path
       d="m 111.4,1407.2 c 8.2,-15.7 2.8,-37 -6.8,-52 -26.7,4.4 -32.8,13.5 -44.2,32.6 20,5.1 32.5,8.2 51,19.4 z"
       fill="#3366aa"
       stroke="#333333"
       stroke-linejoin="round"
       stroke-width="2.6"
       id="path989" />
    <path
       d="m 101.8,1362.6 c 0.4,15 -26.4,23.4 -28.2,21.2 0,0 -9.8,-14.1 -19.1,-14.7 -9.3,8.6 -14.9,-1.1 -27.2,8.6 -9.8,8 -12.4,13.8 -9.4,24.5 l -5.8,-1.2 c -8.6,-11.8 9.8,-39.3 16.6,-47.7 a 31,31 0 0 1 25.2,-11 c 2.4,0.9 5,5.4 6.4,7.6 13,2.2 10.2,1.7 17.5,5.8 7.3,4.2 15.8,1.7 24,7 z"
       fill="#333333"
       stroke="#333333"
       stroke-linejoin="round"
       stroke-width="1.6"
       id="path990" />
    <g
       id="g47361">
      <path
         d="m 128.4,1381.4 c 13,5.5 22.7,15.8 37.1,18.4"
         fill="none"
         stroke="#333333"
         stroke-linecap="round"
         stroke-width="1.7"
         id="path991" />
      <path
         d="m 155.6,1396.4 c 4.3,0.4 4.3,0.2 7,-0.4"
         fill="none"
         stroke="#333333"
         stroke-linecap="square"
         stroke-linejoin="round"
         stroke-width="1.7"
         id="path992" />
      <path
         d="m 151.9,1413.1 c -0.1,-1.4 0.4,-4.5 3,-7.5 m 24,16.1 c -2.5,4.4 -0.1,7.3 -3,11.6"
         fill="none"
         stroke="#333333"
         stroke-linecap="round"
         stroke-width="1.7"
         id="path993" />
      <path
         d="m 173.7,1465.4 a 5.8,5.8 0 1 0 9.4,6.6 5.8,5.8 0 1 0 -9.4,-6.6 z"
         fill="#eecc55"
         stroke="#333333"
         stroke-linejoin="round"
         stroke-width="1.7"
         id="path994" />
      <path
         d="m 173,1470.3 c -0.4,0.8 0.3,2.5 0.8,1.7 1.7,-3.3 8.3,-5.5 10.7,-4.4 0.3,0 0.3,-1.2 -0.8,-1.8 -3,-1.7 -9.2,1 -10.8,4.5 z m 7.2,3.5 c -0.7,-1 -1.2,-2 -1.4,-2.9"
         fill="#eecc55"
         stroke="#333333"
         stroke-linecap="round"
         stroke-linejoin="round"
         stroke-width="1.3"
         id="path995" />
      <path
         d="m 114.6,1395 a 4.2,4.2 0 1 0 7.6,-3.4 4.2,4.2 0 1 0 -7.6,3.4 z"
         fill="#eecc55"
         stroke="#333333"
         stroke-linejoin="round"
         stroke-width="1.1"
         id="path996" />
      <path
         d="m 117.4,1397.3 c 0.3,0.5 1.7,0.7 1.3,0.1 -1.3,-2.3 -0.3,-7.2 1.3,-8.3 0.2,0 -0.6,-0.6 -1.4,-0.1 -2.2,1.2 -2.8,6 -1.2,8.3 z m 4.8,-3.2 c -0.9,0 -1.7,0 -2.3,-0.2"
         fill="#eecc55"
         stroke="#333333"
         stroke-linecap="round"
         id="path997" />
      <path
         d="m 115.6,1385.4 a 4.2,4.2 0 1 0 6.2,-5.5 4.2,4.2 0 1 0 -6.2,5.5 z"
         fill="#eecc55"
         stroke="#333333"
         stroke-linejoin="round"
         stroke-width="1.1"
         id="path998" />
      <path
         d="m 119,1386.8 c 0.4,0.4 1.8,0.2 1.3,-0.3 -2,-1.8 -2.4,-6.8 -1.3,-8.3 0.2,-0.1 -0.7,-0.4 -1.3,0.3 -1.7,1.9 -1,6.6 1.3,8.3 z m 3.6,-4.5 c -0.8,0.3 -1.6,0.6 -2.2,0.5"
         fill="#eecc55"
         stroke="#333333"
         stroke-linecap="round"
         id="path999" />
      <path
         d="m 114.2,1375.8 a 4.2,4.2 0 1 0 5.2,-6.4 4.2,4.2 0 1 0 -5.2,6.4 z"
         fill="#eecc55"
         stroke="#333333"
         stroke-linejoin="round"
         stroke-width="1.1"
         id="path1000" />
      <path
         d="m 117.7,1376.6 c 0.6,0.3 1.9,-0.1 1.3,-0.5 -2.3,-1.4 -3.5,-6.3 -2.6,-8 0,-0.2 -0.8,-0.2 -1.3,0.5 -1.4,2.1 0.2,6.7 2.6,8 z m 3,-5 a 6.1,6.1 0 0 1 -2.2,0.8"
         fill="#eecc55"
         stroke="#333333"
         stroke-linecap="round"
         id="path1001" />
      <path
         d="m 111,1367.2 a 4.2,4.2 0 1 0 4,-7.2 4.2,4.2 0 1 0 -4,7.2 z"
         fill="#eecc55"
         stroke="#333333"
         stroke-linejoin="round"
         stroke-width="1.1"
         id="path1002" />
      <path
         d="m 114.6,1367.4 c 0.5,0.2 1.8,-0.5 1.2,-0.7 -2.5,-1 -4.6,-5.6 -4,-7.5 0,-0.1 -0.8,0 -1.2,0.7 -1,2.4 1.4,6.6 4,7.5 z m 2,-5.5 a 6.2,6.2 0 0 1 -2,1.3"
         fill="#eecc55"
         stroke="#333333"
         stroke-linecap="round"
         id="path1003" />
      <path
         d="m 64,1357 c -0.4,-5.2 -2.6,-4.7 -3.9,-7 m -8.8,14.3 c 0.8,2 0.2,3.2 3,5 -5.1,0.2 -5.5,0 -7.5,-1.9 m -18,-13.6 c -1.7,4.8 -0.5,6.6 -1.9,11.5"
         fill="none"
         stroke="#333333"
         stroke-linecap="round"
         stroke-linejoin="round"
         stroke-width="1.6"
         id="path1004" />
      <path
         d="m 12.1,1402.3 a 5.8,5.8 0 1 0 9.2,6.9 5.8,5.8 0 1 0 -9.2,-6.9 z"
         fill="#eecc55"
         stroke="#333333"
         stroke-linejoin="round"
         stroke-width="1.7"
         id="path1005" />
      <path
         d="m 11.2,1407.3 c -0.3,0.8 0.3,2.5 0.8,1.8 1.9,-3.3 8.5,-5.3 11,-4.2 0.2,0.2 0.2,-1.1 -0.8,-1.7 -3,-1.8 -9.4,0.6 -11,4.1 z m 7.2,3.7 a 8.5,8.5 0 0 1 -1.4,-2.9"
         fill="#eecc55"
         stroke="#333333"
         stroke-linecap="round"
         stroke-linejoin="round"
         stroke-width="1.3"
         id="path1006" />
    </g>
    <use
       transform="translate(49.999994,1260)"
       style="fill:#333333;stroke:#333333"
       xlink:href="#tJ"
       id="use1006" />
    <use
       transform="rotate(180,76.300003,787.5)"
       style="fill:#333333;stroke:#333333"
       xlink:href="#tJ"
       id="use1007" />
  </g>
  <g
     id="club_1"
     transform="translate(6.0796738e-6,-1260)">
    <rect
       id="card"
       x="0.69999999"
       y="0.69999999"
       width="201.10001"
       height="313.60001"
       rx="9"
       ry="9"
       fill="#ffffff"
       stroke="#333333"
       stroke-width="1.4" />
  </g>
</svg>
