<?xml version="1.0" encoding="UTF-8" standalone="no"?>
<svg
   width="202.5"
   height="315"
   version="1.1"
   id="svg1018"
   xmlns:xlink="http://www.w3.org/1999/xlink"
   xmlns="http://www.w3.org/2000/svg"
   xmlns:svg="http://www.w3.org/2000/svg">
  <defs
     id="defs1018" />
  <path
     id="J"
     d="m 9,-1014.1 c 0,4.2 3,6.5 6.7,6.5 3.7,0 6.7,-2.7 6.7,-6.5 v -20.4 m -1.9,-0.5 h 3.9"
     fill="none"
     stroke-linecap="square"
     stroke-width="3.5" />
  <g
     id="club_jack"
     transform="translate(-2025,-945)">
    <path
       id="frame"
       d="M 2194.1,281.3 H 2058 V 33.6 h 136.1 z"
       fill="none"
       stroke="#3366aa"
       stroke-linejoin="round"
       stroke-width="2.4" />
  </g>
  <g
     id="spade_1"
     transform="translate(-2025,-945)">
    <g
       id="g272">
      <use
         id="u42787"
         transform="rotate(180,101.3,1102.5)"
         xlink:href="#p37946" />
      <use
         id="p37946"
         transform="matrix(0.46108,0,0,0.46108,-216.4,495.2)"
         xlink:href="#spade" />
    </g>
  </g>
  <g
     id="spade_3"
     transform="translate(-2025,-945)">
    <use
       id="u42807"
       transform="translate(405)"
       xlink:href="#p37946" />
    <use
       id="u42809"
       transform="translate(405)"
       xlink:href="#u42787" />
    <path
       id="spade"
       d="m 506.25,1075.5 c -9,17 -21.75,20.1 -21.75,31.6 0,6.1 4.4,11.3 10.6,11.3 3.7,0.06 7.1,-1.85 9,-5 0,8 -3.2,12.3 -6.3,16 h 16.8 c -3.1,-3.7 -6.4,-8 -6.2,-16 1.9,3.2 5.35,5 9,5 6.2,0 10.5,-5.3 10.6,-11.4 0,-11.4 -12.75,-14.5 -21.75,-31.5 z"
       fill="#333333" />
  </g>
  <g
     id="spade_jack"
     transform="translate(-2025,-945)">
    <use
       transform="rotate(180,1113.75,630)"
       xlink:href="#card"
       id="use342" />
    <g
       transform="matrix(0.2407,0,0,0.2666,1862.1,520.4)"
       id="g375">
      <path
         d="m 1380.3,2057.4 v 268.9 c -32,29.4 -162.4,107.6 -198.2,117.3 -103.3,47 -153.8,3.3 -216.8,-18.8 l -152,-115.2 0.2,-268.9 c 31.9,-29.3 162.3,-107.5 198.1,-117.2 103.3,-47 153.7,-3.3 216.8,18.8 z"
         fill="#333333"
         id="path342" />
      <g
         id="g7710"
         transform="matrix(1,0,0,1.0019,-871.4,-736.9)">
        <path
           d="m 2039.9,2674 138.2,104.6 a 131,131 0 0 1 34.6,-19.2 L 2099.8,2674 Z"
           fill="#eecc55"
           stroke-opacity="0"
           id="path343" />
        <path
           d="m 1986.3,2642.6 c -41,-81.5 44,-170 124.3,-118.6 6.7,18.1 1.3,24.2 -0.8,37.8 -0.4,13.5 11,40.4 13.3,46 2.7,7 -6,14.3 -20.4,11 -3.5,2.5 3.9,14 3.1,17.8 -3.4,0.1 -6.4,2.4 -3.6,6.2 -3.3,10.4 9.8,23.6 2.8,28.2 -31.8,21 -94.3,-1.1 -118.7,-28.4 z"
           fill="#ffffff"
           id="path344" />
        <path
           d="m 1912.6,2643.8 c -9.4,3 -19.2,6.8 -29.5,11.5 a 112.9,112.9 0 0 0 -13.5,4.8 c -61,31.1 -120.5,67.7 -179.3,107.5 a 153,153 0 0 0 -5.4,4.7 v 14.4 c 114.3,46.1 215.6,-15.3 227.7,-142.9 z"
           fill="#3366aa"
           id="path345" />
        <path
           d="m 1956.4,2903.8 c 0.8,-13.7 5.6,-20.1 11.3,-20.3 5.7,-0.2 14.6,4 14.4,20.9 15.8,-0.6 18,8.3 17.5,12.2 -0.6,4.4 -1.9,11.4 -20,9.8 1.8,21.3 -8,19.8 -12,19.7 -3.8,0 -12.2,0 -11.2,-18.5 -16,0 -19.4,-9.6 -19.4,-14 0,-4.5 4.6,-9.6 19.4,-9.8 z m 46.4,-15.3 c 13.4,-4.1 16,14 2,16.4 -7,1.2 -3.9,-3.4 -3.3,-7.1 0.8,-4.2 -10.2,0.6 -18.5,6.7 a 35.3,35.3 0 0 1 19.8,-16 z m -68,-11.5 c -15.7,-11.1 -29.3,7.7 -11.9,17 8.5,4.5 5.6,-2.9 6.3,-7.9 0.8,-5.7 15,6.9 23.3,18.3 a 43,43 0 0 0 -17.8,-27.4 z m 4.9,-9.3 c -2,-13.9 16.4,-13.6 16.4,0.8 0,7 -2.1,4.1 -5.7,2.9 -4,-1.4 0.3,20.3 5,29.5 -6,-4.4 -14.5,-24.4 -15.7,-33.2 z m 54.7,-3.7 c -1.6,-10.4 -15.6,-36.5 -33.9,-14.5 -9.2,11.1 0.6,11.6 8,10.5 14.5,-2.2 19.2,29.7 13.7,42.7 10.7,-15.2 17.4,-10.7 19.7,-22.6 -0.1,-6.5 -7.6,-5.5 -9.7,2.4 0.5,-3.7 2.7,-15.5 2.2,-18.5 z m -18.1,51.1 a 8.1,8.1 0 1 1 -16.2,0 c 0,-4.5 3.6,-8.2 8.1,-8.2 4.5,0 8.1,3.7 8.1,8.2 z"
           fill="#eecc55"
           stroke="#333333"
           stroke-linecap="round"
           stroke-linejoin="round"
           stroke-width="2.4"
           id="path346" />
        <path
           d="m 2176.5,2675.1 c 16.5,-12.7 22.2,43.8 34.7,59.8 -13.3,3.5 -3.7,4.7 -17,8.9 l -49,-37.5 c 9.2,-4.4 21.2,-26.1 31.3,-31.2 z"
           fill="#ffffff"
           stroke="#333333"
           stroke-linecap="round"
           stroke-linejoin="round"
           stroke-width="4.3"
           id="path347" />
        <path
           d="m 2200.3,2608.4 v 141.7 l 14.7,11.1 v -152.8 z"
           fill="#eecc55"
           stroke="#333333"
           stroke-width="4.3"
           id="path348" />
        <path
           d="m 2214.6,2695.7 c 0,4.4 -3.9,8 -8.7,8 -19,0 -8.9,-2 -9.2,-7.6 -0.4,-6 -5.5,-10 9.2,-8.5 4.8,0.5 8.7,3.6 8.7,8.1 z m -0.8,16 c 0,4.5 -3.8,8.1 -8.6,8.1 -18.7,0 -8.7,-2.1 -9.1,-7.6 -0.4,-6 -5.5,-10 9.1,-8.5 4.8,0.5 8.6,3.6 8.6,8 z m 1.2,-32.8 c 0,4.4 -3.7,8 -8.2,8 -18,0 -8.5,-2.1 -8.8,-7.7 -0.4,-6 -5.2,-9.9 8.8,-8.4 4.5,0.5 8.2,3.6 8.2,8 z m -4,48.4 a 6.9,6.9 0 0 1 -6.8,7 c -14.7,0 -7,-1.9 -7.2,-6.7 -0.3,-5.1 -4.3,-8.6 7.2,-7.3 3.7,0.4 6.7,3.1 6.7,7 z"
           fill="#ffffff"
           stroke="#333333"
           stroke-linecap="round"
           stroke-linejoin="round"
           stroke-width="4.3"
           id="path349" />
        <path
           d="m 2238.8,2695.7 c 0,4.4 -5.1,8 -11.4,8 -24.8,0 -11.6,-2 -12.1,-7.6 -0.5,-6 -7.2,-10 12.1,-8.5 6.3,0.5 11.4,3.6 11.4,8.1 z m -1,16 c 0,4.5 -5.1,8.1 -11.3,8.1 -24.5,0 -11.5,-2.1 -12,-7.6 -0.5,-6 -7.1,-10 12,-8.5 6.2,0.5 11.2,3.6 11.2,8 z m 0.2,-32.8 c 0,4.4 -4.9,8 -10.8,8 -23.6,0 -11,-2.1 -11.5,-7.7 -0.5,-6 -6.9,-9.9 11.5,-8.4 5.9,0.5 10.8,3.6 10.8,8 z m -8.3,48.4 c 0,3.8 -4,7 -8.8,7 -19.3,0 -9,-1.9 -9.4,-6.7 -0.4,-5.1 -5.6,-8.6 9.4,-7.3 4.8,0.4 8.8,3.1 8.8,7 z"
           fill="#ffffff"
           stroke="#333333"
           stroke-linejoin="round"
           stroke-width="4.3"
           id="path350" />
        <path
           d="m 2196.8,2695.3 c 0,4.4 -3.5,8 -7.7,8 -4.2,0 -7.7,-3.6 -7.7,-8 0,-4.4 3.5,-8 7.7,-8 4.2,0 7.7,3.6 7.7,8 z m -0.6,16 c 0,4.5 -3.4,8.1 -7.6,8.1 -4.2,0 -7.6,-3.6 -7.6,-8 0,-4.4 3.4,-8 7.6,-8 4.2,0 7.6,3.6 7.6,8 z m 1,15.6 c 0,3.9 -2.7,7 -6,7 -3.3,0 -6,-3.1 -6,-7 0,-3.8 2.7,-7 6,-7 3.3,0 6,3.2 6,7 z m -4.6,-51.5 c -2.4,-4.3 -1.3,-9.1 2.4,-10.9 3.7,-1.8 8.6,0.4 11,4.7 2.4,4.3 1.2,9.1 -2.5,10.8 -3.7,1.8 -8.6,-0.3 -11,-4.6 z"
           fill="#ffffff"
           stroke="#333333"
           stroke-width="4.3"
           id="path351" />
        <path
           d="m 2176.8,2682.3 c -2.4,-4.3 -0.9,-9.3 3.3,-11.3 16.4,-7.6 8.8,-1.5 12,3.7 3.6,5.6 10.1,7.3 -3.5,11.8 a 9.8,9.8 0 0 1 -11.8,-4.2 z"
           fill="#ffffff"
           stroke="#333333"
           stroke-linecap="round"
           stroke-linejoin="round"
           stroke-width="4.3"
           id="path352" />
        <g
           transform="matrix(0.8855,0,0,1.0949,1614.2,2355.1)"
           id="g356">
          <path
             d="m 670.2,123.6 c -8,11.2 -20.6,22.9 -20.6,34.3 a 42,42 0 0 0 12.1,26 l -9,9.2 9,9 a 42.3,42.3 0 0 0 -12,26.2 20.6,20.6 0 0 0 41.1,0 c 0,-8 -5.5,-19.4 -12.1,-26.2 l 9,-9 -9,-9 a 43.9,43.9 0 0 0 12.1,-26.2 c 0,-11.4 -12.6,-23 -20.6,-34.3 z"
             fill="#eecc55"
             stroke="#333333"
             stroke-linecap="round"
             stroke-linejoin="round"
             stroke-width="4.1"
             id="path353" />
          <path
             d="m 670.2,175.2 c 5.8,-3 10.4,-11.2 10.4,-17 0,-5.8 -6.3,-11 -10.4,-14.2 -4.3,3.4 -10.4,8.5 -10.4,14.3 0,5.8 4.7,13.9 10.4,16.9 z m 0,35.8 a 22,22 0 0 1 10.4,16.9 10.4,10.4 0 0 1 -20.8,0 22,22 0 0 1 10.4,-17 z"
             fill="#ee1111"
             stroke="#333333"
             stroke-linecap="round"
             stroke-linejoin="round"
             stroke-width="4.1"
             id="path354" />
          <path
             d="m 666.9,213.4 11,-10.6 m -16,-0.9 10.6,-9 m 1,-20.2 -11,10.6"
             fill="#eecc55"
             stroke="#333333"
             stroke-linecap="round"
             stroke-linejoin="round"
             stroke-width="4.1"
             id="path355" />
          <path
             d="m 678.5,184.2 -10.6,9.1"
             fill="#eecc55"
             stroke="#333333"
             stroke-linejoin="round"
             stroke-width="4.1"
             id="path356" />
        </g>
        <path
           d="m 2251.8,2789 -152,-115 m -414.8,98.4 c 31.9,-29.3 162.3,-107.4 198.1,-117"
           fill="#333333"
           stroke="#333333"
           stroke-linejoin="round"
           stroke-width="5.3"
           id="path357" />
        <path
           d="m 2081.9,2641.9 c 12.6,-2 13.8,-4.3 19.3,-3.3 0.7,4.7 -6.3,2.3 -19.3,3.3 z"
           fill="#3366aa"
           stroke="#3366aa"
           stroke-linecap="round"
           stroke-linejoin="round"
           stroke-width="4.3"
           id="path358" />
        <path
           d="m 2085.4,2567.1 a 3,3 0 1 1 -6,0 3,3 0 1 1 6,0 z"
           fill="#3366aa"
           stroke-width="0.5"
           id="path359" />
        <path
           d="m 2091.7,2558.4 a 300,300 0 0 1 -32.5,5.2 c 0,1.7 15,0.8 20,0 5.2,-0.6 12.5,-3.3 12.5,-5.2 z"
           fill="#3366aa"
           stroke="#3366aa"
           stroke-linejoin="round"
           stroke-width="2.8"
           id="path360" />
        <path
           d="m 2063.2,2565 c 6.3,8.7 20.1,11.4 31.3,2.6"
           fill="none"
           stroke="#3366aa"
           stroke-width="2.8"
           id="path361" />
        <path
           d="m 2088.3,2567.1 a 5.85,5.95 0 1 1 -11.7,0 5.85,5.95 0 1 1 11.7,0 z"
           fill="none"
           stroke="#3366aa"
           stroke-linecap="round"
           stroke-linejoin="round"
           stroke-width="2.4"
           id="path362" />
        <path
           d="m 2002,3164.2 3.7,0.5 h 0.2 c -0.8,-2 -0.9,-5.3 -0.2,-9.9 v -0.4 c 0.5,2.9 2.3,5 5.3,5.5 3.6,0.5 6.7,-2.5 7.2,-6 0.8,-5.4 -5.9,-10.2 -9.7,-20.7 -7,8.6 -14.8,11.7 -15.5,17.1 -0.5,3.6 1.7,7.3 5.3,7.8 3,0.4 5.3,-1.2 6.6,-3.9 v 0.5 c -0.7,4.6 -1.7,7.7 -3,9.4 l 0.1,0.1 m 6.4,-41.2 3.7,0.6 h 0.1 c -0.7,-2 -0.7,-5.3 0.2,-9.8 l 0.1,-0.5 c 0.4,2.9 2,5.2 5,5.7 3.6,0.7 6.8,-2.1 7.5,-5.6 1,-5.4 -5.3,-10.6 -8.8,-21.2 -7.3,8.4 -15.2,11 -16.3,16.5 -0.6,3.5 1.4,7.3 5,8 3,0.5 5.4,-1 6.7,-3.6 v 0.5 a 21,21 0 0 1 -3.3,9.2 v 0.2 m 8.3,-41 3.7,0.9 v -0.1 c -0.6,-2 -0.4,-5.3 0.7,-9.8 l 0.1,-0.4 c 0.2,2.9 1.8,5.2 4.8,5.9 3.5,0.8 6.8,-1.7 7.7,-5.2 1.3,-5.3 -4.8,-10.8 -7.6,-21.6 -7.8,8 -15.8,10.2 -17.1,15.6 -0.8,3.5 0.9,7.5 4.5,8.3 2.9,0.7 5.4,-0.8 6.9,-3.2 l -0.1,0.4 a 21.5,21.5 0 0 1 -3.7,9.1 v 0.1 m 10.3,-40.4 3.7,1 h 0.1 c -0.5,-2 -0.1,-5.3 1.2,-9.8 l 0.1,-0.4 c 0,2.9 1.6,5.3 4.5,6.2 3.5,1 6.8,-1.2 8,-4.6 1.6,-5.3 -4.2,-11.1 -6.3,-22.1 -8.3,7.4 -16.4,9.1 -18,14.4 -1.1,3.4 0.4,7.7 4,8.7 2.8,0.8 5.3,-0.5 7,-2.9 l -0.1,0.5 a 20.7,20.7 0 0 1 -4.2,8.8 v 0.2 m 12.8,-39.8 3.6,1.3 h 0.1 c -0.4,-2.1 0.3,-5.3 1.9,-9.7 l 0.2,-0.4 c -0.2,2.9 1.1,5.4 4,6.5 3.3,1.3 7,-1 8.3,-4.3 1.9,-5.2 -3.5,-11.1 -4.7,-22.2 -9,6.7 -17.3,8.2 -19.2,13.3 -1.2,3.4 0,7.5 3.5,8.7 2.8,1 5.4,0 7.2,-2.3 l -0.1,0.4 a 20.5,20.5 0 0 1 -4.9,8.5 l 0.1,0.2 m 15.7,-38.8 3.4,1.6 h 0.1 a 20,20 0 0 1 2.7,-9.4 l 0.2,-0.5 c -0.4,3 0.7,5.5 3.4,6.8 3.3,1.5 7,-0.2 8.7,-3.4 2.4,-5 -2.6,-11.5 -2.8,-22.6 -9.4,5.9 -17.8,6.6 -20.2,11.5 -1.5,3.3 -0.6,7.6 2.7,9.1 2.7,1.3 5.4,0.4 7.4,-1.8 l -0.2,0.5 c -2,4.2 -3.8,6.9 -5.5,8 v 0.2 m 19,-37.2 3.3,1.9 h 0.2 c 0,-2.2 1,-5.2 3.5,-9.2 l 0.3,-0.4 c -0.7,2.9 0,5.6 2.7,7.1 3.1,1.8 7,0.5 9,-2.6 2.8,-4.6 -1.5,-11.6 -0.5,-22.7 -10,4.9 -18.5,4.8 -21.4,9.4 -1.8,3.1 -1.3,7.5 1.8,9.4 2.6,1.5 5.4,0.9 7.6,-1 l -0.2,0.4 c -2.4,4 -4.5,6.5 -6.3,7.5 v 0.2 m 22.7,-35.2 3,2.2 h 0.2 c 0.2,-2 1.6,-5 4.5,-8.6 l 0.3,-0.4 c -1,2.7 -0.5,5.5 2,7.3 2.9,2.2 6.9,1.3 9.1,-1.5 3.4,-4.3 -0.1,-11.7 2.2,-22.6 -10.6,3.6 -19,2.6 -22.3,7 -2.2,2.8 -2.2,7.3 0.7,9.4 2.4,1.8 5.2,1.5 7.6,-0.1 l -0.2,0.4 c -3,3.6 -5.2,6 -7.1,6.8 v 0.1 m 26.6,-32.3 2.8,2.6 h 0.1 c 0.5,-2 2.3,-4.8 5.6,-8 l 0.3,-0.4 c -1.3,2.6 -1.1,5.5 1,7.6 2.6,2.5 6.7,2.1 9.3,-0.4 3.9,-3.8 1.3,-11.6 5,-22 -11,2 -19,0 -23,3.9 -2.5,2.5 -3.1,7 -0.5,9.5 2.2,2.1 5,2.1 7.6,0.8 l -0.3,0.4 a 23.2,23.2 0 0 1 -7.9,5.9 v 0.1 m 30.6,-28.6 2.4,3 h 0.1 c 0.7,-2 2.8,-4.5 6.6,-7.3 l 0.4,-0.3 c -1.7,2.4 -2,5.3 0,7.6 2.2,2.9 6.2,3 9.1,1 4.4,-3.3 2.9,-11.4 8,-21.3 -11,0.6 -18.8,-2.5 -23.2,0.8 -2.9,2.2 -4.1,6.6 -1.9,9.4 1.9,2.4 4.7,2.8 7.4,1.8 l -0.3,0.3 a 23.2,23.2 0 0 1 -8.6,4.8 v 0.2 m 34.1,-24.2 2,3.2 h 0.2 c 1,-1.8 3.4,-3.9 7.4,-6.2 l 0.5,-0.2 c -2,2.1 -2.6,4.9 -1.1,7.5 1.8,3.2 5.7,3.9 8.9,2.2 4.8,-2.6 4.6,-10.8 11,-20 -11.2,-0.7 -18.4,-5 -23.2,-2.4 -3.1,1.8 -5,6 -3.1,9 1.5,2.7 4.2,3.5 7,2.9 l -0.4,0.3 a 21,21 0 0 1 -9.1,3.5 v 0.2"
           fill="#ffffff"
           stroke="#ffffff"
           stroke-width="1.8"
           id="path363" />
        <path
           d="m 2251.7,2792.4 a 469.6,469.6 0 0 0 -155,134 h 54.2 a 376.6,376.6 0 0 1 100.8,-88 z"
           fill="#eecc55"
           stroke="#333333"
           stroke-linecap="round"
           stroke-linejoin="round"
           stroke-width="3.5"
           id="path364" />
        <path
           d="m 1955.7,2656 c -14.5,105.7 -35.6,181.8 -69.7,244.3 h 15 c 5,-45.7 33.3,-80.7 67.3,-80.7 34,0 62.2,35 67.3,80.7 h 30.3 a 398.6,398.6 0 0 1 108.9,-113.9 l -174,-130.4 z m -119.2,239.6 c 2.2,-3.4 4.3,-7 6.4,-10.5 26.5,-46 42,-96.5 52.9,-148.2 -43.6,67 -123.2,92.6 -210.9,61.7 v 97 z"
           fill="#ee1111"
           stroke="#eecc55"
           stroke-linejoin="round"
           stroke-width="5.3"
           id="path365" />
        <path
           d="m 1824.9,2742.3 c 1.5,2.2 17.3,26 5.8,34 -11.8,8 -27,-17 -27.8,-18.7 -0.6,-1 -0.6,-1.9 -0.1,-2.2 0.5,-0.4 1.4,0 2.2,0.9 1.4,1.5 13.3,20.2 22,14.6 9,-5.6 -2.5,-24.3 -4,-27 -0.7,-1.2 -0.5,-1.7 0,-2.1 0.4,-0.4 1.3,-0.4 1.9,0.5 z m 23,-20.4 c 1.7,1.8 20.6,23.1 11,32.1 -9.7,9.3 -28.2,-13.3 -29.2,-14.6 -0.7,-1 -0.8,-1.8 -0.4,-2.1 0.4,-0.4 1.3,-0.2 2.1,0.5 1.5,1.2 16.2,18.3 23.6,12 7.6,-6.7 -6.8,-23.9 -8.6,-26.1 -0.8,-1 -0.7,-1.6 -0.4,-2 0.3,-0.4 1.3,-0.5 2,0.2 z m 15.3,-25 c 2,1.3 23.6,17.3 16.6,27.5 -7.2,10.5 -28.8,-6.7 -30,-7.7 -0.8,-0.7 -1,-1.5 -0.8,-2 0.3,-0.4 1.2,-0.3 2.1,0.2 1.6,0.8 18.6,13.7 24.2,6.3 5.7,-7.6 -11,-20.7 -13.1,-22.4 -1,-0.7 -1,-1.3 -0.8,-1.7 0.3,-0.5 1,-0.8 1.8,-0.2 z m 14.3,-24.8 c 1.8,0.8 21.8,10.8 17.5,20.2 -4.4,9.5 -24.4,-1.4 -25.6,-2.1 -0.7,-0.4 -1.1,-1 -1,-1.4 0.3,-0.4 1,-0.5 1.8,-0.3 1.5,0.5 17.2,8.6 20.6,1.8 3.6,-7 -11.9,-15.3 -13.9,-16.4 -0.9,-0.5 -1,-1 -0.8,-1.4 0.1,-0.4 0.7,-0.7 1.4,-0.4 z m -80.1,85.3 c 0.8,2.3 9.2,29.5 -3.2,33.8 -12.6,4.4 -20.3,-23.7 -20.7,-25.4 -0.2,-1 0,-1.9 0.5,-2 0.6,-0.2 1.3,0.4 1.8,1.3 0.9,1.7 7.2,23.4 16.6,20.6 9.6,-3 3.6,-24.5 2.8,-27.3 -0.3,-1.3 0,-1.7 0.5,-2 0.5,-0.2 1.3,0 1.7,1 z m -29.6,6 c 0.3,2.5 2.8,30.9 -10.3,32.5 -13.3,1.6 -14.7,-27.6 -14.8,-29.3 0,-1 0.4,-1.8 1,-1.9 0.6,-0.1 1,0.7 1.4,1.7 0.5,1.9 2,24.4 11.8,23.6 10,-0.8 8.7,-23.1 8.6,-26 0,-1.3 0.3,-1.7 0.9,-1.8 0.6,-0.1 1.3,0.3 1.4,1.3 z m -34.2,3.6 c -0.1,2.1 -1.8,26.3 -13,25.9 -11.4,-0.5 -8.7,-25.1 -8.5,-26.6 0.1,-0.9 0.5,-1.5 1,-1.5 0.5,0 0.9,0.8 1,1.6 0.2,1.7 -1.5,20.8 6.8,21.5 8.5,0.7 10.4,-18.3 10.7,-20.7 0.1,-1.1 0.5,-1.4 1,-1.4 0.5,0 1,0.4 1,1.2 z m 140,-96 c -1.6,5.3 -11.5,42.4 -59.7,70.2 -48.1,27.7 -87.4,14.4 -89.5,14.5 -1.1,0 -2,-0.2 -2,-0.8 0.2,-0.7 0.7,-0.7 1.8,-0.8 2.5,-0.4 42.6,9.3 87,-16.7 44.5,-26 57.6,-58.7 60.7,-66.8 0.5,-1.3 1,-2.2 1.6,-2 0.6,0.2 0.5,1.3 0.2,2.4 z m -24.3,19 c -39,10.8 -71.5,33.9 -100.1,57.5 23.5,-31.8 60.4,-55 100,-57.4 z m 42.7,9.6 a 25.6,25.6 0 0 1 -8.7,14.7 56.2,56.2 0 0 0 -14.8,-19.8 38.9,38.9 0 0 0 23.5,5 z m -16.3,32 a 23.7,23.7 0 0 1 -10.8,13 77,77 0 0 0 -12.1,-21.2 44.9,44.9 0 0 0 22.9,8.2 z m -25,28.3 c -3.6,5.2 -7.4,7.9 -12.8,8.6 a 79.9,79.9 0 0 0 -7.6,-23.8 c 6.7,6.2 12.2,13.5 20.4,15.2 z m -31.5,20.6 a 23,23 0 0 1 -16.5,6.3 c 2.4,-8 1,-16.8 -0.2,-25.5 4.3,8.3 9.1,15.7 16.7,19.2 z m -36.7,10.7 a 19.1,19.1 0 0 1 -15.1,2.7 c 4,-5.5 4.1,-13.4 4.6,-21.4 2.3,8.3 4.5,14.1 10.5,18.7 z m -37.2,2.8 a 25.4,25.4 0 0 1 -16.3,-0.7 c 5,-4.4 8,-13.6 10.2,-21.3 0.3,8.6 1.4,16.2 6.1,22 z m 156.2,-127.5 c -0.1,5.3 -2,12.9 -5,16.3 a 46.7,46.7 0 0 0 -15.7,-13.3 87.8,87.8 0 0 1 20.7,-3 z m -190.1,123.1 c -8,0.3 -12.9,-3.3 -17.2,-7 a 111,111 0 0 1 14.3,-15.6 c -0.9,8.6 -1,16.2 2.9,22.6 z"
           fill="#ffffff"
           id="path366" />
        <path
           d="m 1961,2723.9 94.6,150 78.4,-98.3 -69,-51.7 z"
           fill="#eecc55"
           stroke="#333333"
           stroke-linejoin="round"
           stroke-width="4.3"
           id="path367" />
        <path
           d="m 1982.6,2740.3 h 92.6 m -81.8,18.1 h 92.6 m -81.9,18.2 h 92.6 m -81.8,18 h 92.6 m -80.3,18.2 h 61.8 m -51,18.1 h 37.2"
           fill="#eecc55"
           stroke="#333333"
           stroke-linecap="round"
           stroke-linejoin="round"
           stroke-width="4.3"
           id="path368" />
        <path
           d="m 2007.1,2519.5 a 681.6,681.6 0 0 0 -71.1,3.7 c -14,54.7 -30.5,77.7 -38.2,92.3 -9.6,18.8 -17.2,18 -18.7,26.3 v 0.5 l -0.2,1.2 c 0,6.2 4.2,11.9 10.4,12.2 5,0.2 10.1,-3.7 10.4,-9.2 a 7.7,7.7 0 0 0 -2.5,-6.1 l 1.1,-0.2 3.8,4.1 c 4,4.5 10.3,9.4 16.7,11.5 a 9.9,9.9 0 0 0 10,-1.6 9.8,9.8 0 0 0 3.6,-8.3 l 2.1,-1.5 a 47.2,47.2 0 0 0 16.3,11.7 h 0.1 a 10,10 0 0 0 14,-9 l 2.2,-2.7 a 16,16 0 0 0 8,2.5 15,15 0 0 0 15.3,-15 14,14 0 0 0 -7.7,-12.7 l 0.2,-0.4 c 9.7,-20.7 22.6,-30.3 40.2,-98 l 0.3,-1.1 z"
           fill="#eecc55"
           id="path369" />
        <path
           transform="matrix(-0.1768,-0.0802,0.0853,-0.1876,1948.4,2763.4)"
           d="m 365,464.5 c 8.9,-4.8 17,5.7 17.7,13.5 1.5,15.8 -14.3,26.8 -28.8,26.2 -22.4,-1 -37,-23.1 -34.8,-44.2 2.6,-25.6 26.2,-43.7 51.2,-44"
           fill="none"
           stroke="#3366aa"
           stroke-width="14.4"
           id="path370" />
        <path
           d="m 1950.9,2656.2 a 47.1,47.1 0 0 1 -16.4,-11.7 m -15.7,11.4 c -6.5,-2.2 -12.8,-7 -16.7,-11.5"
           fill="#eecc55"
           stroke="#3366aa"
           stroke-linejoin="round"
           stroke-width="2.8"
           id="path371" />
        <path
           d="m 2089,2679 -5,6.4 -8.4,-6.4 -5,6.5 15,12 10.1,-12.8 16.7,12.8 -5,6.4 -8.4,-6.4 -5,6.4 16.8,12.8 10,-12.9 16.7,12.8 -5,6.5 -8.4,-6.4 -5,6.4 16.8,12.8 10,-12.9 16.7,12.8 -5,6.5 -8.4,-6.4 -5,6.4 16.8,12.8 10,-12.9 16.7,12.8 -5,6.5 -8.4,-6.4 -5,6.4 16.7,12.8"
           fill="none"
           stroke="#333333"
           stroke-linejoin="round"
           stroke-width="4.3"
           id="path372" />
        <path
           d="m 1897.8,2615.6 c -10.2,20 -18,17.8 -18.8,27.7 a 12,12 0 0 0 5.2,10.8 10,10 0 0 0 14.2,-3.4 c 2.2,-3.7 1.5,-9 -2.3,-11 -2.5,-1.3 -6.3,-0.5 -7.4,2.6 -0.5,1.5 0,4 2,4 M 1936,2523 c -22.3,87.3 -51,94.3 -40.4,114.3 3.9,7.7 13,11.8 20.7,8.5 7.2,-3 11.2,-11.8 8,-19.5 -2.5,-6.3 -9.6,-10 -15.6,-7 a 10,10 0 0 0 -4.8,13.1 c 1.8,3.6 6.2,5.8 9.6,3.6 2.2,-1.4 3.4,-4.7 1.6,-7 -0.8,-0.9 -3,-1.7 -3.6,0 m 57,-107 c -22.4,87.3 -51.2,95.3 -40.6,115.3 a 18.3,18.3 0 0 0 6.3,7 15.2,15.2 0 0 0 21.7,-5 c 3.5,-6.5 1.8,-15.6 -4.7,-19.5 -5.1,-3 -12.2,-1.6 -15,4.1 -2,4.3 -0.7,10.1 3.7,12.3 3,1.4 7,0.4 8.1,-3 0.7,-2 -0.2,-5 -2.5,-5.2 -0.8,0 -2.6,1.1 -1.4,2 m 57.9,-109.4 c -22.3,87.2 -52.1,96.7 -41.5,116.7 a 18.3,18.3 0 0 0 6.3,7 15.2,15.2 0 0 0 21.7,-5 c 3.5,-6.5 1.8,-15.6 -4.7,-19.5 -5.2,-3 -12.2,-1.6 -15,4.1 -2,4.3 -0.7,10.1 3.7,12.3 3,1.4 7,0.4 8.1,-3 0.6,-2 -0.2,-5 -2.5,-5.2 -0.8,0 -2.6,1.1 -1.4,2 m -21,17.4 c -2,0.2 -2.5,-2.4 -2,-4 1.2,-3 4.9,-3.8 7.4,-2.5 3.9,2 4.6,7.3 2.4,11 a 10.2,10.2 0 0 1 -12.8,4.2 m 159.8,-132 c 6.7,18 1.3,24.2 -0.8,37.7 -0.4,13.6 11,40.4 13.3,46 2.7,7.1 -6,14.3 -20.4,11 -3.5,2.5 4,14 3.1,17.9 -3.4,0 -6.3,2.4 -3.6,6.2 -3.3,10.4 9.8,23.6 2.8,28.1 -31.8,21 -94.2,-1 -118.7,-28.4 m 75.6,-10.6 c -7.6,-3.7 -9.2,8.3 -0.6,8.3 8.6,0 14,-9 30,-11.3 m -30.2,-66 c -0.6,-4.1 9,-7.2 15.8,-8.7 5.1,-1 14,-0.2 15.6,1 a 84,84 0 0 1 2.5,19.7 c 0,5.3 -6.5,8 -6.5,8 m -36.2,-28.3 c 10.2,-5 25.4,-9.4 38.6,-8.1 m -187,77.8 c 9.7,-20.7 25.4,-33.6 43,-101.4 m -28.8,96 c 9.7,-20.8 22.1,-28 39.7,-95.9 m -21.5,101.4 c 9.7,-20.7 26.4,-35.6 44,-103.4 m -29.9,97.9 c 9.7,-20.8 23.1,-30.5 40.7,-98.3 m -22.3,103.9 c 9.7,-20.8 26,-36.1 43.6,-104 m -29.4,98.4 c 9.7,-20.8 22.6,-30.3 40.2,-98.1"
           fill="none"
           stroke="#3366aa"
           stroke-linecap="round"
           stroke-linejoin="round"
           stroke-width="4.3"
           id="path373" />
        <path
           d="m 1934.2,2523.4 -35.4,-73.2 h 246.7 l -33.3,73.2 c -50,-4 -119.8,-6.3 -178,0 z"
           fill="#ee1111"
           stroke="#333333"
           stroke-linecap="round"
           stroke-linejoin="round"
           stroke-width="4.3"
           id="path374" />
        <path
           d="m 1915.6,2450.2 28.6,54.5 40.3,-2.3 -11.7,-52.2 m 157,0 -27.7,54.5 -40.3,-2.3 13.1,-52.2 m -17.5,0 -13.7,51.8 h -42 l -11.9,-51.8"
           fill="none"
           stroke="#333333"
           stroke-linejoin="round"
           stroke-width="6"
           id="path375" />
      </g>
      <use
         transform="rotate(180,1096.9,2183.5)"
         width="744.09998"
         height="1052.4"
         xlink:href="#g7710"
         id="use375" />
    </g>
    <use
       transform="translate(1619.7)"
       xlink:href="#u42807"
       id="use376" />
    <use
       transform="translate(1619.9)"
       xlink:href="#u42809"
       id="use377" />
    <use
       transform="translate(0,945)"
       xlink:href="#frame"
       id="use378" />
    <use
       id="u24387"
       transform="matrix(0.9015,0,0,0.9015,1624.6,11.9)"
       xlink:href="#spade" />
    <use
       id="u24552"
       transform="rotate(180,2126,1102.6)"
       xlink:href="#u24387" />
    <use
       transform="translate(2024.9,1990)"
       style="stroke:#333333"
       xlink:href="#J"
       id="use379" />
    <use
       transform="rotate(180,1113.75,107.5)"
       style="stroke:#333333"
       xlink:href="#J"
       id="use380" />
  </g>
  <g
     id="club_1"
     transform="translate(-2025,-945)">
    <rect
       id="card"
       x="0.69999999"
       y="0.69999999"
       width="201.10001"
       height="313.60001"
       rx="9"
       ry="9"
       fill="#ffffff"
       stroke="#333333"
       stroke-width="1.4" />
  </g>
</svg>
