<?xml version="1.0" encoding="UTF-8" standalone="no"?>
<svg
   width="202.5"
   height="315"
   version="1.1"
   id="svg1018"
   xmlns:xlink="http://www.w3.org/1999/xlink"
   xmlns="http://www.w3.org/2000/svg"
   xmlns:svg="http://www.w3.org/2000/svg">
  <defs
     id="defs1018" />
  <path
     id="K"
     d="m 10.6,-72.7 13.9,-16.4 m -14.4,-0.2 v 25.7 m 5.3,-14.3 9,14.4 M 8.1,-90 H 12 M 8.1,-62.6 H 12 M 22,-90 h 3.9 m -3.8,27.4 h 3.8"
     stroke-linecap="square"
     stroke-width="3.5" />
  <g
     id="club_5"
     transform="translate(-2430)">
    <use
       id="u37992"
       transform="translate(810)"
       xlink:href="#clubS" />
    <use
       id="u37994"
       transform="translate(810)"
       xlink:href="#u37950" />
  </g>
  <g
     id="club_jack"
     transform="translate(-2430)">
    <path
       id="frame"
       d="M 2194.1,281.3 H 2058 V 33.6 h 136.1 z"
       fill="none"
       stroke="#3366aa"
       stroke-linejoin="round"
       stroke-width="2.4" />
    <use
       id="u7712"
       transform="matrix(0.8793,0,0,0.88,1992.87,-80.1)"
       xlink:href="#club" />
    <use
       id="u7969"
       transform="rotate(180,2126,157.5)"
       xlink:href="#u7712" />
  </g>
  <g
     id="club_king"
     transform="translate(-2430)">
    <use
       id="u9477"
       transform="translate(2430)"
       xlink:href="#card" />
    <use
       transform="matrix(-1,0,0,1,5062.5,0)"
       width="2632.5"
       height="1575"
       xlink:href="#u9477"
       id="use185" />
    <g
       transform="matrix(0.2443,0,0,0.2665,2270.3,-519.8)"
       id="g263">
      <g
         transform="matrix(1,0,0,1.0011,696.1,2014.6)"
         fill="#333333"
         id="g186">
        <path
           d="m 480,776.2 c -67.1,5.5 -186,11.7 -231,4.6 -44.8,-7.1 -53.1,-11.5 -86.8,-21.5 -22,-6.6 -36.8,-9.6 -70.5,-27.4 l -0.2,-409 c 63.5,-28.3 105.4,-41.3 172.6,-46.7 67.2,-5.4 186,-11.7 231,-4.6 44.8,7.1 53.1,11.5 86.8,21.5 20.6,6 42.6,16.2 70.6,36.6 V 729.5 C 589.1,757.7 547.2,770.7 480,776.2 Z"
           id="path185" />
        <path
           d="m 388.4,526.2 c 2.8,81.3 108,166.6 210,224.7 -45.7,15.7 -80,23.3 -121.8,23.8 -49.2,-44 -121,-150.6 -121,-248.5 -2.6,-81.4 -108,-166.7 -209.8,-224.7 45.6,-15.7 79.8,-23.3 121.7,-23.9 49.2,44.1 121,150.6 121,248.6 z"
           stroke="#ee1111"
           stroke-linejoin="round"
           stroke-width="5.3"
           id="path186" />
      </g>
      <g
         id="g5886"
         transform="matrix(1,0,0,1.0011,-1698.3,2015.8)">
        <path
           d="m 2998.4,744.7 c -18.2,-85.3 -29.6,-160.9 -29.6,-263.6 21.6,-11 34.2,-60 75.4,-2.2 V 727 c -15.2,8 -29.1,11.9 -45.8,17.7 z"
           fill="#ee1111"
           stroke="#333333"
           stroke-linecap="round"
           stroke-linejoin="round"
           stroke-width="5.3"
           id="path187" />
        <path
           d="m 2538.4,305 c 8.6,81.4 25.8,161.5 25.8,244.2 v 196.4 c 48.3,-60.6 73.7,-125 74.3,-208.5 h 50.4 c 0,-27 12.1,-64.3 28.3,-86.2 -50.5,-63 -112.4,-107 -178.8,-145.8 z"
           fill="#ffffff"
           stroke="#333333"
           stroke-linejoin="round"
           stroke-width="5.3"
           id="path188" />
        <use
           transform="translate(170.7,85.8)"
           width="744.09998"
           height="1052.4"
           xlink:href="#g33591"
           id="use188" />
        <path
           d="M 2485.9,321.6 A 450,450 0 0 1 2688.4,273 m 287.9,18.9 c -33.7,-10 -42,-14.4 -86.9,-21.6"
           fill="none"
           stroke="#333333"
           stroke-width="2.5"
           id="path189" />
        <path
           d="m 2718.5,429.2 c 11.1,15.6 30,2.5 16.6,-12 -6.5,-7 -5.7,1 -8,5.5 -2.6,5.2 -11.8,-9.6 -16,-23.1 -1.6,10 0.3,19.7 7.4,29.6 z m 9.5,-18.4 c -12.4,7.3 -11,-6.4 -9.4,-17 3,-20.6 -30.8,-46.4 -45,-45.8 16.9,-7.3 19,-22.2 22.3,-9.9 12.2,-4.2 4.4,9.3 -4,7.8 24.1,14.4 64.8,36.5 36,65 z m -71.5,-54.1 c -7.3,7.5 4.1,15.3 10.5,6.6 3.1,-4.2 -1,-3.6 -3.8,-4.4 -3,-1 3.9,-6.6 10.8,-10.2 -5.7,0 -12.9,3.2 -17.5,8 z m 48,23.6 c 4.8,8.9 -8.6,19.7 -19,3.7 -3.4,-5.3 -0.4,-8 4.7,-8.6 5.6,-0.7 -12.7,-14 -18.5,-28.3 13,8.3 27,22.6 32.8,33.2 z m -39.6,-68 c -7.4,-11.8 -21.3,0.1 -12.1,11.2 4.4,5.4 4.3,1.8 6.2,-1.4 2.2,-3.7 12.8,15.8 15.1,25.8 1.8,-7.3 -4.5,-28 -9.2,-35.6 z m -47.6,11.6 c 18.7,5 -27,-35.4 -5.4,-37.4 13.8,-1.4 13.1,14 10.8,21.2 -3.2,9.6 38.4,35.4 52.3,37.1 -18.5,1.8 -36.4,5 -48,1 -5.5,-3.3 -0.8,-9.3 7,-7.1 -3.4,-1.5 -19.6,-15.5 -16.7,-14.8 z m -27.6,-24.3 c -12.3,-6.7 -18.4,10.5 -5,15.7 6.5,2.5 4.6,-0.6 4.7,-4.4 0,-4.2 19,7.5 26,15 -2.1,-7.2 -18,-22.1 -25.7,-26.3 z m 175.2,183.2 c -5.1,16 -4.7,-6.1 -14.4,9 2.6,-24.2 -6.2,-36.8 -28,-53.5 17.4,6.8 38.7,14.6 43.4,20.5 4.8,6 -3.3,8.8 -9.4,3.3 2.4,2.8 10.7,22.7 8.4,20.6 z m -6.2,6.2 c 2.4,1.3 3.3,4.4 1.9,7 -1.4,2.6 -4.4,3.6 -6.8,2.3 -2.4,-1.2 -3.3,-4.3 -2,-7 a 5.3,5.3 0 0 1 6.9,-2.3 z m -2.1,-353.9 c -26,0 -50.5,1.2 -70.2,4.3 h -0.3 a 186.5,186.5 0 0 0 -3.1,65.6 74,74 0 0 1 -4.3,23.2 l -0.2,0.1 c 0.1,0.7 0,1.5 -0.7,2 -0.5,0.5 -2.2,0.6 -1.9,-0.5 l 2.6,-1.5 a 3.6,3.6 0 0 0 -1.5,-2.2 c -2.4,-1.6 -5.5,-0.3 -6.8,2 -1.8,3.4 0.2,7.5 3.6,9.1 a 8.8,8.8 0 0 0 11.6,-4.6 c 0.6,-1.4 0.9,-3 0.8,-4.5 l 1.6,10 c 3,18.6 5,35 0.7,48.2 l -6.7,2 c -0.1,-5.6 -5,-9.5 -10.2,-9.5 h -1 c -7.1,0.8 -12,7.8 -11.4,14.8 0.4,4.6 3,8.8 7,11.1 31.7,22 67.7,0.2 70.7,-17.3 h 10.7 c 6.2,14.5 59,38.4 90.7,16.4 a 14.4,14.4 0 0 0 7,-11 c 0.6,-7 -4.4,-14.1 -11.5,-14.8 l 4,-5.5 a 16.6,16.6 0 0 0 19,9.5 c 1.9,-0.4 3.6,-1.1 5.1,-2 a 17,17 0 0 0 10.9,-2.2 16,16 0 0 0 10.2,-2 17,17 0 0 0 9.8,-2 v 0.2 a 17.2,17.2 0 0 0 10,-2 c 3,0.3 6.2,-0.3 9,-1.7 a 18,18 0 0 0 10.2,-2 v 0.2 c 3.7,0.4 7.6,-0.4 10.9,-2.4 7,-4.4 10,-13.8 5.7,-20.6 a 12.7,12.7 0 0 0 -15.7,-4.8 c -23,-53.3 -13.3,-39.8 -25.6,-96.8 a 1344,1344 0 0 0 -140.7,-8.8 z"
           fill="#ffffff"
           id="path190" />
        <path
           d="m 2737,287.4 c -3,17.6 -39.1,39.3 -70.8,17.3 a 14.3,14.3 0 0 1 -7,-11.1 c -0.6,-7 4.4,-14 11.5,-14.7 5.6,-0.6 11,3.4 11.2,9.3 0.1,4.4 -3.1,8.8 -7.7,8.8 -3,0 -6,-2.4 -5.5,-5.7 0.2,-1.7 2,-3.8 3.9,-2.8 m 75,-1 c 6.3,14.4 59,38.4 90.8,16.3 a 14.3,14.3 0 0 0 7,-11 c 0.5,-7 -4.4,-14.1 -11.5,-14.8 -5.6,-0.6 -11,3.4 -11.2,9.3 -0.2,4.4 3.1,8.8 7.6,8.9 3,0 6,-2.4 5.6,-5.7 -0.3,-1.7 -2,-3.8 -3.9,-3 m -24.7,-152 c 14.4,57 3,82.3 30.7,137.3 3,7 11,11.1 19,9.2 8.1,-2 14.2,-10.2 12.5,-18.4 a 12.7,12.7 0 0 0 -15.6,-9.7 c -6,1.6 -10.4,7.7 -9,13.7 a 9,9 0 0 0 11.2,6.4 c 3.7,-1.2 6.5,-5.3 5.2,-9 -0.8,-2.6 -3.8,-4.4 -6.5,-3.1 -1.6,0.8 -2.9,2.9 -1.6,4.3 0.4,0.6 2.1,1 2,-0.3 M 2676,229.8 c -0.3,1.1 1.4,1 1.9,0.6 1.4,-1.2 0.5,-3.4 -0.8,-4.3 -2.4,-1.6 -5.6,-0.3 -6.8,2 -1.8,3.4 0.2,7.5 3.6,9.1 a 8.8,8.8 0 0 0 11.6,-4.6 9.8,9.8 0 0 0 0.6,-6 m 174.9,26.8 a 12.7,12.7 0 0 1 17.7,3.8 c 4.2,6.8 1.2,16.1 -5.8,20.5 a 17.2,17.2 0 0 1 -11,2.5 m 9.9,-29 a 12.7,12.7 0 0 1 17.7,3.8 c 4.2,6.8 1.2,16.1 -5.8,20.5 a 17.2,17.2 0 0 1 -10.9,2.5 m 9,-29 a 12.7,12.7 0 0 1 17.6,3.8 c 4.2,6.8 1.3,16.1 -5.8,20.5 a 17.2,17.2 0 0 1 -10.8,2.5 m 9,-28.6 a 12.7,12.7 0 0 1 17.8,3.8 c 4.2,6.8 1.2,16.2 -5.8,20.5 a 17.2,17.2 0 0 1 -10.9,2.5 m 18,-30.5 a 12.7,12.7 0 0 1 17.7,3.8 c 4.2,6.8 1.2,16.1 -5.8,20.5 a 17.2,17.2 0 0 1 -11,2.5 m 9.2,-28.6 a 12.7,12.7 0 0 1 17.7,3.8 c 4.2,6.9 1.3,16.2 -5.8,20.6 a 17.2,17.2 0 0 1 -10.9,2.4 m -228.7,-93.1 c -0.6,-3.7 10,-7 15.8,-7.8 5.1,-0.8 14,-0.2 15.6,0.8 a 60.5,60.5 0 0 1 2.5,15.2 c -4,6.6 -6.2,7.6 -10,10.4 m 77.4,-18.2 c 0.7,-4.3 -11.5,-7.8 -18.7,-9 a 51,51 0 0 0 -18.5,1 48.3,48.3 0 0 0 -2.9,17.5 c 0.6,9.1 11.7,12 11.7,12 m -14.8,73.5 a 23,23 0 0 1 -19.8,0.9 m 23.2,-46.2 c 3.2,15.8 -16.2,10.2 -19.4,7.4 -10.7,8.2 -18.7,0.6 -16.2,-7.6 2,-6.6 11.2,-40.5 7.5,-45.7 m -48,48.6 c 3.4,-11 3.9,-14.5 4.3,-23.5 m 5.6,81.6 c 10.6,-33.4 -18,-85 -2.2,-148.2 m 147.3,157 c -22.5,20 -56.9,2.2 -70,-10.3 m 59.4,6.6 c -19,8.5 -36.2,-2.5 -43.7,-12.3 m 43.5,6.2 c -12,1.8 -22.7,-4.4 -32,-11.9 m 37,5.3 a 61.6,61.6 0 0 1 -28.4,-14 m 46.3,4.9 c -27.8,-55.2 -14.2,-75.1 -28.6,-132 m 32.9,119 c -23.2,-53.7 -8.5,-62.1 -22.9,-119 m 30.8,116 c -23.2,-53.8 -7.4,-58.2 -21.7,-115.2 m 30,113 c -23.2,-53.7 -6.4,-55.1 -20.8,-112.1 m 29.4,110.5 c -23.2,-53.7 -6,-54 -20.3,-111 m 29.1,109.3 c -23.2,-53.7 -7.5,-50.3 -20.1,-108.1 m 30.3,106.3 c -23.2,-53.7 -9.4,-47.9 -22,-105.7 m 31.5,103.7 c -23.2,-53.7 -10,-44.8 -22.7,-102.6 m 32.2,100.9 c -23.3,-53.7 -11.4,-42.4 -24,-100.2 m 34.1,98.4 c -23.2,-53.7 -13.2,-39.7 -25.8,-97.6 M 2671,296.1 c 22.5,20 52.8,4.3 55.5,-13.1 m -45,9.3 c 15.4,10.2 31.3,-3 33.4,-12.3 m -33.2,6.2 c 12.1,1.8 19.6,-2.6 21.7,-11 m 70,-26.4 c 8.6,-16.5 26.1,8.9 1,11 -14.1,1.2 -15,-9.6 -32.7,-12 m -34.6,1 c -8.7,-16.5 -26.3,8.9 -1.2,11 14.2,1.2 15.2,-9.6 32.8,-12"
           fill="none"
           stroke="#3366aa"
           stroke-linecap="round"
           stroke-linejoin="round"
           stroke-width="4.3"
           id="path191" />
        <path
           d="m 2922.7,60.5 c -10,10 -26.3,75 -24.8,83.6 -56.5,-5.4 -157.4,-11.4 -214.5,-3.4 -1,-7.7 -12.2,-67.6 -35.4,-80.2 z"
           fill="#eecc55"
           stroke="#333333"
           stroke-linejoin="round"
           stroke-width="4.3"
           id="path192" />
        <path
           d="m 2723.9,261.5 a 116,116 0 0 1 31.9,0.6 c -0.3,-6.5 -9.8,-2.4 -16,-6.4 -6.2,3.6 -15.8,1.3 -15.9,5.8 z"
           fill="#3366aa"
           stroke="#3366aa"
           stroke-linecap="round"
           stroke-linejoin="round"
           stroke-width="4.3"
           id="path193" />
        <path
           d="m 2768,179.4 a 3,2.6 0 1 0 6,0 3,2.6 0 1 0 -6,0 z"
           fill="#3366aa"
           stroke-width="0.5"
           id="path194" />
        <path
           d="m 2758.4,171 c 4.5,1.2 30.9,5.1 38.5,5.4 -0.2,1.8 -17.7,0.8 -23.8,0 -6,-0.6 -14.7,-3.4 -14.7,-5.4 z"
           fill="#3366aa"
           stroke="#3366aa"
           stroke-width="2.8"
           id="path195" />
        <path
           d="m 2792,177.9 c -7.3,8.9 -22.3,10.9 -37,2.8"
           fill="none"
           stroke="#3366aa"
           stroke-width="2.8"
           id="path196" />
        <path
           d="m 2764.3,179.4 a 6.75,6.0447761 0 1 0 13.5,0 6.75,6.0447761 0 1 0 -13.5,0 z"
           fill="none"
           stroke="#3366aa"
           stroke-linejoin="round"
           stroke-width="2.5"
           id="path197" />
        <path
           d="m 2714,179.7 a 2.6,2.3 0 1 1 -5.2,0 2.6,2.3 0 1 1 5.2,0 z"
           fill="#3366aa"
           stroke-width="0.4"
           id="path198" />
        <path
           d="m 2723.9,171.2 a 334,334 0 0 1 -32.5,4.7 c 0,1.6 15,0.7 20,0 5.2,-0.6 12.5,-3 12.5,-4.7 z"
           fill="#3366aa"
           stroke="#3366aa"
           stroke-width="2.8"
           id="path199" />
        <path
           d="m 2695.4,177.2 c 6.3,8.4 19,11.7 31.3,2.4"
           fill="none"
           stroke="#3366aa"
           stroke-width="2.8"
           id="path200" />
        <path
           d="m 2717.2,179.6 a 5.85,5.3456897 0 1 1 -11.7,0 5.85,5.3456897 0 1 1 11.7,0 z"
           fill="none"
           stroke="#3366aa"
           stroke-linejoin="round"
           stroke-width="2.4"
           id="path201" />
        <g
           id="g6211"
           transform="translate(0,-1.3)">
          <path
             d="m 2740,82.9 c -0.6,-10.7 -4.1,-15.6 -8.2,-15.8 -4.1,-0.1 -10.6,3.2 -10.5,16.2 -11.5,-0.4 -13,6.4 -12.7,9.5 0.4,3.4 1.4,8.8 14.6,7.6 -1.4,16.5 5.8,0.7 8.6,0.7 2.8,-0.1 9,14.6 8.2,0.2 11.7,0 14.1,-7.4 14.1,-10.8 0,-3.5 -3.3,-7.5 -14.1,-7.6 z"
             fill="#333333"
             stroke="#ee1111"
             stroke-linecap="round"
             stroke-linejoin="round"
             stroke-width="2"
             id="path202" />
          <path
             transform="matrix(-0.1917,0,0,0.2081,2687.6,36)"
             d="m -198.2,267.5 a 30.7,30.7 0 1 1 -61.4,0 30.7,30.7 0 1 1 61.4,0 z"
             fill="#333333"
             stroke="#ee1111"
             stroke-linecap="round"
             stroke-linejoin="round"
             stroke-width="9.1"
             id="path203" />
        </g>
        <path
           d="m 2685,84.7 c 0,-9.3 -2.7,-13.9 -6.2,-14.3 -3.5,-0.3 -8.4,0.7 -9,12.2 2.4,8.5 3.2,17.8 7.2,17.6 2.3,-0.2 7,13.4 7,0.7 10,0.7 12.5,-5.7 12.6,-8.6 0.2,-3.1 -2.4,-6.8 -11.6,-7.6 z"
           fill="#333333"
           stroke="#ee1111"
           stroke-linecap="round"
           stroke-linejoin="round"
           stroke-width="2"
           id="path204" />
        <path
           transform="matrix(-0.1639,-0.0113,-0.011,0.1825,2642.6,40.5)"
           d="m -198.2,267.5 a 30.7,30.7 0 1 1 -61.4,0 30.7,30.7 0 1 1 61.4,0 z"
           fill="#333333"
           stroke="#ee1111"
           stroke-linecap="round"
           stroke-linejoin="round"
           stroke-width="10.5"
           id="path205" />
        <path
           d="m 2747.8,156.5 c 22.5,-7.5 55.9,3.5 55.9,3.5 m -76.4,-1.5 c -15.3,-7.5 -37.9,3.5 -37.9,3.5"
           fill="none"
           stroke="#3366aa"
           stroke-linecap="round"
           stroke-width="6"
           id="path206" />
        <path
           d="m 2679.2,121 c 54,-3.7 152,-3.3 220.7,4 l 1.2,-9.6 c -4.6,-0.6 -8.8,-2 -11.2,-7 -3.3,4.8 -33,13 -43.6,-2.8 -15.2,9.9 -43.9,10.8 -55,-3 -4,10.2 -55,11.3 -59.9,1.1 -6.7,10.5 -43.1,13.4 -54.8,1.5 z"
           fill="#3366aa"
           id="path207" />
        <path
           transform="matrix(-0.1312,-0.0929,0.1011,-0.1351,2906.3,353.1)"
           d="m 426.9,505.2 c -15.5,40.4 -63.3,57.9 -102.5,42.2 -46.5,-18.6 -66.4,-74 -47.6,-119.2 a 99.7,99.7 0 0 1 44.8,-49.3"
           fill="none"
           stroke="#3366aa"
           stroke-width="17.2"
           id="path208" />
        <path
           d="m 2897.6,89.7 c 0,-9.4 -2.8,-14 -6.3,-14.2 -3.6,-0.4 -9.2,2.2 -9.7,13.7 -9.8,-1 -11.5,5 -11.3,7.6 0.2,3 0.8,7.9 12.1,7.4 -1.8,14.4 5,1 7.4,1 2.4,0 7,13.3 7,0.6 7.4,0.7 7.3,-4.6 8.4,-9.2 0.7,-3 1.6,-6.3 -7.6,-7 z"
           fill="#333333"
           stroke="#ee1111"
           stroke-linecap="round"
           stroke-linejoin="round"
           stroke-width="2"
           id="path209" />
        <path
           transform="matrix(-0.164,-0.0092,-0.009,0.1827,2854.8,46)"
           d="m -198.2,267.5 a 30.7,30.7 0 1 1 -61.4,0 30.7,30.7 0 1 1 61.4,0 z"
           fill="#333333"
           stroke="#ee1111"
           stroke-linecap="round"
           stroke-linejoin="round"
           stroke-width="10.5"
           id="path210" />
        <path
           d="m 2928.8,281.8 c -46.8,55.8 -83.7,140.2 -83.7,227 12.8,-23.3 29,-30.4 49.2,-31 0,-55.7 31,-124.4 79.3,-182.7 -13.2,-5.9 -28.7,-9.5 -44.8,-13.3 z"
           fill="#ee1111"
           stroke="#333333"
           stroke-width="2"
           id="path211" />
        <path
           d="m 2788,529.8 c 0,24.1 13,46.8 26.5,68.5 13.4,-21.1 26.4,-44.5 26.4,-68.5 0,-69.5 11.8,-149.4 83.2,-246.6 l -22.8,-5.2 c -30.7,27 -70.7,49.8 -95.5,49.8 A 148,148 0 0 1 2729.4,307 c -3.3,4 -15.4,7.6 -21.8,9.7 50,70.1 80.4,127 80.4,213 z"
           fill="#eecc55"
           stroke="#333333"
           stroke-linejoin="round"
           stroke-width="5.3"
           id="path212" />
        <path
           transform="translate(2404.3,17.6)"
           d="m 338.9,322.4 a 6.3,6.3 0 1 1 -12.6,0 6.3,6.3 0 1 1 12.6,0 z"
           fill="#ffffff"
           id="path213" />
        <path
           transform="translate(2426.4,25.8)"
           d="m 338.9,322.4 a 6.3,6.3 0 1 1 -12.6,0 6.3,6.3 0 1 1 12.6,0 z"
           fill="#ffffff"
           id="path214" />
        <path
           transform="translate(2447.9,31)"
           d="m 338.9,322.4 a 6.3,6.3 0 1 1 -12.6,0 6.3,6.3 0 1 1 12.6,0 z"
           fill="#ffffff"
           id="path215" />
        <path
           transform="translate(2469.9,33.7)"
           d="m 338.9,322.4 a 6.3,6.3 0 1 1 -12.6,0 6.3,6.3 0 1 1 12.6,0 z"
           fill="#ffffff"
           id="path216" />
        <path
           transform="translate(2492.7,32.6)"
           d="m 338.9,322.4 a 6.3,6.3 0 1 1 -12.6,0 6.3,6.3 0 1 1 12.6,0 z"
           fill="#ffffff"
           id="path217" />
        <path
           transform="translate(2515.7,24.6)"
           d="m 338.9,322.4 a 6.3,6.3 0 1 1 -12.6,0 6.3,6.3 0 1 1 12.6,0 z"
           fill="#ffffff"
           id="path218" />
        <path
           transform="translate(2535.1,16)"
           d="m 338.9,322.4 a 6.3,6.3 0 1 1 -12.6,0 6.3,6.3 0 1 1 12.6,0 z"
           fill="#ffffff"
           id="path219" />
        <path
           d="m 2920.6,284.7 -19.3,-6.7 c -30.7,27 -70.7,49.8 -95.5,49.8 a 151,151 0 0 1 -77.3,-20.7 c -3.9,5.1 -8.9,6.5 -18,9.1 28.7,19.9 67.2,29.5 97.5,29.5 30.3,0 82,-32 112.6,-61 z"
           fill="#3366aa"
           id="path220" />
        <path
           transform="translate(2551.5,5.4)"
           d="m 338.9,322.4 a 6.3,6.3 0 1 1 -12.6,0 6.3,6.3 0 1 1 12.6,0 z"
           fill="#ffffff"
           id="path221" />
        <path
           d="m 2729.7,349.4 c 50.7,25.3 103.7,32.6 156.6,-7.6 m -143.4,27.8 64.8,18.8 65.5,-21 m -123.6,18.9 59,19.4 57.4,-21 m -106.8,20.4 51.2,19.5 49.8,-21 m -92.8,20.8 44.3,19.5 43.2,-21 m -77.8,22.7 35.5,19.5 34.6,-21 m -66.2,22.3 32,19.5 31.3,-21 m -59,26.6 28.6,19.5 28,-21 m -51.8,27 24.8,19.5 24,-21 m -24,21 -1,-25.5 -0.9,-25.1 -0.4,-20.8 -0.9,-21.2 -1.3,-19.3 -1.9,-18.9 -0.8,-17.3"
           fill="none"
           stroke="#333333"
           stroke-linejoin="round"
           stroke-width="5.3"
           id="path222" />
        <path
           d="m 2873.2,451.4 c 0.6,-5.7 2,-0.7 1.6,1.9 0.6,5.3 7,8.8 11.6,5.8 5.1,-2.9 6,-10.8 1.4,-14.6 -3.2,-2.2 -8.1,-2.3 -10.7,1 -5,1.4 1.1,-2.2 3.2,-2.8 5.5,-4 4.6,-14.2 -2.3,-16 -7.2,-1.9 -12.9,7.7 -9,13.7 0.5,2.2 3.8,2.6 3.5,5.1 -2.8,-0.6 -2.7,-4.8 -5.5,-6 -5.2,-3.2 -11.6,2 -12,7.5 -1.2,5.3 4,11.7 9.6,9.8 3.9,-1 5.6,-4.8 6.8,-8.1 2.2,1.1 -1,10.4 -2.8,14 -1.3,2.2 7.7,3 4,-1.5 -0.4,-3.3 0,-6.5 0.6,-9.8 m 12.2,-46.4 c 1.5,-5.6 2,-0.4 1.3,2 -0.3,5.4 5.4,9.6 10.4,7.7 5,-1.7 7.5,-8.4 4.6,-12.8 -2.2,-4.7 -8.6,-5.1 -12.2,-1.9 -4.4,-1 3,-1.7 4.5,-2.8 6.1,-3.3 6.2,-14.2 -1,-16.2 -7.2,-2.1 -13.3,7 -9.8,13.3 1.3,1.2 4.1,6.3 0.8,3.7 -0.3,-5 -5.8,-9 -10.6,-6.7 -6,2.7 -7.9,12 -2.6,16.3 4.7,3.5 11,-0.2 12.8,-5.2 3.4,-1.8 -1.5,7.2 -2.3,9.5 -3.6,3.6 -3,5.7 2,5.8 -0.7,-4.3 0.7,-8.7 2,-12.7 m 18.8,-44.3 c 2.2,-5.3 2,-0.1 1,2.2 -1,5.6 5,11.2 10.3,8.7 6.7,-2.2 8.5,-12.8 1.8,-16 -3,-1.7 -6.1,-0.3 -8.9,0.8 -2.7,-2.4 4.2,-1 5.7,-2.5 6.4,-2.6 7.4,-13.1 0.8,-16 -7.5,-3.4 -15.2,7 -10.8,13.5 2.8,2.8 -0.6,4.5 -0.6,0.3 -0.8,-5.8 -8.3,-8.2 -12.5,-4.4 -5.1,3.6 -5.5,12.9 0.8,15.5 4.3,1.8 9,-1 11,-5 3.5,-1.2 -2.5,7 -3.6,9.2 -4,3.1 -3.7,5.2 1.3,6 -0.2,-4.3 1.8,-8.4 3.7,-12.3 m 24,-41.7 c 2.7,-5 2,0.1 0.7,2.4 -1.6,5 3,10.5 8.3,9.8 7.4,-0.4 11,-11.4 4.8,-15.7 -2.8,-2.2 -6.3,-1.2 -9.2,-0.3 -2.5,-2.7 4.2,-0.6 6,-1.9 6.5,-2 8.7,-12.6 2.1,-16 -6.8,-3.6 -14.8,4.7 -12.2,11.5 2,2 0.8,6.7 -0.2,2.1 0.5,-5.7 -6.2,-10 -11.2,-7.1 -5.8,2.6 -8,12.1 -2.1,15.8 4,2.5 9.3,0.1 11.8,-3.5 3.7,-1 -3.1,6.7 -4.5,8.6 -4.4,2.6 -4.3,4.7 0.6,6.2 a 27,27 0 0 1 5,-11.9"
           fill="#333333"
           stroke="#333333"
           stroke-width="1.8"
           id="path223" />
        <g
           transform="translate(58.4,-1.3)"
           id="g234">
          <g
             id="g33591"
             transform="matrix(0.075,0,0,0.075,2332.7,382.1)">
            <path
               transform="matrix(0.9405,0,0,0.9405,469.7,-96.4)"
               d="m 2093.2,-377.1 a 42.85,42.85 0 1 1 -85.7,0 42.85,42.85 0 1 1 85.7,0 z"
               fill="#333333"
               id="path224" />
            <g
               id="g226">
              <path
                 transform="matrix(0.9405,0,0,0.9405,544.7,-22)"
                 d="m 2093.2,-377.1 a 42.85,42.85 0 1 1 -85.7,0 42.85,42.85 0 1 1 85.7,0 z"
                 fill="#333333"
                 id="path225" />
              <path
                 transform="matrix(0.9405,0,0,0.9405,394.8,-23)"
                 d="m 2093.2,-377.1 a 42.85,42.85 0 1 1 -85.7,0 42.85,42.85 0 1 1 85.7,0 z"
                 fill="#333333"
                 id="path226" />
            </g>
            <path
               d="m 2398.1,-40.6 -46.9,-74.5 -56,56.1 c 51.2,-107.7 82.2,-217.5 89.7,-332.4 h 26.4 c 7.5,114.9 38.5,224.7 89.8,332.4 l -56.1,-56 z"
               fill="#333333"
               id="path227" />
          </g>
          <use
             transform="translate(1,50.8)"
             width="744.09998"
             height="1052.4"
             xlink:href="#g33591"
             id="use227" />
          <use
             transform="translate(4.4,108.2)"
             width="744.09998"
             height="1052.4"
             xlink:href="#g33591"
             id="use228" />
          <use
             transform="translate(40.7,32)"
             width="744.09998"
             height="1052.4"
             xlink:href="#g33591"
             id="use229" />
          <use
             transform="translate(81,56)"
             width="744.09998"
             height="1052.4"
             xlink:href="#g33591"
             id="use230" />
          <use
             transform="translate(41.2,81.9)"
             width="744.09998"
             height="1052.4"
             xlink:href="#g33591"
             id="use231" />
          <use
             transform="matrix(1,0,0,-1,31.7,965.8)"
             width="744.09998"
             height="1052.4"
             xlink:href="#g33591"
             id="use232" />
          <use
             transform="matrix(1,0,0,-1,9,906)"
             width="744.09998"
             height="1052.4"
             xlink:href="#g33591"
             id="use233" />
          <use
             transform="matrix(1,0,0,-1,12.6,1024.7)"
             width="744.09998"
             height="1052.4"
             xlink:href="#g33591"
             id="use234" />
        </g>
        <g
           transform="matrix(0.4085,0,0,0.4085,2508.2,-279.3)"
           id="g235">
          <path
             d="m 395.7,1515.8 c -11,-1.4 -16.4,1.4 -17,5.8 -0.7,4.4 1.8,12.1 15,14.5 -1.8,12.4 5,15.5 8,15.7 3.6,0.3 9.3,0.3 9.7,-14.3 16.7,4.8 16.4,-3.3 16.7,-6.3 0.3,-3 1.1,-9.7 -13.6,-11.7 1.5,-12.7 -5.8,-16.8 -9.2,-17.5 -3.6,-0.7 -8,2.1 -9.6,13.8 z"
             fill="#ffffff"
             stroke="#333333"
             stroke-linecap="round"
             stroke-linejoin="round"
             stroke-width="3.7"
             id="path234" />
          <path
             transform="matrix(-0.2026,0.169,0.1719,0.206,311.4,1510)"
             d="m -198.2,267.5 a 30.7,30.7 0 0 1 -61.4,0 30.7,30.7 0 0 1 61.4,0 z"
             fill="#ffffff"
             stroke="#333333"
             stroke-linecap="round"
             stroke-linejoin="round"
             stroke-width="21.2"
             id="path235" />
        </g>
        <g
           transform="translate(58.4,-1.3)"
           id="g253">
          <g
             transform="matrix(0.8652,0,0,0.8652,2383.4,93.8)"
             id="g240">
            <path
               d="m 288.9,490.3 a 62.5,62.5 0 1 1 -125,0 62.5,62.5 0 1 1 125,0 z"
               fill="#eecc55"
               stroke="#333333"
               stroke-linecap="round"
               stroke-linejoin="round"
               stroke-width="4.5"
               id="path236" />
            <path
               d="m 209.5,395.4 c 11,2.8 4.5,13.4 17.2,20.5 -25,-8 -21.1,-11.5 -46,1.4 7,-14.3 16.3,-25.1 28.8,-22 z"
               fill="#eecc55"
               stroke="#333333"
               stroke-linejoin="round"
               stroke-width="4.5"
               id="path237" />
            <path
               d="m 243.3,395.4 c -11,2.8 -4.5,13.4 -17.2,20.5 25,-8 21.2,-11.5 46,1.4 -7,-14.3 -16.3,-25.1 -28.8,-22 z"
               fill="#eecc55"
               stroke="#333333"
               stroke-linecap="round"
               stroke-width="4.5"
               id="path238" />
            <path
               d="m 217.4,390.1 c 0.2,6.9 6.7,8.2 9.2,24.7 2.8,-18.4 10.3,-17.8 8.5,-29.7 -0.5,-3.8 -3.7,-7 -8.7,-17 -2.4,13.3 -9.2,15.6 -9,22 z"
               fill="#eecc55"
               stroke="#333333"
               stroke-linejoin="round"
               stroke-width="4.5"
               id="path239" />
            <path
               d="m 236.7,418.6 a 10.3,10.3 0 1 1 -20.6,0 10.3,10.3 0 1 1 20.6,0 z"
               fill="#eecc55"
               stroke="#333333"
               stroke-linecap="round"
               stroke-linejoin="round"
               stroke-width="4.5"
               id="path240" />
          </g>
          <path
             d="m 2527.2,532.4 c 14,5.3 32.1,8.5 52,8.5 19.9,0 38.2,-3.2 52.1,-8.5 M 2525.8,515 a 225,225 0 0 0 107,0"
             fill="#eecc55"
             stroke="#333333"
             stroke-linecap="round"
             stroke-linejoin="round"
             stroke-width="4.3"
             id="path241" />
          <path
             d="m 2575,467.7 c -27.9,13.7 -29.4,48.4 -42.2,46 -12.7,-2.3 12.4,-46 42.2,-46 z m 9.3,0 c 27.9,13.7 29.4,48.4 42.2,46 12.7,-2.3 -12.4,-46 -42.2,-46 z"
             fill="#333333"
             id="path242" />
          <path
             d="m 2577.2,467.9 c -14.7,21.4 -14.3,50.4 -27,48.5 -12.7,-2 5.9,-37.9 27,-48.5 z m 4.7,0 c 14.7,21.4 14.3,50.4 27,48.5 12.7,-2 -5.9,-37.9 -27,-48.5 z"
             fill="#333333"
             id="path243" />
          <path
             d="m 2578.2,468.5 c -2.6,23 4.4,50 -9.2,49.5 -13.5,-0.5 2.3,-39.7 9.2,-49.5 z"
             fill="#333333"
             id="path244" />
          <path
             d="m 2579.7,468.5 c 2.6,23 -4.4,50 9.2,49.5 13.5,-0.5 -2.3,-39.7 -9.2,-49.5 z"
             fill="#333333"
             id="path245" />
          <path
             d="m 2538.6,525.7 a 5,5 0 1 1 -10,0 5,5 0 1 1 10,0 z"
             fill="#3366aa"
             stroke-width="0.6"
             id="path246" />
          <path
             transform="matrix(0.5867,0,0,0.5867,2443.6,232)"
             d="m 189.5,506 a 8.5,8.5 0 1 1 -17,0 8.5,8.5 0 1 1 17,0 z"
             fill="#3366aa"
             id="path247" />
          <path
             transform="matrix(0.5867,0,0,0.5867,2463,234.3)"
             d="m 189.5,506 a 8.5,8.5 0 1 1 -17,0 8.5,8.5 0 1 1 17,0 z"
             fill="#3366aa"
             id="path248" />
          <path
             transform="matrix(-0.5867,0,0,0.5867,2731.7,228.4)"
             d="m 189.5,506 a 8.5,8.5 0 1 1 -17,0 8.5,8.5 0 1 1 17,0 z"
             fill="#3366aa"
             id="path249" />
          <path
             transform="matrix(-0.5867,0,0,0.5867,2714.8,232.1)"
             d="m 189.5,506 a 8.5,8.5 0 1 1 -17,0 8.5,8.5 0 1 1 17,0 z"
             fill="#3366aa"
             id="path250" />
          <path
             transform="matrix(-0.5867,0,0,0.5867,2695.6,234.3)"
             d="m 189.5,506 a 8.5,8.5 0 1 1 -17,0 8.5,8.5 0 1 1 17,0 z"
             fill="#3366aa"
             id="path251" />
          <path
             d="m 2533.8,539.1 c 30.1,8.5 59.9,10.1 91.5,-1.2 -12.6,21.1 -28.5,29.8 -46.8,30.1 a 53.2,53.2 0 0 1 -44.7,-28.9 z"
             fill="#ee1111"
             id="path252" />
          <path
             d="m 2561.3,552.1 a 6.5,6.5 0 1 1 -13,0 6.5,6.5 0 1 1 13,0 z m 16.1,7.3 a 6.5,6.5 0 1 1 -13,0 6.5,6.5 0 1 1 13,0 z m 17.4,-0.7 a 6.5,6.5 0 1 1 -13,0 6.5,6.5 0 1 1 13,0 z m 15.2,-7.3 a 6.5,6.5 0 1 1 -13,0 6.5,6.5 0 1 1 13,0 z"
             fill="#ffffff"
             stroke="#333333"
             stroke-linecap="round"
             stroke-linejoin="round"
             stroke-width="2.5"
             id="path253" />
        </g>
        <path
           d="m 2754.5,117.3 c 48,0 111.4,3 146.2,7 -0.8,6.7 -4.3,11.2 -2.8,19.8 -56.4,-5.4 -157.4,-11.4 -214.5,-3.4 -1,-7.7 -2.1,-13.8 -4.2,-20 a 659,659 0 0 1 75.3,-3.4 z"
           fill="#333333"
           id="path254" />
        <use
           id="u6215"
           transform="matrix(0.8774,0,0,0.8774,394.8,11.6)"
           width="744.09998"
           height="1052.4"
           xlink:href="#g6211" />
        <use
           transform="rotate(3.1,2770.7,1100.4)"
           width="744.09998"
           height="1052.4"
           xlink:href="#u6215"
           id="use254" />
      </g>
      <use
         transform="rotate(180,1068.1,2541.3)"
         width="744.09998"
         height="1052.4"
         xlink:href="#g5886"
         id="use255" />
      <use
         transform="rotate(180,1068.1,2541.9)"
         width="744.09998"
         height="1052.4"
         xlink:href="#g15760"
         id="use256" />
      <g
         id="g15760"
         transform="matrix(1,0,0,1.0011,691,1980.2)">
        <path
           d="m 586.1,159.4 20.8,-25.3 20.7,25.3 1.4,337 -20.7,1.6 -20.8,-2.6 z"
           fill="#ffffff"
           stroke="#333333"
           stroke-linejoin="round"
           stroke-width="4.3"
           id="path256" />
        <path
           d="m 596.6,528.2 c 0,4.5 -3.2,8 -7.3,8 -4.1,0 -7.3,-3.5 -7.3,-8 0,-4.5 3.3,-8 7.3,-8 4,0 7.3,3.6 7.3,8 z"
           fill="#ffffff"
           stroke="#333333"
           stroke-linecap="round"
           stroke-linejoin="round"
           stroke-width="3.2"
           id="path257" />
        <path
           d="m 613.2,545.5 c 0,4.4 -4,8 -8.7,8 -19,0 -8.9,-2.1 -9.3,-7.7 -0.4,-6 -5.5,-9.9 9.3,-8.4 4.8,0.5 8.7,3.6 8.7,8 z m -0.8,16 c 0,4.5 -3.9,8 -8.6,8 -18.7,0 -8.8,-2 -9.1,-7.6 -0.4,-6 -5.5,-9.9 9.1,-8.4 4.7,0.5 8.6,3.6 8.6,8 z m 1.2,-32.9 a 8,8 0 0 1 -8.3,8 c -18,0 -8.4,-2 -8.7,-7.6 -0.4,-6 -5.3,-10 8.7,-8.4 4.6,0.5 8.3,3.6 8.3,8 z m -4.1,48.5 a 6.9,6.9 0 0 1 -6.8,7 c -14.6,0 -6.8,-2 -7.1,-6.7 -0.3,-5.2 -4.3,-8.6 7.1,-7.3 3.8,0.4 6.8,3.1 6.8,7 z m -39.2,-57.8 c 1,-4.8 5.3,-7.7 9.8,-6.4 17.4,4.8 7.7,4.5 6.8,10.6 -1,6.5 3,12 -10.4,6.7 a 9.7,9.7 0 0 1 -6.2,-10.9 z"
           fill="#ffffff"
           stroke="#333333"
           stroke-linecap="round"
           stroke-linejoin="round"
           stroke-width="4.3"
           id="path258" />
        <path
           d="m 637.3,545.5 c 0,4.4 -5,8 -11.4,8 -24.8,0 -11.6,-2.1 -12,-7.7 -0.6,-6 -7.3,-9.9 12,-8.4 6.3,0.5 11.4,3.6 11.4,8 z m -1,16 c 0,4.5 -5,8 -11.3,8 -24.5,0 -11.5,-2 -12,-7.6 -0.5,-6 -7.1,-9.9 12,-8.4 6.2,0.5 11.3,3.6 11.3,8 z m 0.2,-32.9 c 0,4.5 -4.8,8 -10.8,8 -23.5,0 -11,-2 -11.5,-7.6 -0.5,-6 -6.9,-10 11.5,-8.4 6,0.5 10.8,3.6 10.8,8 z m -8.3,48.5 c 0,3.8 -4,7 -8.8,7 -19.3,0 -9,-2 -9.4,-6.7 -0.4,-5.2 -5.6,-8.6 9.4,-7.3 4.9,0.4 8.8,3.1 8.8,7 z m -32.9,-32 c 0,4.4 -3.4,8 -7.7,8 -4.3,0 -7.7,-3.6 -7.7,-8 0,-4.4 3.5,-8 7.7,-8 4.2,0 7.7,3.5 7.7,8 z m -0.5,16 c 0,4.5 -3.4,8.1 -7.6,8.1 -4.2,0 -7.7,-3.6 -7.7,-8 0,-4.5 3.4,-8 7.6,-8 4.2,0 7.7,3.5 7.7,8 z m 0.9,15.6 c 0,3.9 -2.7,7 -6,7 -3.3,0 -6,-3.1 -6,-7 0,-3.9 2.7,-7 6,-7 3.3,0 6,3.2 6,7 z m -9,-52.4 c 1,-4.8 5,-7.8 8.8,-6.7 3.8,1.1 6.4,5.8 5.4,10.6 -1,4.8 -5,7.8 -8.9,6.7 -3.9,-1.1 -6.3,-5.8 -5.3,-10.6 z"
           fill="#ffffff"
           stroke="#333333"
           stroke-linejoin="round"
           stroke-width="4.3"
           id="path259" />
        <path
           d="m 562.3,491.7 c -3.6,1 -7.5,0.2 -6.2,12.2 1.1,10.3 19.4,6.8 32.7,9.7 9.8,4 19.6,8.6 28.2,4.1 7.3,-1 15,-2.9 21.8,-3.8 l 6,-0.5 h 0.6 v -0.1 c 6,-0.8 10.4,-2.6 11,-7.6 1.2,-12 -2.7,-11.1 -6.2,-12.1 l -42.8,4 z"
           fill="#eecc55"
           stroke="#333333"
           stroke-linejoin="round"
           stroke-width="4.3"
           id="path260" />
        <g
           transform="translate(-0.8)"
           id="g262">
          <path
             d="m 621.5,599.3 a 14.5,14.5 0 1 1 -29,0 14.5,14.5 0 1 1 29,0 z"
             fill="#eecc55"
             stroke="#333333"
             stroke-linejoin="round"
             stroke-width="4.3"
             id="path261" />
          <path
             d="m 593.5,599.5 h 20.6 m -19.9,-6.4 h 14.1 m -14,12.5 h 14"
             fill="none"
             stroke="#333333"
             stroke-linecap="round"
             stroke-width="4.3"
             id="path262" />
        </g>
        <path
           d="m 607.5,173 0.9,323.8"
           fill="none"
           stroke="#333333"
           stroke-linecap="round"
           stroke-width="4.3"
           id="path263" />
      </g>
    </g>
    <use
       transform="translate(1620)"
       xlink:href="#u37992"
       id="use263" />
    <use
       transform="translate(1620)"
       xlink:href="#u37994"
       id="use264" />
    <use
       transform="translate(405.2)"
       xlink:href="#frame"
       id="use265" />
    <use
       transform="translate(405.1)"
       stroke="#ffffff"
       stroke-width="3.2"
       style="paint-order:stroke fill markers"
       xlink:href="#u7712"
       id="use266" />
    <use
       transform="translate(405.1)"
       stroke="#ffffff"
       stroke-width="3.2"
       style="paint-order:stroke fill markers"
       xlink:href="#u7969"
       id="use267" />
    <use
       transform="translate(2430,100)"
       style="stroke:#333333"
       xlink:href="#K"
       id="use268" />
    <use
       transform="rotate(180,1316.3,107.5)"
       style="stroke:#333333"
       xlink:href="#K"
       id="use269" />
  </g>
  <g
     id="club_1"
     transform="translate(-2430)">
    <rect
       id="card"
       x="0.69999999"
       y="0.69999999"
       width="201.10001"
       height="313.60001"
       rx="9"
       ry="9"
       fill="#ffffff"
       stroke="#333333"
       stroke-width="1.4" />
    <use
       id="u37950"
       transform="rotate(180,101.3,157.5)"
       xlink:href="#clubS" />
    <use
       id="clubS"
       transform="matrix(0.45,0,0,0.45,-28.38,-12.7)"
       xlink:href="#club" />
    <path
       id="club"
       d="m 101.25,132.5 a 11,11 0 0 0 -8.1,18.41 l -0.5,0.52 a 11,11 0 1 0 5.86,13.95 l 0.59,0.37 c 0,7.28 -2.74,13.39 -6.1,16.75 h 16.5 c -3.36,-3.36 -6.1,-9.47 -6.1,-16.75 l 0.59,-0.37 a 11,11 0 0 0 10.26,7.12 11,11 0 1 0 -4.4,-21.07 l -0.5,-0.52 a 11,11 0 0 0 -8.1,-18.41 z"
       style="fill:#333333" />
  </g>
</svg>
