<?xml version="1.0" encoding="UTF-8" standalone="no"?>
<svg
   width="202.5"
   height="315"
   version="1.1"
   id="svg1018"
   xmlns:xlink="http://www.w3.org/1999/xlink"
   xmlns="http://www.w3.org/2000/svg"
   xmlns:svg="http://www.w3.org/2000/svg">
  <defs
     id="defs1018" />
  <path
     id="K"
     d="m 10.499902,-702.7 13.9,-16.4 m -14.3999997,-0.2 v 25.7 m 5.2999997,-14.3 9,14.4 M 7.9999023,-720 h 3.8999997 m -3.8999997,27.4 h 3.8999997 m 10,-27.4 h 3.9 m -3.8,27.4 h 3.8"
     stroke-linecap="square"
     stroke-width="3.5" />
  <g
     id="club_jack"
     transform="translate(-2430.1001,-630)">
    <path
       id="frame"
       d="M 2194.1,281.3 H 2058 V 33.6 h 136.1 z"
       fill="none"
       stroke="#3366aa"
       stroke-linejoin="round"
       stroke-width="2.4" />
  </g>
  <g
     id="spade_1"
     transform="translate(-2430.1001,-630)">
    <g
       id="g272">
      <use
         id="u42787"
         transform="rotate(180,101.3,1102.5)"
         xlink:href="#p37946" />
      <use
         id="p37946"
         transform="matrix(0.46108,0,0,0.46108,-216.4,495.2)"
         xlink:href="#spade" />
    </g>
  </g>
  <g
     id="spade_3"
     transform="translate(-2430.1001,-630)">
    <path
       id="spade"
       d="m 506.25,1075.5 c -9,17 -21.75,20.1 -21.75,31.6 0,6.1 4.4,11.3 10.6,11.3 3.7,0.06 7.1,-1.85 9,-5 0,8 -3.2,12.3 -6.3,16 h 16.8 c -3.1,-3.7 -6.4,-8 -6.2,-16 1.9,3.2 5.35,5 9,5 6.2,0 10.5,-5.3 10.6,-11.4 0,-11.4 -12.75,-14.5 -21.75,-31.5 z"
       fill="#333333" />
  </g>
  <g
     id="spade_5"
     transform="translate(-2430.1001,-630)">
    <use
       id="u42831"
       transform="translate(810)"
       xlink:href="#p37946" />
    <use
       id="u42833"
       transform="translate(810)"
       xlink:href="#u42787" />
  </g>
  <g
     id="spade_jack"
     transform="translate(-2430.1001,-630)">
    <use
       id="u24387"
       transform="matrix(0.9015,0,0,0.9015,1624.6,11.9)"
       xlink:href="#spade" />
    <use
       id="u24552"
       transform="rotate(180,2126,1102.6)"
       xlink:href="#u24387" />
  </g>
  <g
     id="spade_king"
     transform="translate(-2430.1001,-630)">
    <use
       transform="rotate(180,1316.3,630)"
       xlink:href="#card"
       id="use429" />
    <g
       transform="matrix(0.2456,0,0,0.2665,2249.2,536.5)"
       id="g468">
      <g
         transform="matrix(1,0,0,0.9985,777,1598.1)"
         id="g430">
        <path
           d="m 304.6,274 c -26,-0.1 -47.5,1 -59.2,4.2 -46.7,12.7 -112.6,47.4 -153.7,103 l 0.7,201.3 41.3,131 c 25.2,18.4 44,30.9 75.8,42.2 10.5,3.8 39.9,8.4 76,12.4 l 1.8,0.2 2.3,0.2 c 73.3,8.3 177.3,14.2 209,5.6 46.8,-12.7 112.6,-47.3 153.8,-103 l -0.7,-201.3 -41.3,-131 c -25.2,-18.3 -44,-30.9 -75.8,-42.2 -10.5,-3.8 -39.9,-8.3 -76.1,-12.3 l -1.7,-0.2 -2.3,-0.3 c -46.4,-5.2 -105,-9.5 -149.9,-9.8 z"
           fill="#333333"
           id="path429" />
        <path
           d="m 315.6,501.7 h 113 v 49 h -113 z"
           fill="#ee1111"
           stroke="#eecc55"
           stroke-linecap="round"
           stroke-linejoin="round"
           stroke-width="7"
           id="path430" />
      </g>
      <g
         id="g42617"
         transform="matrix(1,0,0,0.9985,-819.2,1599.3)">
        <path
           d="m 2147.3,748.2 a 387,387 0 0 1 -64.3,-115 c -14.7,-42 -21.7,-86 -17.7,-127.1 2.6,-24.8 6.1,-41.9 12.9,-66.1 l 73,24.4 30.4,9.2 c -24.2,91.7 39.2,166.8 65,172.4 l -1,24 a 286,286 0 0 1 -98.3,78.2 z M 2084.6,423 c 22.7,-56 34,-72.7 72.4,-112.7 15.3,8.1 25.8,13.4 38.5,23.2 l 1.4,125 -71.2,-22.2 z"
           fill="#ee1111"
           stroke="#333333"
           stroke-linecap="round"
           stroke-linejoin="round"
           stroke-width="3.9"
           id="path431" />
        <path
           d="m 2121,753.8 3.1,-2.1 v -0.2 c -1.8,-0.9 -4,-3.3 -6.6,-7.1 l -0.2,-0.4 c 2.2,1.8 5,2.3 7.6,0.6 3,-2 3.4,-6 1.5,-9 -2.9,-4.7 -11.1,-4 -20.8,-9.5 0.2,11.1 -3.7,18.4 -0.7,23 2,3 6.2,4.6 9.3,2.6 2.5,-1.7 3.1,-4.4 2.3,-7.3 l 0.3,0.4 c 2.6,3.9 4,6.9 4,9 h 0.2 v 0 m -21.6,-34.6 3.3,-1.9 v -0.1 c -1.8,-1 -3.9,-3.5 -6,-7.7 l -0.3,-0.4 c 2.1,2 4.9,2.7 7.5,1.2 3.2,-1.8 4,-5.7 2.4,-8.9 -2.6,-4.9 -10.8,-4.9 -20,-11.1 -0.6,11 -5.1,18.1 -2.6,23 1.7,3.1 5.9,5 9,3.3 2.7,-1.5 3.5,-4.2 3,-7 l 0.2,0.3 c 2.2,4.1 3.4,7.2 3.3,9.2 l 0.2,0.1 v 0 m -18.6,-36.3 3.4,-1.6 v -0.1 a 19.4,19.4 0 0 1 -5.3,-8.2 l -0.2,-0.4 c 2,2.2 4.6,3 7.4,1.9 3.3,-1.5 4.4,-5.5 3,-8.8 -2,-5 -10.2,-5.7 -18.7,-12.8 -1.8,11 -6.8,17.8 -4.7,22.8 1.5,3.3 5.3,5.5 8.6,4 2.8,-1.2 3.9,-3.9 3.6,-6.8 l 0.2,0.5 a 21,21 0 0 1 2.5,9.5 h 0.2 v 0 m -15.2,-37.9 3.6,-1.2 v -0.2 c -1.6,-1.3 -3,-4.2 -4.5,-8.6 v -0.5 c 1.6,2.4 4.2,3.6 7,2.6 3.5,-1.1 5,-5 4,-8.4 -1.6,-5.2 -9.6,-6.6 -17.3,-14.6 -3,10.7 -8.7,17 -7,22.2 1,3.4 4.7,6 8.1,4.9 2.9,-1 4.2,-3.5 4.3,-6.4 l 0.1,0.4 a 22,22 0 0 1 1.5,9.8 h 0.2 v 0 m -11.2,-39.2 3.7,-1 v 0 a 22,22 0 0 1 -3.4,-9.1 l -0.1,-0.5 c 1.4,2.6 3.8,4 6.8,3.4 3.5,-0.8 5.5,-4.4 4.9,-8 -1,-5.3 -8.9,-7.5 -15.6,-16.4 -4.2,10.3 -10.5,16 -9.5,21.3 0.8,3.5 4,6.5 7.6,5.7 3,-0.6 4.6,-3 5,-5.8 v 0.4 c 1,4.6 1.1,7.9 0.5,9.9 h 0.1 v 0 m -6.6,-40.3 3.8,-0.4 v -0.1 c -1.2,-1.7 -2,-4.8 -2.4,-9.4 V 555 c 1,2.7 3.3,4.4 6.4,4.2 3.6,-0.4 6,-3.7 5.8,-7.2 -0.4,-5.5 -8,-8.6 -13.5,-18.4 -5.5,9.7 -12.4,14.5 -12,20 0.3,3.6 3.2,7 6.8,6.7 3,-0.3 5,-2.4 5.6,-5.3 v 0.5 c 0.4,4.7 0.2,8 -0.6,9.8 v 0.1 m -1.6,-40.8 h 3.9 c -1,-1.8 -1.4,-5 -1.2,-9.7 v -0.5 c 0.8,2.8 2.8,4.9 5.8,5 3.6,0.2 6.3,-2.7 6.6,-6.3 0.4,-5.5 -6.6,-9.7 -11,-20 -6.6,9 -14,12.7 -14.4,18.2 -0.2,3.5 2.3,7.3 6,7.5 3,0.1 5.1,-1.7 6.1,-4.4 v 0.5 c -0.2,4.6 -0.8,7.8 -1.9,9.6 h 0.1 v 0 m 3.5,-40.6 3.7,0.5 h 0.2 c -0.8,-2 -1,-5.2 0,-9.8 l 0.1,-0.5 c 0.4,3 2.1,5.2 5.1,5.7 3.6,0.6 6.7,-2 7.4,-5.5 1,-5.4 -5.3,-10.4 -8.4,-21.1 -7.6,8 -15.6,10.9 -16.6,16.2 -0.7,3.6 1.3,7.6 5,8.2 2.9,0.5 5.2,-1 6.6,-3.6 v 0.4 c -1,4.6 -1.9,7.7 -3.2,9.4 l 0.1,0.1 v 0 m 8.6,-40 3.7,1 h 0.1 c -0.5,-2 -0.2,-5.3 1.2,-9.7 l 0.2,-0.4 c 0,2.9 1.5,5.3 4.4,6.2 3.5,1 6.9,-1.2 8,-4.6 1.7,-5.2 -4,-11 -5.7,-22 -8.6,7.2 -16.9,9 -18.6,14.2 -1,3.4 0.5,7.7 4,8.7 2.8,0.9 5.4,-0.4 7,-2.8 v 0.5 a 23,23 0 0 1 -4.4,8.8 l 0.1,0.2 v 0 m 13.5,-38.6 3.5,1.4 h 0.1 a 19,19 0 0 1 2.3,-9.5 l 0.3,-0.4 c -0.4,2.9 0.8,5.5 3.6,6.7 3.3,1.4 7,-0.4 8.5,-3.6 2.3,-5 -2.8,-11.4 -3.2,-22.6 -9.3,6 -17.7,7 -20,12 -1.4,3.2 -0.4,7.6 2.9,9 2.8,1.2 5.4,0.2 7.4,-2 l -0.2,0.5 a 23,23 0 0 1 -5.3,8.3 v 0.2 m 17.8,-36.8 3.3,1.8 h 0.2 c -0.1,-2.1 1,-5.2 3.3,-9.2 l 0.3,-0.4 c -0.6,2.8 0.2,5.5 2.8,7 3.1,1.9 7.1,0.3 9,-2.8 2.7,-4.7 -1.6,-11.5 -1,-22.7 -9.9,5.2 -18.4,5.2 -21.1,10 -1.8,3 -1.2,7.3 2,9.1 2.6,1.5 5.3,0.9 7.5,-1 l -0.2,0.4 c -2.3,4 -4.4,6.6 -6.2,7.6 v 0.2 m 21.4,-34.8 3.2,2 h 0.1 c 0.1,-2 1.6,-5 4.2,-8.7 l 0.3,-0.4 c -0.8,2.8 -0.3,5.5 2.2,7.3 3,2 6.9,1 9,-1.8 3.3,-4.5 -0.3,-11.9 1.3,-23 -10.3,4.4 -18.6,3.4 -21.8,7.9 -2.1,2.9 -2,7.4 1,9.5 2.5,1.7 5.3,1.3 7.6,-0.4 l -0.3,0.4 c -2.6,3.8 -5,6.1 -6.8,7 v 0.2"
           fill="#ffffff"
           stroke="#ffffff"
           stroke-linecap="round"
           stroke-linejoin="round"
           stroke-width="1.8"
           id="path432" />
        <path
           d="m 1958.9,353.5 c 0.8,-13.7 5.6,-20.1 11.3,-20.3 5.7,-0.2 14.6,4 14.4,20.9 15.8,-0.6 18,8.2 17.5,12.1 -0.6,4.5 -1.9,11.4 -20,9.9 1.8,21.2 -8,19.8 -12,19.7 -3.8,-0.1 -12.2,0 -11.2,-18.5 -16,0 -19.4,-9.7 -19.4,-14 0,-4.5 4.6,-9.6 19.4,-9.8 z m 37.4,49.8 c 1.5,19 -21.5,21.1 -20.4,1.4 0.5,-9.6 5,-2.8 9.7,-0.9 5.3,2.3 2.8,-15 -2.6,-28 a 37.7,37.7 0 0 1 13.3,27.5 z m -50.5,13.4 c 1.6,10.4 15.7,36.5 34,14.5 9.1,-11.1 -0.6,-11.5 -8,-10.4 -14.5,2 -19.2,-29.8 -13.7,-42.8 -10.8,15.2 -17.4,10.7 -19.8,22.7 0.1,6.4 7.6,5.4 9.7,-2.5 -0.5,3.7 -2.6,15.5 -2.2,18.5 z M 2006,337 c 13.3,-4.2 16,14 2,16.4 -7,1.2 -3.9,-3.4 -3.3,-7.1 0.8,-4.2 -10.2,0.6 -18.5,6.7 a 35.2,35.2 0 0 1 19.8,-16 z m -67.5,-11 c -15.6,-11 -29.2,7.8 -11.8,17 8.5,4.5 5.6,-2.8 6.3,-7.8 0.8,-5.7 15,6.9 23.3,18.3 A 43,43 0 0 0 1938.5,326 Z m 5,-9.3 c -2,-13.8 16.3,-13.5 16.4,0.9 0,7 -2.1,4 -5.7,2.8 -4,-1.4 0.3,20.4 5,29.6 -6,-4.5 -14.5,-24.5 -15.7,-33.3 z"
           fill="#eecc55"
           stroke="#333333"
           stroke-linecap="round"
           stroke-linejoin="round"
           stroke-width="2"
           id="path433" />
        <path
           d="m 1943.3,480.7 h -34 c -1.8,-25.3 -19.9,-115 -79.5,-195.8 19.4,-7.4 36.8,-7.1 58.6,-7.7 43.4,95 54.2,157 54.9,203.5 z m 49.9,0.5 h 35.7 c 2.4,-38.7 15.5,-113.4 92.2,-188.1 l -63,-10.6 c -66.3,109.7 -64,162 -65,198.7 z"
           fill="#ee1111"
           stroke="#eecc55"
           stroke-linecap="round"
           stroke-linejoin="round"
           stroke-width="7"
           id="path434" />
        <path
           d="m 1872.7,257.2 -1.7,-2.3 a 687.5,687.5 0 0 0 6.3,-29.9 c 5.2,-26.3 9.9,-52.9 16.6,-78.6 l 6.9,-1.6 6.9,-1.4 a 354.9,354.9 0 0 1 14.4,-2.4 c 2.5,-0.4 -7.4,1.1 0,0 a 572.8,572.8 0 0 1 23.8,-3 666.6,666.6 0 0 1 15.6,-1.6 l 7.2,-0.6 7,-0.5 c 42.6,-2.8 87.6,-2 113.3,5 l 0.4,-0.8 c 0.2,35.9 12.6,77.3 1.6,112 0,0 -3,7.6 -3.6,14.4 -0.7,7.2 -1.8,15.4 0.6,22 1.6,4.4 3.7,-5.6 3.7,-5.6 4,-8.2 14.6,-10.6 22.8,-6 a 19.9,19.9 0 0 1 8.2,26 19.7,19.7 0 0 1 -22,9.4 l 0.4,0.4 c -3.7,5.1 -8,5.7 -12.1,3.7 -7.3,9.2 -12,3.9 -14.9,1 l 2.5,2.9 c -3.7,7 -11,6.3 -16.2,1.7 -3.2,9.8 -12.3,14.9 -19,2.1 -5.8,-10.9 -5.8,-5.9 -7.7,-20.4 l 0.2,-1.7 c -7,17.7 -9.4,28.6 -19.2,30.3 -3,0.5 -15.6,-1.2 -13.4,-10.4 l 3.6,-5.1 c -7.7,12 -15.3,11.7 -17,1.3 l -0.2,0.1 c -3.6,2 -9.3,5.5 -13.1,-5.3 -4.3,0.6 -7.9,-1.1 -9.7,-7.1 l 0.5,-0.2 a 18.7,18.7 0 0 1 -16.8,-15.5 20,20 0 0 1 5.1,-16.5 c -1.3,1.5 -3.2,1.8 -7,0.5 l 0.3,-1.2 c -1.4,3.6 -3.1,5.3 -8.5,3.5 l 0.2,-1 c -1.9,4 -3.9,5.7 -7.8,2.5 l 0.8,-3.5 c -2.1,6 -4.2,9.1 -9.6,5.9 -1.7,3.2 -4,4.5 -9.2,2.7 l 1,-4.2 c -2,5.4 -4.2,7.9 -11,5.5 l 0.2,-0.7 c -2,3 -4.6,4.2 -9.7,2.6 -2.3,2.1 -5.3,2.7 -9.8,1.2 -2.8,2.9 -6.6,2.2 -10.6,-0.3 a 18.5,18.5 0 0 1 -23.3,-3.8 19.6,19.6 0 0 1 0.7,-26.4 c 6.3,-6 16.5,-6 22.3,1 z"
           fill="#ffffff"
           id="path435" />
        <path
           d="m 2065.3,506 c 65.3,25.9 154,136.5 82,242.2 -54,-66.2 -90,-159.8 -82,-242.1 z"
           fill="#3366aa"
           stroke="#333333"
           stroke-linecap="round"
           stroke-linejoin="round"
           stroke-width="3.5"
           id="path436" />
        <path
           d="m 1867.5,59 253,-0.4 c -5.7,17 -26.2,37.3 -30.7,80.7 -45.3,-12.2 -150.2,-5.3 -196.6,6.5 6,-44 -11.4,-63.3 -25.7,-86.8 z"
           fill="#eecc55"
           stroke="#333333"
           stroke-linecap="round"
           stroke-linejoin="round"
           stroke-width="3.9"
           id="path437" />
        <path
           d="m 2055.3,260.9 a 104,104 0 0 0 -29.3,0.6 c 0.3,-6.2 9,-2.3 14.6,-6 5.8,3.3 14.6,1.2 14.7,5.4 z"
           fill="#3366aa"
           stroke="#3366aa"
           stroke-linejoin="round"
           stroke-width="3.9"
           id="path438" />
        <path
           d="m 2015.3,182 a 3.4,3.3 0 1 1 -6.8,0 3.4,3.3 0 1 1 6.8,0 z"
           fill="#3366aa"
           stroke-width="0.6"
           id="path439" />
        <path
           d="m 1989.7,180.4 c 7.3,9.9 22.3,12 37,3.1"
           fill="none"
           stroke="#3366aa"
           stroke-width="2.8"
           id="path440" />
        <path
           d="m 2018.6,182 a 6.75,6.6492537 0 1 1 -13.5,0 6.75,6.6492537 0 1 1 13.5,0 z"
           fill="none"
           stroke="#3366aa"
           stroke-linejoin="round"
           stroke-width="2.3"
           id="path441" />
        <path
           d="m 2068,181.8 a 3,3 0 1 0 6,0 3,3 0 1 0 -6,0 z"
           fill="#3366aa"
           stroke-width="0.5"
           id="path442" />
        <path
           d="m 2023.3,172.8 a 367,367 0 0 1 -38.5,6 c 0.2,2 17.7,0.9 23.8,0 6.1,-0.9 14.7,-3.8 14.7,-6 z m 34.5,-0.1 a 300,300 0 0 0 32.5,5.2 c 0,1.7 -15,0.8 -20,0 -5,-0.8 -12.5,-3.3 -12.5,-5.2 z"
           fill="#3366aa"
           stroke="#3366aa"
           stroke-width="2.8"
           id="path443" />
        <path
           d="m 2086.3,179.7 c -6.5,10 -19.2,11.7 -31.3,2.6"
           fill="none"
           stroke="#3366aa"
           stroke-width="2.8"
           id="path444" />
        <path
           d="m 2065.1,181.9 a 5.8,5.8 0 1 0 11.5,0 5.8,5.8 0 1 0 -11.5,0 z"
           fill="none"
           stroke="#3366aa"
           stroke-linejoin="round"
           stroke-width="2.4"
           id="path445" />
        <path
           d="m 1845.6,277.4 c -46.7,12.7 -112.5,47.4 -153.7,103 M 2127,295 c 31.8,11.4 50.6,23.9 75.8,42.3"
           fill="none"
           stroke="#333333"
           stroke-width="2.8"
           id="path446" />
        <path
           d="m 2197.3,127 20.7,-25.4 21.6,25.3 0.5,346.5 -41.4,-15.8 z"
           fill="#ffffff"
           stroke="#333333"
           stroke-linejoin="round"
           stroke-width="4"
           id="path447" />
        <path
           d="m 2218.8,140.6 c -0.4,17.7 2.9,38.3 2.5,62.7 -0.3,24.4 -2.7,44.5 -3,71.2 -0.3,26.7 1.3,60.8 1.1,85.4 -0.1,24.5 -4.7,75 0.3,104.5"
           fill="none"
           stroke="#333333"
           stroke-linecap="round"
           stroke-width="4"
           id="path448" />
        <path
           transform="matrix(0.2638,0,0,0.2683,2031.1,293)"
           d="m -198.2,267.5 a 30.7,30.7 0 1 1 -61.4,0 30.7,30.7 0 1 1 61.4,0 z"
           fill="#eecc55"
           stroke="#333333"
           stroke-linecap="round"
           stroke-linejoin="round"
           stroke-width="14.7"
           id="path449" />
        <path
           d="m 2122.3,609.4 c 2.4,-1 28.8,-12.3 34.5,0.5 5.8,13 -21.7,23.4 -23.4,24 -1.1,0.3 -2,0.2 -2.3,-0.4 -0.3,-0.6 0.4,-1.3 1.3,-2 1.8,-1 22.3,-9.3 18.5,-19 -4,-9.9 -24.4,-2 -27.3,-1 -1.3,0.6 -1.8,0.3 -2.2,-0.3 -0.3,-0.5 0,-1.4 0.9,-1.8 z m -14.8,-28 c 2,-1.2 26.9,-15.3 33.7,-4 7,11.5 -19,24.8 -20.5,25.5 -1,0.5 -1.8,0.5 -2.1,0 -0.3,-0.5 0.2,-1.3 1,-2 1.4,-1.2 21.3,-12 16.6,-20.6 -4.9,-8.7 -24.7,1.7 -27.3,3 -1.2,0.6 -1.7,0.4 -2,0 -0.4,-0.5 -0.3,-1.4 0.6,-1.9 z M 2089,560.1 c 1.7,-1.6 21.3,-20.1 30.1,-11.3 9,9 -11.8,27 -13,28 -0.8,0.7 -1.6,0.9 -2,0.5 -0.4,-0.4 -0.1,-1.2 0.4,-2 1.1,-1.5 17,-15.9 10.7,-22.7 -6.5,-7 -22.3,7.1 -24.4,8.9 -1,0.8 -1.5,0.7 -1.9,0.4 -0.4,-0.3 -0.5,-1.1 0.1,-1.8 z m -19.8,-18.4 c 1.2,-1.5 15.5,-18.7 23.6,-12.4 8.3,6.4 -6.9,23.5 -7.8,24.4 -0.6,0.7 -1.2,0.9 -1.6,0.6 -0.3,-0.3 -0.2,-1 0.2,-1.7 0.7,-1.3 12.2,-14.8 6.3,-19.7 -6,-5 -17.6,8.1 -19,9.8 -0.8,0.8 -1.2,0.8 -1.6,0.5 -0.4,-0.2 -0.5,-0.8 0,-1.5 z m 66.7,96.7 c 2.5,-0.3 30.8,-3.6 32.7,9.4 2,13.3 -27,15.5 -28.7,15.6 -1.2,0 -2,-0.3 -2,-0.9 0,-0.6 0.6,-1.1 1.6,-1.4 1.9,-0.6 24.4,-2.8 23.3,-12.5 -1,-10 -23.4,-8 -26.3,-7.9 -1.3,0.1 -1.7,-0.2 -1.8,-0.8 -0.1,-0.6 0.3,-1.3 1.2,-1.4 z m 1.9,28 c 2.5,0.1 31,1.5 30.7,14.7 -0.2,13.4 -29.3,10.8 -31,10.6 -1,0 -1.8,-0.6 -1.7,-1.2 0,-0.5 0.8,-1 1.8,-1.1 2,-0.3 24.5,1.2 25,-8.5 0.6,-10 -21.7,-11.8 -24.6,-12 -1.3,-0.2 -1.6,-0.6 -1.7,-1.2 0,-0.6 0.5,-1.2 1.5,-1.2 z m -1.4,31 c 2,0.4 25.5,6.5 23,17.4 -2.4,11.2 -26.2,4 -27.6,3.6 -0.9,-0.3 -1.4,-0.9 -1.2,-1.3 0,-0.5 0.8,-0.7 1.7,-0.7 1.7,0.1 20.2,5.3 22.3,-2.8 2.2,-8.2 -16,-13.5 -18.4,-14.3 -1,-0.3 -1.3,-0.7 -1.2,-1.2 0.1,-0.5 0.6,-1 1.4,-0.7 z m -65.5,-149.2 c 5,2.5 25.1,14.9 51,66.3 25.9,51.1 5.5,93.8 5.2,95.8 -0.2,1.1 -0.6,2 -1.1,1.8 -0.6,-0.3 -0.5,-0.8 -0.5,-1.9 0.1,-2.5 15.3,-46.7 -7.8,-93.8 -23,-47 -40,-62 -47.5,-66.6 -1.1,-0.7 -2,-1.4 -1.7,-2 0.4,-0.5 1.4,-0.1 2.4,0.4 z m 41.8,124.7 c -16.9,-17.9 -18.7,-23.2 -25.3,-39.5 -6.5,-16 -6,-31.3 -6.1,-48.4 0,-0.9 1.4,-17.7 3,-17.3 1.5,0.4 1.2,9.3 1.7,10 0.2,1.9 0.3,36.1 7.2,52.5 a 142.3,142.3 0 0 0 22.9,39.1 c 4.6,5.2 11.8,12.4 10.7,14.4 -1,1.9 -13.6,-10.2 -14.1,-10.8 z m -14.1,-141 a 25.7,25.7 0 0 1 12.9,11.3 55,55 0 0 0 -22,11 c 5,-7 9,-13.9 9.1,-22.2 z m 25.3,25 c 5.6,3.8 8.5,8.6 10,13.7 a 77,77 0 0 0 -23.6,6.5 44.9,44.9 0 0 0 13.7,-20.1 z m 19.7,30.3 c 4.4,4.5 6.4,8.7 6,14.2 a 79.9,79.9 0 0 0 -24.7,3.1 c 7.3,-5.5 15.5,-9.6 18.7,-17.3 z m 15.4,33.5 a 23.2,23.2 0 0 1 4.5,17.1 c -7.6,-3.2 -16.6,-2.8 -25.4,-2.6 8.8,-3.4 16.6,-7.3 20.9,-14.5 z m 9.1,37 a 19,19 0 0 1 -0.1,15.2 c -4.7,-4.8 -12.4,-6.4 -20.2,-8.4 8.6,-0.7 14.8,-1.8 20.3,-6.9 z m -3.6,34.2 c 1,5.5 -0.4,11.5 -3,16 -3.6,-5.6 -12.3,-9.7 -19.6,-13 8.5,0.8 16.2,1 22.5,-3 z m -94.3,-175.4 a 30.5,30.5 0 0 1 15,8.2 46,46 0 0 0 -16.2,12.7 87.7,87.7 0 0 1 1.2,-20.9 z m 84.6,206.3 c -1.2,7.9 -5.7,12 -10,15.6 a 111.6,111.6 0 0 1 -12.8,-17 c 8.3,2.5 15.8,4 22.8,1.4 z"
           fill="#ffffff"
           id="path450" />
        <path
           d="m 2205.6,497.9 c 0,4.4 -3.3,8 -7.3,8 -4,0 -7.3,-3.6 -7.3,-8 0,-4.4 3.3,-8 7.3,-8 4,0 7.3,3.5 7.3,8 z"
           fill="#ffffff"
           stroke="#333333"
           stroke-linecap="round"
           stroke-linejoin="round"
           stroke-width="3.2"
           id="path451" />
        <path
           d="m 2222.1,515.1 c 0,4.5 -3.9,8 -8.7,8 -19,0 -8.9,-2 -9.2,-7.6 -0.4,-6 -5.5,-10 9.2,-8.4 4.8,0.4 8.7,3.6 8.7,8 z m -0.8,16.1 c 0,4.4 -3.8,8 -8.6,8 -18.7,0 -8.7,-2 -9.1,-7.6 -0.4,-6 -5.5,-10 9.1,-8.4 4.8,0.4 8.6,3.6 8.6,8 z m 1.2,-33 c 0,4.5 -3.7,8.1 -8.2,8.1 -18,0 -8.5,-2.1 -8.8,-7.6 -0.4,-6 -5.2,-10 8.8,-8.5 4.5,0.5 8.2,3.6 8.2,8 z m -4,48.5 a 6.9,6.9 0 0 1 -6.8,7 c -14.7,0 -7,-1.9 -7.2,-6.7 -0.3,-5.1 -4.3,-8.6 7.2,-7.3 3.7,0.5 6.7,3.2 6.7,7 z"
           fill="#ffffff"
           stroke="#333333"
           stroke-linecap="round"
           stroke-linejoin="round"
           stroke-width="3.9"
           id="path452" />
        <path
           d="m 2204.2,514.7 c 0,4.5 -3.5,8 -7.7,8 -4.2,0 -7.7,-3.5 -7.7,-8 0,-4.5 3.5,-8 7.7,-8 4.2,0 7.7,3.6 7.7,8 z m -0.6,16.1 c 0,4.5 -3.4,8 -7.6,8 -4.2,0 -7.6,-3.5 -7.6,-8 0,-4.4 3.4,-8 7.6,-8 4.2,0 7.6,3.6 7.6,8 z m 1,15.6 c 0,3.8 -2.8,7 -6,7 -3.2,0 -6,-3.2 -6,-7 0,-3.8 2.6,-7 6,-7 3.4,0 6,3.1 6,7 z m -6.8,-54.4 c 2,-4.5 6.6,-6.5 10.2,-4.6 3.6,2 4.8,7.1 2.8,11.6 -2,4.5 -6.5,6.5 -10,4.5 -3.5,-2 -5,-7 -3,-11.5 z"
           fill="#ffffff"
           stroke="#333333"
           stroke-width="3.9"
           id="path453" />
        <path
           d="m 2246.2,515.1 c 0,4.5 -5.1,8 -11.4,8 -24.8,0 -11.6,-2 -12.1,-7.6 -0.5,-6 -7.2,-10 12.1,-8.4 6.3,0.4 11.4,3.6 11.4,8 z m -1,16.1 c 0,4.4 -5.1,8 -11.3,8 -24.5,0 -11.5,-2 -12,-7.6 -0.5,-6 -7.1,-10 12,-8.4 6.2,0.4 11.2,3.6 11.2,8 z m 0.2,-33 c 0,4.5 -4.9,8.1 -10.9,8.1 -23.5,0 -11,-2.1 -11.4,-7.6 -0.5,-6 -6.9,-10 11.4,-8.5 6,0.5 10.9,3.6 10.9,8 z m -8.3,48.5 c 0,3.8 -4,7 -8.8,7 -19.3,0 -9,-1.9 -9.4,-6.7 -0.4,-5.1 -5.6,-8.6 9.4,-7.3 4.8,0.5 8.8,3.2 8.8,7 z m -54.2,-63.1 c 2,-4.5 7,-6.3 11,-4.2 16,8.6 6.5,6.2 4.3,11.9 -2.3,6.1 0.2,12.4 -11.6,4.3 -3.8,-2.7 -5.7,-7.6 -3.7,-12 z"
           fill="#ffffff"
           stroke="#333333"
           stroke-linejoin="round"
           stroke-width="3.9"
           id="path454" />
        <path
           d="m 2151.3,464.4 c -23.9,123.3 32.5,184.7 83.4,217.6 6.9,-8.8 3.8,-7.2 11.3,-14.6 l 0.7,-21.4 c -25.9,-5.6 -82.4,-63.3 -66,-172.4 z M 2084.6,423 c 22.7,-56 34,-72.7 72.4,-112.7 a 208.6,208.6 0 0 1 35.6,22.2 c -35.2,42.8 -41.5,45.4 -67,103.8 z"
           fill="#eecc55"
           stroke="#333333"
           stroke-linecap="round"
           stroke-linejoin="round"
           stroke-width="3.5"
           id="path455" />
        <path
           d="m 2157.8,461.6 17.6,10.7 -2.2,16.2 -10.1,-1 1.2,-10 -9.6,-1.5 -2.3,18.7 20.1,2 -1.4,15 -8.8,-0.5 v -8 l -10.5,0.2 v 18.3 l 20.5,-0.9 0.2,17.9 -8.8,1.5 -0.4,-8.8 -10.5,0.6 1.9,18.7 18.5,-2.5 4.3,17.8 -8.8,1.6 -1.7,-8 -10.5,1.8 4.7,18.4 18.9,-5.8 6.8,17 -9.3,4 -3.3,-9.6 -10,3.5 8,18.7 18,-7.5 9.4,15.4 -7.6,4.4 -4.6,-8.8 -10.4,5.3 12,17.7 16.4,-11.2 13.8,15.4 -6.7,6 -7.5,-9.1 -7.7,7 15.3,15.1 13.5,-13.6 16.3,10.4 -5.1,7.3 -9.1,-6.3 -7.2,8.8 16,12.6 9,-11.6 m -70.6,-344.2 a 309.3,309.3 0 0 0 -71.4,108 M 2091,423 c 15.8,-41 41.2,-81.3 70.1,-108.6 l 2.4,17.6 23.7,-1 a 302.3,302.3 0 0 0 -67.3,102 m 22.8,-98.5 6.2,15 21,-1 m -39.6,1.7 6.8,15.8 19.4,-0.8 m -37.4,2 7.2,15.2 19,-1 m -37.3,5 9,14.8 18.4,-3 m -36,5.7 9.3,14.8 18,-2.6"
           fill="none"
           stroke="#333333"
           stroke-linecap="round"
           stroke-linejoin="round"
           stroke-width="3.9"
           id="path456" />
        <path
           d="m 2171.7,449.6 74.8,28 0.1,13.2 c -14.4,-3.7 -38,-0.4 -49,-10.8 -10.4,-10 -36.6,-9.8 -34.6,-22 1.8,-11.8 5,-8.4 8.7,-8.4 z"
           fill="#eecc55"
           stroke="#333333"
           stroke-linecap="round"
           stroke-linejoin="round"
           stroke-width="3.9"
           id="path457" />
        <path
           d="m 1975.9,171 c 25.7,-19 37.4,-11.6 51.7,-9 6,1.1 5.4,2 5.4,21.4 h 3 l -0.6,-28 c -6.3,-1.3 -12.6,0.7 -27.4,-1 -11.2,-3 -25.5,8 -32.1,16.6 z m 115,-2.4 c -15.5,-12.1 -21.3,-10.3 -30.5,-7.7 -3.9,1.1 -3.5,2.8 -4.3,12.6 l -3.2,0.6 0.3,-18.2 c 4.1,-1.4 6.8,1.7 17.7,-1 4.1,-1.5 15.7,5 20,13.7 z"
           fill="#3366aa"
           id="path458" />
        <g
           id="g6178"
           transform="matrix(0.6123,0,0,0.6118,2225.1,-82.7)">
          <path
             d="m -302.1,258.3 c 0.8,-13.8 5.6,-20.1 11.3,-20.3 5.6,-0.2 14.5,4 14.3,20.8 15.9,-0.5 18,8.3 17.6,12.2 -0.6,4.4 -2,11.4 -20,9.9 1.8,21.2 -8,1 -12,0.8 -4,-0.2 -12.3,18.9 -11.2,0.3 -16,0 -19.4,-9.6 -19.4,-13.9 0,-4.6 4.6,-9.6 19.4,-9.8 z"
             fill="#333333"
             stroke="#ee1111"
             stroke-linecap="round"
             stroke-linejoin="round"
             stroke-width="3.2"
             id="path459" />
          <path
             transform="matrix(0.2638,0,0,0.2683,-230,197.8)"
             d="m -198.2,267.5 a 30.7,30.7 0 1 1 -61.4,0 30.7,30.7 0 1 1 61.4,0 z"
             fill="#333333"
             stroke="#ee1111"
             stroke-linecap="round"
             stroke-linejoin="round"
             stroke-width="11.1"
             id="path460" />
        </g>
        <path
           d="m 2091.6,116.2 c -56.1,-9.2 -130.3,-3.2 -195.5,3.6 l -4.6,-21.1 c 3.7,5.4 23.2,16 35.2,-2.1 2.6,7.6 53.9,7.9 61.5,-3.2 7,7.6 45.9,14.1 58.8,0.6 7.4,6.7 38.9,13.8 51.5,3 z"
           fill="#333333"
           stroke="#3366aa"
           stroke-linecap="round"
           stroke-linejoin="round"
           stroke-width="2.5"
           id="path461" />
        <g
           transform="matrix(0.5203,0.0663,-0.068,0.5334,2269.1,-38.9)"
           id="g463">
          <path
             d="m -302.1,258.3 c 0.8,-13.8 5.6,-20.1 11.3,-20.3 5.6,-0.2 13.3,1.8 13.2,18.6 -4.6,12.3 -6.7,25.8 -13.3,25.1 -3.5,-0.5 -12.3,18.9 -11.2,0.3 -16,0 -19.4,-9.6 -19.4,-13.9 0,-4.6 4.6,-9.6 19.4,-9.8 z"
             fill="#333333"
             stroke="#ee1111"
             stroke-linejoin="round"
             stroke-width="3.6"
             id="path462" />
          <path
             transform="matrix(0.2638,0,0,0.2683,-230,197.8)"
             d="m -198.2,267.5 a 30.7,30.7 0 1 1 -61.4,0 30.7,30.7 0 1 1 61.4,0 z"
             fill="#333333"
             stroke="#ee1111"
             stroke-linejoin="round"
             stroke-width="13"
             id="path463" />
        </g>
        <path
           d="m 1870.8,61.8 c 61.4,1.7 181.3,-3.4 248,0 l -5,7.4 c -3.7,-5.4 -25.1,-13.2 -37.1,5 -10.3,-13.9 -37.6,-18.5 -60,-2.6 -7,-7.6 -42.6,-13.2 -61.7,0.8 -17.6,-11 -60,-6.6 -73.2,7 z"
           fill="#ee1111"
           id="path464" />
        <path
           d="m 2002.9,279.4 c -12.2,5.5 -12.2,19.7 -28.3,24.2 -0.7,0.4 -1.9,0.7 -3,1 a 18.8,18.8 0 0 1 -23,-15.1 c -1.6,-9.7 4.8,-20 14.5,-22 a 15.2,15.2 0 0 1 18.5,12.4 c 1,7.7 -4,15.8 -11.7,17.3 -6.6,1.2 -13.2,-3 -14,-9.8 -0.7,-5.7 3.2,-11.6 8.9,-12.5 4.5,-0.7 9.1,2.3 9.4,7.2 0.3,3.6 -2.3,7.4 -6,7.6 -2.6,0.2 -5.2,-1.6 -5,-4.4 0.2,-1.6 1.6,-3.5 3.3,-3 0.6,0.2 1.5,1.6 0.4,1.9 m -59,-141.6 c -10,31 -17.3,114.7 -26,133.6 a 21.7,21.7 0 0 1 -4.8,7.2 18.8,18.8 0 0 1 -27.5,-0.7 19.5,19.5 0 0 1 0.8,-26.4 15.203454,15.203454 0 1 1 21.3,21.7 11.6,11.6 0 0 1 -17,-1 c -3.5,-4.4 -3.3,-11.5 1,-15.2 3.5,-3 9,-2.9 11.8,1 2.2,3 2,7.6 -1,9.8 -2.1,1.5 -5.3,1.3 -6.6,-1.2 -0.7,-1.4 -0.5,-3.8 1.2,-4.2 0.6,-0.2 2,0.5 1.3,1.3 m 124.7,-90.3 c -0.7,-4.8 14.3,-9.3 18.7,-10 a 69,69 0 0 1 18.5,1 83,83 0 0 1 2.9,19.4 c -4.8,8.4 -7.3,9.7 -11.7,13.3 m 73,-24.2 c 0.5,-4.1 -12.1,-8 -15.8,-8.7 -2,-0.3 -14,-0.2 -15.7,1 a 73.6,73.6 0 0 0 -2.5,16.8 c 4,7.2 6.2,8.3 10,11.5 m -42.3,34.4 c -3.7,15 18.1,9.7 21.7,7 12,7.8 21,0.6 18.2,-7.2 -2.2,-6.2 -11.1,-58.4 -7,-63.3 m -49.6,77.5 c -12.2,3 -4.2,13.7 4.4,13.7 8.6,0 13.9,-9 30,-11.3 m 32,-3.2 c 8,3.1 4,12 -3.9,12 -7.8,0 -11.5,-5.1 -25.8,-9.1 m -10.5,17 a 20.3,20.3 0 0 0 18.2,0.9 m -73.7,27.3 c 8.6,-5.5 8,-18.1 21,-22.3 m -32.3,33.5 c 3.8,12.6 15.5,6.6 25.2,-1.6 9.3,-7.7 9.9,-14.6 19.7,-18.2 m -35.6,25.8 c 3.8,12.2 9.7,8.5 13.2,6.5 6,-3.4 21.7,-20.3 31,-27.9 m -30.5,27.7 c 1.7,10.4 9.2,10.8 17,-1.3 6.4,-10.1 12.9,-10.3 22.3,-21.6 m -26,26.7 c -2.1,9.2 10.5,10.9 13.5,10.4 9.8,-1.7 12.2,-12.6 19.1,-30.3 m 58,-5 c -7,-8.2 -6,-31.6 -0.8,-45.4 m 10,61 c -7.8,11 -17.9,1.4 -25.4,-9.7 -7.1,-10.5 -6,-9.2 -6.4,-21.8 m 20.5,34.3 c -7.7,10.6 -12.7,5 -15.6,2 a 65.3,65.3 0 0 1 -16.1,-30 m 18.6,32.9 c -5,9.4 -16.5,5 -20.5,-4.1 -4.5,-10.2 -4,-9 -8.3,-24.7 m 12.8,29.7 c -3,10.3 -12.3,16 -19.3,3 -5.8,-11 -5.7,-6 -7.6,-20.5 m 44.7,-27.8 c 30.4,-38.2 11.2,-91.2 11,-135.8 m -213.3,130.3 c 7,-24.3 15,-95.2 24.9,-126 m -30,111 c 6.3,-25.6 14.4,-77.6 23.3,-110.2 m -22,141.5 c 5.2,3.4 10,4.1 13,-1.8 10.2,-20.1 23.2,-117.3 29.7,-142.8 m -31.7,145.3 c 7.4,2.5 11.2,-0.5 13.4,-6.9 7.5,-20.6 19,-114 25.5,-139.4 m -29.3,145 c 7.4,2.5 9.9,-0.6 12.1,-6.9 7.5,-20.6 18.1,-113.7 24.6,-139.2 M 1903,283.7 c 7.4,2.6 9.2,-0.5 11.4,-6.8 7.5,-20.6 16.9,-113 23.4,-138.4 M 1913,282.4 c 7.4,2.5 8.8,-1 11,-7.4 7.5,-20.6 15.5,-111.9 22,-137.4 m -24,142 c 6,3.6 7.8,0 10,-6.9 7,-20.8 15.3,-110.7 21.8,-136.2 m -15.3,139.3 c 7.4,2.5 7.9,-1.6 10.2,-8 7.4,-20.6 13.7,-107.2 20.2,-132.7 m -22,138.4 c 7.3,2.5 7.5,-1.2 10.3,-8 8.3,-20.2 12,-105 18.6,-130.5 m -44.9,142.3 c 5,4 6.9,0.4 9.2,-5.9 7.4,-20.6 15.2,-110.1 21.7,-135.6 m 143.7,155.4 c -1,-0.7 0.3,-1.7 1,-1.7 2,0 2.8,2.3 2.5,3.9 -0.7,2.8 -4,3.7 -6.5,2.7 -3.7,-1.5 -5.2,-6 -3.9,-9.4 1.9,-4.5 7.5,-6 12,-3.8 5.5,2.7 7.7,9.7 5.2,15 -3,6.3 -11,8.2 -17.3,4.8 a 15.7,15.7 0 0 1 -6.7,-20.4 c 4,-8.1 14.5,-10.6 22.8,-6 a 19.8,19.8 0 0 1 8.1,26 c -5.1,9.9 -18.1,12.8 -28.2,7 a 19.7,19.7 0 0 1 -2.9,-2 c -15.1,-9.6 -11.2,-18.3 -11.2,-31.8"
           fill="none"
           stroke="#3366aa"
           stroke-linecap="round"
           stroke-linejoin="round"
           stroke-width="3.9"
           id="path465" />
        <path
           d="m 2022.3,112.5 a 1024,1024 0 0 0 -129,8.1 c 0.7,7.7 0.5,16.3 -0.8,26.1 46.3,-11.8 151.2,-18.6 196.5,-6.5 1,-8.8 2.5,-16.6 4.5,-23.8 a 515.4,515.4 0 0 0 -71.2,-3.8 z"
           fill="#333333"
           id="path466" />
        <use
           transform="matrix(0.88722358,-0.06359698,0.06359698,0.88722358,165.10107,139.86707)"
           width="744.09998"
           height="1052.4"
           xlink:href="#g6178"
           id="use466" />
        <use
           transform="matrix(0.8820915,-0.11456368,0.11456368,0.8820915,111.29902,247.70739)"
           width="744.09998"
           height="1052.4"
           xlink:href="#g6178"
           id="use467" />
      </g>
      <use
         transform="rotate(180,1149.1,2123.4)"
         width="744.09998"
         height="1052.4"
         xlink:href="#g42617"
         id="use468" />
    </g>
    <use
       transform="translate(405.3,945)"
       xlink:href="#frame"
       id="use469" />
    <use
       transform="translate(1620)"
       xlink:href="#u42831"
       id="use470" />
    <use
       transform="translate(1620.1)"
       xlink:href="#u42833"
       id="use471" />
    <use
       transform="translate(405.3)"
       xlink:href="#u24387"
       id="use472" />
    <use
       transform="translate(405.3)"
       xlink:href="#u24552"
       id="use473" />
    <use
       transform="translate(2430.1001,1675)"
       style="stroke:#333333"
       xlink:href="#K"
       id="use474" />
    <use
       transform="rotate(180,1316.25,265)"
       style="stroke:#333333"
       xlink:href="#K"
       id="use475" />
  </g>
  <g
     id="heart_1"
     transform="translate(-2430.1001,-630)">
    <use
       id="u41664"
       transform="rotate(180,101.3,787.6)"
       xlink:href="#heartS" />
    <path
       id="heart"
       d="M 101.3,810.3 C 91.3,795.3 79,788 79,776.8 c 0,-6.2 4.7,-12 11,-12 6.6,0 10.6,5.2 11.2,12 0.7,-6.8 4.7,-12 11.2,-12 6.4,0 11,5.8 11,12 0,11.2 -12.1,18.5 -22.1,33.5 z"
       fill="#ee1111" />
    <use
       id="heartS"
       transform="matrix(0.4498,0,0,0.4498,-28.4,334.3)"
       xlink:href="#heart" />
  </g>
  <g
     id="heart_5"
     transform="translate(-2430.1001,-630)">
    <use
       id="u41709"
       transform="translate(810)"
       xlink:href="#heartS" />
    <use
       id="u41711"
       transform="translate(810)"
       xlink:href="#u41664" />
  </g>
  <g
     id="heart_jack"
     transform="translate(-2430.1001,-630)">
    <use
       id="u23898"
       transform="matrix(0.879,0,0,0.879,1991.4,-4.8)"
       xlink:href="#heart" />
    <use
       id="u24132"
       transform="rotate(180,2126,787.5)"
       xlink:href="#u23898" />
  </g>
  <g
     id="heart_king"
     transform="translate(-2430.1001,-630)">
    <use
       transform="rotate(180,1316.3,472.5)"
       xlink:href="#card"
       id="use661" />
    <g
       transform="matrix(0.2444,0,0,0.2665,2207.8,184.6)"
       id="g733">
      <g
         transform="matrix(1,0,0,0.9994,154,1737.2)"
         id="g664">
        <path
           d="m 1102.1,772.8 190.1,-8.8 c 26.7,-4.2 146.3,-32 158.2,-67.8 l 0.2,-420 -212.4,0.9 -190.1,8.8 c -26.7,4.1 -146.3,31.9 -158.3,67.8 v 420 z"
           fill="#333333"
           stroke="#333333"
           stroke-width="2.5"
           id="path661" />
        <path
           d="m 1139,553 h 69.4 c -4.5,-20.6 -5.6,-37.5 -7,-56.2 H 1132 c 4.5,20.6 5.6,37.5 7,56.2 z"
           fill="#eecc55"
           id="path662" />
        <path
           d="m 1148.7,545 h 47.8 c -3.1,-14.8 -3.9,-26.7 -4.8,-40 h -47.8 c 3,14.6 3.9,26.6 4.8,40 z"
           fill="none"
           stroke="#333333"
           stroke-linejoin="round"
           stroke-width="4.3"
           id="path663" />
        <path
           d="m 1160.9,534.6 h 20.7 a 136,136 0 0 1 -2,-19.3 h -20.8 c 1.4,7 1.7,12.8 2.1,19.3 z"
           fill="none"
           stroke="#333333"
           stroke-linejoin="round"
           stroke-width="4.3"
           id="path664" />
      </g>
      <g
         id="g9671"
         transform="matrix(1,0,0,0.9994,154,1737.2)">
        <path
           d="m 1118,415 96.7,-125.9 27.2,-13.8 a 416.8,416.8 0 0 0 -23,90.8 L 1133.4,478 c -3.8,-25 -8.4,-40.7 -15.3,-63 z"
           fill="#333333"
           stroke="#3366aa"
           stroke-width="4.3"
           style="stroke-linejoin:round"
           id="path665" />
        <g
           transform="rotate(37.6,1250.7,273.8)"
           id="g669">
          <path
             id="p45742"
             d="m 1256.7,340.9 c -5.1,-9 -11.9,-14.4 -11.8,-17.8 0,-3.3 2.5,-6.4 5.8,-6.4 3.5,0 5.6,2.7 6,6.4 0.3,-3.6 2.5,-6.4 6,-6.4 3.3,0 5.8,3 5.8,6.4 0,3.4 -6.7,8.8 -11.8,17.8 z"
             fill="#ee1111" />
          <use
             transform="translate(0.2,27)"
             width="744.09998"
             height="1052.4"
             xlink:href="#p45742"
             id="use665" />
          <use
             transform="translate(0.6,53.8)"
             width="744.09998"
             height="1052.4"
             xlink:href="#p45742"
             id="use666" />
          <use
             transform="translate(1,81.7)"
             width="744.09998"
             height="1052.4"
             xlink:href="#p45742"
             id="use667" />
          <use
             transform="translate(0.9,109.8)"
             width="744.09998"
             height="1052.4"
             xlink:href="#p45742"
             id="use668" />
          <use
             transform="translate(1.4,136.6)"
             width="744.09998"
             height="1052.4"
             xlink:href="#p45742"
             id="use669" />
        </g>
        <path
           d="m 1238.2,277 h 115 c -163.5,193.6 -85,329.6 44.7,456.6 A 579.8,579.8 0 0 1 1292.2,764 C 1224,649.5 1164.7,484.8 1238.2,277 Z m 42.9,-131.5 8,-41.4 51.6,-1.4 V 144 Z"
           fill="#ffffff"
           stroke="#333333"
           stroke-linecap="round"
           stroke-linejoin="round"
           stroke-width="4.3"
           id="path669" />
        <path
           d="m 1285.7,124.1 c 24.5,0.2 26.2,2 55.8,-0.8"
           fill="none"
           stroke="#333333"
           stroke-width="4.3"
           id="path670" />
        <path
           d="m 1358.8,126.3 c -1,-33.2 -0.4,-19.8 8,-20.5 6,-0.5 10.7,-4.3 9.8,22 l 63.3,9.2 c -4.3,15.3 4.7,23.2 -13,34.9 -17.7,11.8 -49.5,1.2 -59.2,-6.4 -9.5,-7.4 -9.7,-26.1 -8.9,-39.2 z"
           fill="#ffffff"
           stroke="#333333"
           stroke-linejoin="round"
           stroke-width="4.3"
           id="path671" />
        <path
           d="m 1401.1,128.5 c 4.4,0 8,3.5 8,7.7 0,4.2 -3.6,7.7 -8,7.7 -4.4,0 -8,-3.5 -8,-7.7 0,-4.2 3.6,-7.7 8,-7.7 z m 16,0.6 c 4.5,0 8.1,3.4 8.1,7.6 0,4.2 -3.6,7.6 -8,7.6 -4.4,0 -8,-3.4 -8,-7.6 0,-4.2 3.5,-7.6 8,-7.6 z m -32.8,-2 c 4.4,0 8,3.3 8,7.4 0,4.1 -3.6,7.3 -8,7.3 -4.4,0 -8,-3.3 -8,-7.3 0,-4 3.5,-7.3 8,-7.3 z m 48.4,1 c 3.9,0 7,2.8 7,6 0,3.3 -3.1,6 -7,6 -3.9,0 -7,-2.7 -7,-6 0,-3.3 3.2,-6 7,-6 z"
           fill="#ffffff"
           stroke="#333333"
           stroke-width="4.3"
           id="path672" />
        <path
           d="m 1401.5,86.5 c 4.4,0 8,5.1 8,11.4 0,24.8 -2,11.6 -7.6,12.1 -6,0.5 -10,7.2 -8.5,-12.1 0.5,-6.3 3.6,-11.4 8.1,-11.4 z m 16,1 c 4.5,0 8.1,5.1 8.1,11.3 0,24.5 -2.1,11.5 -7.6,12 -6,0.5 -10,7.1 -8.5,-12 0.5,-6.2 3.6,-11.3 8,-11.3 z m -32.8,-0.2 c 4.4,0 8,4.9 8,10.8 0,23.6 -2.1,11 -7.7,11.5 -6,0.5 -9.9,6.9 -8.4,-11.5 0.5,-5.9 3.6,-10.8 8,-10.8 z m 48.4,8.3 c 3.8,0 7,4 7,8.8 0,19.3 -1.9,9 -6.7,9.4 -5.1,0.4 -8.6,5.6 -7.3,-9.4 0.4,-4.8 3.1,-8.8 7,-8.8 z"
           fill="#ffffff"
           stroke="#333333"
           stroke-linejoin="round"
           stroke-width="4.3"
           id="path673" />
        <path
           d="m 1401.5,110.7 c 4.4,0 8,3.9 8,8.7 0,18.9 -2,8.8 -7.6,9.2 -6,0.4 -10,5.5 -8.5,-9.3 0.5,-4.7 3.6,-8.7 8.1,-8.7 z m 16,0.7 c 4.5,0 8.1,3.9 8.1,8.6 0,18.7 -2.1,8.8 -7.6,9.1 -6,0.4 -10,5.5 -8.5,-9 0.5,-4.8 3.6,-8.7 8,-8.7 z m -32.8,-1.2 c 4.4,0 8,3.7 8,8.3 0,18 -2.1,8.4 -7.7,8.7 -6,0.4 -9.9,5.3 -8.4,-8.7 0.5,-4.6 3.6,-8.3 8,-8.3 z m 48.4,4.1 a 6.9,6.9 0 0 1 7,6.8 c 0,14.7 -1.9,6.8 -6.7,7.1 -5.1,0.3 -8.6,4.3 -7.3,-7.1 0.4,-3.7 3.1,-6.8 7,-6.8 z m -65.5,-11.5 c -5,-0.3 -9.1,-3.7 -9.3,-7.8 -0.2,-4 3.6,-7.1 8.5,-6.9 4.9,0.3 9,3.8 9.3,7.8 0.3,4 -3.6,7.1 -8.5,6.9 z"
           fill="#ffffff"
           stroke="#333333"
           stroke-linejoin="round"
           stroke-width="4.3"
           id="path674" />
        <path
           d="m 1340.6,163.2 -0.5,-80 12.3,-4.7 c 1.7,14.7 13.2,35.6 7.4,49.6 -5.5,13.3 4,37.6 -8,40.2 -11.8,2.5 -9.8,-1.7 -11.2,-5 z"
           fill="#eecc55"
           stroke="#333333"
           stroke-linejoin="round"
           stroke-width="4.3"
           id="path675" />
        <path
           d="m 1354,276.2 h 96.6"
           fill="none"
           stroke="#333333"
           stroke-width="2.5"
           id="path676" />
        <path
           d="m 1084.3,329.9 c 27,17.4 61.1,19.7 80.6,10.4 l -48.5,63.9 a 563.6,563.6 0 0 0 -32.1,-74.3 z m 113.8,157.3 H 1137 l 64.4,-84.5 a 282.1,282.1 0 0 0 -3.3,84.5 z"
           fill="#ee1111"
           stroke="#ee1111"
           stroke-linejoin="round"
           stroke-width="6"
           id="path677" />
        <path
           d="m 1368.4,168.9 c 20.3,10.5 45,17.1 63.1,2.2 l 2,16.7 c -28.8,12.6 -36.2,11.3 -68,-3 z"
           fill="#3366aa"
           stroke="#333333"
           stroke-linecap="round"
           stroke-linejoin="round"
           stroke-width="4.3"
           id="path678" />
        <path
           d="m 1363.5,189 c 21.6,14 44.5,16.2 71.4,2.6 0.8,15.8 4.5,68.8 9.7,85.4 -35.3,4.2 -55.8,2.5 -90.3,-1.2 4,-18.4 8.3,-67.7 9.2,-86.8 z"
           fill="#ee1111"
           stroke="#333333"
           stroke-linecap="round"
           stroke-linejoin="round"
           stroke-width="4.3"
           id="path679" />
        <path
           d="m 1364.1,191.8 c 22.7,13.6 51.7,10.7 70.8,3.8 -1.2,3.4 3.7,34.1 2.4,37.5 -1.3,3.4 -10.6,-24.8 -11.8,-21.4 -2.5,6.8 -6.8,17.2 -9.2,24 -6.6,-9 -9.9,-19 -16.5,-26.4 -6.5,7.1 -9.7,18.1 -16.4,25 -5.8,-10 -5.8,-19.7 -10.9,-30 -4.5,8 -8,16.3 -11,24.9 0.6,-11.6 2,-25.8 2.6,-37.4 z"
           fill="#333333"
           id="path680" />
        <path
           d="m 1373.8,192.5 c -1.3,4.2 -4.7,6.8 -7.7,6 -3,-0.8 -4.3,-5 -3,-9.2 1.2,-4.2 4.6,-6.9 7.6,-6 3,0.9 4.4,5 3.1,9.2 z m 12,2.6 c -0.5,4.3 -3.4,7.6 -6.5,7.3 -3,-0.3 -5.2,-4.1 -4.8,-8.5 0.5,-4.3 3.4,-7.6 6.4,-7.2 3,0.4 5.3,4 4.8,8.4 z m 12.5,1.8 c -0.3,4.4 -3.1,7.7 -6.2,7.5 -3.1,-0.2 -5.4,-3.9 -5,-8.2 0.4,-4.3 3,-7.8 6,-7.6 3.2,0.2 5.5,4 5.2,8.3 z m 25.5,-1.4 c 0.2,4.4 -2,8 -5.1,8.3 -3.1,0.2 -5.9,-3.2 -6.2,-7.5 -0.3,-4.4 2,-8.1 5.1,-8.3 3.1,-0.2 5.8,3.2 6.1,7.5 z m -12.7,2.1 c 0,4.4 -2.4,8 -5.6,8 -3,0 -5.6,-3.6 -5.6,-8 0,-4.3 2.5,-7.9 5.6,-7.9 3.1,0 5.6,3.5 5.6,7.9 z m 24.3,-5.4 c 1,4.3 -0.5,8.3 -3.6,9 -3.1,0.7 -6.2,-2 -7.3,-6.3 -1,-4.2 0.6,-8.3 3.6,-9 3,-0.7 6.3,2 7.3,6.3 z"
           fill="#eecc55"
           stroke="#333333"
           stroke-linecap="round"
           stroke-linejoin="round"
           stroke-width="4.3"
           id="path681" />
        <path
           d="m 1270.4,491.8 c 64.5,-3.3 109,-84.8 42,-139 a 129.2,129.2 0 0 1 27.7,-40.3 c 73.2,55.2 99.7,195.9 -60.4,230.5 -6.3,-16 -11.6,-33 -9.3,-51.2 z"
           fill="#eecc55"
           stroke="#eecc55"
           stroke-width="10"
           id="path682" />
        <path
           d="m 1319,330.2 c 79.3,69.8 70,157.5 -51.6,192.6"
           fill="none"
           stroke="#333333"
           stroke-linecap="round"
           stroke-width="5.3"
           id="path683" />
        <path
           d="m 1307.1,351 c 3.5,3 17.5,-5 20.7,-1.6 3.3,3.3 -5,17 -2,20.5 3,3.6 18,-1.6 20.5,2.3 2.5,3.9 -8.6,15.3 -6.6,19.5 2,4.2 17.8,3.2 19.1,7.7 1.3,4.5 -13,11.8 -12.6,16.4 0.4,4.6 15.4,9.8 14.7,14.4 -0.7,4.6 -16.6,5.3 -18.2,9.6 -1.7,4.4 9.9,15.5 7.3,19.4 -2.6,3.9 -17.5,-1.7 -20.5,1.8 -3,3.5 4.1,17.5 0.6,20.5 -3.5,3 -16.5,-6.5 -20.4,-3.9 -3.9,2.6 -0.1,18 -4.3,20.2 -4,2.1 -14.9,-9.7 -19.1,-7.9 -4.3,1.9 -3,17.7 -7.4,19.2 -4.4,1.6 -13.6,-11.7 -18,-10.4 m 74.8,-188.5 16.8,16.5 -5,4.8 -8.2,-8.4 -5.3,5 14.9,16.3 11,-9 13.8,19.3 -5.9,3.7 -6.5,-9.8 -6,4.2 11,18 12.8,-6.6 9.3,22 -6.6,2.4 -4.1,-11 -6.8,2.8 6.6,20.2 14,-3 3,23.9 -7,0.3 -0.9,-11.7 -7.3,0.8 0.6,18.7 14.3,0.8 -4.5,24 -6.7,-1.8 2.8,-11.4 -7.2,-1.5 -6.1,20 13,6 -12.3,20.8 -5.7,-4 6.5,-9.8 -6.3,-3.8 -12.4,16.7 10.9,9.4 -17.8,16.2 -4.5,-5.4 9,-7.5 -4.8,-5.5 -17,13 7.6,12.2 -20.7,11.3 -3.1,-6.3 10.4,-5.3 -3.3,-6.5 -20,9.3 5.3,13.3 -22.2,7.5 -2,-6.7 11.1,-3.4 -2.2,-7 -21.3,6"
           fill="none"
           stroke="#333333"
           stroke-linecap="round"
           stroke-linejoin="round"
           stroke-width="4.3"
           id="path684" />
        <path
           d="m 1303,358.2 a 242,242 0 0 0 -38,123 c 48.3,-9.3 101.6,-51.3 38,-123 z"
           fill="#3366aa"
           stroke="#333333"
           stroke-width="0.4"
           id="path685" />
        <path
           d="m 1448.7,338.6 v 151.5 c -32.6,55.6 -100,77 -166.3,77 0,0 -3.3,-11.1 -2.2,-11.4 128.5,-10 144,-127 168.5,-217 z"
           fill="#ee1111"
           stroke="#333333"
           stroke-width="0.4"
           id="path686" />
        <path
           d="m 1345.7,297.2 c 35.2,5.7 67,5.3 101.7,0 l -37.6,130 c -4.2,-56.6 -23,-91.4 -64.1,-130 z m 53,430 c 17.6,-2.9 41,-23.6 48.4,-33.6 l -2,-25.8 -121.3,-26.3 c 32,41.6 29.6,39.7 75,85.7 z"
           fill="#3366aa"
           stroke="#333333"
           stroke-width="0.4"
           id="path687" />
        <path
           d="m 1379.5,319.8 h 61.8 m -49,18.2 h 44.5 m -37.6,17 h 31.9 m -25.1,18.2 h 20.3 m -15.8,17 h 10.4 m -62,297 h 61.9 M 1346.4,673 h 45.6 m -57.2,-13.7 h 34 m 3,42.3 h 39.9 m -26.3,13.9 h 16.6"
           fill="none"
           stroke="#333333"
           stroke-linecap="round"
           stroke-width="4.3"
           id="path688" />
        <path
           d="m 1291.7,453.3 c 1.5,19 -21.5,21.1 -20.4,1.4 0.5,-9.5 5,-2.8 9.7,-0.8 5.3,2.2 1.7,-17.7 -3.8,-30.7 a 45,45 0 0 1 14.5,30 z m 23.9,-29 c 21.3,0 17.3,-19.7 3.3,-15.6 -4.6,1.3 -5.2,3 -4.1,7.2 1,4.3 -18.7,-0.6 -33.6,-4.2 8,5.7 20.9,12.5 34.4,12.5 z m -2.8,-18.3 c 17.6,-7.7 8.6,-29 -8.3,-18.8 -8.2,5 -0.1,5.8 3.8,9 4.5,3.6 -11.9,9.6 -26,10.9 a 37.6,37.6 0 0 0 30.5,-1.1 z m -4.3,33.2 c 11.9,17.7 -6.5,26.6 -11,12.8 -1.4,-4.6 0,-6.1 3.6,-8.8 3.6,-2.6 -11.6,-14.4 -22.9,-24.7 9.2,3.4 22.7,9.5 30.2,20.7 z"
           fill="#ffffff"
           id="path689" />
        <g
           id="g707">
          <use
             transform="rotate(124,1182.4,487.7)"
             width="744.09998"
             height="1052.4"
             xlink:href="#g43161"
             id="use689" />
          <use
             transform="rotate(145.6,1195.4,447.3)"
             width="744.09998"
             height="1052.4"
             xlink:href="#g43161"
             id="use690" />
          <g
             id="g43161"
             transform="matrix(0.07091389,0.02441761,-0.02441761,0.07091389,1066.1897,264.90163)">
            <path
               transform="matrix(0.9405,0,0,0.9405,469.7,-96.4)"
               d="m 2093.2,-377.1 a 42.85,42.85 0 1 1 -85.7,0 42.85,42.85 0 1 1 85.7,0 z"
               fill="#333333"
               id="path690" />
            <g
               id="g692">
              <path
                 transform="matrix(0.9405,0,0,0.9405,544.7,-22)"
                 d="m 2093.2,-377.1 a 42.85,42.85 0 1 1 -85.7,0 42.85,42.85 0 1 1 85.7,0 z"
                 fill="#333333"
                 id="path691" />
              <path
                 transform="matrix(0.9405,0,0,0.9405,394.8,-23)"
                 d="m 2093.2,-377.1 a 42.85,42.85 0 1 1 -85.7,0 42.85,42.85 0 1 1 85.7,0 z"
                 fill="#333333"
                 id="path692" />
            </g>
            <path
               d="m 2398.1,-40.6 -46.9,-74.5 -56,56.1 c 51.2,-107.7 82.2,-217.5 89.7,-332.4 h 26.4 c 7.5,114.9 38.5,224.7 89.8,332.4 l -56.1,-56 z"
               fill="#333333"
               id="path693" />
          </g>
          <use
             transform="rotate(-10.7,1795.3,492)"
             width="744.09998"
             height="1052.4"
             xlink:href="#g43161"
             id="use693" />
          <use
             transform="rotate(-5,1834.3,505.5)"
             width="744.09998"
             height="1052.4"
             xlink:href="#g43161"
             id="use694" />
          <use
             transform="rotate(153,1206.4,420)"
             width="744.09998"
             height="1052.4"
             xlink:href="#g43161"
             id="use695" />
          <use
             transform="rotate(-18.2,1726,476)"
             width="744.09998"
             height="1052.4"
             xlink:href="#g43161"
             id="use696" />
          <use
             transform="rotate(139.8,1186.4,475.6)"
             width="744.09998"
             height="1052.4"
             xlink:href="#g43161"
             id="use697" />
          <use
             transform="rotate(119.1,1177,520)"
             width="744.09998"
             height="1052.4"
             xlink:href="#g43161"
             id="use698" />
          <use
             transform="rotate(133.2,1175.5,505.1)"
             width="744.09998"
             height="1052.4"
             xlink:href="#g43161"
             id="use699" />
          <use
             transform="rotate(129,1169.4,535.5)"
             width="744.09998"
             height="1052.4"
             xlink:href="#g43161"
             id="use700" />
          <use
             transform="rotate(146.4,1212.9,426.4)"
             width="744.09998"
             height="1052.4"
             xlink:href="#g43161"
             id="use701" />
          <use
             transform="rotate(-10,2007.2,354.6)"
             width="744.09998"
             height="1052.4"
             xlink:href="#g43161"
             id="use702" />
          <use
             transform="rotate(-21,1750.6,401)"
             width="744.09998"
             height="1052.4"
             xlink:href="#g43161"
             id="use703" />
          <use
             transform="rotate(21,1312.6,497.8)"
             width="744.09998"
             height="1052.4"
             xlink:href="#g43161"
             id="use704" />
          <use
             transform="rotate(2,-971.7,836.8)"
             width="744.09998"
             height="1052.4"
             xlink:href="#g43161"
             id="use705" />
          <use
             transform="rotate(114.4,1172.5,554)"
             width="744.09998"
             height="1052.4"
             xlink:href="#g43161"
             id="use706" />
          <use
             transform="rotate(12,1112.4,521.1)"
             width="744.09998"
             height="1052.4"
             xlink:href="#g43161"
             id="use707" />
        </g>
        <path
           d="m 1079.7,151.7 c -0.2,14.2 -2.3,28.3 -4.1,42 l -1.2,9.7 c 0.3,-3.2 0.7,-6.5 1.2,-9.7 l 0.4,-3.7 c -5.1,17.8 -8.4,21.5 -11,26.3 -2.6,4.8 -2.1,6.8 -3.2,5 -1.4,-2.2 -2.4,-2 -4.3,-1.7 -1.8,0.9 -1.8,1.4 -2.6,2.4 a 6.5,6.5 0 0 0 -0.5,3.7 c 0.3,1.7 1.3,3 2.6,4.2 a 7.3,7.3 0 0 0 4,1.4 c 1.3,0 2.5,-0.5 3.6,-1 1,-0.5 1.6,-1.3 2.3,-2 l 1.5,-0.7 a 91.7,91.7 0 0 0 -0.7,13.9 c 0,0.9 0.5,2.8 -1.8,1.4 -2.4,-1.4 -4.1,-1.1 -6.3,-0.7 a 9.7,9.7 0 0 0 -4.6,3 11.2,11.2 0 0 0 -2.3,5.3 10.4,10.4 0 0 0 1.3,6.7 10,10 0 0 0 7,4.7 c 2.7,0.5 5.3,-0.2 7.7,-1.3 a 15,15 0 0 0 5.7,-6 7.8,7.8 0 0 0 1,-2.7 h 1.8 a 31.5,31.5 0 0 1 -4.3,30.3 c -1.7,-2 -1.5,-3.4 -1.5,-3.6 -1.9,-4.5 -7.5,-6 -12,-3.8 a 11.5,11.5 0 0 0 -5.2,15 c 2,4.2 6.3,6.5 10.8,6.5 h -0.3 c -6.6,5.7 -0.5,14.2 6.9,13 a 19.4,19.4 0 0 0 8.2,-3.4 l -2.4,1.8 c -4,7.5 0.8,11.6 8.2,10.5 a 13,13 0 0 0 7,-3.5 c -3.5,7.2 1.2,11 8.4,10 12.2,-2 5,-19 12.6,-33.2 l -5.4,26.7 c -4,7.6 6.7,17 14,6.2 l 1.7,-29.6 c 1.9,14.5 -6.8,38.2 5.5,39.3 7.5,0.6 20.6,-7.5 9.8,-26.4 l -1.7,-2.7 a 93.6,93.6 0 0 1 -5.6,-8.8 l 5.6,8.8 c 8,11.2 19.9,23.9 28.6,24.4 8,0.4 20.1,2.1 20.2,-15.4 h -0.1 a 22.5,22.5 0 0 0 6.6,-3 c 6.3,-4 9.3,-13.3 0.8,-15 h -0.8 c 3,-4.6 3.4,-10.7 0.2,-15.2 l 4.3,1.9 c 6,7 15.8,8 23.3,3.8 4,2.5 7.6,3 10.5,0.3 3.8,2 6.8,1.7 9.8,-1.2 4.8,1.5 7.3,0.6 9.2,-2 5.5,1.9 7.2,0.9 9.3,-1.6 5.5,2 8.7,1.5 10.5,-2.2 4.5,2.6 6.2,1.4 8.6,-3 2.4,3.2 5,2.7 6.9,-0.2 h 0.6 c 5.2,0.5 7,-0.5 8.4,-3.6 l 1.9,-5.2 c -0.8,2 -1.3,3.8 -2,5.2 l 0.1,0.5 c 7.4,2.5 7.9,-1.1 10.4,-8.1 5.2,-14 -11,-43.5 -20.7,-71 -5,-14.3 -8.2,-28 -5.7,-38.8 -81.1,-14.2 -111.3,-15.6 -198.7,-4 z"
           fill="#ffffff"
           id="path707" />
        <path
           d="m 1113,260.9 a 104,104 0 0 1 29.3,0.6 c -0.3,-6.2 -9,-2.3 -14.6,-6 -5.8,3.3 -14.6,1.2 -14.7,5.4 z"
           fill="#3366aa"
           stroke="#3366aa"
           stroke-linecap="round"
           stroke-linejoin="round"
           stroke-width="4.3"
           id="path708" />
        <path
           d="m 1153.4,189.6 a 3,3 0 1 0 6,0 3,3 0 1 0 -6,0 z"
           fill="#3366aa"
           stroke-width="0.5"
           id="path709" />
        <path
           d="m 1145,180.3 c 4.5,1.3 30.9,5.7 38.5,6 -0.1,2 -17.7,1 -23.8,0.1 -6.1,-0.9 -14.7,-3.9 -14.7,-6 z"
           fill="#3366aa"
           stroke="#3366aa"
           stroke-linecap="round"
           stroke-linejoin="round"
           stroke-width="2.8"
           id="path710" />
        <path
           d="m 1178.6,188 c -7.3,9.8 -22.3,12 -37,3"
           fill="none"
           stroke="#3366aa"
           stroke-width="2.8"
           id="path711" />
        <path
           d="m 1149.6,189.6 a 6.75,6.6492537 0 1 0 13.5,0 6.75,6.6492537 0 1 0 -13.5,0 z"
           fill="none"
           stroke="#3366aa"
           stroke-linejoin="round"
           stroke-width="2.5"
           id="path712" />
        <path
           d="m 1103.4,188.6 a 2.6,2.6 0 1 1 -5.2,0 2.6,2.6 0 1 1 5.2,0 z"
           fill="#3366aa"
           stroke-width="0.4"
           id="path713" />
        <path
           d="m 1110.4,180.6 c -3.7,0.3 -26,4.1 -32.5,5.2 0,1.7 14.5,-0.1 19.6,-0.9 5,-0.7 13,-2.4 12.9,-4.3 z"
           fill="#3366aa"
           stroke="#3366aa"
           stroke-width="2.8"
           id="path714" />
        <path
           d="m 1082,187.2 c 6.2,8.5 18.9,10.4 31.3,2.6"
           fill="none"
           stroke="#3366aa"
           stroke-width="2.8"
           id="path715" />
        <path
           d="m 1106.6,188.5 a 5.85,5.85 0 1 1 -11.7,0 5.85,5.85 0 1 1 11.7,0 z"
           fill="none"
           stroke="#3366aa"
           stroke-linejoin="round"
           stroke-width="2.4"
           id="path716" />
        <path
           d="m 1134.3,168.4 c 22.5,-8.3 55.9,3.9 55.9,3.9 m -73.6,-2.2 c -13.4,-8.2 -33.4,2.8 -33.4,2.8"
           fill="none"
           stroke="#3366aa"
           stroke-linecap="round"
           stroke-width="6"
           id="path717" />
        <path
           d="m 1210.8,149 c -10,31 34.5,95.8 18.9,127.2 a 21.7,21.7 0 0 1 -4.9,7.2 18.8,18.8 0 0 1 -27.5,-0.7 19.5,19.5 0 0 1 0.8,-26.3 c 6.3,-6.1 16.5,-6 22.2,0.8 5,6 5,15.5 -0.8,20.8 a 11.6,11.6 0 0 1 -17,-1 c -3.6,-4.4 -3.5,-11.5 1,-15.2 3.4,-3 8.9,-2.9 11.7,1 2.1,3 2,7.6 -1,9.8 -2.1,1.5 -5.4,1.3 -6.7,-1.2 -0.7,-1.4 -0.5,-3.8 1.3,-4.2 0.6,-0.2 2,0.5 1.3,1.3 m -60.1,21.3 c 8.2,12.8 21,19.4 36.5,11.2 a 13.7,13.7 0 0 0 6.4,-20.2 10.3,10.3 0 0 0 -14.9,-2.3 c -3.9,3.2 -5,9.4 -2,13.5 2.6,3.2 7.3,4 10.5,1.2 2.4,-2.2 3,-6.2 0.8,-8.7 -1.5,-1.7 -4.3,-2 -5.9,-0.1 -0.9,1 -1.1,3.1 0.3,3.8 0.5,0.3 2,0 1.4,-0.9 M 1088,275.4 c -3.2,7.9 -7.9,12 -12.4,16.2 a 16.3,16.3 0 0 1 -4.1,3 c -6.3,3.4 -14.4,1.5 -17.4,-4.9 a 11.5,11.5 0 0 1 5.3,-14.9 c 4.5,-2.2 10.1,-0.7 12,3.8 1.3,3.4 -0.2,8 -4,9.4 -2.5,1 -5.7,0 -6.4,-2.7 -0.3,-1.6 0.6,-3.8 2.5,-3.9 0.7,0 2,1 1,1.7 m -4.6,-59.6 c -0.3,1.1 1.2,1 1.6,0.6 1.2,-1.2 0.5,-3.2 -0.7,-4 -2,-1.5 -4.8,-0.3 -5.9,1.9 -1.5,3.1 0.2,7 3.1,8.6 4,2 8.5,-0.3 10.1,-4.4 0.3,-0.7 0.5,-1.3 0.6,-2 m -6.2,26 c 1,-0.6 -0.3,-1.5 -0.9,-1.5 -1.6,0 -2.4,2 -2.1,3.5 0.5,2.5 3.4,3.3 5.6,2.4 3.3,-1.3 4.6,-5.4 3.4,-8.4 -1.6,-4.1 -6.5,-5.4 -10.4,-3.5 a 10.5,10.5 0 0 0 -4.6,13.5 c 2.5,5.7 9.6,7.4 15.2,4.4 a 14.3,14.3 0 0 0 7.2,-12.4 m 147.9,21.6 c 10.5,-21.6 -29.9,-90.3 -20,-121 m 14.8,106 c -2.6,-27.2 -30.6,-73.5 -21.7,-106 m 23,137.3 c 5.3,3.4 9.8,3.9 13.1,-1.8 22.6,-38.5 -23,-108.2 -15.4,-135.3 m 13.4,137.8 c 7.4,2.5 10.8,-0.7 13.4,-6.9 14.4,-34.3 -26.3,-104.9 -19.8,-130.3 m 16,135.9 c 7.4,2.5 9.3,-0.8 12.1,-6.9 14.4,-31.6 -27.8,-100.9 -20.2,-128.5 m 18,133.6 c 7.4,2.5 8.5,-0.8 11.5,-6.8 13,-26.8 -30.4,-98.6 -22,-126.5 m 20.5,132 c 7.4,2.5 9.1,-1 11.1,-7.4 7.7,-24.9 -31.2,-97.3 -23.6,-124.4 m 21.6,129 c 5.9,3.5 8,0.1 10,-6.9 7,-24.3 -32,-94.2 -23.9,-121.3 m 30.4,124.4 c 7.4,2.5 7.8,-1.6 10.1,-8 7.4,-20.6 -34.2,-85.8 -25,-115 m 23.2,120.7 c 7.4,2.5 7.8,-1.1 10.4,-8 8,-21.8 -35.4,-80.8 -26,-111.9 m -0.3,123.7 c 4.9,4 6.7,0.4 9.1,-5.9 8.8,-23 -33.3,-90.4 -24.4,-119.2 M 1146,232.7 c 3.7,15 -18,9.7 -21.7,7 -11.9,7.8 -20.9,0.6 -18.1,-7.2 2.2,-6.2 11,-50.9 7,-55.8 m 23.3,89.2 a 21,21 0 0 1 -18.2,0.8 m 62.9,-81 c 0.6,-4.8 -13,-9 -18.7,-10 a 40.5,40.5 0 0 0 -18.5,1 c -1.8,4 -2.6,14.3 -3,19.4 4.8,8.4 7.4,9.7 11.7,13.3 m -72.9,-24.2 c -0.6,-4.1 10.9,-7.9 15.8,-8.7 4.9,-0.8 15.9,-1 17.6,0.2 1.4,3.4 -0.1,19.4 -0.1,19.4 -4,7.3 -5.3,7.5 -9.3,9.7 m 79.3,89.1 c -11,4.1 -15.2,-1 -21.4,-9.5 m 31.8,10.5 c 8.6,1.8 5.6,11 -0.7,15.2 -16.8,11 -42.3,-5.2 -51.8,-16.5 m -70.8,-8.5 a 34.9,34.9 0 0 0 7,-35.1 m 62,56.7 c 10.8,18.9 -2.4,27 -9.9,26.4 -12.3,-1.1 -3.5,-24.8 -5.4,-39.3 m -34,-19.5 c -30.4,-38.2 -10.4,-80.4 -10.2,-125 M 1186.3,314 c -0.1,17.5 -12.2,15.8 -20.3,15.4 -11.1,-0.7 -27.6,-21.3 -34.2,-33.2 m -67,0.2 c -6.8,5.6 -0.6,14 6.8,12.9 12.2,-2 18.7,-15 26.4,-29.2 m -20.6,27.6 c -4,7.5 0.8,11.6 8.2,10.5 12.2,-2 12.5,-17.3 20.2,-31.6 m -13,27.6 c -4,7.5 0.8,11.6 8.2,10.4 12.2,-1.9 5,-18.9 12.6,-33.1 m -5.5,26.7 c -4,7.6 6.8,17 14.2,6.2 m -60,-101.7 c 3.2,-10.4 6.6,-8.3 13.7,-32.7 m -8.2,54.4 c -0.7,-16.4 1.1,-22.8 6.7,-41.6"
           fill="none"
           stroke="#3366aa"
           stroke-linecap="round"
           stroke-linejoin="round"
           stroke-width="4.3"
           id="path718" />
        <path
           d="m 1175.4,61.2 64.7,13.9 64,-13.9 c -9.5,11.6 -25,84.8 -23.6,94.6 -53.3,-6.2 -148.6,-13 -202.6,-3.9 -0.9,-8.8 -11.6,-76.2 -33.5,-90.7 l 66.8,11.7 z"
           fill="#eecc55"
           stroke="#333333"
           stroke-linejoin="round"
           stroke-width="4.3"
           id="path719" />
        <g
           id="g2898"
           transform="matrix(-0.6123,0,0,0.6118,948.4,-62.8)">
          <path
             d="m -302.1,258.3 c 0.8,-13.8 5.6,-20.1 11.3,-20.3 5.6,-0.2 14.5,4 14.3,20.8 15.9,-0.5 18,8.3 17.6,12.2 -0.6,4.4 -2,11.4 -20,9.9 1.8,21.2 -8,1 -12,0.8 -4,-0.2 -12.3,18.9 -11.2,0.3 -16,0 -19.4,-9.6 -19.4,-13.9 0,-4.6 4.6,-9.6 19.4,-9.8 z"
             fill="#333333"
             stroke="#ee1111"
             stroke-linecap="round"
             stroke-linejoin="round"
             stroke-width="3.2"
             id="path720" />
          <path
             transform="matrix(0.2638,0,0,0.2683,-230,197.8)"
             d="m -198.2,267.5 a 30.7,30.7 0 1 1 -61.4,0 30.7,30.7 0 1 1 61.4,0 z"
             fill="#333333"
             stroke="#ee1111"
             stroke-linecap="round"
             stroke-linejoin="round"
             stroke-width="11.1"
             id="path721" />
        </g>
        <g
           transform="matrix(-0.5234,-0.0338,-0.0347,0.5366,932,-51.5)"
           id="g723">
          <path
             d="m -302.1,258.3 c 0.8,-13.8 5.6,-20.1 11.3,-20.3 5.6,-0.2 13.3,1.8 13.2,18.6 -4.6,12.3 -6.7,25.8 -13.3,25.1 -3.5,-0.5 -12.3,18.9 -11.2,0.3 -16,0 -19.4,-9.6 -19.4,-13.9 0,-4.6 4.6,-9.6 19.4,-9.8 z"
             fill="#333333"
             stroke="#ee1111"
             stroke-linejoin="round"
             stroke-width="3.6"
             id="path722" />
          <path
             transform="matrix(0.2638,0,0,0.2683,-230,197.8)"
             d="m -198.2,267.5 a 30.7,30.7 0 1 1 -61.4,0 30.7,30.7 0 1 1 61.4,0 z"
             fill="#333333"
             stroke="#ee1111"
             stroke-linejoin="round"
             stroke-width="13"
             id="path723" />
        </g>
        <path
           d="m 1075.7,129.8 a 1160,1160 0 0 1 206.5,4.6 l 3.3,-19.4 c -3.3,5.4 -32.7,14.9 -43.4,-3.3 -15.3,11.3 -34.3,12.9 -54.9,-0.4 -6.2,7.6 -51.3,11.4 -60.6,1.8 -15.6,11 -43.4,11.8 -55.2,-1.9 z"
           fill="#ee1111"
           id="path724" />
        <path
           d="m 1145.1,125.1 c 45.4,0 105.2,3.4 138.1,8 -0.7,7.8 -4,12.9 -2.6,22.7 -53.3,-6.2 -148.7,-13 -202.6,-3.9 -1,-8.8 -2.1,-15.8 -4,-22.9 18.3,-2.8 43.7,-4 71.1,-3.9 z"
           fill="#333333"
           id="path725" />
        <use
           id="u51661"
           transform="matrix(0.8537,0,0,0.8537,226.1,10.2)"
           width="744.09998"
           height="1052.4"
           xlink:href="#g2898" />
        <use
           transform="rotate(1.1,1162.2,2711.8)"
           width="744.09998"
           height="1052.4"
           xlink:href="#u51661"
           id="use725" />
        <path
           d="m 1295.7,638.1 c -20,0.6 -7.5,2 -8,-5.3 -9.3,-21 -7.6,-40.6 -11.3,-60.9 13.3,3.7 52.2,-6 62.4,9.2 10.2,15.4 1,43 -5.6,51.3 -6.4,8.2 -26.2,6.4 -37.5,5.7 z"
           fill="#ffffff"
           stroke="#333333"
           stroke-linejoin="round"
           stroke-width="4.3"
           id="path726" />
        <path
           d="m 1271.7,604.1 c 0,-3.6 -3.8,-6.6 -8.4,-6.6 -18.2,0 -8.5,1.8 -8.9,6.3 -0.4,5 -5.3,8.2 9,7 4.5,-0.4 8.3,-3 8.3,-6.6 z m -0.8,-13.3 c 0,-3.6 -3.7,-6.6 -8.2,-6.6 -18,0 -8.5,1.8 -8.8,6.3 -0.4,5 -5.2,8.2 8.8,7 4.5,-0.4 8.3,-3 8.3,-6.6 z m 1.2,27.3 c 0,-3.7 -3.6,-6.7 -8,-6.7 -17.2,0 -8,1.8 -8.4,6.4 -0.4,4.9 -5,8.1 8.4,6.9 4.4,-0.4 8,-3 8,-6.6 z m -4,-40 c 0,-3.2 -2.8,-5.8 -6.4,-5.8 -14.2,0 -6.7,1.5 -7,5.5 -0.2,4.2 -4,7 7,6 3.5,-0.3 6.5,-2.6 6.5,-5.7 z"
           fill="#ffffff"
           stroke="#333333"
           stroke-width="4.3"
           id="path727" />
        <path
           d="m 1294.9,604.1 c 0,-3.6 -5,-6.6 -11,-6.6 -23.9,0 -11.2,1.8 -11.6,6.3 -0.5,5 -7,8.2 11.6,7 6,-0.4 11,-3 11,-6.6 z m -1,-13.3 c 0,-3.6 -4.9,-6.6 -10.9,-6.6 -23.6,0 -11,1.8 -11.5,6.3 -0.5,5 -6.9,8.2 11.5,7 6,-0.4 10.9,-3 10.9,-6.6 z m 0.2,27.3 c 0,-3.7 -4.7,-6.7 -10.4,-6.7 -22.7,0 -10.6,1.8 -11,6.4 -0.5,4.9 -6.7,8.1 11,6.9 5.7,-0.4 10.4,-3 10.4,-6.6 z m -8,-40 c 0,-3.2 -3.8,-5.8 -8.5,-5.8 -18.5,0 -8.6,1.5 -9,5.5 -0.4,4.2 -5.4,7 9,6 4.7,-0.3 8.6,-2.6 8.6,-5.7 z m 0,54.2 c 0,-3.6 -3,-6.6 -6.8,-6.6 -14.5,0 -6.8,1.7 -7,6.3 -0.4,5 -4.3,8.2 7,7 3.7,-0.4 6.7,-3 6.7,-6.7 z"
           fill="#ffffff"
           stroke="#333333"
           stroke-linejoin="round"
           stroke-width="4.3"
           id="path728" />
        <path
           d="m 1254.5,604.5 c 0,-3.7 -3.3,-6.7 -7.4,-6.7 -4.1,0 -7.4,3 -7.4,6.7 0,3.7 3.3,6.6 7.4,6.6 4,0 7.4,-3 7.4,-6.6 z m -0.6,-13.3 c 0,-3.7 -3.2,-6.7 -7.3,-6.7 -4,0 -7.3,3 -7.3,6.7 0,3.7 3.3,6.6 7.3,6.6 4,0 7.4,-3 7.4,-6.6 z m 1.9,27.2 c 0,-3.7 -3.2,-6.7 -7,-6.7 -3.8,0 -7,3 -7,6.7 0,3.7 3,6.6 7,6.6 4,0 7,-3 7,-6.6 z m -1,-40 a 5.8,5.8 0 1 0 -11.5,0 5.8,5.8 0 0 0 11.5,0 z m 11,59.5 c -4.1,1 -8.4,-1 -9.6,-4.3 -1.1,-3.3 1.3,-6.8 5.5,-7.7 4.2,-1 8.5,1 9.6,4.2 1.1,3.2 -1.3,6.8 -5.5,7.8 z"
           fill="#ffffff"
           stroke="#333333"
           stroke-width="4.3"
           id="path729" />
        <path
           d="m 1332.1,637 c 10.5,-20.3 17.2,-45 2.2,-63.1 l 16.7,-2 c 12.7,28.8 11.3,36.2 -3,68 z"
           fill="#3366aa"
           stroke="#333333"
           stroke-linecap="round"
           stroke-linejoin="round"
           stroke-width="2.5"
           id="path730" />
        <path
           d="m 1350.8,642.5 c 14,-21.5 16.1,-44.5 2.5,-71.3 15.8,-1 75.7,-32.4 93.7,-69.8 v 160.4 c -18.3,-4.1 -77.2,-18.4 -96.2,-19.3 z"
           fill="#ee1111"
           stroke="#333333"
           stroke-linejoin="round"
           stroke-width="2.5"
           id="path731" />
        <path
           d="m 1353.6,641.9 c 13.6,-22.7 10.7,-51.7 3.8,-70.9 3.4,1.2 33.4,-18 36.8,-16.8 3.4,1.2 -24.1,25 -20.7,26.3 6.8,2.4 17.2,6.7 24,9.2 -9,6.6 -19,9.8 -26.4,16.4 7.1,6.6 18.1,9.8 25,16.5 -10,5.8 -19.7,5.8 -30,10.9 8,4.5 20.4,9 25.6,15 -11.5,-0.5 -26.6,-6 -38.1,-6.6 z"
           fill="#333333"
           id="path732" />
        <path
           d="m 1354.2,632.2 c 4.2,1.3 6.9,4.7 6,7.7 -1,3 -5,4.3 -9.2,3 -4.2,-1.2 -6.9,-4.6 -6,-7.6 0.9,-3 5,-4.3 9.2,-3 z m 2.6,-11.9 c 4.4,0.5 7.6,3.3 7.3,6.4 -0.3,3.1 -4.1,5.2 -8.5,4.8 -4.3,-0.5 -7.6,-3.3 -7.2,-6.4 0.3,-3.1 4,-5.3 8.4,-4.8 z m 1.8,-12.5 c 4.4,0.3 7.7,3 7.5,6.1 -0.2,3.1 -3.9,5.4 -8.2,5 -4.4,-0.2 -7.8,-3 -7.5,-6 0.2,-3.2 3.9,-5.4 8.2,-5.1 z m -1.4,-25.5 c 4.4,-0.3 8,2 8.3,5 0.2,3.1 -3.2,5.9 -7.5,6.2 -4.4,0.3 -8,-2 -8.3,-5 -0.2,-3.2 3.1,-6 7.5,-6.2 z m 2.1,12.6 c 4.4,0 8,2.5 8,5.6 0,3.1 -3.6,5.6 -8,5.6 -4.3,0 -7.9,-2.5 -7.9,-5.6 0,-3.1 3.5,-5.6 8,-5.6 z m -5.4,-24.3 c 4.3,-1 8.3,0.6 9,3.6 0.7,3 -2,6.3 -6.3,7.3 -4.2,1 -8.3,-0.5 -9,-3.6 -0.7,-3.1 2,-6.3 6.3,-7.3 z"
           fill="#eecc55"
           stroke="#333333"
           stroke-linejoin="round"
           stroke-width="2"
           id="path733" />
      </g>
      <use
         transform="rotate(180,1324.1,2261.9)"
         width="744.09998"
         height="1052.4"
         fill="#333333"
         xlink:href="#g9671"
         id="use733" />
    </g>
    <use
       transform="translate(405.3,630)"
       xlink:href="#frame"
       id="use734" />
    <use
       transform="translate(1620)"
       xlink:href="#u41709"
       id="use735" />
    <use
       transform="translate(1620.1)"
       xlink:href="#u41711"
       id="use736" />
    <use
       transform="translate(405.3)"
       xlink:href="#u23898"
       id="use737" />
    <use
       transform="translate(405.3)"
       stroke="#ffffff"
       stroke-width="3.2"
       style="paint-order:stroke fill markers"
       xlink:href="#u24132"
       id="use738" />
    <use
       transform="translate(2430.1001,1360)"
       style="stroke:#ee1111"
       xlink:href="#K"
       id="use739" />
    <use
       transform="rotate(180,1316.25,107.5)"
       style="stroke:#ee1111"
       xlink:href="#K"
       id="use740" />
  </g>
  <g
     id="diamond_1"
     transform="translate(-2430.1001,-630)">
    <use
       id="u41521"
       transform="rotate(180,101.3,472.6)"
       xlink:href="#diamS" />
    <path
       id="diam"
       d="m 123.5,472.5 a 112.97,112.97 0 0 0 -22,26 97.4,97.4 0 0 0 -22.6,-26 c 11,-10.3 15.8,-14.6 22.6,-26 a 112.57,112.57 0 0 0 22,26 z"
       fill="#ee1111" />
    <use
       id="diamS"
       transform="matrix(0.4423,0,0,0.4423,-27.7,164.5)"
       xlink:href="#diam" />
  </g>
  <g
     id="diamond_5"
     transform="translate(-2430.1001,-630)">
    <use
       id="u41566"
       transform="translate(810)"
       xlink:href="#diamS" />
    <use
       id="u41568"
       transform="translate(810)"
       xlink:href="#u41521" />
  </g>
  <g
     id="diamond_jack"
     transform="translate(-2430.1001,-630)">
    <use
       id="u19056"
       transform="matrix(0.8808,0,0,0.8808,1991.41,-41.8)"
       xlink:href="#diam" />
    <use
       id="u19268"
       transform="rotate(180,2126,472.5)"
       xlink:href="#u19056" />
  </g>
  <g
     id="diamond_king"
     transform="translate(-2430.1001,-630)">
    <use
       id="u9479"
       transform="translate(2430.1,315)"
       xlink:href="#card" />
    <use
       transform="rotate(180,2531.3,472.5)"
       width="2632.5"
       height="1575"
       xlink:href="#u9479"
       id="use911" />
    <g
       transform="matrix(0.2436,0,0,0.2666,2459.5,-67)"
       id="g966">
      <g
         transform="matrix(1,0,0,1.0022,-77,1496.8)"
         id="g912">
        <path
           d="m 652.1,365.4 v 266.4 l -178.3,90.7 c -47.3,24 -109.2,45.6 -157.3,27.6 H 172.4 L 92,687 V 420.6 l 178.3,-90.7 c 47.3,-24 157.3,-27.6 157.3,-27.6 h 144.1 z"
           fill="#333333"
           id="path911" />
        <path
           d="m 309.8,493.8 c -2.8,20 -5.8,40 -13.5,64.8 h 138 c 2.8,-20 5.8,-40 13.4,-64.8 z"
           fill="#ffffff"
           stroke="#333333"
           stroke-linejoin="round"
           stroke-width="2.7"
           id="path912" />
      </g>
      <g
         id="g9935"
         transform="matrix(1,0,0,1.0022,-77,1498.1)">
        <path
           d="m 403.2,302.6 c -27.5,42.7 -38.2,49 -86,69.4 3.9,19.3 5,30.5 5.6,49.3 41.7,-14.8 68.5,-31 100.3,-67.7 h 78.3 c -12.7,35.6 -25.4,69 -36,102.2 h 59.9 c 9,-43.7 30.4,-106.5 44.4,-153.2 h -45 z"
           fill="#eecc55"
           stroke="#ffffff"
           stroke-linecap="round"
           stroke-linejoin="round"
           stroke-width="8"
           id="path913" />
        <path
           d="m 517.4,323.6 v -5.2 c 0,-4.2 3.9,-7.7 8.8,-7.7 -1.5,4.4 0.3,9.2 4.3,10.7 l 15.2,6 m -39,114 -15.9,-4.1 c -4,-1 -8.5,2 -9.7,6.6 a 9,9 0 0 0 0.8,6.4 m 21.5,-45.8 15.6,4.8 c 4,1.3 6.2,6 4.8,10.5 -1.4,4.5 -5.7,7 -9.8,5.7 l -15.7,-4.6 m -1.7,5.8 15.7,4.6 c 4,1.2 6.4,5.6 5.2,10.1 -1.3,4.6 -5.5,7.2 -9.6,6.1 l -15.8,-4.1 m 20.8,-23.9 -15.6,-4.9 c -4,-1.2 -8.6,1.7 -9.9,6.3 -1.3,4.5 1,9.4 5,10.5 l 15.8,4.4 m 11.7,-38.1 -15.5,-5.2 c -4,-1.4 -8.7,1.5 -10,6 -1.3,4.5 0.7,9.2 4.7,10.4 l 15.6,5 m -4,-31.5 15.5,5.2 c 4,1.4 6.1,6.1 4.6,10.6 -1.5,4.5 -6,7 -10,5.6 l -15.5,-5.2 m 22.1,-22.6 -15.3,-5.5 c -4,-1.5 -8.6,1 -10.2,5.4 -1.6,4.4 0.4,9.5 4.5,10.9 l 15.4,5.2 m 5,-53.3 15.2,6 c 4,1.5 5.9,6.1 4.2,10.5 -1.7,4.4 -6.2,6.8 -10.2,5.4 l -15.3,-5.7 m -2,5.6 15.2,5.7 c 4,1.4 6,6 4.4,10.5 -1.6,4.5 -6.1,6.9 -10.1,5.4 l -15.4,-5.4 m 22.6,-22.3 -15.3,-5.7 c -4,-1.5 -8.6,0.9 -10.3,5.3 -1.7,4.4 0.3,9.4 4.3,10.8 l 15.3,5.5 m 14.2,-37.4 -15.2,-6 c -4,-1.5 -8.6,0.9 -10.3,5.3 -1.7,4.4 0,9.4 4,10.9 l 15.3,5.7 m -2.3,-31.6 15.2,6 c 4,1.4 5.8,6.3 4.1,10.7 -1.7,4.4 -6.3,6.7 -10.3,5.2 l -15.2,-6 m -98.5,-12 v 16.4 c 0,4.3 -3.9,7.7 -8.6,7.7 -4.7,0 -8.6,-3.4 -8.6,-7.7 v -16.3 m 28.7,13.5 v -16.3 c 0,-4.3 -3.8,-7.7 -8.5,-7.7 -4.7,0 -8.6,3.4 -8.6,7.7 v 16.3 m 28.7,-13.5 v 16.3 c 0,4.2 -3.8,7.7 -8.6,7.7 -4.8,0 -8.5,-3.5 -8.5,-7.7 v -16.3 m 28.7,13.5 v -16.3 c 0,-4.3 -3.8,-7.7 -8.6,-7.7 -4.8,0 -8.6,3.4 -8.6,7.7 v 16.3 m 52,-13.5 v 16.3 c 0,4.2 -4,7.7 -8.7,7.7 -4.7,0 -8.5,-3.5 -8.5,-7.7 v -16.3 m -6,0 v 16.3 c 0,4.2 -3.9,7.7 -8.6,7.7 -4.7,0 -8.6,-3.5 -8.6,-7.7 v -16.3 m 28.8,13.5 v -16.3 c 0,-4.3 -3.9,-7.7 -8.6,-7.7 -4.7,0 -8.6,3.4 -8.6,7.7 v 16.3 m 40.3,0 v -16.3 c 0,-4.3 -3.8,-7.7 -8.6,-7.7 -4.8,0 -8.6,3.4 -8.6,7.7 v 16.3 m 26.3,8.2 a 9,9 0 0 1 -6,2.3 c -4.8,0 -8.7,-3.5 -8.7,-7.7 v -16.3 m -114,41.8 -10,-11.7 c -2.6,-3 -2.4,-7.4 0.9,-10.4 3.3,-3 7.6,-2.8 10.4,0 l 10.8,10.8 m 4,-4.3 -11.2,-10.4 a 7.4,7.4 0 0 1 -0.5,-10.5 m -5,20 10.8,10.8 c 2.9,2.8 8.2,2.1 11.3,-1.1 3,-3.3 3.3,-8.7 0.2,-11.2 l -11.8,-10.1 v -16.5 c 0,-4.3 3.8,-7.7 8.5,-7.7 4.7,0 8.6,3.4 8.6,7.7 v 16.3 m -43.5,25 9,12.4 c 2.4,3.2 7.7,3.3 11.2,0.6 3.5,-2.7 4.9,-8.4 2.1,-11.4 l -10.3,-11.2 m -13.8,26.3 -8.2,-13 c -2.1,-3.3 -1.7,-7.3 2,-10 3.7,-2.7 8,-1.9 10.4,1.3 l 9.5,12 m -29.5,4.4 7.5,13.3 c 2,3.5 7.5,4.1 11.2,1.8 3.8,-2.4 5.4,-7.4 3.1,-10.7 l -8.6,-12.7 m -36.7,34 L 328,383 c -1.6,-3.6 0.3,-8 4.4,-9.9 4,-1.8 8,-0.2 9.9,3.3 L 349,390 m 5.2,-2.5 -7.2,-13.6 c -1.9,-3.5 -0.5,-7.8 3.4,-10 3.8,-2.2 8.2,-1 10.3,2.4 l 7.8,13.1 m -29.8,1.5 6.6,13.8 c 1.7,3.6 6.7,4.9 10.6,2.9 4,-2 6,-6.8 4.1,-10.3 l -7.1,-13.5 M 335.7,407 c 4,-1.8 6,-6.2 4.4,-9.9 l -6.3,-14"
           fill="none"
           stroke="#333333"
           stroke-linecap="round"
           stroke-linejoin="round"
           stroke-width="4.3"
           id="path914" />
        <path
           d="M 559.2,352.3 C 552,376.4 545,399.2 538,422 c 65.2,62.3 53,141.6 -26,188.4 l 12.5,70.5 c 12.3,4.1 20.7,-6.8 30.8,-11.7 56,-34.6 95.9,-97.3 95.5,-164 -3.1,-88.4 -65.9,-138.3 -91.6,-153 z"
           fill="#ee1111"
           id="path915" />
        <path
           d="m 516.2,618.2 9.1,52.7 c 127,-63.2 152.3,-220.4 31.5,-303.6 L 542.4,416 c 94.3,82.6 26.5,177.1 -26.2,202 z"
           fill="#333333"
           stroke="#3366aa"
           stroke-linecap="round"
           stroke-linejoin="round"
           stroke-width="5.3"
           id="path916" />
        <path
           d="m 278.8,594 c 26.4,-82.2 40.6,-162.4 13.7,-268 H 284 l -63,32.3 c 29.4,80.4 13.3,160.8 -2.3,235.7 z"
           fill="#3366aa"
           stroke="#ffffff"
           stroke-linejoin="round"
           stroke-width="8"
           id="path917" />
        <path
           d="m 235.1,360.8 c 26.6,101.1 14.5,146.6 -3.5,225 m 49,-247.7 c 28.2,103 9.4,179.1 -11.9,248.2"
           fill="none"
           stroke="#333333"
           stroke-linecap="round"
           stroke-width="5.3"
           id="path918" />
        <path
           d="m 194,344.3 c -9.1,-17.8 -1.8,-7.5 -8.5,-4.5 -22.8,1.8 -39.2,12.8 -58.9,19.2 9.6,10 11.8,20.5 21,31 l 55.2,-28 c -5.5,-8.5 -2.8,-8.1 -8.8,-17.7 z"
           fill="#ffffff"
           stroke="#333333"
           stroke-linejoin="round"
           stroke-width="4.3"
           id="path919" />
        <path
           d="m 163.8,359.8 c -3.2,1.8 -8.2,-1.1 -11.1,-6.4 -11.4,-21 -3.8,-10.7 0,-13.3 4,-2.8 3.8,-10 11.7,7 2.5,5.4 2.6,11 -0.6,12.7 z m -12.2,5.5 c -3.2,1.8 -8.1,-1 -11,-6.3 -11.3,-20.8 -3.8,-10.6 0,-13.2 4.1,-2.8 4,-10 11.7,6.8 2.5,5.4 2.5,11 -0.7,12.7 z m 24,-12.8 c -3.2,1.7 -8,-1 -10.8,-6 -10.9,-19.9 -3.5,-10.2 0.3,-12.7 4,-2.8 4,-9.7 11.4,6.3 2.4,5.3 2.3,10.6 -0.9,12.4 z m -39,12.1 c -2.7,1.6 -6.8,-0.6 -9,-4.7 -9,-16.3 -2.9,-8.3 0.4,-10.6 3.6,-2.3 3.7,-8 9.7,5.1 1.9,4.3 1.8,8.7 -1,10.2 z"
           fill="#ffffff"
           stroke="#333333"
           stroke-linejoin="round"
           stroke-width="4.3"
           id="path920" />
        <path
           d="m 152.7,339.4 c -3.3,1.8 -7.7,0 -9.9,-4.1 -8.7,-16 -2.5,-8.4 1.3,-10.9 4.1,-2.7 4.7,-8.6 10.4,4.5 1.8,4.2 1.4,8.8 -1.8,10.5 z m -12,5.7 c -3.3,1.8 -7.7,0 -9.9,-4 -8.6,-15.9 -2.5,-8.3 1.4,-10.8 4.1,-2.7 4.7,-8.5 10.3,4.4 1.8,4.2 1.4,8.7 -1.9,10.4 z m 24.4,-12 c -3.3,1.8 -7.6,0 -9.7,-3.8 -8.3,-15.2 -2.3,-8 1.5,-10.4 4.2,-2.7 4.8,-8.4 10.2,4 1.7,4 1.2,8.5 -2,10.2 z m -37,15.7 c -2.8,1.5 -6.5,0.2 -8.2,-3 -6.8,-12.4 -1.8,-6.5 1.5,-8.6 3.6,-2.3 4.3,-7 8.6,3.1 1.4,3.3 0.8,7 -2,8.5 z m 56.2,-10.3 a 6.7,6.7 0 0 1 -9,-2.6 c -7,-12.8 -1.8,-6.9 2,-9.3 4.3,-2.6 5.3,-7.7 9.6,2.9 1.4,3.4 0.6,7.3 -2.6,9 z"
           fill="#ffffff"
           stroke="#333333"
           stroke-linejoin="round"
           stroke-width="4.3"
           id="path921" />
        <path
           d="m 144.7,324.2 c -3.2,1.7 -7.4,0.2 -9.4,-3.3 -2,-3.5 -1,-8 2.3,-9.7 3.3,-1.7 7.4,-0.3 9.4,3.3 2,3.6 1,8 -2.3,9.7 z m -12,5.9 c -3.2,1.7 -7.3,0.3 -9.3,-3.3 -2,-3.6 -0.9,-7.9 2.3,-9.6 3.2,-1.7 7.4,-0.3 9.4,3.3 2,3.6 0.9,7.8 -2.3,9.6 z m 24.8,-11.5 a 6.8,6.8 0 0 1 -9.2,-3 c -1.8,-3.4 -0.7,-7.6 2.5,-9.3 3.2,-1.7 7.3,-0.4 9.2,3 1.8,3.4 0.7,7.6 -2.5,9.3 z M 122,337 a 5.8,5.8 0 1 1 -5.5,-10.1 5.8,5.8 0 0 1 5.5,10 z m 57.5,-18.9 c -1.1,-4 -4.9,-7 -8.3,-6.3 -3.4,0.7 -5.3,4.4 -4.2,8.5 1.2,4 5,7 8.4,6.3 3.4,-0.5 5.3,-4.4 4.1,-8.5 z"
           fill="#ffffff"
           stroke="#333333"
           stroke-linejoin="round"
           stroke-width="4.3"
           id="path922" />
        <path
           d="m 483.1,169.9 c -9.7,-28.3 9.2,-74.5 22.2,-109.7 h -259 c 7.5,24.7 38.7,55.8 38,88.2 77.6,-6.3 112.5,11.9 198.8,21.5 z"
           fill="#eecc55"
           stroke="#333333"
           stroke-linecap="round"
           stroke-linejoin="round"
           stroke-width="4.3"
           id="path923" />
        <g
           transform="matrix(-0.245,0.0264,0.1364,0.601,164.9,-60)"
           id="g925">
          <path
             d="m -302.1,258.3 c 0.8,-13.8 5.6,-20.1 11.3,-20.3 5.6,-0.2 14.5,4 14.3,20.8 12,8.5 12,16.2 -2.5,22 2,21.3 -8,1 -11.9,1 -3.8,-0.2 -12.3,18.8 -11.2,0.2 -16,0 -19.4,-9.6 -19.4,-13.9 0,-4.6 4.6,-9.6 19.4,-9.8 z"
             fill="#333333"
             stroke="#ee1111"
             stroke-linecap="round"
             stroke-linejoin="round"
             stroke-width="3.2"
             id="path924" />
          <path
             transform="matrix(0.2638,0,0,0.2683,-230,197.8)"
             d="m -198.2,267.5 a 30.7,30.7 0 1 1 -61.4,0 30.7,30.7 0 1 1 61.4,0 z"
             fill="#333333"
             stroke="#ee1111"
             stroke-linecap="round"
             stroke-linejoin="round"
             stroke-width="11.1"
             id="path925" />
        </g>
        <g
           id="g41092"
           transform="matrix(-0.5234,-0.0339,-0.0347,0.5366,186.8,-56.4)">
          <path
             d="m -302.1,258.3 c 0.8,-13.8 5.6,-20.1 11.3,-20.3 5.6,-0.2 14.5,4 14.3,20.8 15.9,-0.5 18,8.3 17.6,12.2 -0.6,4.4 -2,11.4 -20,9.9 1.8,21.2 -8,1 -12,0.8 -4,-0.2 -12.3,18.9 -11.2,0.3 -16,0 -19.4,-9.6 -19.4,-13.9 0,-4.6 4.6,-9.6 19.4,-9.8 z"
             fill="#333333"
             stroke="#ee1111"
             stroke-linecap="round"
             stroke-linejoin="round"
             stroke-width="3.5"
             id="path926" />
          <path
             transform="matrix(0.2638,0,0,0.2683,-230,197.8)"
             d="m -198.2,267.5 a 30.7,30.7 0 1 1 -61.4,0 30.7,30.7 0 1 1 61.4,0 z"
             fill="#333333"
             stroke="#ee1111"
             stroke-linecap="round"
             stroke-linejoin="round"
             stroke-width="13"
             id="path927" />
        </g>
        <path
           d="m 282.5,125.9 c 62.7,-7.2 128.5,15 196,22.7 l 4.5,-26.7 c -4.2,5 -34.8,9.5 -41.3,-5.3 -8.7,13.1 -48.8,7.6 -55.3,-4.1 -5.2,10.4 -48.2,9.6 -57.3,-3.7 -7.8,11.1 -43,9.4 -54.5,-2.5 z"
           fill="#ee1111"
           stroke="#3366aa"
           stroke-linecap="round"
           stroke-linejoin="round"
           stroke-width="4.3"
           id="path928" />
        <g
           transform="matrix(0.2821,0.0795,-0.0991,0.5313,594,-9.1)"
           id="g930">
          <path
             d="m -302.1,258.3 c 0.8,-13.8 5.6,-20.1 11.3,-20.3 5.6,-0.2 13.3,1.8 13.2,18.6 -4.6,12.3 -6.7,25.8 -13.3,25.1 -3.5,-0.5 -12.3,18.9 -11.2,0.3 -16,0 -19.4,-9.6 -19.4,-13.9 0,-4.6 4.6,-9.6 19.4,-9.8 z"
             fill="#333333"
             stroke="#ee1111"
             stroke-linejoin="round"
             stroke-width="3.5"
             id="path929" />
          <path
             transform="matrix(0.2638,0,0,0.2683,-230,197.8)"
             d="m -198.2,267.5 a 30.7,30.7 0 1 1 -61.4,0 30.7,30.7 0 1 1 61.4,0 z"
             fill="#333333"
             stroke="#ee1111"
             stroke-linecap="round"
             stroke-linejoin="round"
             stroke-width="13"
             id="path930" />
        </g>
        <path
           d="M 503,63.2 C 441.7,62.8 316,62 249.2,63.2 l 3.6,8.8 c 4,-5.3 38.7,-12.5 50,6 10.8,-13.5 38.2,-17.2 60.2,-0.6 7.2,-7.3 44.6,-13.5 63.2,1.1 17.9,-10.4 55.2,-7.3 67.9,6.8 z"
           fill="#3366aa"
           id="path931" />
        <path
           d="m 284.8,151.3 c -6.5,19.3 -3.2,23.9 -2.8,38.6 0.4,15 -13.5,49.5 -15.7,55.7 -2.5,7 7,11.8 19.5,10.1 1.4,-0.2 2.8,-0.4 4.3,-0.8 3.5,2.6 -4,15.4 -3.2,19.6 3.5,0 6,3.8 3.4,8 -3,4.8 1.3,14.7 -4,29.7 l -0.8,2.8 c 2.2,-5.6 -1.3,-11.4 -6.7,-13 -6.8,-2.2 -14,2.4 -16.2,9 a 14.8,14.8 0 0 0 10.5,18.7 c 3,0.8 6.3,0.7 9.4,-0.2 l 5,-1.7 c -4.1,2.5 3.4,8.7 8.5,7.1 3.8,-1 7.6,-2.3 11.5,-4 -4.6,3.2 5.5,7.6 12.8,4.5 10.4,-4.5 22,-13.5 35.7,-29.7 L 334.6,327 c -6.7,3.1 1.8,8.3 9.3,4.5 8.6,-4.5 11.3,-6.1 24.9,-22.3 l -7,10.3 c 7.5,5 27.3,-7.9 40.9,-24 l -0.8,-3 c 4,6.3 4.8,10 11.6,6.2 l -0.9,-3.3 c 2.6,4.3 4.2,6.5 10,3.3 l -0.7,-2 c 2.3,3.5 4,4.9 9.2,2 l -0.2,-0.8 c 2,3 3.9,4.3 8.8,1.7 l -0.2,-0.7 c 2.4,3.5 4.7,4.7 7.9,0.9 l -0.5,-1.8 c 2.7,4.6 5.2,6.4 9.6,2.6 2.1,2.9 4.5,3.8 9.5,1.1 l -0.8,-2.5 c 2.6,3.9 5.2,5.2 10.9,2.1 l -0.2,-0.5 c 2.4,2.6 5.2,3.2 9.8,0.8 2.6,1.7 5.8,1.7 10,-0.5 3.2,2.4 6.8,1 10.3,-2 8.2,2.8 17.6,0 22.3,-7.9 5.1,-8.4 3,-20.2 -5.2,-25.8 -7.2,-4.9 -17.3,-3 -21.8,4.7 l 1.3,-2.6 c -4.3,-9.9 -6.2,-22.5 -7.9,-36 -2.4,-19.5 -4.4,-40.8 -12.8,-58.8 a 775.8,775.8 0 0 1 -15,-1.9 l -7.5,-1 -7.8,-1.2 -7.9,-1.2 -8.8,-1.4 -8.1,-1.4 -7.9,-1.5 -8.9,-1.6 -8.5,-1.6 -8.6,-1.6 -9.4,-1.7 -9.4,-1.5 a 356,356 0 0 0 -89.3,-3.8 z"
           fill="#ffffff"
           id="path932" />
        <path
           d="m 652,364.1 -77.4,-63.5 -69.7,-0.7"
           fill="none"
           stroke="#333333"
           stroke-linejoin="round"
           stroke-width="5.3"
           id="path933" />
        <path
           d="m 466.7,169.5 c 15.2,29 16.7,102.4 28.6,119.8 1.5,2.4 3.5,4.5 5.9,6.1 8.9,6.2 21.3,4 27,-5.4 5,-8.4 3,-20.3 -5.3,-25.8 -7.2,-5 -17.3,-3.1 -21.8,4.6 -3.9,6.7 -2.2,16.1 4.4,20.4 a 11.7,11.7 0 0 0 16.7,-3.9 c 2.7,-5 1.4,-11.9 -3.6,-14.9 -4,-2.3 -9.4,-1.2 -11.5,3.1 -1.6,3.3 -0.6,7.8 2.8,9.4 2.3,1.1 5.4,0.4 6.2,-2.3 0.5,-1.5 -0.1,-3.8 -1.9,-4 -0.6,0 -2,1 -1,1.6 m -185.9,20.5 c -11.6,19.4 -22.2,22 -45.3,29.6 0,0 23,-7.6 0.1,0 -3,0.9 -6.1,1 -9.2,0.2 a 14.8,14.8 0 0 1 -10.5,-18.6 c 2.2,-6.7 9.5,-11.3 16.3,-9.2 5.3,1.7 8.8,7.5 6.7,13 -1.6,4 -6.3,6.9 -10.5,5.2 -2.7,-1.2 -4.6,-4.6 -2.9,-7.4 0.9,-1.5 3.4,-2.8 4.7,-1.2 m 3,8.8 c 17.6,-5.2 24.4,-7.5 35,-24 m 26,7.7 a 75.8,75.8 0 0 1 -44.8,30.9 c -5.4,1.6 -13.4,-5.2 -8,-7.5 m 67.9,-21.7 c -13.6,16.2 -25.3,25.1 -35.7,29.6 -7.7,3.3 -18.5,-1.8 -11.8,-4.9 m 60.3,-21.3 c -13.6,16.2 -16.2,17.9 -25,22.4 -7.3,3.8 -15.9,-1.4 -9.2,-4.5 m -6,-61 c 12.2,3.1 4.2,13.7 -4.4,13.7 -8.6,0.1 -13.9,-9 -30,-11.2 m 37.5,-72.8 c -0.3,-4.1 -7.6,-7.2 -16.6,-8.7 -4.5,-0.7 -14.4,0.2 -16.1,1.3 -1.5,3.4 -3.1,12 -2.5,16.5 m 0,0 a 31,31 0 0 0 12.6,14.8 m -11.2,-46.6 c 5.2,-1.1 35.4,2.4 39.9,10.4 m -40,-10.4 c 7,-4.7 33.6,-0.2 40,10.4 m -52.8,-32.7 c -6.8,19.9 -3.4,24.3 -3,39.2 0.4,14.9 -13.5,49.5 -15.7,55.7 -2.7,7.7 9.4,12.9 23.8,9.3 3.5,2.6 -3.9,15.3 -3.1,19.5 3.4,0.1 6,3.9 3.3,8.1 -3,4.8 1.4,14.6 -4,29.7 M 499.9,281.8 C 488.9,259 489.1,199.1 474.1,170.5 m 28.3,95.7 c -10.6,-24.2 -6.5,-64.5 -20.8,-95 m 24.8,126 c -4.5,4.3 -9.2,5.8 -13.1,0.5 -13.5,-18.1 -23.7,-106.2 -34.5,-130.2 m 36.8,132.3 c -6.8,3.7 -11,1.4 -14.3,-4.5 -10.9,-19 -19.4,-104.7 -30.2,-128.7 M 486,300.1 c -6.9,3.8 -9.8,1.2 -13.1,-4.7 -10.8,-19 -18.8,-106 -29.6,-130 M 476,300.2 c -6.9,3.8 -9.2,1 -12.5,-4.8 -10.8,-19 -18,-107.1 -28.8,-131 m 31.2,136.2 c -6.9,3.8 -8.8,0.5 -12.2,-5.4 -10.8,-19 -16.7,-109.4 -27.4,-133.4 m 30.2,137.6 c -5.2,4.5 -7.6,1.3 -11,-5 -10.4,-19.4 -16.2,-109.5 -27,-133.5 m 21.1,137.5 c -6.9,3.8 -8,-0.2 -11.3,-6 -10.9,-19 -16.4,-110.7 -27.1,-134.6 M 431,297.6 c -6.8,3.8 -7.7,0 -11.6,-6.2 -11.6,-18.4 -16,-111.3 -26.8,-135.2 m 54.7,142.4 c -4.1,4.9 -6.7,1.6 -10,-4.2 C 426.5,275.4 420.6,184 409.9,160 m 12.5,137.6 c -6.8,3.8 -7.6,0 -11.6,-6.2 -11.6,-18.4 -17,-113 -27.7,-137 m 30.3,143.2 c -6.8,3.8 -7.6,0 -11.6,-6.2 -11.6,-18.4 -17.3,-114.7 -28,-138.7 m 28.8,141.6 c -13.6,16.2 -33.4,29 -40.8,24"
           fill="none"
           stroke="#3366aa"
           stroke-linecap="round"
           stroke-linejoin="round"
           stroke-width="4.3"
           id="path934" />
        <path
           d="m 480,148.5 c -1.2,7.6 3.6,13.2 4.4,23 C 398,162 361,143.8 283.4,150.1 c -0.4,-8.9 -1.7,-16.8 -3.3,-24 74.1,-6.6 114.2,12.9 199.8,22.4 z"
           fill="#333333"
           id="path935" />
        <path
           d="m 308.6,281 c -0.3,-6.1 -13.9,-3 -19.5,-6.7 3.4,5.2 5,4.5 19.4,6.7 z"
           fill="#3366aa"
           stroke="#3366aa"
           stroke-width="4.3"
           id="path936" />
        <path
           d="m 305.4,198.8 a 3.3,3.3 0 1 0 6.6,0 3.3,3.3 0 1 0 -6.6,0 z"
           fill="#3366aa"
           stroke-width="0.5"
           id="path937" />
        <path
           d="m 300.4,189.9 a 328,328 0 0 0 33.8,5.2 c -0.1,1.7 -16.2,0.8 -21.3,0 -5.1,-0.6 -12.5,-3.3 -12.5,-5.2 z"
           fill="#3366aa"
           stroke="#3366aa"
           stroke-linecap="round"
           stroke-linejoin="round"
           stroke-width="2.8"
           id="path938" />
        <path
           d="m 329.7,196.5 c -7.7,10.1 -23.2,13.1 -32.5,3.8"
           fill="none"
           stroke="#3366aa"
           stroke-width="2.8"
           id="path939" />
        <path
           d="m 302.3,198.8 a 6.7,6.7 0 1 0 13.3,0 6.7,6.7 0 1 0 -13.3,0 z"
           fill="none"
           stroke="#3366aa"
           stroke-width="2.8"
           id="path940" />
        <path
           d="M 92,419.3 270.3,328.6"
           fill="#eecc55"
           stroke="#333333"
           stroke-linecap="round"
           stroke-linejoin="round"
           stroke-width="5.3"
           id="path941" />
        <path
           id="p27770"
           d="m 338.4,525 a 40.8,40.8 0 0 0 -15.3,19.9 40.8,40.8 0 0 0 -15.2,-20 40.8,40.8 0 0 0 15.2,-20 40.8,40.8 0 0 0 15.3,20 z"
           fill="#ee1111" />
        <path
           d="m 316,433 c 44.2,-14.4 86.7,-41 112,-72.5 h 62.2 a 971,971 0 0 0 -33.8,94.7 H 315 l 1.1,-22.3 z m 335.7,192 -101.5,52 c 11.2,-55.3 49.5,-92 101.9,-104.2 z"
           fill="#ee1111"
           stroke="#333333"
           stroke-linejoin="round"
           stroke-width="4.3"
           id="path942" />
        <path
           d="M 513.5,583.2 C 551,533.6 601.2,502 650.6,494 l -0.7,28.6 c -55.4,8 -109.4,52.5 -135.3,104.6 -0.7,-12.3 -2,-21 -1.1,-44.1 z"
           fill="#eecc55"
           stroke="#333333"
           stroke-linecap="round"
           stroke-linejoin="round"
           stroke-width="5.3"
           id="path943" />
        <path
           d="m 649.9,522.8 c -55.4,8 -110.6,55.4 -136.5,107.5 1.7,18.1 3.7,33.7 13.5,59.4 l 23.3,-12.6 c 11.2,-55.3 47.4,-91.3 99.8,-103.4 z"
           fill="#3366aa"
           id="path944" />
        <path
           d="m 650.9,537.7 c -5.6,3.8 -8,9.5 1.2,12.4 M 542,650.4 l -5,-5.2 c 0.7,-7.8 -7.1,-6.8 -12,-2 0,6.7 4.3,13 9.7,7.2 h 7.3 v 0 m 19.4,-32.7 -3.6,-6.2 c 2.6,-7.5 -5.3,-8.3 -11.1,-4.8 -1.7,6.5 1,13.7 7.6,9.3 l 7.1,1.7 v 0 m 26.3,-27.9 -2.3,-6.9 c 4.1,-6.7 -3.4,-9.1 -9.7,-7 -3,6 -2,13.6 5.4,10.7 l 6.6,3.2 v 0 m 31.4,-21.6 -0.7,-7.2 c 5.6,-5.6 -1.1,-9.7 -7.8,-9 -4.3,5.1 -4.8,13 3,11.6 l 5.5,4.6 v 0 m -89.6,110 9.6,-9 -0.8,-14.2 c -10.8,12.7 -20.6,-0.8 -20.5,-15 10.1,-9.9 26.8,-12 25.1,4.4 l 10.9,-8.8 2.9,-14.2 c -13.6,9.7 -19.8,-5.7 -16.3,-19.5 12.2,-7.2 28.8,-5.5 23.3,10.2 l 12.7,-6.3 5.8,-13.3 c -15.2,6.5 -18,-9.9 -11.7,-22.6 13.5,-4.4 29.3,0.7 20.6,15 l 14,-4 8.2,-11.4 c -16.4,3 -15.5,-13.7 -6.4,-24.6 14.1,-1.2 28.4,7.5 16.6,19.2 h 13.9 l 11,-8.8 c -16.4,-1.6 -11,-17.4 0.9,-25.3 l 2.7,1.3"
           fill="none"
           stroke="#ffffff"
           stroke-linecap="round"
           stroke-linejoin="round"
           stroke-width="4.3"
           id="path945" />
        <path
           d="m 513.5,592.6 c 2.1,-2.8 13.2,1.2 15.4,-1.5 2.2,-2.7 -4.3,-12.7 -2,-15.4 2.3,-2.7 13,2.2 15.5,-0.4 2.5,-2.6 -3.1,-13 -0.6,-15.5 2.5,-2.5 12.8,3.4 15.5,1 2.6,-2.3 -2,-13.2 0.9,-15.4 2.7,-2.2 12.4,4.6 15.2,2.5 2.8,-2.1 -0.5,-13.3 2.5,-15.2 3,-2 11.9,5.8 15,4 3,-1.7 0.8,-13.3 4,-14.9 3.1,-1.6 11,7 14.3,5.7 3.3,-1.3 2.3,-13.3 5.6,-14.6 3.3,-1.3 10.5,8.2 13.8,7 3.3,-1.2 3.4,-13 6.8,-13.9 3.4,-0.9 9.8,9 13.2,8.1"
           fill="none"
           stroke="#333333"
           stroke-width="4.3"
           id="path946" />
        <path
           d="m 538.6,431.4 c 29.7,35.6 34.5,54.7 34,90.3 a 189,189 0 0 0 -58.5,53.1 1024,1024 0 0 1 24.5,-143.4 z"
           fill="#3366aa"
           id="path947" />
        <path
           d="m 544.5,459.1 a 1004.7,1004.7 0 0 0 -14,79 200,200 0 0 1 30.2,-23.2 97.4,97.4 0 0 0 -16.1,-56.2 z"
           fill="#3366aa"
           stroke="#ffffff"
           stroke-linejoin="round"
           stroke-width="5.3"
           id="path948" />
        <path
           d="m 602,492.4 c 3.2,10 16.8,6 11.7,-3.7 -2.5,-4.7 -3.4,-0.3 -5.6,1.7 -2.5,2.2 -4.7,-6.6 -4.7,-14.4 -2.7,5.2 -3.5,10 -1.5,16.4 m 8.9,-8.2 c -8.4,2.2 -5,-4.9 -2.2,-10.4 5.4,-10.8 -7,-28.4 -14.9,-30.5 10.8,-1.1 15.2,-9 14.2,-1.8 7.6,-0.3 0.4,5.8 -4,3.5 10.1,11.8 28.3,27.8 6.9,39.2 m -28.2,-38.9 c -5.6,3 -1.4,8.7 4,5 2.6,-1.7 0.3,-1.9 -1,-2.8 -1.4,-1 3.6,-3 8.1,-3.7 -3,-1 -7.5,-0.3 -11,1.5 m 20.8,19.5 c 1,5.5 -8.6,9.7 -11.2,-0.6 -0.9,-3.3 1.3,-4.4 4.3,-4 3.3,0.5 -3.8,-9 -3.8,-17.7 a 56.7,56.7 0 0 1 10.7,22.3 M 598,423.6 c -0.7,-7.9 -11.4,-4.4 -9.4,3.3 1,3.8 1.8,1.7 3.6,0.3 2,-1.5 2.8,10.3 1.8,16.2 a 42.7,42.7 0 0 0 4,-19.8 m -28,-3.5 c 8.2,6.7 -4,-25.2 7.3,-21.2 7.2,2.5 2.7,10.2 -0.3,13.6 -4,4.6 11,26 18.2,29.3 -10.5,-2.1 -20.2,-3.1 -25.4,-7.3 -2.1,-2.8 1.6,-5.6 5.2,-3 -1.4,-1.4 -6.3,-12.4 -5,-11.4 m -7.7,-19.4 c -4.4,-6.3 -12.2,1.7 -6.8,7.4 2.6,2.8 2.7,1.1 3.7,-1 1.1,-2.2 7.7,8.3 9.4,13.9 0.7,-4.4 -3.5,-16.3 -6.3,-20.3"
           fill="#eecc55"
           id="path949" />
        <g
           transform="translate(1,-0.5)"
           id="g951">
          <path
             d="m 588.7,437.4 c -2.5,-0.8 -4,-0.4 -4.4,0.6 -0.5,1 -0.5,2.7 2.4,4 -1.4,2.7 -0.1,3.6 0.6,3.9 0.8,0.2 2.2,0.6 3.4,-2.7 3.5,2 4.1,0.3 4.4,-0.4 0.4,-0.7 1,-2.3 -2.3,-3.5 1.4,-2.8 0,-4.3 -0.8,-4.6 -0.8,-0.4 -2,0.1 -3.3,2.7 v 0"
             fill="#eecc55"
             stroke="#333333"
             stroke-linecap="round"
             stroke-linejoin="round"
             id="path950" />
          <path
             d="m 588,441.1 c 0.2,0.7 0.8,1 1.5,1.1 0.7,0 1.4,-0.3 1.9,-0.8 0.4,-0.6 0.5,-1.3 0.3,-2 a 1.8,1.8 0 0 0 -1.6,-1 c -0.8,0 -1.4,0.3 -1.9,0.8 a 1.9,1.9 0 0 0 -0.3,2"
             id="path951" />
        </g>
        <g
           transform="translate(0,-1.3)"
           id="g957">
          <g
             id="g953">
            <path
               d="m 620,113 32.3,-35.2 v 284 l -32.4,-26 z"
               fill="#eecc55"
               stroke="#3366aa"
               stroke-width="4.3"
               id="path952" />
            <path
               d="M 629.7,120 651.9,94.5 V 363 l -22.2,-20 z"
               fill="#ee1111"
               stroke="#3366aa"
               stroke-width="4.3"
               id="path953" />
          </g>
          <g
             id="g956">
            <path
               d="m 549.9,100.1 c -18.2,28.5 -16.4,69.2 -3.1,117 16.4,-19.7 47,-31 73.2,-44.9 v -24.6 c -45.8,-21.2 -61.1,-35 -70.1,-47.5 z"
               fill="#ffffff"
               stroke="#333333"
               stroke-linejoin="round"
               stroke-width="4.3"
               id="path954" />
            <path
               d="m 543.6,158.3 c 9.6,-3.4 12,-7.1 19.5,-14 16.1,6.9 39.8,10.6 56.6,14 -16.8,3 -40.5,6.2 -56.6,13.3 a 40.6,40.6 0 0 0 -19.5,-13.3 z"
               fill="none"
               stroke="#333333"
               stroke-linecap="round"
               stroke-linejoin="round"
               stroke-width="4.3"
               id="path955" />
            <path
               d="m 563.5,171.4 a 79,79 0 0 1 -12.3,40 c -10.6,-45.4 -11.6,-85.4 2.6,-106 6,12.8 8.5,25.6 9.7,38.4"
               fill="none"
               stroke="#333333"
               stroke-linecap="round"
               stroke-linejoin="round"
               stroke-width="4.3"
               id="path956" />
          </g>
        </g>
        <use
           transform="translate(32.6)"
           width="744.09998"
           height="1052.4"
           xlink:href="#p27770"
           id="use957" />
        <use
           transform="matrix(1.2022194,-0.22064855,0.22064855,1.2022194,-237.38773,-182.25199)"
           width="744.09998"
           height="1052.4"
           xlink:href="#p27770"
           id="use958" />
        <use
           transform="matrix(1.020644,0.01068855,-0.01068855,1.020644,-55.111854,-114.50745)"
           width="744.09998"
           height="1052.4"
           xlink:href="#p27770"
           id="use959" />
        <use
           transform="matrix(0.87833555,0.08766954,-0.08766954,0.87833555,32.341897,-14.858125)"
           width="744.09998"
           height="1052.4"
           xlink:href="#p27770"
           id="use960" />
        <use
           transform="matrix(0.76654492,0.12140879,-0.12140879,0.76654492,81.626693,72.234527)"
           width="744.09998"
           height="1052.4"
           xlink:href="#p27770"
           id="use961" />
        <use
           transform="matrix(0.6816,0.0969,-0.0969,0.6816,90.3,160.4)"
           width="744.09998"
           height="1052.4"
           xlink:href="#p27770"
           id="use962" />
        <use
           transform="matrix(0.44528861,0.09871811,-0.09871811,0.44528861,161.20732,314.42644)"
           width="744.09998"
           height="1052.4"
           xlink:href="#p27770"
           id="use963" />
        <use
           transform="translate(57.4,3.5)"
           width="744.09998"
           height="1052.4"
           xlink:href="#g41092"
           id="use964" />
        <use
           transform="translate(112.7,7.4)"
           width="744.09998"
           height="1052.4"
           xlink:href="#g41092"
           id="use965" />
      </g>
      <use
         transform="rotate(180,295.1,2024.2)"
         width="744.09998"
         height="1052.4"
         xlink:href="#g9935"
         id="use966" />
    </g>
    <use
       transform="translate(1620)"
       xlink:href="#u41566"
       id="use967" />
    <use
       transform="translate(1620.1)"
       xlink:href="#u41568"
       id="use968" />
    <use
       transform="translate(405.3,315)"
       xlink:href="#frame"
       id="use969" />
    <use
       transform="translate(405.3)"
       xlink:href="#u19056"
       id="use970" />
    <use
       transform="translate(405.3)"
       xlink:href="#u19268"
       id="use971" />
    <use
       transform="translate(2430.1001,1045)"
       style="stroke:#ee1111"
       xlink:href="#K"
       id="use972" />
    <use
       transform="rotate(180,1316.25,-50)"
       style="stroke:#ee1111"
       xlink:href="#K"
       id="use973" />
  </g>
  <g
     id="club_1"
     transform="translate(-2430.1001,-630)">
    <rect
       id="card"
       x="0.69999999"
       y="0.69999999"
       width="201.10001"
       height="313.60001"
       rx="9"
       ry="9"
       fill="#ffffff"
       stroke="#333333"
       stroke-width="1.4" />
  </g>
</svg>
