<?xml version="1.0" encoding="UTF-8" standalone="no"?>
<svg
   width="202.6001"
   height="315"
   version="1.1"
   id="svg1018"
   xmlns:xlink="http://www.w3.org/1999/xlink"
   xmlns="http://www.w3.org/2000/svg"
   xmlns:svg="http://www.w3.org/2000/svg">
  <defs
     id="defs1018" />
  <path
     id="K"
     d="m 10.6,-387.7 13.9,-16.4 m -14.4,-0.2 v 25.7 m 5.3,-14.3 9,14.4 M 8.1,-405 H 12 m -3.9,27.4 H 12 M 22,-405 h 3.9 m -3.8,27.4 h 3.8"
     stroke-linecap="square"
     stroke-width="3.5" />
  <g
     id="club_jack"
     transform="translate(-2430,-315)">
    <path
       id="frame"
       d="M 2194.1,281.3 H 2058 V 33.6 h 136.1 z"
       fill="none"
       stroke="#3366aa"
       stroke-linejoin="round"
       stroke-width="2.4" />
  </g>
  <g
     id="diamond_1"
     transform="translate(-2430,-315)">
    <use
       id="u41521"
       transform="rotate(180,101.3,472.6)"
       xlink:href="#diamS" />
    <path
       id="diam"
       d="m 123.5,472.5 a 112.97,112.97 0 0 0 -22,26 97.4,97.4 0 0 0 -22.6,-26 c 11,-10.3 15.8,-14.6 22.6,-26 a 112.57,112.57 0 0 0 22,26 z"
       fill="#ee1111" />
    <use
       id="diamS"
       transform="matrix(0.4423,0,0,0.4423,-27.7,164.5)"
       xlink:href="#diam" />
  </g>
  <g
     id="diamond_5"
     transform="translate(-2430,-315)">
    <use
       id="u41566"
       transform="translate(810)"
       xlink:href="#diamS" />
    <use
       id="u41568"
       transform="translate(810)"
       xlink:href="#u41521" />
  </g>
  <g
     id="diamond_jack"
     transform="translate(-2430,-315)">
    <use
       id="u19056"
       transform="matrix(0.8808,0,0,0.8808,1991.41,-41.8)"
       xlink:href="#diam" />
    <use
       id="u19268"
       transform="rotate(180,2126,472.5)"
       xlink:href="#u19056" />
  </g>
  <g
     id="diamond_king"
     transform="translate(-2430,-315)">
    <use
       id="u9479"
       transform="translate(2430.1,315)"
       xlink:href="#card" />
    <use
       transform="rotate(180,2531.3,472.5)"
       width="2632.5"
       height="1575"
       xlink:href="#u9479"
       id="use911" />
    <g
       transform="matrix(0.2436,0,0,0.2666,2459.5,-67)"
       id="g966">
      <g
         transform="matrix(1,0,0,1.0022,-77,1496.8)"
         id="g912">
        <path
           d="m 652.1,365.4 v 266.4 l -178.3,90.7 c -47.3,24 -109.2,45.6 -157.3,27.6 H 172.4 L 92,687 V 420.6 l 178.3,-90.7 c 47.3,-24 157.3,-27.6 157.3,-27.6 h 144.1 z"
           fill="#333333"
           id="path911" />
        <path
           d="m 309.8,493.8 c -2.8,20 -5.8,40 -13.5,64.8 h 138 c 2.8,-20 5.8,-40 13.4,-64.8 z"
           fill="#ffffff"
           stroke="#333333"
           stroke-linejoin="round"
           stroke-width="2.7"
           id="path912" />
      </g>
      <g
         id="g9935"
         transform="matrix(1,0,0,1.0022,-77,1498.1)">
        <path
           d="m 403.2,302.6 c -27.5,42.7 -38.2,49 -86,69.4 3.9,19.3 5,30.5 5.6,49.3 41.7,-14.8 68.5,-31 100.3,-67.7 h 78.3 c -12.7,35.6 -25.4,69 -36,102.2 h 59.9 c 9,-43.7 30.4,-106.5 44.4,-153.2 h -45 z"
           fill="#eecc55"
           stroke="#ffffff"
           stroke-linecap="round"
           stroke-linejoin="round"
           stroke-width="8"
           id="path913" />
        <path
           d="m 517.4,323.6 v -5.2 c 0,-4.2 3.9,-7.7 8.8,-7.7 -1.5,4.4 0.3,9.2 4.3,10.7 l 15.2,6 m -39,114 -15.9,-4.1 c -4,-1 -8.5,2 -9.7,6.6 a 9,9 0 0 0 0.8,6.4 m 21.5,-45.8 15.6,4.8 c 4,1.3 6.2,6 4.8,10.5 -1.4,4.5 -5.7,7 -9.8,5.7 l -15.7,-4.6 m -1.7,5.8 15.7,4.6 c 4,1.2 6.4,5.6 5.2,10.1 -1.3,4.6 -5.5,7.2 -9.6,6.1 l -15.8,-4.1 m 20.8,-23.9 -15.6,-4.9 c -4,-1.2 -8.6,1.7 -9.9,6.3 -1.3,4.5 1,9.4 5,10.5 l 15.8,4.4 m 11.7,-38.1 -15.5,-5.2 c -4,-1.4 -8.7,1.5 -10,6 -1.3,4.5 0.7,9.2 4.7,10.4 l 15.6,5 m -4,-31.5 15.5,5.2 c 4,1.4 6.1,6.1 4.6,10.6 -1.5,4.5 -6,7 -10,5.6 l -15.5,-5.2 m 22.1,-22.6 -15.3,-5.5 c -4,-1.5 -8.6,1 -10.2,5.4 -1.6,4.4 0.4,9.5 4.5,10.9 l 15.4,5.2 m 5,-53.3 15.2,6 c 4,1.5 5.9,6.1 4.2,10.5 -1.7,4.4 -6.2,6.8 -10.2,5.4 l -15.3,-5.7 m -2,5.6 15.2,5.7 c 4,1.4 6,6 4.4,10.5 -1.6,4.5 -6.1,6.9 -10.1,5.4 l -15.4,-5.4 m 22.6,-22.3 -15.3,-5.7 c -4,-1.5 -8.6,0.9 -10.3,5.3 -1.7,4.4 0.3,9.4 4.3,10.8 l 15.3,5.5 m 14.2,-37.4 -15.2,-6 c -4,-1.5 -8.6,0.9 -10.3,5.3 -1.7,4.4 0,9.4 4,10.9 l 15.3,5.7 m -2.3,-31.6 15.2,6 c 4,1.4 5.8,6.3 4.1,10.7 -1.7,4.4 -6.3,6.7 -10.3,5.2 l -15.2,-6 m -98.5,-12 v 16.4 c 0,4.3 -3.9,7.7 -8.6,7.7 -4.7,0 -8.6,-3.4 -8.6,-7.7 v -16.3 m 28.7,13.5 v -16.3 c 0,-4.3 -3.8,-7.7 -8.5,-7.7 -4.7,0 -8.6,3.4 -8.6,7.7 v 16.3 m 28.7,-13.5 v 16.3 c 0,4.2 -3.8,7.7 -8.6,7.7 -4.8,0 -8.5,-3.5 -8.5,-7.7 v -16.3 m 28.7,13.5 v -16.3 c 0,-4.3 -3.8,-7.7 -8.6,-7.7 -4.8,0 -8.6,3.4 -8.6,7.7 v 16.3 m 52,-13.5 v 16.3 c 0,4.2 -4,7.7 -8.7,7.7 -4.7,0 -8.5,-3.5 -8.5,-7.7 v -16.3 m -6,0 v 16.3 c 0,4.2 -3.9,7.7 -8.6,7.7 -4.7,0 -8.6,-3.5 -8.6,-7.7 v -16.3 m 28.8,13.5 v -16.3 c 0,-4.3 -3.9,-7.7 -8.6,-7.7 -4.7,0 -8.6,3.4 -8.6,7.7 v 16.3 m 40.3,0 v -16.3 c 0,-4.3 -3.8,-7.7 -8.6,-7.7 -4.8,0 -8.6,3.4 -8.6,7.7 v 16.3 m 26.3,8.2 a 9,9 0 0 1 -6,2.3 c -4.8,0 -8.7,-3.5 -8.7,-7.7 v -16.3 m -114,41.8 -10,-11.7 c -2.6,-3 -2.4,-7.4 0.9,-10.4 3.3,-3 7.6,-2.8 10.4,0 l 10.8,10.8 m 4,-4.3 -11.2,-10.4 a 7.4,7.4 0 0 1 -0.5,-10.5 m -5,20 10.8,10.8 c 2.9,2.8 8.2,2.1 11.3,-1.1 3,-3.3 3.3,-8.7 0.2,-11.2 l -11.8,-10.1 v -16.5 c 0,-4.3 3.8,-7.7 8.5,-7.7 4.7,0 8.6,3.4 8.6,7.7 v 16.3 m -43.5,25 9,12.4 c 2.4,3.2 7.7,3.3 11.2,0.6 3.5,-2.7 4.9,-8.4 2.1,-11.4 l -10.3,-11.2 m -13.8,26.3 -8.2,-13 c -2.1,-3.3 -1.7,-7.3 2,-10 3.7,-2.7 8,-1.9 10.4,1.3 l 9.5,12 m -29.5,4.4 7.5,13.3 c 2,3.5 7.5,4.1 11.2,1.8 3.8,-2.4 5.4,-7.4 3.1,-10.7 l -8.6,-12.7 m -36.7,34 L 328,383 c -1.6,-3.6 0.3,-8 4.4,-9.9 4,-1.8 8,-0.2 9.9,3.3 L 349,390 m 5.2,-2.5 -7.2,-13.6 c -1.9,-3.5 -0.5,-7.8 3.4,-10 3.8,-2.2 8.2,-1 10.3,2.4 l 7.8,13.1 m -29.8,1.5 6.6,13.8 c 1.7,3.6 6.7,4.9 10.6,2.9 4,-2 6,-6.8 4.1,-10.3 l -7.1,-13.5 M 335.7,407 c 4,-1.8 6,-6.2 4.4,-9.9 l -6.3,-14"
           fill="none"
           stroke="#333333"
           stroke-linecap="round"
           stroke-linejoin="round"
           stroke-width="4.3"
           id="path914" />
        <path
           d="M 559.2,352.3 C 552,376.4 545,399.2 538,422 c 65.2,62.3 53,141.6 -26,188.4 l 12.5,70.5 c 12.3,4.1 20.7,-6.8 30.8,-11.7 56,-34.6 95.9,-97.3 95.5,-164 -3.1,-88.4 -65.9,-138.3 -91.6,-153 z"
           fill="#ee1111"
           id="path915" />
        <path
           d="m 516.2,618.2 9.1,52.7 c 127,-63.2 152.3,-220.4 31.5,-303.6 L 542.4,416 c 94.3,82.6 26.5,177.1 -26.2,202 z"
           fill="#333333"
           stroke="#3366aa"
           stroke-linecap="round"
           stroke-linejoin="round"
           stroke-width="5.3"
           id="path916" />
        <path
           d="m 278.8,594 c 26.4,-82.2 40.6,-162.4 13.7,-268 H 284 l -63,32.3 c 29.4,80.4 13.3,160.8 -2.3,235.7 z"
           fill="#3366aa"
           stroke="#ffffff"
           stroke-linejoin="round"
           stroke-width="8"
           id="path917" />
        <path
           d="m 235.1,360.8 c 26.6,101.1 14.5,146.6 -3.5,225 m 49,-247.7 c 28.2,103 9.4,179.1 -11.9,248.2"
           fill="none"
           stroke="#333333"
           stroke-linecap="round"
           stroke-width="5.3"
           id="path918" />
        <path
           d="m 194,344.3 c -9.1,-17.8 -1.8,-7.5 -8.5,-4.5 -22.8,1.8 -39.2,12.8 -58.9,19.2 9.6,10 11.8,20.5 21,31 l 55.2,-28 c -5.5,-8.5 -2.8,-8.1 -8.8,-17.7 z"
           fill="#ffffff"
           stroke="#333333"
           stroke-linejoin="round"
           stroke-width="4.3"
           id="path919" />
        <path
           d="m 163.8,359.8 c -3.2,1.8 -8.2,-1.1 -11.1,-6.4 -11.4,-21 -3.8,-10.7 0,-13.3 4,-2.8 3.8,-10 11.7,7 2.5,5.4 2.6,11 -0.6,12.7 z m -12.2,5.5 c -3.2,1.8 -8.1,-1 -11,-6.3 -11.3,-20.8 -3.8,-10.6 0,-13.2 4.1,-2.8 4,-10 11.7,6.8 2.5,5.4 2.5,11 -0.7,12.7 z m 24,-12.8 c -3.2,1.7 -8,-1 -10.8,-6 -10.9,-19.9 -3.5,-10.2 0.3,-12.7 4,-2.8 4,-9.7 11.4,6.3 2.4,5.3 2.3,10.6 -0.9,12.4 z m -39,12.1 c -2.7,1.6 -6.8,-0.6 -9,-4.7 -9,-16.3 -2.9,-8.3 0.4,-10.6 3.6,-2.3 3.7,-8 9.7,5.1 1.9,4.3 1.8,8.7 -1,10.2 z"
           fill="#ffffff"
           stroke="#333333"
           stroke-linejoin="round"
           stroke-width="4.3"
           id="path920" />
        <path
           d="m 152.7,339.4 c -3.3,1.8 -7.7,0 -9.9,-4.1 -8.7,-16 -2.5,-8.4 1.3,-10.9 4.1,-2.7 4.7,-8.6 10.4,4.5 1.8,4.2 1.4,8.8 -1.8,10.5 z m -12,5.7 c -3.3,1.8 -7.7,0 -9.9,-4 -8.6,-15.9 -2.5,-8.3 1.4,-10.8 4.1,-2.7 4.7,-8.5 10.3,4.4 1.8,4.2 1.4,8.7 -1.9,10.4 z m 24.4,-12 c -3.3,1.8 -7.6,0 -9.7,-3.8 -8.3,-15.2 -2.3,-8 1.5,-10.4 4.2,-2.7 4.8,-8.4 10.2,4 1.7,4 1.2,8.5 -2,10.2 z m -37,15.7 c -2.8,1.5 -6.5,0.2 -8.2,-3 -6.8,-12.4 -1.8,-6.5 1.5,-8.6 3.6,-2.3 4.3,-7 8.6,3.1 1.4,3.3 0.8,7 -2,8.5 z m 56.2,-10.3 a 6.7,6.7 0 0 1 -9,-2.6 c -7,-12.8 -1.8,-6.9 2,-9.3 4.3,-2.6 5.3,-7.7 9.6,2.9 1.4,3.4 0.6,7.3 -2.6,9 z"
           fill="#ffffff"
           stroke="#333333"
           stroke-linejoin="round"
           stroke-width="4.3"
           id="path921" />
        <path
           d="m 144.7,324.2 c -3.2,1.7 -7.4,0.2 -9.4,-3.3 -2,-3.5 -1,-8 2.3,-9.7 3.3,-1.7 7.4,-0.3 9.4,3.3 2,3.6 1,8 -2.3,9.7 z m -12,5.9 c -3.2,1.7 -7.3,0.3 -9.3,-3.3 -2,-3.6 -0.9,-7.9 2.3,-9.6 3.2,-1.7 7.4,-0.3 9.4,3.3 2,3.6 0.9,7.8 -2.3,9.6 z m 24.8,-11.5 a 6.8,6.8 0 0 1 -9.2,-3 c -1.8,-3.4 -0.7,-7.6 2.5,-9.3 3.2,-1.7 7.3,-0.4 9.2,3 1.8,3.4 0.7,7.6 -2.5,9.3 z M 122,337 a 5.8,5.8 0 1 1 -5.5,-10.1 5.8,5.8 0 0 1 5.5,10 z m 57.5,-18.9 c -1.1,-4 -4.9,-7 -8.3,-6.3 -3.4,0.7 -5.3,4.4 -4.2,8.5 1.2,4 5,7 8.4,6.3 3.4,-0.5 5.3,-4.4 4.1,-8.5 z"
           fill="#ffffff"
           stroke="#333333"
           stroke-linejoin="round"
           stroke-width="4.3"
           id="path922" />
        <path
           d="m 483.1,169.9 c -9.7,-28.3 9.2,-74.5 22.2,-109.7 h -259 c 7.5,24.7 38.7,55.8 38,88.2 77.6,-6.3 112.5,11.9 198.8,21.5 z"
           fill="#eecc55"
           stroke="#333333"
           stroke-linecap="round"
           stroke-linejoin="round"
           stroke-width="4.3"
           id="path923" />
        <g
           transform="matrix(-0.245,0.0264,0.1364,0.601,164.9,-60)"
           id="g925">
          <path
             d="m -302.1,258.3 c 0.8,-13.8 5.6,-20.1 11.3,-20.3 5.6,-0.2 14.5,4 14.3,20.8 12,8.5 12,16.2 -2.5,22 2,21.3 -8,1 -11.9,1 -3.8,-0.2 -12.3,18.8 -11.2,0.2 -16,0 -19.4,-9.6 -19.4,-13.9 0,-4.6 4.6,-9.6 19.4,-9.8 z"
             fill="#333333"
             stroke="#ee1111"
             stroke-linecap="round"
             stroke-linejoin="round"
             stroke-width="3.2"
             id="path924" />
          <path
             transform="matrix(0.2638,0,0,0.2683,-230,197.8)"
             d="m -198.2,267.5 a 30.7,30.7 0 1 1 -61.4,0 30.7,30.7 0 1 1 61.4,0 z"
             fill="#333333"
             stroke="#ee1111"
             stroke-linecap="round"
             stroke-linejoin="round"
             stroke-width="11.1"
             id="path925" />
        </g>
        <g
           id="g41092"
           transform="matrix(-0.5234,-0.0339,-0.0347,0.5366,186.8,-56.4)">
          <path
             d="m -302.1,258.3 c 0.8,-13.8 5.6,-20.1 11.3,-20.3 5.6,-0.2 14.5,4 14.3,20.8 15.9,-0.5 18,8.3 17.6,12.2 -0.6,4.4 -2,11.4 -20,9.9 1.8,21.2 -8,1 -12,0.8 -4,-0.2 -12.3,18.9 -11.2,0.3 -16,0 -19.4,-9.6 -19.4,-13.9 0,-4.6 4.6,-9.6 19.4,-9.8 z"
             fill="#333333"
             stroke="#ee1111"
             stroke-linecap="round"
             stroke-linejoin="round"
             stroke-width="3.5"
             id="path926" />
          <path
             transform="matrix(0.2638,0,0,0.2683,-230,197.8)"
             d="m -198.2,267.5 a 30.7,30.7 0 1 1 -61.4,0 30.7,30.7 0 1 1 61.4,0 z"
             fill="#333333"
             stroke="#ee1111"
             stroke-linecap="round"
             stroke-linejoin="round"
             stroke-width="13"
             id="path927" />
        </g>
        <path
           d="m 282.5,125.9 c 62.7,-7.2 128.5,15 196,22.7 l 4.5,-26.7 c -4.2,5 -34.8,9.5 -41.3,-5.3 -8.7,13.1 -48.8,7.6 -55.3,-4.1 -5.2,10.4 -48.2,9.6 -57.3,-3.7 -7.8,11.1 -43,9.4 -54.5,-2.5 z"
           fill="#ee1111"
           stroke="#3366aa"
           stroke-linecap="round"
           stroke-linejoin="round"
           stroke-width="4.3"
           id="path928" />
        <g
           transform="matrix(0.2821,0.0795,-0.0991,0.5313,594,-9.1)"
           id="g930">
          <path
             d="m -302.1,258.3 c 0.8,-13.8 5.6,-20.1 11.3,-20.3 5.6,-0.2 13.3,1.8 13.2,18.6 -4.6,12.3 -6.7,25.8 -13.3,25.1 -3.5,-0.5 -12.3,18.9 -11.2,0.3 -16,0 -19.4,-9.6 -19.4,-13.9 0,-4.6 4.6,-9.6 19.4,-9.8 z"
             fill="#333333"
             stroke="#ee1111"
             stroke-linejoin="round"
             stroke-width="3.5"
             id="path929" />
          <path
             transform="matrix(0.2638,0,0,0.2683,-230,197.8)"
             d="m -198.2,267.5 a 30.7,30.7 0 1 1 -61.4,0 30.7,30.7 0 1 1 61.4,0 z"
             fill="#333333"
             stroke="#ee1111"
             stroke-linecap="round"
             stroke-linejoin="round"
             stroke-width="13"
             id="path930" />
        </g>
        <path
           d="M 503,63.2 C 441.7,62.8 316,62 249.2,63.2 l 3.6,8.8 c 4,-5.3 38.7,-12.5 50,6 10.8,-13.5 38.2,-17.2 60.2,-0.6 7.2,-7.3 44.6,-13.5 63.2,1.1 17.9,-10.4 55.2,-7.3 67.9,6.8 z"
           fill="#3366aa"
           id="path931" />
        <path
           d="m 284.8,151.3 c -6.5,19.3 -3.2,23.9 -2.8,38.6 0.4,15 -13.5,49.5 -15.7,55.7 -2.5,7 7,11.8 19.5,10.1 1.4,-0.2 2.8,-0.4 4.3,-0.8 3.5,2.6 -4,15.4 -3.2,19.6 3.5,0 6,3.8 3.4,8 -3,4.8 1.3,14.7 -4,29.7 l -0.8,2.8 c 2.2,-5.6 -1.3,-11.4 -6.7,-13 -6.8,-2.2 -14,2.4 -16.2,9 a 14.8,14.8 0 0 0 10.5,18.7 c 3,0.8 6.3,0.7 9.4,-0.2 l 5,-1.7 c -4.1,2.5 3.4,8.7 8.5,7.1 3.8,-1 7.6,-2.3 11.5,-4 -4.6,3.2 5.5,7.6 12.8,4.5 10.4,-4.5 22,-13.5 35.7,-29.7 L 334.6,327 c -6.7,3.1 1.8,8.3 9.3,4.5 8.6,-4.5 11.3,-6.1 24.9,-22.3 l -7,10.3 c 7.5,5 27.3,-7.9 40.9,-24 l -0.8,-3 c 4,6.3 4.8,10 11.6,6.2 l -0.9,-3.3 c 2.6,4.3 4.2,6.5 10,3.3 l -0.7,-2 c 2.3,3.5 4,4.9 9.2,2 l -0.2,-0.8 c 2,3 3.9,4.3 8.8,1.7 l -0.2,-0.7 c 2.4,3.5 4.7,4.7 7.9,0.9 l -0.5,-1.8 c 2.7,4.6 5.2,6.4 9.6,2.6 2.1,2.9 4.5,3.8 9.5,1.1 l -0.8,-2.5 c 2.6,3.9 5.2,5.2 10.9,2.1 l -0.2,-0.5 c 2.4,2.6 5.2,3.2 9.8,0.8 2.6,1.7 5.8,1.7 10,-0.5 3.2,2.4 6.8,1 10.3,-2 8.2,2.8 17.6,0 22.3,-7.9 5.1,-8.4 3,-20.2 -5.2,-25.8 -7.2,-4.9 -17.3,-3 -21.8,4.7 l 1.3,-2.6 c -4.3,-9.9 -6.2,-22.5 -7.9,-36 -2.4,-19.5 -4.4,-40.8 -12.8,-58.8 a 775.8,775.8 0 0 1 -15,-1.9 l -7.5,-1 -7.8,-1.2 -7.9,-1.2 -8.8,-1.4 -8.1,-1.4 -7.9,-1.5 -8.9,-1.6 -8.5,-1.6 -8.6,-1.6 -9.4,-1.7 -9.4,-1.5 a 356,356 0 0 0 -89.3,-3.8 z"
           fill="#ffffff"
           id="path932" />
        <path
           d="m 652,364.1 -77.4,-63.5 -69.7,-0.7"
           fill="none"
           stroke="#333333"
           stroke-linejoin="round"
           stroke-width="5.3"
           id="path933" />
        <path
           d="m 466.7,169.5 c 15.2,29 16.7,102.4 28.6,119.8 1.5,2.4 3.5,4.5 5.9,6.1 8.9,6.2 21.3,4 27,-5.4 5,-8.4 3,-20.3 -5.3,-25.8 -7.2,-5 -17.3,-3.1 -21.8,4.6 -3.9,6.7 -2.2,16.1 4.4,20.4 a 11.7,11.7 0 0 0 16.7,-3.9 c 2.7,-5 1.4,-11.9 -3.6,-14.9 -4,-2.3 -9.4,-1.2 -11.5,3.1 -1.6,3.3 -0.6,7.8 2.8,9.4 2.3,1.1 5.4,0.4 6.2,-2.3 0.5,-1.5 -0.1,-3.8 -1.9,-4 -0.6,0 -2,1 -1,1.6 m -185.9,20.5 c -11.6,19.4 -22.2,22 -45.3,29.6 0,0 23,-7.6 0.1,0 -3,0.9 -6.1,1 -9.2,0.2 a 14.8,14.8 0 0 1 -10.5,-18.6 c 2.2,-6.7 9.5,-11.3 16.3,-9.2 5.3,1.7 8.8,7.5 6.7,13 -1.6,4 -6.3,6.9 -10.5,5.2 -2.7,-1.2 -4.6,-4.6 -2.9,-7.4 0.9,-1.5 3.4,-2.8 4.7,-1.2 m 3,8.8 c 17.6,-5.2 24.4,-7.5 35,-24 m 26,7.7 a 75.8,75.8 0 0 1 -44.8,30.9 c -5.4,1.6 -13.4,-5.2 -8,-7.5 m 67.9,-21.7 c -13.6,16.2 -25.3,25.1 -35.7,29.6 -7.7,3.3 -18.5,-1.8 -11.8,-4.9 m 60.3,-21.3 c -13.6,16.2 -16.2,17.9 -25,22.4 -7.3,3.8 -15.9,-1.4 -9.2,-4.5 m -6,-61 c 12.2,3.1 4.2,13.7 -4.4,13.7 -8.6,0.1 -13.9,-9 -30,-11.2 m 37.5,-72.8 c -0.3,-4.1 -7.6,-7.2 -16.6,-8.7 -4.5,-0.7 -14.4,0.2 -16.1,1.3 -1.5,3.4 -3.1,12 -2.5,16.5 m 0,0 a 31,31 0 0 0 12.6,14.8 m -11.2,-46.6 c 5.2,-1.1 35.4,2.4 39.9,10.4 m -40,-10.4 c 7,-4.7 33.6,-0.2 40,10.4 m -52.8,-32.7 c -6.8,19.9 -3.4,24.3 -3,39.2 0.4,14.9 -13.5,49.5 -15.7,55.7 -2.7,7.7 9.4,12.9 23.8,9.3 3.5,2.6 -3.9,15.3 -3.1,19.5 3.4,0.1 6,3.9 3.3,8.1 -3,4.8 1.4,14.6 -4,29.7 M 499.9,281.8 C 488.9,259 489.1,199.1 474.1,170.5 m 28.3,95.7 c -10.6,-24.2 -6.5,-64.5 -20.8,-95 m 24.8,126 c -4.5,4.3 -9.2,5.8 -13.1,0.5 -13.5,-18.1 -23.7,-106.2 -34.5,-130.2 m 36.8,132.3 c -6.8,3.7 -11,1.4 -14.3,-4.5 -10.9,-19 -19.4,-104.7 -30.2,-128.7 M 486,300.1 c -6.9,3.8 -9.8,1.2 -13.1,-4.7 -10.8,-19 -18.8,-106 -29.6,-130 M 476,300.2 c -6.9,3.8 -9.2,1 -12.5,-4.8 -10.8,-19 -18,-107.1 -28.8,-131 m 31.2,136.2 c -6.9,3.8 -8.8,0.5 -12.2,-5.4 -10.8,-19 -16.7,-109.4 -27.4,-133.4 m 30.2,137.6 c -5.2,4.5 -7.6,1.3 -11,-5 -10.4,-19.4 -16.2,-109.5 -27,-133.5 m 21.1,137.5 c -6.9,3.8 -8,-0.2 -11.3,-6 -10.9,-19 -16.4,-110.7 -27.1,-134.6 M 431,297.6 c -6.8,3.8 -7.7,0 -11.6,-6.2 -11.6,-18.4 -16,-111.3 -26.8,-135.2 m 54.7,142.4 c -4.1,4.9 -6.7,1.6 -10,-4.2 C 426.5,275.4 420.6,184 409.9,160 m 12.5,137.6 c -6.8,3.8 -7.6,0 -11.6,-6.2 -11.6,-18.4 -17,-113 -27.7,-137 m 30.3,143.2 c -6.8,3.8 -7.6,0 -11.6,-6.2 -11.6,-18.4 -17.3,-114.7 -28,-138.7 m 28.8,141.6 c -13.6,16.2 -33.4,29 -40.8,24"
           fill="none"
           stroke="#3366aa"
           stroke-linecap="round"
           stroke-linejoin="round"
           stroke-width="4.3"
           id="path934" />
        <path
           d="m 480,148.5 c -1.2,7.6 3.6,13.2 4.4,23 C 398,162 361,143.8 283.4,150.1 c -0.4,-8.9 -1.7,-16.8 -3.3,-24 74.1,-6.6 114.2,12.9 199.8,22.4 z"
           fill="#333333"
           id="path935" />
        <path
           d="m 308.6,281 c -0.3,-6.1 -13.9,-3 -19.5,-6.7 3.4,5.2 5,4.5 19.4,6.7 z"
           fill="#3366aa"
           stroke="#3366aa"
           stroke-width="4.3"
           id="path936" />
        <path
           d="m 305.4,198.8 a 3.3,3.3 0 1 0 6.6,0 3.3,3.3 0 1 0 -6.6,0 z"
           fill="#3366aa"
           stroke-width="0.5"
           id="path937" />
        <path
           d="m 300.4,189.9 a 328,328 0 0 0 33.8,5.2 c -0.1,1.7 -16.2,0.8 -21.3,0 -5.1,-0.6 -12.5,-3.3 -12.5,-5.2 z"
           fill="#3366aa"
           stroke="#3366aa"
           stroke-linecap="round"
           stroke-linejoin="round"
           stroke-width="2.8"
           id="path938" />
        <path
           d="m 329.7,196.5 c -7.7,10.1 -23.2,13.1 -32.5,3.8"
           fill="none"
           stroke="#3366aa"
           stroke-width="2.8"
           id="path939" />
        <path
           d="m 302.3,198.8 a 6.7,6.7 0 1 0 13.3,0 6.7,6.7 0 1 0 -13.3,0 z"
           fill="none"
           stroke="#3366aa"
           stroke-width="2.8"
           id="path940" />
        <path
           d="M 92,419.3 270.3,328.6"
           fill="#eecc55"
           stroke="#333333"
           stroke-linecap="round"
           stroke-linejoin="round"
           stroke-width="5.3"
           id="path941" />
        <path
           id="p27770"
           d="m 338.4,525 a 40.8,40.8 0 0 0 -15.3,19.9 40.8,40.8 0 0 0 -15.2,-20 40.8,40.8 0 0 0 15.2,-20 40.8,40.8 0 0 0 15.3,20 z"
           fill="#ee1111" />
        <path
           d="m 316,433 c 44.2,-14.4 86.7,-41 112,-72.5 h 62.2 a 971,971 0 0 0 -33.8,94.7 H 315 l 1.1,-22.3 z m 335.7,192 -101.5,52 c 11.2,-55.3 49.5,-92 101.9,-104.2 z"
           fill="#ee1111"
           stroke="#333333"
           stroke-linejoin="round"
           stroke-width="4.3"
           id="path942" />
        <path
           d="M 513.5,583.2 C 551,533.6 601.2,502 650.6,494 l -0.7,28.6 c -55.4,8 -109.4,52.5 -135.3,104.6 -0.7,-12.3 -2,-21 -1.1,-44.1 z"
           fill="#eecc55"
           stroke="#333333"
           stroke-linecap="round"
           stroke-linejoin="round"
           stroke-width="5.3"
           id="path943" />
        <path
           d="m 649.9,522.8 c -55.4,8 -110.6,55.4 -136.5,107.5 1.7,18.1 3.7,33.7 13.5,59.4 l 23.3,-12.6 c 11.2,-55.3 47.4,-91.3 99.8,-103.4 z"
           fill="#3366aa"
           id="path944" />
        <path
           d="m 650.9,537.7 c -5.6,3.8 -8,9.5 1.2,12.4 M 542,650.4 l -5,-5.2 c 0.7,-7.8 -7.1,-6.8 -12,-2 0,6.7 4.3,13 9.7,7.2 h 7.3 v 0 m 19.4,-32.7 -3.6,-6.2 c 2.6,-7.5 -5.3,-8.3 -11.1,-4.8 -1.7,6.5 1,13.7 7.6,9.3 l 7.1,1.7 v 0 m 26.3,-27.9 -2.3,-6.9 c 4.1,-6.7 -3.4,-9.1 -9.7,-7 -3,6 -2,13.6 5.4,10.7 l 6.6,3.2 v 0 m 31.4,-21.6 -0.7,-7.2 c 5.6,-5.6 -1.1,-9.7 -7.8,-9 -4.3,5.1 -4.8,13 3,11.6 l 5.5,4.6 v 0 m -89.6,110 9.6,-9 -0.8,-14.2 c -10.8,12.7 -20.6,-0.8 -20.5,-15 10.1,-9.9 26.8,-12 25.1,4.4 l 10.9,-8.8 2.9,-14.2 c -13.6,9.7 -19.8,-5.7 -16.3,-19.5 12.2,-7.2 28.8,-5.5 23.3,10.2 l 12.7,-6.3 5.8,-13.3 c -15.2,6.5 -18,-9.9 -11.7,-22.6 13.5,-4.4 29.3,0.7 20.6,15 l 14,-4 8.2,-11.4 c -16.4,3 -15.5,-13.7 -6.4,-24.6 14.1,-1.2 28.4,7.5 16.6,19.2 h 13.9 l 11,-8.8 c -16.4,-1.6 -11,-17.4 0.9,-25.3 l 2.7,1.3"
           fill="none"
           stroke="#ffffff"
           stroke-linecap="round"
           stroke-linejoin="round"
           stroke-width="4.3"
           id="path945" />
        <path
           d="m 513.5,592.6 c 2.1,-2.8 13.2,1.2 15.4,-1.5 2.2,-2.7 -4.3,-12.7 -2,-15.4 2.3,-2.7 13,2.2 15.5,-0.4 2.5,-2.6 -3.1,-13 -0.6,-15.5 2.5,-2.5 12.8,3.4 15.5,1 2.6,-2.3 -2,-13.2 0.9,-15.4 2.7,-2.2 12.4,4.6 15.2,2.5 2.8,-2.1 -0.5,-13.3 2.5,-15.2 3,-2 11.9,5.8 15,4 3,-1.7 0.8,-13.3 4,-14.9 3.1,-1.6 11,7 14.3,5.7 3.3,-1.3 2.3,-13.3 5.6,-14.6 3.3,-1.3 10.5,8.2 13.8,7 3.3,-1.2 3.4,-13 6.8,-13.9 3.4,-0.9 9.8,9 13.2,8.1"
           fill="none"
           stroke="#333333"
           stroke-width="4.3"
           id="path946" />
        <path
           d="m 538.6,431.4 c 29.7,35.6 34.5,54.7 34,90.3 a 189,189 0 0 0 -58.5,53.1 1024,1024 0 0 1 24.5,-143.4 z"
           fill="#3366aa"
           id="path947" />
        <path
           d="m 544.5,459.1 a 1004.7,1004.7 0 0 0 -14,79 200,200 0 0 1 30.2,-23.2 97.4,97.4 0 0 0 -16.1,-56.2 z"
           fill="#3366aa"
           stroke="#ffffff"
           stroke-linejoin="round"
           stroke-width="5.3"
           id="path948" />
        <path
           d="m 602,492.4 c 3.2,10 16.8,6 11.7,-3.7 -2.5,-4.7 -3.4,-0.3 -5.6,1.7 -2.5,2.2 -4.7,-6.6 -4.7,-14.4 -2.7,5.2 -3.5,10 -1.5,16.4 m 8.9,-8.2 c -8.4,2.2 -5,-4.9 -2.2,-10.4 5.4,-10.8 -7,-28.4 -14.9,-30.5 10.8,-1.1 15.2,-9 14.2,-1.8 7.6,-0.3 0.4,5.8 -4,3.5 10.1,11.8 28.3,27.8 6.9,39.2 m -28.2,-38.9 c -5.6,3 -1.4,8.7 4,5 2.6,-1.7 0.3,-1.9 -1,-2.8 -1.4,-1 3.6,-3 8.1,-3.7 -3,-1 -7.5,-0.3 -11,1.5 m 20.8,19.5 c 1,5.5 -8.6,9.7 -11.2,-0.6 -0.9,-3.3 1.3,-4.4 4.3,-4 3.3,0.5 -3.8,-9 -3.8,-17.7 a 56.7,56.7 0 0 1 10.7,22.3 M 598,423.6 c -0.7,-7.9 -11.4,-4.4 -9.4,3.3 1,3.8 1.8,1.7 3.6,0.3 2,-1.5 2.8,10.3 1.8,16.2 a 42.7,42.7 0 0 0 4,-19.8 m -28,-3.5 c 8.2,6.7 -4,-25.2 7.3,-21.2 7.2,2.5 2.7,10.2 -0.3,13.6 -4,4.6 11,26 18.2,29.3 -10.5,-2.1 -20.2,-3.1 -25.4,-7.3 -2.1,-2.8 1.6,-5.6 5.2,-3 -1.4,-1.4 -6.3,-12.4 -5,-11.4 m -7.7,-19.4 c -4.4,-6.3 -12.2,1.7 -6.8,7.4 2.6,2.8 2.7,1.1 3.7,-1 1.1,-2.2 7.7,8.3 9.4,13.9 0.7,-4.4 -3.5,-16.3 -6.3,-20.3"
           fill="#eecc55"
           id="path949" />
        <g
           transform="translate(1,-0.5)"
           id="g951">
          <path
             d="m 588.7,437.4 c -2.5,-0.8 -4,-0.4 -4.4,0.6 -0.5,1 -0.5,2.7 2.4,4 -1.4,2.7 -0.1,3.6 0.6,3.9 0.8,0.2 2.2,0.6 3.4,-2.7 3.5,2 4.1,0.3 4.4,-0.4 0.4,-0.7 1,-2.3 -2.3,-3.5 1.4,-2.8 0,-4.3 -0.8,-4.6 -0.8,-0.4 -2,0.1 -3.3,2.7 v 0"
             fill="#eecc55"
             stroke="#333333"
             stroke-linecap="round"
             stroke-linejoin="round"
             id="path950" />
          <path
             d="m 588,441.1 c 0.2,0.7 0.8,1 1.5,1.1 0.7,0 1.4,-0.3 1.9,-0.8 0.4,-0.6 0.5,-1.3 0.3,-2 a 1.8,1.8 0 0 0 -1.6,-1 c -0.8,0 -1.4,0.3 -1.9,0.8 a 1.9,1.9 0 0 0 -0.3,2"
             id="path951" />
        </g>
        <g
           transform="translate(0,-1.3)"
           id="g957">
          <g
             id="g953">
            <path
               d="m 620,113 32.3,-35.2 v 284 l -32.4,-26 z"
               fill="#eecc55"
               stroke="#3366aa"
               stroke-width="4.3"
               id="path952" />
            <path
               d="M 629.7,120 651.9,94.5 V 363 l -22.2,-20 z"
               fill="#ee1111"
               stroke="#3366aa"
               stroke-width="4.3"
               id="path953" />
          </g>
          <g
             id="g956">
            <path
               d="m 549.9,100.1 c -18.2,28.5 -16.4,69.2 -3.1,117 16.4,-19.7 47,-31 73.2,-44.9 v -24.6 c -45.8,-21.2 -61.1,-35 -70.1,-47.5 z"
               fill="#ffffff"
               stroke="#333333"
               stroke-linejoin="round"
               stroke-width="4.3"
               id="path954" />
            <path
               d="m 543.6,158.3 c 9.6,-3.4 12,-7.1 19.5,-14 16.1,6.9 39.8,10.6 56.6,14 -16.8,3 -40.5,6.2 -56.6,13.3 a 40.6,40.6 0 0 0 -19.5,-13.3 z"
               fill="none"
               stroke="#333333"
               stroke-linecap="round"
               stroke-linejoin="round"
               stroke-width="4.3"
               id="path955" />
            <path
               d="m 563.5,171.4 a 79,79 0 0 1 -12.3,40 c -10.6,-45.4 -11.6,-85.4 2.6,-106 6,12.8 8.5,25.6 9.7,38.4"
               fill="none"
               stroke="#333333"
               stroke-linecap="round"
               stroke-linejoin="round"
               stroke-width="4.3"
               id="path956" />
          </g>
        </g>
        <use
           transform="translate(32.6)"
           width="744.09998"
           height="1052.4"
           xlink:href="#p27770"
           id="use957" />
        <use
           transform="matrix(1.2022194,-0.22064855,0.22064855,1.2022194,-237.38773,-182.25199)"
           width="744.09998"
           height="1052.4"
           xlink:href="#p27770"
           id="use958" />
        <use
           transform="matrix(1.020644,0.01068855,-0.01068855,1.020644,-55.111854,-114.50745)"
           width="744.09998"
           height="1052.4"
           xlink:href="#p27770"
           id="use959" />
        <use
           transform="matrix(0.87833555,0.08766954,-0.08766954,0.87833555,32.341897,-14.858125)"
           width="744.09998"
           height="1052.4"
           xlink:href="#p27770"
           id="use960" />
        <use
           transform="matrix(0.76654492,0.12140879,-0.12140879,0.76654492,81.626693,72.234527)"
           width="744.09998"
           height="1052.4"
           xlink:href="#p27770"
           id="use961" />
        <use
           transform="matrix(0.6816,0.0969,-0.0969,0.6816,90.3,160.4)"
           width="744.09998"
           height="1052.4"
           xlink:href="#p27770"
           id="use962" />
        <use
           transform="matrix(0.44528861,0.09871811,-0.09871811,0.44528861,161.20732,314.42644)"
           width="744.09998"
           height="1052.4"
           xlink:href="#p27770"
           id="use963" />
        <use
           transform="translate(57.4,3.5)"
           width="744.09998"
           height="1052.4"
           xlink:href="#g41092"
           id="use964" />
        <use
           transform="translate(112.7,7.4)"
           width="744.09998"
           height="1052.4"
           xlink:href="#g41092"
           id="use965" />
      </g>
      <use
         transform="rotate(180,295.1,2024.2)"
         width="744.09998"
         height="1052.4"
         xlink:href="#g9935"
         id="use966" />
    </g>
    <use
       transform="translate(1620)"
       xlink:href="#u41566"
       id="use967" />
    <use
       transform="translate(1620.1)"
       xlink:href="#u41568"
       id="use968" />
    <use
       transform="translate(405.3,315)"
       xlink:href="#frame"
       id="use969" />
    <use
       transform="translate(405.3)"
       xlink:href="#u19056"
       id="use970" />
    <use
       transform="translate(405.3)"
       xlink:href="#u19268"
       id="use971" />
    <use
       transform="translate(2430,730)"
       style="stroke:#ee1111"
       xlink:href="#K"
       id="use972" />
    <use
       transform="rotate(180,1316.3,107.5)"
       style="stroke:#ee1111"
       xlink:href="#K"
       id="use973" />
  </g>
  <g
     id="club_1"
     transform="translate(-2430,-315)">
    <rect
       id="card"
       x="0.69999999"
       y="0.69999999"
       width="201.10001"
       height="313.60001"
       rx="9"
       ry="9"
       fill="#ffffff"
       stroke="#333333"
       stroke-width="1.4" />
  </g>
</svg>
