<?xml version="1.0" encoding="UTF-8" standalone="no"?>
<svg
   width="202.5"
   height="315"
   version="1.1"
   id="svg1018"
   xmlns:xlink="http://www.w3.org/1999/xlink"
   xmlns="http://www.w3.org/2000/svg"
   xmlns:svg="http://www.w3.org/2000/svg">
  <defs
     id="defs1018" />
  <path
     id="K"
     d="m 10.499902,-1017.7 13.9,-16.4 m -14.3999997,-0.2 v 25.7 m 5.2999997,-14.3 9,14.4 M 7.9999023,-1035 h 3.8999997 m -3.8999997,27.4 h 3.8999997 m 10,-27.4 h 3.9 m -3.8,27.4 h 3.8"
     stroke-linecap="square"
     stroke-width="3.5" />
  <g
     id="club_jack"
     transform="translate(-2430.1001,-945)">
    <path
       id="frame"
       d="M 2194.1,281.3 H 2058 V 33.6 h 136.1 z"
       fill="none"
       stroke="#3366aa"
       stroke-linejoin="round"
       stroke-width="2.4" />
  </g>
  <g
     id="spade_1"
     transform="translate(-2430.1001,-945)">
    <g
       id="g272">
      <use
         id="u42787"
         transform="rotate(180,101.3,1102.5)"
         xlink:href="#p37946" />
      <use
         id="p37946"
         transform="matrix(0.46108,0,0,0.46108,-216.4,495.2)"
         xlink:href="#spade" />
    </g>
  </g>
  <g
     id="spade_3"
     transform="translate(-2430.1001,-945)">
    <path
       id="spade"
       d="m 506.25,1075.5 c -9,17 -21.75,20.1 -21.75,31.6 0,6.1 4.4,11.3 10.6,11.3 3.7,0.06 7.1,-1.85 9,-5 0,8 -3.2,12.3 -6.3,16 h 16.8 c -3.1,-3.7 -6.4,-8 -6.2,-16 1.9,3.2 5.35,5 9,5 6.2,0 10.5,-5.3 10.6,-11.4 0,-11.4 -12.75,-14.5 -21.75,-31.5 z"
       fill="#333333" />
  </g>
  <g
     id="spade_5"
     transform="translate(-2430.1001,-945)">
    <use
       id="u42831"
       transform="translate(810)"
       xlink:href="#p37946" />
    <use
       id="u42833"
       transform="translate(810)"
       xlink:href="#u42787" />
  </g>
  <g
     id="spade_jack"
     transform="translate(-2430.1001,-945)">
    <use
       id="u24387"
       transform="matrix(0.9015,0,0,0.9015,1624.6,11.9)"
       xlink:href="#spade" />
    <use
       id="u24552"
       transform="rotate(180,2126,1102.6)"
       xlink:href="#u24387" />
  </g>
  <g
     id="spade_king"
     transform="translate(-2430.1001,-945)">
    <use
       transform="rotate(180,1316.3,630)"
       xlink:href="#card"
       id="use429" />
    <g
       transform="matrix(0.2456,0,0,0.2665,2249.2,536.5)"
       id="g468">
      <g
         transform="matrix(1,0,0,0.9985,777,1598.1)"
         id="g430">
        <path
           d="m 304.6,274 c -26,-0.1 -47.5,1 -59.2,4.2 -46.7,12.7 -112.6,47.4 -153.7,103 l 0.7,201.3 41.3,131 c 25.2,18.4 44,30.9 75.8,42.2 10.5,3.8 39.9,8.4 76,12.4 l 1.8,0.2 2.3,0.2 c 73.3,8.3 177.3,14.2 209,5.6 46.8,-12.7 112.6,-47.3 153.8,-103 l -0.7,-201.3 -41.3,-131 c -25.2,-18.3 -44,-30.9 -75.8,-42.2 -10.5,-3.8 -39.9,-8.3 -76.1,-12.3 l -1.7,-0.2 -2.3,-0.3 c -46.4,-5.2 -105,-9.5 -149.9,-9.8 z"
           fill="#333333"
           id="path429" />
        <path
           d="m 315.6,501.7 h 113 v 49 h -113 z"
           fill="#ee1111"
           stroke="#eecc55"
           stroke-linecap="round"
           stroke-linejoin="round"
           stroke-width="7"
           id="path430" />
      </g>
      <g
         id="g42617"
         transform="matrix(1,0,0,0.9985,-819.2,1599.3)">
        <path
           d="m 2147.3,748.2 a 387,387 0 0 1 -64.3,-115 c -14.7,-42 -21.7,-86 -17.7,-127.1 2.6,-24.8 6.1,-41.9 12.9,-66.1 l 73,24.4 30.4,9.2 c -24.2,91.7 39.2,166.8 65,172.4 l -1,24 a 286,286 0 0 1 -98.3,78.2 z M 2084.6,423 c 22.7,-56 34,-72.7 72.4,-112.7 15.3,8.1 25.8,13.4 38.5,23.2 l 1.4,125 -71.2,-22.2 z"
           fill="#ee1111"
           stroke="#333333"
           stroke-linecap="round"
           stroke-linejoin="round"
           stroke-width="3.9"
           id="path431" />
        <path
           d="m 2121,753.8 3.1,-2.1 v -0.2 c -1.8,-0.9 -4,-3.3 -6.6,-7.1 l -0.2,-0.4 c 2.2,1.8 5,2.3 7.6,0.6 3,-2 3.4,-6 1.5,-9 -2.9,-4.7 -11.1,-4 -20.8,-9.5 0.2,11.1 -3.7,18.4 -0.7,23 2,3 6.2,4.6 9.3,2.6 2.5,-1.7 3.1,-4.4 2.3,-7.3 l 0.3,0.4 c 2.6,3.9 4,6.9 4,9 h 0.2 v 0 m -21.6,-34.6 3.3,-1.9 v -0.1 c -1.8,-1 -3.9,-3.5 -6,-7.7 l -0.3,-0.4 c 2.1,2 4.9,2.7 7.5,1.2 3.2,-1.8 4,-5.7 2.4,-8.9 -2.6,-4.9 -10.8,-4.9 -20,-11.1 -0.6,11 -5.1,18.1 -2.6,23 1.7,3.1 5.9,5 9,3.3 2.7,-1.5 3.5,-4.2 3,-7 l 0.2,0.3 c 2.2,4.1 3.4,7.2 3.3,9.2 l 0.2,0.1 v 0 m -18.6,-36.3 3.4,-1.6 v -0.1 a 19.4,19.4 0 0 1 -5.3,-8.2 l -0.2,-0.4 c 2,2.2 4.6,3 7.4,1.9 3.3,-1.5 4.4,-5.5 3,-8.8 -2,-5 -10.2,-5.7 -18.7,-12.8 -1.8,11 -6.8,17.8 -4.7,22.8 1.5,3.3 5.3,5.5 8.6,4 2.8,-1.2 3.9,-3.9 3.6,-6.8 l 0.2,0.5 a 21,21 0 0 1 2.5,9.5 h 0.2 v 0 m -15.2,-37.9 3.6,-1.2 v -0.2 c -1.6,-1.3 -3,-4.2 -4.5,-8.6 v -0.5 c 1.6,2.4 4.2,3.6 7,2.6 3.5,-1.1 5,-5 4,-8.4 -1.6,-5.2 -9.6,-6.6 -17.3,-14.6 -3,10.7 -8.7,17 -7,22.2 1,3.4 4.7,6 8.1,4.9 2.9,-1 4.2,-3.5 4.3,-6.4 l 0.1,0.4 a 22,22 0 0 1 1.5,9.8 h 0.2 v 0 m -11.2,-39.2 3.7,-1 v 0 a 22,22 0 0 1 -3.4,-9.1 l -0.1,-0.5 c 1.4,2.6 3.8,4 6.8,3.4 3.5,-0.8 5.5,-4.4 4.9,-8 -1,-5.3 -8.9,-7.5 -15.6,-16.4 -4.2,10.3 -10.5,16 -9.5,21.3 0.8,3.5 4,6.5 7.6,5.7 3,-0.6 4.6,-3 5,-5.8 v 0.4 c 1,4.6 1.1,7.9 0.5,9.9 h 0.1 v 0 m -6.6,-40.3 3.8,-0.4 v -0.1 c -1.2,-1.7 -2,-4.8 -2.4,-9.4 V 555 c 1,2.7 3.3,4.4 6.4,4.2 3.6,-0.4 6,-3.7 5.8,-7.2 -0.4,-5.5 -8,-8.6 -13.5,-18.4 -5.5,9.7 -12.4,14.5 -12,20 0.3,3.6 3.2,7 6.8,6.7 3,-0.3 5,-2.4 5.6,-5.3 v 0.5 c 0.4,4.7 0.2,8 -0.6,9.8 v 0.1 m -1.6,-40.8 h 3.9 c -1,-1.8 -1.4,-5 -1.2,-9.7 v -0.5 c 0.8,2.8 2.8,4.9 5.8,5 3.6,0.2 6.3,-2.7 6.6,-6.3 0.4,-5.5 -6.6,-9.7 -11,-20 -6.6,9 -14,12.7 -14.4,18.2 -0.2,3.5 2.3,7.3 6,7.5 3,0.1 5.1,-1.7 6.1,-4.4 v 0.5 c -0.2,4.6 -0.8,7.8 -1.9,9.6 h 0.1 v 0 m 3.5,-40.6 3.7,0.5 h 0.2 c -0.8,-2 -1,-5.2 0,-9.8 l 0.1,-0.5 c 0.4,3 2.1,5.2 5.1,5.7 3.6,0.6 6.7,-2 7.4,-5.5 1,-5.4 -5.3,-10.4 -8.4,-21.1 -7.6,8 -15.6,10.9 -16.6,16.2 -0.7,3.6 1.3,7.6 5,8.2 2.9,0.5 5.2,-1 6.6,-3.6 v 0.4 c -1,4.6 -1.9,7.7 -3.2,9.4 l 0.1,0.1 v 0 m 8.6,-40 3.7,1 h 0.1 c -0.5,-2 -0.2,-5.3 1.2,-9.7 l 0.2,-0.4 c 0,2.9 1.5,5.3 4.4,6.2 3.5,1 6.9,-1.2 8,-4.6 1.7,-5.2 -4,-11 -5.7,-22 -8.6,7.2 -16.9,9 -18.6,14.2 -1,3.4 0.5,7.7 4,8.7 2.8,0.9 5.4,-0.4 7,-2.8 v 0.5 a 23,23 0 0 1 -4.4,8.8 l 0.1,0.2 v 0 m 13.5,-38.6 3.5,1.4 h 0.1 a 19,19 0 0 1 2.3,-9.5 l 0.3,-0.4 c -0.4,2.9 0.8,5.5 3.6,6.7 3.3,1.4 7,-0.4 8.5,-3.6 2.3,-5 -2.8,-11.4 -3.2,-22.6 -9.3,6 -17.7,7 -20,12 -1.4,3.2 -0.4,7.6 2.9,9 2.8,1.2 5.4,0.2 7.4,-2 l -0.2,0.5 a 23,23 0 0 1 -5.3,8.3 v 0.2 m 17.8,-36.8 3.3,1.8 h 0.2 c -0.1,-2.1 1,-5.2 3.3,-9.2 l 0.3,-0.4 c -0.6,2.8 0.2,5.5 2.8,7 3.1,1.9 7.1,0.3 9,-2.8 2.7,-4.7 -1.6,-11.5 -1,-22.7 -9.9,5.2 -18.4,5.2 -21.1,10 -1.8,3 -1.2,7.3 2,9.1 2.6,1.5 5.3,0.9 7.5,-1 l -0.2,0.4 c -2.3,4 -4.4,6.6 -6.2,7.6 v 0.2 m 21.4,-34.8 3.2,2 h 0.1 c 0.1,-2 1.6,-5 4.2,-8.7 l 0.3,-0.4 c -0.8,2.8 -0.3,5.5 2.2,7.3 3,2 6.9,1 9,-1.8 3.3,-4.5 -0.3,-11.9 1.3,-23 -10.3,4.4 -18.6,3.4 -21.8,7.9 -2.1,2.9 -2,7.4 1,9.5 2.5,1.7 5.3,1.3 7.6,-0.4 l -0.3,0.4 c -2.6,3.8 -5,6.1 -6.8,7 v 0.2"
           fill="#ffffff"
           stroke="#ffffff"
           stroke-linecap="round"
           stroke-linejoin="round"
           stroke-width="1.8"
           id="path432" />
        <path
           d="m 1958.9,353.5 c 0.8,-13.7 5.6,-20.1 11.3,-20.3 5.7,-0.2 14.6,4 14.4,20.9 15.8,-0.6 18,8.2 17.5,12.1 -0.6,4.5 -1.9,11.4 -20,9.9 1.8,21.2 -8,19.8 -12,19.7 -3.8,-0.1 -12.2,0 -11.2,-18.5 -16,0 -19.4,-9.7 -19.4,-14 0,-4.5 4.6,-9.6 19.4,-9.8 z m 37.4,49.8 c 1.5,19 -21.5,21.1 -20.4,1.4 0.5,-9.6 5,-2.8 9.7,-0.9 5.3,2.3 2.8,-15 -2.6,-28 a 37.7,37.7 0 0 1 13.3,27.5 z m -50.5,13.4 c 1.6,10.4 15.7,36.5 34,14.5 9.1,-11.1 -0.6,-11.5 -8,-10.4 -14.5,2 -19.2,-29.8 -13.7,-42.8 -10.8,15.2 -17.4,10.7 -19.8,22.7 0.1,6.4 7.6,5.4 9.7,-2.5 -0.5,3.7 -2.6,15.5 -2.2,18.5 z M 2006,337 c 13.3,-4.2 16,14 2,16.4 -7,1.2 -3.9,-3.4 -3.3,-7.1 0.8,-4.2 -10.2,0.6 -18.5,6.7 a 35.2,35.2 0 0 1 19.8,-16 z m -67.5,-11 c -15.6,-11 -29.2,7.8 -11.8,17 8.5,4.5 5.6,-2.8 6.3,-7.8 0.8,-5.7 15,6.9 23.3,18.3 A 43,43 0 0 0 1938.5,326 Z m 5,-9.3 c -2,-13.8 16.3,-13.5 16.4,0.9 0,7 -2.1,4 -5.7,2.8 -4,-1.4 0.3,20.4 5,29.6 -6,-4.5 -14.5,-24.5 -15.7,-33.3 z"
           fill="#eecc55"
           stroke="#333333"
           stroke-linecap="round"
           stroke-linejoin="round"
           stroke-width="2"
           id="path433" />
        <path
           d="m 1943.3,480.7 h -34 c -1.8,-25.3 -19.9,-115 -79.5,-195.8 19.4,-7.4 36.8,-7.1 58.6,-7.7 43.4,95 54.2,157 54.9,203.5 z m 49.9,0.5 h 35.7 c 2.4,-38.7 15.5,-113.4 92.2,-188.1 l -63,-10.6 c -66.3,109.7 -64,162 -65,198.7 z"
           fill="#ee1111"
           stroke="#eecc55"
           stroke-linecap="round"
           stroke-linejoin="round"
           stroke-width="7"
           id="path434" />
        <path
           d="m 1872.7,257.2 -1.7,-2.3 a 687.5,687.5 0 0 0 6.3,-29.9 c 5.2,-26.3 9.9,-52.9 16.6,-78.6 l 6.9,-1.6 6.9,-1.4 a 354.9,354.9 0 0 1 14.4,-2.4 c 2.5,-0.4 -7.4,1.1 0,0 a 572.8,572.8 0 0 1 23.8,-3 666.6,666.6 0 0 1 15.6,-1.6 l 7.2,-0.6 7,-0.5 c 42.6,-2.8 87.6,-2 113.3,5 l 0.4,-0.8 c 0.2,35.9 12.6,77.3 1.6,112 0,0 -3,7.6 -3.6,14.4 -0.7,7.2 -1.8,15.4 0.6,22 1.6,4.4 3.7,-5.6 3.7,-5.6 4,-8.2 14.6,-10.6 22.8,-6 a 19.9,19.9 0 0 1 8.2,26 19.7,19.7 0 0 1 -22,9.4 l 0.4,0.4 c -3.7,5.1 -8,5.7 -12.1,3.7 -7.3,9.2 -12,3.9 -14.9,1 l 2.5,2.9 c -3.7,7 -11,6.3 -16.2,1.7 -3.2,9.8 -12.3,14.9 -19,2.1 -5.8,-10.9 -5.8,-5.9 -7.7,-20.4 l 0.2,-1.7 c -7,17.7 -9.4,28.6 -19.2,30.3 -3,0.5 -15.6,-1.2 -13.4,-10.4 l 3.6,-5.1 c -7.7,12 -15.3,11.7 -17,1.3 l -0.2,0.1 c -3.6,2 -9.3,5.5 -13.1,-5.3 -4.3,0.6 -7.9,-1.1 -9.7,-7.1 l 0.5,-0.2 a 18.7,18.7 0 0 1 -16.8,-15.5 20,20 0 0 1 5.1,-16.5 c -1.3,1.5 -3.2,1.8 -7,0.5 l 0.3,-1.2 c -1.4,3.6 -3.1,5.3 -8.5,3.5 l 0.2,-1 c -1.9,4 -3.9,5.7 -7.8,2.5 l 0.8,-3.5 c -2.1,6 -4.2,9.1 -9.6,5.9 -1.7,3.2 -4,4.5 -9.2,2.7 l 1,-4.2 c -2,5.4 -4.2,7.9 -11,5.5 l 0.2,-0.7 c -2,3 -4.6,4.2 -9.7,2.6 -2.3,2.1 -5.3,2.7 -9.8,1.2 -2.8,2.9 -6.6,2.2 -10.6,-0.3 a 18.5,18.5 0 0 1 -23.3,-3.8 19.6,19.6 0 0 1 0.7,-26.4 c 6.3,-6 16.5,-6 22.3,1 z"
           fill="#ffffff"
           id="path435" />
        <path
           d="m 2065.3,506 c 65.3,25.9 154,136.5 82,242.2 -54,-66.2 -90,-159.8 -82,-242.1 z"
           fill="#3366aa"
           stroke="#333333"
           stroke-linecap="round"
           stroke-linejoin="round"
           stroke-width="3.5"
           id="path436" />
        <path
           d="m 1867.5,59 253,-0.4 c -5.7,17 -26.2,37.3 -30.7,80.7 -45.3,-12.2 -150.2,-5.3 -196.6,6.5 6,-44 -11.4,-63.3 -25.7,-86.8 z"
           fill="#eecc55"
           stroke="#333333"
           stroke-linecap="round"
           stroke-linejoin="round"
           stroke-width="3.9"
           id="path437" />
        <path
           d="m 2055.3,260.9 a 104,104 0 0 0 -29.3,0.6 c 0.3,-6.2 9,-2.3 14.6,-6 5.8,3.3 14.6,1.2 14.7,5.4 z"
           fill="#3366aa"
           stroke="#3366aa"
           stroke-linejoin="round"
           stroke-width="3.9"
           id="path438" />
        <path
           d="m 2015.3,182 a 3.4,3.3 0 1 1 -6.8,0 3.4,3.3 0 1 1 6.8,0 z"
           fill="#3366aa"
           stroke-width="0.6"
           id="path439" />
        <path
           d="m 1989.7,180.4 c 7.3,9.9 22.3,12 37,3.1"
           fill="none"
           stroke="#3366aa"
           stroke-width="2.8"
           id="path440" />
        <path
           d="m 2018.6,182 a 6.75,6.6492537 0 1 1 -13.5,0 6.75,6.6492537 0 1 1 13.5,0 z"
           fill="none"
           stroke="#3366aa"
           stroke-linejoin="round"
           stroke-width="2.3"
           id="path441" />
        <path
           d="m 2068,181.8 a 3,3 0 1 0 6,0 3,3 0 1 0 -6,0 z"
           fill="#3366aa"
           stroke-width="0.5"
           id="path442" />
        <path
           d="m 2023.3,172.8 a 367,367 0 0 1 -38.5,6 c 0.2,2 17.7,0.9 23.8,0 6.1,-0.9 14.7,-3.8 14.7,-6 z m 34.5,-0.1 a 300,300 0 0 0 32.5,5.2 c 0,1.7 -15,0.8 -20,0 -5,-0.8 -12.5,-3.3 -12.5,-5.2 z"
           fill="#3366aa"
           stroke="#3366aa"
           stroke-width="2.8"
           id="path443" />
        <path
           d="m 2086.3,179.7 c -6.5,10 -19.2,11.7 -31.3,2.6"
           fill="none"
           stroke="#3366aa"
           stroke-width="2.8"
           id="path444" />
        <path
           d="m 2065.1,181.9 a 5.8,5.8 0 1 0 11.5,0 5.8,5.8 0 1 0 -11.5,0 z"
           fill="none"
           stroke="#3366aa"
           stroke-linejoin="round"
           stroke-width="2.4"
           id="path445" />
        <path
           d="m 1845.6,277.4 c -46.7,12.7 -112.5,47.4 -153.7,103 M 2127,295 c 31.8,11.4 50.6,23.9 75.8,42.3"
           fill="none"
           stroke="#333333"
           stroke-width="2.8"
           id="path446" />
        <path
           d="m 2197.3,127 20.7,-25.4 21.6,25.3 0.5,346.5 -41.4,-15.8 z"
           fill="#ffffff"
           stroke="#333333"
           stroke-linejoin="round"
           stroke-width="4"
           id="path447" />
        <path
           d="m 2218.8,140.6 c -0.4,17.7 2.9,38.3 2.5,62.7 -0.3,24.4 -2.7,44.5 -3,71.2 -0.3,26.7 1.3,60.8 1.1,85.4 -0.1,24.5 -4.7,75 0.3,104.5"
           fill="none"
           stroke="#333333"
           stroke-linecap="round"
           stroke-width="4"
           id="path448" />
        <path
           transform="matrix(0.2638,0,0,0.2683,2031.1,293)"
           d="m -198.2,267.5 a 30.7,30.7 0 1 1 -61.4,0 30.7,30.7 0 1 1 61.4,0 z"
           fill="#eecc55"
           stroke="#333333"
           stroke-linecap="round"
           stroke-linejoin="round"
           stroke-width="14.7"
           id="path449" />
        <path
           d="m 2122.3,609.4 c 2.4,-1 28.8,-12.3 34.5,0.5 5.8,13 -21.7,23.4 -23.4,24 -1.1,0.3 -2,0.2 -2.3,-0.4 -0.3,-0.6 0.4,-1.3 1.3,-2 1.8,-1 22.3,-9.3 18.5,-19 -4,-9.9 -24.4,-2 -27.3,-1 -1.3,0.6 -1.8,0.3 -2.2,-0.3 -0.3,-0.5 0,-1.4 0.9,-1.8 z m -14.8,-28 c 2,-1.2 26.9,-15.3 33.7,-4 7,11.5 -19,24.8 -20.5,25.5 -1,0.5 -1.8,0.5 -2.1,0 -0.3,-0.5 0.2,-1.3 1,-2 1.4,-1.2 21.3,-12 16.6,-20.6 -4.9,-8.7 -24.7,1.7 -27.3,3 -1.2,0.6 -1.7,0.4 -2,0 -0.4,-0.5 -0.3,-1.4 0.6,-1.9 z M 2089,560.1 c 1.7,-1.6 21.3,-20.1 30.1,-11.3 9,9 -11.8,27 -13,28 -0.8,0.7 -1.6,0.9 -2,0.5 -0.4,-0.4 -0.1,-1.2 0.4,-2 1.1,-1.5 17,-15.9 10.7,-22.7 -6.5,-7 -22.3,7.1 -24.4,8.9 -1,0.8 -1.5,0.7 -1.9,0.4 -0.4,-0.3 -0.5,-1.1 0.1,-1.8 z m -19.8,-18.4 c 1.2,-1.5 15.5,-18.7 23.6,-12.4 8.3,6.4 -6.9,23.5 -7.8,24.4 -0.6,0.7 -1.2,0.9 -1.6,0.6 -0.3,-0.3 -0.2,-1 0.2,-1.7 0.7,-1.3 12.2,-14.8 6.3,-19.7 -6,-5 -17.6,8.1 -19,9.8 -0.8,0.8 -1.2,0.8 -1.6,0.5 -0.4,-0.2 -0.5,-0.8 0,-1.5 z m 66.7,96.7 c 2.5,-0.3 30.8,-3.6 32.7,9.4 2,13.3 -27,15.5 -28.7,15.6 -1.2,0 -2,-0.3 -2,-0.9 0,-0.6 0.6,-1.1 1.6,-1.4 1.9,-0.6 24.4,-2.8 23.3,-12.5 -1,-10 -23.4,-8 -26.3,-7.9 -1.3,0.1 -1.7,-0.2 -1.8,-0.8 -0.1,-0.6 0.3,-1.3 1.2,-1.4 z m 1.9,28 c 2.5,0.1 31,1.5 30.7,14.7 -0.2,13.4 -29.3,10.8 -31,10.6 -1,0 -1.8,-0.6 -1.7,-1.2 0,-0.5 0.8,-1 1.8,-1.1 2,-0.3 24.5,1.2 25,-8.5 0.6,-10 -21.7,-11.8 -24.6,-12 -1.3,-0.2 -1.6,-0.6 -1.7,-1.2 0,-0.6 0.5,-1.2 1.5,-1.2 z m -1.4,31 c 2,0.4 25.5,6.5 23,17.4 -2.4,11.2 -26.2,4 -27.6,3.6 -0.9,-0.3 -1.4,-0.9 -1.2,-1.3 0,-0.5 0.8,-0.7 1.7,-0.7 1.7,0.1 20.2,5.3 22.3,-2.8 2.2,-8.2 -16,-13.5 -18.4,-14.3 -1,-0.3 -1.3,-0.7 -1.2,-1.2 0.1,-0.5 0.6,-1 1.4,-0.7 z m -65.5,-149.2 c 5,2.5 25.1,14.9 51,66.3 25.9,51.1 5.5,93.8 5.2,95.8 -0.2,1.1 -0.6,2 -1.1,1.8 -0.6,-0.3 -0.5,-0.8 -0.5,-1.9 0.1,-2.5 15.3,-46.7 -7.8,-93.8 -23,-47 -40,-62 -47.5,-66.6 -1.1,-0.7 -2,-1.4 -1.7,-2 0.4,-0.5 1.4,-0.1 2.4,0.4 z m 41.8,124.7 c -16.9,-17.9 -18.7,-23.2 -25.3,-39.5 -6.5,-16 -6,-31.3 -6.1,-48.4 0,-0.9 1.4,-17.7 3,-17.3 1.5,0.4 1.2,9.3 1.7,10 0.2,1.9 0.3,36.1 7.2,52.5 a 142.3,142.3 0 0 0 22.9,39.1 c 4.6,5.2 11.8,12.4 10.7,14.4 -1,1.9 -13.6,-10.2 -14.1,-10.8 z m -14.1,-141 a 25.7,25.7 0 0 1 12.9,11.3 55,55 0 0 0 -22,11 c 5,-7 9,-13.9 9.1,-22.2 z m 25.3,25 c 5.6,3.8 8.5,8.6 10,13.7 a 77,77 0 0 0 -23.6,6.5 44.9,44.9 0 0 0 13.7,-20.1 z m 19.7,30.3 c 4.4,4.5 6.4,8.7 6,14.2 a 79.9,79.9 0 0 0 -24.7,3.1 c 7.3,-5.5 15.5,-9.6 18.7,-17.3 z m 15.4,33.5 a 23.2,23.2 0 0 1 4.5,17.1 c -7.6,-3.2 -16.6,-2.8 -25.4,-2.6 8.8,-3.4 16.6,-7.3 20.9,-14.5 z m 9.1,37 a 19,19 0 0 1 -0.1,15.2 c -4.7,-4.8 -12.4,-6.4 -20.2,-8.4 8.6,-0.7 14.8,-1.8 20.3,-6.9 z m -3.6,34.2 c 1,5.5 -0.4,11.5 -3,16 -3.6,-5.6 -12.3,-9.7 -19.6,-13 8.5,0.8 16.2,1 22.5,-3 z m -94.3,-175.4 a 30.5,30.5 0 0 1 15,8.2 46,46 0 0 0 -16.2,12.7 87.7,87.7 0 0 1 1.2,-20.9 z m 84.6,206.3 c -1.2,7.9 -5.7,12 -10,15.6 a 111.6,111.6 0 0 1 -12.8,-17 c 8.3,2.5 15.8,4 22.8,1.4 z"
           fill="#ffffff"
           id="path450" />
        <path
           d="m 2205.6,497.9 c 0,4.4 -3.3,8 -7.3,8 -4,0 -7.3,-3.6 -7.3,-8 0,-4.4 3.3,-8 7.3,-8 4,0 7.3,3.5 7.3,8 z"
           fill="#ffffff"
           stroke="#333333"
           stroke-linecap="round"
           stroke-linejoin="round"
           stroke-width="3.2"
           id="path451" />
        <path
           d="m 2222.1,515.1 c 0,4.5 -3.9,8 -8.7,8 -19,0 -8.9,-2 -9.2,-7.6 -0.4,-6 -5.5,-10 9.2,-8.4 4.8,0.4 8.7,3.6 8.7,8 z m -0.8,16.1 c 0,4.4 -3.8,8 -8.6,8 -18.7,0 -8.7,-2 -9.1,-7.6 -0.4,-6 -5.5,-10 9.1,-8.4 4.8,0.4 8.6,3.6 8.6,8 z m 1.2,-33 c 0,4.5 -3.7,8.1 -8.2,8.1 -18,0 -8.5,-2.1 -8.8,-7.6 -0.4,-6 -5.2,-10 8.8,-8.5 4.5,0.5 8.2,3.6 8.2,8 z m -4,48.5 a 6.9,6.9 0 0 1 -6.8,7 c -14.7,0 -7,-1.9 -7.2,-6.7 -0.3,-5.1 -4.3,-8.6 7.2,-7.3 3.7,0.5 6.7,3.2 6.7,7 z"
           fill="#ffffff"
           stroke="#333333"
           stroke-linecap="round"
           stroke-linejoin="round"
           stroke-width="3.9"
           id="path452" />
        <path
           d="m 2204.2,514.7 c 0,4.5 -3.5,8 -7.7,8 -4.2,0 -7.7,-3.5 -7.7,-8 0,-4.5 3.5,-8 7.7,-8 4.2,0 7.7,3.6 7.7,8 z m -0.6,16.1 c 0,4.5 -3.4,8 -7.6,8 -4.2,0 -7.6,-3.5 -7.6,-8 0,-4.4 3.4,-8 7.6,-8 4.2,0 7.6,3.6 7.6,8 z m 1,15.6 c 0,3.8 -2.8,7 -6,7 -3.2,0 -6,-3.2 -6,-7 0,-3.8 2.6,-7 6,-7 3.4,0 6,3.1 6,7 z m -6.8,-54.4 c 2,-4.5 6.6,-6.5 10.2,-4.6 3.6,2 4.8,7.1 2.8,11.6 -2,4.5 -6.5,6.5 -10,4.5 -3.5,-2 -5,-7 -3,-11.5 z"
           fill="#ffffff"
           stroke="#333333"
           stroke-width="3.9"
           id="path453" />
        <path
           d="m 2246.2,515.1 c 0,4.5 -5.1,8 -11.4,8 -24.8,0 -11.6,-2 -12.1,-7.6 -0.5,-6 -7.2,-10 12.1,-8.4 6.3,0.4 11.4,3.6 11.4,8 z m -1,16.1 c 0,4.4 -5.1,8 -11.3,8 -24.5,0 -11.5,-2 -12,-7.6 -0.5,-6 -7.1,-10 12,-8.4 6.2,0.4 11.2,3.6 11.2,8 z m 0.2,-33 c 0,4.5 -4.9,8.1 -10.9,8.1 -23.5,0 -11,-2.1 -11.4,-7.6 -0.5,-6 -6.9,-10 11.4,-8.5 6,0.5 10.9,3.6 10.9,8 z m -8.3,48.5 c 0,3.8 -4,7 -8.8,7 -19.3,0 -9,-1.9 -9.4,-6.7 -0.4,-5.1 -5.6,-8.6 9.4,-7.3 4.8,0.5 8.8,3.2 8.8,7 z m -54.2,-63.1 c 2,-4.5 7,-6.3 11,-4.2 16,8.6 6.5,6.2 4.3,11.9 -2.3,6.1 0.2,12.4 -11.6,4.3 -3.8,-2.7 -5.7,-7.6 -3.7,-12 z"
           fill="#ffffff"
           stroke="#333333"
           stroke-linejoin="round"
           stroke-width="3.9"
           id="path454" />
        <path
           d="m 2151.3,464.4 c -23.9,123.3 32.5,184.7 83.4,217.6 6.9,-8.8 3.8,-7.2 11.3,-14.6 l 0.7,-21.4 c -25.9,-5.6 -82.4,-63.3 -66,-172.4 z M 2084.6,423 c 22.7,-56 34,-72.7 72.4,-112.7 a 208.6,208.6 0 0 1 35.6,22.2 c -35.2,42.8 -41.5,45.4 -67,103.8 z"
           fill="#eecc55"
           stroke="#333333"
           stroke-linecap="round"
           stroke-linejoin="round"
           stroke-width="3.5"
           id="path455" />
        <path
           d="m 2157.8,461.6 17.6,10.7 -2.2,16.2 -10.1,-1 1.2,-10 -9.6,-1.5 -2.3,18.7 20.1,2 -1.4,15 -8.8,-0.5 v -8 l -10.5,0.2 v 18.3 l 20.5,-0.9 0.2,17.9 -8.8,1.5 -0.4,-8.8 -10.5,0.6 1.9,18.7 18.5,-2.5 4.3,17.8 -8.8,1.6 -1.7,-8 -10.5,1.8 4.7,18.4 18.9,-5.8 6.8,17 -9.3,4 -3.3,-9.6 -10,3.5 8,18.7 18,-7.5 9.4,15.4 -7.6,4.4 -4.6,-8.8 -10.4,5.3 12,17.7 16.4,-11.2 13.8,15.4 -6.7,6 -7.5,-9.1 -7.7,7 15.3,15.1 13.5,-13.6 16.3,10.4 -5.1,7.3 -9.1,-6.3 -7.2,8.8 16,12.6 9,-11.6 m -70.6,-344.2 a 309.3,309.3 0 0 0 -71.4,108 M 2091,423 c 15.8,-41 41.2,-81.3 70.1,-108.6 l 2.4,17.6 23.7,-1 a 302.3,302.3 0 0 0 -67.3,102 m 22.8,-98.5 6.2,15 21,-1 m -39.6,1.7 6.8,15.8 19.4,-0.8 m -37.4,2 7.2,15.2 19,-1 m -37.3,5 9,14.8 18.4,-3 m -36,5.7 9.3,14.8 18,-2.6"
           fill="none"
           stroke="#333333"
           stroke-linecap="round"
           stroke-linejoin="round"
           stroke-width="3.9"
           id="path456" />
        <path
           d="m 2171.7,449.6 74.8,28 0.1,13.2 c -14.4,-3.7 -38,-0.4 -49,-10.8 -10.4,-10 -36.6,-9.8 -34.6,-22 1.8,-11.8 5,-8.4 8.7,-8.4 z"
           fill="#eecc55"
           stroke="#333333"
           stroke-linecap="round"
           stroke-linejoin="round"
           stroke-width="3.9"
           id="path457" />
        <path
           d="m 1975.9,171 c 25.7,-19 37.4,-11.6 51.7,-9 6,1.1 5.4,2 5.4,21.4 h 3 l -0.6,-28 c -6.3,-1.3 -12.6,0.7 -27.4,-1 -11.2,-3 -25.5,8 -32.1,16.6 z m 115,-2.4 c -15.5,-12.1 -21.3,-10.3 -30.5,-7.7 -3.9,1.1 -3.5,2.8 -4.3,12.6 l -3.2,0.6 0.3,-18.2 c 4.1,-1.4 6.8,1.7 17.7,-1 4.1,-1.5 15.7,5 20,13.7 z"
           fill="#3366aa"
           id="path458" />
        <g
           id="g6178"
           transform="matrix(0.6123,0,0,0.6118,2225.1,-82.7)">
          <path
             d="m -302.1,258.3 c 0.8,-13.8 5.6,-20.1 11.3,-20.3 5.6,-0.2 14.5,4 14.3,20.8 15.9,-0.5 18,8.3 17.6,12.2 -0.6,4.4 -2,11.4 -20,9.9 1.8,21.2 -8,1 -12,0.8 -4,-0.2 -12.3,18.9 -11.2,0.3 -16,0 -19.4,-9.6 -19.4,-13.9 0,-4.6 4.6,-9.6 19.4,-9.8 z"
             fill="#333333"
             stroke="#ee1111"
             stroke-linecap="round"
             stroke-linejoin="round"
             stroke-width="3.2"
             id="path459" />
          <path
             transform="matrix(0.2638,0,0,0.2683,-230,197.8)"
             d="m -198.2,267.5 a 30.7,30.7 0 1 1 -61.4,0 30.7,30.7 0 1 1 61.4,0 z"
             fill="#333333"
             stroke="#ee1111"
             stroke-linecap="round"
             stroke-linejoin="round"
             stroke-width="11.1"
             id="path460" />
        </g>
        <path
           d="m 2091.6,116.2 c -56.1,-9.2 -130.3,-3.2 -195.5,3.6 l -4.6,-21.1 c 3.7,5.4 23.2,16 35.2,-2.1 2.6,7.6 53.9,7.9 61.5,-3.2 7,7.6 45.9,14.1 58.8,0.6 7.4,6.7 38.9,13.8 51.5,3 z"
           fill="#333333"
           stroke="#3366aa"
           stroke-linecap="round"
           stroke-linejoin="round"
           stroke-width="2.5"
           id="path461" />
        <g
           transform="matrix(0.5203,0.0663,-0.068,0.5334,2269.1,-38.9)"
           id="g463">
          <path
             d="m -302.1,258.3 c 0.8,-13.8 5.6,-20.1 11.3,-20.3 5.6,-0.2 13.3,1.8 13.2,18.6 -4.6,12.3 -6.7,25.8 -13.3,25.1 -3.5,-0.5 -12.3,18.9 -11.2,0.3 -16,0 -19.4,-9.6 -19.4,-13.9 0,-4.6 4.6,-9.6 19.4,-9.8 z"
             fill="#333333"
             stroke="#ee1111"
             stroke-linejoin="round"
             stroke-width="3.6"
             id="path462" />
          <path
             transform="matrix(0.2638,0,0,0.2683,-230,197.8)"
             d="m -198.2,267.5 a 30.7,30.7 0 1 1 -61.4,0 30.7,30.7 0 1 1 61.4,0 z"
             fill="#333333"
             stroke="#ee1111"
             stroke-linejoin="round"
             stroke-width="13"
             id="path463" />
        </g>
        <path
           d="m 1870.8,61.8 c 61.4,1.7 181.3,-3.4 248,0 l -5,7.4 c -3.7,-5.4 -25.1,-13.2 -37.1,5 -10.3,-13.9 -37.6,-18.5 -60,-2.6 -7,-7.6 -42.6,-13.2 -61.7,0.8 -17.6,-11 -60,-6.6 -73.2,7 z"
           fill="#ee1111"
           id="path464" />
        <path
           d="m 2002.9,279.4 c -12.2,5.5 -12.2,19.7 -28.3,24.2 -0.7,0.4 -1.9,0.7 -3,1 a 18.8,18.8 0 0 1 -23,-15.1 c -1.6,-9.7 4.8,-20 14.5,-22 a 15.2,15.2 0 0 1 18.5,12.4 c 1,7.7 -4,15.8 -11.7,17.3 -6.6,1.2 -13.2,-3 -14,-9.8 -0.7,-5.7 3.2,-11.6 8.9,-12.5 4.5,-0.7 9.1,2.3 9.4,7.2 0.3,3.6 -2.3,7.4 -6,7.6 -2.6,0.2 -5.2,-1.6 -5,-4.4 0.2,-1.6 1.6,-3.5 3.3,-3 0.6,0.2 1.5,1.6 0.4,1.9 m -59,-141.6 c -10,31 -17.3,114.7 -26,133.6 a 21.7,21.7 0 0 1 -4.8,7.2 18.8,18.8 0 0 1 -27.5,-0.7 19.5,19.5 0 0 1 0.8,-26.4 15.203454,15.203454 0 1 1 21.3,21.7 11.6,11.6 0 0 1 -17,-1 c -3.5,-4.4 -3.3,-11.5 1,-15.2 3.5,-3 9,-2.9 11.8,1 2.2,3 2,7.6 -1,9.8 -2.1,1.5 -5.3,1.3 -6.6,-1.2 -0.7,-1.4 -0.5,-3.8 1.2,-4.2 0.6,-0.2 2,0.5 1.3,1.3 m 124.7,-90.3 c -0.7,-4.8 14.3,-9.3 18.7,-10 a 69,69 0 0 1 18.5,1 83,83 0 0 1 2.9,19.4 c -4.8,8.4 -7.3,9.7 -11.7,13.3 m 73,-24.2 c 0.5,-4.1 -12.1,-8 -15.8,-8.7 -2,-0.3 -14,-0.2 -15.7,1 a 73.6,73.6 0 0 0 -2.5,16.8 c 4,7.2 6.2,8.3 10,11.5 m -42.3,34.4 c -3.7,15 18.1,9.7 21.7,7 12,7.8 21,0.6 18.2,-7.2 -2.2,-6.2 -11.1,-58.4 -7,-63.3 m -49.6,77.5 c -12.2,3 -4.2,13.7 4.4,13.7 8.6,0 13.9,-9 30,-11.3 m 32,-3.2 c 8,3.1 4,12 -3.9,12 -7.8,0 -11.5,-5.1 -25.8,-9.1 m -10.5,17 a 20.3,20.3 0 0 0 18.2,0.9 m -73.7,27.3 c 8.6,-5.5 8,-18.1 21,-22.3 m -32.3,33.5 c 3.8,12.6 15.5,6.6 25.2,-1.6 9.3,-7.7 9.9,-14.6 19.7,-18.2 m -35.6,25.8 c 3.8,12.2 9.7,8.5 13.2,6.5 6,-3.4 21.7,-20.3 31,-27.9 m -30.5,27.7 c 1.7,10.4 9.2,10.8 17,-1.3 6.4,-10.1 12.9,-10.3 22.3,-21.6 m -26,26.7 c -2.1,9.2 10.5,10.9 13.5,10.4 9.8,-1.7 12.2,-12.6 19.1,-30.3 m 58,-5 c -7,-8.2 -6,-31.6 -0.8,-45.4 m 10,61 c -7.8,11 -17.9,1.4 -25.4,-9.7 -7.1,-10.5 -6,-9.2 -6.4,-21.8 m 20.5,34.3 c -7.7,10.6 -12.7,5 -15.6,2 a 65.3,65.3 0 0 1 -16.1,-30 m 18.6,32.9 c -5,9.4 -16.5,5 -20.5,-4.1 -4.5,-10.2 -4,-9 -8.3,-24.7 m 12.8,29.7 c -3,10.3 -12.3,16 -19.3,3 -5.8,-11 -5.7,-6 -7.6,-20.5 m 44.7,-27.8 c 30.4,-38.2 11.2,-91.2 11,-135.8 m -213.3,130.3 c 7,-24.3 15,-95.2 24.9,-126 m -30,111 c 6.3,-25.6 14.4,-77.6 23.3,-110.2 m -22,141.5 c 5.2,3.4 10,4.1 13,-1.8 10.2,-20.1 23.2,-117.3 29.7,-142.8 m -31.7,145.3 c 7.4,2.5 11.2,-0.5 13.4,-6.9 7.5,-20.6 19,-114 25.5,-139.4 m -29.3,145 c 7.4,2.5 9.9,-0.6 12.1,-6.9 7.5,-20.6 18.1,-113.7 24.6,-139.2 M 1903,283.7 c 7.4,2.6 9.2,-0.5 11.4,-6.8 7.5,-20.6 16.9,-113 23.4,-138.4 M 1913,282.4 c 7.4,2.5 8.8,-1 11,-7.4 7.5,-20.6 15.5,-111.9 22,-137.4 m -24,142 c 6,3.6 7.8,0 10,-6.9 7,-20.8 15.3,-110.7 21.8,-136.2 m -15.3,139.3 c 7.4,2.5 7.9,-1.6 10.2,-8 7.4,-20.6 13.7,-107.2 20.2,-132.7 m -22,138.4 c 7.3,2.5 7.5,-1.2 10.3,-8 8.3,-20.2 12,-105 18.6,-130.5 m -44.9,142.3 c 5,4 6.9,0.4 9.2,-5.9 7.4,-20.6 15.2,-110.1 21.7,-135.6 m 143.7,155.4 c -1,-0.7 0.3,-1.7 1,-1.7 2,0 2.8,2.3 2.5,3.9 -0.7,2.8 -4,3.7 -6.5,2.7 -3.7,-1.5 -5.2,-6 -3.9,-9.4 1.9,-4.5 7.5,-6 12,-3.8 5.5,2.7 7.7,9.7 5.2,15 -3,6.3 -11,8.2 -17.3,4.8 a 15.7,15.7 0 0 1 -6.7,-20.4 c 4,-8.1 14.5,-10.6 22.8,-6 a 19.8,19.8 0 0 1 8.1,26 c -5.1,9.9 -18.1,12.8 -28.2,7 a 19.7,19.7 0 0 1 -2.9,-2 c -15.1,-9.6 -11.2,-18.3 -11.2,-31.8"
           fill="none"
           stroke="#3366aa"
           stroke-linecap="round"
           stroke-linejoin="round"
           stroke-width="3.9"
           id="path465" />
        <path
           d="m 2022.3,112.5 a 1024,1024 0 0 0 -129,8.1 c 0.7,7.7 0.5,16.3 -0.8,26.1 46.3,-11.8 151.2,-18.6 196.5,-6.5 1,-8.8 2.5,-16.6 4.5,-23.8 a 515.4,515.4 0 0 0 -71.2,-3.8 z"
           fill="#333333"
           id="path466" />
        <use
           transform="matrix(0.88722358,-0.06359698,0.06359698,0.88722358,165.10107,139.86707)"
           width="744.09998"
           height="1052.4"
           xlink:href="#g6178"
           id="use466" />
        <use
           transform="matrix(0.8820915,-0.11456368,0.11456368,0.8820915,111.29902,247.70739)"
           width="744.09998"
           height="1052.4"
           xlink:href="#g6178"
           id="use467" />
      </g>
      <use
         transform="rotate(180,1149.1,2123.4)"
         width="744.09998"
         height="1052.4"
         xlink:href="#g42617"
         id="use468" />
    </g>
    <use
       transform="translate(405.3,945)"
       xlink:href="#frame"
       id="use469" />
    <use
       transform="translate(1620)"
       xlink:href="#u42831"
       id="use470" />
    <use
       transform="translate(1620.1)"
       xlink:href="#u42833"
       id="use471" />
    <use
       transform="translate(405.3)"
       xlink:href="#u24387"
       id="use472" />
    <use
       transform="translate(405.3)"
       xlink:href="#u24552"
       id="use473" />
    <use
       transform="translate(2430.1001,1990)"
       style="stroke:#333333"
       xlink:href="#K"
       id="use474" />
    <use
       transform="rotate(180,1316.25,107.5)"
       style="stroke:#333333"
       xlink:href="#K"
       id="use475" />
  </g>
  <g
     id="club_1"
     transform="translate(-2430.1001,-945)">
    <rect
       id="card"
       x="0.69999999"
       y="0.69999999"
       width="201.10001"
       height="313.60001"
       rx="9"
       ry="9"
       fill="#ffffff"
       stroke="#333333"
       stroke-width="1.4" />
  </g>
</svg>
