<?xml version="1.0" encoding="UTF-8" standalone="no"?>
<svg
   width="202.5"
   height="315"
   version="1.1"
   id="svg1018"
   xmlns:xlink="http://www.w3.org/1999/xlink"
   xmlns="http://www.w3.org/2000/svg"
   xmlns:svg="http://www.w3.org/2000/svg">
  <defs
     id="defs1018" />
  <g
     id="Q"
     transform="translate(-2227.5,-3.5999939)"
     style="fill:none;stroke-width:3.5;stroke-linecap:square">
    <path
       d="m 2253.7,-69 v -8.2 c 0,-5.3 -3.8,-9.6 -8.5,-9.6 -4.7,0 -8.5,4.3 -8.5,9.6 v 8.2 c 0,5.3 3.8,9.6 8.5,9.6 4.7,0 8.5,-4.3 8.5,-9.6 z"
       id="path6" />
    <path
       d="m 2235.2,-73.5 c 11.5,0 11.2,11.6 18.4,13.6"
       id="path7" />
  </g>
  <g
     id="club_2"
     transform="translate(-2227.5)">
    <use
       id="u37954"
       transform="translate(202.5)"
       xlink:href="#clubS" />
    <use
       id="u37956"
       transform="translate(202.5)"
       xlink:href="#u37950" />
  </g>
  <g
     id="club_4"
     transform="translate(-2227.5)">
    <use
       id="u37972"
       transform="translate(405)"
       xlink:href="#u37954" />
    <use
       id="u37974"
       transform="translate(405)"
       xlink:href="#u37956" />
  </g>
  <g
     id="club_jack"
     transform="translate(-2227.5)">
    <path
       id="frame"
       d="M 2194.1,281.3 H 2058 V 33.6 h 136.1 z"
       fill="none"
       stroke="#3366aa"
       stroke-linejoin="round"
       stroke-width="2.4" />
    <use
       id="u7712"
       transform="matrix(0.8793,0,0,0.88,1992.87,-80.1)"
       xlink:href="#club" />
    <use
       id="u7969"
       transform="rotate(180,2126,157.5)"
       xlink:href="#u7712" />
  </g>
  <g
     id="club_queen"
     transform="translate(-2227.5)">
    <use
       transform="rotate(180,1215,157.5)"
       xlink:href="#card"
       id="use127" />
    <use
       transform="translate(1619.9)"
       xlink:href="#u37972"
       id="use128" />
    <use
       transform="translate(1620)"
       xlink:href="#u37974"
       id="use129" />
    <g
       transform="matrix(0.242,0,0,0.2675,1659.3,-302.6)"
       id="g179">
      <path
         d="m 2975.1,1550.8 h -304 l -4.8,4.3 -183.3,182.7 v 161.8 l 9.5,8.4 65.3,-19 h 304 l 4.7,-4.3 L 3050,1702 v -162 z"
         fill="#333333"
         id="path129" />
      <path
         d="m 2747.6,1892.4 h -136.8 c 128.9,-79 144,-235.6 174.3,-345 H 2922 c -139.5,89 -140.3,238 -174.3,345 z"
         fill="#333333"
         stroke="#ee1111"
         stroke-linecap="round"
         stroke-linejoin="round"
         stroke-width="7.9"
         id="path130" />
      <g
         id="g5781">
        <path
           d="m 3024.4,1554 c -166.5,-29.4 -275.2,184.8 -138.8,304.7 l 9.4,-10.5 c -54.3,-39.6 -71.4,-118.2 -44.1,-187.4 a 165.3,165.3 0 0 1 198.9,-92.9 c 0,0 -25.8,-12.6 -25.4,-13.9 z"
           fill="#3366aa"
           stroke-width="4"
           id="path131" />
        <path
           d="m 3002.1,1564.9 c -121.6,1.9 -201.2,133.6 -133.5,247.5 l 181.2,-178.6 v -63.5 a 193.3,193.3 0 0 0 -47.7,-5.4 z"
           fill="#ee1111"
           id="path132" />
        <path
           d="m 3009.9,1593.7 c -5.3,-0.6 0.1,-1.5 2.1,-1.5 3.8,-0.8 6.7,-4.8 5,-8.5 -2.3,-7 -15.2,-6.4 -15.4,1.5 -0.4,3 2.6,4.7 3.8,6.9 -2,1.1 -2.3,-4 -4.7,-4.6 -4.7,-3.4 -13,0.1 -12,6.4 1.3,6.9 11.8,7.8 14.5,1.7 4.2,-2.2 -1.1,2 -2.2,3.4 -2.7,4.7 1.9,11 7,10.2 1.5,-0.3 5.4,-1.7 6.1,-4.4 0.9,-2.8 0,-6.3 -2.9,-8 -1.8,-0.8 -6.6,-2.8 -1.4,-2.1 2.5,0.6 7.3,2.5 9.6,2.6 l 0.1,-3 c -3.2,0.5 -6.4,-0.2 -9.6,-0.6 m -56.6,4.9 c -5,1.8 -0.9,-1.3 1,-2.2 3.8,-2.6 4.1,-9.2 -0.5,-11.2 -4.9,-1.8 -11.4,0.8 -12.4,6.1 -0.6,3.8 2.8,7 6.4,7.2 1.8,3.3 -3.1,-1 -4.8,-1.2 -5.9,-1.6 -12.5,5.7 -8.4,11 4.2,5.6 13.9,1.6 13.6,-5 2.3,-3.8 0.4,1.9 -0.3,3.5 -0.8,5.5 6.2,9.6 10.6,6.4 4.5,-2.5 4.3,-10.3 -0.8,-12 -2.1,-1.2 -4.6,0.4 -6.5,-0.7 2.3,-3 11.7,-2.2 13.5,-3.4 l -1.4,-3.2 c -2.9,2.4 -6.5,3.5 -10,4.7 m -48.1,30.2 c -3.6,4 -1.2,-1 0,-2.6 1.6,-3.4 0,-9.4 -4.3,-9 -7,-1.8 -13.7,8.7 -7.4,13.4 2.2,2.1 5.3,0.7 7.7,1 -0.2,2.3 -4.5,-0.5 -6.4,1 -5.3,2 -7.5,10.6 -2,13.4 6.2,3.2 13.1,-4.3 10.3,-10.2 -1,-4.5 1.5,-0.4 0.9,2 0.6,4.2 5.7,6.3 9.2,4.3 1.4,0 3.7,-2.5 4,-4 1.2,-3.1 0,-5.5 -2.4,-7.7 -2.6,-2.5 -6.8,-1.3 -9.1,1 -3.6,-1.3 8,-7.3 8.7,-8.6 l -2.5,-2.3 c -2,1 -4,7.6 -6.7,8.3 z m -28.5,49.2 c -1.2,5.1 -1.4,-0.4 -1.2,-2.4 0,-5.4 -7.3,-8.5 -11,-4.3 -3.8,3.8 -3.9,12 2.2,13.6 2.8,0.9 5.3,-1 7.3,-2.6 2.7,1.6 -4,1.7 -4.5,4 -4.3,4.2 -1.4,13.5 5.2,12.6 6.7,-0.7 8.5,-10.6 3,-14 -1.5,-4.6 1.8,1.1 3,2.4 4.4,4.1 12,-0.9 11.1,-6.5 -0.5,-1 -1.5,-5.1 -4.1,-5.7 -3.9,-1.8 -8.3,1 -9.3,5 -3.8,0.5 3.8,-10.3 3.7,-11.8 l -3,-1 c -2,0.9 0,8.6 -2.4,10.7 z m -2.1,56.7 c 1.2,5.2 -1.4,0.8 -2,-1.2 -2,-4.3 -9.3,-5.5 -11.1,-0.4 a 8.4,8.4 0 0 0 3,11.6 c 3.1,3 8.3,-0.2 9,-4 3.6,-2.8 -0.7,2.3 -1.4,3.8 -2.8,5.7 4,13.8 9.9,10 5.8,-3.6 3,-13.6 -3.4,-14 -3.4,-3.5 2,0.4 3.6,0.7 3.6,0.7 7.7,-1.8 8,-5.4 1,-4.3 -2.4,-8.7 -6.8,-8.5 -4.5,0 -7.3,4.5 -6.4,8.5 -3,2.2 -1.3,-10.7 -2.1,-12 l -3.2,0.5 c -0.7,2.1 4,7.7 2.9,10.4"
           fill="#333333"
           stroke="#333333"
           stroke-width="1.8"
           id="path133" />
        <path
           d="m 2670.6,1530.7 h 314.9 v 20.2 h -314.9 z"
           fill="#3366aa"
           stroke="#333333"
           stroke-width="2"
           id="path134" />
        <path
           d="m 2691.9,1485.4 h 278.5 v 45.3 h -278.5 z"
           fill="#ee1111"
           stroke="#333333"
           stroke-width="2"
           id="path135" />
        <path
           d="m 2744.3,1457.6 h 184.5 v 27.8 h -184.5 z"
           fill="#eecc55"
           stroke="#333333"
           stroke-width="2"
           id="path136" />
        <path
           d="m 2858.5,1472.1 a 6.3,6.3 0 1 1 -12.6,0 6.3,6.3 0 0 1 12.6,0 z m 23.7,0 a 6.3,6.3 0 1 1 -12.6,0 6.3,6.3 0 0 1 12.6,0 z m 23.7,0 a 6.3,6.3 0 1 1 -12.6,0 6.3,6.3 0 0 1 12.6,0 z m -118.6,0 a 6.3,6.3 0 1 1 -12.6,0 6.3,6.3 0 0 1 12.6,0 z m 23.8,0 a 6.3,6.3 0 1 1 -12.6,0 6.3,6.3 0 0 1 12.6,0 z m 23.7,0 a 6.3,6.3 0 1 1 -12.6,0 6.3,6.3 0 0 1 12.6,0 z"
           fill="#ffffff"
           id="path137" />
        <path
           d="m 2964.2,1518.1 -26.5,-79.7 c -16.9,-51 -56,-139.7 -89.4,-183.1 h -91.7 c 0.4,13.3 0.3,55.6 -0.3,64 -4.2,67.1 -3.3,68.2 -2.7,78 a 100.9,100.9 0 0 0 30.9,68.8 c 9.2,9.4 31.5,15.1 46.6,2.3 18.5,-15.6 44.1,-22 62,-62 16.6,51.8 44.1,103.7 72,112"
           fill="#ffffff"
           id="path138" />
        <path
           d="m 2756.1,1318.7 c 0.2,-17.3 1.2,-21 0.2,-61.8 -69.6,241.9 -89.7,206.5 -90,298.2 l 107.8,-96.2 c -21,-32.6 -30.2,-50.4 -18,-140.2 z"
           fill="#333333"
           stroke="#333333"
           stroke-linecap="round"
           stroke-linejoin="round"
           stroke-width="2.8"
           id="path139" />
        <path
           d="m 2756.1,1318.7 c 0.2,-17.3 1.2,-21 0.2,-61.8 -69.6,241.9 -89.7,206.5 -90,298.2 l 52.4,-46.7 c 2.4,-68.4 25.2,-99.9 37.4,-189.7 z"
           fill="#ee1111"
           stroke="#333333"
           stroke-linecap="round"
           stroke-linejoin="round"
           stroke-width="4"
           id="path140" />
        <path
           transform="matrix(-0.9354,-0.8634,-0.9898,0.9136,3650.5,906.2)"
           d="m 221.6,681.8 a 4.85,4.85 0 1 1 -9.7,0 4.85,4.85 0 1 1 9.7,0 z"
           fill="none"
           stroke="#3366aa"
           stroke-width="2"
           id="path141" />
        <path
           d="m 2767.8,1344.2 c 1.9,2.4 1.2,-2 3.6,-3.7 2.4,-1.7 7,-0.2 5,-2.6 -1.9,-2.5 -5,-2.4 -7.4,-0.7 -2.4,1.7 -3.1,4.6 -1.2,7 z"
           fill="#3366aa"
           stroke="#3366aa"
           stroke-width="2.2"
           id="path142" />
        <path
           transform="matrix(-0.4658,-0.4299,-0.4952,0.4571,3211.6,1124.2)"
           d="m 221.6,681.8 a 4.85,4.85 0 1 1 -9.7,0 4.85,4.85 0 1 1 9.7,0 z"
           fill="#333333"
           id="path143" />
        <path
           transform="matrix(0.9354,-0.8634,0.9898,0.9136,1954.8,906.4)"
           d="m 221.6,681.8 a 4.85,4.85 0 1 1 -9.7,0 4.85,4.85 0 1 1 9.7,0 z"
           fill="none"
           stroke="#3366aa"
           stroke-width="2"
           id="path144" />
        <path
           d="m 2836.9,1338 c 2.6,2.4 -2.5,1 -5,3.3 -2.5,2.3 -1.4,7.5 -4,5 -2.6,-2.5 -2.1,-5.8 0.4,-8.1 2.5,-2.3 6,-2.6 8.6,-0.2 z"
           fill="#3366aa"
           stroke="#3366aa"
           stroke-width="2.6"
           id="path145" />
        <path
           transform="matrix(0.4658,-0.4299,0.4952,0.4571,2393.7,1124.5)"
           d="m 221.6,681.8 a 4.85,4.85 0 1 1 -9.7,0 4.85,4.85 0 1 1 9.7,0 z"
           fill="#333333"
           id="path146" />
        <path
           d="m 2795,1314.1 0.6,6 a 53.5,53.5 0 0 0 -37.6,-1 l -0.5,-1.3 c 12.9,-2.2 16.4,-6.8 37.5,-3.7 z m 22.2,0.2 -4.7,7 c 21.5,-10.2 34.9,4.1 55,-0.5 -25.6,-0.8 -24.4,-10.8 -50.3,-6.5 z m 0.2,20.3 c 8.2,-5.4 13.2,-7.8 22.2,-5.3 7,1.8 11.5,7.3 18.3,12 l 0.3,2.8 c -13.9,-4 -20.9,-9.6 -35.6,-7.4 z m -29.4,-0.2 c -8.3,-5.5 -12.6,-7.8 -21.6,-5.6 -3.3,0.8 -6.7,7.1 -9.4,8.8 l -0.8,3.1 c 8.2,-2.1 11.9,-6.4 26.5,-4.2 z"
           fill="#3366aa"
           stroke="#3366aa"
           stroke-miterlimit="1"
           stroke-width="2"
           id="path147" />
        <path
           d="m 2796.1,1430.7 c 1,0.5 3.8,0.7 4.6,-0.1 4.8,2.9 6,3.4 13.7,4 -9.2,3.1 -10,2.3 -14.5,2.4 a 56,56 0 0 1 -16.5,-2.7 c 6.2,-0.6 9.2,-1.7 12.7,-3.6 z"
           fill="#3366aa"
           stroke="#3366aa"
           stroke-linecap="round"
           stroke-linejoin="round"
           stroke-width="4"
           id="path148" />
        <path
           d="m 2814.4,1342.4 c 8.4,-2 12,-8.4 18.8,-7.9 7.3,0.6 12.5,6.5 22.3,8.8 -12.3,0.4 -17.5,8.2 -24,7 -6.6,-1 -8.7,-5 -17.1,-7.9 z m 12.7,13.5 c 9.8,1.5 18.6,-0.3 25,-6 m -95,-8 -0.2,3.2 c 10.4,4 11.5,6.4 18,5.3 6.5,-1.1 7.5,-5.4 16,-8.2 -8.5,-2 -12.3,-8 -19.1,-7.5 -7.3,0.6 -9.3,5.3 -14.6,7.2 z m 21,13.8 c -9.8,1.5 -14.6,-0.4 -22,-5 m 136.9,55.8 c -17.8,40 -43.5,46.3 -61.9,62 -15.1,12.7 -37.4,7 -46.6,-2.4 a 100.9,100.9 0 0 1 -31,-68.9 c -0.5,-9.7 -1.4,-10.8 2.8,-77.9 0.5,-8.4 0.7,-49.6 0.3,-63 m 57.2,146.4 c 8,5 0.5,14 -6.4,10.9 -4.2,-2 -2.4,-4.7 -8.2,-1.8 m -3.5,-87.2 c -5,71.5 -10.5,67.2 -12.5,77 -2,9.7 4.4,15.8 9.6,12.4 l 0.3,11.3 m -0.1,20.1 c 6.1,5.1 9.2,2.2 12.6,0 m -37.9,-189 a 17.4,17.4 0 0 1 -10.6,9 m 22.2,-9 c -4.2,11 -12.5,15.4 -21.4,19 m 32.7,-19 a 50.2,50.2 0 0 1 -33.3,29.9 m 43.4,-30 c -10.8,25.1 -20.4,32 -43.7,40.5 m 83.7,-40.4 a 27,27 0 0 0 14,10.4 m -24.5,-10.4 c 4.2,11 23.6,19 32.6,22.8 m -43.9,-22.8 c 7.6,16.1 33.4,28.7 50.8,34.9 m -61.7,-35 c 8.5,22.8 43,40.3 69.2,45.9 m 24.4,48.4 c 0,19 37,111.7 47,115.3 m -61.9,-144.8 c -7.5,22.5 26.8,152.4 74,183.7 m -82,-196.9 c -10.7,46.6 37.4,196 86.4,210.5 m -9.3,-30.3 c -20.5,-11.9 -65.2,-121.1 -62.5,-153"
           fill="none"
           stroke="#3366aa"
           stroke-linecap="round"
           stroke-linejoin="round"
           stroke-width="4"
           id="path149" />
        <path
           d="m 3014.8,1417.2 c -14.6,-2.9 -65.8,13.3 -73.8,19 -19.5,-50 -59.3,-136 -92.6,-179.5 h 123.4 c 3.5,54 11.7,106.5 43,160.5 z"
           fill="#eecc55"
           stroke="#333333"
           stroke-linejoin="round"
           stroke-width="4"
           id="path150" />
        <g
           id="g16907"
           transform="matrix(-0.2762,-0.5699,-0.6082,0.295,3001.9,1036)">
          <path
             d="m -302.1,258.3 c 0.8,-13.8 5.6,-20.1 11.3,-20.3 5.6,-0.2 14.5,4 14.3,20.8 15.9,-0.5 18,8.3 17.6,12.2 -0.6,4.4 -2,11.4 -20,9.9 1.8,21.2 -8,1 -12,0.8 -4,-0.2 -12.3,18.9 -11.2,0.3 -16,0 -19.4,-9.6 -19.4,-13.9 0,-4.6 4.6,-9.6 19.4,-9.8 z"
             fill="#333333"
             stroke="#ee1111"
             stroke-linejoin="round"
             stroke-width="2.9"
             id="path151" />
          <path
             transform="matrix(0.2638,0,0,0.2683,-230,197.8)"
             d="m -198.2,267.5 a 30.7,30.7 0 1 1 -61.4,0 30.7,30.7 0 1 1 61.4,0 z"
             fill="#333333"
             stroke="#ee1111"
             stroke-linejoin="round"
             stroke-width="10.4"
             id="path152" />
        </g>
        <path
           d="m 2877.7,1256.9 c 23.4,41 60.9,113.5 81.3,170.1 l 6.5,-2 c -1.3,-3.8 -1.8,-8 1.2,-11.7 -5,-0.8 -24.8,-23.5 -16.4,-37.9 -13.4,-8.2 -26.2,-29.4 -19.6,-43.4 -9.5,0.7 -28.4,-38.6 -22.3,-46.2 -10.8,-1.3 -25.4,-14.8 -20.5,-28.5 z"
           fill="#3366aa"
           id="path153" />
        <g
           transform="matrix(-0.1848,-0.4431,-0.4837,0.2058,3051.4,1225.2)"
           id="g155">
          <path
             d="m -302.1,258.3 c 0.8,-13.8 5.6,-20.1 11.3,-20.3 5.6,-0.2 14.5,4 14.3,20.8 15.9,-0.5 18,8.3 17.6,12.2 -0.6,4.4 -2,11.4 -20,9.9 1.8,21.2 -8,1 -12,0.8 -4,-0.2 -12.3,18.9 -11.2,0.3 -12,0.4 -11.4,-7.4 -12.8,-14.1 -0.9,-4.6 -2,-9.4 12.8,-9.6 z"
             fill="#333333"
             stroke="#ee1111"
             stroke-linejoin="round"
             stroke-width="3.8"
             id="path154" />
          <path
             transform="matrix(0.2638,0,0,0.2683,-230,197.8)"
             d="m -198.2,267.5 a 30.7,30.7 0 1 1 -61.4,0 30.7,30.7 0 1 1 61.4,0 z"
             fill="#333333"
             stroke="#ee1111"
             stroke-linejoin="round"
             stroke-width="13.6"
             id="path155" />
        </g>
        <path
           d="m 2893,1406.5 a 113.7,113.7 0 0 1 -46.6,53.3 h 67 a 424,424 0 0 1 -20.4,-53.3 z"
           fill="#3366aa"
           id="path156" />
        <path
           id="p36812"
           d="m 2752.3,1513.5 c 0.1,-0.9 -0.3,-3.9 0.9,-2.1 0.6,1.5 0.4,3.3 1.4,4.7 1.5,3 5.2,4.8 8.4,3.4 4.4,-1.7 6,-7.6 3.7,-11.6 -1.4,-3 -5.3,-4.8 -8.4,-3.4 a 8.2,8.2 0 0 0 -4,3.7 c -0.9,1 -2.2,0 -1,-1 1.1,-1 2.7,-1.3 3.7,-2.6 3.1,-3.7 2.3,-10.2 -2,-12.6 -3,-1.7 -7,-0.6 -8.8,2.2 -2.8,3.8 -1.7,10 2.6,12.2 1,0 3,2.3 1,2 -1.6,-1 -2.3,-3.2 -4.4,-3.8 -3,-1.5 -7,0.1 -8.5,3 -2.2,3.8 -1.2,9.4 2.8,11.5 a 6.6,6.6 0 0 0 8.3,-1.6 c 1.4,-1.6 2,-3.7 2,-5.7 0.3,-1.1 1.6,-1.2 1.2,0 0.2,4 0,7.9 -1.1,11.6 -0.6,0.7 -0.9,2 0.6,1.6 1.2,-0.3 4.1,0.8 3,-1.3 a 23.2,23.2 0 0 1 -1.4,-8.2 z"
           fill="#333333"
           stroke="#333333"
           stroke-width="1.8" />
        <path
           d="m 3049.9,1540.1 -74.8,10.7 h -304 l -4.7,4.2 -183.4,182.8"
           fill="none"
           stroke="#333333"
           stroke-width="2"
           id="path157" />
        <path
           d="m 2960.1,1429.6 c 30.9,56 74.2,106.8 85,106.4 l 4.7,31.9 c -34.6,-3.2 -62.8,-4.3 -78.5,-0.9 l -33.6,-128.6 c -13.5,-51.8 -56.1,-138.6 -89.4,-182 h 29.2 c 34,53 64,123.2 82.6,173.2 z"
           fill="#333333"
           id="path158" />
        <path
           d="m 2632,1593.7 -149.1,148 v 57.7 l 178,-176.6 c -7.5,-10 -15.1,-20.1 -28.9,-29.1 z"
           fill="#ffffff"
           id="path159" />
        <g
           transform="translate(2394.4,1193.7)"
           id="g163">
          <path
             d="m 406.7,455.8 c -6,10.5 -18.3,3.1 -10.8,-6.7 3.7,-4.9 3.6,0.3 5.2,3 1.9,3.2 6.8,-6.7 8.6,-15.5 1.6,6.3 0.9,12.5 -3,19.2 z M 400,444.6 c 8,4 6.4,-4.6 4.9,-11.3 -3,-12.8 16.5,-31 25.2,-31.4 -10.3,-3.6 -8.5,-4.5 -14.1,-5 -2.8,-0.1 -2.2,-1.8 -4.9,-0.8 0.8,1.3 5.2,6.1 7.8,5.4 -14.2,10.4 -38,26.6 -19,43.1 z m 41.2,-38.1 c 4.8,4.4 -1.8,10 -6.2,4.8 -2.1,-2.6 0.5,-2.4 2.1,-3 1.9,-0.8 -2.7,-4 -7.1,-6 3.5,-0.2 8,1.4 11.1,4.2 z M 412.9,424 c -2.6,6 6.3,12 11.8,1.4 1.9,-3.6 -0.1,-5.1 -3.3,-5.2 -3.5,-0.2 7,-9.6 10,-19 A 68.4,68.4 0 0 0 412.9,424 Z m 10.3,-58.4 c -3.3,0.1 -5.6,5 -1.8,9 2.7,2.7 2.4,0.7 3.2,-1.1 0.8,-1.6 4.8,3.9 7.5,9 -0.4,7 0,15.6 2,19 -0.5,-7.7 2.9,-23.7 5.2,-21.6 2,2 3.5,6.8 5.4,2 4.1,-9.8 -7.5,-18.2 -10.2,-8.2 -0.3,1.2 -2,3.3 -2.1,5 a 46.1,46.1 0 0 0 -5.2,-10.8 c -1.3,-1.7 -2.7,-2.4 -4,-2.3 z m 40.4,18 c -11.3,4.2 14.7,-23.8 1.3,-24 -8.5,-0.1 -7.3,9.6 -5.5,14 2.5,6 -21.7,24.5 -30.3,26.4 11.5,0 22.7,1.2 29.6,-2 3.2,-2.4 0,-6 -4.7,-4.1 2,-1.1 11.3,-11 9.6,-10.3 z m 15.7,-16.9 c 7.2,-4.9 11.9,5.7 3.9,9.7 -4,2 -2.9,-0.1 -3.1,-2.5 -0.3,-2.7 -11.3,5.7 -15.2,11 0.9,-4.8 9.8,-15 14.4,-18.2 z M 381,492.2 c 4,10 2.6,-4 9.4,5 -2.9,-15.2 1.9,-23.6 14.4,-35.4 -10.3,5.2 -23,11.3 -25.6,15.3 -2.6,4.1 2.5,5.4 6,1.6 -1.4,2 -5.4,15 -4.2,13.5 z m 4.2,3.7 c -1.4,1 -1.8,3 -0.8,4.5 1,1.6 2.9,2 4.3,1.1 1.4,-0.9 1.8,-3 0.8,-4.5 -1,-1.5 -3,-2 -4.3,-1.1 z m 14.1,-121 c -2,0.7 -3.2,2.8 -1.7,5.7 l 1.2,2.1 c -9.4,-1.8 -13,9.3 -1.8,12.3 2.6,-1.7 0.7,-2.9 1.1,-5.6 0.6,-3.5 6.8,1.3 19,6.3 -2,-6.2 -11.3,-7.3 -15.2,-15.2 1.8,0 4.2,1 3,-2 -1,-3.3 -3.6,-4.2 -5.6,-3.6 z"
             fill="#ffffff"
             id="path160" />
          <g
             transform="matrix(-0.2846,-0.2931,-0.2931,0.2846,991.5,80.6)"
             id="g162">
            <path
               d="m 395.7,1515.8 c -11,-1.4 -16.4,1.4 -17,5.8 -0.7,4.4 1.8,12.1 15,14.5 -1.8,12.4 5,15.5 8,15.7 3.6,0.3 9.3,0.3 9.7,-14.3 16.7,4.8 16.4,-3.3 16.7,-6.3 0.3,-3 1.1,-9.7 -13.6,-11.7 1.5,-12.7 -5.8,-16.8 -9.2,-17.5 -3.6,-0.7 -8,2.1 -9.6,13.8 z"
               fill="#ffffff"
               stroke="#333333"
               stroke-linecap="round"
               stroke-linejoin="round"
               stroke-width="3.7"
               id="path161" />
            <path
               transform="matrix(-0.2026,0.169,0.1719,0.206,311.4,1510)"
               d="m -198.2,267.5 a 30.7,30.7 0 1 1 -61.4,0 30.7,30.7 0 1 1 61.4,0 z"
               fill="#ffffff"
               stroke="#333333"
               stroke-linecap="round"
               stroke-linejoin="round"
               stroke-width="21.2"
               id="path162" />
          </g>
        </g>
        <path
           d="m 2919.6,1761.9 c -70,-90.5 37.7,-191.3 121.9,-119.6 z"
           fill="#eecc55"
           id="path163" />
        <path
           d="m 2907.1,1699.8 68.8,0.4 m -47.2,-51.6 48.3,49 m 3.2,-70 -0.4,68.8 m -70.1,-15.4 66.3,18.2 m -59,-35.7 59.4,34.8 m -32.6,-61.2 34,59.8 m -16.4,-66.9 17.3,66.5 m 20.3,-66.3 -18.3,66.3 m 35.7,-59 -34.7,59.4 m -72.2,21.7 66.5,-17.4 m -59.4,35 59.8,-34 m 55,-53 -49,48.3 m -54.3,53.8 48.9,-48.3"
           fill="#eecc55"
           stroke="#333333"
           stroke-linejoin="round"
           stroke-width="5.9"
           id="path164" />
        <path
           d="m 2926.7,1751.6 c -60,-77.5 32.3,-163.7 104.3,-102.4"
           fill="none"
           stroke="#333333"
           stroke-linecap="square"
           stroke-linejoin="round"
           stroke-width="5.6"
           id="path165" />
        <path
           d="m 2539.4,1466.8 c -2.1,11.8 -8.3,13.8 -8.1,19.5 0.2,6 5,6.7 7.4,20 -5.8,-5.2 -5,-12.3 -12.5,-16 -11.3,-2.9 -19.6,6.8 -26,19.5 10.5,-6.4 26.5,-11.9 36.5,-1.3 l -0.2,1 a 2.8,2.8 0 0 0 2.9,2.8 2.8,2.8 0 0 0 2.8,-2.8 v -0.3 c 20.3,-6.7 15.5,-11.3 37.2,-0.2 -6.4,-12.7 -14.7,-22.3 -26,-19.5 -9.2,2.3 -4.8,10.7 -13.4,17 2.7,-14.6 8.9,-14.5 7.3,-24.6 -0.5,-3.4 -3.3,-6.2 -7.9,-15.1 z"
           fill="#ffffff"
           stroke="#333333"
           stroke-linejoin="round"
           stroke-width="4"
           id="path166" />
        <path
           d="m 2539,1510.2 c 9.6,28.9 -20.9,67 -15.7,95.1"
           fill="none"
           stroke="#333333"
           stroke-linecap="round"
           stroke-linejoin="round"
           stroke-width="5.3"
           id="path167" />
        <path
           d="m 2525.1,1572.5 c -6.2,-18.2 -0.2,-22 -18.5,-38.3 3.7,22.6 3.5,33 18.5,38.3 z m 0,21.1 c 11.7,-29.2 23,-28.1 38.8,-33.4 a 70.7,70.7 0 0 1 -38.8,33.4 z"
           fill="#eecc55"
           stroke="#333333"
           stroke-linejoin="round"
           stroke-width="4"
           id="path168" />
        <path
           d="m 2537.5,1603.6 c 0,0.2 -0.4,1.7 -2.5,4.6 -2.8,3.7 -11.3,1.6 -1.2,13.5 l -22.2,40.3 c 8.3,3 19.4,12.2 30.5,17 l 30.4,-30.4 c -12.7,-10.2 -34.9,-44.5 -35,-45 z"
           fill="#ffffff"
           stroke="#333333"
           stroke-linejoin="round"
           stroke-width="4"
           id="path169" />
        <path
           d="m 2515.7,1628.6 c -2.3,2.6 -1.8,6.7 1,9.2 11.1,9.6 6.3,3.2 9.3,0.2 3.3,-3.3 8.3,-3 -1.1,-9.7 -3,-2.1 -7,-2.3 -9.2,0.3 z m -5.6,13 c -2,2.9 -1.2,7 1.8,9 11.8,8.5 6.5,2.7 9.2,-0.7 3,-3.6 8,-3.8 -2,-9.4 -3.2,-1.8 -7,-1.6 -9,1.2 z m 13.7,-24.6 a 6.3,6.3 0 0 0 0.4,9 c 10.2,9.5 6,3.3 9,0.3 3.4,-3.2 8.3,-2.8 -0.4,-9.4 -2.9,-2.2 -6.6,-2.4 -9,0.1 z m -17.7,37.3 a 5.3,5.3 0 0 0 1.1,7.4 c 9.3,6.7 5.2,2 7.6,-1 2.5,-3 6.5,-3.4 -1.3,-7.8 a 5.6,5.6 0 0 0 -7.4,1.4 z"
           fill="#ffffff"
           stroke="#333333"
           stroke-linecap="round"
           stroke-linejoin="round"
           stroke-width="4"
           id="path170" />
        <path
           d="m 2501.6,1616.3 c -2.3,2.6 -1.1,7.3 2.6,10.5 14.6,12.7 7.9,4.7 11,1.7 3.3,-3.2 9.3,-2.1 -2.8,-11.1 -4,-3 -8.5,-3.7 -10.8,-1.1 z m -6.5,14.6 c -2,2.8 -0.5,7.3 3.4,10.2 15.5,11 8.3,3.8 11,0.5 3,-3.5 9,-3 -3.7,-10.7 -4.1,-2.5 -8.7,-2.8 -10.7,0 z m 15.8,-26 c -2.3,2.5 -1.5,7 1.9,10.3 13.3,12.5 7.3,4.6 10.6,1.7 3.4,-3 9.1,-2 -2,-10.8 -3.7,-3 -8.1,-3.8 -10.5,-1.2 z m -16.6,41 c -1.7,2.3 -0.6,6.1 2.5,8.3 12.1,8.7 6.5,3 9,0 2.5,-3 7.3,-2.8 -2.7,-8.8 -3.3,-2 -7,-2 -8.7,0.4 z m 32.1,-8.5 a 6.1,6.1 0 0 0 0.4,8.6 6.1,6.1 0 0 0 8.6,-0.8 6.1,6.1 0 0 0 -0.4,-8.6 6.1,6.1 0 0 0 -8.6,0.8 z m -5,12 a 6.1,6.1 0 0 0 1.2,8.5 c 2.6,1.9 6.4,1.1 8.4,-1.7 2,-2.8 1.5,-6.6 -1.1,-8.5 -2.6,-1.9 -6.5,-1.2 -8.5,1.6 z m 12.3,-23.6 c -2.4,2.5 -2.5,6.3 -0.2,8.4 2.3,2.2 6,1.9 8.4,-0.6 2.4,-2.5 2.4,-6.3 0.2,-8.5 -2.3,-2.1 -6,-1.8 -8.4,0.7 z m -18.6,34.5 c -1.8,2.4 -1.5,5.6 0.6,7 2,1.6 5.2,0.8 6.9,-1.6 1.7,-2.4 1.5,-5.6 -0.6,-7.1 -2.1,-1.5 -5.2,-0.7 -7,1.7 z m 20.4,-52.4 c 2.1,-3.2 1.8,-7.4 -0.7,-9.4 -2.4,-2 -6,-1 -8.2,2.3 -2,3.2 -1.7,7.4 0.7,9.3 2.5,2 6.2,1 8.2,-2.2 z"
           fill="#ffffff"
           stroke="#333333"
           stroke-linejoin="round"
           stroke-width="4"
           id="path171" />
        <use
           id="u5251"
           transform="translate(43)"
           width="744.09998"
           height="1052.4"
           xlink:href="#p36812" />
        <use
           id="u5253"
           transform="translate(43)"
           width="744.09998"
           height="1052.4"
           xlink:href="#u5251" />
        <use
           id="u5255"
           transform="translate(43)"
           width="744.09998"
           height="1052.4"
           xlink:href="#u5253" />
        <use
           transform="translate(43)"
           width="744.09998"
           height="1052.4"
           xlink:href="#u5255"
           id="use171" />
        <use
           transform="matrix(0.8871,0,0,0.8871,351.3,190.7)"
           width="744.09998"
           height="1052.4"
           xlink:href="#g16907"
           id="use172" />
        <use
           transform="matrix(0.8469,0,0,0.8048,487.8,339.6)"
           width="744.09998"
           height="1052.4"
           xlink:href="#g16907"
           id="use173" />
        <g
           id="g178">
          <g
             id="g5447"
             transform="matrix(0.05310372,0.05310372,-0.05310372,0.05310372,2483.1719,1516.0928)">
            <path
               transform="matrix(0.9405,0,0,0.9405,469.7,-96.4)"
               d="m 2093.2,-377.1 a 42.85,42.85 0 1 1 -85.7,0 42.85,42.85 0 1 1 85.7,0 z"
               fill="#333333"
               id="path173" />
            <g
               id="g175">
              <path
                 transform="matrix(0.9405,0,0,0.9405,544.7,-22)"
                 d="m 2093.2,-377.1 a 42.85,42.85 0 1 1 -85.7,0 42.85,42.85 0 1 1 85.7,0 z"
                 fill="#333333"
                 id="path174" />
              <path
                 transform="matrix(0.9405,0,0,0.9405,394.8,-23)"
                 d="m 2093.2,-377.1 a 42.85,42.85 0 1 1 -85.7,0 42.85,42.85 0 1 1 85.7,0 z"
                 stroke="#333333"
                 id="path175" />
            </g>
            <path
               d="m 2398.1,-40.6 -46.9,-74.5 -56,56.1 c 51.2,-107.7 82.2,-217.5 89.7,-332.4 h 26.4 c 7.5,114.9 38.5,224.7 89.8,332.4 l -56.1,-56 z"
               stroke="#333333"
               id="path176" />
          </g>
          <use
             transform="translate(-37,37.2)"
             width="744.09998"
             height="1052.4"
             xlink:href="#g5447"
             id="use176" />
          <use
             transform="translate(-74,74.4)"
             width="744.09998"
             height="1052.4"
             xlink:href="#g5447"
             id="use177" />
          <use
             transform="translate(-111,111.7)"
             width="744.09998"
             height="1052.4"
             xlink:href="#g5447"
             id="use178" />
        </g>
      </g>
      <use
         transform="rotate(180,2766.4,1719.9)"
         width="744.09998"
         height="1052.4"
         xlink:href="#g5781"
         id="use179" />
    </g>
    <use
       transform="translate(202.7)"
       xlink:href="#frame"
       id="use180" />
    <use
       transform="translate(202.7)"
       xlink:href="#u7712"
       id="use181" />
    <use
       transform="translate(202.7)"
       xlink:href="#u7969"
       id="use182" />
    <use
       transform="translate(2227.5,99.999994)"
       style="stroke:#333333"
       xlink:href="#Q"
       id="use183" />
    <use
       transform="rotate(180,1214.95,107.5)"
       style="stroke:#333333"
       xlink:href="#Q"
       id="use184" />
  </g>
  <g
     id="club_1"
     transform="translate(-2227.5)">
    <rect
       id="card"
       x="0.69999999"
       y="0.69999999"
       width="201.10001"
       height="313.60001"
       rx="9"
       ry="9"
       fill="#ffffff"
       stroke="#333333"
       stroke-width="1.4" />
    <use
       id="u37950"
       transform="rotate(180,101.3,157.5)"
       xlink:href="#clubS" />
    <use
       id="clubS"
       transform="matrix(0.45,0,0,0.45,-28.38,-12.7)"
       xlink:href="#club" />
    <path
       id="club"
       d="m 101.25,132.5 a 11,11 0 0 0 -8.1,18.41 l -0.5,0.52 a 11,11 0 1 0 5.86,13.95 l 0.59,0.37 c 0,7.28 -2.74,13.39 -6.1,16.75 h 16.5 c -3.36,-3.36 -6.1,-9.47 -6.1,-16.75 l 0.59,-0.37 a 11,11 0 0 0 10.26,7.12 11,11 0 1 0 -4.4,-21.07 l -0.5,-0.52 a 11,11 0 0 0 -8.1,-18.41 z"
       style="fill:#333333" />
  </g>
</svg>
