<?xml version="1.0" encoding="UTF-8" standalone="no"?>
<svg
   width="202.5"
   height="315"
   version="1.1"
   id="svg1018"
   xmlns:xlink="http://www.w3.org/1999/xlink"
   xmlns="http://www.w3.org/2000/svg"
   xmlns:svg="http://www.w3.org/2000/svg">
  <defs
     id="defs1018" />
  <g
     id="Q"
     transform="translate(-2227.5,-318.6)"
     style="fill:none;stroke-width:3.5;stroke-linecap:square">
    <path
       d="m 2253.7,-69 v -8.2 c 0,-5.3 -3.8,-9.6 -8.5,-9.6 -4.7,0 -8.5,4.3 -8.5,9.6 v 8.2 c 0,5.3 3.8,9.6 8.5,9.6 4.7,0 8.5,-4.3 8.5,-9.6 z"
       id="path6" />
    <path
       d="m 2235.2,-73.5 c 11.5,0 11.2,11.6 18.4,13.6"
       id="path7" />
  </g>
  <g
     id="club_jack"
     transform="translate(-2227.5,-315)">
    <path
       id="frame"
       d="M 2194.1,281.3 H 2058 V 33.6 h 136.1 z"
       fill="none"
       stroke="#3366aa"
       stroke-linejoin="round"
       stroke-width="2.4" />
  </g>
  <g
     id="diamond_1"
     transform="translate(-2227.5,-315)">
    <use
       id="u41521"
       transform="rotate(180,101.3,472.6)"
       xlink:href="#diamS" />
    <path
       id="diam"
       d="m 123.5,472.5 a 112.97,112.97 0 0 0 -22,26 97.4,97.4 0 0 0 -22.6,-26 c 11,-10.3 15.8,-14.6 22.6,-26 a 112.57,112.57 0 0 0 22,26 z"
       fill="#ee1111" />
    <use
       id="diamS"
       transform="matrix(0.4423,0,0,0.4423,-27.7,164.5)"
       xlink:href="#diam" />
  </g>
  <g
     id="diamond_2"
     transform="translate(-2227.5,-315)">
    <use
       id="u41525"
       transform="translate(202.5)"
       xlink:href="#diamS" />
    <use
       id="u41527"
       transform="translate(202.5)"
       xlink:href="#u41521" />
  </g>
  <g
     id="diamond_4"
     transform="translate(-2227.5,-315)">
    <use
       id="u41545"
       transform="translate(405)"
       xlink:href="#u41525" />
    <use
       id="u41547"
       transform="translate(405)"
       xlink:href="#u41527" />
  </g>
  <g
     id="diamond_jack"
     transform="translate(-2227.5,-315)">
    <use
       id="u19056"
       transform="matrix(0.8808,0,0,0.8808,1991.41,-41.8)"
       xlink:href="#diam" />
    <use
       id="u19268"
       transform="rotate(180,2126,472.5)"
       xlink:href="#u19056" />
  </g>
  <g
     id="diamond_queen"
     transform="translate(-2227.5,-315)">
    <use
       transform="rotate(180,1215,315)"
       xlink:href="#card"
       id="use860" />
    <g
       transform="matrix(0.2407,0,0,0.2675,2239.2,12.4)"
       id="g903">
      <g
         transform="translate(0,1193.7)"
         id="g861">
        <path
           d="M 368.1,240.7 C 288.4,349.3 192.6,439.2 88.7,519.5 L 88.6,684.3 242.4,865.3 376,811.6 C 455.7,703 551.5,613.2 655.4,532.8 c 0,0 -103.9,80.4 0,0 l 0.1,-164.7 -153.8,-181 z"
           fill="#333333"
           id="path860" />
        <path
           d="m 287.1,493.7 c -9,20.4 -22.4,38.8 -39.9,53.1 a 146.2,146.2 0 0 1 -16.6,11.9 H 457 c 9,-20.4 22.4,-38.8 39.8,-53.2 a 146.2,146.2 0 0 1 16.7,-11.8 z"
           fill="#ffffff"
           id="path861" />
      </g>
      <g
         id="g64690">
        <path
           d="m 277.9,1543.1 -32.6,33.6 c 17.7,101.1 -51.8,171.1 -156.7,147.4 v 36.3 C 231,1794 328.3,1687.7 278,1543 Z"
           fill="#3366aa"
           id="path862" />
        <path
           d="m 110.6,1736.9 2,6.7 c 6.8,3.4 2,9 -4.1,10.8 -5.7,-3.2 -8.8,-10 -1.4,-11.5 l 3.5,-6 v 0 m 36.9,1.1 3.3,6.2 c 7.3,2 3.8,8.4 -2,11.4 -6,-2 -10.5,-8.1 -3.5,-11 l 2.2,-6.6 v 0 m 35.5,-7 4.8,5.1 c 7.5,0 5.9,7.2 1.1,11.5 -6.4,-0.3 -12.3,-5.2 -6.3,-9.7 l 0.4,-6.9 v 0 m 31.7,-16.7 5.9,3.6 c 7.1,-2.5 7.9,5 4.5,10.6 -6.2,1.5 -13.1,-1 -8.9,-7.3 l -1.5,-6.9 v 0 m 24.1,-25.7 6.7,1.4 c 6,-4.8 9.2,2.1 7.9,8.4 -5.4,3.6 -12.8,3.4 -10.8,-3.9 l -3.8,-6 v 0 m 14.6,-32.3 6.9,-0.8 c 4.2,-6.4 9.3,-0.8 10,5.6 -4,5 -11.2,7 -11.4,-0.5 l -5.5,-4.3 v 0 m 5,-36 6.5,-2.5 c 2.5,-7.1 8.9,-3 11.2,3 -2.6,5.9 -9,9.7 -11.3,2.5 l -6.3,-3 v 0 m -3.3,-36.5 5.7,-4 c 1,-7.5 8,-4.8 11.5,0.6 -1.2,6.3 -6.8,11.4 -10.5,4.8 l -6.7,-1.4 v 0 m -3.5,-11.3 3.9,5.4 c 1.8,-15.8 16.6,-10.3 24.2,1 -2.7,13.3 -14.3,24 -22,10.2 l -3.5,13.2 5.8,12.4 c 5.2,-15 18.6,-6.4 23.5,6.2 -5.5,12.5 -19.3,20.4 -23.7,5 l -6.3,12.1 2.8,13.3 c 8.7,-13.3 19.6,-1.7 21.2,11.8 -8.4,10.7 -23.8,14.9 -24.3,-1 l -9.2,9.8 -1.2,13.3 c 12,-10.5 19.4,4.2 16.7,17.5 -11.3,7.5 -27.3,6.7 -22.7,-8.6 l -11.8,6.3 -5.4,12 c 14.8,-5.8 16.9,10.6 9.9,22.2 -13.2,3.3 -28,-2.8 -18.5,-15.7 l -13.2,2 -9.2,9.8 c 16,-0.7 12.8,15 2.7,24 -13.5,-0.6 -26,-11.3 -12.9,-20.5 l -13.7,-1.9 -11.6,7 c 15.5,3.5 8.4,17.7 -3.7,23.8 -13,-4.1 -22.3,-17 -7.5,-23 l -12.7,-5.1 -13.3,4.2 c 14.5,6.7 4.7,19 -8.4,22.7 -11.9,-6.6 -18.4,-21 -2.8,-24 l -14,-8"
           fill="none"
           stroke="#ffffff"
           stroke-linecap="round"
           stroke-linejoin="round"
           stroke-width="4.3"
           id="path863" />
        <path
           d="m 499.1,1403.5 c -17.9,40 -44.2,48.3 -62.6,64 a 32.6,32.6 0 0 1 -3.8,2.7 137,137 0 0 0 82.9,-25.7 362,362 0 0 1 -16.5,-41 z m -129.3,30.3 -1.7,0.7 a 1143.3,1143.3 0 0 1 -13.8,18.4 202.8,202.8 0 0 0 34.5,11.8 91.3,91.3 0 0 1 -19,-31 z"
           fill="#ffffff"
           id="path864" />
        <path
           d="m 542,1428.2 a 172.4,172.4 0 0 1 -112.1,42.3 c -26.8,0 -52.3,-6.4 -75.3,-18 a 1182,1182 0 0 1 -39.7,49 c 31.7,20 71.7,31.9 115,31.9 61.3,0 115.8,-23.8 150,-60.6 z m 45.8,53.8 a 232,232 0 0 1 -157.1,59 c -45,0 -87,-12 -121.6,-32.6 a 1222.6,1222.6 0 0 1 -22.4,25 277.7,277.7 0 0 0 144,39.4 271,271 0 0 0 179,-65 z"
           fill="#eecc55"
           stroke="#333333"
           stroke-width="2.4"
           id="path865" />
        <path
           d="m 516.3,1492.2 -7.1,-16.1 c -1.8,-4.2 -0.6,-8.8 3.8,-11 a 8.4,8.4 0 0 1 11.4,3.4 l 8.5,15.4 m -12,-10.2 8,15.7 c 2,4 8.5,5.8 13.5,2 m -43,-8 6.6,16.3 c 1.7,4.3 7.4,6 12,4.1 4.6,-1.9 7,-7.3 5,-11.5 l -7.5,-15.9 m -22.4,24.8 -5.6,-16.7 c -1.4,-4.4 0.7,-9 5.3,-10.7 4.7,-1.7 9.2,0.4 11,4.7 l 6.5,16.3 m -33,-4.2 4.5,17 c 1.2,4.4 6.6,6.8 11.3,5.4 4.7,-1.4 8.3,-6.7 6.8,-11 l -6.1,-16.5 m -49.9,25.3 -1.2,-17.5 c -0.3,-4.6 2.8,-8.6 7.8,-9 5,-0.4 8.2,2.5 9,7 l 3,17.4 m 6.3,-1.2 -3.5,-17.3 a 8.4,8.4 0 0 1 6.6,-10 c 4.8,-1 8.6,1.6 10,6 l 5,16.9 m -32.4,-8 2.3,17.4 c 0.6,4.6 5.7,7.6 10.6,6.8 4.9,-0.8 9,-5.7 8,-10.2 l -4,-17.1 m -40.1,4.7 v 17.6 c 0.1,4.6 5.3,8.4 10.3,8 5,-0.3 9.1,-4.5 8.7,-9 l -1.8,-17.5 m -29.7,15.3 1,-17.6 c 0.3,-4.6 3.3,-8 8.3,-8 a 8.4,8.4 0 0 1 8.7,8.1 l 0.6,17.6 m -29.3,-15.7 -2.2,17.5 c -0.5,4.5 4.2,8.9 9.1,9.2 5,0.3 9.7,-3.3 9.8,-8 l 0.5,-17.5 m -55.6,5.8 4.8,-17 c 1.2,-4.4 5.6,-7 10.4,-5.7 4.8,1.3 7.3,5.5 6.4,10 l -3.8,17.2 m 6.4,1.2 3.2,-17.3 c 0.8,-4.5 4.3,-7.6 9.2,-7 5,0.6 8,4.6 7.6,9.2 l -1.6,17.5 m -27.2,-19.1 -4.3,17 c -1,4.5 3,9.3 7.9,10.2 4.9,1 10,-2 10.7,-6.6 l 2.7,-17.4 m -39.5,-10 -5.8,16.6 c -1.5,4.4 1.6,9.4 6.3,11 4.7,1.4 10.1,-1 11.4,-5.4 l 4.8,-16.9 m -32.8,-23.1 c 1.7,2 1.9,6.3 1,8.4 l -7.3,16 m 6,2.6 6.7,-16.2 a 8.4,8.4 0 0 1 11,-4.6 c 4.6,1.8 6.3,6.2 4.9,10.6 l -5.3,16.8 m -22.4,-24.9 -7.7,15.9 c -2,4.1 0.5,9.4 5,11.4 4.6,2 10.6,0.4 12.3,-3.9 l 6.2,-16.4"
           fill="none"
           stroke="#333333"
           stroke-linecap="round"
           stroke-linejoin="round"
           stroke-width="4.3"
           id="path866" />
        <g
           transform="matrix(0.1729,1.2288,-1.0848,0.2169,778.4,1351)"
           id="g870">
          <path
             d="m 178.6,638.4 c -2.5,-4 -20.4,-19.2 -11.6,-12.6 8.8,6.5 15.7,9 16.1,11 z m -12.2,-18.1 c 3.3,10.1 17.4,6 12.1,-3.8 -2.6,-4.7 -3.5,-0.3 -5.8,1.7 -2.6,2.3 -4.8,-6.6 -4.8,-14.5 a 19.3,19.3 0 0 0 -1.5,16.6 v 0 m 9.1,-8.3 c -8.6,2.2 -5,-5 -2.2,-10.5 5.5,-10.9 -7.3,-28.7 -15.4,-30.8 11.1,-1.1 15.6,-9 14.6,-1.8 7.9,-0.3 0.4,5.8 -4,3.5 10.3,12 29,28.1 7,39.6 v 0 m -29,-39.2 c -5.8,2.9 -1.5,8.7 4,5 2.8,-1.7 0.5,-2 -0.9,-2.8 -1.5,-1 3.7,-3 8.3,-3.8 -3.2,-1 -7.7,-0.3 -11.4,1.6 v 0 m 21.5,19.7 c 1,5.5 -8.8,9.7 -11.6,-0.6 -0.9,-3.5 1.4,-4.5 4.4,-4 3.4,0.4 -3.8,-9.2 -3.8,-18 a 57,57 0 0 1 11,22.6 v 0 m -5.7,-41.7 c -0.7,-8 -11.8,-4.5 -9.6,3.4 1,3.8 1.8,1.7 3.7,0.3 2,-1.6 2.8,10.4 1.8,16.3 2.7,-3.7 4.6,-15 4.1,-20 v 0 m -28.8,-3.5 c 8.4,6.8 -4.2,-25.4 7.5,-21.4 7.4,2.5 2.8,10.3 -0.3,13.7 -4.2,4.6 11.3,26.3 18.7,29.6 -10.7,-2.1 -20.7,-3.2 -26,-7.4 -2.3,-2.8 1.6,-5.7 5.3,-3 -1.5,-1.4 -6.5,-12.6 -5.2,-11.5 v 0 m -8,-19.6 c -4.4,-6.4 -12.5,1.7 -7,7.5 2.8,2.8 2.8,1 3.8,-1 1.2,-2.3 8,8.4 9.7,14 0.8,-4.4 -3.6,-16.4 -6.4,-20.5 v 0"
             fill="#eecc55"
             stroke="#333333"
             stroke-linecap="round"
             stroke-linejoin="round"
             stroke-width="0.9"
             id="path867" />
          <g
             transform="translate(-425.9,131)"
             id="g869">
            <path
               d="m 586.7,434 c -2.5,-0.8 -4,-0.4 -4.5,0.6 -0.4,1 -0.5,2.8 2.5,4 -1.5,2.7 -0.2,3.6 0.5,3.9 0.8,0.3 2.2,0.6 3.5,-2.6 3.5,2 4,0.2 4.4,-0.5 0.3,-0.6 1,-2.3 -2.3,-3.5 1.3,-2.8 -0.1,-4.3 -0.9,-4.6 -0.8,-0.3 -2,0.1 -3.2,2.7 v 0"
               fill="#eecc55"
               stroke="#333333"
               stroke-linecap="round"
               stroke-linejoin="round"
               stroke-width="0.9"
               id="path868" />
            <path
               d="m 585.9,437.8 c 0.3,0.6 0.8,1 1.6,1 0.7,0 1.4,-0.2 1.8,-0.8 0.5,-0.6 0.6,-1.3 0.3,-2 a 1.8,1.8 0 0 0 -1.6,-1 c -0.7,0 -1.4,0.3 -1.8,0.9 a 1.9,1.9 0 0 0 -0.3,1.9"
               id="path869" />
          </g>
        </g>
        <path
           d="m 567.6,1512.2 c -2.4,4 1,15.4 -2.6,17.4 -3.7,2 -14.4,-9.7 -18.2,-7.8 -3.7,1.9 -0.8,17.4 -4.6,19.1 -3.8,1.7 -13.7,-10.7 -17.6,-9.2 -3.9,1.5 -2.4,17.3 -6.3,18.7 -3.9,1.4 -12.6,-11.8 -16.6,-10.6 -4,1.1 -4,17 -8,18 -4,1 -11.7,-13 -15.8,-12 -4.1,1 -5.5,16.5 -9.6,17 -4.1,0.5 -10.2,-14 -14.3,-13.5 -4.2,0.4 -7.2,16 -11.4,16.1 -4.1,0.2 -8.6,-15 -12.8,-15 -4.2,0 -8.8,15.2 -13,15 -4.2,-0.2 -7,-15.9 -11.2,-16.3 -4.2,-0.4 -10.4,14.3 -14.5,13.6 -4,-0.8 -5.3,-16.5 -9.4,-17.3 -4.1,-0.8 -11.5,13 -15.6,12 -4.1,-1 -3.9,-16.9 -7.8,-18.1 -3.9,-1.2 -12.9,11.9 -16.8,10.5 -4,-1.4 -2.2,-17.1 -6,-18.8 -3.9,-1.6 -14,10.7 -17.8,9 -3.8,-1.7 -0.8,-17.4 -4.5,-19.3 -3.7,-2 -16.6,9.2 -20.3,7.2"
           fill="none"
           stroke="#333333"
           stroke-width="4.3"
           id="path870" />
        <path
           d="m 454,1255.2 c 33.3,43.4 70.8,138.4 91.5,188 12.3,29.6 25.2,54 40,76 -36.8,-7 -68.4,-62 -86.4,-115.8 -17.9,40.1 -44.2,48.4 -62.6,64 a 36,36 0 0 1 -46.4,-1.3 87,87 0 0 1 -24.5,-51.9 c -0.8,-9.7 -10.2,-28.3 -3.6,-95 0.8,-8.3 0.7,-50.6 0.3,-64 z"
           fill="#ffffff"
           id="path871" />
        <path
           transform="matrix(-0.9354,-0.8634,-0.9898,0.9136,1256.2,902)"
           d="m 221.6,681.8 a 4.85,4.85 0 1 1 -9.7,0 4.85,4.85 0 1 1 9.7,0 z"
           fill="none"
           stroke="#3366aa"
           stroke-width="2"
           id="path872" />
        <path
           d="m 373.4,1340 c 2,2.4 1.3,-2 3.6,-3.7 2.4,-1.7 7,-0.2 5,-2.6 -1.8,-2.5 -5,-2.4 -7.4,-0.7 -2.4,1.8 -3,4.6 -1.2,7 z"
           fill="#3366aa"
           stroke="#3366aa"
           stroke-width="2.2"
           id="path873" />
        <path
           transform="matrix(-0.4658,-0.4299,-0.4952,0.4571,817.3,1120)"
           d="m 221.6,681.8 a 4.85,4.85 0 1 1 -9.7,0 4.85,4.85 0 1 1 9.7,0 z"
           fill="#333333"
           id="path874" />
        <path
           d="m 400.6,1314.1 0.6,6 a 53.5,53.5 0 0 0 -37.6,-1 l -0.5,-1.3 c 12.9,-2.2 16.4,-6.8 37.5,-3.7 z m 22.2,0.2 -4.7,7 c 21.5,-10.2 34.9,4.1 55,-0.5 -25.6,-0.8 -24.4,-10.8 -50.3,-6.5 z"
           fill="#3366aa"
           stroke="#3366aa"
           stroke-miterlimit="1"
           stroke-width="2"
           id="path875" />
        <path
           transform="matrix(0.9354,-0.8634,0.9898,0.9136,-439.6,902.2)"
           d="m 221.6,681.8 a 4.85,4.85 0 1 1 -9.7,0 4.85,4.85 0 1 1 9.7,0 z"
           fill="none"
           stroke="#3366aa"
           stroke-width="2"
           id="path876" />
        <path
           d="m 442.5,1333.8 c 2.6,2.4 -2.5,1 -5,3.3 -2.5,2.3 -1.4,7.5 -4,5 -2.6,-2.5 -2,-5.8 0.4,-8.1 2.5,-2.3 6,-2.6 8.6,-0.2 z"
           fill="#3366aa"
           stroke="#3366aa"
           stroke-width="2.6"
           id="path877" />
        <path
           transform="matrix(0.4658,-0.4299,0.4952,0.4571,-0.7,1120.2)"
           d="m 221.6,681.8 a 4.85,4.85 0 1 1 -9.7,0 4.85,4.85 0 1 1 9.7,0 z"
           fill="#333333"
           id="path878" />
        <path
           d="m 425.8,1330.4 c 8.3,-5.4 9,-5.7 18,-3.2 7,1.8 12.9,5.2 19.7,9.9 l 0.3,2.8 c -13.9,-4 -20.9,-9.6 -35.6,-7.4 z m -36.4,-0.2 c -6,-4 -10.3,-5.6 -14.7,-4.8 -3.3,0.7 -9.4,6.3 -12,8 l -0.9,3.1 c 8.2,-2.1 11.9,-6.4 26.5,-4.2 z"
           fill="#3366aa"
           stroke="#3366aa"
           stroke-linecap="round"
           stroke-linejoin="round"
           stroke-width="1.4"
           id="path879" />
        <path
           d="m 405,1430.7 c 1,0.5 4.2,0.7 5,-0.1 5.3,2.9 6.5,3.4 15,4 -10.1,3.1 -11,2.3 -15.9,2.4 -5,0.1 -9.3,-0.6 -18,-2.7 6.8,-0.6 10,-1.7 13.9,-3.6 z"
           fill="#3366aa"
           stroke="#3366aa"
           stroke-linecap="round"
           stroke-linejoin="round"
           stroke-width="4.3"
           id="path880" />
        <path
           d="m 419.4,1402.7 c 8,5 0.6,14 -6.3,10.9 -4.2,-2 -2.5,-4.7 -8.2,-1.8 m -0.8,-87.2 c -4.8,71.5 -3.7,64.3 -8.9,72.7 -6.9,11.2 -1.2,15.2 3.3,16.7 l 0.2,11.3 m 21.4,-87.1 c 8.4,-2 12,-8.4 18.8,-8 7.2,0.6 12.5,6.6 22.2,8.9 -12.3,0.4 -17.5,8.2 -24,7 -6.5,-1 -8.6,-5.1 -17,-8 z m 16.2,12.7 c 9.8,1.6 13.8,-0.6 21.5,-5.2 m -95,-8 -0.2,3.2 c 10.4,4 11.5,6.4 18,5.3 6.5,-1.1 7.5,-5.4 15.9,-8.2 -8.4,-2 -12.2,-8 -19,-7.5 -7.3,0.5 -9.3,5.3 -14.7,7.2 z m 17.7,14 a 28,28 0 0 1 -18.8,-5.1 m 38.4,102.3 c 6.1,-5 9.2,-2 12.6,0 m 86.3,-45.3 c -17.8,40 -44.1,48.2 -62.5,63.8 a 36,36 0 0 1 -46.4,-1.3 87,87 0 0 1 -24.5,-51.8 c -0.8,-9.8 -10.3,-28.4 -3.6,-95 0.8,-8.3 0.7,-49.2 0.3,-62.6 m 11,0 a 16.8,16.8 0 0 1 -10.6,8.7 m 22.3,-8.7 c -4.2,11 -12.5,15 -21.4,18.7 m 32.6,-18.7 a 49.7,49.7 0 0 1 -33.2,29.6 m 43.4,-29.6 c -10.8,25 -20.4,31.6 -43.7,40.1 m 83.7,-40 c 2.5,4.5 8.6,8 14,10 m -24.5,-10 c 4.2,11 23.6,18.7 32.6,22.4 m -43.9,-22.5 c 7.6,16.2 33.3,28.4 50.8,34.6 m -61.7,-34.6 c 8.5,22.8 43,39.9 69.2,45.5 m 24.4,48.4 c 0,19 38.6,111.7 48.5,115.3 M 492.4,1321 c -7.5,22.5 24.7,155.2 84.8,185.2 M 485,1306.6 c -10.8,46.6 37,200.6 100.4,212.8 M 567,1488 c -27.6,-10.7 -70.7,-121.1 -68,-153"
           fill="none"
           stroke="#3366aa"
           stroke-linecap="round"
           stroke-linejoin="round"
           stroke-width="4.3"
           id="path881" />
        <path
           d="m 631,1431.6 c -14.6,-2.9 -78.4,0.4 -86.5,6.2 -19.4,-50 -57.2,-136.1 -90.5,-179.5 h 123.4 c 3.5,54 22.3,119.3 53.6,173.3 z"
           fill="#eecc55"
           stroke="#333333"
           stroke-linejoin="round"
           stroke-width="4.5"
           id="path882" />
        <path
           d="m 360.8,1332.7 c -52,43.2 -69.7,122.1 -66.1,191.8 a 1221.9,1221.9 0 0 0 30.2,-34.9 c 4.6,-42.8 17.5,-80.3 35.5,-107 -1,-11.9 -1.2,-27.8 0.4,-49.9 z m 205.3,96.1 c 31,56 78.7,104 89.4,107 v 62.2 c -51.3,-47.4 -82,-87.7 -110,-154.8 -20.7,-49.6 -58.2,-144.6 -91.5,-188 h 27.5 c 35.8,52.7 52.2,113.5 84.6,173.6 z"
           fill="#333333"
           id="path883" />
        <g
           id="g5433"
           transform="matrix(-0.2396,-0.4666,-0.4784,0.2456,592.3,1085.8)">
          <path
             d="m -302.1,258.3 c 0.8,-13.8 5.6,-20.1 11.3,-20.3 5.6,-0.2 14.5,4 14.3,20.8 15.9,-0.5 18,8.3 17.6,12.2 -0.6,4.4 -2,11.4 -20,9.9 1.8,21.2 -8,1 -12,0.8 -4,-0.2 -12.3,18.9 -11.2,0.3 -16,0 -19.4,-9.6 -19.4,-13.9 0,-4.6 4.6,-9.6 19.4,-9.8 z"
             fill="#333333"
             stroke="#ee1111"
             stroke-linejoin="round"
             stroke-width="3.6"
             id="path884" />
          <path
             transform="matrix(0.2638,0,0,0.2683,-230,197.8)"
             d="m -198.2,267.5 a 30.7,30.7 0 1 1 -61.4,0 30.7,30.7 0 1 1 61.4,0 z"
             fill="#333333"
             stroke="#ee1111"
             stroke-linejoin="round"
             stroke-width="13"
             id="path885" />
        </g>
        <path
           d="m 484.1,1257.8 c 44.4,75.5 64.8,140.7 84,172.7 l 22.3,-2.4 c -6.5,-1.1 -25.1,-21.6 -15.7,-34.7 -15.7,-0.8 -31.6,-38 -24.9,-49.6 -11.6,0.9 -33,-36.5 -26.2,-51 -13.5,-1 -24.6,-19 -20.3,-35 z"
           fill="#ee1111"
           stroke="#3366aa"
           stroke-linecap="round"
           stroke-linejoin="round"
           stroke-width="4.3"
           id="path886" />
        <path
           d="m 628.3,1428.8 c -26.7,-45 -50,-119.6 -52,-172.1 l -9.4,0.2 c 2.1,8.3 0.2,12 -5.5,22.8 16.3,4 22.7,32.5 16.2,52.2 9.3,3.1 20.7,28.6 20.5,51 12.3,9.1 17.9,32.5 13.3,45.5 z"
           fill="#3366aa"
           id="path887" />
        <path
           d="m 360.4,1382.5 c -18,26.8 -30.9,64.3 -35.5,107.1 a 1160.1,1160.1 0 0 0 43.2,-55.2 661,661 0 0 1 -7.7,-51.9 z"
           fill="#ee1111"
           id="path888" />
        <path
           id="p5540"
           d="m 327.8,1719.9 a 46.3,46.3 0 0 0 -17.3,22.7 46.2,46.2 0 0 0 -17.3,-22.7 46.2,46.2 0 0 0 17.3,-22.7 46.4,46.4 0 0 0 17.3,22.7 z"
           fill="#ee1111" />
        <path
           d="m 245.3,1576.7 c 17.7,101.1 -51.8,171 -156.7,147.4"
           fill="none"
           stroke="#ee1111"
           stroke-linejoin="round"
           stroke-width="5.3"
           id="path889" />
        <path
           d="m 88.7,1713.2 c 103.9,-80.3 198.4,-169 278.1,-277.6"
           fill="none"
           stroke="#333333"
           stroke-linecap="round"
           stroke-linejoin="round"
           stroke-width="5.3"
           id="path890" />
        <path
           d="m 531.2,1561.6 c -9.3,46 -29.4,81 -64.6,117.3 h 53.1 a 204.2,204.2 0 0 0 69,-146"
           fill="#3366aa"
           stroke="#ffffff"
           stroke-linecap="round"
           stroke-width="5.3"
           id="path891" />
        <path
           d="m 517.2,1675.5 c 49.1,-46.6 62.6,-91.2 67.2,-142.3 m -48.6,24.3 c -6.2,46.7 -35.6,96.4 -60.5,118.4 l 41.9,-0.4"
           fill="none"
           stroke="#333333"
           stroke-linecap="round"
           stroke-linejoin="round"
           stroke-width="5.3"
           id="path892" />
        <path
           d="m 515.5,1668.3 c -7,0 -9.2,0.3 -15.6,3 2.4,-6.6 2.4,-8.3 1.1,-15.1 7,0 8.9,0 15,-3.6 a 29.6,29.6 0 0 0 -0.5,15.7 m 41.7,-58.3 c -9.3,2.4 -11.7,4 -19.4,9.6 1,-9.5 0.2,-11.8 -4,-20.4 9.2,-2.4 11.4,-3.3 17.9,-10.3 0.7,9.6 1.3,12.5 5.5,21.1 m 13.6,-41.8 a 49.2,49.2 0 0 0 -17,15.4 c -1.6,-10 -3,-11.9 -9.8,-19.3 8.6,-5.2 10.6,-7 16,-15.6 2.6,9.7 4,12 10.8,19.5 M 537,1644 c -8.7,0.7 -11.1,1.7 -19,5.6 2.5,-8.4 2,-10.6 -0.4,-19 8.7,-0.7 10.7,-1.1 17.7,-6.4 -0.8,8.7 -0.8,11.4 1.7,19.8 m 57.8,-111.8 c -3.6,68.5 -29.2,112 -67,148 41,-16.3 81.1,-22.5 127.6,-11.3 V 1598 a 475.4,475.4 0 0 1 -60.6,-65.8 z M 296.5,1636.5 H 492 a 208.7,208.7 0 0 0 31,-72.6 c -57,19.3 -116.6,18.1 -174.3,3.3 z"
           fill="#ee1111"
           id="path893" />
        <path
           d="m 156.2,1509 c 1,30.8 -27,50.3 -21.8,78.4"
           fill="none"
           stroke="#333333"
           stroke-linecap="round"
           stroke-linejoin="round"
           stroke-width="5.3"
           id="path894" />
        <path
           d="m 134.5,1568.5 c -6.2,-18.2 -0.2,-22 -18.5,-38.3 3.7,22.6 3.6,33 18.5,38.3 z m 0.6,7.9 c 16,-27 27.1,-24.2 43.5,-27 a 70.7,70.7 0 0 1 -43.5,27 z"
           fill="#eecc55"
           stroke="#333333"
           stroke-linecap="round"
           stroke-linejoin="round"
           stroke-width="2.5"
           id="path895" />
        <path
           d="m 148.5,1585.6 c -0.1,0.2 -0.4,1.7 -2.6,4.6 -2.7,3.7 -11.2,1.6 -1.1,13.5 l -22.3,40.3 c 8.4,3 18.5,11.3 29.7,16 l 33.2,-27.5 c -12.8,-10.2 -36.8,-46.4 -37,-46.9 z"
           fill="#ffffff"
           stroke="#333333"
           stroke-linejoin="round"
           stroke-width="3.2"
           id="path896" />
        <path
           d="m 126.8,1610.6 c -2.3,2.6 -1.8,6.7 1,9.2 11,9.6 6.3,3.2 9.3,0.2 3.3,-3.3 8.3,-3 -1.1,-9.7 -3,-2.1 -7,-2.3 -9.2,0.3 z m -5.7,13 c -2,2.9 -1.2,7 1.8,9 11.8,8.5 6.5,2.7 9.3,-0.7 2.9,-3.6 7.9,-3.8 -2,-9.4 -3.2,-1.8 -7,-1.6 -9,1.2 z m 13.8,-24.5 a 6.3,6.3 0 0 0 0.4,8.9 c 10.1,9.6 5.9,3.3 9,0.3 3.4,-3.2 8.3,-2.8 -0.4,-9.4 -2.9,-2.2 -6.6,-2.4 -9,0.1 z m -17.7,37.2 a 5.3,5.3 0 0 0 1.1,7.4 c 9.3,6.7 5.2,2 7.5,-1 2.6,-3 6.6,-3.4 -1.2,-7.8 -2.5,-1.4 -5.7,-1 -7.4,1.4 z"
           fill="#ffffff"
           stroke="#333333"
           stroke-linejoin="round"
           stroke-width="3.2"
           id="path897" />
        <path
           d="m 112.6,1598.3 c -2.3,2.6 -1.1,7.3 2.6,10.5 14.5,12.7 7.9,4.7 11,1.7 3.3,-3.2 9.3,-2.1 -2.8,-11.1 -4,-3 -8.6,-3.7 -10.8,-1.1 z m -6.5,14.6 c -2,2.8 -0.5,7.3 3.4,10.2 15.5,11 8.3,3.8 11,0.5 3,-3.5 9,-3 -3.7,-10.7 -4.1,-2.5 -8.7,-2.8 -10.7,0 z m 15.8,-26 c -2.3,2.5 -1.5,7 1.9,10.3 13.3,12.5 7.3,4.6 10.5,1.7 3.5,-3 9.2,-2 -2,-10.8 -3.6,-3 -8,-3.8 -10.4,-1.2 z m -16.6,41 c -1.7,2.3 -0.6,6.1 2.5,8.3 12.1,8.7 6.5,3 9,0 2.5,-3 7.3,-2.8 -2.7,-8.8 -3.3,-2 -7,-2 -8.8,0.4 z m 32.1,-8.4 a 6.1,6.1 0 0 0 0.5,8.6 6.1,6.1 0 0 0 8.6,-0.8 6.1,6.1 0 0 0 -0.4,-8.6 6.1,6.1 0 0 0 -8.7,0.8 z m -5,12 c -2,2.8 -1.4,6.6 1.2,8.5 2.6,1.9 6.5,1.1 8.5,-1.7 a 6,6 0 0 0 -1.2,-8.5 c -2.7,-1.9 -6.4,-1.2 -8.5,1.6 z m 12.3,-23.6 c -2.4,2.5 -2.4,6.3 -0.2,8.4 2.3,2.2 6,1.9 8.5,-0.6 2.3,-2.6 2.4,-6.3 0.1,-8.5 -2.3,-2.1 -6,-1.8 -8.4,0.7 z m -18.6,34.5 c -1.8,2.4 -1.5,5.6 0.6,7 2.1,1.4 5.2,0.8 7,-1.6 1.7,-2.4 1.4,-5.6 -0.7,-7.1 -2,-1.5 -5.2,-0.7 -7,1.7 z m 20.5,-52.4 c 2,-3.2 1.7,-7.4 -0.7,-9.4 -2.5,-2 -6.1,-1 -8.2,2.3 -2,3.2 -1.8,7.4 0.7,9.3 2.5,1.9 6.1,1 8.2,-2.2 z"
           fill="#ffffff"
           stroke="#333333"
           stroke-linejoin="round"
           stroke-width="3.2"
           id="path898" />
        <path
           d="m 153.8,1514.2 c -4.9,6.2 -18.8,7.4 -30,12.1 2,-8.5 16.5,-18.7 26.5,-18.2 -7.7,-2 -25.6,-6.7 -31.6,-12.7 9.2,-5.4 30.1,-0.2 33.3,3.2 -0.7,-6.3 -0.4,-18.4 10.2,-20.8 3.2,6.8 1.7,15.8 0.8,21.6 6.1,-3.5 23,-4.1 33,2.6 -10,2.8 -22.8,5.3 -30.1,5 7,2.3 22,12.7 24,21.2 -10.9,-3.7 -21.9,-7.5 -27.2,-14 -2,8 -1,18.7 -6.9,27.4 -7.6,-11.3 -2.9,-21.6 -2,-27.4 z"
           fill="#ffffff"
           stroke="#3366aa"
           stroke-linejoin="round"
           stroke-width="4.3"
           id="path899" />
        <path
           transform="matrix(1.4814,0,0,1.4814,-76.2,1045)"
           d="m 161.1,310.6 a 3.65,3.0416667 0 1 1 -7.3,0 3.65,3.0416667 0 1 1 7.3,0 z"
           fill="#eecc55"
           id="path900" />
        <use
           id="u56866"
           transform="matrix(0.948,0,0,0.948,54,118.4)"
           width="744.09998"
           height="1052.4"
           xlink:href="#g5433" />
        <use
           transform="matrix(0.9039,0,0,0.9039,77.8,178.6)"
           width="744.09998"
           height="1052.4"
           xlink:href="#u56866"
           id="use900" />
        <use
           transform="translate(41)"
           width="744.09998"
           height="1052.4"
           xlink:href="#p5540"
           id="use901" />
        <path
           d="m 168.4,1512.2 c -2.9,-3.4 -5.2,-7.3 -11.2,-7.3 4.4,-7 18,-10.4 25.7,-9.3 m -11.2,-13.5 a 79.7,79.7 0 0 0 -14.4,22.8 m -23.7,0.7 c 4.3,-2.6 15.5,-9.8 23.6,-0.7 a 33.7,33.7 0 0 0 -17.6,-21.2"
           fill="none"
           stroke="#ffffff"
           stroke-linecap="round"
           stroke-linejoin="round"
           stroke-width="2.2"
           id="path901" />
        <path
           d="m 157.1,1506.1 c -3.3,-11 1.8,-27.5 1.3,-34.7"
           fill="none"
           stroke="#ffffff"
           stroke-linecap="round"
           stroke-linejoin="round"
           stroke-width="2.2"
           id="path902" />
        <path
           d="m 169.2,1512.1 -0.7,0.8 m 14.8,-18.2 v 1 m -11.8,-14.9 0.6,0.7 m -33,2.3 0.5,-0.5 m -7.1,23.3 -0.6,-1.2"
           stroke="#eecc55"
           stroke-linecap="round"
           stroke-linejoin="round"
           stroke-width="4.3"
           id="path903" />
      </g>
      <use
         transform="rotate(180,372,1719.9)"
         width="744.09998"
         height="1052.4"
         xlink:href="#g64690"
         id="use903" />
    </g>
    <use
       transform="translate(1620)"
       xlink:href="#u41545"
       id="use904" />
    <use
       transform="translate(1620)"
       xlink:href="#u41547"
       id="use905" />
    <use
       transform="translate(202.7,315)"
       xlink:href="#frame"
       id="use906" />
    <use
       transform="translate(202.7)"
       xlink:href="#u19056"
       id="use907" />
    <use
       transform="translate(202.7)"
       xlink:href="#u19268"
       id="use908" />
    <use
       transform="translate(2227.5,730)"
       style="stroke:#ee1111"
       xlink:href="#Q"
       id="use909" />
    <use
       transform="rotate(180,1214.95,107.5)"
       style="stroke:#ee1111"
       xlink:href="#Q"
       id="use910" />
  </g>
  <g
     id="club_1"
     transform="translate(-2227.5,-315)">
    <rect
       id="card"
       x="0.69999999"
       y="0.69999999"
       width="201.10001"
       height="313.60001"
       rx="9"
       ry="9"
       fill="#ffffff"
       stroke="#333333"
       stroke-width="1.4" />
  </g>
</svg>
