<?xml version="1.0" encoding="UTF-8" standalone="no"?>
<svg
   width="202.5"
   height="315"
   version="1.1"
   id="svg1018"
   xmlns:xlink="http://www.w3.org/1999/xlink"
   xmlns="http://www.w3.org/2000/svg"
   xmlns:svg="http://www.w3.org/2000/svg">
  <defs
     id="defs1018" />
  <g
     id="Q"
     transform="translate(-2227.5,-633.6)"
     style="fill:none;stroke-width:3.5;stroke-linecap:square">
    <path
       d="m 2253.7,-69 v -8.2 c 0,-5.3 -3.8,-9.6 -8.5,-9.6 -4.7,0 -8.5,4.3 -8.5,9.6 v 8.2 c 0,5.3 3.8,9.6 8.5,9.6 4.7,0 8.5,-4.3 8.5,-9.6 z"
       id="path6" />
    <path
       d="m 2235.2,-73.5 c 11.5,0 11.2,11.6 18.4,13.6"
       id="path7" />
  </g>
  <g
     id="club_jack"
     transform="translate(-2227.5,-630)">
    <path
       id="frame"
       d="M 2194.1,281.3 H 2058 V 33.6 h 136.1 z"
       fill="none"
       stroke="#3366aa"
       stroke-linejoin="round"
       stroke-width="2.4" />
  </g>
  <g
     id="heart_1"
     transform="translate(-2227.5,-630)">
    <use
       id="u41664"
       transform="rotate(180,101.3,787.6)"
       xlink:href="#heartS" />
    <path
       id="heart"
       d="M 101.3,810.3 C 91.3,795.3 79,788 79,776.8 c 0,-6.2 4.7,-12 11,-12 6.6,0 10.6,5.2 11.2,12 0.7,-6.8 4.7,-12 11.2,-12 6.4,0 11,5.8 11,12 0,11.2 -12.1,18.5 -22.1,33.5 z"
       fill="#ee1111" />
    <use
       id="heartS"
       transform="matrix(0.4498,0,0,0.4498,-28.4,334.3)"
       xlink:href="#heart" />
  </g>
  <g
     id="heart_2"
     transform="translate(-2227.5,-630)">
    <use
       id="u41668"
       transform="translate(202.5)"
       xlink:href="#heartS" />
    <use
       id="u41670"
       transform="translate(202.5)"
       xlink:href="#u41664" />
  </g>
  <g
     id="heart_4"
     transform="translate(-2227.5,-630)">
    <use
       id="u41689"
       transform="translate(405)"
       xlink:href="#u41668" />
    <use
       id="u41691"
       transform="translate(405)"
       xlink:href="#u41670" />
  </g>
  <g
     id="heart_jack"
     transform="translate(-2227.5,-630)">
    <use
       id="u23898"
       transform="matrix(0.879,0,0,0.879,1991.4,-4.8)"
       xlink:href="#heart" />
    <use
       id="u24132"
       transform="rotate(180,2126,787.5)"
       xlink:href="#u23898" />
  </g>
  <g
     id="heart_queen"
     transform="translate(-2227.5,-630)">
    <use
       transform="translate(2227.5,630)"
       xlink:href="#card"
       id="use598" />
    <g
       transform="matrix(0.2436,0,0,0.2675,2043.7,327.4)"
       id="g653">
      <path
         d="m 1208.1,1745.4 -0.3,2.6 24.8,111.2 a 179.8,179.8 0 0 1 58.2,46 v -117.8 l -2.8,-2.8 c -21.7,-17.7 -31.8,-36.3 -33.9,-53.8 -15.3,5.6 -30.2,14.6 -46,14.6 z"
         fill="#ee1111"
         id="path598" />
      <g
         id="g603">
        <path
           d="m 1097.3,1470.6 -44,20.3 c -33.3,15.5 -103.4,76 -163.2,128 l -1.4,173.8 80.5,120.8 64,34.8 c 102.1,-54 168.2,-38.4 209.8,20.8 l 44,-20.3 c 33.4,-15.5 103.5,-76 163.2,-128 l 1.5,-173.8 -80.5,-120.8 -64.1,-34.9 c -102,54.1 -168.2,38.5 -209.8,-20.7 z"
           fill="#333333"
           stroke="#333333"
           id="path599" />
        <g
           transform="translate(1400.7,1087.2)"
           id="g602">
          <path
             d="m -261.7,660.9 h 69.4 c -4.5,-20.7 -5.6,-37.5 -7,-56.3 h -69.4 c 4.5,20.6 5.6,37.5 7,56.2 z"
             fill="#eecc55"
             id="path600" />
          <path
             d="m -252,652.7 h 47.8 a 266.7,266.7 0 0 1 -4.8,-40 h -47.8 c 3.1,14.7 3.9,26.7 4.8,40 z"
             fill="none"
             stroke="#333333"
             stroke-linejoin="round"
             stroke-width="4.3"
             id="path601" />
          <path
             d="m -239.8,642.4 h 20.7 c -1.4,-7.1 -1.7,-12.9 -2,-19.3 H -242 c 1.4,7 1.7,12.8 2,19.3 z"
             fill="none"
             stroke="#333333"
             stroke-linejoin="round"
             stroke-width="4.3"
             id="path602" />
        </g>
      </g>
      <g
         id="g56507">
        <path
           d="m 1135.5,1324.3 2.6,-69 h 91.2 c 33.3,43.3 71.8,132.3 89.4,183 l 31,89 v -0.1 c -42.3,-0.3 -45.5,-51 -48.3,-70 -81.7,53.3 -156.4,38.8 -177.6,0.3 l -41.5,21.1 c 4.8,-41 8.7,-72.3 51.9,-115.2 z"
           fill="#ffffff"
           id="path603" />
        <path
           d="m 1232.8,1600.2 -5.6,0.8 -22.4,83.6 0.7,4.5 c 22.1,-1 86.4,-39.2 107.4,-39.2 v -5.2 z"
           fill="#ee1111"
           stroke="#333333"
           stroke-linecap="round"
           stroke-linejoin="round"
           stroke-width="5.3"
           id="path604" />
        <path
           d="m 1107.7,1580.6 24.8,111.2 h 68.5 l 24.8,-92.4 c -41,5 -82.2,-0.9 -118,-18.8 z"
           fill="#3366aa"
           id="path605" />
        <path
           d="m 1317.8,1652.1 c -22.8,0 -93.5,42.1 -116.3,42.1 1.3,17 2.4,32.4 6.7,51.2 15.8,0 30.7,-9 46,-14.6 -4.5,-38 29,-70.5 63,-77.4 1,4 1,1.3 0.6,-1.3 z"
           fill="#333333"
           stroke="#3366aa"
           stroke-linejoin="round"
           stroke-width="4.3"
           id="path606" />
        <path
           d="m 1305.6,1761 a 43.4,43.4 0 0 1 14.9,-80.5 c 0.5,-11 -0.7,-19 -3.3,-27.1 -49.7,10.1 -98.2,74.7 -29.1,131.2 7.1,-6.5 14,-13.9 17.5,-23.6 z"
           fill="#eecc55"
           stroke="#eecc55"
           stroke-width="5.5"
           id="path607" />
        <path
           d="m 1322.9,1667.5 c -56.2,16 -74,62.5 -23.8,110"
           fill="none"
           stroke="#333333"
           stroke-width="2.8"
           id="path608" />
        <path
           d="m 1323.4,1680.8 c -2.5,0.7 -7.3,-6.7 -9.7,-5.8 -2.4,0.9 -1.9,9.8 -4.2,10.9 -2.4,1 -8.3,-5.3 -10.6,-4 -2.2,1.4 0.3,10 -1.7,11.6 -2,1.6 -9.5,-2.7 -11.2,-0.8 -1.8,2 3.3,9.1 2,11.4 -1.3,2.3 -10,1.2 -10.9,3.7 -0.8,2.5 6.7,6.7 6.4,9.3 -0.2,2.6 -8.7,5.4 -8.4,8 0.2,2.6 8.9,3.4 9.5,5.9 0.6,2.5 -6.5,7.8 -5.5,10.2 1,2.4 9.7,0.8 10.9,3 1.2,2.3 -4.5,9.2 -3,11.3 1.5,2.1 9.7,-1.3 11.3,0.6 1.6,2 -3,9.7 -1.3,11.6 1.7,1.9 9.6,-2.7 11.4,-1"
           fill="none"
           stroke="#333333"
           stroke-width="2.4"
           id="path609" />
        <path
           d="m 1321.8,1661 -2,-7.7 -12.2,4.2 1.2,3.7 6,-2.3 1.4,3.9 -11.4,4.6 -3,-7.3 -11.7,6.4 2,3.3 5.6,-3.3 1.9,3.5 -10,6.5 -4.5,-6.5 -10.1,8.9 2.6,2.8 4.8,-4.6 2.6,3 -8.4,8.7 -6,-5 -7.5,11.4 3.3,1.9 3.4,-5.7 3.3,2.2 -5,9.3 -7.2,-3 -3.9,13.2 3.8,0.6 1.5,-6.4 3.9,1 -2.1,11.6 -7.9,-0.2 0.7,13.5 3.8,-0.6 -0.7,-6.5 4,-0.4 1.8,11.4 -7.6,2.2 4.5,12.5 3.6,-1.7 -2.5,-6 3.7,-1.6 5,10.8 -6.8,4.2 7.2,10.8 3.2,-2.4 -3.8,-5.2 3.3,-2.5 7.3,9.6 -6,5.4 9,9.2 2.7,-2.9 -4.6,-4.4 2.9,-3 8.8,8.2"
           fill="none"
           stroke="#333333"
           stroke-linejoin="round"
           stroke-width="2.4"
           id="path610" />
        <path
           d="m 1323.6,1685.5 c 2.6,26.9 -3.8,52 -12.7,71.4 -21.2,-16.4 -36.4,-50.6 12.7,-71.4 z"
           fill="#3366aa"
           stroke="#333333"
           stroke-width="0.1"
           id="path611" />
        <path
           d="m 1305,1736.3 c -5.5,9.3 5,16 9.6,5.7 2.2,-5 -1.7,-2.7 -4.5,-2.8 -3.2,-0.2 3.6,-9.3 9.6,-14.6 a 25.8,25.8 0 0 0 -14.7,11.7 z m -4.3,-20.5 c -10.3,-5.2 -3.4,-14.1 2.4,-8.7 1.9,1.8 1.8,2.8 0.2,4.7 -1.7,2 9.2,4.2 17.3,6 -5.3,1 -13.3,1.3 -19.9,-2 z m 6,-8.6 c -6.6,-8.1 3.2,-16.7 8.8,-7.4 2.8,4.5 -1.4,3 -4.1,3.6 -3,0.8 3.3,7.8 9.9,11.8 a 19.8,19.8 0 0 1 -14.6,-8 z m -6.3,18 c -10.3,6 -3.6,15 2,9 2,-2 1.7,-3 0.6,-5.3 -1,-2.2 9.3,-4.4 17.4,-6.9 a 34,34 0 0 0 -20,3.1 z"
           fill="#ffffff"
           id="path612" />
        <path
           d="m 1326,1519.6 c 9.6,7.5 40.9,5.7 49.6,4.2 -98,103.5 -276,109.5 -347.1,-20.3 l 37.2,-16.2 c 43.6,84 152.2,100.3 260.3,32.3 z"
           fill="#333333"
           id="path613" />
        <path
           d="m 1300.2,1456.8 c 4.5,27.8 8.9,55.6 25.7,62.7 -108,68 -216.7,51.7 -260.2,-32.3 l 58,-29.7 c 21.3,38.5 96,53 176.5,-0.7 z"
           fill="#eecc55"
           stroke="#333333"
           stroke-width="3.7"
           id="path614" />
        <path
           d="m 1194.8,1402.7 c 8,5 0.6,14 -6.3,10.9 -4.2,-2 -2.5,-4.7 -8.3,-1.8 m -4.6,-87.7 c -4.8,71.5 -13.1,77.5 -13,81.9 0.3,10 6,11.4 11.3,8 l 0.2,11.3 m 20.8,-86.4 c 8.4,-2.2 11.9,-9.1 18.8,-8.6 7.2,0.6 12.5,7 22.2,9.5 -12.3,0.5 -17.5,9 -24,7.7 -6.6,-1.2 -8.6,-5.6 -17,-8.6 z m 12.7,14.6 c 9.8,1.7 18.6,-0.3 25,-6.5 m -95,-8.7 -0.2,3.5 c 10.4,4.3 11.5,7 18,5.7 6.5,-1.3 7.5,-5.8 15.9,-8.8 -8.4,-2.2 -12.2,-8.7 -19,-8.1 -7.3,0.6 -9.3,5.7 -14.7,7.7 z m 21,15 c -9.9,1.6 -14.7,-0.5 -22.1,-5.3 m 37.5,97.4 c 6.2,3.7 9.3,2 12.6,0 m 90.3,-41.8 c -17.7,40 -46.3,49.2 -64.8,64.8 -15.1,12.8 -37.4,7.1 -46.6,-2.3 a 100.9,100.9 0 0 1 -31,-68.9 c -0.5,-9.7 -1.4,-10.8 2.8,-77.9 0.6,-8.4 0.7,-49.6 0.3,-63 m 190.1,203.3 c 0,13.2 5.6,29.5 12.3,33.5 m -25.2,-65 c -7.6,22.2 -1.4,85 31.2,87.5 m -39.2,-99 c -11.2,42 0.7,111 43.4,110.6 m -7.3,-23.9 c -19.8,-5.5 -23.7,-37 -22.5,-61.7 m -171.7,-185.2 a 17.4,17.4 0 0 1 -10.6,9 m 22.2,-9 c -4.2,11 -12.4,15.3 -21.4,19 m 32.7,-19 a 50.2,50.2 0 0 1 -33.3,29.9 m 43.5,-30 c -10.8,25 -20.5,32 -43.8,40.5 m 83.8,-40.4 a 27,27 0 0 0 14,10.4 m -24.6,-10.4 c 4.3,11 23.7,19 32.6,22.8 m -43.8,-22.8 c 7.5,16.1 33.3,28.7 50.7,34.9 m -61.7,-35 c 8.6,22.8 43,40.3 69.2,45.9 m 24.4,48.4 c 0.9,13.1 7,29 13.9,32.7 m -28.8,-62.2 c -6.3,22.5 4.2,83.6 36.9,84.3 m -44.8,-97.5 c -10.7,46.5 7.1,111.6 49.7,108.8 m -8.7,-23.4 c -20.1,-4.3 -26.1,-33.4 -26.4,-58.2 m -140.9,46.7 c -27.9,30 -35.2,52.9 -41,91.3 m 41.2,-74.6 c -17.9,21.6 -24.3,41.3 -29.5,66.4 m 31.5,-50.6 c -9.6,15 -15.8,27.8 -19.8,47.3 m 23.7,-34 a 107,107 0 0 0 -11.5,29"
           fill="none"
           stroke="#3366aa"
           stroke-linecap="round"
           stroke-linejoin="round"
           stroke-width="4.3"
           id="path615" />
        <path
           d="m 1363.6,1543.8 34.6,21.2 c -27,57 -30.5,71.3 -41.7,128.9 -10.8,56 -8.4,111.7 -65,151.6 V 1788 c 17.8,-25.3 18,-42.3 26,-94 8.1,-52 19.6,-89.5 46.1,-150.1 z"
           fill="#ffffff"
           stroke="#333333"
           stroke-linejoin="round"
           stroke-width="4.3"
           id="path616" />
        <path
           transform="matrix(-0.9354,-0.9347,-0.9898,0.9891,2030.9,866.6)"
           d="m 221.6,681.8 a 4.85,4.85 0 1 1 -9.7,0 4.85,4.85 0 1 1 9.7,0 z"
           fill="none"
           stroke="#3366aa"
           stroke-width="2"
           id="path617" />
        <path
           d="m 1148.2,1340.9 c 1.9,2.6 1.2,-2 3.6,-4 2.4,-1.8 7,-0.2 5,-2.8 -1.9,-2.7 -5,-2.6 -7.4,-0.7 -2.4,1.8 -3.1,4.9 -1.2,7.5 z"
           fill="#3366aa"
           stroke="#3366aa"
           stroke-width="2.2"
           id="path618" />
        <path
           transform="matrix(-0.4658,-0.4655,-0.4952,0.4949,1592,1102.7)"
           d="m 221.6,681.8 a 4.85,4.85 0 1 1 -9.7,0 4.85,4.85 0 1 1 9.7,0 z"
           id="path619" />
        <path
           d="m 1175.1,1312.3 0.6,10.7 c -11.2,-6.4 -18.8,-10.7 -37.6,-2 l -0.5,-2.2 c 12.9,-3.8 16.4,-11.9 37.5,-6.5 z m 19.3,-0.5 -2.4,11.2 c 21.5,-13.7 38.5,-3.4 58,5 l -10,-7.2 c -16.8,-11.9 -27.1,-14.4 -45.6,-9 z"
           fill="#3366aa"
           stroke="#3366aa"
           stroke-miterlimit="1"
           stroke-width="2"
           id="path620" />
        <path
           transform="matrix(0.9354,-0.9347,0.9898,0.9891,335.2,866.9)"
           d="m 221.6,681.8 a 4.85,4.85 0 1 1 -9.7,0 4.85,4.85 0 1 1 9.7,0 z"
           fill="none"
           stroke="#3366aa"
           stroke-width="2"
           id="path621" />
        <path
           d="m 1217.3,1334.1 c 2.6,2.6 -2.5,1 -5,3.6 -2.5,2.6 -1.4,8 -4,5.4 -2.7,-2.6 -2.1,-6.3 0.4,-8.8 2.5,-2.5 6,-2.8 8.6,-0.2 z"
           fill="#3366aa"
           stroke="#3366aa"
           stroke-width="2.6"
           id="path622" />
        <path
           transform="matrix(0.4658,-0.4655,0.4952,0.4949,774.1,1103)"
           d="m 221.6,681.8 a 4.85,4.85 0 1 1 -9.7,0 4.85,4.85 0 1 1 9.7,0 z"
           id="path623" />
        <path
           d="m 1197.8,1330.5 c 8.3,-5.9 13.3,-8.4 22.2,-5.8 7,2 11.5,8 18.4,13 l 0.2,3.1 c -13.8,-4.3 -20.9,-10.4 -35.5,-8 z m -29.3,-0.2 c -8.3,-6 -12.7,-8.5 -21.7,-6 -3.3,0.8 -6.6,7.7 -9.3,9.5 l -0.8,3.3 c 8.1,-2.3 11.8,-7 26.5,-4.6 z"
           fill="#3366aa"
           stroke="#3366aa"
           stroke-linecap="round"
           stroke-linejoin="round"
           stroke-width="1.4"
           id="path624" />
        <path
           d="m 1177.1,1430.7 c 1,0.5 3.8,0.7 4.6,-0.1 4.8,2.9 7.3,2.6 15,3.2 -9.2,3.1 -11.4,3.1 -15.8,3.2 a 56,56 0 0 1 -16.5,-2.7 c 6.2,-0.6 9.2,-1.7 12.7,-3.6 z"
           fill="#3366aa"
           stroke="#3366aa"
           stroke-linecap="round"
           stroke-linejoin="round"
           stroke-width="4.3"
           id="path625" />
        <path
           d="m 1395.8,1417.2 c -14.6,-2.9 -67.8,14.8 -75.9,20.6 -19.4,-50 -57.2,-137.3 -90.5,-180.7 h 123.4 c 3.6,54 11.7,106.1 43,160.1 z"
           fill="#eecc55"
           stroke="#333333"
           stroke-linejoin="round"
           stroke-width="4.3"
           id="path626" />
        <g
           id="g17149"
           transform="matrix(-0.2861,-0.5413,-0.5409,0.2859,1357.9,1042)">
          <path
             d="m -302.1,258.3 c 0.8,-13.8 5.6,-20.1 11.3,-20.3 5.6,-0.2 14.5,4 14.3,20.8 15.9,-0.5 18,8.3 17.6,12.2 -0.6,4.4 -2,11.4 -20,9.9 1.8,21.2 -8,1 -12,0.8 -4,-0.2 -12.3,18.9 -11.2,0.3 -16,0 -19.4,-9.6 -19.4,-13.9 0,-4.6 4.6,-9.6 19.4,-9.8 z"
             fill="#333333"
             stroke="#ee1111"
             stroke-linejoin="round"
             stroke-width="3.2"
             id="path627" />
          <path
             transform="matrix(0.2638,0,0,0.2683,-230,197.8)"
             d="m -198.2,267.5 a 30.7,30.7 0 1 1 -61.4,0 30.7,30.7 0 1 1 61.4,0 z"
             fill="#333333"
             stroke="#ee1111"
             stroke-linejoin="round"
             stroke-width="11.1"
             id="path628" />
        </g>
        <path
           d="m 1256.8,1256.1 c 23.6,47.3 56,107 81,171.9 l 20.5,-5 c -6.4,-0.3 -28.5,-21.9 -17.4,-39.8 -17.1,-8.3 -27.4,-24.4 -25.3,-48.7 -9.6,-2 -34.1,-40 -30,-52.8 -17,-8.7 -19.4,-20.3 -18.6,-26.5 z"
           fill="#ee1111"
           id="path629" />
        <path
           d="m 1341.1,1429.6 40.7,94.6 -32.1,3.2 -31,-89 c -17.6,-50.7 -56.1,-139.7 -89.4,-183.1 h 27.5 c 33.3,53.9 57.1,111 84.3,174.3 z m -207,-66.1 1.4,-39.1 a 203.5,203.5 0 0 0 -83.7,167 l 30.5,-12.7 c 4.8,-41 8.7,-72.3 51.8,-115.2 z"
           fill="#333333"
           id="path630" />
        <path
           d="m 1147.2,1447.4 -93.9,43.5 c -33.3,15.5 -103.4,76 -163.2,127.9"
           fill="none"
           stroke="#333333"
           stroke-linecap="round"
           stroke-linejoin="round"
           stroke-width="5.3"
           id="path631" />
        <path
           d="m 1097.3,1470.6 c 41.6,59.2 107.7,74.9 209.7,20.8"
           fill="none"
           stroke="#333333"
           stroke-width="3.7"
           id="path632" />
        <path
           d="m 1106,1469.2 c 2.6,3.5 17.1,-2.7 20,0.5 3,3.2 -4.4,17.3 -1,20.1 3.4,2.8 15.7,-7 19.4,-4.8 3.7,2.2 0.4,17.9 4.4,19.7 4,1.8 13.4,-11 17.6,-9.7 4.2,1.2 4.9,17 9.1,17.9 4.3,0.8 10.5,-13.9 14.8,-13.6 4.4,0.2 8.7,15.6 13,15.4 4.4,-0.2 7.4,-15.7 11.7,-16.3 4.3,-0.6 11.4,13.8 15.6,12.8 4.2,-1 4.8,-16.8 9,-18 4.2,-1.2 12.9,12 17,10.5 4.1,-1.5 2.5,-17.3 6.5,-19 4,-1.8 14.3,10.2 18.3,8.3 3.9,-2 0.6,-17.6 4.4,-19.8 3.8,-2.1 15.3,8.8 19,6.6"
           fill="none"
           stroke="#333333"
           stroke-width="4.3"
           id="path633" />
        <path
           d="m 1087.6,1476.7 11.7,15.2 -5.2,4.6 -6.4,-7.9 -6,4.4 13.5,15.6 10.2,-10 13.9,12.8 -4.3,5.5 -7.7,-6.6 -5,5.3 15.8,12.8 8.2,-11.7 16,9.4 -3,6.4 -9,-4.9 -3.9,6.2 18.9,9.4 5.1,-13.4 17.9,5.5 -1.4,6.8 -9.9,-2.6 -2.4,7 18.1,4.2 2.3,-14.1 18.5,1.5 0.2,7 -10.2,-0.5 -0.7,7.3 20.7,0.3 -0.7,-14.3 18.7,-2.2 1.4,6.9 -10.1,1.5 0.8,7.3 19.7,-3.4 -3.2,-14 18.3,-5.1 2.4,6.6 -9.7,3 1.9,7 19.3,-6.3 -5,-13.4 17.7,-7.4 3,6.3 -9.3,4 2.8,6.9 18.5,-8.4 -6.4,-12.8 17,-9 3.7,6 -9,4.8 3.4,6.6 17.5,-9.8"
           fill="none"
           stroke="#333333"
           stroke-linejoin="round"
           stroke-width="4.3"
           id="path634" />
        <path
           d="m 1051.4,1506.1 c 9.7,3.7 18.1,2.8 20.5,5.3 2.2,2.5 2.5,6.3 0,8.7 -2.5,2.5 -6,2 -8.7,-0.4 2.2,2.8 2.7,6.3 0.2,8.8 -2.5,2.4 -6.6,1.7 -9,-0.7 -2.3,-2.5 -1.2,-11.4 -3,-21.7 m 23.4,25.2 c 10.2,2.4 18.2,0 21,2.2 2.5,2.1 3.4,5.8 1.3,8.5 -2,2.9 -5.5,2.9 -8.6,1 2.6,2.5 3.6,5.9 1.5,8.7 -2,2.7 -6.2,2.7 -8.9,0.7 -2.8,-2.1 -3.2,-11.2 -6.3,-21.1 m 27,21.3 c 10.4,0.7 17.8,-3 20.8,-1.4 3,1.6 4.4,5.1 3,8.2 -1.6,3.1 -5,3.8 -8.4,2.4 3,2 4.6,5.2 3,8.4 -1.4,3 -5.6,3.7 -8.6,2.2 -3,-1.6 -5.1,-10.5 -9.8,-19.8 m 30.2,16.3 c 10.4,-1.2 16.9,-6.4 20.2,-5.3 3.2,1 5.3,4 4.4,7.4 -0.9,3.4 -4.1,4.7 -7.7,4 3.4,1.4 5.5,4.2 4.7,7.6 -1,3.3 -5,4.8 -8.1,3.9 -3.4,-1 -7.1,-9.3 -13.5,-17.6 m 32.8,10.1 c 10,-3.2 15.3,-9.6 18.7,-9.3 3.4,0.4 6,3 5.8,6.4 -0.2,3.5 -3,5.5 -6.7,5.5 3.6,0.7 6.3,3 6,6.5 -0.1,3.4 -3.7,5.6 -7,5.4 -3.5,-0.2 -9,-7.6 -16.8,-14.5 m 34.2,3.3 c 9,-5.1 13.4,-12.5 16.8,-12.8 3.4,-0.2 6.2,1.8 6.7,5.2 0.5,3.5 -2,6 -5.6,6.7 3.7,0 6.8,1.7 7.3,5.2 0.5,3.3 -3,6.3 -6.3,6.7 -3.4,0.3 -9.8,-5.8 -18.9,-11 m 34.2,-3.3 c 7.9,-6.8 10.8,-14.6 14.2,-15.5 3.2,-0.9 6.7,0.6 7.7,3.9 1,3.3 -1,6.2 -4.4,7.5 3.6,-0.6 6.9,0.6 8,4 1,3.2 -1.6,6.6 -4.8,7.5 -3.3,1 -10.8,-4.1 -20.7,-7.4 m 33.2,-9 c 6.7,-8 8.5,-16.2 11.7,-17.6 3,-1.3 6.8,-0.3 8.2,2.8 1.5,3.2 0,6.3 -3.3,8 3.5,-1 7,-0.3 8.5,2.9 1.4,3 -0.6,6.7 -3.6,8 -3.2,1.6 -11.3,-2.4 -21.5,-4.1 m 31.5,-13.8 c 5.8,-8.7 6.6,-17.2 9.6,-18.9 3,-1.6 6.7,-1 8.5,1.8 1.8,3 0.6,6.3 -2.4,8.5 3.3,-1.6 6.8,-1.2 8.7,1.8 1.8,2.9 0.2,6.7 -2.7,8.5 -3,1.8 -11.3,-1.2 -21.7,-1.7 m 29.7,-17.3 c 4.8,-9.2 3,-11.9 5.7,-13.8 3,1.8 4.8,2.3 8.9,3.6 3.1,-1.8 6.9,-1.8 9,1 2,2.7 0.8,6.7 -1.8,8.7 -2.8,2 -11.4,0 -21.8,0.5"
           fill="#ee1111"
           stroke="#ee1111"
           id="path635" />
        <path
           d="m 1401.1,1466.2 c 3.9,60 18.4,54.6 20.2,101"
           fill="none"
           stroke="#333333"
           stroke-linecap="round"
           stroke-linejoin="round"
           stroke-width="5.3"
           id="path636" />
        <path
           d="m 1367,1475.8 c 5.3,-7.3 10.7,-14 16,-17 -0.6,-6.8 -4.6,-13.8 -4.5,-23 7.8,2.2 16.7,2.8 20.7,10.1 3.7,-5.3 11,-9 20.2,-11.7 2.3,13.6 0.5,17 -3.3,23.3 9.7,3.3 18,10.8 17,15.7 -5.2,0.8 -17.2,0.4 -22.7,4.3 -0.1,9.6 -4.4,12 -9.6,21.4 -9.6,-10.8 -9.4,-15.2 -10.9,-20.6 -10,-1 -10.2,-4 -22.9,-2.5 z"
           fill="#ee1111"
           stroke="#3366aa"
           stroke-linecap="round"
           stroke-linejoin="round"
           stroke-width="4.3"
           id="path637" />
        <path
           d="m 1417,1469.6 c 4.5,-6.2 18.1,8.6 16.2,-15.8 -12.8,-21 -15.1,-1 -22.4,-3.4 -4.6,-6.2 13.8,-14.5 -10.1,-20.3 -23.9,5.8 -5.5,14.1 -10,20.3 -7.4,2.4 -9.7,-17.6 -22.5,3.3 -2,24.5 11.7,9.6 16.2,15.9 0,7.7 -19.7,3.7 -3.8,22.3 22.7,9.4 12.8,-8 20,-10.5 7.4,2.4 -2.5,20 20.2,10.5 16,-18.6 -3.8,-14.6 -3.8,-22.3"
           fill="#ee1111"
           stroke="#3366aa"
           stroke-linejoin="round"
           stroke-width="4.3"
           id="path638" />
        <path
           d="m 1386.3,1468.7 c 2.2,-3 3,-6.9 5.2,-8.1 -0.3,-2.8 -0.5,-4.6 -0.5,-8.4 3.3,0.9 6.8,0 8.4,3 1.6,-2.1 4.7,-2.6 8.5,-3.7 1,5.6 1.7,6.7 0.1,9.3 4,1.3 6,4.8 5.6,6.8 -2.1,0.4 -6.2,1.2 -8.5,2.9 0,4 -2.7,3.8 -4.9,7.7 -4,-4.4 -4.9,-5 -5.5,-7.2 -4.1,-0.4 -3,-2 -8.4,-2.3 z"
           fill="#ffffff"
           id="path639" />
        <path
           d="m 1405.1,1464.2 a 5.05,5.05 0 1 1 -10.1,0 5.05,5.05 0 1 1 10.1,0 z"
           fill="#ee1111"
           stroke="#3366aa"
           stroke-width="2.5"
           id="path640" />
        <path
           d="m 1419,1541.1 c 6.2,-18.2 0.2,-22 18.5,-38.3 -3.7,22.6 -3.5,33 -18.5,38.3 z m 0,21.1 c -11.7,-29.2 -23,-28.1 -38.8,-33.4 a 70.7,70.7 0 0 0 38.8,33.4 z"
           fill="#eecc55"
           stroke="#333333"
           stroke-linejoin="round"
           stroke-width="4.3"
           id="path641" />
        <path
           d="m 1411.1,1565.5 c 0,0 0,0 0,0 -0.3,0.4 -2.5,5.4 -17.8,10 a 417,417 0 0 0 -23,57.7 c 13.8,5.8 32.2,-4 44.5,-3.9 l -6.6,-45.5 c 13.6,-7.6 4.9,-8.6 3.6,-13 -1,-3.6 -0.7,-5.1 -0.7,-5.3 z"
           fill="#ffffff"
           stroke="#333333"
           stroke-linecap="round"
           stroke-linejoin="round"
           stroke-width="4.3"
           id="path642" />
        <path
           d="m 1409.5,1601.1 c 1.2,3.2 -0.3,6.8 -3.4,8 -3.1,1.2 -6.6,-0.6 -7.8,-3.8 -1.2,-3.3 0.3,-6.8 3.4,-8 3.1,-1.2 6.6,0.6 7.8,3.8 z m 0.5,13 a 6,6 0 0 1 -4.1,7.5 6.1,6.1 0 0 1 -7.4,-4.5 c -0.9,-3.3 1,-6.7 4.1,-7.6 a 6,6 0 0 1 7.4,4.5 z m -3.2,-26.4 c 1.3,3.2 0,6.7 -2.8,8 -3,1.1 -6.3,-0.5 -7.7,-3.6 -1.4,-3.1 0,-6.8 2.8,-8 3,-1.2 6.4,0.4 7.7,3.6 z m 5.3,38.8 c 0.8,2.9 -0.6,5.8 -3.1,6.4 -2.5,0.7 -5.1,-1.1 -5.9,-4 -0.8,-2.9 0.6,-5.8 3.1,-6.4 2.5,-0.7 5.1,1.1 5.9,4 z m 28.1,-36.5 c 1.2,3.2 -1.6,7.2 -6.1,9 -18.1,6.6 -9,1.5 -11,-2.4 -1.9,-4.2 -7.9,-5.2 6.6,-9.4 4.7,-1.3 9.3,-0.4 10.5,2.8 z m 1,16 c 0.9,3.3 -2.2,7 -6.8,8.3 -18.4,4.9 -9,0.7 -10.6,-3.4 -1.5,-4.4 -7.3,-6 7.3,-8.7 4.8,-0.9 9.2,0.4 10,3.8 z m -5.7,-30 c 1.3,3.2 -1,7.2 -5.4,9 -16.8,7 -8.5,1.8 -10.5,-2 -2.1,-4.2 -7.9,-5.1 5.7,-9.5 4.4,-1.4 8.9,-0.7 10.2,2.5 z m 1.1,44.2 c 0.8,2.9 -1.6,6 -5.2,7 -14.5,3.9 -7.2,0.4 -8.4,-3.1 -1.4,-3.8 -6,-5.3 5.6,-7.4 3.7,-0.6 7.2,0.6 8,3.5 z"
           fill="#ffffff"
           stroke="#333333"
           stroke-width="4.3"
           id="path643" />
        <path
           d="m 1422.6,1596.6 c 1.2,3.2 -0.7,7 -4.2,8.2 -13.8,5.1 -7,0.8 -8.8,-3 -1.9,-4.3 -6.7,-5.8 4.5,-8.7 3.6,-1 7.3,0.3 8.5,3.5 z m 0.7,14.2 c 0.9,3.4 -1.3,6.8 -4.9,7.8 -14,3.8 -7,0.2 -8.4,-4 -1.4,-4.3 -6,-6.3 5.2,-8 3.6,-0.7 7.2,0.9 8,4.2 z m -4.2,-27.9 a 6.3,6.3 0 0 1 -3.5,8.3 c -13,5.3 -6.7,1 -8.6,-3 -2,-4 -6.7,-5.5 3.7,-8.6 3.4,-1 7,0.1 8.3,3.3 z m 3.4,41.1 a 5.3,5.3 0 0 1 -3.6,6.6 c -11,3 -5.6,0 -6.7,-3.5 -1.3,-3.8 -5,-5.6 3.9,-7 2.8,-0.4 5.7,1 6.4,4 z m -11.2,-53.7 c -0.8,-3.7 1,-7.6 4,-8.5 3,-1 6,1.2 6.9,5 0.8,3.7 -1,7.5 -4,8.5 -3,1 -6,-1.3 -6.9,-5 z"
           fill="#ffffff"
           stroke="#333333"
           stroke-width="4.3"
           id="path644" />
        <path
           d="m 1307,1795.3 c -0.5,1 -1.4,1.6 -2.5,1.7 -1.1,0.1 -2,-0.4 -2.7,-1.3 a 3,3 0 0 1 -0.3,-3 c 0.5,-1 1.3,-1.4 2.4,-1.5 a 3,3 0 0 1 2.8,1.2 c 0.7,0.9 0.8,1.9 0.3,2.9 m 18.3,-55.3 a 3,3 0 0 1 -2,2.2 c -1.1,0.3 -2.2,0 -3,-0.7 -0.8,-0.7 -1.1,-1.8 -0.9,-2.9 a 3,3 0 0 1 2,-2.2 3,3 0 0 1 3,0.7 3,3 0 0 1 1,2.9 m 10.9,-57.8 a 3,3 0 0 1 -2,2.3 3,3 0 0 1 -3,-0.5 3,3 0 0 1 -1,-2.9 3,3 0 0 1 2,-2.3 3,3 0 0 1 3,0.5 3,3 0 0 1 1,2.9 m 12,-58 a 3,3 0 0 1 -2.2,2.1 3,3 0 0 1 -2.9,-0.8 3,3 0 0 1 -0.8,-2.9 3,3 0 0 1 2.2,-2.1 c 1,-0.3 2.1,0 2.9,0.8 0.8,0.8 1,1.8 0.8,3 m 22.4,-55.2 a 3,3 0 0 1 -2.6,1.5 3,3 0 0 1 -2.6,-1.6 3.1,3.1 0 0 1 2.9,-4.7 3,3 0 0 1 2.5,1.7 c 0.5,1 0.4,2.2 -0.2,3.1 m -56.3,223.5 a 3,3 0 0 1 -2.4,1.8 3,3 0 0 1 -2.8,-1.2 3,3 0 0 1 -0.3,-3 3,3 0 0 1 2.4,-1.8 3,3 0 0 1 3.1,4.2 m 17.6,-56.8 c -0.2,1.1 -1,2 -2,2.3 -1,0.3 -2.2,0 -3,-0.7 a 3,3 0 0 1 -0.9,-3 3,3 0 0 1 2,-2.1 c 1.1,-0.3 2.2,-0.1 3,0.6 0.8,0.7 1.2,1.9 1,3 m 10.7,-58.2 a 3,3 0 0 1 -2,2.3 3,3 0 0 1 -3,-0.5 3,3 0 0 1 -1,-2.8 3,3 0 0 1 2,-2.3 3,3 0 0 1 3,0.5 3,3 0 0 1 1,2.8 m 12.3,-57.3 a 3,3 0 0 1 -2.1,2 3,3 0 0 1 -3,-0.7 3.0413813,3.0413813 0 1 1 4.4,-4.2 c 0.8,0.8 1,1.8 0.7,2.9 m 23.4,-53 a 3,3 0 0 1 -2.7,1.4 3,3 0 0 1 -2.6,-1.6 3,3 0 0 1 0.2,-3 3,3 0 0 1 5.2,0.3 c 0.5,1 0.5,2 -0.1,3 m -61.4,232.7 c -0.4,1 -1.4,1.8 -2.5,1.9 a 3,3 0 0 1 -2.7,-1.4 3.2,3.2 0 0 1 -0.2,-3.1 c 0.4,-1 1.3,-1.6 2.5,-1.7 1.2,-0.1 2,0.3 2.7,1.3 0.6,0.9 0.7,2 0.2,3 m 19.2,-57.7 c -0.3,1.1 -1,2 -2.1,2.3 -1.1,0.3 -2.1,0 -3,-0.7 a 3,3 0 0 1 -0.8,-3 c 0.2,-1 1,-1.8 2,-2.1 1,-0.3 2.1,-0.1 3,0.7 a 3,3 0 0 1 0.9,2.8 m 11,-58.3 a 3,3 0 0 1 -1.9,2.3 3,3 0 0 1 -3,-0.5 3,3 0 0 1 -1,-2.9 3,3 0 0 1 2,-2.3 3,3 0 0 1 3,0.5 3,3 0 0 1 1,2.9 m 11.7,-57 a 3,3 0 0 1 -2.2,2.2 3,3 0 0 1 -2.9,-0.8 3,3 0 0 1 -0.7,-3 3,3 0 0 1 2.1,-2 c 1,-0.4 2.1,0 3,0.7 0.9,0.7 1,1.8 0.7,3 m 21.2,-52.3 a 3,3 0 0 1 -2.6,1.5 3,3 0 0 1 -2.6,-1.6 c -0.5,-1 -0.5,-2 0,-3 0.5,-1 1.5,-1.4 2.6,-1.3 a 3,3 0 0 1 2.6,1.6 c 0.5,1 0.6,1.9 0,2.8 m -83.3,243.5 v -6.6 l -5.6,1.1 a 46.8,46.8 0 0 0 17.5,-18 l 1.8,0.9 a 115,115 0 0 0 -6.5,25.7 l -1.2,-6 -6,2.9 m 24.4,-53.5 -1.9,-6.4 -5.2,3 a 59,59 0 0 0 12.8,-22.3 l 2,0.5 a 80.2,80.2 0 0 0 0,26 l -2.8,-5.2 -5,4.4 m 13.2,-57.5 -2.5,-6 -4.9,3.3 c 5.2,-7.3 9,-15 11,-23.4 l 2,0.4 a 68.3,68.3 0 0 0 2.2,25.7 l -3.4,-4.9 -4.4,5 m 10.5,-58.1 -2.3,-6.2 -5,3.2 a 79.2,79.2 0 0 0 12.4,-22.9 l 1.9,0.6 a 59,59 0 0 0 0.8,25.6 l -3.2,-5 -4.6,4.7 m 16.5,-56.5 -1,-6.6 -5.6,2.3 c 6.7,-6 12.8,-12.5 17.7,-19.6 l 1.7,1 c -4,7.7 -5.6,15.7 -5.1,24.6 l -2.2,-5.4 -5.5,3.7"
           fill="#333333"
           id="path645" />
        <path
           d="m 1230.9,1726.8 c -5.5,-9.7 -12.8,-15.5 -12.8,-19.2 0,-3.6 2.7,-7 6.4,-7 3.7,0 6,3 6.4,7 0.4,-4 2.7,-7 6.4,-7 3.7,0 6.3,3.4 6.4,7 0,3.7 -7.3,9.5 -12.8,19.2 z"
           fill="#ee1111"
           stroke="#ee1111"
           id="path646" />
        <path
           d="m 1159.8,1597.8 v 92.2 h 16.2 v -90 a 209.6,209.6 0 0 1 -16.2,-2.2 z"
           fill="#eecc55"
           stroke="#333333"
           stroke-linejoin="round"
           stroke-width="4.3"
           id="path647" />
        <path
           d="m 1120.6,1596.5 32.8,9.4 m -29.4,4.3 29.4,8.4 m -26.6,4.3 26.6,8.5 m -25.3,4.3 25.3,8.4 m -22.5,5.3 22.5,7.5 m -18.4,6.2 18.4,6.6 m -15,7.4 15,5.3 m 63,-76.5 -34,3.5 m 29.6,9.5 -29.6,3.1 m 26.5,9.8 -26.5,2.9 m 22.7,10 -22.7,2.6 m 20.2,10.4 -20.2,2.3 m 17.1,10.7 -17,2 m 13,10.6 -13,2"
           fill="none"
           stroke="#ffffff"
           stroke-linecap="round"
           stroke-linejoin="round"
           stroke-width="5.3"
           id="path648" />
        <g
           transform="translate(798.2,1193.7)"
           id="g649">
          <path
             d="m 372.1,414.7 a 2.5,2.5 0 1 1 -4.9,0 2.5,2.5 0 0 1 5,0 z m 0,12.5 a 2.5,2.5 0 1 1 -4.9,0 2.5,2.5 0 0 1 5,0 z m 0,12.5 a 2.5,2.5 0 1 1 -4.9,0 2.5,2.5 0 0 1 5,0 z m 0,12.4 a 2.5,2.5 0 1 1 -4.9,0 2.5,2.5 0 0 1 5,0 z m 0,12.5 a 2.5,2.5 0 1 1 -4.9,0 2.5,2.5 0 0 1 5,0 z m 0,12.5 a 2.5,2.5 0 1 1 -4.9,0 2.5,2.5 0 0 1 5,0 z m 0,12.5 a 2.5,2.5 0 1 1 -4.9,0 2.5,2.5 0 0 1 5,0 z"
             fill="#333333"
             id="path649" />
        </g>
        <path
           d="m 1029.4,1505.2 c -37,25 -91.4,72.1 -139.3,113.7 v 173.9 l 12,20 78.5,-50.4 3.3,-16.5 c 10.9,-56.1 8.4,-111.7 65,-151.7 l -0.1,-60.6 a 194.7,194.7 0 0 1 -19.4,-28.4 z"
           fill="#3366aa"
           stroke="#333333"
           stroke-linecap="round"
           stroke-linejoin="round"
           stroke-width="5.3"
           id="path650" />
        <path
           d="m 1035.4,1520.7 -2.8,2.5 8.5,11.5 -14.9,11.1 -4.3,-5.5 7.7,-5.8 -4.4,-6 -15,11.4 8.7,11.4 -14.6,11.4 -4.4,-5.4 7.5,-6 -4.4,-5.8 -13,10.2 8.9,11.3 -14.4,11.7 -4.6,-5.3 7.5,-6.1 -4.6,-5.8 -14.5,12 9.3,10.9 -14.3,12 -4.6,-5.2 7.3,-6.2 -4.6,-5.7 -14,11.9 9.4,10.8 -14.1,12.3 -4.7,-5.2 7.3,-6.3 -4.7,-5.7 -14.2,12.4 9.5,10.7 -14,12.4 -4.8,-5.2 7.3,-6.4 -4.8,-5.6 -14.1,12.5 9.5,10.7 -14,12.4 -4.8,-5.1 7.3,-6.4 -4.8,-5.6 -6.7,5.2 m 0.2,154.5 11.1,-7.4 4,5.7 -8,5.3 4,6.2 15.2,-10 -8,-12 15.6,-10.2 4,5.7 -8,5.3 3.9,6.2 15.6,-10.3 -8,-12 15.6,-10.2 4,5.8 -8,5.3 4,6.2 15.6,-10.4 -8,-12 15.6,-10.2 4,5.8 -8,5.3 4,6.2 7,-5"
           fill="none"
           stroke="#ffffff"
           stroke-linecap="round"
           stroke-linejoin="round"
           stroke-width="4.3"
           id="path651" />
        <use
           id="u53547"
           transform="matrix(0.8812,0,0,0.8812,183.4,205)"
           width="744.09998"
           height="1052.4"
           xlink:href="#g17149" />
        <use
           transform="translate(24,47.9)"
           width="744.09998"
           height="1052.4"
           xlink:href="#u53547"
           id="use651" />
        <path
           d="m 988.5,1696 c -3.8,-12.7 -31,-58.1 -28,-60.5 3.1,-2.4 19.9,16.1 34.6,30.3 m 5.1,-15.4 c -8.7,-16.1 -16.8,-32.2 -14.7,-33.7 2.1,-1.5 10.9,7.2 21.9,18 m 10.6,-16.3 c -5.9,-11 -9.1,-19.3 -7.6,-20.5 1.5,-1.2 7.1,3.7 15.3,11.5 m 16.4,-12.7 c -4.8,-9.3 -8,-16.7 -6.7,-17.7 1.3,-0.9 5.7,2.7 11.4,8 M 893,1695.4 c 13.8,11.3 43.3,45.3 47,42.4 3.8,-2.8 -33.4,-61.6 -29.2,-64.7 4.1,-3.1 50,49 54.2,46 4.2,-3 -33.3,-61.6 -29.3,-64.8 4,-3.2 45.4,44 52.3,45 m -95,38.5 c 11,10.7 20.3,20.2 22.1,18.9 2.8,-2.2 -12.5,-29.4 -22,-48"
           fill="none"
           stroke="#ffffff"
           stroke-linecap="round"
           stroke-width="4.3"
           id="path652" />
        <path
           d="m 893,1673.6 c 6.3,0 48.8,49.1 52.8,46.1 4.2,-3.1 -33.4,-61.7 -29.2,-64.8 4.1,-3.1 50,49.1 54.2,46 4.1,-3.2 -34.2,-63.3 -29,-64.9 5.2,-1.6 38.6,36.7 49.3,43.6 m 55.7,-116 c -2.3,-1.7 -4,-3.3 -5.3,-2.8 -1.3,0.5 1.1,7.2 5.3,15.3 m -9,21.2 c -10.3,-10 -18.6,-18.4 -21.2,-17.6 -2.6,0.7 3,13.1 10.7,27.2 m -11,12.7 c -11.5,-11.4 -22,-22.1 -24.7,-21.1 -2.6,1 6.2,18.9 15.4,35.7 m -6.2,13.2 c -14,-13.5 -31.2,-32.3 -34.2,-30.2 -3,2.1 19,40.2 26,56.5 m -99.7,40.2 c 13.1,12.8 25.1,26.8 28,24.6 2.9,-2.2 -23,-46.4 -28,-60.5"
           fill="none"
           stroke="#ffffff"
           stroke-linecap="round"
           stroke-width="4.3"
           id="path653" />
      </g>
      <use
         transform="rotate(180,1170.2,1719.9)"
         width="744.09998"
         height="1052.4"
         xlink:href="#g56507"
         id="use653" />
    </g>
    <use
       transform="rotate(180,2227.35,472.5)"
       xlink:href="#frame"
       id="use654" />
    <use
       transform="translate(1619.9)"
       xlink:href="#u41689"
       id="use655" />
    <use
       transform="translate(1620)"
       xlink:href="#u41691"
       id="use656" />
    <use
       transform="translate(202.7)"
       xlink:href="#u23898"
       id="use657" />
    <use
       transform="translate(202.7)"
       xlink:href="#u24132"
       id="use658" />
    <use
       transform="translate(2227.5,1360)"
       style="stroke:#ee1111"
       xlink:href="#Q"
       id="use659" />
    <use
       transform="rotate(180,1214.95,107.5)"
       style="stroke:#ee1111"
       xlink:href="#Q"
       id="use660" />
  </g>
  <g
     id="club_1"
     transform="translate(-2227.5,-630)">
    <rect
       id="card"
       x="0.69999999"
       y="0.69999999"
       width="201.10001"
       height="313.60001"
       rx="9"
       ry="9"
       fill="#ffffff"
       stroke="#333333"
       stroke-width="1.4" />
  </g>
</svg>
