<?xml version="1.0" encoding="UTF-8" standalone="no"?>
<svg
   width="202.5"
   height="315"
   version="1.1"
   id="svg1018"
   xmlns:xlink="http://www.w3.org/1999/xlink"
   xmlns="http://www.w3.org/2000/svg"
   xmlns:svg="http://www.w3.org/2000/svg">
  <defs
     id="defs1018" />
  <path
     id="J"
     d="m -193.5,-1014.1 c 0,4.2 3,6.5 6.7,6.5 3.7,0 6.7,-2.7 6.7,-6.5 v -20.4 m -1.9,-0.5 h 3.9"
     fill="none"
     stroke-linecap="square"
     stroke-width="3.5" />
  <g
     id="Q"
     transform="translate(-2227.5,-948.6)"
     style="fill:none;stroke-width:3.5;stroke-linecap:square">
    <path
       d="m 2253.7,-69 v -8.2 c 0,-5.3 -3.8,-9.6 -8.5,-9.6 -4.7,0 -8.5,4.3 -8.5,9.6 v 8.2 c 0,5.3 3.8,9.6 8.5,9.6 4.7,0 8.5,-4.3 8.5,-9.6 z"
       id="path6" />
    <path
       d="m 2235.2,-73.5 c 11.5,0 11.2,11.6 18.4,13.6"
       id="path7" />
  </g>
  <g
     id="club_jack"
     transform="translate(-2227.5,-945)">
    <path
       id="frame"
       d="M 2194.1,281.3 H 2058 V 33.6 h 136.1 z"
       fill="none"
       stroke="#3366aa"
       stroke-linejoin="round"
       stroke-width="2.4" />
  </g>
  <g
     id="spade_1"
     transform="translate(-2227.5,-945)">
    <g
       id="g272">
      <use
         id="u42787"
         transform="rotate(180,101.3,1102.5)"
         xlink:href="#p37946" />
      <use
         id="p37946"
         transform="matrix(0.46108,0,0,0.46108,-216.4,495.2)"
         xlink:href="#spade" />
    </g>
  </g>
  <g
     id="spade_2"
     transform="translate(-2227.5,-945)">
    <use
       id="u42791"
       transform="translate(202.6)"
       xlink:href="#p37946" />
    <use
       id="u42793"
       transform="translate(202.6)"
       xlink:href="#u42787" />
  </g>
  <g
     id="spade_3"
     transform="translate(-2227.5,-945)">
    <use
       id="u42807"
       transform="translate(405)"
       xlink:href="#p37946" />
    <use
       id="u42809"
       transform="translate(405)"
       xlink:href="#u42787" />
    <path
       id="spade"
       d="m 506.25,1075.5 c -9,17 -21.75,20.1 -21.75,31.6 0,6.1 4.4,11.3 10.6,11.3 3.7,0.06 7.1,-1.85 9,-5 0,8 -3.2,12.3 -6.3,16 h 16.8 c -3.1,-3.7 -6.4,-8 -6.2,-16 1.9,3.2 5.35,5 9,5 6.2,0 10.5,-5.3 10.6,-11.4 0,-11.4 -12.75,-14.5 -21.75,-31.5 z"
       fill="#333333" />
  </g>
  <g
     id="spade_4"
     transform="translate(-2227.5,-945)">
    <use
       id="u42811"
       transform="translate(405)"
       xlink:href="#u42791" />
    <use
       id="u42813"
       transform="translate(405)"
       xlink:href="#u42793" />
  </g>
  <g
     id="spade_jack"
     transform="translate(-2227.5,-945)">
    <use
       transform="rotate(180,1113.75,630)"
       xlink:href="#card"
       id="use342" />
    <g
       transform="matrix(0.2407,0,0,0.2666,1862.1,520.4)"
       id="g375">
      <path
         d="m 1380.3,2057.4 v 268.9 c -32,29.4 -162.4,107.6 -198.2,117.3 -103.3,47 -153.8,3.3 -216.8,-18.8 l -152,-115.2 0.2,-268.9 c 31.9,-29.3 162.3,-107.5 198.1,-117.2 103.3,-47 153.7,-3.3 216.8,18.8 z"
         fill="#333333"
         id="path342" />
      <g
         id="g7710"
         transform="matrix(1,0,0,1.0019,-871.4,-736.9)">
        <path
           d="m 2039.9,2674 138.2,104.6 a 131,131 0 0 1 34.6,-19.2 L 2099.8,2674 Z"
           fill="#eecc55"
           stroke-opacity="0"
           id="path343" />
        <path
           d="m 1986.3,2642.6 c -41,-81.5 44,-170 124.3,-118.6 6.7,18.1 1.3,24.2 -0.8,37.8 -0.4,13.5 11,40.4 13.3,46 2.7,7 -6,14.3 -20.4,11 -3.5,2.5 3.9,14 3.1,17.8 -3.4,0.1 -6.4,2.4 -3.6,6.2 -3.3,10.4 9.8,23.6 2.8,28.2 -31.8,21 -94.3,-1.1 -118.7,-28.4 z"
           fill="#ffffff"
           id="path344" />
        <path
           d="m 1912.6,2643.8 c -9.4,3 -19.2,6.8 -29.5,11.5 a 112.9,112.9 0 0 0 -13.5,4.8 c -61,31.1 -120.5,67.7 -179.3,107.5 a 153,153 0 0 0 -5.4,4.7 v 14.4 c 114.3,46.1 215.6,-15.3 227.7,-142.9 z"
           fill="#3366aa"
           id="path345" />
        <path
           d="m 1956.4,2903.8 c 0.8,-13.7 5.6,-20.1 11.3,-20.3 5.7,-0.2 14.6,4 14.4,20.9 15.8,-0.6 18,8.3 17.5,12.2 -0.6,4.4 -1.9,11.4 -20,9.8 1.8,21.3 -8,19.8 -12,19.7 -3.8,0 -12.2,0 -11.2,-18.5 -16,0 -19.4,-9.6 -19.4,-14 0,-4.5 4.6,-9.6 19.4,-9.8 z m 46.4,-15.3 c 13.4,-4.1 16,14 2,16.4 -7,1.2 -3.9,-3.4 -3.3,-7.1 0.8,-4.2 -10.2,0.6 -18.5,6.7 a 35.3,35.3 0 0 1 19.8,-16 z m -68,-11.5 c -15.7,-11.1 -29.3,7.7 -11.9,17 8.5,4.5 5.6,-2.9 6.3,-7.9 0.8,-5.7 15,6.9 23.3,18.3 a 43,43 0 0 0 -17.8,-27.4 z m 4.9,-9.3 c -2,-13.9 16.4,-13.6 16.4,0.8 0,7 -2.1,4.1 -5.7,2.9 -4,-1.4 0.3,20.3 5,29.5 -6,-4.4 -14.5,-24.4 -15.7,-33.2 z m 54.7,-3.7 c -1.6,-10.4 -15.6,-36.5 -33.9,-14.5 -9.2,11.1 0.6,11.6 8,10.5 14.5,-2.2 19.2,29.7 13.7,42.7 10.7,-15.2 17.4,-10.7 19.7,-22.6 -0.1,-6.5 -7.6,-5.5 -9.7,2.4 0.5,-3.7 2.7,-15.5 2.2,-18.5 z m -18.1,51.1 a 8.1,8.1 0 1 1 -16.2,0 c 0,-4.5 3.6,-8.2 8.1,-8.2 4.5,0 8.1,3.7 8.1,8.2 z"
           fill="#eecc55"
           stroke="#333333"
           stroke-linecap="round"
           stroke-linejoin="round"
           stroke-width="2.4"
           id="path346" />
        <path
           d="m 2176.5,2675.1 c 16.5,-12.7 22.2,43.8 34.7,59.8 -13.3,3.5 -3.7,4.7 -17,8.9 l -49,-37.5 c 9.2,-4.4 21.2,-26.1 31.3,-31.2 z"
           fill="#ffffff"
           stroke="#333333"
           stroke-linecap="round"
           stroke-linejoin="round"
           stroke-width="4.3"
           id="path347" />
        <path
           d="m 2200.3,2608.4 v 141.7 l 14.7,11.1 v -152.8 z"
           fill="#eecc55"
           stroke="#333333"
           stroke-width="4.3"
           id="path348" />
        <path
           d="m 2214.6,2695.7 c 0,4.4 -3.9,8 -8.7,8 -19,0 -8.9,-2 -9.2,-7.6 -0.4,-6 -5.5,-10 9.2,-8.5 4.8,0.5 8.7,3.6 8.7,8.1 z m -0.8,16 c 0,4.5 -3.8,8.1 -8.6,8.1 -18.7,0 -8.7,-2.1 -9.1,-7.6 -0.4,-6 -5.5,-10 9.1,-8.5 4.8,0.5 8.6,3.6 8.6,8 z m 1.2,-32.8 c 0,4.4 -3.7,8 -8.2,8 -18,0 -8.5,-2.1 -8.8,-7.7 -0.4,-6 -5.2,-9.9 8.8,-8.4 4.5,0.5 8.2,3.6 8.2,8 z m -4,48.4 a 6.9,6.9 0 0 1 -6.8,7 c -14.7,0 -7,-1.9 -7.2,-6.7 -0.3,-5.1 -4.3,-8.6 7.2,-7.3 3.7,0.4 6.7,3.1 6.7,7 z"
           fill="#ffffff"
           stroke="#333333"
           stroke-linecap="round"
           stroke-linejoin="round"
           stroke-width="4.3"
           id="path349" />
        <path
           d="m 2238.8,2695.7 c 0,4.4 -5.1,8 -11.4,8 -24.8,0 -11.6,-2 -12.1,-7.6 -0.5,-6 -7.2,-10 12.1,-8.5 6.3,0.5 11.4,3.6 11.4,8.1 z m -1,16 c 0,4.5 -5.1,8.1 -11.3,8.1 -24.5,0 -11.5,-2.1 -12,-7.6 -0.5,-6 -7.1,-10 12,-8.5 6.2,0.5 11.2,3.6 11.2,8 z m 0.2,-32.8 c 0,4.4 -4.9,8 -10.8,8 -23.6,0 -11,-2.1 -11.5,-7.7 -0.5,-6 -6.9,-9.9 11.5,-8.4 5.9,0.5 10.8,3.6 10.8,8 z m -8.3,48.4 c 0,3.8 -4,7 -8.8,7 -19.3,0 -9,-1.9 -9.4,-6.7 -0.4,-5.1 -5.6,-8.6 9.4,-7.3 4.8,0.4 8.8,3.1 8.8,7 z"
           fill="#ffffff"
           stroke="#333333"
           stroke-linejoin="round"
           stroke-width="4.3"
           id="path350" />
        <path
           d="m 2196.8,2695.3 c 0,4.4 -3.5,8 -7.7,8 -4.2,0 -7.7,-3.6 -7.7,-8 0,-4.4 3.5,-8 7.7,-8 4.2,0 7.7,3.6 7.7,8 z m -0.6,16 c 0,4.5 -3.4,8.1 -7.6,8.1 -4.2,0 -7.6,-3.6 -7.6,-8 0,-4.4 3.4,-8 7.6,-8 4.2,0 7.6,3.6 7.6,8 z m 1,15.6 c 0,3.9 -2.7,7 -6,7 -3.3,0 -6,-3.1 -6,-7 0,-3.8 2.7,-7 6,-7 3.3,0 6,3.2 6,7 z m -4.6,-51.5 c -2.4,-4.3 -1.3,-9.1 2.4,-10.9 3.7,-1.8 8.6,0.4 11,4.7 2.4,4.3 1.2,9.1 -2.5,10.8 -3.7,1.8 -8.6,-0.3 -11,-4.6 z"
           fill="#ffffff"
           stroke="#333333"
           stroke-width="4.3"
           id="path351" />
        <path
           d="m 2176.8,2682.3 c -2.4,-4.3 -0.9,-9.3 3.3,-11.3 16.4,-7.6 8.8,-1.5 12,3.7 3.6,5.6 10.1,7.3 -3.5,11.8 a 9.8,9.8 0 0 1 -11.8,-4.2 z"
           fill="#ffffff"
           stroke="#333333"
           stroke-linecap="round"
           stroke-linejoin="round"
           stroke-width="4.3"
           id="path352" />
        <g
           transform="matrix(0.8855,0,0,1.0949,1614.2,2355.1)"
           id="g356">
          <path
             d="m 670.2,123.6 c -8,11.2 -20.6,22.9 -20.6,34.3 a 42,42 0 0 0 12.1,26 l -9,9.2 9,9 a 42.3,42.3 0 0 0 -12,26.2 20.6,20.6 0 0 0 41.1,0 c 0,-8 -5.5,-19.4 -12.1,-26.2 l 9,-9 -9,-9 a 43.9,43.9 0 0 0 12.1,-26.2 c 0,-11.4 -12.6,-23 -20.6,-34.3 z"
             fill="#eecc55"
             stroke="#333333"
             stroke-linecap="round"
             stroke-linejoin="round"
             stroke-width="4.1"
             id="path353" />
          <path
             d="m 670.2,175.2 c 5.8,-3 10.4,-11.2 10.4,-17 0,-5.8 -6.3,-11 -10.4,-14.2 -4.3,3.4 -10.4,8.5 -10.4,14.3 0,5.8 4.7,13.9 10.4,16.9 z m 0,35.8 a 22,22 0 0 1 10.4,16.9 10.4,10.4 0 0 1 -20.8,0 22,22 0 0 1 10.4,-17 z"
             fill="#ee1111"
             stroke="#333333"
             stroke-linecap="round"
             stroke-linejoin="round"
             stroke-width="4.1"
             id="path354" />
          <path
             d="m 666.9,213.4 11,-10.6 m -16,-0.9 10.6,-9 m 1,-20.2 -11,10.6"
             fill="#eecc55"
             stroke="#333333"
             stroke-linecap="round"
             stroke-linejoin="round"
             stroke-width="4.1"
             id="path355" />
          <path
             d="m 678.5,184.2 -10.6,9.1"
             fill="#eecc55"
             stroke="#333333"
             stroke-linejoin="round"
             stroke-width="4.1"
             id="path356" />
        </g>
        <path
           d="m 2251.8,2789 -152,-115 m -414.8,98.4 c 31.9,-29.3 162.3,-107.4 198.1,-117"
           fill="#333333"
           stroke="#333333"
           stroke-linejoin="round"
           stroke-width="5.3"
           id="path357" />
        <path
           d="m 2081.9,2641.9 c 12.6,-2 13.8,-4.3 19.3,-3.3 0.7,4.7 -6.3,2.3 -19.3,3.3 z"
           fill="#3366aa"
           stroke="#3366aa"
           stroke-linecap="round"
           stroke-linejoin="round"
           stroke-width="4.3"
           id="path358" />
        <path
           d="m 2085.4,2567.1 a 3,3 0 1 1 -6,0 3,3 0 1 1 6,0 z"
           fill="#3366aa"
           stroke-width="0.5"
           id="path359" />
        <path
           d="m 2091.7,2558.4 a 300,300 0 0 1 -32.5,5.2 c 0,1.7 15,0.8 20,0 5.2,-0.6 12.5,-3.3 12.5,-5.2 z"
           fill="#3366aa"
           stroke="#3366aa"
           stroke-linejoin="round"
           stroke-width="2.8"
           id="path360" />
        <path
           d="m 2063.2,2565 c 6.3,8.7 20.1,11.4 31.3,2.6"
           fill="none"
           stroke="#3366aa"
           stroke-width="2.8"
           id="path361" />
        <path
           d="m 2088.3,2567.1 a 5.85,5.95 0 1 1 -11.7,0 5.85,5.95 0 1 1 11.7,0 z"
           fill="none"
           stroke="#3366aa"
           stroke-linecap="round"
           stroke-linejoin="round"
           stroke-width="2.4"
           id="path362" />
        <path
           d="m 2002,3164.2 3.7,0.5 h 0.2 c -0.8,-2 -0.9,-5.3 -0.2,-9.9 v -0.4 c 0.5,2.9 2.3,5 5.3,5.5 3.6,0.5 6.7,-2.5 7.2,-6 0.8,-5.4 -5.9,-10.2 -9.7,-20.7 -7,8.6 -14.8,11.7 -15.5,17.1 -0.5,3.6 1.7,7.3 5.3,7.8 3,0.4 5.3,-1.2 6.6,-3.9 v 0.5 c -0.7,4.6 -1.7,7.7 -3,9.4 l 0.1,0.1 m 6.4,-41.2 3.7,0.6 h 0.1 c -0.7,-2 -0.7,-5.3 0.2,-9.8 l 0.1,-0.5 c 0.4,2.9 2,5.2 5,5.7 3.6,0.7 6.8,-2.1 7.5,-5.6 1,-5.4 -5.3,-10.6 -8.8,-21.2 -7.3,8.4 -15.2,11 -16.3,16.5 -0.6,3.5 1.4,7.3 5,8 3,0.5 5.4,-1 6.7,-3.6 v 0.5 a 21,21 0 0 1 -3.3,9.2 v 0.2 m 8.3,-41 3.7,0.9 v -0.1 c -0.6,-2 -0.4,-5.3 0.7,-9.8 l 0.1,-0.4 c 0.2,2.9 1.8,5.2 4.8,5.9 3.5,0.8 6.8,-1.7 7.7,-5.2 1.3,-5.3 -4.8,-10.8 -7.6,-21.6 -7.8,8 -15.8,10.2 -17.1,15.6 -0.8,3.5 0.9,7.5 4.5,8.3 2.9,0.7 5.4,-0.8 6.9,-3.2 l -0.1,0.4 a 21.5,21.5 0 0 1 -3.7,9.1 v 0.1 m 10.3,-40.4 3.7,1 h 0.1 c -0.5,-2 -0.1,-5.3 1.2,-9.8 l 0.1,-0.4 c 0,2.9 1.6,5.3 4.5,6.2 3.5,1 6.8,-1.2 8,-4.6 1.6,-5.3 -4.2,-11.1 -6.3,-22.1 -8.3,7.4 -16.4,9.1 -18,14.4 -1.1,3.4 0.4,7.7 4,8.7 2.8,0.8 5.3,-0.5 7,-2.9 l -0.1,0.5 a 20.7,20.7 0 0 1 -4.2,8.8 v 0.2 m 12.8,-39.8 3.6,1.3 h 0.1 c -0.4,-2.1 0.3,-5.3 1.9,-9.7 l 0.2,-0.4 c -0.2,2.9 1.1,5.4 4,6.5 3.3,1.3 7,-1 8.3,-4.3 1.9,-5.2 -3.5,-11.1 -4.7,-22.2 -9,6.7 -17.3,8.2 -19.2,13.3 -1.2,3.4 0,7.5 3.5,8.7 2.8,1 5.4,0 7.2,-2.3 l -0.1,0.4 a 20.5,20.5 0 0 1 -4.9,8.5 l 0.1,0.2 m 15.7,-38.8 3.4,1.6 h 0.1 a 20,20 0 0 1 2.7,-9.4 l 0.2,-0.5 c -0.4,3 0.7,5.5 3.4,6.8 3.3,1.5 7,-0.2 8.7,-3.4 2.4,-5 -2.6,-11.5 -2.8,-22.6 -9.4,5.9 -17.8,6.6 -20.2,11.5 -1.5,3.3 -0.6,7.6 2.7,9.1 2.7,1.3 5.4,0.4 7.4,-1.8 l -0.2,0.5 c -2,4.2 -3.8,6.9 -5.5,8 v 0.2 m 19,-37.2 3.3,1.9 h 0.2 c 0,-2.2 1,-5.2 3.5,-9.2 l 0.3,-0.4 c -0.7,2.9 0,5.6 2.7,7.1 3.1,1.8 7,0.5 9,-2.6 2.8,-4.6 -1.5,-11.6 -0.5,-22.7 -10,4.9 -18.5,4.8 -21.4,9.4 -1.8,3.1 -1.3,7.5 1.8,9.4 2.6,1.5 5.4,0.9 7.6,-1 l -0.2,0.4 c -2.4,4 -4.5,6.5 -6.3,7.5 v 0.2 m 22.7,-35.2 3,2.2 h 0.2 c 0.2,-2 1.6,-5 4.5,-8.6 l 0.3,-0.4 c -1,2.7 -0.5,5.5 2,7.3 2.9,2.2 6.9,1.3 9.1,-1.5 3.4,-4.3 -0.1,-11.7 2.2,-22.6 -10.6,3.6 -19,2.6 -22.3,7 -2.2,2.8 -2.2,7.3 0.7,9.4 2.4,1.8 5.2,1.5 7.6,-0.1 l -0.2,0.4 c -3,3.6 -5.2,6 -7.1,6.8 v 0.1 m 26.6,-32.3 2.8,2.6 h 0.1 c 0.5,-2 2.3,-4.8 5.6,-8 l 0.3,-0.4 c -1.3,2.6 -1.1,5.5 1,7.6 2.6,2.5 6.7,2.1 9.3,-0.4 3.9,-3.8 1.3,-11.6 5,-22 -11,2 -19,0 -23,3.9 -2.5,2.5 -3.1,7 -0.5,9.5 2.2,2.1 5,2.1 7.6,0.8 l -0.3,0.4 a 23.2,23.2 0 0 1 -7.9,5.9 v 0.1 m 30.6,-28.6 2.4,3 h 0.1 c 0.7,-2 2.8,-4.5 6.6,-7.3 l 0.4,-0.3 c -1.7,2.4 -2,5.3 0,7.6 2.2,2.9 6.2,3 9.1,1 4.4,-3.3 2.9,-11.4 8,-21.3 -11,0.6 -18.8,-2.5 -23.2,0.8 -2.9,2.2 -4.1,6.6 -1.9,9.4 1.9,2.4 4.7,2.8 7.4,1.8 l -0.3,0.3 a 23.2,23.2 0 0 1 -8.6,4.8 v 0.2 m 34.1,-24.2 2,3.2 h 0.2 c 1,-1.8 3.4,-3.9 7.4,-6.2 l 0.5,-0.2 c -2,2.1 -2.6,4.9 -1.1,7.5 1.8,3.2 5.7,3.9 8.9,2.2 4.8,-2.6 4.6,-10.8 11,-20 -11.2,-0.7 -18.4,-5 -23.2,-2.4 -3.1,1.8 -5,6 -3.1,9 1.5,2.7 4.2,3.5 7,2.9 l -0.4,0.3 a 21,21 0 0 1 -9.1,3.5 v 0.2"
           fill="#ffffff"
           stroke="#ffffff"
           stroke-width="1.8"
           id="path363" />
        <path
           d="m 2251.7,2792.4 a 469.6,469.6 0 0 0 -155,134 h 54.2 a 376.6,376.6 0 0 1 100.8,-88 z"
           fill="#eecc55"
           stroke="#333333"
           stroke-linecap="round"
           stroke-linejoin="round"
           stroke-width="3.5"
           id="path364" />
        <path
           d="m 1955.7,2656 c -14.5,105.7 -35.6,181.8 -69.7,244.3 h 15 c 5,-45.7 33.3,-80.7 67.3,-80.7 34,0 62.2,35 67.3,80.7 h 30.3 a 398.6,398.6 0 0 1 108.9,-113.9 l -174,-130.4 z m -119.2,239.6 c 2.2,-3.4 4.3,-7 6.4,-10.5 26.5,-46 42,-96.5 52.9,-148.2 -43.6,67 -123.2,92.6 -210.9,61.7 v 97 z"
           fill="#ee1111"
           stroke="#eecc55"
           stroke-linejoin="round"
           stroke-width="5.3"
           id="path365" />
        <path
           d="m 1824.9,2742.3 c 1.5,2.2 17.3,26 5.8,34 -11.8,8 -27,-17 -27.8,-18.7 -0.6,-1 -0.6,-1.9 -0.1,-2.2 0.5,-0.4 1.4,0 2.2,0.9 1.4,1.5 13.3,20.2 22,14.6 9,-5.6 -2.5,-24.3 -4,-27 -0.7,-1.2 -0.5,-1.7 0,-2.1 0.4,-0.4 1.3,-0.4 1.9,0.5 z m 23,-20.4 c 1.7,1.8 20.6,23.1 11,32.1 -9.7,9.3 -28.2,-13.3 -29.2,-14.6 -0.7,-1 -0.8,-1.8 -0.4,-2.1 0.4,-0.4 1.3,-0.2 2.1,0.5 1.5,1.2 16.2,18.3 23.6,12 7.6,-6.7 -6.8,-23.9 -8.6,-26.1 -0.8,-1 -0.7,-1.6 -0.4,-2 0.3,-0.4 1.3,-0.5 2,0.2 z m 15.3,-25 c 2,1.3 23.6,17.3 16.6,27.5 -7.2,10.5 -28.8,-6.7 -30,-7.7 -0.8,-0.7 -1,-1.5 -0.8,-2 0.3,-0.4 1.2,-0.3 2.1,0.2 1.6,0.8 18.6,13.7 24.2,6.3 5.7,-7.6 -11,-20.7 -13.1,-22.4 -1,-0.7 -1,-1.3 -0.8,-1.7 0.3,-0.5 1,-0.8 1.8,-0.2 z m 14.3,-24.8 c 1.8,0.8 21.8,10.8 17.5,20.2 -4.4,9.5 -24.4,-1.4 -25.6,-2.1 -0.7,-0.4 -1.1,-1 -1,-1.4 0.3,-0.4 1,-0.5 1.8,-0.3 1.5,0.5 17.2,8.6 20.6,1.8 3.6,-7 -11.9,-15.3 -13.9,-16.4 -0.9,-0.5 -1,-1 -0.8,-1.4 0.1,-0.4 0.7,-0.7 1.4,-0.4 z m -80.1,85.3 c 0.8,2.3 9.2,29.5 -3.2,33.8 -12.6,4.4 -20.3,-23.7 -20.7,-25.4 -0.2,-1 0,-1.9 0.5,-2 0.6,-0.2 1.3,0.4 1.8,1.3 0.9,1.7 7.2,23.4 16.6,20.6 9.6,-3 3.6,-24.5 2.8,-27.3 -0.3,-1.3 0,-1.7 0.5,-2 0.5,-0.2 1.3,0 1.7,1 z m -29.6,6 c 0.3,2.5 2.8,30.9 -10.3,32.5 -13.3,1.6 -14.7,-27.6 -14.8,-29.3 0,-1 0.4,-1.8 1,-1.9 0.6,-0.1 1,0.7 1.4,1.7 0.5,1.9 2,24.4 11.8,23.6 10,-0.8 8.7,-23.1 8.6,-26 0,-1.3 0.3,-1.7 0.9,-1.8 0.6,-0.1 1.3,0.3 1.4,1.3 z m -34.2,3.6 c -0.1,2.1 -1.8,26.3 -13,25.9 -11.4,-0.5 -8.7,-25.1 -8.5,-26.6 0.1,-0.9 0.5,-1.5 1,-1.5 0.5,0 0.9,0.8 1,1.6 0.2,1.7 -1.5,20.8 6.8,21.5 8.5,0.7 10.4,-18.3 10.7,-20.7 0.1,-1.1 0.5,-1.4 1,-1.4 0.5,0 1,0.4 1,1.2 z m 140,-96 c -1.6,5.3 -11.5,42.4 -59.7,70.2 -48.1,27.7 -87.4,14.4 -89.5,14.5 -1.1,0 -2,-0.2 -2,-0.8 0.2,-0.7 0.7,-0.7 1.8,-0.8 2.5,-0.4 42.6,9.3 87,-16.7 44.5,-26 57.6,-58.7 60.7,-66.8 0.5,-1.3 1,-2.2 1.6,-2 0.6,0.2 0.5,1.3 0.2,2.4 z m -24.3,19 c -39,10.8 -71.5,33.9 -100.1,57.5 23.5,-31.8 60.4,-55 100,-57.4 z m 42.7,9.6 a 25.6,25.6 0 0 1 -8.7,14.7 56.2,56.2 0 0 0 -14.8,-19.8 38.9,38.9 0 0 0 23.5,5 z m -16.3,32 a 23.7,23.7 0 0 1 -10.8,13 77,77 0 0 0 -12.1,-21.2 44.9,44.9 0 0 0 22.9,8.2 z m -25,28.3 c -3.6,5.2 -7.4,7.9 -12.8,8.6 a 79.9,79.9 0 0 0 -7.6,-23.8 c 6.7,6.2 12.2,13.5 20.4,15.2 z m -31.5,20.6 a 23,23 0 0 1 -16.5,6.3 c 2.4,-8 1,-16.8 -0.2,-25.5 4.3,8.3 9.1,15.7 16.7,19.2 z m -36.7,10.7 a 19.1,19.1 0 0 1 -15.1,2.7 c 4,-5.5 4.1,-13.4 4.6,-21.4 2.3,8.3 4.5,14.1 10.5,18.7 z m -37.2,2.8 a 25.4,25.4 0 0 1 -16.3,-0.7 c 5,-4.4 8,-13.6 10.2,-21.3 0.3,8.6 1.4,16.2 6.1,22 z m 156.2,-127.5 c -0.1,5.3 -2,12.9 -5,16.3 a 46.7,46.7 0 0 0 -15.7,-13.3 87.8,87.8 0 0 1 20.7,-3 z m -190.1,123.1 c -8,0.3 -12.9,-3.3 -17.2,-7 a 111,111 0 0 1 14.3,-15.6 c -0.9,8.6 -1,16.2 2.9,22.6 z"
           fill="#ffffff"
           id="path366" />
        <path
           d="m 1961,2723.9 94.6,150 78.4,-98.3 -69,-51.7 z"
           fill="#eecc55"
           stroke="#333333"
           stroke-linejoin="round"
           stroke-width="4.3"
           id="path367" />
        <path
           d="m 1982.6,2740.3 h 92.6 m -81.8,18.1 h 92.6 m -81.9,18.2 h 92.6 m -81.8,18 h 92.6 m -80.3,18.2 h 61.8 m -51,18.1 h 37.2"
           fill="#eecc55"
           stroke="#333333"
           stroke-linecap="round"
           stroke-linejoin="round"
           stroke-width="4.3"
           id="path368" />
        <path
           d="m 2007.1,2519.5 a 681.6,681.6 0 0 0 -71.1,3.7 c -14,54.7 -30.5,77.7 -38.2,92.3 -9.6,18.8 -17.2,18 -18.7,26.3 v 0.5 l -0.2,1.2 c 0,6.2 4.2,11.9 10.4,12.2 5,0.2 10.1,-3.7 10.4,-9.2 a 7.7,7.7 0 0 0 -2.5,-6.1 l 1.1,-0.2 3.8,4.1 c 4,4.5 10.3,9.4 16.7,11.5 a 9.9,9.9 0 0 0 10,-1.6 9.8,9.8 0 0 0 3.6,-8.3 l 2.1,-1.5 a 47.2,47.2 0 0 0 16.3,11.7 h 0.1 a 10,10 0 0 0 14,-9 l 2.2,-2.7 a 16,16 0 0 0 8,2.5 15,15 0 0 0 15.3,-15 14,14 0 0 0 -7.7,-12.7 l 0.2,-0.4 c 9.7,-20.7 22.6,-30.3 40.2,-98 l 0.3,-1.1 z"
           fill="#eecc55"
           id="path369" />
        <path
           transform="matrix(-0.1768,-0.0802,0.0853,-0.1876,1948.4,2763.4)"
           d="m 365,464.5 c 8.9,-4.8 17,5.7 17.7,13.5 1.5,15.8 -14.3,26.8 -28.8,26.2 -22.4,-1 -37,-23.1 -34.8,-44.2 2.6,-25.6 26.2,-43.7 51.2,-44"
           fill="none"
           stroke="#3366aa"
           stroke-width="14.4"
           id="path370" />
        <path
           d="m 1950.9,2656.2 a 47.1,47.1 0 0 1 -16.4,-11.7 m -15.7,11.4 c -6.5,-2.2 -12.8,-7 -16.7,-11.5"
           fill="#eecc55"
           stroke="#3366aa"
           stroke-linejoin="round"
           stroke-width="2.8"
           id="path371" />
        <path
           d="m 2089,2679 -5,6.4 -8.4,-6.4 -5,6.5 15,12 10.1,-12.8 16.7,12.8 -5,6.4 -8.4,-6.4 -5,6.4 16.8,12.8 10,-12.9 16.7,12.8 -5,6.5 -8.4,-6.4 -5,6.4 16.8,12.8 10,-12.9 16.7,12.8 -5,6.5 -8.4,-6.4 -5,6.4 16.8,12.8 10,-12.9 16.7,12.8 -5,6.5 -8.4,-6.4 -5,6.4 16.7,12.8"
           fill="none"
           stroke="#333333"
           stroke-linejoin="round"
           stroke-width="4.3"
           id="path372" />
        <path
           d="m 1897.8,2615.6 c -10.2,20 -18,17.8 -18.8,27.7 a 12,12 0 0 0 5.2,10.8 10,10 0 0 0 14.2,-3.4 c 2.2,-3.7 1.5,-9 -2.3,-11 -2.5,-1.3 -6.3,-0.5 -7.4,2.6 -0.5,1.5 0,4 2,4 M 1936,2523 c -22.3,87.3 -51,94.3 -40.4,114.3 3.9,7.7 13,11.8 20.7,8.5 7.2,-3 11.2,-11.8 8,-19.5 -2.5,-6.3 -9.6,-10 -15.6,-7 a 10,10 0 0 0 -4.8,13.1 c 1.8,3.6 6.2,5.8 9.6,3.6 2.2,-1.4 3.4,-4.7 1.6,-7 -0.8,-0.9 -3,-1.7 -3.6,0 m 57,-107 c -22.4,87.3 -51.2,95.3 -40.6,115.3 a 18.3,18.3 0 0 0 6.3,7 15.2,15.2 0 0 0 21.7,-5 c 3.5,-6.5 1.8,-15.6 -4.7,-19.5 -5.1,-3 -12.2,-1.6 -15,4.1 -2,4.3 -0.7,10.1 3.7,12.3 3,1.4 7,0.4 8.1,-3 0.7,-2 -0.2,-5 -2.5,-5.2 -0.8,0 -2.6,1.1 -1.4,2 m 57.9,-109.4 c -22.3,87.2 -52.1,96.7 -41.5,116.7 a 18.3,18.3 0 0 0 6.3,7 15.2,15.2 0 0 0 21.7,-5 c 3.5,-6.5 1.8,-15.6 -4.7,-19.5 -5.2,-3 -12.2,-1.6 -15,4.1 -2,4.3 -0.7,10.1 3.7,12.3 3,1.4 7,0.4 8.1,-3 0.6,-2 -0.2,-5 -2.5,-5.2 -0.8,0 -2.6,1.1 -1.4,2 m -21,17.4 c -2,0.2 -2.5,-2.4 -2,-4 1.2,-3 4.9,-3.8 7.4,-2.5 3.9,2 4.6,7.3 2.4,11 a 10.2,10.2 0 0 1 -12.8,4.2 m 159.8,-132 c 6.7,18 1.3,24.2 -0.8,37.7 -0.4,13.6 11,40.4 13.3,46 2.7,7.1 -6,14.3 -20.4,11 -3.5,2.5 4,14 3.1,17.9 -3.4,0 -6.3,2.4 -3.6,6.2 -3.3,10.4 9.8,23.6 2.8,28.1 -31.8,21 -94.2,-1 -118.7,-28.4 m 75.6,-10.6 c -7.6,-3.7 -9.2,8.3 -0.6,8.3 8.6,0 14,-9 30,-11.3 m -30.2,-66 c -0.6,-4.1 9,-7.2 15.8,-8.7 5.1,-1 14,-0.2 15.6,1 a 84,84 0 0 1 2.5,19.7 c 0,5.3 -6.5,8 -6.5,8 m -36.2,-28.3 c 10.2,-5 25.4,-9.4 38.6,-8.1 m -187,77.8 c 9.7,-20.7 25.4,-33.6 43,-101.4 m -28.8,96 c 9.7,-20.8 22.1,-28 39.7,-95.9 m -21.5,101.4 c 9.7,-20.7 26.4,-35.6 44,-103.4 m -29.9,97.9 c 9.7,-20.8 23.1,-30.5 40.7,-98.3 m -22.3,103.9 c 9.7,-20.8 26,-36.1 43.6,-104 m -29.4,98.4 c 9.7,-20.8 22.6,-30.3 40.2,-98.1"
           fill="none"
           stroke="#3366aa"
           stroke-linecap="round"
           stroke-linejoin="round"
           stroke-width="4.3"
           id="path373" />
        <path
           d="m 1934.2,2523.4 -35.4,-73.2 h 246.7 l -33.3,73.2 c -50,-4 -119.8,-6.3 -178,0 z"
           fill="#ee1111"
           stroke="#333333"
           stroke-linecap="round"
           stroke-linejoin="round"
           stroke-width="4.3"
           id="path374" />
        <path
           d="m 1915.6,2450.2 28.6,54.5 40.3,-2.3 -11.7,-52.2 m 157,0 -27.7,54.5 -40.3,-2.3 13.1,-52.2 m -17.5,0 -13.7,51.8 h -42 l -11.9,-51.8"
           fill="none"
           stroke="#333333"
           stroke-linejoin="round"
           stroke-width="6"
           id="path375" />
      </g>
      <use
         transform="rotate(180,1096.9,2183.5)"
         width="744.09998"
         height="1052.4"
         xlink:href="#g7710"
         id="use375" />
    </g>
    <use
       transform="translate(1619.7)"
       xlink:href="#u42807"
       id="use376" />
    <use
       transform="translate(1619.9)"
       xlink:href="#u42809"
       id="use377" />
    <use
       transform="translate(0,945)"
       xlink:href="#frame"
       id="use378" />
    <use
       id="u24387"
       transform="matrix(0.9015,0,0,0.9015,1624.6,11.9)"
       xlink:href="#spade" />
    <use
       id="u24552"
       transform="rotate(180,2126,1102.6)"
       xlink:href="#u24387" />
    <use
       transform="translate(2227.4,1990)"
       style="stroke:#333333"
       xlink:href="#J"
       id="use379" />
    <use
       transform="rotate(180,1012.5,107.5)"
       style="stroke:#333333"
       xlink:href="#J"
       id="use380" />
  </g>
  <g
     id="spade_queen"
     transform="translate(-2227.5,-945)">
    <use
       transform="rotate(180,1215,630)"
       xlink:href="#card"
       id="use381" />
    <path
       d="m 2396.4,1055.9 v 34.1 l -57.6,66 -49,15.6 -28.6,-21.6 v -35 l 57.6,-66 49,-15.6 z"
       fill="#333333"
       stroke="#333333"
       stroke-linecap="round"
       stroke-linejoin="round"
       stroke-width="1.3"
       id="path381" />
    <path
       d="m 2374.2,1098.5 -11.3,-9.8 c -39.5,0 -39.8,17.8 -79.6,17.8 l 11.3,9.8 c 38.5,0 39.6,-17.9 79.6,-17.8 z"
       fill="#eecc55"
       stroke="#333333"
       stroke-linecap="square"
       stroke-linejoin="round"
       id="path382" />
    <path
       d="m 2366.2,1090.7 v 5.8 l -6.3,0.2 v -2.9 l 3.1,-0.1 v -3 l -6.6,0.5 0.5,5.8 -6.3,0.9 -0.4,-3 3.2,-0.4 -0.3,-3 -6.5,1.3 1,5.7 -6,1.7 -0.8,-2.8 3.1,-1 -0.6,-2.8 -6.4,2.2 1.7,5.5 -5.9,2.5 -1,-2.7 3,-1.3 -0.8,-2.8 -6,2.8 1.8,5.4 -6,2.8 -0.9,-2.8 3,-1.3 -1,-2.7 -5.8,2.5 1.6,5.5 -6.3,2.2 -0.7,-2.8 3.1,-1 -0.7,-2.8 -6,1.7 1,5.8 -6.5,1.2 -0.3,-3 3.1,-0.4 -0.4,-3 -6.2,1 0.5,5.8 -6.6,0.4 v -3 h 3.2 l -0.1,-3 -6.4,0.2 v 5.8"
       fill="none"
       stroke="#333333"
       stroke-linejoin="round"
       id="path383" />
    <g
       id="g378">
      <path
         d="m 2339.1,1075.3 c -1,-5 4.4,-6.4 4.8,-1.2 0.2,2.6 -1,1 -2.3,0.6 -1.3,-0.4 -0.1,4.1 1.6,7.3 a 10,10 0 0 1 -4.1,-6.7 z m -7.6,-7 c -2.4,-1 -9.5,-1.2 -7,6 1.2,3.6 2.4,1.3 3,-0.5 1.3,-3.7 8.6,-0.5 10.6,2.4 -1.9,-4.5 -0.1,-5.4 -2.4,-7.5 -1.3,-0.9 -2,1 -0.6,2.5 l -3.6,-3 z m 4.9,9 c -3.3,-1 -3.8,4 -0.4,4.4 1.7,0.3 1,-1 0.7,-1.9 -0.2,-1.1 2.5,0 4.6,1.6 a 8.7,8.7 0 0 0 -5,-4 z m 8.5,2.7 c -1.7,-4.7 3.5,-7.1 4.7,-2 0.6,2.5 -1,1.3 -2.2,1.1 -1.4,0 0.8,4.4 3,7.2 -2.3,-1 -4.3,-3.3 -5.5,-6.3 z m -1.9,1.8 c -2.6,-0.6 -2.8,4.3 0,4.4 1.3,0.1 0.7,-0.5 0.5,-1.4 -0.2,-1.1 4,0.3 5.6,1.6 -0.8,-1.6 -4.5,-4.1 -6.1,-4.6 z"
         fill="#eecc55"
         stroke="#333333"
         stroke-linecap="round"
         stroke-linejoin="round"
         stroke-width="0.5"
         id="path384" />
      <path
         d="m 2265.8,1091.4 61,-48.4 c 2.1,36.6 -30.7,60.9 -61,48.4 z"
         fill="#3366aa"
         id="path385" />
      <path
         d="m 2308.9,1073.7 c 0.4,0.5 4.7,6.5 2.1,9 -2.6,2.4 -6.8,-4 -7,-4.4 -0.2,-0.2 -0.2,-0.5 -0.1,-0.6 0.1,-0.1 0.3,0 0.5,0.2 0.4,0.4 3.6,5 5.6,3.4 2,-1.7 -1.1,-6.4 -1.5,-7.1 -0.2,-0.3 -0.2,-0.5 0,-0.6 0.2,-0.1 0.2,-0.1 0.4,0.1 z m 5,-6 c 0.5,0.5 5.5,5.7 3.4,8.3 -2.1,2.7 -7,-2.9 -7.3,-3.2 -0.2,-0.2 -0.2,-0.4 -0.2,-0.6 l 0.6,0.1 c 0.4,0.3 4.3,4.5 5.9,2.7 1.7,-2 -2.2,-6.2 -2.6,-6.8 -0.3,-0.2 -0.2,-0.4 -0.2,-0.5 0,-0.1 0.3,-0.2 0.5,0 z m 3.2,-7 c 0.5,0.3 6,4 4.6,7 -1.5,2.9 -7,-1.2 -7.4,-1.4 -0.2,-0.2 -0.3,-0.4 -0.2,-0.5 h 0.5 c 0.4,0.1 4.8,3.2 6,1 1.1,-2 -3.2,-5.2 -3.7,-5.6 -0.3,-0.2 -0.3,-0.3 -0.2,-0.4 0.1,-0.1 0.2,-0.2 0.4,-0.1 z m 3,-7 c 0.4,0.2 5.4,2.4 4.5,5 -0.8,2.6 -5.9,0.2 -6.1,0 -0.2,0 -0.3,-0.2 -0.3,-0.3 l 0.4,-0.1 c 0.4,0 4.3,1.9 5,0 0.7,-2 -3.2,-3.8 -3.7,-4 l -0.2,-0.4 c 0,-0.1 0.1,-0.2 0.3,-0.1 z m -17.5,24.7 c 0.3,0.6 2.9,7.6 0,9 -3,1.5 -5.4,-5.8 -5.5,-6.2 v -0.6 c 0.2,0 0.4,0.1 0.5,0.3 0.3,0.5 2.3,6.1 4.4,5.1 2.3,-1 0.4,-6.6 0.1,-7.3 l 0.1,-0.6 c 0.1,0 0.3,0 0.4,0.3 z m -7,2.3 c 0.2,0.6 1.4,8.1 -1.7,8.9 -3.2,0.7 -4.1,-7 -4.2,-7.5 0,-0.3 0,-0.5 0.2,-0.5 l 0.4,0.4 c 0.1,0.5 1,6.5 3.3,6 2.4,-0.4 1.6,-6.4 1.5,-7.1 0,-0.4 0,-0.5 0.2,-0.5 0.2,0 0.3,0 0.4,0.3 z m -8,1.8 c 0,0.5 0,7 -2.6,7.2 -2.8,0.1 -2.6,-6.5 -2.6,-7 0,-0.2 0,-0.3 0.2,-0.3 0.1,0 0.2,0.1 0.2,0.4 0.1,0.4 0.1,5.5 2.1,5.5 2,0 2.1,-5.1 2.2,-5.8 0,-0.3 0,-0.3 0.2,-0.4 0,0 0.2,0.1 0.2,0.4 z m 30.1,-28.4 c -0.3,1.5 -1.8,11.6 -12.8,20.1 -11,8.6 -20.7,6 -21.2,6 l -0.4,-0.1 c 0,-0.2 0.1,-0.2 0.3,-0.3 0.7,-0.1 10.5,1.5 20.6,-6.5 a 36,36 0 0 0 13.4,-19.8 c 0.2,0 0.2,0.3 0.1,0.6 z m -5,6.4 a 66.3,66.3 0 0 0 -22.8,17.7 c 5,-9 13.3,-16 22.8,-17.7 z m 11.4,0.2 a 7.2,7.2 0 0 1 -1.8,4.1 14.6,14.6 0 0 0 -4,-4.9 c 2,0.8 3.8,1.4 5.8,0.8 z m -3.3,9 a 6.4,6.4 0 0 1 -2.3,3.7 20.8,20.8 0 0 0 -3.3,-5.4 c 2,1 3.6,1.8 5.6,1.7 z m -5.3,8 c -0.8,1.5 -1.7,2.4 -3,2.7 a 22.7,22.7 0 0 0 -2.3,-6.2 c 1.8,1.5 3.3,3.3 5.3,3.6 z m -7.1,6.3 c -1,1.3 -2.5,2 -3.9,2.1 a 16,16 0 0 0 -0.6,-6.8 c 1.3,2.1 2.6,4 4.5,4.7 z m -8.6,3.7 c -1.1,1 -2.5,1.4 -3.6,1.1 0.8,-1.5 0.7,-3.6 0.7,-5.8 0.7,2.2 1.3,3.7 2.9,4.7 z m -8.9,1.7 c -1.2,0.6 -2.7,0.6 -3.9,0.2 1.1,-1.3 1.6,-3.8 2,-6 0.3,2.3 0.7,4.3 2,5.8 z m 34.7,-37.7 c 0.1,1.4 -0.2,3.5 -0.8,4.4 a 11.3,11.3 0 0 0 -4,-3.1 19.4,19.4 0 0 1 4.8,-1.3 z m -42.9,37.3 c -2,0.3 -3.2,-0.6 -4.3,-1.4 a 29.8,29.8 0 0 1 3.1,-4.5 c 0,2.3 0.1,4.3 1.2,6 z"
         fill="#ffffff"
         id="path386" />
      <path
         d="m 2318.8,1049 -58.3,46.5"
         fill="none"
         stroke="#333333"
         stroke-linejoin="round"
         stroke-width="1.3"
         id="path387" />
      <path
         d="m 2339.7,1017.2 c -1.4,5.5 -5.3,10 -7.3,16 7.8,3.9 21.9,6.4 28.5,4 a 7.4,7.4 0 0 1 -6.1,-2 c -4.4,-4.1 -10.8,-6.6 -15,-16.9 0,-0.3 -0.2,-0.7 -0.1,-1.1 z"
         fill="#ffffff"
         stroke="#3366aa"
         stroke-linecap="square"
         id="path388" />
      <path
         d="m 2370.4,1033.3 c 5.7,26.9 4.3,39.2 2.2,50 a 183.9,183.9 0 0 0 -45.8,-37.6 l 2.2,-12.5 c 9.4,4.5 30.1,10.5 41.4,0.1 z"
         fill="#ee1111"
         stroke="#eecc55"
         stroke-linecap="round"
         stroke-linejoin="round"
         stroke-width="1.5"
         id="path389" />
      <path
         d="m 2373,999.4 c 0.6,13.7 -0.5,13.4 -0.6,19.5 0,4.7 -3.9,12.5 -5.1,14.7 l 14.7,10.5 a 123.1,123.1 0 0 0 -9,-44.7 z"
         fill="#333333"
         id="path390" />
      <path
         d="m 2372.7,978.2 v 17.1 c 1,18 0,17 -0.3,23.6 -0.4,9.6 -4,13 -6.4,15.7 -2.2,2.5 -7.6,4 -11.2,0.6 -4.4,-4 -11.1,-6.6 -15.4,-16.9 4,-15.3 6.8,-28.8 16,-40.1 z"
         fill="#ffffff"
         id="path391" />
      <path
         d="m 2320.9,978.6 c -0.8,14.4 -2.8,34.6 -10.3,49 a 43,43 0 0 1 15.8,4.2 c 6.3,-16.4 10.5,-35.8 16.1,-53.2 z"
         fill="#eecc55"
         stroke="#333333"
         stroke-linecap="round"
         stroke-linejoin="round"
         id="path392" />
      <path
         d="m 2321.3,978.7 a 127.7,127.7 0 0 1 -10,48.3 l 3,0.5 a 28.8,28.8 0 0 1 5.7,-15.1 c -1.6,-6.5 -0.7,-10 3.3,-15.5 -1.3,-5.4 -1.6,-9.5 2.1,-14.8 -0.8,-1.6 -0.8,-2.4 -0.6,-3.4 z"
         fill="#ee1111"
         id="path393" />
      <path
         d="m 2362.9,1024.1 c -0.2,-0.6 -1.2,0 -1.4,-0.2 -1.2,0.8 -1.6,0.8 -3.5,1 a 11.2,11.2 0 0 0 8.1,0.1 7,7 0 0 1 -3.2,-0.9 z"
         fill="#3366aa"
         stroke="#3366aa"
         stroke-linecap="round"
         stroke-linejoin="round"
         id="path394" />
      <g
         id="g55816"
         transform="matrix(0.048,-0.1548,0.1392,0.0533,2309.2,926.4)">
        <path
           d="m -302.1,258.3 c 0.8,-13.8 5.6,-20.1 11.3,-20.3 5.6,-0.2 14.5,4 14.3,20.8 15.9,-0.5 18,8.3 17.6,12.2 -0.6,4.4 -2,11.4 -20,9.9 1.8,21.2 -8,1 -12,0.8 -4,-0.2 -12.3,18.9 -11.2,0.3 -16,0 -19.4,-9.6 -19.4,-13.9 0,-4.6 4.6,-9.6 19.4,-9.8 z"
           fill="#333333"
           stroke="#ee1111"
           stroke-linejoin="round"
           stroke-width="3.2"
           id="path395" />
        <path
           transform="matrix(0.2638,0,0,0.2683,-230,197.8)"
           d="m -198.2,267.5 a 30.7,30.7 0 1 1 -61.4,0 30.7,30.7 0 1 1 61.4,0 z"
           fill="#333333"
           stroke="#ee1111"
           stroke-linejoin="round"
           stroke-width="11.1"
           id="path396" />
      </g>
      <path
         d="m 2283.7,1102.3 v -12.2 c 7.3,1 9.4,-0.7 12.8,-0.8 4.7,2.7 2.2,17.1 -2,16.5 -6.5,-0.9 -7.1,-1.2 -10.8,-3.5 z"
         fill="#ffffff"
         stroke="#333333"
         stroke-linecap="round"
         stroke-linejoin="round"
         id="path397" />
      <path
         d="m 2339.5,978.6 c 0.3,1.7 -0.2,4.6 -3.7,8.4 1,6.6 -0.6,9.9 -3.9,14 1.2,6.8 -0.2,10.1 -4.4,15 1.6,6.1 -3.7,13.3 -5.5,14 l 4.4,1.8 c 6.3,-16.4 10.5,-35.8 16.2,-53.2 z"
         fill="#3366aa"
         stroke="#333333"
         stroke-linecap="round"
         stroke-linejoin="round"
         id="path398" />
      <path
         d="m 2339.4,1018.3 c 4,-15.3 6.8,-28.8 16,-40.1 h -12.8 c -8,24.6 -13,54 -25.4,72 l 11,0.8 c 5.6,-11.7 8.6,-22.6 11.2,-32.7"
         fill="none"
         id="path399" />
      <path
         d="m 2370,1000.5 a 1.7,1.6 27.8 1 1 -2.2,2.2 1.7,1.6 27.8 1 1 2.2,-2.2 z"
         fill="none"
         stroke="#3366aa"
         stroke-width="0.7"
         id="path400" />
      <path
         d="m 2370.1,1002.2 c -0.5,0.6 -0.3,-0.5 -0.9,-1 -0.6,-0.5 -1.7,0 -1.2,-0.6 0.5,-0.6 1.2,-0.7 1.8,-0.2 0.6,0.5 0.8,1.2 0.3,1.8 z"
         fill="#3366aa"
         stroke="#3366aa"
         stroke-width="0.6"
         id="path401" />
      <path
         d="m 2369.4,1001.2 a 0.8,0.8 28.8 1 1 -1.1,1 0.8,0.8 28.8 1 1 1.1,-1 z"
         fill="#333333"
         stroke-width="0.2"
         id="path402" />
      <path
         d="m 2354,1000.6 a 1.6,1.7 62.2 1 0 2.2,2.2 1.6,1.7 62.2 1 0 -2.2,-2.2 z"
         fill="none"
         stroke="#3366aa"
         stroke-width="0.7"
         id="path403" />
      <path
         d="m 2354.1,1000.6 c -0.7,0.6 0.6,0.3 1.2,0.8 0.7,0.7 0.4,2 1,1.4 0.7,-0.7 0.6,-1.5 0,-2.1 -0.6,-0.6 -1.5,-0.7 -2.2,-0.1 z"
         fill="#3366aa"
         stroke="#3366aa"
         stroke-width="0.7"
         id="path404" />
      <path
         d="m 2354.6,1001.3 a 0.8,0.8 61.3 1 0 1.1,1 0.8,0.8 61.3 1 0 -1.1,-1 z"
         fill="#333333"
         stroke-width="0.2"
         id="path405" />
      <path
         d="m 2339.2,1017.9 c 4.3,10.7 11.2,13.2 15.6,17.3 3.6,3.5 9,2 11.2,-0.6 2.5,-2.7 6,-6 6.4,-15.7 0.3,-6.6 1.4,-5.6 0.4,-23.5 a 412.2,412.2 0 0 1 0,-16.8 m -12.9,38.6 c -2,1.3 0,3.6 1.6,2.8 m 2,-20.2 c 1.1,18.5 3,17.2 3,18.4 0,2.5 -1.6,2 -3,1.2 l 0.2,2.3 m 0,6.8 c -1.5,-1 -2.3,-0.5 -3.1,0 m 9.9,-49.9 c 0.5,1.5 1,3 2.1,3.6 m -4.4,-3.6 c 0.8,3.5 2.5,5.7 4.3,6.8 m -6.5,-6.8 c 1.5,5.2 3.1,8.3 6.6,10.3 m -8.7,-10.3 c 2.2,8 4.1,11 8.7,13.7 m -16.4,-13.7 a 8.1,8.1 0 0 1 -3.3,3.3 m 5.4,-3.3 c -0.9,3 -5.1,6.7 -8.3,7.9 m 10.4,-7.9 c -1.4,4.8 -6.6,9.8 -12.5,12.4 m 14.6,-12.4 c -1.6,6.1 -9,13.6 -16.2,15.7 m 13.3,7.4 c -2,-0.5 -3,-2.2 -4.6,-2 -1.8,0.1 -3.1,1.7 -5.5,2.3 3,0 4.3,2 6,1.8 1.5,-0.3 2,-1.3 4.1,-2 z m -3.1,3.5 c -2.4,0.4 -4.6,0 -6.2,-1.5 m 22.4,-2.1 v 0.8 c -2.5,1 -2.8,1.7 -4.4,1.4 -1.6,-0.3 -1.8,-1.4 -4,-2.1 2.2,-0.5 3,-2.1 4.8,-2 1.8,0.2 2.3,1.4 3.6,1.9 z m -5.2,3.6 c 2.5,0.4 3.7,-0.1 5.5,-1.3"
         fill="none"
         stroke="#3366aa"
         stroke-linecap="round"
         stroke-linejoin="round"
         id="path406" />
      <path
         d="m 2358.9,999.7 c -2,-1.4 -3.3,-2 -5.5,-1.4 -1.7,0.5 -2.9,2 -4.6,3.1 v 0.8 c 3.4,-1 5.1,-2.5 8.8,-2 z m 6.2,0 c 2,-1.5 3,-2 5.3,-1.5 0.8,0.2 1.7,1.8 2.3,2.3 l 0.2,0.8 c -2,-0.6 -2.9,-1.7 -6.5,-1.1 z m -7.5,-4.5 0.3,1 c -4,-1.4 -4.6,0 -9.4,2.3 3.6,-2.4 5.9,-3.9 9.1,-3.3 z m 6.7,0.1 -0.3,1.1 c 4,-1.5 3,-1 7.9,1.2 -3.6,-2.3 -4.4,-2.9 -7.6,-2.3 z"
         fill="#3366aa"
         stroke="#3366aa"
         stroke-linecap="round"
         stroke-linejoin="round"
         stroke-width="0.4"
         id="path407" />
      <path
         d="m 2391,988.1 c -3.5,6.5 -9.6,13 -2.9,19.5 1.6,27.2 1.3,58.6 0,86.9 l 5.8,-5 c -0.8,-27.1 -1,-54.8 0,-82 5.5,-6.4 1.1,-12.9 -2.9,-19.4 z"
         fill="#eecc55"
         stroke="#333333"
         id="path408" />
      <path
         d="m 2260.5,1095.5 c 6.8,-5.9 11.5,-6.2 23.8,-5.2 v 13 a 40.3,40.3 0 0 0 -23.8,17.4 z"
         fill="#ee1111"
         stroke="#333333"
         stroke-linejoin="round"
         stroke-width="1.3"
         id="path409" />
      <path
         d="m 2388.2,1020.1 c 2.7,3.9 2.1,1.4 5.8,-3.6 -0.9,5 0.2,14.6 -1.5,16.5 -4.7,-3.1 -4,-5.9 -4.3,-12.9 z"
         fill="#eecc55"
         stroke="#333333"
         stroke-linecap="square"
         stroke-linejoin="round"
         id="path410" />
      <path
         d="m 2387.5,1010.6 c 2.6,4 -0.2,12 1.4,13.9 6,-6.3 3.5,-8.3 5.9,-14.5"
         fill="#eecc55"
         stroke="#333333"
         stroke-linecap="square"
         stroke-linejoin="round"
         id="path411" />
      <path
         d="m 2391,997.4 c 3.3,5.3 6.7,9.3 2.4,14.6 -4.2,7.5 -2.7,7 -2.3,7 0.4,0 1.6,-0.3 -2.5,-7 -5.3,-5.3 -0.4,-9.3 2.4,-14.6 z m 2.4,33.3 c -2.3,3.4 -1.9,1.3 -5.1,-3.2 0.8,4.5 -0.1,13 1.3,14.6 4.1,-2.7 3.6,-5.2 3.8,-11.4 z"
         fill="#eecc55"
         stroke="#333333"
         stroke-linecap="square"
         stroke-linejoin="round"
         id="path412" />
      <path
         d="m 2388.5,1039.8 c 2.3,3.4 1.9,1.3 5.1,-3.2 -0.8,4.5 0.1,13 -1.3,14.6 -4.1,-2.7 -3.6,-5.2 -3.8,-11.4 z"
         fill="#eecc55"
         stroke="#333333"
         stroke-linecap="square"
         stroke-linejoin="round"
         id="path413" />
      <path
         d="m 2391.7,1059.1 c -0.8,0.2 -1.5,-0.7 -1.5,-1.5 a 2.2,2.2 0 0 1 2.2,-2.3 c 1.6,0 2.7,1.7 2.6,3.4 a 3.6,3.6 0 0 1 -3.9,3.5 c -2.3,-0.2 -4,-2.7 -3.7,-5.3 a 5.4,5.4 0 0 1 2.2,-3.8 m 1.1,27.8 c 0.8,0.2 1.5,-0.7 1.5,-1.5 a 2.2,2.2 0 0 0 -2.2,-2.3 c -1.6,0 -2.7,1.7 -2.6,3.4 a 3.6,3.6 0 0 0 3.9,3.5 c 2.3,-0.2 4,-2.7 3.7,-5.3 a 5.5,5.5 0 0 0 -1.8,-3.5"
         fill="#eecc55"
         stroke="#333333"
         stroke-linecap="round"
         id="path414" />
      <path
         d="m 2391,991.4 c 1.2,2 2,3.1 0,5.8 -1.8,-2.3 -2,-3.2 0,-5.8 z"
         fill="#ee1111"
         stroke="#3366aa"
         stroke-linecap="square"
         stroke-linejoin="round"
         id="path415" />
      <path
         d="m 2336.3,1042.4 c 7.9,3.7 25.7,4.6 32,-2.3 a 97.4,97.4 0 0 1 1.2,31.5 c -8.7,-10.6 -22,-19.5 -33.2,-29.2 z"
         fill="#eecc55"
         stroke="#333333"
         stroke-linecap="square"
         stroke-linejoin="round"
         id="path416" />
      <path
         d="m 2345,1047.4 h 22.3 m -14.2,6.3 h 14.4 m -3.5,9.4 h 3.8 m -18.8,-12.6 h 18.5 m -10.6,6.3 h 10.7 m -6.8,3.2 h 7"
         fill="#eecc55"
         stroke="#333333"
         stroke-linecap="round"
         stroke-linejoin="round"
         id="path417" />
      <path
         d="m 2377.3,1041.4 c -1,2.8 -2.6,4 -2.4,5.5 0.1,1 0.9,1.8 1.7,1.6 0.8,0 1.2,-0.7 1.3,-1.4 v 0.1 a 6.1,6.1 0 0 1 0,2.6 h 0.9 v -0.1 a 6,6 0 0 1 -0.7,-2.5 v -0.2 c 0.3,0.7 0.9,1.2 1.6,1.1 0.9,-0.1 1.4,-1.1 1.3,-2 -0.2,-1.5 -2,-2.3 -3.7,-4.7 z m -43.7,11 c -1.1,0 -2.6,0.5 -4.5,0.4 1.3,2.6 1.1,4.8 2.2,5.6 0.8,0.5 1.8,0.4 2.2,-0.4 0.4,-0.7 0.3,-1.4 -0.1,-2 h 0.1 a 5,5 0 0 1 1.7,1.8 v 0 l 0.6,-0.8 v 0 a 7,7 0 0 1 -2.2,-1.2 v 0 c 0.6,0.2 1.3,0 1.7,-0.7 0.5,-0.8 0.1,-1.9 -0.6,-2.4 a 2,2 0 0 0 -1.1,-0.3 z m 45,0.7 c -1,2.7 -2.7,4 -2.6,5.4 0.1,1 0.8,1.7 1.6,1.6 0.8,0 1.2,-0.6 1.4,-1.3 v 0 c 0,1.3 0,2.2 -0.2,2.7 h 1 a 6,6 0 0 1 -0.6,-2.6 v -0.2 c 0.3,0.8 0.8,1.2 1.5,1.2 0.9,0 1.5,-1.1 1.4,-2 -0.1,-1.5 -2,-2.4 -3.5,-4.8 z m -37,5.7 c -1,0 -2.4,0.3 -4,0.1 1,2.7 0.8,5 1.8,5.8 0.7,0.6 1.7,0.5 2.2,-0.3 0.5,-0.6 0.4,-1.4 0,-2 h 0.1 a 5,5 0 0 1 1.6,2 v 0 l 0.6,-0.8 v 0 c -0.5,-0.1 -1.2,-0.5 -2,-1.3 h -0.2 c 0.7,0.2 1.4,0 1.8,-0.6 0.6,-0.7 0.3,-1.9 -0.4,-2.5 -0.4,-0.3 -1,-0.4 -1.5,-0.4 z m 37.8,5.9 c -1.3,2.6 -3,3.6 -3,5 0,1 0.5,1.9 1.4,1.9 0.7,0 1.3,-0.5 1.5,-1.2 v 0.1 a 5.7,5.7 0 0 1 -0.5,2.6 h 1 a 6.3,6.3 0 0 1 -0.3,-2.6 v 0 c 0.2,0.7 0.7,1.2 1.4,1.2 0.9,0 1.6,-0.9 1.6,-1.8 0,-1.5 -1.7,-2.7 -3.1,-5.2 z m -33.5,1 c 1,2.7 0.6,4.9 1.6,5.8 0.6,0.6 1.7,0.7 2.2,0 0.5,-0.7 0.5,-1.4 0.1,-2 h 0.1 a 5.4,5.4 0 0 1 1.5,2 v 0 l 0.7,-0.8 v 0 c -0.5,-0.1 -1.2,-0.6 -2,-1.4 h -0.1 c 0.6,0.2 1.3,0.2 1.8,-0.4 0.5,-0.8 0.3,-1.9 -0.3,-2.5 -1,-1 -3,-0.3 -5.6,-0.7 z m 8.4,7.2 c 0.8,2.9 0.3,5 1.2,6 0.7,0.7 1.7,0.7 2.3,0 0.5,-0.5 0.5,-1.3 0.2,-2 v 0.1 c 0.9,0.9 1.3,1.6 1.5,2.1 v 0 l 0.6,-0.7 v 0 a 5.1,5.1 0 0 1 -2,-1.6 v 0 c 0.6,0.3 1.3,0.3 1.8,-0.3 0.6,-0.7 0.5,-1.9 -0.1,-2.6 -1,-1 -3,-0.3 -5.5,-1 z m 24.8,3.4 c -1.6,2.5 -3.4,3 -3.6,4.5 -0.2,1 0.3,2 1.2,2.1 0.7,0.2 1.3,-0.2 1.6,-1 v 0.2 a 5.3,5.3 0 0 1 -0.8,2.4 v 0 l 0.9,0.3 v 0 c -0.2,-0.6 -0.1,-1.4 0,-2.7 v 0 c 0.2,0.7 0.6,1.3 1.3,1.4 0.9,0.2 1.7,-0.6 1.8,-1.5 0.2,-1.5 -1.3,-3 -2.4,-5.7 z m -16.5,4.4 c 0.6,2.9 0,5 0.9,6 0.5,0.7 1.5,0.9 2.2,0.3 0.5,-0.6 0.6,-1.3 0.3,-2 v 0 a 5.4,5.4 0 0 1 1.3,2.3 v 0 l 0.8,-0.7 v 0 c -0.5,-0.2 -1.1,-0.8 -1.9,-1.7 v -0.1 c 0.6,0.4 1.3,0.4 1.8,-0.1 0.7,-0.6 0.6,-1.8 0,-2.6 -1,-1 -2.9,-0.6 -5.4,-1.4 z m 9.7,4.9 c -0.4,3 -1.7,4.5 -1.3,5.9 0.3,0.9 1.2,1.4 2,1.1 0.7,-0.2 1,-0.9 1,-1.6 v 0 a 5.3,5.3 0 0 1 0.4,2.6 v 0 l 0.9,-0.2 v 0 a 6.5,6.5 0 0 1 -1,-2.4 l -0.1,-0.1 c 0.4,0.6 1,1 1.7,0.7 0.9,-0.3 1.2,-1.5 1,-2.4 -0.5,-1.4 -2.5,-1.8 -4.6,-3.6 z"
         fill="#ffffff"
         stroke="#ffffff"
         stroke-linecap="round"
         stroke-linejoin="round"
         stroke-width="0.3"
         id="path418" />
      <path
         d="m 2320.3,1074.4 a 48.5,48.5 0 0 1 -17.4,16.3 v 13.6 c 13.9,-3 24.3,-10.1 36.5,-13.4 z"
         fill="#ee1111"
         id="path419" />
      <path
         d="m 2317.2,1050.2 11,0.8 c 14,-29.4 12,-54 27.2,-72.7 h -12.9 c -8,24.6 -13,54 -25.3,71.9 z"
         fill="#333333"
         id="path420" />
      <use
         id="u3787"
         transform="matrix(0.8388,0,0,0.8388,372.5,173)"
         width="744.09998"
         height="1052.4"
         xlink:href="#g55816" />
      <use
         transform="translate(-4.3,15)"
         width="744.09998"
         height="1052.4"
         xlink:href="#u3787"
         id="use420" />
      <path
         d="m 2301.2,1100.1 c 0,-1 -1,-2 -2.3,-2.1 -5.3,-0.6 -2.5,0.2 -2.7,1.5 -0.2,1.4 -1.7,2.2 2.5,2.3 1.3,0 2.4,-0.7 2.5,-1.7 z m -0.3,-4.9 c 0,-1 -1.1,-1.9 -2.5,-1.9 -5.2,0.1 -2.4,0.6 -2.5,1.9 0,1.4 -1.4,2.4 2.7,2 1.3,-0.2 2.3,-1 2.3,-2 z m -0.4,9.6 c 0,-1 -0.9,-2 -2.2,-2.2 -5,-0.7 -2.4,0.2 -2.6,1.5 -0.2,1.3 -1.6,2.1 2.3,2.3 1.3,0 2.4,-0.6 2.5,-1.6 z m -1.3,-13.6 c 0,-0.9 -0.9,-1.7 -2,-1.7 -4,0 -1.9,0.4 -2,1.5 0,1.3 -1.1,2 2.1,1.8 1,0 1.9,-0.7 1.9,-1.6 z"
         fill="#ffffff"
         stroke="#333333"
         stroke-linejoin="round"
         id="path421" />
    </g>
    <use
       transform="rotate(180,2328.8,1102.5)"
       width="2632.5"
       height="1575"
       xlink:href="#g378"
       id="use421" />
    <use
       transform="translate(202.7,945)"
       xlink:href="#frame"
       id="use422" />
    <use
       transform="translate(1620)"
       xlink:href="#u42811"
       id="use423" />
    <use
       transform="translate(1620)"
       xlink:href="#u42813"
       id="use424" />
    <use
       transform="translate(202.7)"
       xlink:href="#u24387"
       id="use425" />
    <use
       transform="translate(202.7)"
       xlink:href="#u24552"
       id="use426" />
    <use
       transform="translate(2227.5,1990)"
       style="stroke:#333333"
       xlink:href="#Q"
       id="use427" />
    <use
       transform="rotate(180,1214.95,107.5)"
       style="stroke:#333333"
       xlink:href="#Q"
       id="use428" />
  </g>
  <g
     id="heart_1"
     transform="translate(-2227.5,-945)">
    <use
       id="u41664"
       transform="rotate(180,101.3,787.6)"
       xlink:href="#heartS" />
    <path
       id="heart"
       d="M 101.3,810.3 C 91.3,795.3 79,788 79,776.8 c 0,-6.2 4.7,-12 11,-12 6.6,0 10.6,5.2 11.2,12 0.7,-6.8 4.7,-12 11.2,-12 6.4,0 11,5.8 11,12 0,11.2 -12.1,18.5 -22.1,33.5 z"
       fill="#ee1111" />
    <use
       id="heartS"
       transform="matrix(0.4498,0,0,0.4498,-28.4,334.3)"
       xlink:href="#heart" />
  </g>
  <g
     id="heart_2"
     transform="translate(-2227.5,-945)">
    <use
       id="u41668"
       transform="translate(202.5)"
       xlink:href="#heartS" />
    <use
       id="u41670"
       transform="translate(202.5)"
       xlink:href="#u41664" />
  </g>
  <g
     id="heart_3"
     transform="translate(-2227.5,-945)">
    <use
       id="u41685"
       transform="translate(405)"
       xlink:href="#heartS" />
    <use
       id="u41687"
       transform="translate(405)"
       xlink:href="#u41664" />
  </g>
  <g
     id="heart_4"
     transform="translate(-2227.5,-945)">
    <use
       id="u41689"
       transform="translate(405)"
       xlink:href="#u41668" />
    <use
       id="u41691"
       transform="translate(405)"
       xlink:href="#u41670" />
  </g>
  <g
     id="heart_jack"
     transform="translate(-2227.5,-945)">
    <use
       transform="rotate(180,1113.75,472.5)"
       xlink:href="#card"
       id="use557" />
    <g
       transform="matrix(0.2407,0,0,0.2666,1870.2,179)"
       id="g592">
      <path
         d="m 1346.3,2314.7 v -181.5 c -56,-50 -102.3,-74.2 -147,-89.8 -44.7,-15.6 -152.6,-16.6 -198,3 -45.4,19.6 -167.5,103.4 -221.8,204.3 v 181.6 c 56,50 102.4,74.1 147,89.8 44.5,15.6 152.6,16.6 198.1,-3.1 45.5,-19.7 167.4,-103.3 221.7,-204.3 z"
         fill="#333333"
         id="path557" />
      <g
         id="g8100"
         transform="matrix(1,0,0,1.0019,-107.2,-637.6)">
        <path
           d="m 1297.9,2951.4 c 43.3,-34.8 110.2,-36.5 155.7,-4.7 v -181.1 a 448.3,448.3 0 0 0 -112,-75.6 c 26.3,119 -12.5,200.6 -43.7,261.4 z"
           fill="#ee1111"
           id="path558" />
        <path
           d="m 1207.9,2664.3 c -38.3,0.3 -76.7,5 -99.4,14.8 h -0.2 a 244.8,244.8 0 0 1 26,63.6 c 10.2,35.8 3.7,74.1 -10,108 a 484.6,484.6 0 0 1 -12,26.5 h 151.8 a 323,323 0 0 0 21.8,-71.5 c 7.7,-38.4 1.6,-77.8 -8,-115.2 a 320,320 0 0 0 -5.9,-22.3 444.6,444.6 0 0 0 -64.1,-3.9 z"
           fill="#3366aa"
           stroke="#3366aa"
           stroke-linecap="square"
           stroke-width="5.3"
           id="path559" />
        <g
           transform="translate(798.1,2388.7)"
           id="g565">
          <g
             id="g561">
            <path
               d="m 655.5,86.3 -33.6,35.3 V 348 l 33.6,26.2 z"
               fill="#eecc55"
               stroke="#3366aa"
               stroke-linejoin="round"
               stroke-width="4.3"
               id="path560" />
            <path
               d="m 655.5,103 -23.9,25.5 v 228.3 l 3.1,2.4 0.2,0.2 20.6,16.3 z"
               fill="#ee1111"
               stroke="#3366aa"
               stroke-linejoin="round"
               stroke-width="4.3"
               id="path561" />
          </g>
          <g
             transform="translate(2,8.6)"
             id="g564">
            <path
               d="m 549.9,100.1 c -18.2,28.5 -16.4,69.2 -3.1,117 16.4,-19.7 47,-31 73.2,-44.9 v -24.6 c -45.8,-21.2 -61.1,-35 -70.1,-47.5 z"
               fill="#ffffff"
               stroke="#333333"
               stroke-linecap="round"
               stroke-linejoin="round"
               stroke-width="4.3"
               id="path562" />
            <path
               d="m 543.6,158.3 c 9.6,-3.4 12,-7.1 19.5,-14 16.1,6.9 39.8,10.6 56.6,14 -16.8,3 -40.5,6.2 -56.6,13.3 a 40.6,40.6 0 0 0 -19.5,-13.3 z"
               fill="none"
               stroke="#333333"
               stroke-linecap="round"
               stroke-linejoin="round"
               stroke-width="4.3"
               id="path563" />
            <path
               d="m 563.5,171.4 a 79,79 0 0 1 -12.3,40 c -10.6,-45.4 -11.6,-85.4 2.6,-106 6,12.8 8.5,25.6 9.7,38.4"
               fill="none"
               stroke="#333333"
               stroke-linecap="round"
               stroke-linejoin="round"
               stroke-width="4.3"
               id="path564" />
          </g>
        </g>
        <path
           d="m 941.2,2723.4 c 0,0.1 0.3,1.7 -0.7,5.2 -1.3,4.5 -10,5.5 3.6,13 l -6.6,45.6 c 11.3,0 10.9,5.5 14.3,9 a 592,592 0 0 1 31,-29.9 c -6,-22.5 -41.3,-42.5 -41.6,-42.9 z"
           fill="#ffffff"
           stroke="#333333"
           stroke-linecap="round"
           stroke-linejoin="round"
           stroke-width="4.3"
           id="path565" />
        <path
           d="m 929.7,2754.5 c -1.2,3.2 0.6,7 4.1,8.2 13.8,5.1 7,0.9 8.8,-3 2,-4.3 6.7,-5.8 -4.4,-8.7 -3.6,-1 -7.3,0.3 -8.5,3.5 z m -0.7,14.2 c -0.9,3.4 1.3,6.8 4.8,7.8 14,3.8 7,0.2 8.4,-4 1.5,-4.3 6.1,-6.3 -5.1,-8 -3.7,-0.7 -7.2,0.9 -8.1,4.2 z m 4.2,-27.9 a 6.3,6.3 0 0 0 3.5,8.3 c 12.9,5.3 6.7,1 8.6,-3 2,-4 6.7,-5.5 -3.8,-8.6 -3.4,-1 -7,0.1 -8.3,3.3 z m -3.5,41.1 a 5.3,5.3 0 0 0 3.7,6.6 c 11,3 5.5,0 6.7,-3.5 1.3,-3.8 5,-5.6 -3.9,-7 -2.9,-0.4 -5.7,1 -6.5,4 z"
           fill="#ffffff"
           stroke="#333333"
           stroke-linecap="round"
           stroke-linejoin="round"
           stroke-width="4.3"
           id="path566" />
        <path
           d="m 912,2748 c -1.1,3.2 1.6,7.2 6.2,9 18,6.6 9,1.5 10.9,-2.4 2,-4.2 8,-5.2 -6.5,-9.4 -4.7,-1.3 -9.3,-0.4 -10.5,2.8 z m -1,16 c -0.8,3.3 2.3,7 7,8.3 18.3,4.9 9,0.7 10.4,-3.4 1.6,-4.3 7.4,-6 -7.2,-8.7 -4.8,-0.9 -9.2,0.4 -10.1,3.8 z m 5.8,-30 c -1.3,3.2 1,7.2 5.3,9 17,7 8.6,1.8 10.6,-2 2.1,-4.2 7.8,-5.1 -5.7,-9.5 -4.5,-1.4 -8.9,-0.7 -10.2,2.5 z m -1.1,44.2 c -0.8,2.9 1.5,6 5.2,7 14.5,3.9 7.1,0.4 8.4,-3.1 1.3,-3.8 6,-5.3 -5.6,-7.4 -3.7,-0.6 -7.3,0.6 -8,3.5 z m 27,-19.1 a 6.1,6.1 0 0 0 3.5,8 6.1,6.1 0 0 0 7.8,-3.8 6.1,6.1 0 0 0 -3.4,-8 6.1,6.1 0 0 0 -7.8,3.8 z m -0.4,13 a 6,6 0 0 0 4.1,7.5 c 3.2,0.9 6.4,-1.2 7.3,-4.5 0.9,-3.3 -1,-6.7 -4,-7.6 a 6.2,6.2 0 0 0 -7.4,4.5 z m 3.2,-26.4 c -1.3,3.2 0,6.7 2.8,8 2.9,1.1 6.3,-0.5 7.7,-3.6 1.4,-3.1 0,-6.8 -2.9,-8 -2.9,-1.2 -6.3,0.4 -7.6,3.6 z m -5.3,38.8 c -0.8,2.9 0.6,5.8 3,6.4 2.6,0.7 5.2,-1.1 6,-4 0.8,-2.9 -0.6,-5.8 -3.1,-6.4 -2.5,-0.7 -5.1,1.1 -6,4 z m 0.8,-56.2 c 0.8,-3.8 -1,-7.6 -4,-8.6 -3,-1 -6,1.3 -6.9,5 -0.8,3.8 1,7.6 4,8.6 3,1 6,-1.3 6.9,-5 z"
           fill="#ffffff"
           stroke="#333333"
           stroke-width="4.3"
           id="path567" />
        <path
           d="m 940.9,2723.2 c 25.2,-46.6 48.3,-23 80.3,-33.4 -18,35.4 -52,22.4 -80.3,33.4 z"
           fill="#eecc55"
           stroke="#333333"
           stroke-linecap="round"
           stroke-linejoin="round"
           stroke-width="4.3"
           id="path568" />
        <path
           d="m 948.3,2717.3 c 18.8,-17.9 35.2,-4 66,-22.4 m -52.3,9 -1.2,5 3.9,4.2 m 5.4,-13 -2,7 4.6,6.2 m 5.4,-14.2 -2.5,7 5,6.5 m 4.3,-13.8 -1.8,6.4 4.5,5.5 m 4.4,-11.5 -1.5,4.8 3.7,4.4 m 4.3,-9.7 -0.7,3.4 3.3,3.6"
           fill="none"
           stroke="#333333"
           stroke-linecap="round"
           stroke-linejoin="round"
           stroke-width="4.3"
           id="path569" />
        <path
           d="m 1058.5,2707.5 a 645.3,645.3 0 0 0 -44.8,32.7 64.8,64.8 0 0 1 12.4,34.6 64.4,64.4 0 0 1 -62.4,67.7 67.4,67.4 0 0 1 -41.7,-12.3 368.2,368.2 0 0 0 -31.2,45.5 124.8,124.8 0 0 0 76,22 119.1,119.1 0 0 0 115.4,-125.3 120,120 0 0 0 -23.7,-64.9 z"
           fill="#eecc55"
           id="path570" />
        <path
           d="m 1052.4,2710.4 10.3,18.4 -6.5,3 -4.6,-9 -6.2,3.7 8.1,17.2 13.4,-5 6,20.6 -7.1,1.3 -2.4,-9.8 -6.9,1.9 3.6,18.6 14.3,-1.4 v 21.6 l -7.2,-0.7 0.5,-10.1 h -7.2 l -1.9,18.8 14.1,2.6 -6.5,20.8 -6.6,-2.8 3.5,-9.5 -6.8,-2.2 -7.4,17.4 12.6,6.7 -12.3,18 -5.5,-4.7 6.2,-8 -5.9,-4.2 -12.2,14.6 10.1,10.1 -16.8,13.6 -4,-6 8.2,-6 -4.4,-5.6 -15.9,10.5 6.9,12.6 -20,8.4 -2,-6.9 9.4,-3.4 -2.6,-6.7 -18.2,5.7 3,14 -21.3,2.4 -0.2,-7.1 10,-0.7 -0.8,-7.1 -18.7,0.3 -1.3,14.3 -21.2,-3.6 2,-6.9 9.8,2.1 1.3,-7 -18.4,-4.8 -4.9,13.4 -19.5,-8.8 3.5,-6.2 9,4.5 3.1,-6.5 -17,-9.3"
           fill="none"
           stroke="#333333"
           stroke-linejoin="round"
           stroke-width="4.3"
           id="path571" />
        <path
           d="m 1009.5,2743.5 a 580.6,580.6 0 0 0 -84.3,82.7 62,62 0 0 0 38.1,11.1 59.3,59.3 0 0 0 57.4,-62.3 59.6,59.6 0 0 0 -11.2,-31.5 z"
           fill="#3366aa"
           id="path572" />
        <path
           d="m 906.3,2851.3 a 94.8,94.8 0 0 0 58.9,17.5 90.5,90.5 0 0 0 87.6,-95.2 91.1,91.1 0 0 0 -18.2,-49.5"
           fill="none"
           stroke="#333333"
           stroke-linecap="round"
           stroke-width="4.3"
           id="path573" />
        <path
           d="m 1003.3,2785.8 c 18,-5.2 11.5,-25 -6.2,-17.6 -8.6,3.7 -0.7,5.2 2.8,8.5 4,3.6 -12.4,5.8 -26.3,5.5 a 39.6,39.6 0 0 0 29.7,3.6 z m -17.8,29.7 c 7.8,17.8 -11.6,21 -13,8 -0.5,-4.3 0.8,-5.3 5,-5.9 4.4,-0.5 -5.3,-16.4 -14,-27.6 8.1,4.7 17,14.2 22,25.5 z m -17.7,3.8 c -0.6,17.2 -23.3,16.9 -20.2,-0.6 1.5,-8.6 5.3,-2.1 9.6,0.1 5,2.5 6.5,-12.6 2.5,-24.7 6.9,6.6 8.5,14.3 8,25.2 z m 28.8,-14.8 c 20.5,4 22,-14.3 7.7,-13.4 -4.8,0.4 -5.7,2 -6.8,6 -1,3.8 -14.3,-4 -27.8,-9.8 6.5,6.5 13.9,14.6 26.9,17.2 z"
           fill="#ffffff"
           id="path574" />
        <path
           d="m 916,2835.9 c 2,2.6 -1,13.2 2.3,14.7 3.2,1.6 11.2,-8.3 14.5,-7.1 3.3,1.2 3.3,14 6.8,14.7 3.4,0.8 9,-10.5 12.5,-10.1 3.5,0.4 6.5,12.8 10,12.7 3.5,-0.1 6.2,-12.4 9.8,-12.9 3.6,-0.5 9.3,10.8 12.7,9.9 3.4,-0.9 2.8,-13.6 6,-15 3.2,-1.4 12.1,7.8 15.1,6 3.1,-1.8 -1,-13.7 1.6,-16 2.7,-2.3 13.9,4 16.2,1.4 2.4,-2.7 -5,-13 -3,-16 2,-2.9 14.3,0 15.8,-3.3 1.4,-3.2 -8.7,-10.8 -7.7,-14.2 1,-3.4 13.6,-4.2 14.2,-7.7 0.5,-3.5 -11.5,-8.1 -11.4,-11.7 0,-3.5 12,-7.5 11.6,-11 -0.4,-3.6 -13,-5.1 -13.9,-8.6 -0.9,-3.5 10,-10.2 8.8,-13.6 -1.2,-3.3 -13.8,-2.1 -15.3,-5.4 -1.4,-3.2 8,-11.7 6.3,-14.8"
           fill="none"
           stroke="#333333"
           stroke-width="4.3"
           id="path575" />
        <path
           d="m 1010,3144.6 c -28.9,-120.5 9.8,-200.3 41.6,-262.3 16.4,-32 30.3,-59.6 34.5,-86.4 4.2,-26.8 -0.5,-54.6 -23.7,-91 10.9,-7 22,-14 34.5,-20.3 27.1,42.6 34.2,82 28.7,117.5 -5.5,35.6 -22.1,66.6 -38.4,98.4 -43.8,88.5 -63.1,151.5 -32.9,251.5"
           fill="#333333"
           stroke="#3366aa"
           stroke-linejoin="round"
           stroke-width="5.3"
           id="path576" />
        <path
           d="m 1032.2,3150.7 c -7.1,-7.4 -15,-11.2 -15.6,-14.5 -0.7,-3.3 1,-7 4.3,-7.7 3.4,-0.7 6,1.6 7.1,5 -0.4,-3.5 1,-6.6 4.5,-7.3 3.2,-0.6 6.2,1.6 7,4.8 0.8,3.3 -4.6,9.8 -7.3,19.7 m -7.5,-33.2 c -6.4,-8 -13.8,-12.4 -14.2,-15.8 -0.4,-3.3 1.7,-7 5,-7.3 3.4,-0.4 5.8,2.2 6.6,5.7 -0.1,-3.6 1.7,-6.6 5.2,-7 3.3,-0.3 6,2.2 6.4,5.5 0.5,3.3 -5.4,9.3 -9,19 m -4.3,-33.8 c -5.6,-8.5 -12.5,-14 -12.5,-17.5 0,-3.3 2.4,-6.4 5.8,-6.4 3.4,0 5.5,2.7 6,6.3 0.3,-3.6 2.3,-6.4 5.8,-6.4 3.3,0 5.8,3 5.9,6.3 0,3.4 -6.5,8.5 -11,17.7 m -0.6,-34 c -4.9,-9 -10.8,-15.1 -10.5,-18.5 0.3,-3.3 3.2,-6.4 6.6,-6 3.4,0.4 5.2,3.3 5.1,7 0.8,-3.6 3.2,-6 6.6,-5.7 3.3,0.4 5.3,3.4 5,6.7 -0.2,3.4 -7.6,7.8 -12.8,16.6 m 3.3,-33.9 c -3.7,-9.5 -8.9,-16.7 -8,-20 0.8,-3.2 3.9,-5.6 7.1,-4.8 3.4,0.8 4.8,4 4.3,7.5 1.2,-3.4 3.8,-5.6 7.2,-4.8 3.3,0.8 4.9,4.3 4.2,7.6 -0.7,3.3 -8.5,6.5 -14.8,14.5 m 7.4,-33.1 c -2.3,-10 -6.9,-17.4 -5.7,-20.6 1,-3.1 4.5,-5.4 7.6,-4.3 3.3,1.2 4.3,4.5 3.5,8 1.5,-3.2 4.4,-5 7.6,-3.9 3.2,1.2 4.5,4.7 3.4,7.8 -1,3.3 -9,5.9 -16.4,13 m 11,-32.2 c -1.4,-10.1 -5.2,-18 -3.8,-21 1.4,-3 4.9,-4.8 8,-3.5 3,1.5 3.9,4.8 2.7,8.2 1.8,-3 4.9,-4.7 8,-3.3 3,1.4 4,5.2 2.7,8.2 -1.4,3.2 -9.6,5 -17.5,11.4 m 13.7,-31 c -0.7,-10.3 -4.3,-18 -2.7,-21 1.5,-3 5.1,-4.7 8.1,-3.2 3,1.5 3.7,5 2.4,8.3 2,-3 5,-4.5 8.1,-3 3,1.5 3.8,5.3 2.4,8.3 -1.5,3 -10,4.7 -18.3,10.5 m 15.2,-30.4 c -0.5,-10.2 -4,-18 -2.5,-21 1.5,-2.9 5,-4.4 8,-3 3.1,1.6 3.8,5 2.5,8.3 2,-3 5,-4.6 8.2,-3.1 3,1.4 3.7,5.5 2.2,8.4 -1.5,3 -9.8,4.8 -18.4,10.4 m 15.2,-30.4 c -0.7,-10.2 -5,-17.4 -3.7,-20.6 1.3,-3 4.6,-4.7 7.7,-3.5 3.3,1.2 4.2,4.5 3.2,8 1.7,-3.2 4.6,-5 7.9,-3.8 3,1.2 4.1,5.2 2.9,8.3 -1.2,3.2 -9.6,5.8 -18,11.6 m 13,-31.4 c -2,-10 -7.3,-16 -6.6,-19.4 a 6,6 0 0 1 7,-4.8 c 3.4,0.6 4.9,3.7 4.5,7.3 1.1,-3.5 3.7,-5.8 7.1,-5.2 3.3,0.6 5,4.5 4.3,7.7 -0.6,3.3 -8.7,7.5 -16.3,14.4 m 7.8,-33 c -3.9,-9.5 -10.8,-14 -10.8,-17.4 0,-3.3 2.2,-6 5.5,-6.2 3.5,-0.2 5.8,2.4 6.2,6 0.3,-3.6 2.2,-6.5 5.6,-6.8 3.4,-0.2 6,3.3 6.1,6.6 0.1,3.4 -6.4,9.6 -12.6,17.8 m -0.4,-34 c -6.3,-8 -14,-10.5 -15,-13.8 a 6,6 0 0 1 3.8,-7.5 c 3.3,-1.1 6,0.8 7.4,4.1 -0.6,-3.5 0.5,-6.8 3.8,-8 3.1,-1 6.5,1.6 7.5,4.8 1,3.2 -3.8,11 -7.5,20.5 m -9.1,-32.7 c -8,-6.4 -16.3,-7.5 -17.8,-10.5 -1.5,-3 -0.7,-6.5 2.2,-8.2 3,-1.7 6.2,-0.3 8.2,2.7 -1.4,-3.4 -1,-6.8 2,-8.5 3,-1.6 6.8,0.2 8.4,3 1.6,3 -1.6,11.4 -3,21.5"
           fill="#ee1111"
           stroke="#ee1111"
           stroke-width="1.1"
           id="path577" />
        <path
           d="m 1108.4,2679 c -45.5,19.6 -167.4,103.1 -221.7,203.9 m 566.9,-117.3 c -56,-50 -102.4,-74 -147,-89.7"
           fill="none"
           stroke="#333333"
           stroke-linecap="round"
           stroke-linejoin="round"
           stroke-width="5.3"
           id="path578" />
        <path
           d="m 1212.4,2648.8 -5.8,-129.2 -109.5,4.5 c -6.7,18 -1.3,24.2 0.8,37.8 0.4,13.5 -11,40.4 -13.3,46 -2.7,7 6,14.3 20.4,11 3.5,2.4 -3.9,14 -3.1,17.8 3.4,0.1 6.3,2.4 3.6,6.2 3.3,10.4 -5.5,30.2 2.5,32.7 29,9 80,0.5 104.4,-26.8 z"
           fill="#ffffff"
           id="path579" />
        <path
           d="m 1200.7,2674.9 c 9.8,2.5 12.6,-0.1 17.4,-6.5 a 11.5,11.5 0 0 0 17,4.5 c 4.2,2.8 8.5,2.5 12.5,-0.1 3.3,2.7 7.7,2.8 11.7,0.1 3,2.8 8,3.9 11.8,0.5 4.1,4.5 9.2,4.5 12.2,0.2 3.4,5 8.8,4.8 14,1.3 3.4,3.5 9.6,3 14.3,-0.2 l 3,1.8 a 15.5,15.5 0 0 0 16.5,-1.4 c 6,-4.8 7.8,-14.3 3,-20.9 -4,-5.2 -11.5,-6.9 -16.5,-2.6 a 10.4,10.4 0 0 0 -3.2,10 c -8.5,-25.5 -18.3,-107.7 -29.7,-137.8 l -92,-4 c 4.5,12.2 8.7,46.1 13,78.8 3.5,35.7 -18.5,73.5 -43.3,77.2 0,0 13.6,3.3 20.3,-0.8 0.6,0.4 9.9,6 18,-0.1 z"
           fill="#eecc55"
           id="path580" />
        <path
           d="m 1147.4,2626.7 c 7.5,1.6 5.1,11 -6,10.3 -10.7,-0.7 -13.9,-9 -30,-11.3"
           fill="none"
           stroke="#3366aa"
           stroke-linecap="round"
           stroke-width="4.3"
           id="path581" />
        <path
           d="m 1125.7,2640.3 c -12.8,-0.2 -13.8,-2.7 -19.3,-1.6 -0.7,4.6 6,2.5 19.3,1.6 z"
           fill="#3366aa"
           stroke="#3366aa"
           stroke-linecap="round"
           stroke-linejoin="round"
           stroke-width="4.3"
           id="path582" />
        <path
           d="m 1118.7,2566.6 a 4.7,6.1 0 1 0 9.4,0 4.7,6.1 0 1 0 -9.4,0 z"
           fill="none"
           stroke="#3366aa"
           stroke-linejoin="round"
           stroke-width="2.5"
           id="path583" />
        <path
           d="m 1121.2,2566.6 a 2.1,2.7 0 1 0 4.2,0 2.1,2.7 0 1 0 -4.2,0 z"
           fill="#3366aa"
           stroke-width="0.4"
           id="path584" />
        <path
           d="m 1116.5,2558.8 c 3.8,1 26,4.9 32.5,5.2 -0.1,1.7 -15,0.7 -20,0 -5.2,-0.7 -12.5,-3.3 -12.5,-5.2 z"
           fill="#3366aa"
           stroke="#3366aa"
           stroke-linecap="round"
           stroke-linejoin="round"
           stroke-width="2.8"
           id="path585" />
        <path
           d="m 1148.2,2551.5 c -10.2,-5 -19.4,-7 -32.6,-5.7"
           fill="none"
           stroke="#3366aa"
           stroke-linecap="round"
           stroke-width="4.3"
           id="path586" />
        <path
           d="m 1147,2563.4 c 0.6,-4.2 -9.7,-7.2 -15.7,-8.7 -7.3,-2 -14,-0.2 -15.7,0.9 -1.4,3.4 -4,17.9 4.1,22.2 m 25.2,-12.4 c -6.2,8.5 -23.5,12.8 -30,2.6 m 200,94.8 c -8.7,-24.2 -18.6,-108.4 -30.2,-139 m 27,151 c -5.6,3.7 -13.1,3.7 -15.8,-2.2 -8.8,-19 -24,-127.7 -32.6,-151.6 m 34,154 c -5.5,3.7 -11.6,3.4 -14.3,-2.4 -8.8,-19 -22.8,-127.7 -31.5,-151.6 m 19.7,152.7 c -5.6,3.7 -11.3,1.7 -14,-4.2 -8.7,-19 -20.5,-125.8 -29.2,-149.8 m 55.2,154.1 c -3.4,4.9 -10.4,3.6 -13,-2.2 -8.8,-19 -21.7,-127.9 -30.4,-151.9 m 19.4,153.3 c -5.6,3.8 -11.6,1.9 -14.8,-4.4 -9.4,-18.4 -19.4,-124.9 -28.1,-148.9 m 31.3,153.2 a 11,11 0 0 1 -16.1,-4.3 c -9.4,-18.4 -18.3,-124.9 -27,-148.9 m 70.5,3.3 c 4.9,14.6 24.8,130.1 28.5,138.2 3.7,8 4.6,11 11,15.3 6,3.2 14,2 18.7,-3.3 5,-5.8 5,-15.3 -0.7,-20.7 -4.6,-4.4 -12.1,-4.6 -16.2,0.5 -3,3.9 -3,10.2 1,13.4 2.9,2.3 7.3,2.3 9.3,-1 1.1,-2 1,-5.3 -1.4,-6.2 m -90.7,14 c -5.5,3.8 -12.7,1.7 -16,-4.6 -9.3,-18.4 -17,-124.9 -25.7,-148.9 m 17.7,113.3 c -6.2,19 -4.5,27.7 -27.9,42.1 -6.7,4.1 -20.2,0.7 -20.2,0.7 24.9,-3.7 46.9,-41.6 43.3,-77.5 m 8.2,53 a 49.6,49.6 0 0 1 -12,22.4 c -8.6,8.1 -19.2,1.2 -19.2,1.2 m 35,-6.6 c -4.8,6.3 -7.1,9.3 -17,6.8 m 5,-76.8 c 0,66 -38.7,92 -98.8,78.3 -8,-2.5 1.9,-23.4 -1.4,-33.7 2.7,-3.8 -0.2,-6.2 -3.6,-6.2 -0.8,-3.8 6.6,-15.4 3,-17.8 -14.4,3.2 -23,-4 -20.3,-11 2.2,-5.7 13.7,-32.5 13.2,-46.1 -2,-13.6 -7.5,-19.7 -0.7,-37.8 m 8.3,94.8 7.7,-2.7"
           fill="none"
           stroke="#3366aa"
           stroke-linecap="round"
           stroke-linejoin="round"
           stroke-width="4.3"
           id="path587" />
        <path
           d="M 1119.3,2701.3 V 2687 h 18.5 v 7.1 h -9.3 v 7.2 H 1147 V 2687 h 18.5 v 7.1 h -9.3 v 7.2 h 18.5 V 2687 h 18.5 v 7.1 h -9.3 v 7.2 h 18.5 V 2687 h 18.5 v 7.1 h -9.3 v 7.2 h 18.5 V 2687 h 18.5 v 7.1 h -9.3 v 7.2 h 18.5 V 2687 h 18.5 v 7.1 h -9.3 v 7.2 h 14.1 m -14,168.2 h -8 v -7.2 h 9.2 v -7.2 h -18.5 v 14.4 h -18.4 v -7.2 h 9.2 v -7.2 H 1222 v 14.4 h -18.4 v -7.2 h 9.2 v -7.2 h -18.5 v 14.4 H 1176 v -7.2 h 9.2 v -7.2 h -18.5 v 14.4 h -18.4 v -7.2 h 9.2 v -7.2 H 1139 v 14.4 h -18.4 v -7.2 h 9.2 v -7.2 h -7.5"
           fill="none"
           stroke="#ffffff"
           stroke-linecap="round"
           stroke-linejoin="round"
           stroke-width="4.3"
           id="path588" />
        <path
           d="m 1097.9,2523.4 -37,-73.2 H 1319 l -34.8,73.2 c -52.4,-4 -125.4,-6.3 -186.3,0 z"
           fill="#ee1111"
           stroke="#333333"
           stroke-linecap="round"
           stroke-linejoin="round"
           stroke-width="4.3"
           id="path589" />
        <path
           d="m 1079.8,2450.2 24.8,42.7 47,-2.3 -12.1,-40.4 m 163.8,0 -22,42.2 -49,-1.8 13.7,-40.4 m -18.3,0 -10.1,39.9 -50.7,-0.4 -9.7,-39.5"
           fill="none"
           stroke="#ffffff"
           stroke-linejoin="round"
           stroke-width="6"
           id="path590" />
        <path
           d="m 1292.1,2506.8 -8,16.6 c -52.3,-4 -125.3,-6.3 -186.2,0 l -8.4,-16.6 c 66,-4.8 133,-7 202.6,0 z"
           fill="#333333"
           id="path591" />
        <path
           d="m 1277,2819.1 h -137.4 m 139.9,-80.3 h -137.4"
           fill="none"
           stroke="#ffffff"
           stroke-linecap="round"
           stroke-linejoin="round"
           stroke-width="6"
           id="path592" />
      </g>
      <use
         transform="rotate(180,1062.9,2282.7)"
         width="744.09998"
         height="1052.4"
         xlink:href="#g8100"
         id="use592" />
    </g>
    <use
       transform="translate(1619.7)"
       xlink:href="#u41685"
       id="use593" />
    <use
       transform="translate(1619.9)"
       xlink:href="#u41687"
       id="use594" />
    <use
       transform="translate(0,630)"
       xlink:href="#frame"
       id="use595" />
    <use
       id="u23898"
       transform="matrix(0.879,0,0,0.879,1991.4,-4.8)"
       xlink:href="#heart" />
    <use
       id="u24132"
       transform="rotate(180,2126,787.5)"
       xlink:href="#u23898" />
    <use
       transform="translate(2227.4,1675)"
       style="stroke:#ee1111"
       xlink:href="#J"
       id="use596" />
    <use
       transform="rotate(180,1012.5,-50)"
       style="stroke:#ee1111"
       xlink:href="#J"
       id="use597" />
  </g>
  <g
     id="heart_queen"
     transform="translate(-2227.5,-945)">
    <use
       transform="translate(2227.5,630)"
       xlink:href="#card"
       id="use598" />
    <g
       transform="matrix(0.2436,0,0,0.2675,2043.7,327.4)"
       id="g653">
      <path
         d="m 1208.1,1745.4 -0.3,2.6 24.8,111.2 a 179.8,179.8 0 0 1 58.2,46 v -117.8 l -2.8,-2.8 c -21.7,-17.7 -31.8,-36.3 -33.9,-53.8 -15.3,5.6 -30.2,14.6 -46,14.6 z"
         fill="#ee1111"
         id="path598" />
      <g
         id="g603">
        <path
           d="m 1097.3,1470.6 -44,20.3 c -33.3,15.5 -103.4,76 -163.2,128 l -1.4,173.8 80.5,120.8 64,34.8 c 102.1,-54 168.2,-38.4 209.8,20.8 l 44,-20.3 c 33.4,-15.5 103.5,-76 163.2,-128 l 1.5,-173.8 -80.5,-120.8 -64.1,-34.9 c -102,54.1 -168.2,38.5 -209.8,-20.7 z"
           fill="#333333"
           stroke="#333333"
           id="path599" />
        <g
           transform="translate(1400.7,1087.2)"
           id="g602">
          <path
             d="m -261.7,660.9 h 69.4 c -4.5,-20.7 -5.6,-37.5 -7,-56.3 h -69.4 c 4.5,20.6 5.6,37.5 7,56.2 z"
             fill="#eecc55"
             id="path600" />
          <path
             d="m -252,652.7 h 47.8 a 266.7,266.7 0 0 1 -4.8,-40 h -47.8 c 3.1,14.7 3.9,26.7 4.8,40 z"
             fill="none"
             stroke="#333333"
             stroke-linejoin="round"
             stroke-width="4.3"
             id="path601" />
          <path
             d="m -239.8,642.4 h 20.7 c -1.4,-7.1 -1.7,-12.9 -2,-19.3 H -242 c 1.4,7 1.7,12.8 2,19.3 z"
             fill="none"
             stroke="#333333"
             stroke-linejoin="round"
             stroke-width="4.3"
             id="path602" />
        </g>
      </g>
      <g
         id="g56507">
        <path
           d="m 1135.5,1324.3 2.6,-69 h 91.2 c 33.3,43.3 71.8,132.3 89.4,183 l 31,89 v -0.1 c -42.3,-0.3 -45.5,-51 -48.3,-70 -81.7,53.3 -156.4,38.8 -177.6,0.3 l -41.5,21.1 c 4.8,-41 8.7,-72.3 51.9,-115.2 z"
           fill="#ffffff"
           id="path603" />
        <path
           d="m 1232.8,1600.2 -5.6,0.8 -22.4,83.6 0.7,4.5 c 22.1,-1 86.4,-39.2 107.4,-39.2 v -5.2 z"
           fill="#ee1111"
           stroke="#333333"
           stroke-linecap="round"
           stroke-linejoin="round"
           stroke-width="5.3"
           id="path604" />
        <path
           d="m 1107.7,1580.6 24.8,111.2 h 68.5 l 24.8,-92.4 c -41,5 -82.2,-0.9 -118,-18.8 z"
           fill="#3366aa"
           id="path605" />
        <path
           d="m 1317.8,1652.1 c -22.8,0 -93.5,42.1 -116.3,42.1 1.3,17 2.4,32.4 6.7,51.2 15.8,0 30.7,-9 46,-14.6 -4.5,-38 29,-70.5 63,-77.4 1,4 1,1.3 0.6,-1.3 z"
           fill="#333333"
           stroke="#3366aa"
           stroke-linejoin="round"
           stroke-width="4.3"
           id="path606" />
        <path
           d="m 1305.6,1761 a 43.4,43.4 0 0 1 14.9,-80.5 c 0.5,-11 -0.7,-19 -3.3,-27.1 -49.7,10.1 -98.2,74.7 -29.1,131.2 7.1,-6.5 14,-13.9 17.5,-23.6 z"
           fill="#eecc55"
           stroke="#eecc55"
           stroke-width="5.5"
           id="path607" />
        <path
           d="m 1322.9,1667.5 c -56.2,16 -74,62.5 -23.8,110"
           fill="none"
           stroke="#333333"
           stroke-width="2.8"
           id="path608" />
        <path
           d="m 1323.4,1680.8 c -2.5,0.7 -7.3,-6.7 -9.7,-5.8 -2.4,0.9 -1.9,9.8 -4.2,10.9 -2.4,1 -8.3,-5.3 -10.6,-4 -2.2,1.4 0.3,10 -1.7,11.6 -2,1.6 -9.5,-2.7 -11.2,-0.8 -1.8,2 3.3,9.1 2,11.4 -1.3,2.3 -10,1.2 -10.9,3.7 -0.8,2.5 6.7,6.7 6.4,9.3 -0.2,2.6 -8.7,5.4 -8.4,8 0.2,2.6 8.9,3.4 9.5,5.9 0.6,2.5 -6.5,7.8 -5.5,10.2 1,2.4 9.7,0.8 10.9,3 1.2,2.3 -4.5,9.2 -3,11.3 1.5,2.1 9.7,-1.3 11.3,0.6 1.6,2 -3,9.7 -1.3,11.6 1.7,1.9 9.6,-2.7 11.4,-1"
           fill="none"
           stroke="#333333"
           stroke-width="2.4"
           id="path609" />
        <path
           d="m 1321.8,1661 -2,-7.7 -12.2,4.2 1.2,3.7 6,-2.3 1.4,3.9 -11.4,4.6 -3,-7.3 -11.7,6.4 2,3.3 5.6,-3.3 1.9,3.5 -10,6.5 -4.5,-6.5 -10.1,8.9 2.6,2.8 4.8,-4.6 2.6,3 -8.4,8.7 -6,-5 -7.5,11.4 3.3,1.9 3.4,-5.7 3.3,2.2 -5,9.3 -7.2,-3 -3.9,13.2 3.8,0.6 1.5,-6.4 3.9,1 -2.1,11.6 -7.9,-0.2 0.7,13.5 3.8,-0.6 -0.7,-6.5 4,-0.4 1.8,11.4 -7.6,2.2 4.5,12.5 3.6,-1.7 -2.5,-6 3.7,-1.6 5,10.8 -6.8,4.2 7.2,10.8 3.2,-2.4 -3.8,-5.2 3.3,-2.5 7.3,9.6 -6,5.4 9,9.2 2.7,-2.9 -4.6,-4.4 2.9,-3 8.8,8.2"
           fill="none"
           stroke="#333333"
           stroke-linejoin="round"
           stroke-width="2.4"
           id="path610" />
        <path
           d="m 1323.6,1685.5 c 2.6,26.9 -3.8,52 -12.7,71.4 -21.2,-16.4 -36.4,-50.6 12.7,-71.4 z"
           fill="#3366aa"
           stroke="#333333"
           stroke-width="0.1"
           id="path611" />
        <path
           d="m 1305,1736.3 c -5.5,9.3 5,16 9.6,5.7 2.2,-5 -1.7,-2.7 -4.5,-2.8 -3.2,-0.2 3.6,-9.3 9.6,-14.6 a 25.8,25.8 0 0 0 -14.7,11.7 z m -4.3,-20.5 c -10.3,-5.2 -3.4,-14.1 2.4,-8.7 1.9,1.8 1.8,2.8 0.2,4.7 -1.7,2 9.2,4.2 17.3,6 -5.3,1 -13.3,1.3 -19.9,-2 z m 6,-8.6 c -6.6,-8.1 3.2,-16.7 8.8,-7.4 2.8,4.5 -1.4,3 -4.1,3.6 -3,0.8 3.3,7.8 9.9,11.8 a 19.8,19.8 0 0 1 -14.6,-8 z m -6.3,18 c -10.3,6 -3.6,15 2,9 2,-2 1.7,-3 0.6,-5.3 -1,-2.2 9.3,-4.4 17.4,-6.9 a 34,34 0 0 0 -20,3.1 z"
           fill="#ffffff"
           id="path612" />
        <path
           d="m 1326,1519.6 c 9.6,7.5 40.9,5.7 49.6,4.2 -98,103.5 -276,109.5 -347.1,-20.3 l 37.2,-16.2 c 43.6,84 152.2,100.3 260.3,32.3 z"
           fill="#333333"
           id="path613" />
        <path
           d="m 1300.2,1456.8 c 4.5,27.8 8.9,55.6 25.7,62.7 -108,68 -216.7,51.7 -260.2,-32.3 l 58,-29.7 c 21.3,38.5 96,53 176.5,-0.7 z"
           fill="#eecc55"
           stroke="#333333"
           stroke-width="3.7"
           id="path614" />
        <path
           d="m 1194.8,1402.7 c 8,5 0.6,14 -6.3,10.9 -4.2,-2 -2.5,-4.7 -8.3,-1.8 m -4.6,-87.7 c -4.8,71.5 -13.1,77.5 -13,81.9 0.3,10 6,11.4 11.3,8 l 0.2,11.3 m 20.8,-86.4 c 8.4,-2.2 11.9,-9.1 18.8,-8.6 7.2,0.6 12.5,7 22.2,9.5 -12.3,0.5 -17.5,9 -24,7.7 -6.6,-1.2 -8.6,-5.6 -17,-8.6 z m 12.7,14.6 c 9.8,1.7 18.6,-0.3 25,-6.5 m -95,-8.7 -0.2,3.5 c 10.4,4.3 11.5,7 18,5.7 6.5,-1.3 7.5,-5.8 15.9,-8.8 -8.4,-2.2 -12.2,-8.7 -19,-8.1 -7.3,0.6 -9.3,5.7 -14.7,7.7 z m 21,15 c -9.9,1.6 -14.7,-0.5 -22.1,-5.3 m 37.5,97.4 c 6.2,3.7 9.3,2 12.6,0 m 90.3,-41.8 c -17.7,40 -46.3,49.2 -64.8,64.8 -15.1,12.8 -37.4,7.1 -46.6,-2.3 a 100.9,100.9 0 0 1 -31,-68.9 c -0.5,-9.7 -1.4,-10.8 2.8,-77.9 0.6,-8.4 0.7,-49.6 0.3,-63 m 190.1,203.3 c 0,13.2 5.6,29.5 12.3,33.5 m -25.2,-65 c -7.6,22.2 -1.4,85 31.2,87.5 m -39.2,-99 c -11.2,42 0.7,111 43.4,110.6 m -7.3,-23.9 c -19.8,-5.5 -23.7,-37 -22.5,-61.7 m -171.7,-185.2 a 17.4,17.4 0 0 1 -10.6,9 m 22.2,-9 c -4.2,11 -12.4,15.3 -21.4,19 m 32.7,-19 a 50.2,50.2 0 0 1 -33.3,29.9 m 43.5,-30 c -10.8,25 -20.5,32 -43.8,40.5 m 83.8,-40.4 a 27,27 0 0 0 14,10.4 m -24.6,-10.4 c 4.3,11 23.7,19 32.6,22.8 m -43.8,-22.8 c 7.5,16.1 33.3,28.7 50.7,34.9 m -61.7,-35 c 8.6,22.8 43,40.3 69.2,45.9 m 24.4,48.4 c 0.9,13.1 7,29 13.9,32.7 m -28.8,-62.2 c -6.3,22.5 4.2,83.6 36.9,84.3 m -44.8,-97.5 c -10.7,46.5 7.1,111.6 49.7,108.8 m -8.7,-23.4 c -20.1,-4.3 -26.1,-33.4 -26.4,-58.2 m -140.9,46.7 c -27.9,30 -35.2,52.9 -41,91.3 m 41.2,-74.6 c -17.9,21.6 -24.3,41.3 -29.5,66.4 m 31.5,-50.6 c -9.6,15 -15.8,27.8 -19.8,47.3 m 23.7,-34 a 107,107 0 0 0 -11.5,29"
           fill="none"
           stroke="#3366aa"
           stroke-linecap="round"
           stroke-linejoin="round"
           stroke-width="4.3"
           id="path615" />
        <path
           d="m 1363.6,1543.8 34.6,21.2 c -27,57 -30.5,71.3 -41.7,128.9 -10.8,56 -8.4,111.7 -65,151.6 V 1788 c 17.8,-25.3 18,-42.3 26,-94 8.1,-52 19.6,-89.5 46.1,-150.1 z"
           fill="#ffffff"
           stroke="#333333"
           stroke-linejoin="round"
           stroke-width="4.3"
           id="path616" />
        <path
           transform="matrix(-0.9354,-0.9347,-0.9898,0.9891,2030.9,866.6)"
           d="m 221.6,681.8 a 4.85,4.85 0 1 1 -9.7,0 4.85,4.85 0 1 1 9.7,0 z"
           fill="none"
           stroke="#3366aa"
           stroke-width="2"
           id="path617" />
        <path
           d="m 1148.2,1340.9 c 1.9,2.6 1.2,-2 3.6,-4 2.4,-1.8 7,-0.2 5,-2.8 -1.9,-2.7 -5,-2.6 -7.4,-0.7 -2.4,1.8 -3.1,4.9 -1.2,7.5 z"
           fill="#3366aa"
           stroke="#3366aa"
           stroke-width="2.2"
           id="path618" />
        <path
           transform="matrix(-0.4658,-0.4655,-0.4952,0.4949,1592,1102.7)"
           d="m 221.6,681.8 a 4.85,4.85 0 1 1 -9.7,0 4.85,4.85 0 1 1 9.7,0 z"
           id="path619" />
        <path
           d="m 1175.1,1312.3 0.6,10.7 c -11.2,-6.4 -18.8,-10.7 -37.6,-2 l -0.5,-2.2 c 12.9,-3.8 16.4,-11.9 37.5,-6.5 z m 19.3,-0.5 -2.4,11.2 c 21.5,-13.7 38.5,-3.4 58,5 l -10,-7.2 c -16.8,-11.9 -27.1,-14.4 -45.6,-9 z"
           fill="#3366aa"
           stroke="#3366aa"
           stroke-miterlimit="1"
           stroke-width="2"
           id="path620" />
        <path
           transform="matrix(0.9354,-0.9347,0.9898,0.9891,335.2,866.9)"
           d="m 221.6,681.8 a 4.85,4.85 0 1 1 -9.7,0 4.85,4.85 0 1 1 9.7,0 z"
           fill="none"
           stroke="#3366aa"
           stroke-width="2"
           id="path621" />
        <path
           d="m 1217.3,1334.1 c 2.6,2.6 -2.5,1 -5,3.6 -2.5,2.6 -1.4,8 -4,5.4 -2.7,-2.6 -2.1,-6.3 0.4,-8.8 2.5,-2.5 6,-2.8 8.6,-0.2 z"
           fill="#3366aa"
           stroke="#3366aa"
           stroke-width="2.6"
           id="path622" />
        <path
           transform="matrix(0.4658,-0.4655,0.4952,0.4949,774.1,1103)"
           d="m 221.6,681.8 a 4.85,4.85 0 1 1 -9.7,0 4.85,4.85 0 1 1 9.7,0 z"
           id="path623" />
        <path
           d="m 1197.8,1330.5 c 8.3,-5.9 13.3,-8.4 22.2,-5.8 7,2 11.5,8 18.4,13 l 0.2,3.1 c -13.8,-4.3 -20.9,-10.4 -35.5,-8 z m -29.3,-0.2 c -8.3,-6 -12.7,-8.5 -21.7,-6 -3.3,0.8 -6.6,7.7 -9.3,9.5 l -0.8,3.3 c 8.1,-2.3 11.8,-7 26.5,-4.6 z"
           fill="#3366aa"
           stroke="#3366aa"
           stroke-linecap="round"
           stroke-linejoin="round"
           stroke-width="1.4"
           id="path624" />
        <path
           d="m 1177.1,1430.7 c 1,0.5 3.8,0.7 4.6,-0.1 4.8,2.9 7.3,2.6 15,3.2 -9.2,3.1 -11.4,3.1 -15.8,3.2 a 56,56 0 0 1 -16.5,-2.7 c 6.2,-0.6 9.2,-1.7 12.7,-3.6 z"
           fill="#3366aa"
           stroke="#3366aa"
           stroke-linecap="round"
           stroke-linejoin="round"
           stroke-width="4.3"
           id="path625" />
        <path
           d="m 1395.8,1417.2 c -14.6,-2.9 -67.8,14.8 -75.9,20.6 -19.4,-50 -57.2,-137.3 -90.5,-180.7 h 123.4 c 3.6,54 11.7,106.1 43,160.1 z"
           fill="#eecc55"
           stroke="#333333"
           stroke-linejoin="round"
           stroke-width="4.3"
           id="path626" />
        <g
           id="g17149"
           transform="matrix(-0.2861,-0.5413,-0.5409,0.2859,1357.9,1042)">
          <path
             d="m -302.1,258.3 c 0.8,-13.8 5.6,-20.1 11.3,-20.3 5.6,-0.2 14.5,4 14.3,20.8 15.9,-0.5 18,8.3 17.6,12.2 -0.6,4.4 -2,11.4 -20,9.9 1.8,21.2 -8,1 -12,0.8 -4,-0.2 -12.3,18.9 -11.2,0.3 -16,0 -19.4,-9.6 -19.4,-13.9 0,-4.6 4.6,-9.6 19.4,-9.8 z"
             fill="#333333"
             stroke="#ee1111"
             stroke-linejoin="round"
             stroke-width="3.2"
             id="path627" />
          <path
             transform="matrix(0.2638,0,0,0.2683,-230,197.8)"
             d="m -198.2,267.5 a 30.7,30.7 0 1 1 -61.4,0 30.7,30.7 0 1 1 61.4,0 z"
             fill="#333333"
             stroke="#ee1111"
             stroke-linejoin="round"
             stroke-width="11.1"
             id="path628" />
        </g>
        <path
           d="m 1256.8,1256.1 c 23.6,47.3 56,107 81,171.9 l 20.5,-5 c -6.4,-0.3 -28.5,-21.9 -17.4,-39.8 -17.1,-8.3 -27.4,-24.4 -25.3,-48.7 -9.6,-2 -34.1,-40 -30,-52.8 -17,-8.7 -19.4,-20.3 -18.6,-26.5 z"
           fill="#ee1111"
           id="path629" />
        <path
           d="m 1341.1,1429.6 40.7,94.6 -32.1,3.2 -31,-89 c -17.6,-50.7 -56.1,-139.7 -89.4,-183.1 h 27.5 c 33.3,53.9 57.1,111 84.3,174.3 z m -207,-66.1 1.4,-39.1 a 203.5,203.5 0 0 0 -83.7,167 l 30.5,-12.7 c 4.8,-41 8.7,-72.3 51.8,-115.2 z"
           fill="#333333"
           id="path630" />
        <path
           d="m 1147.2,1447.4 -93.9,43.5 c -33.3,15.5 -103.4,76 -163.2,127.9"
           fill="none"
           stroke="#333333"
           stroke-linecap="round"
           stroke-linejoin="round"
           stroke-width="5.3"
           id="path631" />
        <path
           d="m 1097.3,1470.6 c 41.6,59.2 107.7,74.9 209.7,20.8"
           fill="none"
           stroke="#333333"
           stroke-width="3.7"
           id="path632" />
        <path
           d="m 1106,1469.2 c 2.6,3.5 17.1,-2.7 20,0.5 3,3.2 -4.4,17.3 -1,20.1 3.4,2.8 15.7,-7 19.4,-4.8 3.7,2.2 0.4,17.9 4.4,19.7 4,1.8 13.4,-11 17.6,-9.7 4.2,1.2 4.9,17 9.1,17.9 4.3,0.8 10.5,-13.9 14.8,-13.6 4.4,0.2 8.7,15.6 13,15.4 4.4,-0.2 7.4,-15.7 11.7,-16.3 4.3,-0.6 11.4,13.8 15.6,12.8 4.2,-1 4.8,-16.8 9,-18 4.2,-1.2 12.9,12 17,10.5 4.1,-1.5 2.5,-17.3 6.5,-19 4,-1.8 14.3,10.2 18.3,8.3 3.9,-2 0.6,-17.6 4.4,-19.8 3.8,-2.1 15.3,8.8 19,6.6"
           fill="none"
           stroke="#333333"
           stroke-width="4.3"
           id="path633" />
        <path
           d="m 1087.6,1476.7 11.7,15.2 -5.2,4.6 -6.4,-7.9 -6,4.4 13.5,15.6 10.2,-10 13.9,12.8 -4.3,5.5 -7.7,-6.6 -5,5.3 15.8,12.8 8.2,-11.7 16,9.4 -3,6.4 -9,-4.9 -3.9,6.2 18.9,9.4 5.1,-13.4 17.9,5.5 -1.4,6.8 -9.9,-2.6 -2.4,7 18.1,4.2 2.3,-14.1 18.5,1.5 0.2,7 -10.2,-0.5 -0.7,7.3 20.7,0.3 -0.7,-14.3 18.7,-2.2 1.4,6.9 -10.1,1.5 0.8,7.3 19.7,-3.4 -3.2,-14 18.3,-5.1 2.4,6.6 -9.7,3 1.9,7 19.3,-6.3 -5,-13.4 17.7,-7.4 3,6.3 -9.3,4 2.8,6.9 18.5,-8.4 -6.4,-12.8 17,-9 3.7,6 -9,4.8 3.4,6.6 17.5,-9.8"
           fill="none"
           stroke="#333333"
           stroke-linejoin="round"
           stroke-width="4.3"
           id="path634" />
        <path
           d="m 1051.4,1506.1 c 9.7,3.7 18.1,2.8 20.5,5.3 2.2,2.5 2.5,6.3 0,8.7 -2.5,2.5 -6,2 -8.7,-0.4 2.2,2.8 2.7,6.3 0.2,8.8 -2.5,2.4 -6.6,1.7 -9,-0.7 -2.3,-2.5 -1.2,-11.4 -3,-21.7 m 23.4,25.2 c 10.2,2.4 18.2,0 21,2.2 2.5,2.1 3.4,5.8 1.3,8.5 -2,2.9 -5.5,2.9 -8.6,1 2.6,2.5 3.6,5.9 1.5,8.7 -2,2.7 -6.2,2.7 -8.9,0.7 -2.8,-2.1 -3.2,-11.2 -6.3,-21.1 m 27,21.3 c 10.4,0.7 17.8,-3 20.8,-1.4 3,1.6 4.4,5.1 3,8.2 -1.6,3.1 -5,3.8 -8.4,2.4 3,2 4.6,5.2 3,8.4 -1.4,3 -5.6,3.7 -8.6,2.2 -3,-1.6 -5.1,-10.5 -9.8,-19.8 m 30.2,16.3 c 10.4,-1.2 16.9,-6.4 20.2,-5.3 3.2,1 5.3,4 4.4,7.4 -0.9,3.4 -4.1,4.7 -7.7,4 3.4,1.4 5.5,4.2 4.7,7.6 -1,3.3 -5,4.8 -8.1,3.9 -3.4,-1 -7.1,-9.3 -13.5,-17.6 m 32.8,10.1 c 10,-3.2 15.3,-9.6 18.7,-9.3 3.4,0.4 6,3 5.8,6.4 -0.2,3.5 -3,5.5 -6.7,5.5 3.6,0.7 6.3,3 6,6.5 -0.1,3.4 -3.7,5.6 -7,5.4 -3.5,-0.2 -9,-7.6 -16.8,-14.5 m 34.2,3.3 c 9,-5.1 13.4,-12.5 16.8,-12.8 3.4,-0.2 6.2,1.8 6.7,5.2 0.5,3.5 -2,6 -5.6,6.7 3.7,0 6.8,1.7 7.3,5.2 0.5,3.3 -3,6.3 -6.3,6.7 -3.4,0.3 -9.8,-5.8 -18.9,-11 m 34.2,-3.3 c 7.9,-6.8 10.8,-14.6 14.2,-15.5 3.2,-0.9 6.7,0.6 7.7,3.9 1,3.3 -1,6.2 -4.4,7.5 3.6,-0.6 6.9,0.6 8,4 1,3.2 -1.6,6.6 -4.8,7.5 -3.3,1 -10.8,-4.1 -20.7,-7.4 m 33.2,-9 c 6.7,-8 8.5,-16.2 11.7,-17.6 3,-1.3 6.8,-0.3 8.2,2.8 1.5,3.2 0,6.3 -3.3,8 3.5,-1 7,-0.3 8.5,2.9 1.4,3 -0.6,6.7 -3.6,8 -3.2,1.6 -11.3,-2.4 -21.5,-4.1 m 31.5,-13.8 c 5.8,-8.7 6.6,-17.2 9.6,-18.9 3,-1.6 6.7,-1 8.5,1.8 1.8,3 0.6,6.3 -2.4,8.5 3.3,-1.6 6.8,-1.2 8.7,1.8 1.8,2.9 0.2,6.7 -2.7,8.5 -3,1.8 -11.3,-1.2 -21.7,-1.7 m 29.7,-17.3 c 4.8,-9.2 3,-11.9 5.7,-13.8 3,1.8 4.8,2.3 8.9,3.6 3.1,-1.8 6.9,-1.8 9,1 2,2.7 0.8,6.7 -1.8,8.7 -2.8,2 -11.4,0 -21.8,0.5"
           fill="#ee1111"
           stroke="#ee1111"
           id="path635" />
        <path
           d="m 1401.1,1466.2 c 3.9,60 18.4,54.6 20.2,101"
           fill="none"
           stroke="#333333"
           stroke-linecap="round"
           stroke-linejoin="round"
           stroke-width="5.3"
           id="path636" />
        <path
           d="m 1367,1475.8 c 5.3,-7.3 10.7,-14 16,-17 -0.6,-6.8 -4.6,-13.8 -4.5,-23 7.8,2.2 16.7,2.8 20.7,10.1 3.7,-5.3 11,-9 20.2,-11.7 2.3,13.6 0.5,17 -3.3,23.3 9.7,3.3 18,10.8 17,15.7 -5.2,0.8 -17.2,0.4 -22.7,4.3 -0.1,9.6 -4.4,12 -9.6,21.4 -9.6,-10.8 -9.4,-15.2 -10.9,-20.6 -10,-1 -10.2,-4 -22.9,-2.5 z"
           fill="#ee1111"
           stroke="#3366aa"
           stroke-linecap="round"
           stroke-linejoin="round"
           stroke-width="4.3"
           id="path637" />
        <path
           d="m 1417,1469.6 c 4.5,-6.2 18.1,8.6 16.2,-15.8 -12.8,-21 -15.1,-1 -22.4,-3.4 -4.6,-6.2 13.8,-14.5 -10.1,-20.3 -23.9,5.8 -5.5,14.1 -10,20.3 -7.4,2.4 -9.7,-17.6 -22.5,3.3 -2,24.5 11.7,9.6 16.2,15.9 0,7.7 -19.7,3.7 -3.8,22.3 22.7,9.4 12.8,-8 20,-10.5 7.4,2.4 -2.5,20 20.2,10.5 16,-18.6 -3.8,-14.6 -3.8,-22.3"
           fill="#ee1111"
           stroke="#3366aa"
           stroke-linejoin="round"
           stroke-width="4.3"
           id="path638" />
        <path
           d="m 1386.3,1468.7 c 2.2,-3 3,-6.9 5.2,-8.1 -0.3,-2.8 -0.5,-4.6 -0.5,-8.4 3.3,0.9 6.8,0 8.4,3 1.6,-2.1 4.7,-2.6 8.5,-3.7 1,5.6 1.7,6.7 0.1,9.3 4,1.3 6,4.8 5.6,6.8 -2.1,0.4 -6.2,1.2 -8.5,2.9 0,4 -2.7,3.8 -4.9,7.7 -4,-4.4 -4.9,-5 -5.5,-7.2 -4.1,-0.4 -3,-2 -8.4,-2.3 z"
           fill="#ffffff"
           id="path639" />
        <path
           d="m 1405.1,1464.2 a 5.05,5.05 0 1 1 -10.1,0 5.05,5.05 0 1 1 10.1,0 z"
           fill="#ee1111"
           stroke="#3366aa"
           stroke-width="2.5"
           id="path640" />
        <path
           d="m 1419,1541.1 c 6.2,-18.2 0.2,-22 18.5,-38.3 -3.7,22.6 -3.5,33 -18.5,38.3 z m 0,21.1 c -11.7,-29.2 -23,-28.1 -38.8,-33.4 a 70.7,70.7 0 0 0 38.8,33.4 z"
           fill="#eecc55"
           stroke="#333333"
           stroke-linejoin="round"
           stroke-width="4.3"
           id="path641" />
        <path
           d="m 1411.1,1565.5 c 0,0 0,0 0,0 -0.3,0.4 -2.5,5.4 -17.8,10 a 417,417 0 0 0 -23,57.7 c 13.8,5.8 32.2,-4 44.5,-3.9 l -6.6,-45.5 c 13.6,-7.6 4.9,-8.6 3.6,-13 -1,-3.6 -0.7,-5.1 -0.7,-5.3 z"
           fill="#ffffff"
           stroke="#333333"
           stroke-linecap="round"
           stroke-linejoin="round"
           stroke-width="4.3"
           id="path642" />
        <path
           d="m 1409.5,1601.1 c 1.2,3.2 -0.3,6.8 -3.4,8 -3.1,1.2 -6.6,-0.6 -7.8,-3.8 -1.2,-3.3 0.3,-6.8 3.4,-8 3.1,-1.2 6.6,0.6 7.8,3.8 z m 0.5,13 a 6,6 0 0 1 -4.1,7.5 6.1,6.1 0 0 1 -7.4,-4.5 c -0.9,-3.3 1,-6.7 4.1,-7.6 a 6,6 0 0 1 7.4,4.5 z m -3.2,-26.4 c 1.3,3.2 0,6.7 -2.8,8 -3,1.1 -6.3,-0.5 -7.7,-3.6 -1.4,-3.1 0,-6.8 2.8,-8 3,-1.2 6.4,0.4 7.7,3.6 z m 5.3,38.8 c 0.8,2.9 -0.6,5.8 -3.1,6.4 -2.5,0.7 -5.1,-1.1 -5.9,-4 -0.8,-2.9 0.6,-5.8 3.1,-6.4 2.5,-0.7 5.1,1.1 5.9,4 z m 28.1,-36.5 c 1.2,3.2 -1.6,7.2 -6.1,9 -18.1,6.6 -9,1.5 -11,-2.4 -1.9,-4.2 -7.9,-5.2 6.6,-9.4 4.7,-1.3 9.3,-0.4 10.5,2.8 z m 1,16 c 0.9,3.3 -2.2,7 -6.8,8.3 -18.4,4.9 -9,0.7 -10.6,-3.4 -1.5,-4.4 -7.3,-6 7.3,-8.7 4.8,-0.9 9.2,0.4 10,3.8 z m -5.7,-30 c 1.3,3.2 -1,7.2 -5.4,9 -16.8,7 -8.5,1.8 -10.5,-2 -2.1,-4.2 -7.9,-5.1 5.7,-9.5 4.4,-1.4 8.9,-0.7 10.2,2.5 z m 1.1,44.2 c 0.8,2.9 -1.6,6 -5.2,7 -14.5,3.9 -7.2,0.4 -8.4,-3.1 -1.4,-3.8 -6,-5.3 5.6,-7.4 3.7,-0.6 7.2,0.6 8,3.5 z"
           fill="#ffffff"
           stroke="#333333"
           stroke-width="4.3"
           id="path643" />
        <path
           d="m 1422.6,1596.6 c 1.2,3.2 -0.7,7 -4.2,8.2 -13.8,5.1 -7,0.8 -8.8,-3 -1.9,-4.3 -6.7,-5.8 4.5,-8.7 3.6,-1 7.3,0.3 8.5,3.5 z m 0.7,14.2 c 0.9,3.4 -1.3,6.8 -4.9,7.8 -14,3.8 -7,0.2 -8.4,-4 -1.4,-4.3 -6,-6.3 5.2,-8 3.6,-0.7 7.2,0.9 8,4.2 z m -4.2,-27.9 a 6.3,6.3 0 0 1 -3.5,8.3 c -13,5.3 -6.7,1 -8.6,-3 -2,-4 -6.7,-5.5 3.7,-8.6 3.4,-1 7,0.1 8.3,3.3 z m 3.4,41.1 a 5.3,5.3 0 0 1 -3.6,6.6 c -11,3 -5.6,0 -6.7,-3.5 -1.3,-3.8 -5,-5.6 3.9,-7 2.8,-0.4 5.7,1 6.4,4 z m -11.2,-53.7 c -0.8,-3.7 1,-7.6 4,-8.5 3,-1 6,1.2 6.9,5 0.8,3.7 -1,7.5 -4,8.5 -3,1 -6,-1.3 -6.9,-5 z"
           fill="#ffffff"
           stroke="#333333"
           stroke-width="4.3"
           id="path644" />
        <path
           d="m 1307,1795.3 c -0.5,1 -1.4,1.6 -2.5,1.7 -1.1,0.1 -2,-0.4 -2.7,-1.3 a 3,3 0 0 1 -0.3,-3 c 0.5,-1 1.3,-1.4 2.4,-1.5 a 3,3 0 0 1 2.8,1.2 c 0.7,0.9 0.8,1.9 0.3,2.9 m 18.3,-55.3 a 3,3 0 0 1 -2,2.2 c -1.1,0.3 -2.2,0 -3,-0.7 -0.8,-0.7 -1.1,-1.8 -0.9,-2.9 a 3,3 0 0 1 2,-2.2 3,3 0 0 1 3,0.7 3,3 0 0 1 1,2.9 m 10.9,-57.8 a 3,3 0 0 1 -2,2.3 3,3 0 0 1 -3,-0.5 3,3 0 0 1 -1,-2.9 3,3 0 0 1 2,-2.3 3,3 0 0 1 3,0.5 3,3 0 0 1 1,2.9 m 12,-58 a 3,3 0 0 1 -2.2,2.1 3,3 0 0 1 -2.9,-0.8 3,3 0 0 1 -0.8,-2.9 3,3 0 0 1 2.2,-2.1 c 1,-0.3 2.1,0 2.9,0.8 0.8,0.8 1,1.8 0.8,3 m 22.4,-55.2 a 3,3 0 0 1 -2.6,1.5 3,3 0 0 1 -2.6,-1.6 3.1,3.1 0 0 1 2.9,-4.7 3,3 0 0 1 2.5,1.7 c 0.5,1 0.4,2.2 -0.2,3.1 m -56.3,223.5 a 3,3 0 0 1 -2.4,1.8 3,3 0 0 1 -2.8,-1.2 3,3 0 0 1 -0.3,-3 3,3 0 0 1 2.4,-1.8 3,3 0 0 1 3.1,4.2 m 17.6,-56.8 c -0.2,1.1 -1,2 -2,2.3 -1,0.3 -2.2,0 -3,-0.7 a 3,3 0 0 1 -0.9,-3 3,3 0 0 1 2,-2.1 c 1.1,-0.3 2.2,-0.1 3,0.6 0.8,0.7 1.2,1.9 1,3 m 10.7,-58.2 a 3,3 0 0 1 -2,2.3 3,3 0 0 1 -3,-0.5 3,3 0 0 1 -1,-2.8 3,3 0 0 1 2,-2.3 3,3 0 0 1 3,0.5 3,3 0 0 1 1,2.8 m 12.3,-57.3 a 3,3 0 0 1 -2.1,2 3,3 0 0 1 -3,-0.7 3.0413813,3.0413813 0 1 1 4.4,-4.2 c 0.8,0.8 1,1.8 0.7,2.9 m 23.4,-53 a 3,3 0 0 1 -2.7,1.4 3,3 0 0 1 -2.6,-1.6 3,3 0 0 1 0.2,-3 3,3 0 0 1 5.2,0.3 c 0.5,1 0.5,2 -0.1,3 m -61.4,232.7 c -0.4,1 -1.4,1.8 -2.5,1.9 a 3,3 0 0 1 -2.7,-1.4 3.2,3.2 0 0 1 -0.2,-3.1 c 0.4,-1 1.3,-1.6 2.5,-1.7 1.2,-0.1 2,0.3 2.7,1.3 0.6,0.9 0.7,2 0.2,3 m 19.2,-57.7 c -0.3,1.1 -1,2 -2.1,2.3 -1.1,0.3 -2.1,0 -3,-0.7 a 3,3 0 0 1 -0.8,-3 c 0.2,-1 1,-1.8 2,-2.1 1,-0.3 2.1,-0.1 3,0.7 a 3,3 0 0 1 0.9,2.8 m 11,-58.3 a 3,3 0 0 1 -1.9,2.3 3,3 0 0 1 -3,-0.5 3,3 0 0 1 -1,-2.9 3,3 0 0 1 2,-2.3 3,3 0 0 1 3,0.5 3,3 0 0 1 1,2.9 m 11.7,-57 a 3,3 0 0 1 -2.2,2.2 3,3 0 0 1 -2.9,-0.8 3,3 0 0 1 -0.7,-3 3,3 0 0 1 2.1,-2 c 1,-0.4 2.1,0 3,0.7 0.9,0.7 1,1.8 0.7,3 m 21.2,-52.3 a 3,3 0 0 1 -2.6,1.5 3,3 0 0 1 -2.6,-1.6 c -0.5,-1 -0.5,-2 0,-3 0.5,-1 1.5,-1.4 2.6,-1.3 a 3,3 0 0 1 2.6,1.6 c 0.5,1 0.6,1.9 0,2.8 m -83.3,243.5 v -6.6 l -5.6,1.1 a 46.8,46.8 0 0 0 17.5,-18 l 1.8,0.9 a 115,115 0 0 0 -6.5,25.7 l -1.2,-6 -6,2.9 m 24.4,-53.5 -1.9,-6.4 -5.2,3 a 59,59 0 0 0 12.8,-22.3 l 2,0.5 a 80.2,80.2 0 0 0 0,26 l -2.8,-5.2 -5,4.4 m 13.2,-57.5 -2.5,-6 -4.9,3.3 c 5.2,-7.3 9,-15 11,-23.4 l 2,0.4 a 68.3,68.3 0 0 0 2.2,25.7 l -3.4,-4.9 -4.4,5 m 10.5,-58.1 -2.3,-6.2 -5,3.2 a 79.2,79.2 0 0 0 12.4,-22.9 l 1.9,0.6 a 59,59 0 0 0 0.8,25.6 l -3.2,-5 -4.6,4.7 m 16.5,-56.5 -1,-6.6 -5.6,2.3 c 6.7,-6 12.8,-12.5 17.7,-19.6 l 1.7,1 c -4,7.7 -5.6,15.7 -5.1,24.6 l -2.2,-5.4 -5.5,3.7"
           fill="#333333"
           id="path645" />
        <path
           d="m 1230.9,1726.8 c -5.5,-9.7 -12.8,-15.5 -12.8,-19.2 0,-3.6 2.7,-7 6.4,-7 3.7,0 6,3 6.4,7 0.4,-4 2.7,-7 6.4,-7 3.7,0 6.3,3.4 6.4,7 0,3.7 -7.3,9.5 -12.8,19.2 z"
           fill="#ee1111"
           stroke="#ee1111"
           id="path646" />
        <path
           d="m 1159.8,1597.8 v 92.2 h 16.2 v -90 a 209.6,209.6 0 0 1 -16.2,-2.2 z"
           fill="#eecc55"
           stroke="#333333"
           stroke-linejoin="round"
           stroke-width="4.3"
           id="path647" />
        <path
           d="m 1120.6,1596.5 32.8,9.4 m -29.4,4.3 29.4,8.4 m -26.6,4.3 26.6,8.5 m -25.3,4.3 25.3,8.4 m -22.5,5.3 22.5,7.5 m -18.4,6.2 18.4,6.6 m -15,7.4 15,5.3 m 63,-76.5 -34,3.5 m 29.6,9.5 -29.6,3.1 m 26.5,9.8 -26.5,2.9 m 22.7,10 -22.7,2.6 m 20.2,10.4 -20.2,2.3 m 17.1,10.7 -17,2 m 13,10.6 -13,2"
           fill="none"
           stroke="#ffffff"
           stroke-linecap="round"
           stroke-linejoin="round"
           stroke-width="5.3"
           id="path648" />
        <g
           transform="translate(798.2,1193.7)"
           id="g649">
          <path
             d="m 372.1,414.7 a 2.5,2.5 0 1 1 -4.9,0 2.5,2.5 0 0 1 5,0 z m 0,12.5 a 2.5,2.5 0 1 1 -4.9,0 2.5,2.5 0 0 1 5,0 z m 0,12.5 a 2.5,2.5 0 1 1 -4.9,0 2.5,2.5 0 0 1 5,0 z m 0,12.4 a 2.5,2.5 0 1 1 -4.9,0 2.5,2.5 0 0 1 5,0 z m 0,12.5 a 2.5,2.5 0 1 1 -4.9,0 2.5,2.5 0 0 1 5,0 z m 0,12.5 a 2.5,2.5 0 1 1 -4.9,0 2.5,2.5 0 0 1 5,0 z m 0,12.5 a 2.5,2.5 0 1 1 -4.9,0 2.5,2.5 0 0 1 5,0 z"
             fill="#333333"
             id="path649" />
        </g>
        <path
           d="m 1029.4,1505.2 c -37,25 -91.4,72.1 -139.3,113.7 v 173.9 l 12,20 78.5,-50.4 3.3,-16.5 c 10.9,-56.1 8.4,-111.7 65,-151.7 l -0.1,-60.6 a 194.7,194.7 0 0 1 -19.4,-28.4 z"
           fill="#3366aa"
           stroke="#333333"
           stroke-linecap="round"
           stroke-linejoin="round"
           stroke-width="5.3"
           id="path650" />
        <path
           d="m 1035.4,1520.7 -2.8,2.5 8.5,11.5 -14.9,11.1 -4.3,-5.5 7.7,-5.8 -4.4,-6 -15,11.4 8.7,11.4 -14.6,11.4 -4.4,-5.4 7.5,-6 -4.4,-5.8 -13,10.2 8.9,11.3 -14.4,11.7 -4.6,-5.3 7.5,-6.1 -4.6,-5.8 -14.5,12 9.3,10.9 -14.3,12 -4.6,-5.2 7.3,-6.2 -4.6,-5.7 -14,11.9 9.4,10.8 -14.1,12.3 -4.7,-5.2 7.3,-6.3 -4.7,-5.7 -14.2,12.4 9.5,10.7 -14,12.4 -4.8,-5.2 7.3,-6.4 -4.8,-5.6 -14.1,12.5 9.5,10.7 -14,12.4 -4.8,-5.1 7.3,-6.4 -4.8,-5.6 -6.7,5.2 m 0.2,154.5 11.1,-7.4 4,5.7 -8,5.3 4,6.2 15.2,-10 -8,-12 15.6,-10.2 4,5.7 -8,5.3 3.9,6.2 15.6,-10.3 -8,-12 15.6,-10.2 4,5.8 -8,5.3 4,6.2 15.6,-10.4 -8,-12 15.6,-10.2 4,5.8 -8,5.3 4,6.2 7,-5"
           fill="none"
           stroke="#ffffff"
           stroke-linecap="round"
           stroke-linejoin="round"
           stroke-width="4.3"
           id="path651" />
        <use
           id="u53547"
           transform="matrix(0.8812,0,0,0.8812,183.4,205)"
           width="744.09998"
           height="1052.4"
           xlink:href="#g17149" />
        <use
           transform="translate(24,47.9)"
           width="744.09998"
           height="1052.4"
           xlink:href="#u53547"
           id="use651" />
        <path
           d="m 988.5,1696 c -3.8,-12.7 -31,-58.1 -28,-60.5 3.1,-2.4 19.9,16.1 34.6,30.3 m 5.1,-15.4 c -8.7,-16.1 -16.8,-32.2 -14.7,-33.7 2.1,-1.5 10.9,7.2 21.9,18 m 10.6,-16.3 c -5.9,-11 -9.1,-19.3 -7.6,-20.5 1.5,-1.2 7.1,3.7 15.3,11.5 m 16.4,-12.7 c -4.8,-9.3 -8,-16.7 -6.7,-17.7 1.3,-0.9 5.7,2.7 11.4,8 M 893,1695.4 c 13.8,11.3 43.3,45.3 47,42.4 3.8,-2.8 -33.4,-61.6 -29.2,-64.7 4.1,-3.1 50,49 54.2,46 4.2,-3 -33.3,-61.6 -29.3,-64.8 4,-3.2 45.4,44 52.3,45 m -95,38.5 c 11,10.7 20.3,20.2 22.1,18.9 2.8,-2.2 -12.5,-29.4 -22,-48"
           fill="none"
           stroke="#ffffff"
           stroke-linecap="round"
           stroke-width="4.3"
           id="path652" />
        <path
           d="m 893,1673.6 c 6.3,0 48.8,49.1 52.8,46.1 4.2,-3.1 -33.4,-61.7 -29.2,-64.8 4.1,-3.1 50,49.1 54.2,46 4.1,-3.2 -34.2,-63.3 -29,-64.9 5.2,-1.6 38.6,36.7 49.3,43.6 m 55.7,-116 c -2.3,-1.7 -4,-3.3 -5.3,-2.8 -1.3,0.5 1.1,7.2 5.3,15.3 m -9,21.2 c -10.3,-10 -18.6,-18.4 -21.2,-17.6 -2.6,0.7 3,13.1 10.7,27.2 m -11,12.7 c -11.5,-11.4 -22,-22.1 -24.7,-21.1 -2.6,1 6.2,18.9 15.4,35.7 m -6.2,13.2 c -14,-13.5 -31.2,-32.3 -34.2,-30.2 -3,2.1 19,40.2 26,56.5 m -99.7,40.2 c 13.1,12.8 25.1,26.8 28,24.6 2.9,-2.2 -23,-46.4 -28,-60.5"
           fill="none"
           stroke="#ffffff"
           stroke-linecap="round"
           stroke-width="4.3"
           id="path653" />
      </g>
      <use
         transform="rotate(180,1170.2,1719.9)"
         width="744.09998"
         height="1052.4"
         xlink:href="#g56507"
         id="use653" />
    </g>
    <use
       transform="rotate(180,2227.35,472.5)"
       xlink:href="#frame"
       id="use654" />
    <use
       transform="translate(1619.9)"
       xlink:href="#u41689"
       id="use655" />
    <use
       transform="translate(1620)"
       xlink:href="#u41691"
       id="use656" />
    <use
       transform="translate(202.7)"
       xlink:href="#u23898"
       id="use657" />
    <use
       transform="translate(202.7)"
       xlink:href="#u24132"
       id="use658" />
    <use
       transform="translate(2227.5,1675)"
       style="stroke:#ee1111"
       xlink:href="#Q"
       id="use659" />
    <use
       transform="rotate(180,1214.95,-50)"
       style="stroke:#ee1111"
       xlink:href="#Q"
       id="use660" />
  </g>
  <g
     id="club_1"
     transform="translate(-2227.5,-945)">
    <rect
       id="card"
       x="0.69999999"
       y="0.69999999"
       width="201.10001"
       height="313.60001"
       rx="9"
       ry="9"
       fill="#ffffff"
       stroke="#333333"
       stroke-width="1.4" />
  </g>
</svg>
