<?xml version="1.0" encoding="UTF-8" standalone="no"?>
<svg
   width="202.5"
   height="315"
   version="1.1"
   id="svg1018"
   xmlns:xlink="http://www.w3.org/1999/xlink"
   xmlns="http://www.w3.org/2000/svg"
   xmlns:svg="http://www.w3.org/2000/svg">
  <defs
     id="defs1018" />
  <g
     id="Q"
     transform="translate(-2227.5,-948.6)"
     style="fill:none;stroke-width:3.5;stroke-linecap:square">
    <path
       d="m 2253.7,-69 v -8.2 c 0,-5.3 -3.8,-9.6 -8.5,-9.6 -4.7,0 -8.5,4.3 -8.5,9.6 v 8.2 c 0,5.3 3.8,9.6 8.5,9.6 4.7,0 8.5,-4.3 8.5,-9.6 z"
       id="path6" />
    <path
       d="m 2235.2,-73.5 c 11.5,0 11.2,11.6 18.4,13.6"
       id="path7" />
  </g>
  <g
     id="club_jack"
     transform="translate(-2227.5,-945)">
    <path
       id="frame"
       d="M 2194.1,281.3 H 2058 V 33.6 h 136.1 z"
       fill="none"
       stroke="#3366aa"
       stroke-linejoin="round"
       stroke-width="2.4" />
  </g>
  <g
     id="spade_1"
     transform="translate(-2227.5,-945)">
    <g
       id="g272">
      <use
         id="u42787"
         transform="rotate(180,101.3,1102.5)"
         xlink:href="#p37946" />
      <use
         id="p37946"
         transform="matrix(0.46108,0,0,0.46108,-216.4,495.2)"
         xlink:href="#spade" />
    </g>
  </g>
  <g
     id="spade_2"
     transform="translate(-2227.5,-945)">
    <use
       id="u42791"
       transform="translate(202.6)"
       xlink:href="#p37946" />
    <use
       id="u42793"
       transform="translate(202.6)"
       xlink:href="#u42787" />
  </g>
  <g
     id="spade_3"
     transform="translate(-2227.5,-945)">
    <path
       id="spade"
       d="m 506.25,1075.5 c -9,17 -21.75,20.1 -21.75,31.6 0,6.1 4.4,11.3 10.6,11.3 3.7,0.06 7.1,-1.85 9,-5 0,8 -3.2,12.3 -6.3,16 h 16.8 c -3.1,-3.7 -6.4,-8 -6.2,-16 1.9,3.2 5.35,5 9,5 6.2,0 10.5,-5.3 10.6,-11.4 0,-11.4 -12.75,-14.5 -21.75,-31.5 z"
       fill="#333333" />
  </g>
  <g
     id="spade_4"
     transform="translate(-2227.5,-945)">
    <use
       id="u42811"
       transform="translate(405)"
       xlink:href="#u42791" />
    <use
       id="u42813"
       transform="translate(405)"
       xlink:href="#u42793" />
  </g>
  <g
     id="spade_jack"
     transform="translate(-2227.5,-945)">
    <use
       id="u24387"
       transform="matrix(0.9015,0,0,0.9015,1624.6,11.9)"
       xlink:href="#spade" />
    <use
       id="u24552"
       transform="rotate(180,2126,1102.6)"
       xlink:href="#u24387" />
  </g>
  <g
     id="spade_queen"
     transform="translate(-2227.5,-945)">
    <use
       transform="rotate(180,1215,630)"
       xlink:href="#card"
       id="use381" />
    <path
       d="m 2396.4,1055.9 v 34.1 l -57.6,66 -49,15.6 -28.6,-21.6 v -35 l 57.6,-66 49,-15.6 z"
       fill="#333333"
       stroke="#333333"
       stroke-linecap="round"
       stroke-linejoin="round"
       stroke-width="1.3"
       id="path381" />
    <path
       d="m 2374.2,1098.5 -11.3,-9.8 c -39.5,0 -39.8,17.8 -79.6,17.8 l 11.3,9.8 c 38.5,0 39.6,-17.9 79.6,-17.8 z"
       fill="#eecc55"
       stroke="#333333"
       stroke-linecap="square"
       stroke-linejoin="round"
       id="path382" />
    <path
       d="m 2366.2,1090.7 v 5.8 l -6.3,0.2 v -2.9 l 3.1,-0.1 v -3 l -6.6,0.5 0.5,5.8 -6.3,0.9 -0.4,-3 3.2,-0.4 -0.3,-3 -6.5,1.3 1,5.7 -6,1.7 -0.8,-2.8 3.1,-1 -0.6,-2.8 -6.4,2.2 1.7,5.5 -5.9,2.5 -1,-2.7 3,-1.3 -0.8,-2.8 -6,2.8 1.8,5.4 -6,2.8 -0.9,-2.8 3,-1.3 -1,-2.7 -5.8,2.5 1.6,5.5 -6.3,2.2 -0.7,-2.8 3.1,-1 -0.7,-2.8 -6,1.7 1,5.8 -6.5,1.2 -0.3,-3 3.1,-0.4 -0.4,-3 -6.2,1 0.5,5.8 -6.6,0.4 v -3 h 3.2 l -0.1,-3 -6.4,0.2 v 5.8"
       fill="none"
       stroke="#333333"
       stroke-linejoin="round"
       id="path383" />
    <g
       id="g378">
      <path
         d="m 2339.1,1075.3 c -1,-5 4.4,-6.4 4.8,-1.2 0.2,2.6 -1,1 -2.3,0.6 -1.3,-0.4 -0.1,4.1 1.6,7.3 a 10,10 0 0 1 -4.1,-6.7 z m -7.6,-7 c -2.4,-1 -9.5,-1.2 -7,6 1.2,3.6 2.4,1.3 3,-0.5 1.3,-3.7 8.6,-0.5 10.6,2.4 -1.9,-4.5 -0.1,-5.4 -2.4,-7.5 -1.3,-0.9 -2,1 -0.6,2.5 l -3.6,-3 z m 4.9,9 c -3.3,-1 -3.8,4 -0.4,4.4 1.7,0.3 1,-1 0.7,-1.9 -0.2,-1.1 2.5,0 4.6,1.6 a 8.7,8.7 0 0 0 -5,-4 z m 8.5,2.7 c -1.7,-4.7 3.5,-7.1 4.7,-2 0.6,2.5 -1,1.3 -2.2,1.1 -1.4,0 0.8,4.4 3,7.2 -2.3,-1 -4.3,-3.3 -5.5,-6.3 z m -1.9,1.8 c -2.6,-0.6 -2.8,4.3 0,4.4 1.3,0.1 0.7,-0.5 0.5,-1.4 -0.2,-1.1 4,0.3 5.6,1.6 -0.8,-1.6 -4.5,-4.1 -6.1,-4.6 z"
         fill="#eecc55"
         stroke="#333333"
         stroke-linecap="round"
         stroke-linejoin="round"
         stroke-width="0.5"
         id="path384" />
      <path
         d="m 2265.8,1091.4 61,-48.4 c 2.1,36.6 -30.7,60.9 -61,48.4 z"
         fill="#3366aa"
         id="path385" />
      <path
         d="m 2308.9,1073.7 c 0.4,0.5 4.7,6.5 2.1,9 -2.6,2.4 -6.8,-4 -7,-4.4 -0.2,-0.2 -0.2,-0.5 -0.1,-0.6 0.1,-0.1 0.3,0 0.5,0.2 0.4,0.4 3.6,5 5.6,3.4 2,-1.7 -1.1,-6.4 -1.5,-7.1 -0.2,-0.3 -0.2,-0.5 0,-0.6 0.2,-0.1 0.2,-0.1 0.4,0.1 z m 5,-6 c 0.5,0.5 5.5,5.7 3.4,8.3 -2.1,2.7 -7,-2.9 -7.3,-3.2 -0.2,-0.2 -0.2,-0.4 -0.2,-0.6 l 0.6,0.1 c 0.4,0.3 4.3,4.5 5.9,2.7 1.7,-2 -2.2,-6.2 -2.6,-6.8 -0.3,-0.2 -0.2,-0.4 -0.2,-0.5 0,-0.1 0.3,-0.2 0.5,0 z m 3.2,-7 c 0.5,0.3 6,4 4.6,7 -1.5,2.9 -7,-1.2 -7.4,-1.4 -0.2,-0.2 -0.3,-0.4 -0.2,-0.5 h 0.5 c 0.4,0.1 4.8,3.2 6,1 1.1,-2 -3.2,-5.2 -3.7,-5.6 -0.3,-0.2 -0.3,-0.3 -0.2,-0.4 0.1,-0.1 0.2,-0.2 0.4,-0.1 z m 3,-7 c 0.4,0.2 5.4,2.4 4.5,5 -0.8,2.6 -5.9,0.2 -6.1,0 -0.2,0 -0.3,-0.2 -0.3,-0.3 l 0.4,-0.1 c 0.4,0 4.3,1.9 5,0 0.7,-2 -3.2,-3.8 -3.7,-4 l -0.2,-0.4 c 0,-0.1 0.1,-0.2 0.3,-0.1 z m -17.5,24.7 c 0.3,0.6 2.9,7.6 0,9 -3,1.5 -5.4,-5.8 -5.5,-6.2 v -0.6 c 0.2,0 0.4,0.1 0.5,0.3 0.3,0.5 2.3,6.1 4.4,5.1 2.3,-1 0.4,-6.6 0.1,-7.3 l 0.1,-0.6 c 0.1,0 0.3,0 0.4,0.3 z m -7,2.3 c 0.2,0.6 1.4,8.1 -1.7,8.9 -3.2,0.7 -4.1,-7 -4.2,-7.5 0,-0.3 0,-0.5 0.2,-0.5 l 0.4,0.4 c 0.1,0.5 1,6.5 3.3,6 2.4,-0.4 1.6,-6.4 1.5,-7.1 0,-0.4 0,-0.5 0.2,-0.5 0.2,0 0.3,0 0.4,0.3 z m -8,1.8 c 0,0.5 0,7 -2.6,7.2 -2.8,0.1 -2.6,-6.5 -2.6,-7 0,-0.2 0,-0.3 0.2,-0.3 0.1,0 0.2,0.1 0.2,0.4 0.1,0.4 0.1,5.5 2.1,5.5 2,0 2.1,-5.1 2.2,-5.8 0,-0.3 0,-0.3 0.2,-0.4 0,0 0.2,0.1 0.2,0.4 z m 30.1,-28.4 c -0.3,1.5 -1.8,11.6 -12.8,20.1 -11,8.6 -20.7,6 -21.2,6 l -0.4,-0.1 c 0,-0.2 0.1,-0.2 0.3,-0.3 0.7,-0.1 10.5,1.5 20.6,-6.5 a 36,36 0 0 0 13.4,-19.8 c 0.2,0 0.2,0.3 0.1,0.6 z m -5,6.4 a 66.3,66.3 0 0 0 -22.8,17.7 c 5,-9 13.3,-16 22.8,-17.7 z m 11.4,0.2 a 7.2,7.2 0 0 1 -1.8,4.1 14.6,14.6 0 0 0 -4,-4.9 c 2,0.8 3.8,1.4 5.8,0.8 z m -3.3,9 a 6.4,6.4 0 0 1 -2.3,3.7 20.8,20.8 0 0 0 -3.3,-5.4 c 2,1 3.6,1.8 5.6,1.7 z m -5.3,8 c -0.8,1.5 -1.7,2.4 -3,2.7 a 22.7,22.7 0 0 0 -2.3,-6.2 c 1.8,1.5 3.3,3.3 5.3,3.6 z m -7.1,6.3 c -1,1.3 -2.5,2 -3.9,2.1 a 16,16 0 0 0 -0.6,-6.8 c 1.3,2.1 2.6,4 4.5,4.7 z m -8.6,3.7 c -1.1,1 -2.5,1.4 -3.6,1.1 0.8,-1.5 0.7,-3.6 0.7,-5.8 0.7,2.2 1.3,3.7 2.9,4.7 z m -8.9,1.7 c -1.2,0.6 -2.7,0.6 -3.9,0.2 1.1,-1.3 1.6,-3.8 2,-6 0.3,2.3 0.7,4.3 2,5.8 z m 34.7,-37.7 c 0.1,1.4 -0.2,3.5 -0.8,4.4 a 11.3,11.3 0 0 0 -4,-3.1 19.4,19.4 0 0 1 4.8,-1.3 z m -42.9,37.3 c -2,0.3 -3.2,-0.6 -4.3,-1.4 a 29.8,29.8 0 0 1 3.1,-4.5 c 0,2.3 0.1,4.3 1.2,6 z"
         fill="#ffffff"
         id="path386" />
      <path
         d="m 2318.8,1049 -58.3,46.5"
         fill="none"
         stroke="#333333"
         stroke-linejoin="round"
         stroke-width="1.3"
         id="path387" />
      <path
         d="m 2339.7,1017.2 c -1.4,5.5 -5.3,10 -7.3,16 7.8,3.9 21.9,6.4 28.5,4 a 7.4,7.4 0 0 1 -6.1,-2 c -4.4,-4.1 -10.8,-6.6 -15,-16.9 0,-0.3 -0.2,-0.7 -0.1,-1.1 z"
         fill="#ffffff"
         stroke="#3366aa"
         stroke-linecap="square"
         id="path388" />
      <path
         d="m 2370.4,1033.3 c 5.7,26.9 4.3,39.2 2.2,50 a 183.9,183.9 0 0 0 -45.8,-37.6 l 2.2,-12.5 c 9.4,4.5 30.1,10.5 41.4,0.1 z"
         fill="#ee1111"
         stroke="#eecc55"
         stroke-linecap="round"
         stroke-linejoin="round"
         stroke-width="1.5"
         id="path389" />
      <path
         d="m 2373,999.4 c 0.6,13.7 -0.5,13.4 -0.6,19.5 0,4.7 -3.9,12.5 -5.1,14.7 l 14.7,10.5 a 123.1,123.1 0 0 0 -9,-44.7 z"
         fill="#333333"
         id="path390" />
      <path
         d="m 2372.7,978.2 v 17.1 c 1,18 0,17 -0.3,23.6 -0.4,9.6 -4,13 -6.4,15.7 -2.2,2.5 -7.6,4 -11.2,0.6 -4.4,-4 -11.1,-6.6 -15.4,-16.9 4,-15.3 6.8,-28.8 16,-40.1 z"
         fill="#ffffff"
         id="path391" />
      <path
         d="m 2320.9,978.6 c -0.8,14.4 -2.8,34.6 -10.3,49 a 43,43 0 0 1 15.8,4.2 c 6.3,-16.4 10.5,-35.8 16.1,-53.2 z"
         fill="#eecc55"
         stroke="#333333"
         stroke-linecap="round"
         stroke-linejoin="round"
         id="path392" />
      <path
         d="m 2321.3,978.7 a 127.7,127.7 0 0 1 -10,48.3 l 3,0.5 a 28.8,28.8 0 0 1 5.7,-15.1 c -1.6,-6.5 -0.7,-10 3.3,-15.5 -1.3,-5.4 -1.6,-9.5 2.1,-14.8 -0.8,-1.6 -0.8,-2.4 -0.6,-3.4 z"
         fill="#ee1111"
         id="path393" />
      <path
         d="m 2362.9,1024.1 c -0.2,-0.6 -1.2,0 -1.4,-0.2 -1.2,0.8 -1.6,0.8 -3.5,1 a 11.2,11.2 0 0 0 8.1,0.1 7,7 0 0 1 -3.2,-0.9 z"
         fill="#3366aa"
         stroke="#3366aa"
         stroke-linecap="round"
         stroke-linejoin="round"
         id="path394" />
      <g
         id="g55816"
         transform="matrix(0.048,-0.1548,0.1392,0.0533,2309.2,926.4)">
        <path
           d="m -302.1,258.3 c 0.8,-13.8 5.6,-20.1 11.3,-20.3 5.6,-0.2 14.5,4 14.3,20.8 15.9,-0.5 18,8.3 17.6,12.2 -0.6,4.4 -2,11.4 -20,9.9 1.8,21.2 -8,1 -12,0.8 -4,-0.2 -12.3,18.9 -11.2,0.3 -16,0 -19.4,-9.6 -19.4,-13.9 0,-4.6 4.6,-9.6 19.4,-9.8 z"
           fill="#333333"
           stroke="#ee1111"
           stroke-linejoin="round"
           stroke-width="3.2"
           id="path395" />
        <path
           transform="matrix(0.2638,0,0,0.2683,-230,197.8)"
           d="m -198.2,267.5 a 30.7,30.7 0 1 1 -61.4,0 30.7,30.7 0 1 1 61.4,0 z"
           fill="#333333"
           stroke="#ee1111"
           stroke-linejoin="round"
           stroke-width="11.1"
           id="path396" />
      </g>
      <path
         d="m 2283.7,1102.3 v -12.2 c 7.3,1 9.4,-0.7 12.8,-0.8 4.7,2.7 2.2,17.1 -2,16.5 -6.5,-0.9 -7.1,-1.2 -10.8,-3.5 z"
         fill="#ffffff"
         stroke="#333333"
         stroke-linecap="round"
         stroke-linejoin="round"
         id="path397" />
      <path
         d="m 2339.5,978.6 c 0.3,1.7 -0.2,4.6 -3.7,8.4 1,6.6 -0.6,9.9 -3.9,14 1.2,6.8 -0.2,10.1 -4.4,15 1.6,6.1 -3.7,13.3 -5.5,14 l 4.4,1.8 c 6.3,-16.4 10.5,-35.8 16.2,-53.2 z"
         fill="#3366aa"
         stroke="#333333"
         stroke-linecap="round"
         stroke-linejoin="round"
         id="path398" />
      <path
         d="m 2339.4,1018.3 c 4,-15.3 6.8,-28.8 16,-40.1 h -12.8 c -8,24.6 -13,54 -25.4,72 l 11,0.8 c 5.6,-11.7 8.6,-22.6 11.2,-32.7"
         fill="none"
         id="path399" />
      <path
         d="m 2370,1000.5 a 1.7,1.6 27.8 1 1 -2.2,2.2 1.7,1.6 27.8 1 1 2.2,-2.2 z"
         fill="none"
         stroke="#3366aa"
         stroke-width="0.7"
         id="path400" />
      <path
         d="m 2370.1,1002.2 c -0.5,0.6 -0.3,-0.5 -0.9,-1 -0.6,-0.5 -1.7,0 -1.2,-0.6 0.5,-0.6 1.2,-0.7 1.8,-0.2 0.6,0.5 0.8,1.2 0.3,1.8 z"
         fill="#3366aa"
         stroke="#3366aa"
         stroke-width="0.6"
         id="path401" />
      <path
         d="m 2369.4,1001.2 a 0.8,0.8 28.8 1 1 -1.1,1 0.8,0.8 28.8 1 1 1.1,-1 z"
         fill="#333333"
         stroke-width="0.2"
         id="path402" />
      <path
         d="m 2354,1000.6 a 1.6,1.7 62.2 1 0 2.2,2.2 1.6,1.7 62.2 1 0 -2.2,-2.2 z"
         fill="none"
         stroke="#3366aa"
         stroke-width="0.7"
         id="path403" />
      <path
         d="m 2354.1,1000.6 c -0.7,0.6 0.6,0.3 1.2,0.8 0.7,0.7 0.4,2 1,1.4 0.7,-0.7 0.6,-1.5 0,-2.1 -0.6,-0.6 -1.5,-0.7 -2.2,-0.1 z"
         fill="#3366aa"
         stroke="#3366aa"
         stroke-width="0.7"
         id="path404" />
      <path
         d="m 2354.6,1001.3 a 0.8,0.8 61.3 1 0 1.1,1 0.8,0.8 61.3 1 0 -1.1,-1 z"
         fill="#333333"
         stroke-width="0.2"
         id="path405" />
      <path
         d="m 2339.2,1017.9 c 4.3,10.7 11.2,13.2 15.6,17.3 3.6,3.5 9,2 11.2,-0.6 2.5,-2.7 6,-6 6.4,-15.7 0.3,-6.6 1.4,-5.6 0.4,-23.5 a 412.2,412.2 0 0 1 0,-16.8 m -12.9,38.6 c -2,1.3 0,3.6 1.6,2.8 m 2,-20.2 c 1.1,18.5 3,17.2 3,18.4 0,2.5 -1.6,2 -3,1.2 l 0.2,2.3 m 0,6.8 c -1.5,-1 -2.3,-0.5 -3.1,0 m 9.9,-49.9 c 0.5,1.5 1,3 2.1,3.6 m -4.4,-3.6 c 0.8,3.5 2.5,5.7 4.3,6.8 m -6.5,-6.8 c 1.5,5.2 3.1,8.3 6.6,10.3 m -8.7,-10.3 c 2.2,8 4.1,11 8.7,13.7 m -16.4,-13.7 a 8.1,8.1 0 0 1 -3.3,3.3 m 5.4,-3.3 c -0.9,3 -5.1,6.7 -8.3,7.9 m 10.4,-7.9 c -1.4,4.8 -6.6,9.8 -12.5,12.4 m 14.6,-12.4 c -1.6,6.1 -9,13.6 -16.2,15.7 m 13.3,7.4 c -2,-0.5 -3,-2.2 -4.6,-2 -1.8,0.1 -3.1,1.7 -5.5,2.3 3,0 4.3,2 6,1.8 1.5,-0.3 2,-1.3 4.1,-2 z m -3.1,3.5 c -2.4,0.4 -4.6,0 -6.2,-1.5 m 22.4,-2.1 v 0.8 c -2.5,1 -2.8,1.7 -4.4,1.4 -1.6,-0.3 -1.8,-1.4 -4,-2.1 2.2,-0.5 3,-2.1 4.8,-2 1.8,0.2 2.3,1.4 3.6,1.9 z m -5.2,3.6 c 2.5,0.4 3.7,-0.1 5.5,-1.3"
         fill="none"
         stroke="#3366aa"
         stroke-linecap="round"
         stroke-linejoin="round"
         id="path406" />
      <path
         d="m 2358.9,999.7 c -2,-1.4 -3.3,-2 -5.5,-1.4 -1.7,0.5 -2.9,2 -4.6,3.1 v 0.8 c 3.4,-1 5.1,-2.5 8.8,-2 z m 6.2,0 c 2,-1.5 3,-2 5.3,-1.5 0.8,0.2 1.7,1.8 2.3,2.3 l 0.2,0.8 c -2,-0.6 -2.9,-1.7 -6.5,-1.1 z m -7.5,-4.5 0.3,1 c -4,-1.4 -4.6,0 -9.4,2.3 3.6,-2.4 5.9,-3.9 9.1,-3.3 z m 6.7,0.1 -0.3,1.1 c 4,-1.5 3,-1 7.9,1.2 -3.6,-2.3 -4.4,-2.9 -7.6,-2.3 z"
         fill="#3366aa"
         stroke="#3366aa"
         stroke-linecap="round"
         stroke-linejoin="round"
         stroke-width="0.4"
         id="path407" />
      <path
         d="m 2391,988.1 c -3.5,6.5 -9.6,13 -2.9,19.5 1.6,27.2 1.3,58.6 0,86.9 l 5.8,-5 c -0.8,-27.1 -1,-54.8 0,-82 5.5,-6.4 1.1,-12.9 -2.9,-19.4 z"
         fill="#eecc55"
         stroke="#333333"
         id="path408" />
      <path
         d="m 2260.5,1095.5 c 6.8,-5.9 11.5,-6.2 23.8,-5.2 v 13 a 40.3,40.3 0 0 0 -23.8,17.4 z"
         fill="#ee1111"
         stroke="#333333"
         stroke-linejoin="round"
         stroke-width="1.3"
         id="path409" />
      <path
         d="m 2388.2,1020.1 c 2.7,3.9 2.1,1.4 5.8,-3.6 -0.9,5 0.2,14.6 -1.5,16.5 -4.7,-3.1 -4,-5.9 -4.3,-12.9 z"
         fill="#eecc55"
         stroke="#333333"
         stroke-linecap="square"
         stroke-linejoin="round"
         id="path410" />
      <path
         d="m 2387.5,1010.6 c 2.6,4 -0.2,12 1.4,13.9 6,-6.3 3.5,-8.3 5.9,-14.5"
         fill="#eecc55"
         stroke="#333333"
         stroke-linecap="square"
         stroke-linejoin="round"
         id="path411" />
      <path
         d="m 2391,997.4 c 3.3,5.3 6.7,9.3 2.4,14.6 -4.2,7.5 -2.7,7 -2.3,7 0.4,0 1.6,-0.3 -2.5,-7 -5.3,-5.3 -0.4,-9.3 2.4,-14.6 z m 2.4,33.3 c -2.3,3.4 -1.9,1.3 -5.1,-3.2 0.8,4.5 -0.1,13 1.3,14.6 4.1,-2.7 3.6,-5.2 3.8,-11.4 z"
         fill="#eecc55"
         stroke="#333333"
         stroke-linecap="square"
         stroke-linejoin="round"
         id="path412" />
      <path
         d="m 2388.5,1039.8 c 2.3,3.4 1.9,1.3 5.1,-3.2 -0.8,4.5 0.1,13 -1.3,14.6 -4.1,-2.7 -3.6,-5.2 -3.8,-11.4 z"
         fill="#eecc55"
         stroke="#333333"
         stroke-linecap="square"
         stroke-linejoin="round"
         id="path413" />
      <path
         d="m 2391.7,1059.1 c -0.8,0.2 -1.5,-0.7 -1.5,-1.5 a 2.2,2.2 0 0 1 2.2,-2.3 c 1.6,0 2.7,1.7 2.6,3.4 a 3.6,3.6 0 0 1 -3.9,3.5 c -2.3,-0.2 -4,-2.7 -3.7,-5.3 a 5.4,5.4 0 0 1 2.2,-3.8 m 1.1,27.8 c 0.8,0.2 1.5,-0.7 1.5,-1.5 a 2.2,2.2 0 0 0 -2.2,-2.3 c -1.6,0 -2.7,1.7 -2.6,3.4 a 3.6,3.6 0 0 0 3.9,3.5 c 2.3,-0.2 4,-2.7 3.7,-5.3 a 5.5,5.5 0 0 0 -1.8,-3.5"
         fill="#eecc55"
         stroke="#333333"
         stroke-linecap="round"
         id="path414" />
      <path
         d="m 2391,991.4 c 1.2,2 2,3.1 0,5.8 -1.8,-2.3 -2,-3.2 0,-5.8 z"
         fill="#ee1111"
         stroke="#3366aa"
         stroke-linecap="square"
         stroke-linejoin="round"
         id="path415" />
      <path
         d="m 2336.3,1042.4 c 7.9,3.7 25.7,4.6 32,-2.3 a 97.4,97.4 0 0 1 1.2,31.5 c -8.7,-10.6 -22,-19.5 -33.2,-29.2 z"
         fill="#eecc55"
         stroke="#333333"
         stroke-linecap="square"
         stroke-linejoin="round"
         id="path416" />
      <path
         d="m 2345,1047.4 h 22.3 m -14.2,6.3 h 14.4 m -3.5,9.4 h 3.8 m -18.8,-12.6 h 18.5 m -10.6,6.3 h 10.7 m -6.8,3.2 h 7"
         fill="#eecc55"
         stroke="#333333"
         stroke-linecap="round"
         stroke-linejoin="round"
         id="path417" />
      <path
         d="m 2377.3,1041.4 c -1,2.8 -2.6,4 -2.4,5.5 0.1,1 0.9,1.8 1.7,1.6 0.8,0 1.2,-0.7 1.3,-1.4 v 0.1 a 6.1,6.1 0 0 1 0,2.6 h 0.9 v -0.1 a 6,6 0 0 1 -0.7,-2.5 v -0.2 c 0.3,0.7 0.9,1.2 1.6,1.1 0.9,-0.1 1.4,-1.1 1.3,-2 -0.2,-1.5 -2,-2.3 -3.7,-4.7 z m -43.7,11 c -1.1,0 -2.6,0.5 -4.5,0.4 1.3,2.6 1.1,4.8 2.2,5.6 0.8,0.5 1.8,0.4 2.2,-0.4 0.4,-0.7 0.3,-1.4 -0.1,-2 h 0.1 a 5,5 0 0 1 1.7,1.8 v 0 l 0.6,-0.8 v 0 a 7,7 0 0 1 -2.2,-1.2 v 0 c 0.6,0.2 1.3,0 1.7,-0.7 0.5,-0.8 0.1,-1.9 -0.6,-2.4 a 2,2 0 0 0 -1.1,-0.3 z m 45,0.7 c -1,2.7 -2.7,4 -2.6,5.4 0.1,1 0.8,1.7 1.6,1.6 0.8,0 1.2,-0.6 1.4,-1.3 v 0 c 0,1.3 0,2.2 -0.2,2.7 h 1 a 6,6 0 0 1 -0.6,-2.6 v -0.2 c 0.3,0.8 0.8,1.2 1.5,1.2 0.9,0 1.5,-1.1 1.4,-2 -0.1,-1.5 -2,-2.4 -3.5,-4.8 z m -37,5.7 c -1,0 -2.4,0.3 -4,0.1 1,2.7 0.8,5 1.8,5.8 0.7,0.6 1.7,0.5 2.2,-0.3 0.5,-0.6 0.4,-1.4 0,-2 h 0.1 a 5,5 0 0 1 1.6,2 v 0 l 0.6,-0.8 v 0 c -0.5,-0.1 -1.2,-0.5 -2,-1.3 h -0.2 c 0.7,0.2 1.4,0 1.8,-0.6 0.6,-0.7 0.3,-1.9 -0.4,-2.5 -0.4,-0.3 -1,-0.4 -1.5,-0.4 z m 37.8,5.9 c -1.3,2.6 -3,3.6 -3,5 0,1 0.5,1.9 1.4,1.9 0.7,0 1.3,-0.5 1.5,-1.2 v 0.1 a 5.7,5.7 0 0 1 -0.5,2.6 h 1 a 6.3,6.3 0 0 1 -0.3,-2.6 v 0 c 0.2,0.7 0.7,1.2 1.4,1.2 0.9,0 1.6,-0.9 1.6,-1.8 0,-1.5 -1.7,-2.7 -3.1,-5.2 z m -33.5,1 c 1,2.7 0.6,4.9 1.6,5.8 0.6,0.6 1.7,0.7 2.2,0 0.5,-0.7 0.5,-1.4 0.1,-2 h 0.1 a 5.4,5.4 0 0 1 1.5,2 v 0 l 0.7,-0.8 v 0 c -0.5,-0.1 -1.2,-0.6 -2,-1.4 h -0.1 c 0.6,0.2 1.3,0.2 1.8,-0.4 0.5,-0.8 0.3,-1.9 -0.3,-2.5 -1,-1 -3,-0.3 -5.6,-0.7 z m 8.4,7.2 c 0.8,2.9 0.3,5 1.2,6 0.7,0.7 1.7,0.7 2.3,0 0.5,-0.5 0.5,-1.3 0.2,-2 v 0.1 c 0.9,0.9 1.3,1.6 1.5,2.1 v 0 l 0.6,-0.7 v 0 a 5.1,5.1 0 0 1 -2,-1.6 v 0 c 0.6,0.3 1.3,0.3 1.8,-0.3 0.6,-0.7 0.5,-1.9 -0.1,-2.6 -1,-1 -3,-0.3 -5.5,-1 z m 24.8,3.4 c -1.6,2.5 -3.4,3 -3.6,4.5 -0.2,1 0.3,2 1.2,2.1 0.7,0.2 1.3,-0.2 1.6,-1 v 0.2 a 5.3,5.3 0 0 1 -0.8,2.4 v 0 l 0.9,0.3 v 0 c -0.2,-0.6 -0.1,-1.4 0,-2.7 v 0 c 0.2,0.7 0.6,1.3 1.3,1.4 0.9,0.2 1.7,-0.6 1.8,-1.5 0.2,-1.5 -1.3,-3 -2.4,-5.7 z m -16.5,4.4 c 0.6,2.9 0,5 0.9,6 0.5,0.7 1.5,0.9 2.2,0.3 0.5,-0.6 0.6,-1.3 0.3,-2 v 0 a 5.4,5.4 0 0 1 1.3,2.3 v 0 l 0.8,-0.7 v 0 c -0.5,-0.2 -1.1,-0.8 -1.9,-1.7 v -0.1 c 0.6,0.4 1.3,0.4 1.8,-0.1 0.7,-0.6 0.6,-1.8 0,-2.6 -1,-1 -2.9,-0.6 -5.4,-1.4 z m 9.7,4.9 c -0.4,3 -1.7,4.5 -1.3,5.9 0.3,0.9 1.2,1.4 2,1.1 0.7,-0.2 1,-0.9 1,-1.6 v 0 a 5.3,5.3 0 0 1 0.4,2.6 v 0 l 0.9,-0.2 v 0 a 6.5,6.5 0 0 1 -1,-2.4 l -0.1,-0.1 c 0.4,0.6 1,1 1.7,0.7 0.9,-0.3 1.2,-1.5 1,-2.4 -0.5,-1.4 -2.5,-1.8 -4.6,-3.6 z"
         fill="#ffffff"
         stroke="#ffffff"
         stroke-linecap="round"
         stroke-linejoin="round"
         stroke-width="0.3"
         id="path418" />
      <path
         d="m 2320.3,1074.4 a 48.5,48.5 0 0 1 -17.4,16.3 v 13.6 c 13.9,-3 24.3,-10.1 36.5,-13.4 z"
         fill="#ee1111"
         id="path419" />
      <path
         d="m 2317.2,1050.2 11,0.8 c 14,-29.4 12,-54 27.2,-72.7 h -12.9 c -8,24.6 -13,54 -25.3,71.9 z"
         fill="#333333"
         id="path420" />
      <use
         id="u3787"
         transform="matrix(0.8388,0,0,0.8388,372.5,173)"
         width="744.09998"
         height="1052.4"
         xlink:href="#g55816" />
      <use
         transform="translate(-4.3,15)"
         width="744.09998"
         height="1052.4"
         xlink:href="#u3787"
         id="use420" />
      <path
         d="m 2301.2,1100.1 c 0,-1 -1,-2 -2.3,-2.1 -5.3,-0.6 -2.5,0.2 -2.7,1.5 -0.2,1.4 -1.7,2.2 2.5,2.3 1.3,0 2.4,-0.7 2.5,-1.7 z m -0.3,-4.9 c 0,-1 -1.1,-1.9 -2.5,-1.9 -5.2,0.1 -2.4,0.6 -2.5,1.9 0,1.4 -1.4,2.4 2.7,2 1.3,-0.2 2.3,-1 2.3,-2 z m -0.4,9.6 c 0,-1 -0.9,-2 -2.2,-2.2 -5,-0.7 -2.4,0.2 -2.6,1.5 -0.2,1.3 -1.6,2.1 2.3,2.3 1.3,0 2.4,-0.6 2.5,-1.6 z m -1.3,-13.6 c 0,-0.9 -0.9,-1.7 -2,-1.7 -4,0 -1.9,0.4 -2,1.5 0,1.3 -1.1,2 2.1,1.8 1,0 1.9,-0.7 1.9,-1.6 z"
         fill="#ffffff"
         stroke="#333333"
         stroke-linejoin="round"
         id="path421" />
    </g>
    <use
       transform="rotate(180,2328.8,1102.5)"
       width="2632.5"
       height="1575"
       xlink:href="#g378"
       id="use421" />
    <use
       transform="translate(202.7,945)"
       xlink:href="#frame"
       id="use422" />
    <use
       transform="translate(1620)"
       xlink:href="#u42811"
       id="use423" />
    <use
       transform="translate(1620)"
       xlink:href="#u42813"
       id="use424" />
    <use
       transform="translate(202.7)"
       xlink:href="#u24387"
       id="use425" />
    <use
       transform="translate(202.7)"
       xlink:href="#u24552"
       id="use426" />
    <use
       transform="translate(2227.5,1990)"
       style="stroke:#333333"
       xlink:href="#Q"
       id="use427" />
    <use
       transform="rotate(180,1214.95,107.5)"
       style="stroke:#333333"
       xlink:href="#Q"
       id="use428" />
  </g>
  <g
     id="club_1"
     transform="translate(-2227.5,-945)">
    <rect
       id="card"
       x="0.69999999"
       y="0.69999999"
       width="201.10001"
       height="313.60001"
       rx="9"
       ry="9"
       fill="#ffffff"
       stroke="#333333"
       stroke-width="1.4" />
  </g>
</svg>
