<?xml version="1.0" encoding="UTF-8" standalone="no"?>
<svg
   width="202.5"
   height="315"
   version="1.1"
   id="svg1018"
   xmlns:xlink="http://www.w3.org/1999/xlink"
   xmlns="http://www.w3.org/2000/svg"
   xmlns:svg="http://www.w3.org/2000/svg">
  <defs
     id="defs1018" />
  <path
     id="10"
     d="m 20.1,-90 c -3.2,0 -5.4,3.1 -5.4,8.4 V -71 c 0,5.3 2.2,8.4 5.4,8.4 3.2,0 5.4,-3 5.4,-8.4 v -10.6 c 0,-5.3 -2.2,-8.4 -5.4,-8.4 z m -12,-1.2 v 29.8 z"
     style="fill:none;stroke-width:3.5" />
  <g
     id="club_2"
     transform="translate(-1822.5)">
    <use
       id="u37954"
       transform="translate(202.5)"
       xlink:href="#clubS" />
    <use
       id="u37956"
       transform="translate(202.5)"
       xlink:href="#u37950" />
  </g>
  <g
     id="club_4"
     transform="translate(-1822.5)">
    <use
       id="u46740"
       transform="translate(649.95,-106.5)"
       xlink:href="#club" />
    <use
       id="u46752"
       transform="matrix(1,0,0,-1,649.95,421.5)"
       xlink:href="#club" />
    <use
       id="u46750"
       transform="matrix(1,0,0,-1,565.15,421.5)"
       xlink:href="#club" />
    <use
       id="u46760"
       transform="translate(565.15,-106.5)"
       xlink:href="#club" />
  </g>
  <g
     id="club_7"
     transform="translate(-1822.5)">
    <use
       id="u46742"
       transform="translate(1215.05,-53.3)"
       xlink:href="#club" />
  </g>
  <g
     id="club_8"
     transform="translate(-1822.5)">
    <use
       id="u46935"
       transform="translate(1375.15,-35.5)"
       xlink:href="#club" />
    <use
       id="u46937"
       transform="translate(1459.95,-35.5)"
       xlink:href="#club" />
    <use
       id="u46939"
       transform="matrix(1,0,0,-1,1375.15,350.5)"
       xlink:href="#club" />
    <use
       id="u46941"
       transform="matrix(1,0,0,-1,1459.95,350.5)"
       xlink:href="#club" />
  </g>
  <g
     id="club_10"
     transform="translate(-1822.5)">
    <use
       transform="translate(1822.5)"
       xlink:href="#card"
       id="use66" />
    <use
       transform="translate(1619.9)"
       xlink:href="#u37954"
       id="use67" />
    <use
       transform="translate(1620)"
       xlink:href="#u37956"
       id="use68" />
    <use
       transform="translate(1215)"
       xlink:href="#u46740"
       id="use69" />
    <use
       transform="translate(1215)"
       xlink:href="#u46750"
       id="use70" />
    <use
       transform="translate(1215)"
       xlink:href="#u46752"
       id="use71" />
    <use
       transform="translate(1215)"
       xlink:href="#u46760"
       id="use72" />
    <use
       transform="translate(405)"
       xlink:href="#u46935"
       id="use73" />
    <use
       transform="translate(405)"
       xlink:href="#u46937"
       id="use74" />
    <use
       transform="translate(405)"
       xlink:href="#u46939"
       id="use75" />
    <use
       transform="translate(405)"
       xlink:href="#u46941"
       id="use76" />
    <use
       id="u47070"
       transform="translate(607.5,-17.8)"
       xlink:href="#u46742" />
    <use
       transform="matrix(1,0,0,-1,0,315)"
       xlink:href="#u47070"
       id="use77" />
    <use
       transform="translate(1822.5,100)"
       style="stroke:#333333"
       xlink:href="#10"
       id="use78" />
    <use
       transform="rotate(180,1012.55,107.5)"
       style="stroke:#333333"
       xlink:href="#10"
       id="use79" />
  </g>
  <g
     id="club_1"
     transform="translate(-1822.5)">
    <rect
       id="card"
       x="0.69999999"
       y="0.69999999"
       width="201.10001"
       height="313.60001"
       rx="9"
       ry="9"
       fill="#ffffff"
       stroke="#333333"
       stroke-width="1.4" />
    <use
       id="u37950"
       transform="rotate(180,101.3,157.5)"
       xlink:href="#clubS" />
    <use
       id="clubS"
       transform="matrix(0.45,0,0,0.45,-28.38,-12.7)"
       xlink:href="#club" />
    <path
       id="club"
       d="m 101.25,132.5 a 11,11 0 0 0 -8.1,18.41 l -0.5,0.52 a 11,11 0 1 0 5.86,13.95 l 0.59,0.37 c 0,7.28 -2.74,13.39 -6.1,16.75 h 16.5 c -3.36,-3.36 -6.1,-9.47 -6.1,-16.75 l 0.59,-0.37 a 11,11 0 0 0 10.26,7.12 11,11 0 1 0 -4.4,-21.07 l -0.5,-0.52 a 11,11 0 0 0 -8.1,-18.41 z"
       style="fill:#333333" />
  </g>
</svg>
