<?xml version="1.0" encoding="UTF-8" standalone="no"?>
<svg
   width="202.5"
   height="315"
   version="1.1"
   id="svg1018"
   xmlns:xlink="http://www.w3.org/1999/xlink"
   xmlns="http://www.w3.org/2000/svg"
   xmlns:svg="http://www.w3.org/2000/svg">
  <defs
     id="defs1018" />
  <path
     id="10"
     d="m 20.1,-405 c -3.2,0 -5.4,3.1 -5.4,8.4 v 10.6 c 0,5.3 2.2,8.4 5.4,8.4 3.2,0 5.4,-3 5.4,-8.4 v -10.6 c 0,-5.3 -2.2,-8.4 -5.4,-8.4 z m -12,-1.2 v 29.8 z"
     style="fill:none;stroke-width:3.5" />
  <g
     id="diamond_1"
     transform="translate(-1822.5,-315)">
    <use
       id="u41521"
       transform="rotate(180,101.3,472.6)"
       xlink:href="#diamS" />
    <path
       id="diam"
       d="m 123.5,472.5 a 112.97,112.97 0 0 0 -22,26 97.4,97.4 0 0 0 -22.6,-26 c 11,-10.3 15.8,-14.6 22.6,-26 a 112.57,112.57 0 0 0 22,26 z"
       fill="#ee1111" />
    <use
       id="diamS"
       transform="matrix(0.4423,0,0,0.4423,-27.7,164.5)"
       xlink:href="#diam" />
  </g>
  <g
     id="diamond_2"
     transform="translate(-1822.5,-315)">
    <use
       id="u41525"
       transform="translate(202.5)"
       xlink:href="#diamS" />
    <use
       id="u41527"
       transform="translate(202.5)"
       xlink:href="#u41521" />
    <use
       id="u49155"
       transform="translate(202.5,-105.5)"
       xlink:href="#diam" />
    <use
       id="u49157"
       transform="translate(202.5,105.5)"
       xlink:href="#diam" />
  </g>
  <g
     id="diamond_4"
     transform="translate(-1822.5,-315)">
    <use
       id="u49179"
       transform="translate(362.6)"
       xlink:href="#u49155" />
    <use
       id="u49181"
       transform="matrix(1,0,0,-1,362.6,1156)"
       xlink:href="#u49157" />
    <use
       id="u49189"
       transform="translate(84.8)"
       xlink:href="#u49179" />
    <use
       id="u49191"
       transform="matrix(1,0,0,-1,84.8,945)"
       xlink:href="#u49179" />
  </g>
  <g
     id="diamond_8"
     transform="translate(-1822.5,-315)">
    <use
       id="u49320"
       transform="translate(1375.1,-35.5)"
       xlink:href="#diam" />
    <use
       id="u49322"
       transform="translate(1459.9,-35.5)"
       xlink:href="#diam" />
    <use
       id="u49326"
       transform="matrix(1,0,0,-1,0,944.5)"
       xlink:href="#u49320" />
    <use
       id="u49328"
       transform="matrix(1,0,0,-1,0,944.5)"
       xlink:href="#u49322" />
  </g>
  <g
     id="diamond_9"
     transform="translate(-1822.5,-315)">
    <use
       id="u49340"
       transform="translate(202.5)"
       xlink:href="#u49320" />
    <use
       id="u49342"
       transform="translate(202.6)"
       xlink:href="#u49322" />
    <use
       id="u49344"
       transform="translate(202.5)"
       xlink:href="#u49326" />
    <use
       id="u49346"
       transform="translate(202.6)"
       xlink:href="#u49328" />
    <use
       id="u49358"
       transform="translate(1012.5)"
       xlink:href="#u49179" />
    <use
       id="u49360"
       transform="translate(1012.5)"
       xlink:href="#u49181" />
    <use
       id="u49362"
       transform="translate(1012.5)"
       xlink:href="#u49189" />
    <use
       id="u49364"
       transform="translate(1012.5)"
       xlink:href="#u49191" />
  </g>
  <g
     id="diamond_10"
     transform="translate(-1822.5,-315)">
    <use
       transform="translate(1822.5,315)"
       xlink:href="#card"
       id="use796" />
    <use
       transform="translate(1619.9)"
       xlink:href="#u41525"
       id="use797" />
    <use
       transform="translate(1620)"
       xlink:href="#u41527"
       id="use798" />
    <use
       transform="translate(202.5)"
       xlink:href="#u49340"
       id="use799" />
    <use
       transform="translate(202.4)"
       xlink:href="#u49342"
       id="use800" />
    <use
       transform="translate(202.5)"
       xlink:href="#u49344"
       id="use801" />
    <use
       transform="translate(202.4)"
       xlink:href="#u49346"
       id="use802" />
    <use
       transform="translate(202.5)"
       xlink:href="#u49358"
       id="use803" />
    <use
       transform="translate(202.5)"
       xlink:href="#u49360"
       id="use804" />
    <use
       transform="translate(202.4)"
       xlink:href="#u49362"
       id="use805" />
    <use
       transform="translate(202.4)"
       xlink:href="#u49364"
       id="use806" />
    <use
       id="u14541"
       transform="translate(1822.55,-70.8)"
       xlink:href="#diam" />
    <use
       transform="matrix(1,0,0,-1,-0.05,944.5)"
       xlink:href="#u14541"
       id="use807" />
    <use
       transform="translate(1822.5,730)"
       style="stroke:#ee1111"
       xlink:href="#10"
       id="use808" />
    <use
       transform="rotate(180,1012.55,107.5)"
       style="stroke:#ee1111"
       xlink:href="#10"
       id="use809" />
  </g>
  <g
     id="club_1"
     transform="translate(-1822.5,-315)">
    <rect
       id="card"
       x="0.69999999"
       y="0.69999999"
       width="201.10001"
       height="313.60001"
       rx="9"
       ry="9"
       fill="#ffffff"
       stroke="#333333"
       stroke-width="1.4" />
  </g>
</svg>
