<?xml version="1.0" encoding="UTF-8" standalone="no"?>
<svg
   width="202.5"
   height="315"
   version="1.1"
   id="svg1018"
   xmlns:xlink="http://www.w3.org/1999/xlink"
   xmlns="http://www.w3.org/2000/svg"
   xmlns:svg="http://www.w3.org/2000/svg">
  <defs
     id="defs1018" />
  <path
     id="10"
     d="m 20.1,-720 c -3.2,0 -5.4,3.1 -5.4,8.4 v 10.6 c 0,5.3 2.2,8.4 5.4,8.4 3.2,0 5.4,-3 5.4,-8.4 v -10.6 c 0,-5.3 -2.2,-8.4 -5.4,-8.4 z m -12,-1.2 v 29.8 z"
     style="fill:none;stroke-width:3.5" />
  <g
     id="heart_1"
     transform="translate(-1822.5,-630)">
    <use
       id="u41664"
       transform="rotate(180,101.3,787.6)"
       xlink:href="#heartS" />
    <path
       id="heart"
       d="M 101.3,810.3 C 91.3,795.3 79,788 79,776.8 c 0,-6.2 4.7,-12 11,-12 6.6,0 10.6,5.2 11.2,12 0.7,-6.8 4.7,-12 11.2,-12 6.4,0 11,5.8 11,12 0,11.2 -12.1,18.5 -22.1,33.5 z"
       fill="#ee1111" />
    <use
       id="heartS"
       transform="matrix(0.4498,0,0,0.4498,-28.4,334.3)"
       xlink:href="#heart" />
  </g>
  <g
     id="heart_2"
     transform="translate(-1822.5,-630)">
    <use
       id="u41668"
       transform="translate(202.5)"
       xlink:href="#heartS" />
    <use
       id="u41670"
       transform="translate(202.5)"
       xlink:href="#u41664" />
    <use
       id="u49445"
       transform="translate(202.5,-108)"
       xlink:href="#heart" />
    <use
       id="u49447"
       transform="matrix(1,0,0,-1,202.5,1683)"
       xlink:href="#heart" />
  </g>
  <g
     id="heart_4"
     transform="translate(-1822.5,-630)">
    <use
       id="u49461"
       transform="translate(362.6)"
       xlink:href="#u49445" />
    <use
       id="u49463"
       transform="translate(362.6)"
       xlink:href="#u49447" />
    <use
       id="u49471"
       transform="translate(84.8)"
       xlink:href="#u49461" />
    <use
       id="u49473"
       transform="translate(84.8)"
       xlink:href="#u49463" />
  </g>
  <g
     id="heart_8"
     transform="translate(-1822.5,-630)">
    <use
       id="u49636"
       transform="translate(1375,-36)"
       xlink:href="#heart" />
    <use
       id="u49638"
       transform="translate(1459.9,-36)"
       xlink:href="#heart" />
    <use
       id="u49640"
       transform="matrix(1,0,0,-1,1459.9,1611)"
       xlink:href="#heart" />
    <use
       id="u49642"
       transform="matrix(1,0,0,-1,1375,1611)"
       xlink:href="#heart" />
  </g>
  <g
     id="heart_10"
     transform="translate(-1822.5,-630)">
    <use
       transform="translate(1822.5,630)"
       xlink:href="#card"
       id="use543" />
    <use
       transform="translate(1619.9)"
       xlink:href="#u41668"
       id="use544" />
    <use
       transform="translate(1620)"
       xlink:href="#u41670"
       id="use545" />
    <use
       transform="translate(1215)"
       xlink:href="#u49461"
       id="use546" />
    <use
       transform="translate(1215)"
       xlink:href="#u49463"
       id="use547" />
    <use
       transform="translate(1214.9)"
       xlink:href="#u49471"
       id="use548" />
    <use
       transform="translate(1214.9)"
       xlink:href="#u49473"
       id="use549" />
    <use
       transform="translate(405)"
       xlink:href="#u49636"
       id="use550" />
    <use
       transform="translate(404.9)"
       xlink:href="#u49638"
       id="use551" />
    <use
       transform="translate(404.9)"
       xlink:href="#u49640"
       id="use552" />
    <use
       transform="translate(405)"
       xlink:href="#u49642"
       id="use553" />
    <use
       id="u49724"
       transform="translate(1822.55,-72.5)"
       xlink:href="#heart" />
    <use
       transform="matrix(1,0,0,-1,0,1575)"
       xlink:href="#u49724"
       id="use554" />
    <use
       transform="translate(1822.5,1360)"
       style="stroke:#ee1111"
       xlink:href="#10"
       id="use555" />
    <use
       transform="rotate(180,1012.55,107.5)"
       style="stroke:#ee1111"
       xlink:href="#10"
       id="use556" />
  </g>
  <g
     id="club_1"
     transform="translate(-1822.5,-630)">
    <rect
       id="card"
       x="0.69999999"
       y="0.69999999"
       width="201.10001"
       height="313.60001"
       rx="9"
       ry="9"
       fill="#ffffff"
       stroke="#333333"
       stroke-width="1.4" />
  </g>
</svg>
