<?xml version="1.0" encoding="UTF-8" standalone="no"?>
<svg
   width="202.5"
   height="315"
   version="1.1"
   id="svg1018"
   xmlns:xlink="http://www.w3.org/1999/xlink"
   xmlns="http://www.w3.org/2000/svg"
   xmlns:svg="http://www.w3.org/2000/svg">
  <defs
     id="defs1018" />
  <path
     id="9"
     d="m -177.3,-711.7 c 0,4.5 -3.7,8.2 -8.2,8.2 a 8.25,8.25 0 0 1 0,-16.5 c 4.5,0 8.2,3.8 8.2,8.3 0,2.9 0.5,10.6 -1.8,15 -3,6.2 -12,5.2 -14.3,-2.2"
     fill="none"
     stroke-width="3.5" />
  <path
     id="10"
     d="m 20.1,-720 c -3.2,0 -5.4,3.1 -5.4,8.4 v 10.6 c 0,5.3 2.2,8.4 5.4,8.4 3.2,0 5.4,-3 5.4,-8.4 v -10.6 c 0,-5.3 -2.2,-8.4 -5.4,-8.4 z m -12,-1.2 v 29.8 z"
     style="fill:none;stroke-width:3.5" />
  <path
     id="J"
     d="m 211.5,-699.1 c 0,4.2 3,6.5 6.7,6.5 3.7,0 6.7,-2.7 6.7,-6.5 v -20.4 M 223,-720 h 3.9"
     fill="none"
     stroke-linecap="square"
     stroke-width="3.5" />
  <g
     id="club_jack"
     transform="translate(-1822.5,-630)">
    <path
       id="frame"
       d="M 2194.1,281.3 H 2058 V 33.6 h 136.1 z"
       fill="none"
       stroke="#3366aa"
       stroke-linejoin="round"
       stroke-width="2.4" />
  </g>
  <g
     id="spade_1"
     transform="translate(-1822.5,-630)">
    <g
       id="g272">
      <use
         id="u42787"
         transform="rotate(180,101.3,1102.5)"
         xlink:href="#p37946" />
      <use
         id="p37946"
         transform="matrix(0.46108,0,0,0.46108,-216.4,495.2)"
         xlink:href="#spade" />
    </g>
  </g>
  <g
     id="spade_2"
     transform="translate(-1822.5,-630)">
    <use
       id="u42791"
       transform="translate(202.6)"
       xlink:href="#p37946" />
    <use
       id="u42793"
       transform="translate(202.6)"
       xlink:href="#u42787" />
    <use
       id="u51906"
       transform="translate(-202.5,-104.7)"
       xlink:href="#spade" />
    <use
       id="u51908"
       transform="matrix(1,0,0,-1,-202.5,2309.7)"
       xlink:href="#spade" />
  </g>
  <g
     id="spade_3"
     transform="translate(-1822.5,-630)">
    <use
       id="u42807"
       transform="translate(405)"
       xlink:href="#p37946" />
    <use
       id="u42809"
       transform="translate(405)"
       xlink:href="#u42787" />
    <path
       id="spade"
       d="m 506.25,1075.5 c -9,17 -21.75,20.1 -21.75,31.6 0,6.1 4.4,11.3 10.6,11.3 3.7,0.06 7.1,-1.85 9,-5 0,8 -3.2,12.3 -6.3,16 h 16.8 c -3.1,-3.7 -6.4,-8 -6.2,-16 1.9,3.2 5.35,5 9,5 6.2,0 10.5,-5.3 10.6,-11.4 0,-11.4 -12.75,-14.5 -21.75,-31.5 z"
       fill="#333333" />
  </g>
  <g
     id="spade_4"
     transform="translate(-1822.5,-630)">
    <use
       id="u51922"
       transform="translate(362.6)"
       xlink:href="#u51906" />
    <use
       id="u51932"
       transform="translate(84.8)"
       xlink:href="#u51922" />
    <use
       id="u51934"
       transform="translate(84.8)"
       xlink:href="#u51924" />
    <use
       id="u51924"
       transform="translate(362.6)"
       xlink:href="#u51908" />
  </g>
  <g
     id="spade_8"
     transform="translate(-1822.5,-630)">
    <use
       id="u52050"
       transform="translate(810)"
       xlink:href="#u51922" />
    <use
       id="u52052"
       transform="translate(810)"
       xlink:href="#u51924" />
    <use
       id="u52054"
       transform="translate(810)"
       xlink:href="#u51932" />
    <use
       id="u52056"
       transform="translate(810)"
       xlink:href="#u51934" />
    <use
       id="u52064"
       transform="translate(970.1,-34.9)"
       xlink:href="#spade" />
    <use
       id="u52066"
       transform="translate(1054.9,-34.9)"
       xlink:href="#spade" />
    <use
       id="u52068"
       transform="matrix(1,0,0,-1,0,2205)"
       xlink:href="#u52064" />
    <use
       id="u52070"
       transform="matrix(1,0,0,-1,0,2205)"
       xlink:href="#u52066" />
  </g>
  <g
     id="spade_9"
     transform="translate(-1822.5,-630)">
    <use
       transform="translate(1620,945)"
       xlink:href="#card"
       id="use314" />
    <use
       transform="translate(1620.1)"
       xlink:href="#u42787"
       id="use315" />
    <use
       transform="translate(202.6)"
       xlink:href="#u52054"
       id="use316" />
    <use
       transform="translate(202.6)"
       xlink:href="#u52056"
       id="use317" />
    <use
       transform="translate(202.6)"
       xlink:href="#u52066"
       id="use318" />
    <use
       transform="translate(202.6)"
       xlink:href="#u52070"
       id="use319" />
    <use
       transform="translate(1215)"
       xlink:href="#spade"
       id="use320" />
    <use
       transform="translate(1620)"
       xlink:href="#p37946"
       id="use321" />
    <use
       transform="translate(202.5)"
       xlink:href="#u52050"
       id="use322" />
    <use
       transform="translate(202.5)"
       xlink:href="#u52052"
       id="use323" />
    <use
       transform="translate(202.5)"
       xlink:href="#u52064"
       id="use324" />
    <use
       transform="translate(202.5)"
       xlink:href="#u52068"
       id="use325" />
    <use
       transform="translate(1822.5,1675)"
       style="stroke:#333333"
       xlink:href="#9"
       id="use326" />
    <use
       transform="rotate(180,810.05,265)"
       style="stroke:#333333"
       xlink:href="#9"
       id="use327" />
  </g>
  <g
     id="spade_10"
     transform="translate(-1822.5,-630)">
    <use
       transform="translate(1822.5,945)"
       xlink:href="#card"
       id="use328" />
    <use
       transform="translate(1619.9)"
       xlink:href="#u42791"
       id="use329" />
    <use
       transform="translate(1620)"
       xlink:href="#u42793"
       id="use330" />
    <use
       transform="translate(405)"
       xlink:href="#u52050"
       id="use331" />
    <use
       transform="translate(405)"
       xlink:href="#u52052"
       id="use332" />
    <use
       transform="translate(404.85)"
       xlink:href="#u52054"
       id="use333" />
    <use
       transform="translate(404.85)"
       xlink:href="#u52056"
       id="use334" />
    <use
       transform="translate(405)"
       xlink:href="#u52064"
       id="use335" />
    <use
       transform="translate(404.85)"
       xlink:href="#u52066"
       id="use336" />
    <use
       transform="translate(405)"
       xlink:href="#u52068"
       id="use337" />
    <use
       transform="translate(404.85)"
       xlink:href="#u52070"
       id="use338" />
    <use
       id="u52156"
       transform="translate(1417.5,-69.7)"
       xlink:href="#spade" />
    <use
       transform="matrix(1,0,0,-1,0,2206)"
       xlink:href="#u52156"
       id="use339" />
    <use
       transform="translate(1822.5,1675)"
       style="stroke:#333333"
       xlink:href="#10"
       id="use340" />
    <use
       transform="rotate(180,1012.55,265)"
       style="stroke:#333333"
       xlink:href="#10"
       id="use341" />
  </g>
  <g
     id="spade_jack"
     transform="translate(-1822.5,-630)">
    <use
       transform="rotate(180,1113.75,630)"
       xlink:href="#card"
       id="use342" />
    <g
       transform="matrix(0.2407,0,0,0.2666,1862.1,520.4)"
       id="g375">
      <path
         d="m 1380.3,2057.4 v 268.9 c -32,29.4 -162.4,107.6 -198.2,117.3 -103.3,47 -153.8,3.3 -216.8,-18.8 l -152,-115.2 0.2,-268.9 c 31.9,-29.3 162.3,-107.5 198.1,-117.2 103.3,-47 153.7,-3.3 216.8,18.8 z"
         fill="#333333"
         id="path342" />
      <g
         id="g7710"
         transform="matrix(1,0,0,1.0019,-871.4,-736.9)">
        <path
           d="m 2039.9,2674 138.2,104.6 a 131,131 0 0 1 34.6,-19.2 L 2099.8,2674 Z"
           fill="#eecc55"
           stroke-opacity="0"
           id="path343" />
        <path
           d="m 1986.3,2642.6 c -41,-81.5 44,-170 124.3,-118.6 6.7,18.1 1.3,24.2 -0.8,37.8 -0.4,13.5 11,40.4 13.3,46 2.7,7 -6,14.3 -20.4,11 -3.5,2.5 3.9,14 3.1,17.8 -3.4,0.1 -6.4,2.4 -3.6,6.2 -3.3,10.4 9.8,23.6 2.8,28.2 -31.8,21 -94.3,-1.1 -118.7,-28.4 z"
           fill="#ffffff"
           id="path344" />
        <path
           d="m 1912.6,2643.8 c -9.4,3 -19.2,6.8 -29.5,11.5 a 112.9,112.9 0 0 0 -13.5,4.8 c -61,31.1 -120.5,67.7 -179.3,107.5 a 153,153 0 0 0 -5.4,4.7 v 14.4 c 114.3,46.1 215.6,-15.3 227.7,-142.9 z"
           fill="#3366aa"
           id="path345" />
        <path
           d="m 1956.4,2903.8 c 0.8,-13.7 5.6,-20.1 11.3,-20.3 5.7,-0.2 14.6,4 14.4,20.9 15.8,-0.6 18,8.3 17.5,12.2 -0.6,4.4 -1.9,11.4 -20,9.8 1.8,21.3 -8,19.8 -12,19.7 -3.8,0 -12.2,0 -11.2,-18.5 -16,0 -19.4,-9.6 -19.4,-14 0,-4.5 4.6,-9.6 19.4,-9.8 z m 46.4,-15.3 c 13.4,-4.1 16,14 2,16.4 -7,1.2 -3.9,-3.4 -3.3,-7.1 0.8,-4.2 -10.2,0.6 -18.5,6.7 a 35.3,35.3 0 0 1 19.8,-16 z m -68,-11.5 c -15.7,-11.1 -29.3,7.7 -11.9,17 8.5,4.5 5.6,-2.9 6.3,-7.9 0.8,-5.7 15,6.9 23.3,18.3 a 43,43 0 0 0 -17.8,-27.4 z m 4.9,-9.3 c -2,-13.9 16.4,-13.6 16.4,0.8 0,7 -2.1,4.1 -5.7,2.9 -4,-1.4 0.3,20.3 5,29.5 -6,-4.4 -14.5,-24.4 -15.7,-33.2 z m 54.7,-3.7 c -1.6,-10.4 -15.6,-36.5 -33.9,-14.5 -9.2,11.1 0.6,11.6 8,10.5 14.5,-2.2 19.2,29.7 13.7,42.7 10.7,-15.2 17.4,-10.7 19.7,-22.6 -0.1,-6.5 -7.6,-5.5 -9.7,2.4 0.5,-3.7 2.7,-15.5 2.2,-18.5 z m -18.1,51.1 a 8.1,8.1 0 1 1 -16.2,0 c 0,-4.5 3.6,-8.2 8.1,-8.2 4.5,0 8.1,3.7 8.1,8.2 z"
           fill="#eecc55"
           stroke="#333333"
           stroke-linecap="round"
           stroke-linejoin="round"
           stroke-width="2.4"
           id="path346" />
        <path
           d="m 2176.5,2675.1 c 16.5,-12.7 22.2,43.8 34.7,59.8 -13.3,3.5 -3.7,4.7 -17,8.9 l -49,-37.5 c 9.2,-4.4 21.2,-26.1 31.3,-31.2 z"
           fill="#ffffff"
           stroke="#333333"
           stroke-linecap="round"
           stroke-linejoin="round"
           stroke-width="4.3"
           id="path347" />
        <path
           d="m 2200.3,2608.4 v 141.7 l 14.7,11.1 v -152.8 z"
           fill="#eecc55"
           stroke="#333333"
           stroke-width="4.3"
           id="path348" />
        <path
           d="m 2214.6,2695.7 c 0,4.4 -3.9,8 -8.7,8 -19,0 -8.9,-2 -9.2,-7.6 -0.4,-6 -5.5,-10 9.2,-8.5 4.8,0.5 8.7,3.6 8.7,8.1 z m -0.8,16 c 0,4.5 -3.8,8.1 -8.6,8.1 -18.7,0 -8.7,-2.1 -9.1,-7.6 -0.4,-6 -5.5,-10 9.1,-8.5 4.8,0.5 8.6,3.6 8.6,8 z m 1.2,-32.8 c 0,4.4 -3.7,8 -8.2,8 -18,0 -8.5,-2.1 -8.8,-7.7 -0.4,-6 -5.2,-9.9 8.8,-8.4 4.5,0.5 8.2,3.6 8.2,8 z m -4,48.4 a 6.9,6.9 0 0 1 -6.8,7 c -14.7,0 -7,-1.9 -7.2,-6.7 -0.3,-5.1 -4.3,-8.6 7.2,-7.3 3.7,0.4 6.7,3.1 6.7,7 z"
           fill="#ffffff"
           stroke="#333333"
           stroke-linecap="round"
           stroke-linejoin="round"
           stroke-width="4.3"
           id="path349" />
        <path
           d="m 2238.8,2695.7 c 0,4.4 -5.1,8 -11.4,8 -24.8,0 -11.6,-2 -12.1,-7.6 -0.5,-6 -7.2,-10 12.1,-8.5 6.3,0.5 11.4,3.6 11.4,8.1 z m -1,16 c 0,4.5 -5.1,8.1 -11.3,8.1 -24.5,0 -11.5,-2.1 -12,-7.6 -0.5,-6 -7.1,-10 12,-8.5 6.2,0.5 11.2,3.6 11.2,8 z m 0.2,-32.8 c 0,4.4 -4.9,8 -10.8,8 -23.6,0 -11,-2.1 -11.5,-7.7 -0.5,-6 -6.9,-9.9 11.5,-8.4 5.9,0.5 10.8,3.6 10.8,8 z m -8.3,48.4 c 0,3.8 -4,7 -8.8,7 -19.3,0 -9,-1.9 -9.4,-6.7 -0.4,-5.1 -5.6,-8.6 9.4,-7.3 4.8,0.4 8.8,3.1 8.8,7 z"
           fill="#ffffff"
           stroke="#333333"
           stroke-linejoin="round"
           stroke-width="4.3"
           id="path350" />
        <path
           d="m 2196.8,2695.3 c 0,4.4 -3.5,8 -7.7,8 -4.2,0 -7.7,-3.6 -7.7,-8 0,-4.4 3.5,-8 7.7,-8 4.2,0 7.7,3.6 7.7,8 z m -0.6,16 c 0,4.5 -3.4,8.1 -7.6,8.1 -4.2,0 -7.6,-3.6 -7.6,-8 0,-4.4 3.4,-8 7.6,-8 4.2,0 7.6,3.6 7.6,8 z m 1,15.6 c 0,3.9 -2.7,7 -6,7 -3.3,0 -6,-3.1 -6,-7 0,-3.8 2.7,-7 6,-7 3.3,0 6,3.2 6,7 z m -4.6,-51.5 c -2.4,-4.3 -1.3,-9.1 2.4,-10.9 3.7,-1.8 8.6,0.4 11,4.7 2.4,4.3 1.2,9.1 -2.5,10.8 -3.7,1.8 -8.6,-0.3 -11,-4.6 z"
           fill="#ffffff"
           stroke="#333333"
           stroke-width="4.3"
           id="path351" />
        <path
           d="m 2176.8,2682.3 c -2.4,-4.3 -0.9,-9.3 3.3,-11.3 16.4,-7.6 8.8,-1.5 12,3.7 3.6,5.6 10.1,7.3 -3.5,11.8 a 9.8,9.8 0 0 1 -11.8,-4.2 z"
           fill="#ffffff"
           stroke="#333333"
           stroke-linecap="round"
           stroke-linejoin="round"
           stroke-width="4.3"
           id="path352" />
        <g
           transform="matrix(0.8855,0,0,1.0949,1614.2,2355.1)"
           id="g356">
          <path
             d="m 670.2,123.6 c -8,11.2 -20.6,22.9 -20.6,34.3 a 42,42 0 0 0 12.1,26 l -9,9.2 9,9 a 42.3,42.3 0 0 0 -12,26.2 20.6,20.6 0 0 0 41.1,0 c 0,-8 -5.5,-19.4 -12.1,-26.2 l 9,-9 -9,-9 a 43.9,43.9 0 0 0 12.1,-26.2 c 0,-11.4 -12.6,-23 -20.6,-34.3 z"
             fill="#eecc55"
             stroke="#333333"
             stroke-linecap="round"
             stroke-linejoin="round"
             stroke-width="4.1"
             id="path353" />
          <path
             d="m 670.2,175.2 c 5.8,-3 10.4,-11.2 10.4,-17 0,-5.8 -6.3,-11 -10.4,-14.2 -4.3,3.4 -10.4,8.5 -10.4,14.3 0,5.8 4.7,13.9 10.4,16.9 z m 0,35.8 a 22,22 0 0 1 10.4,16.9 10.4,10.4 0 0 1 -20.8,0 22,22 0 0 1 10.4,-17 z"
             fill="#ee1111"
             stroke="#333333"
             stroke-linecap="round"
             stroke-linejoin="round"
             stroke-width="4.1"
             id="path354" />
          <path
             d="m 666.9,213.4 11,-10.6 m -16,-0.9 10.6,-9 m 1,-20.2 -11,10.6"
             fill="#eecc55"
             stroke="#333333"
             stroke-linecap="round"
             stroke-linejoin="round"
             stroke-width="4.1"
             id="path355" />
          <path
             d="m 678.5,184.2 -10.6,9.1"
             fill="#eecc55"
             stroke="#333333"
             stroke-linejoin="round"
             stroke-width="4.1"
             id="path356" />
        </g>
        <path
           d="m 2251.8,2789 -152,-115 m -414.8,98.4 c 31.9,-29.3 162.3,-107.4 198.1,-117"
           fill="#333333"
           stroke="#333333"
           stroke-linejoin="round"
           stroke-width="5.3"
           id="path357" />
        <path
           d="m 2081.9,2641.9 c 12.6,-2 13.8,-4.3 19.3,-3.3 0.7,4.7 -6.3,2.3 -19.3,3.3 z"
           fill="#3366aa"
           stroke="#3366aa"
           stroke-linecap="round"
           stroke-linejoin="round"
           stroke-width="4.3"
           id="path358" />
        <path
           d="m 2085.4,2567.1 a 3,3 0 1 1 -6,0 3,3 0 1 1 6,0 z"
           fill="#3366aa"
           stroke-width="0.5"
           id="path359" />
        <path
           d="m 2091.7,2558.4 a 300,300 0 0 1 -32.5,5.2 c 0,1.7 15,0.8 20,0 5.2,-0.6 12.5,-3.3 12.5,-5.2 z"
           fill="#3366aa"
           stroke="#3366aa"
           stroke-linejoin="round"
           stroke-width="2.8"
           id="path360" />
        <path
           d="m 2063.2,2565 c 6.3,8.7 20.1,11.4 31.3,2.6"
           fill="none"
           stroke="#3366aa"
           stroke-width="2.8"
           id="path361" />
        <path
           d="m 2088.3,2567.1 a 5.85,5.95 0 1 1 -11.7,0 5.85,5.95 0 1 1 11.7,0 z"
           fill="none"
           stroke="#3366aa"
           stroke-linecap="round"
           stroke-linejoin="round"
           stroke-width="2.4"
           id="path362" />
        <path
           d="m 2002,3164.2 3.7,0.5 h 0.2 c -0.8,-2 -0.9,-5.3 -0.2,-9.9 v -0.4 c 0.5,2.9 2.3,5 5.3,5.5 3.6,0.5 6.7,-2.5 7.2,-6 0.8,-5.4 -5.9,-10.2 -9.7,-20.7 -7,8.6 -14.8,11.7 -15.5,17.1 -0.5,3.6 1.7,7.3 5.3,7.8 3,0.4 5.3,-1.2 6.6,-3.9 v 0.5 c -0.7,4.6 -1.7,7.7 -3,9.4 l 0.1,0.1 m 6.4,-41.2 3.7,0.6 h 0.1 c -0.7,-2 -0.7,-5.3 0.2,-9.8 l 0.1,-0.5 c 0.4,2.9 2,5.2 5,5.7 3.6,0.7 6.8,-2.1 7.5,-5.6 1,-5.4 -5.3,-10.6 -8.8,-21.2 -7.3,8.4 -15.2,11 -16.3,16.5 -0.6,3.5 1.4,7.3 5,8 3,0.5 5.4,-1 6.7,-3.6 v 0.5 a 21,21 0 0 1 -3.3,9.2 v 0.2 m 8.3,-41 3.7,0.9 v -0.1 c -0.6,-2 -0.4,-5.3 0.7,-9.8 l 0.1,-0.4 c 0.2,2.9 1.8,5.2 4.8,5.9 3.5,0.8 6.8,-1.7 7.7,-5.2 1.3,-5.3 -4.8,-10.8 -7.6,-21.6 -7.8,8 -15.8,10.2 -17.1,15.6 -0.8,3.5 0.9,7.5 4.5,8.3 2.9,0.7 5.4,-0.8 6.9,-3.2 l -0.1,0.4 a 21.5,21.5 0 0 1 -3.7,9.1 v 0.1 m 10.3,-40.4 3.7,1 h 0.1 c -0.5,-2 -0.1,-5.3 1.2,-9.8 l 0.1,-0.4 c 0,2.9 1.6,5.3 4.5,6.2 3.5,1 6.8,-1.2 8,-4.6 1.6,-5.3 -4.2,-11.1 -6.3,-22.1 -8.3,7.4 -16.4,9.1 -18,14.4 -1.1,3.4 0.4,7.7 4,8.7 2.8,0.8 5.3,-0.5 7,-2.9 l -0.1,0.5 a 20.7,20.7 0 0 1 -4.2,8.8 v 0.2 m 12.8,-39.8 3.6,1.3 h 0.1 c -0.4,-2.1 0.3,-5.3 1.9,-9.7 l 0.2,-0.4 c -0.2,2.9 1.1,5.4 4,6.5 3.3,1.3 7,-1 8.3,-4.3 1.9,-5.2 -3.5,-11.1 -4.7,-22.2 -9,6.7 -17.3,8.2 -19.2,13.3 -1.2,3.4 0,7.5 3.5,8.7 2.8,1 5.4,0 7.2,-2.3 l -0.1,0.4 a 20.5,20.5 0 0 1 -4.9,8.5 l 0.1,0.2 m 15.7,-38.8 3.4,1.6 h 0.1 a 20,20 0 0 1 2.7,-9.4 l 0.2,-0.5 c -0.4,3 0.7,5.5 3.4,6.8 3.3,1.5 7,-0.2 8.7,-3.4 2.4,-5 -2.6,-11.5 -2.8,-22.6 -9.4,5.9 -17.8,6.6 -20.2,11.5 -1.5,3.3 -0.6,7.6 2.7,9.1 2.7,1.3 5.4,0.4 7.4,-1.8 l -0.2,0.5 c -2,4.2 -3.8,6.9 -5.5,8 v 0.2 m 19,-37.2 3.3,1.9 h 0.2 c 0,-2.2 1,-5.2 3.5,-9.2 l 0.3,-0.4 c -0.7,2.9 0,5.6 2.7,7.1 3.1,1.8 7,0.5 9,-2.6 2.8,-4.6 -1.5,-11.6 -0.5,-22.7 -10,4.9 -18.5,4.8 -21.4,9.4 -1.8,3.1 -1.3,7.5 1.8,9.4 2.6,1.5 5.4,0.9 7.6,-1 l -0.2,0.4 c -2.4,4 -4.5,6.5 -6.3,7.5 v 0.2 m 22.7,-35.2 3,2.2 h 0.2 c 0.2,-2 1.6,-5 4.5,-8.6 l 0.3,-0.4 c -1,2.7 -0.5,5.5 2,7.3 2.9,2.2 6.9,1.3 9.1,-1.5 3.4,-4.3 -0.1,-11.7 2.2,-22.6 -10.6,3.6 -19,2.6 -22.3,7 -2.2,2.8 -2.2,7.3 0.7,9.4 2.4,1.8 5.2,1.5 7.6,-0.1 l -0.2,0.4 c -3,3.6 -5.2,6 -7.1,6.8 v 0.1 m 26.6,-32.3 2.8,2.6 h 0.1 c 0.5,-2 2.3,-4.8 5.6,-8 l 0.3,-0.4 c -1.3,2.6 -1.1,5.5 1,7.6 2.6,2.5 6.7,2.1 9.3,-0.4 3.9,-3.8 1.3,-11.6 5,-22 -11,2 -19,0 -23,3.9 -2.5,2.5 -3.1,7 -0.5,9.5 2.2,2.1 5,2.1 7.6,0.8 l -0.3,0.4 a 23.2,23.2 0 0 1 -7.9,5.9 v 0.1 m 30.6,-28.6 2.4,3 h 0.1 c 0.7,-2 2.8,-4.5 6.6,-7.3 l 0.4,-0.3 c -1.7,2.4 -2,5.3 0,7.6 2.2,2.9 6.2,3 9.1,1 4.4,-3.3 2.9,-11.4 8,-21.3 -11,0.6 -18.8,-2.5 -23.2,0.8 -2.9,2.2 -4.1,6.6 -1.9,9.4 1.9,2.4 4.7,2.8 7.4,1.8 l -0.3,0.3 a 23.2,23.2 0 0 1 -8.6,4.8 v 0.2 m 34.1,-24.2 2,3.2 h 0.2 c 1,-1.8 3.4,-3.9 7.4,-6.2 l 0.5,-0.2 c -2,2.1 -2.6,4.9 -1.1,7.5 1.8,3.2 5.7,3.9 8.9,2.2 4.8,-2.6 4.6,-10.8 11,-20 -11.2,-0.7 -18.4,-5 -23.2,-2.4 -3.1,1.8 -5,6 -3.1,9 1.5,2.7 4.2,3.5 7,2.9 l -0.4,0.3 a 21,21 0 0 1 -9.1,3.5 v 0.2"
           fill="#ffffff"
           stroke="#ffffff"
           stroke-width="1.8"
           id="path363" />
        <path
           d="m 2251.7,2792.4 a 469.6,469.6 0 0 0 -155,134 h 54.2 a 376.6,376.6 0 0 1 100.8,-88 z"
           fill="#eecc55"
           stroke="#333333"
           stroke-linecap="round"
           stroke-linejoin="round"
           stroke-width="3.5"
           id="path364" />
        <path
           d="m 1955.7,2656 c -14.5,105.7 -35.6,181.8 -69.7,244.3 h 15 c 5,-45.7 33.3,-80.7 67.3,-80.7 34,0 62.2,35 67.3,80.7 h 30.3 a 398.6,398.6 0 0 1 108.9,-113.9 l -174,-130.4 z m -119.2,239.6 c 2.2,-3.4 4.3,-7 6.4,-10.5 26.5,-46 42,-96.5 52.9,-148.2 -43.6,67 -123.2,92.6 -210.9,61.7 v 97 z"
           fill="#ee1111"
           stroke="#eecc55"
           stroke-linejoin="round"
           stroke-width="5.3"
           id="path365" />
        <path
           d="m 1824.9,2742.3 c 1.5,2.2 17.3,26 5.8,34 -11.8,8 -27,-17 -27.8,-18.7 -0.6,-1 -0.6,-1.9 -0.1,-2.2 0.5,-0.4 1.4,0 2.2,0.9 1.4,1.5 13.3,20.2 22,14.6 9,-5.6 -2.5,-24.3 -4,-27 -0.7,-1.2 -0.5,-1.7 0,-2.1 0.4,-0.4 1.3,-0.4 1.9,0.5 z m 23,-20.4 c 1.7,1.8 20.6,23.1 11,32.1 -9.7,9.3 -28.2,-13.3 -29.2,-14.6 -0.7,-1 -0.8,-1.8 -0.4,-2.1 0.4,-0.4 1.3,-0.2 2.1,0.5 1.5,1.2 16.2,18.3 23.6,12 7.6,-6.7 -6.8,-23.9 -8.6,-26.1 -0.8,-1 -0.7,-1.6 -0.4,-2 0.3,-0.4 1.3,-0.5 2,0.2 z m 15.3,-25 c 2,1.3 23.6,17.3 16.6,27.5 -7.2,10.5 -28.8,-6.7 -30,-7.7 -0.8,-0.7 -1,-1.5 -0.8,-2 0.3,-0.4 1.2,-0.3 2.1,0.2 1.6,0.8 18.6,13.7 24.2,6.3 5.7,-7.6 -11,-20.7 -13.1,-22.4 -1,-0.7 -1,-1.3 -0.8,-1.7 0.3,-0.5 1,-0.8 1.8,-0.2 z m 14.3,-24.8 c 1.8,0.8 21.8,10.8 17.5,20.2 -4.4,9.5 -24.4,-1.4 -25.6,-2.1 -0.7,-0.4 -1.1,-1 -1,-1.4 0.3,-0.4 1,-0.5 1.8,-0.3 1.5,0.5 17.2,8.6 20.6,1.8 3.6,-7 -11.9,-15.3 -13.9,-16.4 -0.9,-0.5 -1,-1 -0.8,-1.4 0.1,-0.4 0.7,-0.7 1.4,-0.4 z m -80.1,85.3 c 0.8,2.3 9.2,29.5 -3.2,33.8 -12.6,4.4 -20.3,-23.7 -20.7,-25.4 -0.2,-1 0,-1.9 0.5,-2 0.6,-0.2 1.3,0.4 1.8,1.3 0.9,1.7 7.2,23.4 16.6,20.6 9.6,-3 3.6,-24.5 2.8,-27.3 -0.3,-1.3 0,-1.7 0.5,-2 0.5,-0.2 1.3,0 1.7,1 z m -29.6,6 c 0.3,2.5 2.8,30.9 -10.3,32.5 -13.3,1.6 -14.7,-27.6 -14.8,-29.3 0,-1 0.4,-1.8 1,-1.9 0.6,-0.1 1,0.7 1.4,1.7 0.5,1.9 2,24.4 11.8,23.6 10,-0.8 8.7,-23.1 8.6,-26 0,-1.3 0.3,-1.7 0.9,-1.8 0.6,-0.1 1.3,0.3 1.4,1.3 z m -34.2,3.6 c -0.1,2.1 -1.8,26.3 -13,25.9 -11.4,-0.5 -8.7,-25.1 -8.5,-26.6 0.1,-0.9 0.5,-1.5 1,-1.5 0.5,0 0.9,0.8 1,1.6 0.2,1.7 -1.5,20.8 6.8,21.5 8.5,0.7 10.4,-18.3 10.7,-20.7 0.1,-1.1 0.5,-1.4 1,-1.4 0.5,0 1,0.4 1,1.2 z m 140,-96 c -1.6,5.3 -11.5,42.4 -59.7,70.2 -48.1,27.7 -87.4,14.4 -89.5,14.5 -1.1,0 -2,-0.2 -2,-0.8 0.2,-0.7 0.7,-0.7 1.8,-0.8 2.5,-0.4 42.6,9.3 87,-16.7 44.5,-26 57.6,-58.7 60.7,-66.8 0.5,-1.3 1,-2.2 1.6,-2 0.6,0.2 0.5,1.3 0.2,2.4 z m -24.3,19 c -39,10.8 -71.5,33.9 -100.1,57.5 23.5,-31.8 60.4,-55 100,-57.4 z m 42.7,9.6 a 25.6,25.6 0 0 1 -8.7,14.7 56.2,56.2 0 0 0 -14.8,-19.8 38.9,38.9 0 0 0 23.5,5 z m -16.3,32 a 23.7,23.7 0 0 1 -10.8,13 77,77 0 0 0 -12.1,-21.2 44.9,44.9 0 0 0 22.9,8.2 z m -25,28.3 c -3.6,5.2 -7.4,7.9 -12.8,8.6 a 79.9,79.9 0 0 0 -7.6,-23.8 c 6.7,6.2 12.2,13.5 20.4,15.2 z m -31.5,20.6 a 23,23 0 0 1 -16.5,6.3 c 2.4,-8 1,-16.8 -0.2,-25.5 4.3,8.3 9.1,15.7 16.7,19.2 z m -36.7,10.7 a 19.1,19.1 0 0 1 -15.1,2.7 c 4,-5.5 4.1,-13.4 4.6,-21.4 2.3,8.3 4.5,14.1 10.5,18.7 z m -37.2,2.8 a 25.4,25.4 0 0 1 -16.3,-0.7 c 5,-4.4 8,-13.6 10.2,-21.3 0.3,8.6 1.4,16.2 6.1,22 z m 156.2,-127.5 c -0.1,5.3 -2,12.9 -5,16.3 a 46.7,46.7 0 0 0 -15.7,-13.3 87.8,87.8 0 0 1 20.7,-3 z m -190.1,123.1 c -8,0.3 -12.9,-3.3 -17.2,-7 a 111,111 0 0 1 14.3,-15.6 c -0.9,8.6 -1,16.2 2.9,22.6 z"
           fill="#ffffff"
           id="path366" />
        <path
           d="m 1961,2723.9 94.6,150 78.4,-98.3 -69,-51.7 z"
           fill="#eecc55"
           stroke="#333333"
           stroke-linejoin="round"
           stroke-width="4.3"
           id="path367" />
        <path
           d="m 1982.6,2740.3 h 92.6 m -81.8,18.1 h 92.6 m -81.9,18.2 h 92.6 m -81.8,18 h 92.6 m -80.3,18.2 h 61.8 m -51,18.1 h 37.2"
           fill="#eecc55"
           stroke="#333333"
           stroke-linecap="round"
           stroke-linejoin="round"
           stroke-width="4.3"
           id="path368" />
        <path
           d="m 2007.1,2519.5 a 681.6,681.6 0 0 0 -71.1,3.7 c -14,54.7 -30.5,77.7 -38.2,92.3 -9.6,18.8 -17.2,18 -18.7,26.3 v 0.5 l -0.2,1.2 c 0,6.2 4.2,11.9 10.4,12.2 5,0.2 10.1,-3.7 10.4,-9.2 a 7.7,7.7 0 0 0 -2.5,-6.1 l 1.1,-0.2 3.8,4.1 c 4,4.5 10.3,9.4 16.7,11.5 a 9.9,9.9 0 0 0 10,-1.6 9.8,9.8 0 0 0 3.6,-8.3 l 2.1,-1.5 a 47.2,47.2 0 0 0 16.3,11.7 h 0.1 a 10,10 0 0 0 14,-9 l 2.2,-2.7 a 16,16 0 0 0 8,2.5 15,15 0 0 0 15.3,-15 14,14 0 0 0 -7.7,-12.7 l 0.2,-0.4 c 9.7,-20.7 22.6,-30.3 40.2,-98 l 0.3,-1.1 z"
           fill="#eecc55"
           id="path369" />
        <path
           transform="matrix(-0.1768,-0.0802,0.0853,-0.1876,1948.4,2763.4)"
           d="m 365,464.5 c 8.9,-4.8 17,5.7 17.7,13.5 1.5,15.8 -14.3,26.8 -28.8,26.2 -22.4,-1 -37,-23.1 -34.8,-44.2 2.6,-25.6 26.2,-43.7 51.2,-44"
           fill="none"
           stroke="#3366aa"
           stroke-width="14.4"
           id="path370" />
        <path
           d="m 1950.9,2656.2 a 47.1,47.1 0 0 1 -16.4,-11.7 m -15.7,11.4 c -6.5,-2.2 -12.8,-7 -16.7,-11.5"
           fill="#eecc55"
           stroke="#3366aa"
           stroke-linejoin="round"
           stroke-width="2.8"
           id="path371" />
        <path
           d="m 2089,2679 -5,6.4 -8.4,-6.4 -5,6.5 15,12 10.1,-12.8 16.7,12.8 -5,6.4 -8.4,-6.4 -5,6.4 16.8,12.8 10,-12.9 16.7,12.8 -5,6.5 -8.4,-6.4 -5,6.4 16.8,12.8 10,-12.9 16.7,12.8 -5,6.5 -8.4,-6.4 -5,6.4 16.8,12.8 10,-12.9 16.7,12.8 -5,6.5 -8.4,-6.4 -5,6.4 16.7,12.8"
           fill="none"
           stroke="#333333"
           stroke-linejoin="round"
           stroke-width="4.3"
           id="path372" />
        <path
           d="m 1897.8,2615.6 c -10.2,20 -18,17.8 -18.8,27.7 a 12,12 0 0 0 5.2,10.8 10,10 0 0 0 14.2,-3.4 c 2.2,-3.7 1.5,-9 -2.3,-11 -2.5,-1.3 -6.3,-0.5 -7.4,2.6 -0.5,1.5 0,4 2,4 M 1936,2523 c -22.3,87.3 -51,94.3 -40.4,114.3 3.9,7.7 13,11.8 20.7,8.5 7.2,-3 11.2,-11.8 8,-19.5 -2.5,-6.3 -9.6,-10 -15.6,-7 a 10,10 0 0 0 -4.8,13.1 c 1.8,3.6 6.2,5.8 9.6,3.6 2.2,-1.4 3.4,-4.7 1.6,-7 -0.8,-0.9 -3,-1.7 -3.6,0 m 57,-107 c -22.4,87.3 -51.2,95.3 -40.6,115.3 a 18.3,18.3 0 0 0 6.3,7 15.2,15.2 0 0 0 21.7,-5 c 3.5,-6.5 1.8,-15.6 -4.7,-19.5 -5.1,-3 -12.2,-1.6 -15,4.1 -2,4.3 -0.7,10.1 3.7,12.3 3,1.4 7,0.4 8.1,-3 0.7,-2 -0.2,-5 -2.5,-5.2 -0.8,0 -2.6,1.1 -1.4,2 m 57.9,-109.4 c -22.3,87.2 -52.1,96.7 -41.5,116.7 a 18.3,18.3 0 0 0 6.3,7 15.2,15.2 0 0 0 21.7,-5 c 3.5,-6.5 1.8,-15.6 -4.7,-19.5 -5.2,-3 -12.2,-1.6 -15,4.1 -2,4.3 -0.7,10.1 3.7,12.3 3,1.4 7,0.4 8.1,-3 0.6,-2 -0.2,-5 -2.5,-5.2 -0.8,0 -2.6,1.1 -1.4,2 m -21,17.4 c -2,0.2 -2.5,-2.4 -2,-4 1.2,-3 4.9,-3.8 7.4,-2.5 3.9,2 4.6,7.3 2.4,11 a 10.2,10.2 0 0 1 -12.8,4.2 m 159.8,-132 c 6.7,18 1.3,24.2 -0.8,37.7 -0.4,13.6 11,40.4 13.3,46 2.7,7.1 -6,14.3 -20.4,11 -3.5,2.5 4,14 3.1,17.9 -3.4,0 -6.3,2.4 -3.6,6.2 -3.3,10.4 9.8,23.6 2.8,28.1 -31.8,21 -94.2,-1 -118.7,-28.4 m 75.6,-10.6 c -7.6,-3.7 -9.2,8.3 -0.6,8.3 8.6,0 14,-9 30,-11.3 m -30.2,-66 c -0.6,-4.1 9,-7.2 15.8,-8.7 5.1,-1 14,-0.2 15.6,1 a 84,84 0 0 1 2.5,19.7 c 0,5.3 -6.5,8 -6.5,8 m -36.2,-28.3 c 10.2,-5 25.4,-9.4 38.6,-8.1 m -187,77.8 c 9.7,-20.7 25.4,-33.6 43,-101.4 m -28.8,96 c 9.7,-20.8 22.1,-28 39.7,-95.9 m -21.5,101.4 c 9.7,-20.7 26.4,-35.6 44,-103.4 m -29.9,97.9 c 9.7,-20.8 23.1,-30.5 40.7,-98.3 m -22.3,103.9 c 9.7,-20.8 26,-36.1 43.6,-104 m -29.4,98.4 c 9.7,-20.8 22.6,-30.3 40.2,-98.1"
           fill="none"
           stroke="#3366aa"
           stroke-linecap="round"
           stroke-linejoin="round"
           stroke-width="4.3"
           id="path373" />
        <path
           d="m 1934.2,2523.4 -35.4,-73.2 h 246.7 l -33.3,73.2 c -50,-4 -119.8,-6.3 -178,0 z"
           fill="#ee1111"
           stroke="#333333"
           stroke-linecap="round"
           stroke-linejoin="round"
           stroke-width="4.3"
           id="path374" />
        <path
           d="m 1915.6,2450.2 28.6,54.5 40.3,-2.3 -11.7,-52.2 m 157,0 -27.7,54.5 -40.3,-2.3 13.1,-52.2 m -17.5,0 -13.7,51.8 h -42 l -11.9,-51.8"
           fill="none"
           stroke="#333333"
           stroke-linejoin="round"
           stroke-width="6"
           id="path375" />
      </g>
      <use
         transform="rotate(180,1096.9,2183.5)"
         width="744.09998"
         height="1052.4"
         xlink:href="#g7710"
         id="use375" />
    </g>
    <use
       transform="translate(1619.7)"
       xlink:href="#u42807"
       id="use376" />
    <use
       transform="translate(1619.9)"
       xlink:href="#u42809"
       id="use377" />
    <use
       transform="translate(0,945)"
       xlink:href="#frame"
       id="use378" />
    <use
       id="u24387"
       transform="matrix(0.9015,0,0,0.9015,1624.6,11.9)"
       xlink:href="#spade" />
    <use
       id="u24552"
       transform="rotate(180,2126,1102.6)"
       xlink:href="#u24387" />
    <use
       transform="translate(1822.4,1675)"
       style="stroke:#333333"
       xlink:href="#J"
       id="use379" />
    <use
       transform="rotate(180,1215,265)"
       style="stroke:#333333"
       xlink:href="#J"
       id="use380" />
  </g>
  <g
     id="heart_1"
     transform="translate(-1822.5,-630)">
    <use
       id="u41664"
       transform="rotate(180,101.3,787.6)"
       xlink:href="#heartS" />
    <path
       id="heart"
       d="M 101.3,810.3 C 91.3,795.3 79,788 79,776.8 c 0,-6.2 4.7,-12 11,-12 6.6,0 10.6,5.2 11.2,12 0.7,-6.8 4.7,-12 11.2,-12 6.4,0 11,5.8 11,12 0,11.2 -12.1,18.5 -22.1,33.5 z"
       fill="#ee1111" />
    <use
       id="heartS"
       transform="matrix(0.4498,0,0,0.4498,-28.4,334.3)"
       xlink:href="#heart" />
  </g>
  <g
     id="heart_2"
     transform="translate(-1822.5,-630)">
    <use
       id="u41668"
       transform="translate(202.5)"
       xlink:href="#heartS" />
    <use
       id="u41670"
       transform="translate(202.5)"
       xlink:href="#u41664" />
    <use
       id="u49445"
       transform="translate(202.5,-108)"
       xlink:href="#heart" />
    <use
       id="u49447"
       transform="matrix(1,0,0,-1,202.5,1683)"
       xlink:href="#heart" />
  </g>
  <g
     id="heart_3"
     transform="translate(-1822.5,-630)">
    <use
       id="u41685"
       transform="translate(405)"
       xlink:href="#heartS" />
    <use
       id="u41687"
       transform="translate(405)"
       xlink:href="#u41664" />
  </g>
  <g
     id="heart_4"
     transform="translate(-1822.5,-630)">
    <use
       id="u49461"
       transform="translate(362.6)"
       xlink:href="#u49445" />
    <use
       id="u49463"
       transform="translate(362.6)"
       xlink:href="#u49447" />
    <use
       id="u49471"
       transform="translate(84.8)"
       xlink:href="#u49461" />
    <use
       id="u49473"
       transform="translate(84.8)"
       xlink:href="#u49463" />
  </g>
  <g
     id="heart_8"
     transform="translate(-1822.5,-630)">
    <use
       id="u49636"
       transform="translate(1375,-36)"
       xlink:href="#heart" />
    <use
       id="u49638"
       transform="translate(1459.9,-36)"
       xlink:href="#heart" />
    <use
       id="u49640"
       transform="matrix(1,0,0,-1,1459.9,1611)"
       xlink:href="#heart" />
    <use
       id="u49642"
       transform="matrix(1,0,0,-1,1375,1611)"
       xlink:href="#heart" />
  </g>
  <g
     id="heart_9"
     transform="translate(-1822.5,-630)">
    <use
       transform="translate(1620,630)"
       xlink:href="#card"
       id="use529" />
    <use
       transform="translate(1619.9)"
       xlink:href="#heartS"
       id="use530" />
    <use
       transform="translate(1620)"
       xlink:href="#u41664"
       id="use531" />
    <use
       transform="translate(202.5)"
       xlink:href="#u49636"
       id="use532" />
    <use
       transform="translate(202.5)"
       xlink:href="#u49638"
       id="use533" />
    <use
       transform="translate(202.5)"
       xlink:href="#u49640"
       id="use534" />
    <use
       transform="translate(202.5)"
       xlink:href="#u49642"
       id="use535" />
    <use
       transform="translate(1012.5)"
       xlink:href="#u49461"
       id="use536" />
    <use
       transform="translate(1012.5)"
       xlink:href="#u49463"
       id="use537" />
    <use
       transform="translate(1012.5)"
       xlink:href="#u49471"
       id="use538" />
    <use
       transform="translate(1012.5)"
       xlink:href="#u49473"
       id="use539" />
    <use
       transform="translate(1620.05)"
       xlink:href="#heart"
       id="use540" />
    <use
       transform="translate(1822.5,1360)"
       style="stroke:#ee1111"
       xlink:href="#9"
       id="use541" />
    <use
       transform="rotate(180,810.05,107.5)"
       style="stroke:#ee1111"
       xlink:href="#9"
       id="use542" />
  </g>
  <g
     id="heart_10"
     transform="translate(-1822.5,-630)">
    <use
       transform="translate(1822.5,630)"
       xlink:href="#card"
       id="use543" />
    <use
       transform="translate(1619.9)"
       xlink:href="#u41668"
       id="use544" />
    <use
       transform="translate(1620)"
       xlink:href="#u41670"
       id="use545" />
    <use
       transform="translate(1215)"
       xlink:href="#u49461"
       id="use546" />
    <use
       transform="translate(1215)"
       xlink:href="#u49463"
       id="use547" />
    <use
       transform="translate(1214.9)"
       xlink:href="#u49471"
       id="use548" />
    <use
       transform="translate(1214.9)"
       xlink:href="#u49473"
       id="use549" />
    <use
       transform="translate(405)"
       xlink:href="#u49636"
       id="use550" />
    <use
       transform="translate(404.9)"
       xlink:href="#u49638"
       id="use551" />
    <use
       transform="translate(404.9)"
       xlink:href="#u49640"
       id="use552" />
    <use
       transform="translate(405)"
       xlink:href="#u49642"
       id="use553" />
    <use
       id="u49724"
       transform="translate(1822.55,-72.5)"
       xlink:href="#heart" />
    <use
       transform="matrix(1,0,0,-1,0,1575)"
       xlink:href="#u49724"
       id="use554" />
    <use
       transform="translate(1822.5,1360)"
       style="stroke:#ee1111"
       xlink:href="#10"
       id="use555" />
    <use
       transform="rotate(180,1012.55,107.5)"
       style="stroke:#ee1111"
       xlink:href="#10"
       id="use556" />
  </g>
  <g
     id="heart_jack"
     transform="translate(-1822.5,-630)">
    <use
       transform="rotate(180,1113.75,472.5)"
       xlink:href="#card"
       id="use557" />
    <g
       transform="matrix(0.2407,0,0,0.2666,1870.2,179)"
       id="g592">
      <path
         d="m 1346.3,2314.7 v -181.5 c -56,-50 -102.3,-74.2 -147,-89.8 -44.7,-15.6 -152.6,-16.6 -198,3 -45.4,19.6 -167.5,103.4 -221.8,204.3 v 181.6 c 56,50 102.4,74.1 147,89.8 44.5,15.6 152.6,16.6 198.1,-3.1 45.5,-19.7 167.4,-103.3 221.7,-204.3 z"
         fill="#333333"
         id="path557" />
      <g
         id="g8100"
         transform="matrix(1,0,0,1.0019,-107.2,-637.6)">
        <path
           d="m 1297.9,2951.4 c 43.3,-34.8 110.2,-36.5 155.7,-4.7 v -181.1 a 448.3,448.3 0 0 0 -112,-75.6 c 26.3,119 -12.5,200.6 -43.7,261.4 z"
           fill="#ee1111"
           id="path558" />
        <path
           d="m 1207.9,2664.3 c -38.3,0.3 -76.7,5 -99.4,14.8 h -0.2 a 244.8,244.8 0 0 1 26,63.6 c 10.2,35.8 3.7,74.1 -10,108 a 484.6,484.6 0 0 1 -12,26.5 h 151.8 a 323,323 0 0 0 21.8,-71.5 c 7.7,-38.4 1.6,-77.8 -8,-115.2 a 320,320 0 0 0 -5.9,-22.3 444.6,444.6 0 0 0 -64.1,-3.9 z"
           fill="#3366aa"
           stroke="#3366aa"
           stroke-linecap="square"
           stroke-width="5.3"
           id="path559" />
        <g
           transform="translate(798.1,2388.7)"
           id="g565">
          <g
             id="g561">
            <path
               d="m 655.5,86.3 -33.6,35.3 V 348 l 33.6,26.2 z"
               fill="#eecc55"
               stroke="#3366aa"
               stroke-linejoin="round"
               stroke-width="4.3"
               id="path560" />
            <path
               d="m 655.5,103 -23.9,25.5 v 228.3 l 3.1,2.4 0.2,0.2 20.6,16.3 z"
               fill="#ee1111"
               stroke="#3366aa"
               stroke-linejoin="round"
               stroke-width="4.3"
               id="path561" />
          </g>
          <g
             transform="translate(2,8.6)"
             id="g564">
            <path
               d="m 549.9,100.1 c -18.2,28.5 -16.4,69.2 -3.1,117 16.4,-19.7 47,-31 73.2,-44.9 v -24.6 c -45.8,-21.2 -61.1,-35 -70.1,-47.5 z"
               fill="#ffffff"
               stroke="#333333"
               stroke-linecap="round"
               stroke-linejoin="round"
               stroke-width="4.3"
               id="path562" />
            <path
               d="m 543.6,158.3 c 9.6,-3.4 12,-7.1 19.5,-14 16.1,6.9 39.8,10.6 56.6,14 -16.8,3 -40.5,6.2 -56.6,13.3 a 40.6,40.6 0 0 0 -19.5,-13.3 z"
               fill="none"
               stroke="#333333"
               stroke-linecap="round"
               stroke-linejoin="round"
               stroke-width="4.3"
               id="path563" />
            <path
               d="m 563.5,171.4 a 79,79 0 0 1 -12.3,40 c -10.6,-45.4 -11.6,-85.4 2.6,-106 6,12.8 8.5,25.6 9.7,38.4"
               fill="none"
               stroke="#333333"
               stroke-linecap="round"
               stroke-linejoin="round"
               stroke-width="4.3"
               id="path564" />
          </g>
        </g>
        <path
           d="m 941.2,2723.4 c 0,0.1 0.3,1.7 -0.7,5.2 -1.3,4.5 -10,5.5 3.6,13 l -6.6,45.6 c 11.3,0 10.9,5.5 14.3,9 a 592,592 0 0 1 31,-29.9 c -6,-22.5 -41.3,-42.5 -41.6,-42.9 z"
           fill="#ffffff"
           stroke="#333333"
           stroke-linecap="round"
           stroke-linejoin="round"
           stroke-width="4.3"
           id="path565" />
        <path
           d="m 929.7,2754.5 c -1.2,3.2 0.6,7 4.1,8.2 13.8,5.1 7,0.9 8.8,-3 2,-4.3 6.7,-5.8 -4.4,-8.7 -3.6,-1 -7.3,0.3 -8.5,3.5 z m -0.7,14.2 c -0.9,3.4 1.3,6.8 4.8,7.8 14,3.8 7,0.2 8.4,-4 1.5,-4.3 6.1,-6.3 -5.1,-8 -3.7,-0.7 -7.2,0.9 -8.1,4.2 z m 4.2,-27.9 a 6.3,6.3 0 0 0 3.5,8.3 c 12.9,5.3 6.7,1 8.6,-3 2,-4 6.7,-5.5 -3.8,-8.6 -3.4,-1 -7,0.1 -8.3,3.3 z m -3.5,41.1 a 5.3,5.3 0 0 0 3.7,6.6 c 11,3 5.5,0 6.7,-3.5 1.3,-3.8 5,-5.6 -3.9,-7 -2.9,-0.4 -5.7,1 -6.5,4 z"
           fill="#ffffff"
           stroke="#333333"
           stroke-linecap="round"
           stroke-linejoin="round"
           stroke-width="4.3"
           id="path566" />
        <path
           d="m 912,2748 c -1.1,3.2 1.6,7.2 6.2,9 18,6.6 9,1.5 10.9,-2.4 2,-4.2 8,-5.2 -6.5,-9.4 -4.7,-1.3 -9.3,-0.4 -10.5,2.8 z m -1,16 c -0.8,3.3 2.3,7 7,8.3 18.3,4.9 9,0.7 10.4,-3.4 1.6,-4.3 7.4,-6 -7.2,-8.7 -4.8,-0.9 -9.2,0.4 -10.1,3.8 z m 5.8,-30 c -1.3,3.2 1,7.2 5.3,9 17,7 8.6,1.8 10.6,-2 2.1,-4.2 7.8,-5.1 -5.7,-9.5 -4.5,-1.4 -8.9,-0.7 -10.2,2.5 z m -1.1,44.2 c -0.8,2.9 1.5,6 5.2,7 14.5,3.9 7.1,0.4 8.4,-3.1 1.3,-3.8 6,-5.3 -5.6,-7.4 -3.7,-0.6 -7.3,0.6 -8,3.5 z m 27,-19.1 a 6.1,6.1 0 0 0 3.5,8 6.1,6.1 0 0 0 7.8,-3.8 6.1,6.1 0 0 0 -3.4,-8 6.1,6.1 0 0 0 -7.8,3.8 z m -0.4,13 a 6,6 0 0 0 4.1,7.5 c 3.2,0.9 6.4,-1.2 7.3,-4.5 0.9,-3.3 -1,-6.7 -4,-7.6 a 6.2,6.2 0 0 0 -7.4,4.5 z m 3.2,-26.4 c -1.3,3.2 0,6.7 2.8,8 2.9,1.1 6.3,-0.5 7.7,-3.6 1.4,-3.1 0,-6.8 -2.9,-8 -2.9,-1.2 -6.3,0.4 -7.6,3.6 z m -5.3,38.8 c -0.8,2.9 0.6,5.8 3,6.4 2.6,0.7 5.2,-1.1 6,-4 0.8,-2.9 -0.6,-5.8 -3.1,-6.4 -2.5,-0.7 -5.1,1.1 -6,4 z m 0.8,-56.2 c 0.8,-3.8 -1,-7.6 -4,-8.6 -3,-1 -6,1.3 -6.9,5 -0.8,3.8 1,7.6 4,8.6 3,1 6,-1.3 6.9,-5 z"
           fill="#ffffff"
           stroke="#333333"
           stroke-width="4.3"
           id="path567" />
        <path
           d="m 940.9,2723.2 c 25.2,-46.6 48.3,-23 80.3,-33.4 -18,35.4 -52,22.4 -80.3,33.4 z"
           fill="#eecc55"
           stroke="#333333"
           stroke-linecap="round"
           stroke-linejoin="round"
           stroke-width="4.3"
           id="path568" />
        <path
           d="m 948.3,2717.3 c 18.8,-17.9 35.2,-4 66,-22.4 m -52.3,9 -1.2,5 3.9,4.2 m 5.4,-13 -2,7 4.6,6.2 m 5.4,-14.2 -2.5,7 5,6.5 m 4.3,-13.8 -1.8,6.4 4.5,5.5 m 4.4,-11.5 -1.5,4.8 3.7,4.4 m 4.3,-9.7 -0.7,3.4 3.3,3.6"
           fill="none"
           stroke="#333333"
           stroke-linecap="round"
           stroke-linejoin="round"
           stroke-width="4.3"
           id="path569" />
        <path
           d="m 1058.5,2707.5 a 645.3,645.3 0 0 0 -44.8,32.7 64.8,64.8 0 0 1 12.4,34.6 64.4,64.4 0 0 1 -62.4,67.7 67.4,67.4 0 0 1 -41.7,-12.3 368.2,368.2 0 0 0 -31.2,45.5 124.8,124.8 0 0 0 76,22 119.1,119.1 0 0 0 115.4,-125.3 120,120 0 0 0 -23.7,-64.9 z"
           fill="#eecc55"
           id="path570" />
        <path
           d="m 1052.4,2710.4 10.3,18.4 -6.5,3 -4.6,-9 -6.2,3.7 8.1,17.2 13.4,-5 6,20.6 -7.1,1.3 -2.4,-9.8 -6.9,1.9 3.6,18.6 14.3,-1.4 v 21.6 l -7.2,-0.7 0.5,-10.1 h -7.2 l -1.9,18.8 14.1,2.6 -6.5,20.8 -6.6,-2.8 3.5,-9.5 -6.8,-2.2 -7.4,17.4 12.6,6.7 -12.3,18 -5.5,-4.7 6.2,-8 -5.9,-4.2 -12.2,14.6 10.1,10.1 -16.8,13.6 -4,-6 8.2,-6 -4.4,-5.6 -15.9,10.5 6.9,12.6 -20,8.4 -2,-6.9 9.4,-3.4 -2.6,-6.7 -18.2,5.7 3,14 -21.3,2.4 -0.2,-7.1 10,-0.7 -0.8,-7.1 -18.7,0.3 -1.3,14.3 -21.2,-3.6 2,-6.9 9.8,2.1 1.3,-7 -18.4,-4.8 -4.9,13.4 -19.5,-8.8 3.5,-6.2 9,4.5 3.1,-6.5 -17,-9.3"
           fill="none"
           stroke="#333333"
           stroke-linejoin="round"
           stroke-width="4.3"
           id="path571" />
        <path
           d="m 1009.5,2743.5 a 580.6,580.6 0 0 0 -84.3,82.7 62,62 0 0 0 38.1,11.1 59.3,59.3 0 0 0 57.4,-62.3 59.6,59.6 0 0 0 -11.2,-31.5 z"
           fill="#3366aa"
           id="path572" />
        <path
           d="m 906.3,2851.3 a 94.8,94.8 0 0 0 58.9,17.5 90.5,90.5 0 0 0 87.6,-95.2 91.1,91.1 0 0 0 -18.2,-49.5"
           fill="none"
           stroke="#333333"
           stroke-linecap="round"
           stroke-width="4.3"
           id="path573" />
        <path
           d="m 1003.3,2785.8 c 18,-5.2 11.5,-25 -6.2,-17.6 -8.6,3.7 -0.7,5.2 2.8,8.5 4,3.6 -12.4,5.8 -26.3,5.5 a 39.6,39.6 0 0 0 29.7,3.6 z m -17.8,29.7 c 7.8,17.8 -11.6,21 -13,8 -0.5,-4.3 0.8,-5.3 5,-5.9 4.4,-0.5 -5.3,-16.4 -14,-27.6 8.1,4.7 17,14.2 22,25.5 z m -17.7,3.8 c -0.6,17.2 -23.3,16.9 -20.2,-0.6 1.5,-8.6 5.3,-2.1 9.6,0.1 5,2.5 6.5,-12.6 2.5,-24.7 6.9,6.6 8.5,14.3 8,25.2 z m 28.8,-14.8 c 20.5,4 22,-14.3 7.7,-13.4 -4.8,0.4 -5.7,2 -6.8,6 -1,3.8 -14.3,-4 -27.8,-9.8 6.5,6.5 13.9,14.6 26.9,17.2 z"
           fill="#ffffff"
           id="path574" />
        <path
           d="m 916,2835.9 c 2,2.6 -1,13.2 2.3,14.7 3.2,1.6 11.2,-8.3 14.5,-7.1 3.3,1.2 3.3,14 6.8,14.7 3.4,0.8 9,-10.5 12.5,-10.1 3.5,0.4 6.5,12.8 10,12.7 3.5,-0.1 6.2,-12.4 9.8,-12.9 3.6,-0.5 9.3,10.8 12.7,9.9 3.4,-0.9 2.8,-13.6 6,-15 3.2,-1.4 12.1,7.8 15.1,6 3.1,-1.8 -1,-13.7 1.6,-16 2.7,-2.3 13.9,4 16.2,1.4 2.4,-2.7 -5,-13 -3,-16 2,-2.9 14.3,0 15.8,-3.3 1.4,-3.2 -8.7,-10.8 -7.7,-14.2 1,-3.4 13.6,-4.2 14.2,-7.7 0.5,-3.5 -11.5,-8.1 -11.4,-11.7 0,-3.5 12,-7.5 11.6,-11 -0.4,-3.6 -13,-5.1 -13.9,-8.6 -0.9,-3.5 10,-10.2 8.8,-13.6 -1.2,-3.3 -13.8,-2.1 -15.3,-5.4 -1.4,-3.2 8,-11.7 6.3,-14.8"
           fill="none"
           stroke="#333333"
           stroke-width="4.3"
           id="path575" />
        <path
           d="m 1010,3144.6 c -28.9,-120.5 9.8,-200.3 41.6,-262.3 16.4,-32 30.3,-59.6 34.5,-86.4 4.2,-26.8 -0.5,-54.6 -23.7,-91 10.9,-7 22,-14 34.5,-20.3 27.1,42.6 34.2,82 28.7,117.5 -5.5,35.6 -22.1,66.6 -38.4,98.4 -43.8,88.5 -63.1,151.5 -32.9,251.5"
           fill="#333333"
           stroke="#3366aa"
           stroke-linejoin="round"
           stroke-width="5.3"
           id="path576" />
        <path
           d="m 1032.2,3150.7 c -7.1,-7.4 -15,-11.2 -15.6,-14.5 -0.7,-3.3 1,-7 4.3,-7.7 3.4,-0.7 6,1.6 7.1,5 -0.4,-3.5 1,-6.6 4.5,-7.3 3.2,-0.6 6.2,1.6 7,4.8 0.8,3.3 -4.6,9.8 -7.3,19.7 m -7.5,-33.2 c -6.4,-8 -13.8,-12.4 -14.2,-15.8 -0.4,-3.3 1.7,-7 5,-7.3 3.4,-0.4 5.8,2.2 6.6,5.7 -0.1,-3.6 1.7,-6.6 5.2,-7 3.3,-0.3 6,2.2 6.4,5.5 0.5,3.3 -5.4,9.3 -9,19 m -4.3,-33.8 c -5.6,-8.5 -12.5,-14 -12.5,-17.5 0,-3.3 2.4,-6.4 5.8,-6.4 3.4,0 5.5,2.7 6,6.3 0.3,-3.6 2.3,-6.4 5.8,-6.4 3.3,0 5.8,3 5.9,6.3 0,3.4 -6.5,8.5 -11,17.7 m -0.6,-34 c -4.9,-9 -10.8,-15.1 -10.5,-18.5 0.3,-3.3 3.2,-6.4 6.6,-6 3.4,0.4 5.2,3.3 5.1,7 0.8,-3.6 3.2,-6 6.6,-5.7 3.3,0.4 5.3,3.4 5,6.7 -0.2,3.4 -7.6,7.8 -12.8,16.6 m 3.3,-33.9 c -3.7,-9.5 -8.9,-16.7 -8,-20 0.8,-3.2 3.9,-5.6 7.1,-4.8 3.4,0.8 4.8,4 4.3,7.5 1.2,-3.4 3.8,-5.6 7.2,-4.8 3.3,0.8 4.9,4.3 4.2,7.6 -0.7,3.3 -8.5,6.5 -14.8,14.5 m 7.4,-33.1 c -2.3,-10 -6.9,-17.4 -5.7,-20.6 1,-3.1 4.5,-5.4 7.6,-4.3 3.3,1.2 4.3,4.5 3.5,8 1.5,-3.2 4.4,-5 7.6,-3.9 3.2,1.2 4.5,4.7 3.4,7.8 -1,3.3 -9,5.9 -16.4,13 m 11,-32.2 c -1.4,-10.1 -5.2,-18 -3.8,-21 1.4,-3 4.9,-4.8 8,-3.5 3,1.5 3.9,4.8 2.7,8.2 1.8,-3 4.9,-4.7 8,-3.3 3,1.4 4,5.2 2.7,8.2 -1.4,3.2 -9.6,5 -17.5,11.4 m 13.7,-31 c -0.7,-10.3 -4.3,-18 -2.7,-21 1.5,-3 5.1,-4.7 8.1,-3.2 3,1.5 3.7,5 2.4,8.3 2,-3 5,-4.5 8.1,-3 3,1.5 3.8,5.3 2.4,8.3 -1.5,3 -10,4.7 -18.3,10.5 m 15.2,-30.4 c -0.5,-10.2 -4,-18 -2.5,-21 1.5,-2.9 5,-4.4 8,-3 3.1,1.6 3.8,5 2.5,8.3 2,-3 5,-4.6 8.2,-3.1 3,1.4 3.7,5.5 2.2,8.4 -1.5,3 -9.8,4.8 -18.4,10.4 m 15.2,-30.4 c -0.7,-10.2 -5,-17.4 -3.7,-20.6 1.3,-3 4.6,-4.7 7.7,-3.5 3.3,1.2 4.2,4.5 3.2,8 1.7,-3.2 4.6,-5 7.9,-3.8 3,1.2 4.1,5.2 2.9,8.3 -1.2,3.2 -9.6,5.8 -18,11.6 m 13,-31.4 c -2,-10 -7.3,-16 -6.6,-19.4 a 6,6 0 0 1 7,-4.8 c 3.4,0.6 4.9,3.7 4.5,7.3 1.1,-3.5 3.7,-5.8 7.1,-5.2 3.3,0.6 5,4.5 4.3,7.7 -0.6,3.3 -8.7,7.5 -16.3,14.4 m 7.8,-33 c -3.9,-9.5 -10.8,-14 -10.8,-17.4 0,-3.3 2.2,-6 5.5,-6.2 3.5,-0.2 5.8,2.4 6.2,6 0.3,-3.6 2.2,-6.5 5.6,-6.8 3.4,-0.2 6,3.3 6.1,6.6 0.1,3.4 -6.4,9.6 -12.6,17.8 m -0.4,-34 c -6.3,-8 -14,-10.5 -15,-13.8 a 6,6 0 0 1 3.8,-7.5 c 3.3,-1.1 6,0.8 7.4,4.1 -0.6,-3.5 0.5,-6.8 3.8,-8 3.1,-1 6.5,1.6 7.5,4.8 1,3.2 -3.8,11 -7.5,20.5 m -9.1,-32.7 c -8,-6.4 -16.3,-7.5 -17.8,-10.5 -1.5,-3 -0.7,-6.5 2.2,-8.2 3,-1.7 6.2,-0.3 8.2,2.7 -1.4,-3.4 -1,-6.8 2,-8.5 3,-1.6 6.8,0.2 8.4,3 1.6,3 -1.6,11.4 -3,21.5"
           fill="#ee1111"
           stroke="#ee1111"
           stroke-width="1.1"
           id="path577" />
        <path
           d="m 1108.4,2679 c -45.5,19.6 -167.4,103.1 -221.7,203.9 m 566.9,-117.3 c -56,-50 -102.4,-74 -147,-89.7"
           fill="none"
           stroke="#333333"
           stroke-linecap="round"
           stroke-linejoin="round"
           stroke-width="5.3"
           id="path578" />
        <path
           d="m 1212.4,2648.8 -5.8,-129.2 -109.5,4.5 c -6.7,18 -1.3,24.2 0.8,37.8 0.4,13.5 -11,40.4 -13.3,46 -2.7,7 6,14.3 20.4,11 3.5,2.4 -3.9,14 -3.1,17.8 3.4,0.1 6.3,2.4 3.6,6.2 3.3,10.4 -5.5,30.2 2.5,32.7 29,9 80,0.5 104.4,-26.8 z"
           fill="#ffffff"
           id="path579" />
        <path
           d="m 1200.7,2674.9 c 9.8,2.5 12.6,-0.1 17.4,-6.5 a 11.5,11.5 0 0 0 17,4.5 c 4.2,2.8 8.5,2.5 12.5,-0.1 3.3,2.7 7.7,2.8 11.7,0.1 3,2.8 8,3.9 11.8,0.5 4.1,4.5 9.2,4.5 12.2,0.2 3.4,5 8.8,4.8 14,1.3 3.4,3.5 9.6,3 14.3,-0.2 l 3,1.8 a 15.5,15.5 0 0 0 16.5,-1.4 c 6,-4.8 7.8,-14.3 3,-20.9 -4,-5.2 -11.5,-6.9 -16.5,-2.6 a 10.4,10.4 0 0 0 -3.2,10 c -8.5,-25.5 -18.3,-107.7 -29.7,-137.8 l -92,-4 c 4.5,12.2 8.7,46.1 13,78.8 3.5,35.7 -18.5,73.5 -43.3,77.2 0,0 13.6,3.3 20.3,-0.8 0.6,0.4 9.9,6 18,-0.1 z"
           fill="#eecc55"
           id="path580" />
        <path
           d="m 1147.4,2626.7 c 7.5,1.6 5.1,11 -6,10.3 -10.7,-0.7 -13.9,-9 -30,-11.3"
           fill="none"
           stroke="#3366aa"
           stroke-linecap="round"
           stroke-width="4.3"
           id="path581" />
        <path
           d="m 1125.7,2640.3 c -12.8,-0.2 -13.8,-2.7 -19.3,-1.6 -0.7,4.6 6,2.5 19.3,1.6 z"
           fill="#3366aa"
           stroke="#3366aa"
           stroke-linecap="round"
           stroke-linejoin="round"
           stroke-width="4.3"
           id="path582" />
        <path
           d="m 1118.7,2566.6 a 4.7,6.1 0 1 0 9.4,0 4.7,6.1 0 1 0 -9.4,0 z"
           fill="none"
           stroke="#3366aa"
           stroke-linejoin="round"
           stroke-width="2.5"
           id="path583" />
        <path
           d="m 1121.2,2566.6 a 2.1,2.7 0 1 0 4.2,0 2.1,2.7 0 1 0 -4.2,0 z"
           fill="#3366aa"
           stroke-width="0.4"
           id="path584" />
        <path
           d="m 1116.5,2558.8 c 3.8,1 26,4.9 32.5,5.2 -0.1,1.7 -15,0.7 -20,0 -5.2,-0.7 -12.5,-3.3 -12.5,-5.2 z"
           fill="#3366aa"
           stroke="#3366aa"
           stroke-linecap="round"
           stroke-linejoin="round"
           stroke-width="2.8"
           id="path585" />
        <path
           d="m 1148.2,2551.5 c -10.2,-5 -19.4,-7 -32.6,-5.7"
           fill="none"
           stroke="#3366aa"
           stroke-linecap="round"
           stroke-width="4.3"
           id="path586" />
        <path
           d="m 1147,2563.4 c 0.6,-4.2 -9.7,-7.2 -15.7,-8.7 -7.3,-2 -14,-0.2 -15.7,0.9 -1.4,3.4 -4,17.9 4.1,22.2 m 25.2,-12.4 c -6.2,8.5 -23.5,12.8 -30,2.6 m 200,94.8 c -8.7,-24.2 -18.6,-108.4 -30.2,-139 m 27,151 c -5.6,3.7 -13.1,3.7 -15.8,-2.2 -8.8,-19 -24,-127.7 -32.6,-151.6 m 34,154 c -5.5,3.7 -11.6,3.4 -14.3,-2.4 -8.8,-19 -22.8,-127.7 -31.5,-151.6 m 19.7,152.7 c -5.6,3.7 -11.3,1.7 -14,-4.2 -8.7,-19 -20.5,-125.8 -29.2,-149.8 m 55.2,154.1 c -3.4,4.9 -10.4,3.6 -13,-2.2 -8.8,-19 -21.7,-127.9 -30.4,-151.9 m 19.4,153.3 c -5.6,3.8 -11.6,1.9 -14.8,-4.4 -9.4,-18.4 -19.4,-124.9 -28.1,-148.9 m 31.3,153.2 a 11,11 0 0 1 -16.1,-4.3 c -9.4,-18.4 -18.3,-124.9 -27,-148.9 m 70.5,3.3 c 4.9,14.6 24.8,130.1 28.5,138.2 3.7,8 4.6,11 11,15.3 6,3.2 14,2 18.7,-3.3 5,-5.8 5,-15.3 -0.7,-20.7 -4.6,-4.4 -12.1,-4.6 -16.2,0.5 -3,3.9 -3,10.2 1,13.4 2.9,2.3 7.3,2.3 9.3,-1 1.1,-2 1,-5.3 -1.4,-6.2 m -90.7,14 c -5.5,3.8 -12.7,1.7 -16,-4.6 -9.3,-18.4 -17,-124.9 -25.7,-148.9 m 17.7,113.3 c -6.2,19 -4.5,27.7 -27.9,42.1 -6.7,4.1 -20.2,0.7 -20.2,0.7 24.9,-3.7 46.9,-41.6 43.3,-77.5 m 8.2,53 a 49.6,49.6 0 0 1 -12,22.4 c -8.6,8.1 -19.2,1.2 -19.2,1.2 m 35,-6.6 c -4.8,6.3 -7.1,9.3 -17,6.8 m 5,-76.8 c 0,66 -38.7,92 -98.8,78.3 -8,-2.5 1.9,-23.4 -1.4,-33.7 2.7,-3.8 -0.2,-6.2 -3.6,-6.2 -0.8,-3.8 6.6,-15.4 3,-17.8 -14.4,3.2 -23,-4 -20.3,-11 2.2,-5.7 13.7,-32.5 13.2,-46.1 -2,-13.6 -7.5,-19.7 -0.7,-37.8 m 8.3,94.8 7.7,-2.7"
           fill="none"
           stroke="#3366aa"
           stroke-linecap="round"
           stroke-linejoin="round"
           stroke-width="4.3"
           id="path587" />
        <path
           d="M 1119.3,2701.3 V 2687 h 18.5 v 7.1 h -9.3 v 7.2 H 1147 V 2687 h 18.5 v 7.1 h -9.3 v 7.2 h 18.5 V 2687 h 18.5 v 7.1 h -9.3 v 7.2 h 18.5 V 2687 h 18.5 v 7.1 h -9.3 v 7.2 h 18.5 V 2687 h 18.5 v 7.1 h -9.3 v 7.2 h 18.5 V 2687 h 18.5 v 7.1 h -9.3 v 7.2 h 14.1 m -14,168.2 h -8 v -7.2 h 9.2 v -7.2 h -18.5 v 14.4 h -18.4 v -7.2 h 9.2 v -7.2 H 1222 v 14.4 h -18.4 v -7.2 h 9.2 v -7.2 h -18.5 v 14.4 H 1176 v -7.2 h 9.2 v -7.2 h -18.5 v 14.4 h -18.4 v -7.2 h 9.2 v -7.2 H 1139 v 14.4 h -18.4 v -7.2 h 9.2 v -7.2 h -7.5"
           fill="none"
           stroke="#ffffff"
           stroke-linecap="round"
           stroke-linejoin="round"
           stroke-width="4.3"
           id="path588" />
        <path
           d="m 1097.9,2523.4 -37,-73.2 H 1319 l -34.8,73.2 c -52.4,-4 -125.4,-6.3 -186.3,0 z"
           fill="#ee1111"
           stroke="#333333"
           stroke-linecap="round"
           stroke-linejoin="round"
           stroke-width="4.3"
           id="path589" />
        <path
           d="m 1079.8,2450.2 24.8,42.7 47,-2.3 -12.1,-40.4 m 163.8,0 -22,42.2 -49,-1.8 13.7,-40.4 m -18.3,0 -10.1,39.9 -50.7,-0.4 -9.7,-39.5"
           fill="none"
           stroke="#ffffff"
           stroke-linejoin="round"
           stroke-width="6"
           id="path590" />
        <path
           d="m 1292.1,2506.8 -8,16.6 c -52.3,-4 -125.3,-6.3 -186.2,0 l -8.4,-16.6 c 66,-4.8 133,-7 202.6,0 z"
           fill="#333333"
           id="path591" />
        <path
           d="m 1277,2819.1 h -137.4 m 139.9,-80.3 h -137.4"
           fill="none"
           stroke="#ffffff"
           stroke-linecap="round"
           stroke-linejoin="round"
           stroke-width="6"
           id="path592" />
      </g>
      <use
         transform="rotate(180,1062.9,2282.7)"
         width="744.09998"
         height="1052.4"
         xlink:href="#g8100"
         id="use592" />
    </g>
    <use
       transform="translate(1619.7)"
       xlink:href="#u41685"
       id="use593" />
    <use
       transform="translate(1619.9)"
       xlink:href="#u41687"
       id="use594" />
    <use
       transform="translate(0,630)"
       xlink:href="#frame"
       id="use595" />
    <use
       id="u23898"
       transform="matrix(0.879,0,0,0.879,1991.4,-4.8)"
       xlink:href="#heart" />
    <use
       id="u24132"
       transform="rotate(180,2126,787.5)"
       xlink:href="#u23898" />
    <use
       transform="translate(1822.4,1360)"
       style="stroke:#ee1111"
       xlink:href="#J"
       id="use596" />
    <use
       transform="rotate(180,1215,107.5)"
       style="stroke:#ee1111"
       xlink:href="#J"
       id="use597" />
  </g>
  <g
     id="diamond_1"
     transform="translate(-1822.5,-630)">
    <use
       id="u41521"
       transform="rotate(180,101.3,472.6)"
       xlink:href="#diamS" />
    <path
       id="diam"
       d="m 123.5,472.5 a 112.97,112.97 0 0 0 -22,26 97.4,97.4 0 0 0 -22.6,-26 c 11,-10.3 15.8,-14.6 22.6,-26 a 112.57,112.57 0 0 0 22,26 z"
       fill="#ee1111" />
    <use
       id="diamS"
       transform="matrix(0.4423,0,0,0.4423,-27.7,164.5)"
       xlink:href="#diam" />
  </g>
  <g
     id="diamond_2"
     transform="translate(-1822.5,-630)">
    <use
       id="u41525"
       transform="translate(202.5)"
       xlink:href="#diamS" />
    <use
       id="u41527"
       transform="translate(202.5)"
       xlink:href="#u41521" />
    <use
       id="u49155"
       transform="translate(202.5,-105.5)"
       xlink:href="#diam" />
    <use
       id="u49157"
       transform="translate(202.5,105.5)"
       xlink:href="#diam" />
  </g>
  <g
     id="diamond_3"
     transform="translate(-1822.5,-630)">
    <use
       id="u41541"
       transform="translate(405)"
       xlink:href="#diamS" />
    <use
       id="u41543"
       transform="translate(405)"
       xlink:href="#u41521" />
  </g>
  <g
     id="diamond_4"
     transform="translate(-1822.5,-630)">
    <use
       id="u49179"
       transform="translate(362.6)"
       xlink:href="#u49155" />
    <use
       id="u49181"
       transform="matrix(1,0,0,-1,362.6,1156)"
       xlink:href="#u49157" />
    <use
       id="u49189"
       transform="translate(84.8)"
       xlink:href="#u49179" />
    <use
       id="u49191"
       transform="matrix(1,0,0,-1,84.8,945)"
       xlink:href="#u49179" />
  </g>
  <g
     id="diamond_8"
     transform="translate(-1822.5,-630)">
    <use
       id="u49320"
       transform="translate(1375.1,-35.5)"
       xlink:href="#diam" />
    <use
       id="u49322"
       transform="translate(1459.9,-35.5)"
       xlink:href="#diam" />
    <use
       id="u49326"
       transform="matrix(1,0,0,-1,0,944.5)"
       xlink:href="#u49320" />
    <use
       id="u49328"
       transform="matrix(1,0,0,-1,0,944.5)"
       xlink:href="#u49322" />
  </g>
  <g
     id="diamond_9"
     transform="translate(-1822.5,-630)">
    <use
       transform="translate(1620,315)"
       xlink:href="#card"
       id="use790" />
    <use
       transform="translate(1619.9)"
       xlink:href="#diamS"
       id="use791" />
    <use
       transform="translate(1620)"
       xlink:href="#u41521"
       id="use792" />
    <use
       id="u49340"
       transform="translate(202.5)"
       xlink:href="#u49320" />
    <use
       id="u49342"
       transform="translate(202.6)"
       xlink:href="#u49322" />
    <use
       id="u49344"
       transform="translate(202.5)"
       xlink:href="#u49326" />
    <use
       id="u49346"
       transform="translate(202.6)"
       xlink:href="#u49328" />
    <use
       id="u49358"
       transform="translate(1012.5)"
       xlink:href="#u49179" />
    <use
       id="u49360"
       transform="translate(1012.5)"
       xlink:href="#u49181" />
    <use
       id="u49362"
       transform="translate(1012.5)"
       xlink:href="#u49189" />
    <use
       id="u49364"
       transform="translate(1012.5)"
       xlink:href="#u49191" />
    <use
       transform="translate(1620.05)"
       xlink:href="#diam"
       id="use793" />
    <use
       transform="translate(1822.5,1045)"
       style="stroke:#ee1111"
       xlink:href="#9"
       id="use794" />
    <use
       transform="rotate(180,810.05,-50)"
       style="stroke:#ee1111"
       xlink:href="#9"
       id="use795" />
  </g>
  <g
     id="diamond_10"
     transform="translate(-1822.5,-630)">
    <use
       transform="translate(1822.5,315)"
       xlink:href="#card"
       id="use796" />
    <use
       transform="translate(1619.9)"
       xlink:href="#u41525"
       id="use797" />
    <use
       transform="translate(1620)"
       xlink:href="#u41527"
       id="use798" />
    <use
       transform="translate(202.5)"
       xlink:href="#u49340"
       id="use799" />
    <use
       transform="translate(202.4)"
       xlink:href="#u49342"
       id="use800" />
    <use
       transform="translate(202.5)"
       xlink:href="#u49344"
       id="use801" />
    <use
       transform="translate(202.4)"
       xlink:href="#u49346"
       id="use802" />
    <use
       transform="translate(202.5)"
       xlink:href="#u49358"
       id="use803" />
    <use
       transform="translate(202.5)"
       xlink:href="#u49360"
       id="use804" />
    <use
       transform="translate(202.4)"
       xlink:href="#u49362"
       id="use805" />
    <use
       transform="translate(202.4)"
       xlink:href="#u49364"
       id="use806" />
    <use
       id="u14541"
       transform="translate(1822.55,-70.8)"
       xlink:href="#diam" />
    <use
       transform="matrix(1,0,0,-1,-0.05,944.5)"
       xlink:href="#u14541"
       id="use807" />
    <use
       transform="translate(1822.5,1045)"
       style="stroke:#ee1111"
       xlink:href="#10"
       id="use808" />
    <use
       transform="rotate(180,1012.55,-50)"
       style="stroke:#ee1111"
       xlink:href="#10"
       id="use809" />
  </g>
  <g
     id="diamond_jack"
     transform="translate(-1822.5,-630)">
    <use
       transform="rotate(180,1113.75,315)"
       xlink:href="#card"
       id="use810" />
    <g
       transform="matrix(0.2407,0,0,0.2666,1847,-99.1)"
       id="g855">
      <path
         d="m 1442.9,2183.6 v -112.2 l -120.8,-168.6 h -239 l -207,202.3 v 112.2 l 120.8,168.5 h 239 z"
         fill="#333333"
         id="path810" />
      <path
         d="m 1187.1,2144.3 c -19.3,-44.5 -7.6,-101.4 37.1,-207.2 H 1089 c -51.9,122.9 27.4,171 43,207.2 19.4,44.5 7.7,101.4 -37,207.2 h 135 c 52,-122.9 -27.3,-171 -43,-207.2 z"
         fill="#3366aa"
         stroke="#ffffff"
         stroke-width="10"
         id="path811" />
      <g
         id="g8618"
         transform="matrix(1,0,0,1.0014,787.5,-774.6)">
        <path
           d="m 375.8,2891.8 a 34,34 0 0 0 -4.8,20.3 c -7,-6.4 -9.2,-7.5 -18.3,-10 a 33.2,33.2 0 0 0 4.8,-20.2 c 7,6.2 9.3,7.4 18.3,9.9 m -11.7,-40.7 c -6.4,9.4 -7.8,12 -8.4,23.3 a 49.2,49.2 0 0 0 -20.9,-14.7 54.6,54.6 0 0 0 10,-23.7 c 6.3,9.4 8.9,10.7 19.3,15.1 m -3.7,-44.5 c -10,8.3 -12.4,10.5 -16.2,22.9 a 62.7,62.7 0 0 0 -18.6,-22.7 56,56 0 0 0 18,-22.8 c 4.4,12.1 6.7,14.5 16.8,22.6 m 12.7,-55 c -15.2,7.2 -18.9,9.5 -28.3,23.5 a 71.5,71.5 0 0 0 -15.6,-34.4 71,71 0 0 0 30,-23 c 1.8,16.7 3.8,20.5 13.9,34"
           fill="#ee1111"
           id="path812" />
        <path
           d="m 542.4,2684.5 c -18.9,26.3 -53,93.9 -23.3,173 21.8,53.1 69.8,92 124,108.5 l 12.3,-12 v -61.3 c -64.1,-22.1 -92.8,-78.2 -68,-145.5 z"
           fill="#ee1111"
           id="path813" />
        <path
           d="m 551.8,2697.6 c -63.6,107.2 -6.2,222.8 103.6,255 v -51.4 C 603.2,2882 547.6,2827 583.2,2741.2 Z"
           fill="#333333"
           stroke="#3366aa"
           stroke-linejoin="round"
           stroke-width="5.3"
           id="path814" />
        <path
           d="m 567.2,2832.1 c 1.8,10.6 -12.6,13.4 -12.5,2.3 0.1,-5.4 3,-1.9 6,-1.2 3.3,0.9 1.2,-8 -2.5,-15 5,3.3 8,7.2 9,13.9 v 0 m -11.9,-3 c 8.7,-2 2.2,-6.8 -2.9,-10.4 -9.9,-7.1 -6.8,-28.8 -0.6,-34.4 -10.4,4.1 -18,-0.8 -13.8,5.1 -7,3.4 2.3,5.4 5.2,1.3 -3.6,15.4 -12.7,38.4 12.1,38.3 v 0 m 7.6,-48.2 c 6.4,-0.1 5.3,7 -1.3,6.4 -3.3,-0.3 -1.3,-1.6 -0.5,-3 0.9,-1.6 -4.6,-1 -9.1,0.5 2.4,-2.3 6.7,-3.8 10.9,-3.9 v 0 m -10,27.4 c 1.7,5.4 12.3,4.5 10,-5.9 -0.8,-3.4 -3.3,-3.3 -5.8,-1.5 -2.8,2 -0.8,-9.8 -5,-17.7 a 57.2,57.2 0 0 0 0.8,25.1 v 0 m -14.3,-39.6 c -3,-7.3 8.4,-9.3 10.2,-1.4 0.8,3.9 -1,2.3 -3.2,2 -2.6,-0.4 2.3,10.5 6,15.3 -4.1,-2 -11,-11.2 -13,-15.9 v 0 m 24,-16.4 c -4.4,10 -8.1,-24.5 -16.6,-15.5 -5.4,5.7 2.3,10.4 6.6,12 5.8,2.2 2.2,28.6 -2.8,35 8.5,-7 16.8,-12.5 19.6,-18.7 0.7,-3.6 -4,-4.3 -6,-0.2 0.6,-2 -0.1,-14.1 -0.8,-12.6 v 0 m -2,-21 c 1,-7.8 11.8,-4.4 9.6,3.3 -1.1,3.8 -2,2.3 -3.8,1 -2.1,-1.6 -3.2,11 -2.1,16.8 a 43.4,43.4 0 0 1 -3.8,-21.1 v 0 m 74.6,187.9 c 3.9,-8 -3.8,-6 -9.9,-4.2 -11.7,3.2 -26.7,-12.9 -27.1,-21.2 -3.3,10.7 -12,13.5 -4.7,14 -1.8,7.6 5.6,1.5 4.3,-3.3 9.6,12.5 21.8,34 37.4,14.7 v 0 m -32.8,-36.2 c 4,-5.1 8.9,0.3 4.2,5 -2.3,2.3 -2,0 -2.6,-1.5 -0.7,-1.7 -3.7,3 -5.4,7.4 -0.2,-3.3 1.3,-7.6 3.8,-10.9 v 0 m 15.1,25 c 5.3,2 11.3,-6.8 1.7,-11.5 -3.2,-1.5 -4.7,0.5 -4.8,3.6 -0.3,3.4 -8.2,-5.6 -16.8,-7.3 a 57,57 0 0 0 20,15.2 v 0 m -39.8,-13.8 c -7.7,-2.3 -2,-12.4 5.2,-8.8 3.5,1.8 1.3,2.1 -0.5,3.7 -2,1.8 9.7,4.8 15.7,5 a 42.3,42.3 0 0 1 -20.4,0 v 0 m 2.2,-28.9 c 5,9.6 -24,-9.1 -22.5,3.1 1,7.8 9.6,4.9 13.6,2.5 5.3,-3.2 23.5,16.3 25.3,24.2 0,-11 1,-21 -2.1,-27 -2.4,-2.8 -5.9,0.4 -4,4.6 -1.1,-1.8 -11,-8.9 -10.3,-7.4 v 0 m -17.6,-11.6 c -5.4,-5.7 4,-12 8.7,-5.4 2.2,3.2 0.5,2.9 -1.7,3.5 -2.5,0.7 6.6,9.4 11.8,12.3 a 43.4,43.4 0 0 1 -18.8,-10.4 v 0"
           fill="#eecc55"
           stroke="#333333"
           stroke-linecap="round"
           stroke-linejoin="round"
           id="path815" />
        <g
           transform="matrix(-0.88620358,0.46329604,0.46329604,0.88620358,869.06194,2124.1864)"
           id="g817">
          <path
             d="m 586.7,434 c -2.5,-0.8 -4,-0.4 -4.5,0.6 -0.4,1 -0.5,2.8 2.5,4 -1.5,2.7 -0.2,3.6 0.5,3.9 0.8,0.3 2.2,0.6 3.5,-2.6 3.5,2 4,0.2 4.4,-0.5 0.3,-0.6 1,-2.3 -2.3,-3.5 1.3,-2.8 -0.1,-4.3 -0.9,-4.6 -0.8,-0.3 -2,0.1 -3.2,2.7 v 0"
             fill="#eecc55"
             stroke="#333333"
             stroke-linecap="round"
             stroke-linejoin="round"
             id="path816" />
          <path
             d="m 585.9,437.8 c 0.3,0.6 0.8,1 1.6,1 0.7,0 1.4,-0.2 1.8,-0.8 0.5,-0.6 0.6,-1.3 0.3,-2 a 1.8,1.8 0 0 0 -1.6,-1 c -0.7,0 -1.4,0.3 -1.8,0.9 a 1.9,1.9 0 0 0 -0.3,1.9"
             id="path817" />
        </g>
        <g
           transform="matrix(-0.19765734,0.98027117,0.98027117,0.19765734,284.07467,2231.4714)"
           id="g819">
          <path
             d="m 586.7,434 c -2.5,-0.8 -4,-0.4 -4.5,0.6 -0.4,1 -0.5,2.8 2.5,4 -1.5,2.7 -0.2,3.6 0.5,3.9 0.8,0.3 2.2,0.6 3.5,-2.6 3.5,2 4,0.2 4.4,-0.5 0.3,-0.6 1,-2.3 -2.3,-3.5 1.3,-2.8 -0.1,-4.3 -0.9,-4.6 -0.8,-0.3 -2,0.1 -3.2,2.7 v 0"
             fill="#eecc55"
             stroke="#333333"
             stroke-linecap="round"
             stroke-linejoin="round"
             id="path818" />
          <path
             d="m 585.9,437.8 c 0.3,0.6 0.8,1 1.6,1 0.7,0 1.4,-0.2 1.8,-0.8 0.5,-0.6 0.6,-1.3 0.3,-2 a 1.8,1.8 0 0 0 -1.6,-1 c -0.7,0 -1.4,0.3 -1.8,0.9 a 1.9,1.9 0 0 0 -0.3,1.9"
             id="path819" />
        </g>
        <path
           d="m 88.7,2875.6 207,-202 m 239,0 120.7,168.4"
           fill="#eecc55"
           stroke="#333333"
           stroke-linecap="round"
           stroke-linejoin="round"
           stroke-width="5.3"
           id="path820" />
        <path
           d="m 589.6,2782.5 c 0,-38 24.5,-33.3 34,-31 v 62 c -9.3,-2 -34,7 -34,-31 z"
           fill="#ffffff"
           stroke="#333333"
           stroke-linecap="round"
           stroke-linejoin="round"
           stroke-width="3.2"
           id="path821" />
        <path
           d="m 289,2686.9 -136.8,133.3 a 446.7,446.7 0 0 1 38,24.6 l 97.9,-95.4 a 234.1,234.1 0 0 1 13.4,-41.4 h 8.5 z"
           fill="#3366aa"
           stroke="#ffffff"
           stroke-linejoin="round"
           stroke-width="5.3"
           id="path822" />
        <path
           d="m 182.2,2804.5 7,3.5 c 6.7,-2.6 9,5 7,11 -5.8,1.8 -13.4,-0.7 -10.7,-7.4 z m 25.9,-25.3 7,3.5 c 6.7,-2.5 9,5.1 7.1,11 -6,1.8 -13.5,-0.7 -10.8,-7.4 z m 26,-25.2 7,3.5 c 6.6,-2.6 9,5 7,11 -6,1.8 -13.5,-0.8 -10.8,-7.4 z m 25.8,-25.3 7,3.5 c 6.7,-2.5 9,5.1 7.1,11 -6,1.8 -13.5,-0.7 -10.8,-7.4 z m 23.3,-20 -13.2,4.5 -4.9,13 c 14.2,-5.3 19,10.8 15,23.2 -12.5,3.8 -28.5,-1.5 -22.8,-15.5 l -13.2,4.6 -5,13 c 14.3,-5.4 19.2,10.8 15,23.1 -12.4,3.9 -28.4,-1.5 -22.7,-15.5 l -13.2,4.6 -5,13 c 14.3,-5.3 19.2,10.8 15,23.2 -12.4,3.8 -28.4,-1.5 -22.7,-15.5 l -13.2,4.6 -5,13 c 14.3,-5.4 19.2,10.8 15,23.1 -12.5,3.9 -28.5,-1.5 -22.7,-15.5 l -13.2,4.6 -5,13"
           fill="none"
           stroke="#ffffff"
           stroke-linecap="round"
           stroke-linejoin="round"
           stroke-width="2.4"
           id="path823" />
        <path
           d="m 476.5,2691.7 c -27.7,78.8 -29.4,145.5 -3.4,200.9 23.4,49.8 65.3,86.1 121.8,118.2 l 45,-43.8 c -58.8,-31 -94.8,-62.3 -112.5,-100 -17.9,-38 -18.9,-85.5 5.7,-155.4 z"
           fill="#eecc55"
           id="path824" />
        <path
           d="m 605,2988.5 7.7,-14.8 c 2,-3.9 6.9,-5.4 11.2,-3.2 m -22.7,0.3 -8.1,14.5 c -2.1,3.8 0,9.1 4.3,11.3 4.3,2.2 9.7,1 11.6,-3 l 7.4,-14.9 m -32.4,-1.7 8.6,-14.3 c 2.3,-3.7 7,-5 11.1,-2.6 4.1,2.4 5.8,7.1 3.7,11 l -7.8,14.6 m -18.3,-26.6 -9,14 c -2.5,3.6 -0.6,9 3.6,11.5 4.1,2.5 9.5,1.5 11.7,-2.2 L 596,2968 m -51.5,-18.7 10.8,-12.8 a 8,8 0 0 1 11.3,-1 c 3.8,3 4.6,8 2,11.4 l -10,13.4 m 5.1,3.6 9.7,-13.5 a 8,8 0 0 1 11.2,-2 c 4,2.7 5.3,7.6 3,11.3 l -9,14 m -16.1,-27.8 -10.2,13.2 c -2.7,3.4 -1.2,9 2.8,11.8 3.9,2.8 9.4,2.3 11.9,-1.3 l 9.4,-13.8 m -31.5,-24.7 -11.4,12.3 c -2.9,3.2 -1.9,9 1.8,12 3.7,3.2 9.3,3.2 12,-0.2 l 10.5,-13 m -31,-9.4 11.8,-11.7 c 3.1,-3 8.1,-3 11.6,0.4 3.4,3.3 3.5,8 0.6,11.2 l -11,12.5 m -10.8,-30.4 -12.7,10.8 c -3.3,2.8 -2.9,8.7 0.4,12.2 3.3,3.5 9.2,4.3 12.2,1.2 l 11.6,-12 m -43.4,-33 14.5,-8.2 c 3.8,-2.2 8.3,-1.3 11,2.7 2.7,4 1.4,8.5 -2,11 l -13.6,9.8 m 3.8,5 13.2,-10 c 3.5,-2.7 8,-2.4 11.2,1.3 a 8,8 0 0 1 -0.6,11.3 l -12.1,11.4 m -7.4,-31.6 -13.8,9.4 c -3.6,2.5 -3.8,8.5 -0.9,12.4 3,3.8 8.4,5 11.8,2.3 l 13,-10.5 m -21.4,-33.2 -15,7.4 c -3.8,2 -4.9,8 -2.5,12.2 2.4,4.2 7.7,6 11.4,3.8 l 14.3,-8.6 m -25.7,-20 15.5,-6 c 4,-1.6 8.4,-0.2 10.5,4.2 2.1,4.4 0.3,8.6 -3.5,10.6 l -14.7,7.8 m 1.2,-32.3 -15.8,5.2 c -4.1,1.4 -6,7.2 -4.2,11.7 1.8,4.5 6.7,7.1 10.7,5.4 l 15.4,-6.5 m -26.9,-47.5 16.6,-1.7 a 7.9,7.9 0 0 1 8.9,7 c 0.7,4.8 -2,8.4 -6.3,9.3 l -16.3,3.4 m 1.4,6.1 16.2,-3.8 a 7.9,7.9 0 0 1 9.7,5.6 7.8,7.8 0 0 1 -5,10 l -15.6,5.7 m 5.8,-31.9 -16.4,3 c -4.3,0.8 -7,6.2 -5.8,11 1.1,4.6 5.7,8 9.9,6.8 l 16,-4.3 m -6.1,-39 -16.7,0.8 c -4.3,0.2 -7.7,5.2 -7.2,10 0.5,4.8 4.6,9 8.9,8.4 l 16.5,-2.5 m -15.6,-28.2 h 16.7 c 4.3,0 7.8,3.6 8,8.4 0.2,4.8 -3.2,8.1 -7.5,8.4 l -16.6,1.2 m 13.8,-29.2 -16.7,-1.3 c -4.3,-0.3 -8.2,4.2 -8.3,9 -0.1,4.8 3.5,9.5 7.8,9.5 l 16.7,-0.4 m -8.3,-53.8 16.3,3.4 c 4.3,0.8 7,5 6.1,9.8 -0.9,4.8 -4.8,7.4 -9,6.8 l -16.6,-2.4 m -0.8,6.2 16.6,2 c 4.3,0.5 7.3,4 7,8.8 -0.3,4.8 -4.1,8.2 -8.4,8 l -16.7,-1 m 17,-27.5 -16.5,-2.7 c -4.3,-0.7 -8.5,3 -9.2,7.7 -0.7,4.7 2.4,9.8 6.8,10.2 l 16.5,1.7 m 7.1,-39.3 -16,-4.3 c -4.3,-1.1 -8.8,2.4 -9.9,7 -1.1,4.6 1.5,10 5.8,10.8 l 16.4,3 m 21.4,-38 c -1.6,4.5 -6,6.9 -10.1,5.5 l -15.9,-5.1 m -1.8,6 15.9,4.8 a 8,8 0 0 1 5.3,10.1 c -1.2,4.7 -5.5,7.3 -9.7,6.3 l -16.2,-4 m 21.4,-24.2 -15.8,-5.6 c -4,-1.4 -8.9,1.8 -10.3,6.4 -1.4,4.6 0.9,9.6 5,10.8 l 16,4.6"
           fill="none"
           stroke="#333333"
           stroke-linecap="round"
           stroke-linejoin="round"
           stroke-width="4.3"
           id="path825" />
        <path
           d="m 287,2682.2 -31.4,30.6 h 307.2 l -22,-30.6 z"
           fill="#eecc55"
           stroke="#333333"
           stroke-width="3.2"
           id="path826" />
        <path
           d="m 279.1,2689.8 c 5.2,0.1 10.4,15.3 15.6,15.3 5.2,0 10.4,-15.3 15.6,-15.3 5.2,0 10.4,15.3 15.6,15.3 5.2,0 10.4,-15.3 15.6,-15.3 5.2,0 10.4,15.3 15.6,15.3 5.2,0 10.4,-15.3 15.6,-15.3 5.2,0 10.4,15.3 15.6,15.3 5.2,0 10.5,-15.3 15.7,-15.3 5.2,0 10.4,15.3 15.6,15.3 5.2,0 10.4,-15.3 15.6,-15.3 5.2,0 10.4,15.3 15.6,15.3 5.2,0 10.4,-15.3 15.6,-15.3 5.2,0 10.4,15.3 15.7,15.3 5.3,0 10.4,-15.3 15.6,-15.3 5.2,0 10.4,15.3 15.6,15.3 5.2,0 10.4,-15.3 15.6,-15.3 5.2,0 10.4,15.3 15.6,15.3 2.5,0 5,-3.5 7.6,-7.2"
           fill="none"
           stroke="#333333"
           stroke-width="4.3"
           id="path827" />
        <path
           d="M 448.7,2515.6 322,2527.1 c -15.8,63.3 0.6,117.7 13,149.4 9.9,25.6 53.8,25.1 89.4,4 h 59.4 c 0,0 -35.5,-164 -35.2,-164.9 z"
           fill="#ffffff"
           id="path828" />
        <path
           d="m 520.8,2663.9 c -4.2,-25.3 -5,-118.5 -13.5,-142.8 H 431 c 8.8,24.8 6.8,129.8 16.9,149 3.4,6.6 10.8,11.7 18,8.5 3.7,3.4 8.6,5.2 13,3.2 4.7,2.4 10.7,3 13.7,0.5 4.5,1.5 9.9,1.1 13.1,-1.2 3.7,1 8,0.8 11.8,-0.7 a 17.5,17.5 0 0 0 9.4,3 18,18 0 0 0 18,-16.6 c 0.4,-7.6 -5.2,-14.6 -12.9,-14.4 -5.8,0.2 -11.5,5.2 -11.3,11.5 z M 322,2527.4 l -6.4,0.2 c -11.7,50.6 -11.6,110.3 -16.3,128.7 -2.1,-0.6 -2.6,-4 -12.2,-0.7 -7,3.6 -9.4,12.4 -6,19 6.3,10.3 17.5,10.3 26.1,3 -0.3,4.3 5.4,8.6 9.9,5.1 2.5,-2 4,-4.2 5.5,-7.7 0.1,8.5 7.4,13 15,6.7 a 26.1,26.1 0 0 1 -2.7,-5.2 c -12.3,-31.7 -28.7,-86 -13,-149.1 z"
           fill="#eecc55"
           id="path829" />
        <path
           d="m 352.4,2650 c 5,-1.3 23.8,-1 30.9,0.6 -0.3,-6.5 -9.5,-2.4 -15.4,-6.4 -6.1,3.6 -15.4,1.4 -15.5,5.8 z"
           fill="#3366aa"
           stroke="#3366aa"
           stroke-linecap="round"
           stroke-linejoin="round"
           stroke-width="4.3"
           id="path830" />
        <path
           d="m 396.8,2570.5 a 3,2.6 0 1 0 5.8,0 3,2.6 0 1 0 -5.8,0 z"
           fill="#3366aa"
           stroke-width="0.5"
           id="path831" />
        <path
           d="m 388.6,2562.1 c 4.4,1.2 30,5 37.3,5.4 -0.1,1.8 -17.1,0.8 -23,0 -5.8,-0.7 -14.3,-3.4 -14.3,-5.4 z"
           fill="#3366aa"
           stroke="#3366aa"
           stroke-width="2.8"
           id="path832" />
        <path
           d="m 421.3,2569 c -7.1,8.9 -21.7,10.9 -35.8,2.8"
           fill="none"
           stroke="#3366aa"
           stroke-width="2.8"
           id="path833" />
        <path
           d="m 393.1,2570.4 a 6.6,6 0 1 0 13.1,0 6.6,6 0 1 0 -13,0 z"
           fill="none"
           stroke="#3366aa"
           stroke-width="2.4"
           id="path834" />
        <path
           d="m 345.1,2570.7 a 2.5,2.4 0 1 1 -5,0 2.5,2.4 0 1 1 5,0 z"
           fill="#3366aa"
           stroke-width="0.4"
           id="path835" />
        <path
           d="m 355.2,2562.3 c -3.7,1 -25.2,4.4 -31.5,4.7 0.1,1.6 14.5,0.7 19.5,0 5,-0.6 12,-3 12,-4.7 z"
           fill="#3366aa"
           stroke="#3366aa"
           stroke-width="2.8"
           id="path836" />
        <path
           d="m 327.7,2568.3 c 5.8,8.3 17.4,12.1 30.2,2.4"
           fill="none"
           stroke="#3366aa"
           stroke-width="2.8"
           id="path837" />
        <path
           d="m 348.3,2570.7 a 5.7,5.3 0 1 1 -11.4,0 5.7,5.3 0 1 1 11.4,0 z"
           fill="none"
           stroke="#3366aa"
           stroke-width="2.4"
           id="path838" />
        <path
           d="m 385.4,2550.6 a 54,54 0 0 1 40,2.4 m -66.8,-0.8 c -14.6,-9.7 -28.2,-2 -32.3,0.3"
           fill="none"
           stroke="#3366aa"
           stroke-linecap="round"
           stroke-width="5.1"
           id="path839" />
        <path
           d="m 494.6,2521.1 c 9,25.8 8.8,126 15,147.2 a 20,20 0 0 0 2,5.4 c 4.6,8.9 16,12.6 25,7.2 7.3,-4.5 10.8,-14.5 6.5,-22 -3.4,-6 -11.3,-8.5 -17.3,-4.4 -4.5,3.1 -6.6,9.6 -3.5,14.1 2.2,3 6.8,4.3 9.8,1.4 1.6,-1.5 2.5,-4.8 0.3,-6 M 321.2,2633.5 C 318,2663 314,2674 302,2681 a 17,17 0 0 1 -9,1.5 c -8.3,-1 -14.6,-8.4 -13.2,-16.8 1.2,-7 7.8,-12.5 14.8,-11.4 5.5,0.8 9.8,6 8.5,11.9 -1,4.2 -5.2,7.7 -9.6,6.6 -2.9,-0.8 -5.2,-3.9 -4,-7 0.7,-1.5 3,-3.1 4.5,-1.8 m 83.5,-4.2 c -8,3.6 -12.8,3.2 -19.2,0.8 m 20.7,-41 c 3.2,15.7 -11,8.3 -14,5.5 -10.4,8.3 -16.7,-0.6 -14.4,-8.8 2,-6.6 8.3,-36 8,-43.3 m 65.1,-6.2 c 0.7,-4.3 -11,-7.7 -18,-9 -4.7,-0.9 -16,-0.2 -18,1 -1.7,3.5 -4.3,13.3 -2.8,17.5 2.8,8 7,8.7 11.3,12 m -70.6,-21.9 c -0.6,-3.7 10.5,-6.6 15.3,-7.8 4.8,-1.2 13.5,-0.2 15.1,0.8 1.4,3 3.7,11.5 2.4,15.2 -2.4,7 -6,7.6 -9.6,10.4 m -33.1,-57.5 c -13.4,52 -13.3,111 -16.3,128.7 m 29.6,2.9 c -6,14.3 -6.8,19.5 -11.9,23.6 -4.4,3.5 -10,-0.5 -9.7,-4.5 m 30.3,3.4 c -7.6,6.4 -14.8,1.8 -15,-6.6 m -24.3,-2.7 c 16.6,-7.6 11.7,-47.6 18.1,-71.8 m 5.6,-73.5 c -15.9,63.3 0.6,117.7 13,149.5 12,31.1 74.7,23.6 111,-12.7 m 74.8,1.4 C 516.5,2641.9 516,2545.8 507.2,2521 m 11,159.1 c -7.2,3.2 -17.2,1 -20,-5 -9.3,-19.9 -7.6,-129.3 -16.3,-154.1 m 23.9,160.1 c -5.5,4 -17.3,2 -20.2,-4.6 -8.7,-20.1 -7.6,-130.7 -16.4,-155.5 m 9.7,161 c -7.2,3.1 -15,-4 -18.4,-10.5 -10,-19.3 -8,-125.7 -16.7,-150.5 m 49.3,161 c -4.6,4.5 -17.2,0 -20,-6.1 -9.3,-19.8 -7.8,-130.1 -16.6,-154.9 m 9.5,157.5 c -7.1,3.2 -14.6,-1.8 -18,-8.4 -10.2,-19.3 -8.1,-124.3 -16.9,-149.1 m -57,152.4 c -3.9,-1 -8,-1.2 -12,-0.3"
           fill="none"
           stroke="#3366aa"
           stroke-linecap="round"
           stroke-width="4.3"
           id="path840" />
        <path
           d="m 281.5,2762.2 a 10726,10726 0 0 1 -83.5,83.3 c 41.2,30.7 76,72.8 88.7,123.5 12,47.4 6.7,101 -6.8,147.6 h 27 a 813,813 0 0 0 35.5,-105.2 c 8,-32.2 13.3,-69.3 -3.8,-99.3 -14,-24.7 -35.9,-45.1 -47,-71.8 a 149.5,149.5 0 0 1 -10.1,-78.1 z"
           fill="#ee1111"
           stroke="#333333"
           stroke-linejoin="round"
           stroke-width="5.3"
           id="path841" />
        <path
           d="m 508.8,2523.3 42,-73 H 263.9 l 51.4,76 c 58.3,-4.6 125.8,-10.6 193.5,-3 z"
           fill="#ee1111"
           stroke="#333333"
           stroke-linecap="round"
           stroke-linejoin="round"
           stroke-width="4.7"
           id="path842" />
        <path
           d="m 530.7,2450.2 -28.9,41.9 -46.4,-2.5 9.3,-39.4 m -181,0 36.1,41.9 46.5,-2.5 -19.3,-39.4 m 20.2,0 20,39 h 48.3 l 9.6,-39"
           fill="none"
           stroke="#ffffff"
           stroke-linejoin="round"
           stroke-width="6"
           id="path843" />
        <path
           d="m 407.4,2501.9 c 35.1,0 71.6,2 109.4,6.5 l -8,15 c -67.7,-7.7 -135.2,-1.8 -193.5,3 l -9.9,-17.5 a 757,757 0 0 1 102,-7 z"
           fill="#333333"
           id="path844" />
      </g>
      <use
         transform="rotate(180,1159.6,2144.3)"
         width="744.09998"
         height="1052.4"
         xlink:href="#g8618"
         id="use844" />
      <g
         id="g8519"
         transform="matrix(1,0,0,1.0014,787.5,-774.6)">
        <path
           d="m 655.5,2491.6 c -30.9,15 -15.7,74.8 -25.2,104.2 l -6.5,12 h 31.7 z"
           fill="#ee1111"
           stroke="#333333"
           stroke-width="4.3"
           id="path845" />
        <path
           d="m 651.5,2576.2 c -6.4,0.2 -13,3.3 -19.8,6 -7.2,1.5 -16,1.2 -22.6,2.2 a 130,130 0 0 0 46.4,6.5 v -14.4 a 18.5,18.5 0 0 0 -4,-0.3 z"
           fill="#eecc55"
           stroke="#333333"
           stroke-linecap="round"
           stroke-linejoin="round"
           stroke-width="4.3"
           id="path846" />
        <g
           transform="translate(0,2388.7)"
           id="g848">
          <path
             d="m 649,93.2 a 14.5,14.5 0 0 0 0,29 c 2.4,0 4.6,-0.5 6.5,-1.5 v -26 a 14.5,14.5 0 0 0 -6.4,-1.5 z"
             fill="#eecc55"
             stroke="#333333"
             stroke-linecap="round"
             stroke-linejoin="round"
             stroke-width="4.3"
             id="path847" />
          <path
             d="m 635.6,107.6 h 20.5 M 636.3,114 H 652 M 636.2,101.5 H 652"
             fill="none"
             stroke="#333333"
             stroke-width="4.3"
             id="path848" />
        </g>
        <g
           transform="translate(0,2388.7)"
           id="g854">
          <path
             d="m 623.8,219.2 v 489.6 l 31.7,31.7 V 219.2 Z"
             fill="#eecc55"
             stroke="#333333"
             stroke-width="4.3"
             id="path849" />
          <path
             d="m 642.8,727.3 c 2.9,-2.1 7.2,-2.5 7.2,-7.7 0,-5.2 -15.3,-10.4 -15.3,-15.7 0,-5.2 15.3,-10.4 15.3,-15.6 0,-5.2 -15.3,-10.4 -15.3,-15.6 0,-5.2 15.3,-10.4 15.3,-15.6 0,-5.2 -15.3,-10.5 -15.3,-15.7 0,-5.2 15.3,-10.4 15.3,-15.6 0,-5.2 -15.3,-10.4 -15.3,-15.6 0,-5.2 15.3,-10.4 15.3,-15.7 0,-5.3 -15.3,-10.6 -15.3,-15.8 0,-5.2 15.3,-10.4 15.3,-15.6 0,-5.2 -15.3,-10.4 -15.3,-15.6 0,-5.2 15.3,-10.4 15.3,-15.6 0,-5.2 -15.3,-10.4 -15.3,-15.7 0,-5.2 15.3,-10.4 15.3,-15.6 0,-5.2 -15.3,-10.4 -15.3,-15.6 0,-5.2 15.3,-10.4 15.3,-15.6 0,-5.2 -15.3,-10.4 -15.3,-15.7 0,-5.2 15.3,-10.4 15.3,-15.6 0,-5.2 -15.3,-10.4 -15.3,-15.6 0,-5.2 15.3,-10.4 15.3,-15.5 0,-5.2 -15.3,-10.4 -15.3,-15.6 0,-5.2 15.3,-10.4 15.3,-15.6 0,-5.2 -15.3,-10.4 -15.3,-15.6 0,-5.2 15.3,-10.4 15.3,-15.6 0,-5.2 -15.3,-10.5 -15.3,-15.7 0,-5.2 15.3,-10.4 15.3,-15.6 0,-5.2 -15.3,-10.4 -15.3,-15.6 0,-5.2 15.3,-10.4 15.3,-15.6 0,-5.2 -15.3,-10.4 -15.3,-15.6 0,-5.2 15.3,-10.4 15.3,-15.6 0,-5.2 -15.3,-10.4 -15.3,-15.6"
             fill="none"
             stroke="#333333"
             stroke-width="4.3"
             id="path850" />
          <path
             d="M 629.2,236.4 V 705.3"
             fill="#eecc55"
             stroke="#3366aa"
             stroke-linecap="round"
             stroke-linejoin="round"
             stroke-width="5.3"
             id="path851" />
          <g
             transform="rotate(-39.7,545,381.6)"
             id="g853">
            <path
               d="m 622.5,425.5 c 2,-4.5 6.6,-6.5 10.1,-4.6 3.6,2 5,7 3,11.5 -2,4.5 -6.6,6.5 -10.2,4.6 -3.6,-1.9 -4.9,-7 -2.9,-11.5 z"
               fill="#ffffff"
               stroke="#333333"
               stroke-width="3.2"
               id="path852" />
            <path
               d="m 607.6,417 c 2,-4.4 7,-6.3 11,-4 16,8.5 6.5,6 4.3,11.8 -2.3,6.1 0.2,12.4 -11.6,4.2 a 9.8,9.8 0 0 1 -3.7,-12 z"
               fill="#ffffff"
               stroke="#333333"
               stroke-linejoin="round"
               stroke-width="3.2"
               id="path853" />
          </g>
        </g>
        <path
           d="m 580.7,2571 a 72,72 0 0 0 74.8,52.5 v -32.6 a 129.7,129.7 0 0 1 -74.8,-20 z"
           fill="#eecc55"
           stroke="#333333"
           stroke-linejoin="round"
           stroke-width="4.3"
           id="path854" />
      </g>
      <use
         transform="rotate(180,1159.6,2144.3)"
         width="744.09998"
         height="1052.4"
         xlink:href="#g8519"
         id="use854" />
    </g>
    <use
       transform="translate(1619.7)"
       xlink:href="#u41541"
       id="use855" />
    <use
       transform="translate(1619.9)"
       xlink:href="#u41543"
       id="use856" />
    <use
       transform="translate(0,315)"
       xlink:href="#frame"
       id="use857" />
    <use
       id="u19056"
       transform="matrix(0.8808,0,0,0.8808,1991.41,-41.8)"
       xlink:href="#diam" />
    <use
       id="u19268"
       transform="rotate(180,2126,472.5)"
       xlink:href="#u19056" />
    <use
       transform="translate(1822.4,1045)"
       style="stroke:#ee1111"
       xlink:href="#J"
       id="use858" />
    <use
       transform="rotate(180,1215,-50)"
       style="stroke:#ee1111"
       xlink:href="#J"
       id="use859" />
  </g>
  <g
     id="club_1"
     transform="translate(-1822.5,-630)">
    <rect
       id="card"
       x="0.69999999"
       y="0.69999999"
       width="201.10001"
       height="313.60001"
       rx="9"
       ry="9"
       fill="#ffffff"
       stroke="#333333"
       stroke-width="1.4" />
  </g>
</svg>
