<?xml version="1.0" encoding="UTF-8" standalone="no"?>
<svg
   width="202.5"
   height="315"
   version="1.1"
   id="svg1018"
   xmlns:xlink="http://www.w3.org/1999/xlink"
   xmlns="http://www.w3.org/2000/svg"
   xmlns:svg="http://www.w3.org/2000/svg">
  <defs
     id="defs1018" />
  <path
     id="10"
     d="m 20.1,-1035 c -3.2,0 -5.4,3.1 -5.4,8.4 v 10.6 c 0,5.3 2.2,8.4 5.4,8.4 3.2,0 5.4,-3 5.4,-8.4 v -10.6 c 0,-5.3 -2.2,-8.4 -5.4,-8.4 z m -12,-1.2 v 29.8 z"
     style="fill:none;stroke-width:3.5" />
  <g
     id="spade_1"
     transform="translate(-1822.5,-945)">
    <g
       id="g272">
      <use
         id="u42787"
         transform="rotate(180,101.3,1102.5)"
         xlink:href="#p37946" />
      <use
         id="p37946"
         transform="matrix(0.46108,0,0,0.46108,-216.4,495.2)"
         xlink:href="#spade" />
    </g>
  </g>
  <g
     id="spade_2"
     transform="translate(-1822.5,-945)">
    <use
       id="u42791"
       transform="translate(202.6)"
       xlink:href="#p37946" />
    <use
       id="u42793"
       transform="translate(202.6)"
       xlink:href="#u42787" />
    <use
       id="u51906"
       transform="translate(-202.5,-104.7)"
       xlink:href="#spade" />
    <use
       id="u51908"
       transform="matrix(1,0,0,-1,-202.5,2309.7)"
       xlink:href="#spade" />
  </g>
  <g
     id="spade_3"
     transform="translate(-1822.5,-945)">
    <path
       id="spade"
       d="m 506.25,1075.5 c -9,17 -21.75,20.1 -21.75,31.6 0,6.1 4.4,11.3 10.6,11.3 3.7,0.06 7.1,-1.85 9,-5 0,8 -3.2,12.3 -6.3,16 h 16.8 c -3.1,-3.7 -6.4,-8 -6.2,-16 1.9,3.2 5.35,5 9,5 6.2,0 10.5,-5.3 10.6,-11.4 0,-11.4 -12.75,-14.5 -21.75,-31.5 z"
       fill="#333333" />
  </g>
  <g
     id="spade_4"
     transform="translate(-1822.5,-945)">
    <use
       id="u51922"
       transform="translate(362.6)"
       xlink:href="#u51906" />
    <use
       id="u51932"
       transform="translate(84.8)"
       xlink:href="#u51922" />
    <use
       id="u51934"
       transform="translate(84.8)"
       xlink:href="#u51924" />
    <use
       id="u51924"
       transform="translate(362.6)"
       xlink:href="#u51908" />
  </g>
  <g
     id="spade_8"
     transform="translate(-1822.5,-945)">
    <use
       id="u52050"
       transform="translate(810)"
       xlink:href="#u51922" />
    <use
       id="u52052"
       transform="translate(810)"
       xlink:href="#u51924" />
    <use
       id="u52054"
       transform="translate(810)"
       xlink:href="#u51932" />
    <use
       id="u52056"
       transform="translate(810)"
       xlink:href="#u51934" />
    <use
       id="u52064"
       transform="translate(970.1,-34.9)"
       xlink:href="#spade" />
    <use
       id="u52066"
       transform="translate(1054.9,-34.9)"
       xlink:href="#spade" />
    <use
       id="u52068"
       transform="matrix(1,0,0,-1,0,2205)"
       xlink:href="#u52064" />
    <use
       id="u52070"
       transform="matrix(1,0,0,-1,0,2205)"
       xlink:href="#u52066" />
  </g>
  <g
     id="spade_10"
     transform="translate(-1822.5,-945)">
    <use
       transform="translate(1822.5,945)"
       xlink:href="#card"
       id="use328" />
    <use
       transform="translate(1619.9)"
       xlink:href="#u42791"
       id="use329" />
    <use
       transform="translate(1620)"
       xlink:href="#u42793"
       id="use330" />
    <use
       transform="translate(405)"
       xlink:href="#u52050"
       id="use331" />
    <use
       transform="translate(405)"
       xlink:href="#u52052"
       id="use332" />
    <use
       transform="translate(404.85)"
       xlink:href="#u52054"
       id="use333" />
    <use
       transform="translate(404.85)"
       xlink:href="#u52056"
       id="use334" />
    <use
       transform="translate(405)"
       xlink:href="#u52064"
       id="use335" />
    <use
       transform="translate(404.85)"
       xlink:href="#u52066"
       id="use336" />
    <use
       transform="translate(405)"
       xlink:href="#u52068"
       id="use337" />
    <use
       transform="translate(404.85)"
       xlink:href="#u52070"
       id="use338" />
    <use
       id="u52156"
       transform="translate(1417.5,-69.7)"
       xlink:href="#spade" />
    <use
       transform="matrix(1,0,0,-1,0,2206)"
       xlink:href="#u52156"
       id="use339" />
    <use
       transform="translate(1822.5,1990)"
       style="stroke:#333333"
       xlink:href="#10"
       id="use340" />
    <use
       transform="rotate(180,1012.55,107.5)"
       style="stroke:#333333"
       xlink:href="#10"
       id="use341" />
  </g>
  <g
     id="club_1"
     transform="translate(-1822.5,-945)">
    <rect
       id="card"
       x="0.69999999"
       y="0.69999999"
       width="201.10001"
       height="313.60001"
       rx="9"
       ry="9"
       fill="#ffffff"
       stroke="#333333"
       stroke-width="1.4" />
  </g>
</svg>
